<svg width="108" height="105" viewBox="0 0 108 105" fill="none" xmlns="http://www.w3.org/2000/svg">
<circle cx="34.0785" cy="34.0785" r="34.0785" fill="#FF5C19"/>
<circle cx="40.4254" cy="70.4222" r="34.0785" transform="rotate(90 40.4254 70.4222)" fill="#FF5C19"/>
<path d="M35.3727 8.35156L35.3727 31.6251L54.2987 18.3731L55.7647 20.4667L36.6438 33.8553L57.8093 43.725L56.7292 46.0414L35.3752 36.0838V59.6387H32.8193V48.6435L30.9102 59.4703L28.3931 59.0264L31.0991 43.6804L24.564 57.6948L22.2476 56.6147L30.6175 38.6654L15.3308 51.4924L13.6879 49.5345L30.1649 35.7087L8.74229 37.5829L8.51953 35.0368L30.9041 33.0784L13.6908 18.6347L15.3337 16.6768L32.8169 31.347L32.8169 8.35156H35.3727Z" fill="white"/>
<circle cx="73.0629" cy="52.723" r="34.0785" fill="#FF5C19"/>
<path d="M77.8654 73.2047H84.9851V32.3105H74.6292C64.2144 32.3105 58.7422 37.665 58.7422 45.5497C58.7422 51.8456 61.7431 55.5526 67.0976 59.3772L57.8008 73.2047H65.5089L75.8648 57.7297L72.2756 55.3172C67.9214 52.3752 65.8031 50.0804 65.8031 45.1378C65.8031 40.7836 68.8628 37.8416 74.688 37.8416H77.8654V73.2047Z" fill="white"/>
</svg>
