<?xml version="1.0" encoding="UTF-8"?> <svg xmlns="http://www.w3.org/2000/svg" id="Layer_1" version="1.1" viewBox="0 0 1176 744"><defs><style> .st0 { fill: #292929; } .st1 { stroke: #000; stroke-width: .5px; } .st1, .st2 { fill: none; } .st2 { stroke: #fff; stroke-width: 12px; } </style></defs><g id="back"><rect class="st0" y="-216" width="1176" height="1176"></rect></g><g id="grid"><line class="st1" y1="-216" y2="960"></line><line class="st1" x1="24" y1="-216" x2="24" y2="960"></line><line class="st1" x1="48" y1="-216" x2="48" y2="960"></line><line class="st1" x1="72" y1="-216" x2="72" y2="960"></line><line class="st1" x1="96" y1="-216" x2="96" y2="960"></line><line class="st1" x1="120" y1="-216" x2="120" y2="960"></line><line class="st1" x1="144" y1="-216" x2="144" y2="960"></line><line class="st1" x1="168" y1="-216" x2="168" y2="960"></line><line class="st1" x1="192" y1="-216" x2="192" y2="960"></line><line class="st1" x1="216" y1="-216" x2="216" y2="960"></line><line class="st1" x1="240" y1="-216" x2="240" y2="960"></line><line class="st1" x1="264" y1="-216" x2="264" y2="960"></line><line class="st1" x1="288" y1="-216" x2="288" y2="960"></line><line class="st1" x1="312" y1="-216" x2="312" y2="960"></line><line class="st1" x1="336" y1="-216" x2="336" y2="960"></line><line class="st1" x1="360" y1="-216" x2="360" y2="960"></line><line class="st1" x1="384" y1="-216" x2="384" y2="960"></line><line class="st1" x1="408" y1="-216" x2="408" y2="960"></line><line class="st1" x1="432" y1="-216" x2="432" y2="960"></line><line class="st1" x1="456" y1="-216" x2="456" y2="960"></line><line class="st1" x1="480" y1="-216" x2="480" y2="960"></line><line class="st1" x1="504" y1="-216" x2="504" y2="960"></line><line class="st1" x1="528" y1="-216" x2="528" y2="960"></line><line class="st1" x1="552" y1="-216" x2="552" y2="960"></line><line class="st1" x1="576" y1="-216" x2="576" y2="960"></line><line class="st1" x1="600" y1="-216" x2="600" y2="960"></line><line class="st1" x1="624" y1="-216" x2="624" y2="960"></line><line class="st1" x1="648" y1="-216" x2="648" y2="960"></line><line class="st1" x1="672" y1="-216" x2="672" y2="960"></line><line class="st1" x1="696" y1="-216" x2="696" y2="960"></line><line class="st1" x1="720" y1="-216" x2="720" y2="960"></line><line class="st1" x1="744" y1="-216" x2="744" y2="960"></line><line class="st1" x1="768" y1="-216" x2="768" y2="960"></line><line class="st1" x1="792" y1="-216" x2="792" y2="960"></line><line class="st1" x1="816" y1="-216" x2="816" y2="960"></line><line class="st1" x1="840" y1="-216" x2="840" y2="960"></line><line class="st1" x1="864" y1="-216" x2="864" y2="960"></line><line class="st1" x1="888" y1="-216" x2="888" y2="960"></line><line class="st1" x1="912" y1="-216" x2="912" y2="960"></line><line class="st1" x1="936" y1="-216" x2="936" y2="960"></line><line class="st1" x1="960" y1="-216" x2="960" y2="960"></line><line class="st1" x1="984" y1="-216" x2="984" y2="960"></line><line class="st1" x1="1008" y1="-216" x2="1008" y2="960"></line><line class="st1" x1="1032" y1="-216" x2="1032" y2="960"></line><line class="st1" x1="1056" y1="-216" x2="1056" y2="960"></line><line class="st1" x1="1080" y1="-216" x2="1080" y2="960"></line><line class="st1" x1="1104" y1="-216" x2="1104" y2="960"></line><line class="st1" x1="1128" y1="-216" x2="1128" y2="960"></line><line class="st1" x1="1152" y1="-216" x2="1152" y2="960"></line><line class="st1" x1="1176" y1="-216" x2="1176" y2="960"></line><line class="st1" y1="-216" x2="1176" y2="-216"></line><line class="st1" y1="-192" x2="1176" y2="-192"></line><line class="st1" y1="-168" x2="1176" y2="-168"></line><line class="st1" y1="-144" x2="1176" y2="-144"></line><line class="st1" y1="-120" x2="1176" y2="-120"></line><line class="st1" y1="-96" x2="1176" y2="-96"></line><line class="st1" y1="-72" x2="1176" y2="-72"></line><line class="st1" y1="-48" x2="1176" y2="-48"></line><line class="st1" y1="-24" x2="1176" y2="-24"></line><line class="st1" y1="0" x2="1176" y2="0"></line><line class="st1" y1="24" x2="1176" y2="24"></line><line class="st1" y1="48" x2="1176" y2="48"></line><line class="st1" y1="72" x2="1176" y2="72"></line><line class="st1" y1="96" x2="1176" y2="96"></line><line class="st1" y1="120" x2="1176" y2="120"></line><line class="st1" y1="144" x2="1176" y2="144"></line><line class="st1" y1="168" x2="1176" y2="168"></line><line class="st1" y1="192" x2="1176" y2="192"></line><line class="st1" y1="216" x2="1176" y2="216"></line><line class="st1" y1="240" x2="1176" y2="240"></line><line class="st1" y1="264" x2="1176" y2="264"></line><line class="st1" y1="288" x2="1176" y2="288"></line><line class="st1" y1="312" x2="1176" y2="312"></line><line class="st1" y1="336" x2="1176" y2="336"></line><line class="st1" y1="360" x2="1176" y2="360"></line><line class="st1" y1="384" x2="1176" y2="384"></line><line class="st1" y1="408" x2="1176" y2="408"></line><line class="st1" y1="432" x2="1176" y2="432"></line><line class="st1" y1="456" x2="1176" y2="456"></line><line class="st1" y1="480" x2="1176" y2="480"></line><line class="st1" y1="504" x2="1176" y2="504"></line><line class="st1" y1="528" x2="1176" y2="528"></line><line class="st1" y1="552" x2="1176" y2="552"></line><line class="st1" y1="576" x2="1176" y2="576"></line><line class="st1" y1="600" x2="1176" y2="600"></line><line class="st1" y1="624" x2="1176" y2="624"></line><line class="st1" y1="648" x2="1176" y2="648"></line><line class="st1" y1="672" x2="1176" y2="672"></line><line class="st1" y1="696" x2="1176" y2="696"></line><line class="st1" y1="720" x2="1176" y2="720"></line><line class="st1" y1="744" x2="1176" y2="744"></line><line class="st1" y1="768" x2="1176" y2="768"></line><line class="st1" y1="792" x2="1176" y2="792"></line><line class="st1" y1="816" x2="1176" y2="816"></line><line class="st1" y1="840" x2="1176" y2="840"></line><line class="st1" y1="864" x2="1176" y2="864"></line><line class="st1" y1="888" x2="1176" y2="888"></line><line class="st1" y1="912" x2="1176" y2="912"></line><line class="st1" y1="936" x2="1176" y2="936"></line><line class="st1" y1="960" x2="1176" y2="960"></line></g><g id="typo"><g><path class="st2" d="M30,72c0-9.9411259,8.0588741-18,18-18"></path><line class="st2" x1="30" y1="72" x2="30" y2="96"></line><polyline class="st2" points="48 102 30 102 30 120"></polyline><line class="st2" x1="30" y1="120" x2="30" y2="144"></line><path class="st2" d="M54,48c0-9.9411259,8.0588741-18,18-18"></path><path class="st2" d="M54,48c0,3.3137083-2.6862917,6-6,6"></path><line class="st2" x1="72" y1="102" x2="48" y2="102"></line><line class="st2" x1="96" y1="30" x2="72" y2="30"></line><line class="st2" x1="96" y1="102" x2="72" y2="102"></line><path class="st2" d="M96,30c9.9411259,0,18,8.0588741,18,18"></path><path class="st2" d="M120,54c-3.3137083,0-6-2.6862917-6-6"></path><line class="st2" x1="120" y1="102" x2="96" y2="102"></line><path class="st2" d="M120,54c9.9411259,0,18,8.0588741,18,18"></path><line class="st2" x1="138" y1="96" x2="138" y2="72"></line><polyline class="st2" points="138 120 138 102 120 102"></polyline><line class="st2" x1="138" y1="144" x2="138" y2="120"></line></g><g><polyline class="st2" points="192 30 174 30 174 48"></polyline><polyline class="st2" points="174 48 174 66 192 66"></polyline><line class="st2" x1="174" y1="72" x2="174" y2="96"></line><line class="st2" x1="174" y1="96" x2="174" y2="120"></line><polyline class="st2" points="174 120 174 138 192 138"></polyline><line class="st2" x1="216" y1="30" x2="192" y2="30"></line><line class="st2" x1="192" y1="66" x2="216" y2="66"></line><line class="st2" x1="192" y1="138" x2="216" y2="138"></line><line class="st2" x1="240" y1="30" x2="216" y2="30"></line><line class="st2" x1="216" y1="66" x2="240" y2="66"></line><line class="st2" x1="216" y1="138" x2="240" y2="138"></line><line class="st2" x1="264" y1="30" x2="240" y2="30"></line><line class="st2" x1="240" y1="66" x2="264" y2="66"></line><path class="st2" d="M264,78c-3.3137083,0-6-2.6862917-6-6"></path><line class="st2" x1="240" y1="138" x2="264" y2="138"></line><path class="st2" d="M264,30c9.9411259,0,18,8.0588741,18,18"></path><path class="st2" d="M282,48c0,9.9411259-8.0588741,18-18,18"></path><path class="st2" d="M264,78c9.9411259,0,18,8.0588741,18,18"></path><line class="st2" x1="282" y1="120" x2="282" y2="96"></line><path class="st2" d="M282,120c0,9.9411259-8.0588741,18-18,18"></path></g><g><path class="st2" d="M318,72c0-9.9411259,8.0588741-18,18-18"></path><line class="st2" x1="318" y1="72" x2="318" y2="96"></line><path class="st2" d="M336,114c-9.9411259,0-18-8.0588741-18-18"></path><path class="st2" d="M342,48c0-9.9411259,8.0588741-18,18-18"></path><path class="st2" d="M342,48c0,3.3137083-2.6862917,6-6,6"></path><path class="st2" d="M336,114c3.3137083,0,6,2.6862917,6,6"></path><path class="st2" d="M360,138c-9.9411259,0-18-8.0588741-18-18"></path><line class="st2" x1="384" y1="30" x2="360" y2="30"></line><line class="st2" x1="360" y1="138" x2="384" y2="138"></line><path class="st2" d="M384,30c9.9411259,0,18,8.0588741,18,18"></path><path class="st2" d="M408,54c-3.3137083,0-6-2.6862917-6-6"></path><path class="st2" d="M402,120c0-3.3137083,2.6862917-6,6-6"></path><path class="st2" d="M402,120c0,9.9411259-8.0588741,18-18,18"></path><path class="st2" d="M408,54c9.9411259,0,18,8.0588741,18,18"></path><path class="st2" d="M426,96c0,9.9411259-8.0588741,18-18,18"></path></g><g><polyline class="st2" points="480 30 462 30 462 48"></polyline><line class="st2" x1="462" y1="48" x2="462" y2="72"></line><line class="st2" x1="462" y1="72" x2="462" y2="96"></line><line class="st2" x1="462" y1="96" x2="462" y2="120"></line><polyline class="st2" points="462 120 462 138 480 138"></polyline><line class="st2" x1="504" y1="30" x2="480" y2="30"></line><line class="st2" x1="480" y1="138" x2="504" y2="138"></line><line class="st2" x1="528" y1="30" x2="504" y2="30"></line><line class="st2" x1="504" y1="138" x2="528" y2="138"></line><path class="st2" d="M528,30c9.9411259,0,18,8.0588741,18,18"></path><path class="st2" d="M552,54c-3.3137083,0-6-2.6862917-6-6"></path><path class="st2" d="M546,120c0-3.3137083,2.6862917-6,6-6"></path><path class="st2" d="M546,120c0,9.9411259-8.0588741,18-18,18"></path><path class="st2" d="M552,54c9.9411259,0,18,8.0588741,18,18"></path><line class="st2" x1="570" y1="96" x2="570" y2="72"></line><path class="st2" d="M570,96c0,9.9411259-8.0588741,18-18,18"></path></g><g><polyline class="st2" points="624 30 606 30 606 48"></polyline><line class="st2" x1="606" y1="48" x2="606" y2="72"></line><polyline class="st2" points="624 78 606 78 606 96"></polyline><line class="st2" x1="606" y1="96" x2="606" y2="120"></line><polyline class="st2" points="606 120 606 138 624 138"></polyline><line class="st2" x1="648" y1="30" x2="624" y2="30"></line><line class="st2" x1="648" y1="78" x2="624" y2="78"></line><line class="st2" x1="624" y1="138" x2="648" y2="138"></line><line class="st2" x1="672" y1="30" x2="648" y2="30"></line><line class="st2" x1="672" y1="78" x2="648" y2="78"></line><line class="st2" x1="648" y1="138" x2="672" y2="138"></line><line class="st2" x1="696" y1="30" x2="672" y2="30"></line><line class="st2" x1="696" y1="78" x2="672" y2="78"></line><line class="st2" x1="672" y1="138" x2="696" y2="138"></line><line class="st2" x1="720" y1="30" x2="696" y2="30"></line><line class="st2" x1="696" y1="138" x2="720" y2="138"></line></g><g><polyline class="st2" points="768 30 750 30 750 48"></polyline><line class="st2" x1="750" y1="48" x2="750" y2="72"></line><polyline class="st2" points="768 78 750 78 750 96"></polyline><line class="st2" x1="750" y1="96" x2="750" y2="120"></line><line class="st2" x1="750" y1="120" x2="750" y2="144"></line><line class="st2" x1="792" y1="30" x2="768" y2="30"></line><line class="st2" x1="792" y1="78" x2="768" y2="78"></line><line class="st2" x1="816" y1="30" x2="792" y2="30"></line><line class="st2" x1="816" y1="78" x2="792" y2="78"></line><line class="st2" x1="840" y1="30" x2="816" y2="30"></line><line class="st2" x1="840" y1="78" x2="816" y2="78"></line><line class="st2" x1="864" y1="30" x2="840" y2="30"></line></g><g><path class="st2" d="M894,72c0-9.9411259,8.0588741-18,18-18"></path><line class="st2" x1="894" y1="72" x2="894" y2="96"></line><path class="st2" d="M912,114c-9.9411259,0-18-8.0588741-18-18"></path><path class="st2" d="M918,48c0-9.9411259,8.0588741-18,18-18"></path><path class="st2" d="M918,48c0,3.3137083-2.6862917,6-6,6"></path><path class="st2" d="M912,114c3.3137083,0,6,2.6862917,6,6"></path><path class="st2" d="M936,138c-9.9411259,0-18-8.0588741-18-18"></path><line class="st2" x1="960" y1="30" x2="936" y2="30"></line><line class="st2" x1="960" y1="78" x2="936" y2="78"></line><line class="st2" x1="936" y1="138" x2="960" y2="138"></line><line class="st2" x1="984" y1="30" x2="960" y2="30"></line><line class="st2" x1="984" y1="78" x2="960" y2="78"></line><line class="st2" x1="960" y1="138" x2="984" y2="138"></line><path class="st2" d="M984,30c9.9411259,0,18,8.0588741,18,18"></path><path class="st2" d="M984,78c9.9411259,0,18,8.0588741,18,18"></path><line class="st2" x1="1002" y1="120" x2="1002" y2="96"></line><path class="st2" d="M1002,120c0,9.9411259-8.0588741,18-18,18"></path></g><g><line class="st2" x1="1038" y1="24" x2="1038" y2="48"></line><line class="st2" x1="1038" y1="48" x2="1038" y2="72"></line><polyline class="st2" points="1056 78 1038 78 1038 96"></polyline><line class="st2" x1="1038" y1="96" x2="1038" y2="120"></line><line class="st2" x1="1038" y1="120" x2="1038" y2="144"></line><line class="st2" x1="1080" y1="78" x2="1056" y2="78"></line><line class="st2" x1="1104" y1="78" x2="1080" y2="78"></line><line class="st2" x1="1128" y1="78" x2="1104" y2="78"></line><line class="st2" x1="1146" y1="48" x2="1146" y2="24"></line><line class="st2" x1="1146" y1="72" x2="1146" y2="48"></line><polyline class="st2" points="1146 96 1146 78 1128 78"></polyline><line class="st2" x1="1146" y1="120" x2="1146" y2="96"></line><line class="st2" x1="1146" y1="144" x2="1146" y2="120"></line></g><g><line class="st2" x1="48" y1="174" x2="24" y2="174"></line><line class="st2" x1="24" y1="282" x2="48" y2="282"></line><line class="st2" x1="72" y1="174" x2="48" y2="174"></line><line class="st2" x1="48" y1="282" x2="72" y2="282"></line><g><line class="st2" x1="96" y1="174" x2="72" y2="174"></line><line class="st2" x1="84" y1="174" x2="84" y2="192"></line></g><line class="st2" x1="84" y1="192" x2="84" y2="216"></line><line class="st2" x1="84" y1="216" x2="84" y2="240"></line><line class="st2" x1="84" y1="240" x2="84" y2="264"></line><g><line class="st2" x1="72" y1="282" x2="96" y2="282"></line><line class="st2" x1="84" y1="282" x2="84" y2="264"></line></g><line class="st2" x1="120" y1="174" x2="96" y2="174"></line><line class="st2" x1="96" y1="282" x2="120" y2="282"></line><line class="st2" x1="144" y1="174" x2="120" y2="174"></line><line class="st2" x1="120" y1="282" x2="144" y2="282"></line></g><g><line class="st2" x1="192" y1="174" x2="168" y2="174"></line><line class="st2" x1="174" y1="216" x2="174" y2="240"></line><path class="st2" d="M192,258c-9.9411259,0-18-8.0588741-18-18"></path><line class="st2" x1="216" y1="174" x2="192" y2="174"></line><path class="st2" d="M192,258c3.3137083,0,6,2.6862917,6,6"></path><path class="st2" d="M216,282c-9.9411259,0-18-8.0588741-18-18"></path><line class="st2" x1="240" y1="174" x2="216" y2="174"></line><line class="st2" x1="216" y1="282" x2="240" y2="282"></line><line class="st2" x1="264" y1="174" x2="240" y2="174"></line><path class="st2" d="M258,264c0-3.3137083,2.6862917-6,6-6"></path><path class="st2" d="M258,264c0,9.9411259-8.0588741,18-18,18"></path><polyline class="st2" points="282 192 282 174 264 174"></polyline><line class="st2" x1="282" y1="216" x2="282" y2="192"></line><line class="st2" x1="282" y1="240" x2="282" y2="216"></line><path class="st2" d="M282,240c0,9.9411259-8.0588741,18-18,18"></path></g><g><line class="st2" x1="318" y1="168" x2="318" y2="192"></line><line class="st2" x1="318" y1="192" x2="318" y2="216"></line><g><line class="st2" x1="318" y1="216" x2="318" y2="240"></line><line class="st2" x1="318" y1="228" x2="336" y2="228"></line></g><line class="st2" x1="318" y1="240" x2="318" y2="264"></line><line class="st2" x1="318" y1="264" x2="318" y2="288"></line><line class="st2" x1="360" y1="228" x2="336" y2="228"></line><path class="st2" d="M378,216c0-3.3137083,2.6862917-6,6-6"></path><g><line class="st2" x1="378" y1="240" x2="378" y2="216"></line><line class="st2" x1="378" y1="228" x2="360" y2="228"></line></g><path class="st2" d="M384,246c-3.3137083,0-6-2.6862917-6-6"></path><line class="st2" x1="384" y1="210" x2="408" y2="210"></line><line class="st2" x1="408" y1="246" x2="384" y2="246"></line><line class="st2" x1="426" y1="192" x2="426" y2="168"></line><path class="st2" d="M426,192c0,9.9411259-8.0588741,18-18,18"></path><path class="st2" d="M408,246c9.9411259,0,18,8.0588741,18,18"></path><line class="st2" x1="426" y1="288" x2="426" y2="264"></line></g><g><line class="st2" x1="462" y1="168" x2="462" y2="192"></line><line class="st2" x1="462" y1="192" x2="462" y2="216"></line><line class="st2" x1="462" y1="216" x2="462" y2="240"></line><line class="st2" x1="462" y1="240" x2="462" y2="264"></line><polyline class="st2" points="462 264 462 282 480 282"></polyline><line class="st2" x1="480" y1="282" x2="504" y2="282"></line><line class="st2" x1="504" y1="282" x2="528" y2="282"></line><line class="st2" x1="528" y1="282" x2="552" y2="282"></line><line class="st2" x1="552" y1="282" x2="576" y2="282"></line></g><g><line class="st2" x1="606" y1="168" x2="606" y2="192"></line><polyline class="st2" points="624 198 606 198 606 216"></polyline><line class="st2" x1="606" y1="216" x2="606" y2="240"></line><line class="st2" x1="606" y1="240" x2="606" y2="264"></line><line class="st2" x1="606" y1="264" x2="606" y2="288"></line><path class="st2" d="M630,192c0-9.9411259,8.0588741-18,18-18"></path><path class="st2" d="M630,192c0,3.3137083-2.6862917,6-6,6"></path><path class="st2" d="M648,174c9.9411259,0,18,8.0588741,18,18"></path><line class="st2" x1="666" y1="216" x2="666" y2="192"></line><line class="st2" x1="666" y1="240" x2="666" y2="216"></line><line class="st2" x1="666" y1="264" x2="666" y2="240"></line><line class="st2" x1="666" y1="288" x2="666" y2="264"></line><path class="st2" d="M678,192c0-9.9411259,8.0588741-18,18-18"></path><path class="st2" d="M678,192c0,3.3137083-2.6862917,6-6,6"></path><path class="st2" d="M696,174c9.9411259,0,18,8.0588741,18,18"></path><line class="st2" x1="714" y1="216" x2="714" y2="192"></line><line class="st2" x1="714" y1="240" x2="714" y2="216"></line><line class="st2" x1="714" y1="264" x2="714" y2="240"></line><line class="st2" x1="714" y1="288" x2="714" y2="264"></line></g><g><line class="st2" x1="750" y1="168" x2="750" y2="192"></line><polyline class="st2" points="768 198 750 198 750 216"></polyline><line class="st2" x1="750" y1="216" x2="750" y2="240"></line><line class="st2" x1="750" y1="240" x2="750" y2="264"></line><line class="st2" x1="750" y1="264" x2="750" y2="288"></line><path class="st2" d="M774,192c0-9.9411259,8.0588741-18,18-18"></path><path class="st2" d="M774,192c0,3.3137083-2.6862917,6-6,6"></path><line class="st2" x1="816" y1="174" x2="792" y2="174"></line><line class="st2" x1="840" y1="174" x2="816" y2="174"></line><path class="st2" d="M840,174c9.9411259,0,18,8.0588741,18,18"></path><line class="st2" x1="858" y1="216" x2="858" y2="192"></line><line class="st2" x1="858" y1="240" x2="858" y2="216"></line><line class="st2" x1="858" y1="264" x2="858" y2="240"></line><line class="st2" x1="858" y1="288" x2="858" y2="264"></line></g><g><path class="st2" d="M894,216c0-9.9411259,8.0588741-18,18-18"></path><line class="st2" x1="894" y1="216" x2="894" y2="240"></line><path class="st2" d="M912,258c-9.9411259,0-18-8.0588741-18-18"></path><path class="st2" d="M918,192c0-9.9411259,8.0588741-18,18-18"></path><path class="st2" d="M918,192c0,3.3137083-2.6862917,6-6,6"></path><path class="st2" d="M912,258c3.3137083,0,6,2.6862917,6,6"></path><path class="st2" d="M936,282c-9.9411259,0-18-8.0588741-18-18"></path><line class="st2" x1="960" y1="174" x2="936" y2="174"></line><line class="st2" x1="936" y1="282" x2="960" y2="282"></line><path class="st2" d="M960,174c9.9411259,0,18,8.0588741,18,18"></path><path class="st2" d="M984,198c-3.3137083,0-6-2.6862917-6-6"></path><path class="st2" d="M978,264c0-3.3137083,2.6862917-6,6-6"></path><path class="st2" d="M978,264c0,9.9411259-8.0588741,18-18,18"></path><path class="st2" d="M984,198c9.9411259,0,18,8.0588741,18,18"></path><line class="st2" x1="1002" y1="240" x2="1002" y2="216"></line><path class="st2" d="M1002,240c0,9.9411259-8.0588741,18-18,18"></path></g><g><polyline class="st2" points="1056 174 1038 174 1038 192"></polyline><polyline class="st2" points="1038 192 1038 210 1056 210"></polyline><line class="st2" x1="1038" y1="216" x2="1038" y2="240"></line><line class="st2" x1="1038" y1="240" x2="1038" y2="264"></line><line class="st2" x1="1038" y1="264" x2="1038" y2="288"></line><line class="st2" x1="1080" y1="174" x2="1056" y2="174"></line><path class="st2" d="M1056,210c3.3137083,0,6,2.6862917,6,6"></path><path class="st2" d="M1080,234c-9.9411259,0-18-8.0588741-18-18"></path><line class="st2" x1="1104" y1="174" x2="1080" y2="174"></line><line class="st2" x1="1080" y1="234" x2="1104" y2="234"></line><line class="st2" x1="1128" y1="174" x2="1104" y2="174"></line><line class="st2" x1="1104" y1="234" x2="1128" y2="234"></line><path class="st2" d="M1128,174c9.9411259,0,18,8.0588741,18,18"></path><line class="st2" x1="1146" y1="216" x2="1146" y2="192"></line><path class="st2" d="M1146,216c0,9.9411259-8.0588741,18-18,18"></path></g><g><path class="st2" d="M30,360c0-9.9411259,8.0588741-18,18-18"></path><line class="st2" x1="30" y1="360" x2="30" y2="384"></line><path class="st2" d="M48,402c-9.9411259,0-18-8.0588741-18-18"></path><path class="st2" d="M54,336c0-9.9411259,8.0588741-18,18-18"></path><path class="st2" d="M54,336c0,3.3137083-2.6862917,6-6,6"></path><path class="st2" d="M48,402c3.3137083,0,6,2.6862917,6,6"></path><path class="st2" d="M72,426c-9.9411259,0-18-8.0588741-18-18"></path><line class="st2" x1="96" y1="318" x2="72" y2="318"></line><line class="st2" x1="72" y1="426" x2="96" y2="426"></line><path class="st2" d="M96,318c9.9411259,0,18,8.0588741,18,18"></path><path class="st2" d="M120,342c-3.3137083,0-6-2.6862917-6-6"></path><path class="st2" d="M114,384c0-3.3137083,2.6862917-6,6-6"></path><path class="st2" d="M120,390c-3.3137083,0-6-2.6862917-6-6"></path><path class="st2" d="M114,408c0,9.9411259-8.0588741,18-18,18"></path><path class="st2" d="M120,342c9.9411259,0,18,8.0588741,18,18"></path><path class="st2" d="M138,360c0,9.9411259-8.0588741,18-18,18"></path><path class="st2" d="M120,390c9.9411259,0,18,8.0588741,18,18"></path><line class="st2" x1="138" y1="432" x2="138" y2="408"></line></g><g><polyline class="st2" points="192 318 174 318 174 336"></polyline><line class="st2" x1="174" y1="336" x2="174" y2="360"></line><polyline class="st2" points="174 360 174 378 192 378"></polyline><line class="st2" x1="174" y1="384" x2="174" y2="408"></line><line class="st2" x1="174" y1="408" x2="174" y2="432"></line><line class="st2" x1="216" y1="318" x2="192" y2="318"></line><line class="st2" x1="192" y1="378" x2="216" y2="378"></line><line class="st2" x1="240" y1="318" x2="216" y2="318"></line><line class="st2" x1="216" y1="378" x2="240" y2="378"></line><line class="st2" x1="264" y1="318" x2="240" y2="318"></line><line class="st2" x1="240" y1="378" x2="264" y2="378"></line><path class="st2" d="M264,390c-3.3137083,0-6-2.6862917-6-6"></path><path class="st2" d="M264,318c9.9411259,0,18,8.0588741,18,18"></path><line class="st2" x1="282" y1="360" x2="282" y2="336"></line><path class="st2" d="M282,360c0,9.9411259-8.0588741,18-18,18"></path><path class="st2" d="M264,390c9.9411259,0,18,8.0588741,18,18"></path><line class="st2" x1="282" y1="432" x2="282" y2="408"></line></g><g><path class="st2" d="M318,360c0-9.9411259,8.0588741-18,18-18"></path><path class="st2" d="M336,378c-9.9411259,0-18-8.0588741-18-18"></path><path class="st2" d="M336,402c-9.9411259,0-18-8.0588741-18-18"></path><path class="st2" d="M342,336c0-9.9411259,8.0588741-18,18-18"></path><path class="st2" d="M342,336c0,3.3137083-2.6862917,6-6,6"></path><line class="st2" x1="336" y1="378" x2="360" y2="378"></line><path class="st2" d="M336,402c3.3137083,0,6,2.6862917,6,6"></path><path class="st2" d="M360,426c-9.9411259,0-18-8.0588741-18-18"></path><line class="st2" x1="384" y1="318" x2="360" y2="318"></line><polyline class="st2" points="360 378 378 378 378 360"></polyline><line class="st2" x1="360" y1="426" x2="384" y2="426"></line><path class="st2" d="M384,318c9.9411259,0,18,8.0588741,18,18"></path><path class="st2" d="M408,342c-3.3137083,0-6-2.6862917-6-6"></path><line class="st2" x1="408" y1="366" x2="384" y2="366"></line><path class="st2" d="M402,408c0-3.3137083,2.6862917-6,6-6"></path><path class="st2" d="M402,408c0,9.9411259-8.0588741,18-18,18"></path><path class="st2" d="M408,342c9.9411259,0,18,8.0588741,18,18"></path><path class="st2" d="M408,366c9.9411259,0,18,8.0588741,18,18"></path><path class="st2" d="M426,384c0,9.9411259-8.0588741,18-18,18"></path></g><g><line class="st2" x1="480" y1="318" x2="456" y2="318"></line><line class="st2" x1="504" y1="318" x2="480" y2="318"></line><g><line class="st2" x1="528" y1="318" x2="504" y2="318"></line><line class="st2" x1="516" y1="318" x2="516" y2="336"></line></g><line class="st2" x1="516" y1="336" x2="516" y2="360"></line><line class="st2" x1="516" y1="360" x2="516" y2="384"></line><line class="st2" x1="516" y1="384" x2="516" y2="408"></line><line class="st2" x1="516" y1="408" x2="516" y2="432"></line><line class="st2" x1="552" y1="318" x2="528" y2="318"></line><line class="st2" x1="576" y1="318" x2="552" y2="318"></line></g><g><line class="st2" x1="606" y1="312" x2="606" y2="336"></line><line class="st2" x1="606" y1="336" x2="606" y2="360"></line><line class="st2" x1="606" y1="360" x2="606" y2="384"></line><line class="st2" x1="606" y1="384" x2="606" y2="408"></line><path class="st2" d="M624,426c-9.9411259,0-18-8.0588741-18-18"></path><line class="st2" x1="624" y1="426" x2="648" y2="426"></line><line class="st2" x1="648" y1="426" x2="672" y2="426"></line><line class="st2" x1="672" y1="426" x2="696" y2="426"></line><line class="st2" x1="714" y1="336" x2="714" y2="312"></line><line class="st2" x1="714" y1="360" x2="714" y2="336"></line><line class="st2" x1="714" y1="384" x2="714" y2="360"></line><line class="st2" x1="714" y1="408" x2="714" y2="384"></line><path class="st2" d="M714,408c0,9.9411259-8.0588741,18-18,18"></path></g><g><line class="st2" x1="750" y1="312" x2="750" y2="336"></line><line class="st2" x1="750" y1="336" x2="750" y2="360"></line><line class="st2" x1="750" y1="360" x2="750" y2="384"></line><path class="st2" d="M768,402c-9.9411259,0-18-8.0588741-18-18"></path><path class="st2" d="M768,402c3.3137083,0,6,2.6862917,6,6"></path><path class="st2" d="M792,426c-9.9411259,0-18-8.0588741-18-18"></path><line class="st2" x1="792" y1="426" x2="816" y2="426"></line><path class="st2" d="M834,408c0-3.3137083,2.6862917-6,6-6"></path><path class="st2" d="M834,408c0,9.9411259-8.0588741,18-18,18"></path><line class="st2" x1="858" y1="336" x2="858" y2="312"></line><line class="st2" x1="858" y1="360" x2="858" y2="336"></line><line class="st2" x1="858" y1="384" x2="858" y2="360"></line><path class="st2" d="M858,384c0,9.9411259-8.0588741,18-18,18"></path></g><g><line class="st2" x1="894" y1="312" x2="894" y2="336"></line><line class="st2" x1="894" y1="336" x2="894" y2="360"></line><line class="st2" x1="894" y1="360" x2="894" y2="384"></line><line class="st2" x1="894" y1="384" x2="894" y2="408"></line><path class="st2" d="M912,426c-9.9411259,0-18-8.0588741-18-18"></path><path class="st2" d="M930,384c0-3.3137083,2.6862917-6,6-6"></path><line class="st2" x1="930" y1="408" x2="930" y2="384"></line><path class="st2" d="M930,408c0,9.9411259-8.0588741,18-18,18"></path><line class="st2" x1="948" y1="312" x2="948" y2="336"></line><line class="st2" x1="948" y1="336" x2="948" y2="360"></line><g><line class="st2" x1="936" y1="378" x2="960" y2="378"></line><line class="st2" x1="948" y1="378" x2="948" y2="360"></line></g><path class="st2" d="M960,378c3.3137083,0,6,2.6862917,6,6"></path><line class="st2" x1="966" y1="384" x2="966" y2="408"></line><path class="st2" d="M984,426c-9.9411259,0-18-8.0588741-18-18"></path><line class="st2" x1="1002" y1="336" x2="1002" y2="312"></line><line class="st2" x1="1002" y1="360" x2="1002" y2="336"></line><line class="st2" x1="1002" y1="384" x2="1002" y2="360"></line><line class="st2" x1="1002" y1="408" x2="1002" y2="384"></line><path class="st2" d="M1002,408c0,9.9411259-8.0588741,18-18,18"></path></g><g><line class="st2" x1="1056" y1="318" x2="1032" y2="318"></line><line class="st2" x1="1032" y1="426" x2="1056" y2="426"></line><path class="st2" d="M1056,318c9.9411259,0,18,8.0588741,18,18"></path><line class="st2" x1="1074" y1="360" x2="1074" y2="336"></line><path class="st2" d="M1080,366c-3.3137083,0-6-2.6862917-6-6"></path><line class="st2" x1="1074" y1="408" x2="1074" y2="384"></line><path class="st2" d="M1074,408c0,9.9411259-8.0588741,18-18,18"></path><polyline class="st2" points="1086 360 1086 378 1104 378"></polyline><path class="st2" d="M1110,336c0-9.9411259,8.0588741-18,18-18"></path><line class="st2" x1="1110" y1="336" x2="1110" y2="360"></line><path class="st2" d="M1104,378c3.3137083,0,6,2.6862917,6,6"></path><line class="st2" x1="1110" y1="384" x2="1110" y2="408"></line><path class="st2" d="M1128,426c-9.9411259,0-18-8.0588741-18-18"></path><line class="st2" x1="1152" y1="318" x2="1128" y2="318"></line><line class="st2" x1="1128" y1="426" x2="1152" y2="426"></line></g><g><line class="st2" x1="48" y1="462" x2="24" y2="462"></line><path class="st2" d="M48,462c9.9411259,0,18,8.0588741,18,18"></path><line class="st2" x1="66" y1="504" x2="66" y2="480"></line><path class="st2" d="M72,510c-3.3137083,0-6-2.6862917-6-6"></path><g><line class="st2" x1="96" y1="510" x2="72" y2="510"></line><line class="st2" x1="84" y1="510" x2="84" y2="528"></line></g><line class="st2" x1="84" y1="528" x2="84" y2="552"></line><line class="st2" x1="84" y1="552" x2="84" y2="576"></line><path class="st2" d="M102,480c0-9.9411259,8.0588741-18,18-18"></path><line class="st2" x1="102" y1="480" x2="102" y2="504"></line><path class="st2" d="M102,504c0,3.3137083-2.6862917,6-6,6"></path><line class="st2" x1="144" y1="462" x2="120" y2="462"></line></g><g><line class="st2" x1="192" y1="462" x2="168" y2="462"></line><path class="st2" d="M174,552c0-9.9411259,8.0588741-18,18-18"></path><path class="st2" d="M192,570c-9.9411259,0-18-8.0588741-18-18"></path><line class="st2" x1="216" y1="462" x2="192" y2="462"></line><path class="st2" d="M198,528c0-9.9411259,8.0588741-18,18-18"></path><path class="st2" d="M198,528c0,3.3137083-2.6862917,6-6,6"></path><line class="st2" x1="192" y1="570" x2="216" y2="570"></line><line class="st2" x1="240" y1="462" x2="216" y2="462"></line><path class="st2" d="M234,504c0-3.3137083,2.6862917-6,6-6"></path><line class="st2" x1="240" y1="510" x2="216" y2="510"></line><line class="st2" x1="216" y1="570" x2="240" y2="570"></line><line class="st2" x1="264" y1="462" x2="240" y2="462"></line><line class="st2" x1="240" y1="498" x2="264" y2="498"></line><line class="st2" x1="240" y1="570" x2="264" y2="570"></line><path class="st2" d="M264,462c9.9411259,0,18,8.0588741,18,18"></path><path class="st2" d="M282,480c0,9.9411259-8.0588741,18-18,18"></path><line class="st2" x1="264" y1="570" x2="288" y2="570"></line></g><g><path class="st2" d="M318,504c0-9.9411259,8.0588741-18,18-18"></path><line class="st2" x1="318" y1="504" x2="318" y2="528"></line><path class="st2" d="M336,546c-9.9411259,0-18-8.0588741-18-18"></path><path class="st2" d="M342,480c0-9.9411259,8.0588741-18,18-18"></path><path class="st2" d="M342,480c0,3.3137083-2.6862917,6-6,6"></path><path class="st2" d="M336,546c3.3137083,0,6,2.6862917,6,6"></path><path class="st2" d="M360,570c-9.9411259,0-18-8.0588741-18-18"></path><line class="st2" x1="384" y1="462" x2="360" y2="462"></line><line class="st2" x1="384" y1="516" x2="360" y2="516"></line><line class="st2" x1="360" y1="570" x2="384" y2="570"></line><path class="st2" d="M384,462c9.9411259,0,18,8.0588741,18,18"></path><path class="st2" d="M408,486c-3.3137083,0-6-2.6862917-6-6"></path><path class="st2" d="M402,552c0-3.3137083,2.6862917-6,6-6"></path><path class="st2" d="M402,552c0,9.9411259-8.0588741,18-18,18"></path><path class="st2" d="M408,486c9.9411259,0,18,8.0588741,18,18"></path><line class="st2" x1="426" y1="528" x2="426" y2="504"></line><path class="st2" d="M426,528c0,9.9411259-8.0588741,18-18,18"></path></g><g><line class="st2" x1="456" y1="570" x2="480" y2="570"></line><line class="st2" x1="504" y1="462" x2="480" y2="462"></line><line class="st2" x1="480" y1="570" x2="504" y2="570"></line><polyline class="st2" points="522 480 522 462 504 462"></polyline><line class="st2" x1="522" y1="504" x2="522" y2="480"></line><line class="st2" x1="522" y1="528" x2="522" y2="504"></line><line class="st2" x1="522" y1="552" x2="522" y2="528"></line><polyline class="st2" points="504 570 522 570 522 552"></polyline><line class="st2" x1="528" y1="570" x2="552" y2="570"></line><line class="st2" x1="552" y1="570" x2="576" y2="570"></line></g><g><path class="st2" d="M606,480c0-9.9411259,8.0588741-18,18-18"></path><line class="st2" x1="606" y1="480" x2="606" y2="504"></line><path class="st2" d="M606,552c0-9.9411259,8.0588741-18,18-18"></path><path class="st2" d="M624,570c-9.9411259,0-18-8.0588741-18-18"></path><line class="st2" x1="648" y1="462" x2="624" y2="462"></line><line class="st2" x1="624" y1="522" x2="648" y2="522"></line><line class="st2" x1="624" y1="570" x2="648" y2="570"></line><line class="st2" x1="672" y1="462" x2="648" y2="462"></line><line class="st2" x1="648" y1="522" x2="672" y2="522"></line><line class="st2" x1="648" y1="570" x2="672" y2="570"></line><line class="st2" x1="696" y1="462" x2="672" y2="462"></line><line class="st2" x1="672" y1="522" x2="696" y2="522"></line><line class="st2" x1="672" y1="570" x2="696" y2="570"></line><path class="st2" d="M696,462c9.9411259,0,18,8.0588741,18,18"></path><line class="st2" x1="714" y1="504" x2="714" y2="480"></line><path class="st2" d="M714,504c0,9.9411259-8.0588741,18-18,18"></path><line class="st2" x1="696" y1="570" x2="720" y2="570"></line></g><g><line class="st2" x1="768" y1="462" x2="744" y2="462"></line><line class="st2" x1="744" y1="570" x2="768" y2="570"></line><line class="st2" x1="792" y1="462" x2="768" y2="462"></line><line class="st2" x1="792" y1="510" x2="768" y2="510"></line><line class="st2" x1="768" y1="570" x2="792" y2="570"></line><line class="st2" x1="816" y1="462" x2="792" y2="462"></line><line class="st2" x1="816" y1="510" x2="792" y2="510"></line><line class="st2" x1="792" y1="570" x2="816" y2="570"></line><line class="st2" x1="840" y1="462" x2="816" y2="462"></line><line class="st2" x1="840" y1="510" x2="816" y2="510"></line><line class="st2" x1="816" y1="570" x2="840" y2="570"></line><path class="st2" d="M840,462c9.9411259,0,18,8.0588741,18,18"></path><path class="st2" d="M858,480c0,9.9411259-8.0588741,18-18,18"></path><path class="st2" d="M840,510c9.9411259,0,18,8.0588741,18,18"></path><line class="st2" x1="858" y1="552" x2="858" y2="528"></line><path class="st2" d="M858,552c0,9.9411259-8.0588741,18-18,18"></path></g><g><line class="st2" x1="894" y1="456" x2="894" y2="480"></line><line class="st2" x1="894" y1="480" x2="894" y2="504"></line><path class="st2" d="M912,522c-9.9411259,0-18-8.0588741-18-18"></path><line class="st2" x1="912" y1="522" x2="936" y2="522"></line><line class="st2" x1="936" y1="522" x2="960" y2="522"></line><line class="st2" x1="960" y1="522" x2="984" y2="522"></line><line class="st2" x1="1002" y1="480" x2="1002" y2="456"></line><line class="st2" x1="1002" y1="504" x2="1002" y2="480"></line><polyline class="st2" points="984 522 1002 522 1002 504"></polyline><line class="st2" x1="1002" y1="552" x2="1002" y2="528"></line><line class="st2" x1="1002" y1="576" x2="1002" y2="552"></line></g><g><polyline class="st2" points="1056 462 1038 462 1038 480"></polyline><path class="st2" d="M1056,498c-9.9411259,0-18-8.0588741-18-18"></path><path class="st2" d="M1056,570c-9.9411259,0-18-8.0588741-18-18"></path><line class="st2" x1="1080" y1="462" x2="1056" y2="462"></line><line class="st2" x1="1080" y1="510" x2="1056" y2="510"></line><line class="st2" x1="1056" y1="570" x2="1080" y2="570"></line><line class="st2" x1="1104" y1="462" x2="1080" y2="462"></line><line class="st2" x1="1104" y1="510" x2="1080" y2="510"></line><line class="st2" x1="1080" y1="570" x2="1104" y2="570"></line><line class="st2" x1="1128" y1="462" x2="1104" y2="462"></line><line class="st2" x1="1128" y1="510" x2="1104" y2="510"></line><line class="st2" x1="1104" y1="570" x2="1128" y2="570"></line><line class="st2" x1="1152" y1="462" x2="1128" y2="462"></line><path class="st2" d="M1128,510c9.9411259,0,18,8.0588741,18,18"></path><line class="st2" x1="1146" y1="552" x2="1146" y2="528"></line><path class="st2" d="M1146,552c0,9.9411259-8.0588741,18-18,18"></path></g><g><path class="st2" d="M30,624c0-9.9411259,8.0588741-18,18-18"></path><line class="st2" x1="30" y1="624" x2="30" y2="648"></line><line class="st2" x1="30" y1="648" x2="30" y2="672"></line><polyline class="st2" points="48 678 30 678 30 696"></polyline><path class="st2" d="M48,714c-9.9411259,0-18-8.0588741-18-18"></path><line class="st2" x1="72" y1="606" x2="48" y2="606"></line><path class="st2" d="M54,672c0-9.9411259,8.0588741-18,18-18"></path><path class="st2" d="M54,672c0,3.3137083-2.6862917,6-6,6"></path><line class="st2" x1="48" y1="714" x2="72" y2="714"></line><line class="st2" x1="96" y1="606" x2="72" y2="606"></line><line class="st2" x1="96" y1="654" x2="72" y2="654"></line><line class="st2" x1="72" y1="714" x2="96" y2="714"></line><line class="st2" x1="120" y1="606" x2="96" y2="606"></line><line class="st2" x1="120" y1="654" x2="96" y2="654"></line><line class="st2" x1="96" y1="714" x2="120" y2="714"></line><line class="st2" x1="144" y1="606" x2="120" y2="606"></line><path class="st2" d="M120,654c9.9411259,0,18,8.0588741,18,18"></path><line class="st2" x1="138" y1="696" x2="138" y2="672"></line><path class="st2" d="M138,696c0,9.9411259-8.0588741,18-18,18"></path></g><g><line class="st2" x1="192" y1="606" x2="168" y2="606"></line><line class="st2" x1="216" y1="606" x2="192" y2="606"></line><line class="st2" x1="240" y1="606" x2="216" y2="606"></line><path class="st2" d="M222,672c0-9.9411259,8.0588741-18,18-18"></path><line class="st2" x1="222" y1="672" x2="222" y2="696"></line><line class="st2" x1="222" y1="696" x2="222" y2="720"></line><line class="st2" x1="264" y1="606" x2="240" y2="606"></line><line class="st2" x1="264" y1="654" x2="240" y2="654"></line><path class="st2" d="M264,606c9.9411259,0,18,8.0588741,18,18"></path><path class="st2" d="M282,624c0,9.9411259-8.0588741,18-18,18"></path></g><g><path class="st2" d="M318,624c0-9.9411259,8.0588741-18,18-18"></path><path class="st2" d="M336,642c-9.9411259,0-18-8.0588741-18-18"></path><path class="st2" d="M318,672c0-9.9411259,8.0588741-18,18-18"></path><line class="st2" x1="318" y1="672" x2="318" y2="696"></line><path class="st2" d="M336,714c-9.9411259,0-18-8.0588741-18-18"></path><line class="st2" x1="360" y1="606" x2="336" y2="606"></line><line class="st2" x1="360" y1="654" x2="336" y2="654"></line><line class="st2" x1="336" y1="714" x2="360" y2="714"></line><line class="st2" x1="384" y1="606" x2="360" y2="606"></line><line class="st2" x1="384" y1="654" x2="360" y2="654"></line><line class="st2" x1="360" y1="714" x2="384" y2="714"></line><line class="st2" x1="408" y1="606" x2="384" y2="606"></line><line class="st2" x1="408" y1="654" x2="384" y2="654"></line><line class="st2" x1="384" y1="714" x2="408" y2="714"></line><path class="st2" d="M408,606c9.9411259,0,18,8.0588741,18,18"></path><path class="st2" d="M426,624c0,9.9411259-8.0588741,18-18,18"></path><path class="st2" d="M408,654c9.9411259,0,18,8.0588741,18,18"></path><line class="st2" x1="426" y1="696" x2="426" y2="672"></line><path class="st2" d="M426,696c0,9.9411259-8.0588741,18-18,18"></path></g><g><path class="st2" d="M462,624c0-9.9411259,8.0588741-18,18-18"></path><line class="st2" x1="462" y1="624" x2="462" y2="648"></line><path class="st2" d="M480,666c-9.9411259,0-18-8.0588741-18-18"></path><line class="st2" x1="456" y1="714" x2="480" y2="714"></line><line class="st2" x1="504" y1="606" x2="480" y2="606"></line><line class="st2" x1="480" y1="666" x2="504" y2="666"></line><line class="st2" x1="480" y1="714" x2="504" y2="714"></line><line class="st2" x1="528" y1="606" x2="504" y2="606"></line><line class="st2" x1="504" y1="666" x2="528" y2="666"></line><line class="st2" x1="504" y1="714" x2="528" y2="714"></line><line class="st2" x1="552" y1="606" x2="528" y2="606"></line><path class="st2" d="M546,648c0-3.3137083,2.6862917-6,6-6"></path><path class="st2" d="M546,648c0,9.9411259-8.0588741,18-18,18"></path><line class="st2" x1="528" y1="714" x2="552" y2="714"></line><path class="st2" d="M552,606c9.9411259,0,18,8.0588741,18,18"></path><polyline class="st2" points="552 642 570 642 570 624"></polyline><line class="st2" x1="570" y1="672" x2="570" y2="648"></line><line class="st2" x1="570" y1="696" x2="570" y2="672"></line><path class="st2" d="M570,696c0,9.9411259-8.0588741,18-18,18"></path></g><g><path class="st2" d="M606,624c0-9.9411259,8.0588741-18,18-18"></path><line class="st2" x1="606" y1="624" x2="606" y2="648"></line><line class="st2" x1="606" y1="648" x2="606" y2="672"></line><line class="st2" x1="606" y1="672" x2="606" y2="696"></line><path class="st2" d="M624,714c-9.9411259,0-18-8.0588741-18-18"></path><line class="st2" x1="648" y1="606" x2="624" y2="606"></line><path class="st2" d="M630,648c0-9.9411259,8.0588741-18,18-18"></path><line class="st2" x1="630" y1="648" x2="630" y2="672"></line><path class="st2" d="M648,690c-9.9411259,0-18-8.0588741-18-18"></path><line class="st2" x1="624" y1="714" x2="648" y2="714"></line><line class="st2" x1="672" y1="606" x2="648" y2="606"></line><line class="st2" x1="672" y1="630" x2="648" y2="630"></line><line class="st2" x1="648" y1="690" x2="672" y2="690"></line><line class="st2" x1="648" y1="714" x2="672" y2="714"></line><line class="st2" x1="696" y1="606" x2="672" y2="606"></line><path class="st2" d="M672,630c9.9411259,0,18,8.0588741,18,18"></path><line class="st2" x1="690" y1="672" x2="690" y2="648"></line><path class="st2" d="M696,678c-3.3137083,0-6-2.6862917-6-6"></path><line class="st2" x1="672" y1="714" x2="696" y2="714"></line><path class="st2" d="M696,606c9.9411259,0,18,8.0588741,18,18"></path><line class="st2" x1="714" y1="648" x2="714" y2="624"></line><line class="st2" x1="714" y1="672" x2="714" y2="648"></line><path class="st2" d="M702,672c0,3.3137083-2.6862917,6-6,6"></path><path class="st2" d="M714,696c0,9.9411259-8.0588741,18-18,18"></path></g><g><line class="st2" x1="744" y1="642" x2="768" y2="642"></line><line class="st2" x1="768" y1="678" x2="744" y2="678"></line><line class="st2" x1="780" y1="600" x2="780" y2="624"></line><g><line class="st2" x1="768" y1="642" x2="792" y2="642"></line><line class="st2" x1="780" y1="642" x2="780" y2="624"></line></g><line class="st2" x1="780" y1="672" x2="780" y2="648"></line><g><line class="st2" x1="792" y1="678" x2="768" y2="678"></line><line class="st2" x1="780" y1="678" x2="780" y2="696"></line></g><line class="st2" x1="780" y1="696" x2="780" y2="720"></line><line class="st2" x1="792" y1="642" x2="816" y2="642"></line><line class="st2" x1="816" y1="678" x2="792" y2="678"></line><line class="st2" x1="828" y1="600" x2="828" y2="624"></line><g><line class="st2" x1="816" y1="642" x2="840" y2="642"></line><line class="st2" x1="828" y1="642" x2="828" y2="624"></line></g><line class="st2" x1="828" y1="672" x2="828" y2="648"></line><g><line class="st2" x1="840" y1="678" x2="816" y2="678"></line><line class="st2" x1="828" y1="678" x2="828" y2="696"></line></g><line class="st2" x1="828" y1="696" x2="828" y2="720"></line><line class="st2" x1="840" y1="642" x2="864" y2="642"></line><line class="st2" x1="864" y1="678" x2="840" y2="678"></line></g><g><path class="st2" d="M894,648c0-9.9411259,8.0588741-18,18-18"></path><line class="st2" x1="894" y1="648" x2="894" y2="672"></line><path class="st2" d="M912,690c-9.9411259,0-18-8.0588741-18-18"></path><path class="st2" d="M918,624c0-9.9411259,8.0588741-18,18-18"></path><path class="st2" d="M918,624c0,3.3137083-2.6862917,6-6,6"></path><path class="st2" d="M912,690c3.3137083,0,6,2.6862917,6,6"></path><path class="st2" d="M936,714c-9.9411259,0-18-8.0588741-18-18"></path><line class="st2" x1="960" y1="606" x2="936" y2="606"></line><line class="st2" x1="936" y1="714" x2="960" y2="714"></line></g><g><line class="st2" x1="1104" y1="606" x2="1080" y2="606"></line><line class="st2" x1="1080" y1="714" x2="1104" y2="714"></line><path class="st2" d="M1104,606c9.9411259,0,18,8.0588741,18,18"></path><path class="st2" d="M1128,630c-3.3137083,0-6-2.6862917-6-6"></path><path class="st2" d="M1122,696c0-3.3137083,2.6862917-6,6-6"></path><path class="st2" d="M1122,696c0,9.9411259-8.0588741,18-18,18"></path><path class="st2" d="M1128,630c9.9411259,0,18,8.0588741,18,18"></path><line class="st2" x1="1146" y1="672" x2="1146" y2="648"></line><path class="st2" d="M1146,672c0,9.9411259-8.0588741,18-18,18"></path></g></g></svg> 