<?xml version="1.0" encoding="UTF-8"?>
<svg xmlns="http://www.w3.org/2000/svg" width="168" height="168" viewBox="0 0 168 168">
  <g id="back">
    <rect width="168" height="168" fill="#000000"/>
  </g>
  <g id="grid" stroke="#333333" stroke-width="0.5" opacity="1">
    <line x1="0" y1="0" x2="0" y2="168"/>
    <line x1="24" y1="0" x2="24" y2="168"/>
    <line x1="48" y1="0" x2="48" y2="168"/>
    <line x1="72" y1="0" x2="72" y2="168"/>
    <line x1="96" y1="0" x2="96" y2="168"/>
    <line x1="120" y1="0" x2="120" y2="168"/>
    <line x1="144" y1="0" x2="144" y2="168"/>
    <line x1="168" y1="0" x2="168" y2="168"/>
    <line x1="0" y1="0" x2="168" y2="0"/>
    <line x1="0" y1="24" x2="168" y2="24"/>
    <line x1="0" y1="48" x2="168" y2="48"/>
    <line x1="0" y1="72" x2="168" y2="72"/>
    <line x1="0" y1="96" x2="168" y2="96"/>
    <line x1="0" y1="120" x2="168" y2="120"/>
    <line x1="0" y1="144" x2="168" y2="144"/>
    <line x1="0" y1="168" x2="168" y2="168"/>
  </g>
  <g id="typo" stroke="#ffffff" fill="none">
    <g>
      <g transform="translate(36, 36) rotate(90)">
        <polyline points="-6,-12 -6,6 12,6" stroke-width="12" stroke-linecap="butt" stroke-linejoin="miter" fill="none"/>
      </g>
      <g transform="translate(36, 60) rotate(0)">
        <line x1="-6" y1="-12" x2="-6" y2="12" stroke-width="12" stroke-linecap="butt"/>
      </g>
      <g transform="translate(36, 84) rotate(0)">
        <line x1="-6" y1="-12" x2="-6" y2="12" stroke-width="12" stroke-linecap="butt"/>
      </g>
      <g transform="translate(36, 108) rotate(0)">
        <line x1="-6" y1="-12" x2="-6" y2="12" stroke-width="12" stroke-linecap="butt"/>
      </g>
      <g transform="translate(36, 132) rotate(0)">
        <polyline points="-6,-12 -6,6 12,6" stroke-width="12" stroke-linecap="butt" stroke-linejoin="miter" fill="none"/>
      </g>
      <g transform="translate(60, 36) rotate(90)">
        <line x1="-6" y1="-12" x2="-6" y2="12" stroke-width="12" stroke-linecap="butt"/>
      </g>
      <g transform="translate(60, 132) rotate(270)">
        <line x1="-6" y1="-12" x2="-6" y2="12" stroke-width="12" stroke-linecap="butt"/>
      </g>
      <g transform="translate(84, 36) rotate(90)">
        <line x1="-6" y1="-12" x2="-6" y2="12" stroke-width="12" stroke-linecap="butt"/>
      </g>
      <g transform="translate(84, 132) rotate(270)">
        <line x1="-6" y1="-12" x2="-6" y2="12" stroke-width="12" stroke-linecap="butt"/>
      </g>
      <g transform="translate(108, 36) rotate(90)">
        <line x1="-6" y1="-12" x2="-6" y2="12" stroke-width="12" stroke-linecap="butt"/>
      </g>
      <g transform="translate(108, 132) rotate(270)">
        <line x1="-6" y1="-12" x2="-6" y2="12" stroke-width="12" stroke-linecap="butt"/>
      </g>
      <g transform="translate(132, 36) rotate(180)">
        <polyline points="-6,-12 -6,6 12,6" stroke-width="12" stroke-linecap="butt" stroke-linejoin="miter" fill="none"/>
      </g>
      <g transform="translate(132, 60) rotate(180)">
        <line x1="-6" y1="-12" x2="-6" y2="12" stroke-width="12" stroke-linecap="butt"/>
      </g>
      <g transform="translate(132, 84) rotate(180)">
        <line x1="-6" y1="-12" x2="-6" y2="12" stroke-width="12" stroke-linecap="butt"/>
      </g>
      <g transform="translate(132, 108) rotate(180)">
        <line x1="-6" y1="-12" x2="-6" y2="12" stroke-width="12" stroke-linecap="butt"/>
      </g>
      <g transform="translate(132, 132) rotate(270)">
        <polyline points="-6,-12 -6,6 12,6" stroke-width="12" stroke-linecap="butt" stroke-linejoin="miter" fill="none"/>
      </g>
    </g>
  </g>
</svg>