<?xml version="1.0" encoding="UTF-8"?>
<svg id="Layer_1" xmlns="http://www.w3.org/2000/svg" version="1.1" viewBox="0 0 168 168">
  <!-- Generator: Adobe Illustrator 30.1.0, SVG Export Plug-In . SVG Version: 2.1.1 Build 136)  -->
  <defs>
    <style>
      .st0 {
        stroke: #333;
        stroke-width: .5px;
      }

      .st0, .st1 {
        fill: none;
      }

      .st1 {
        stroke: #fff;
        stroke-linejoin: round;
        stroke-width: 12px;
      }
    </style>
  </defs>
  <g id="back">
    <rect width="168" height="168"/>
  </g>
  <g id="grid">
    <line class="st0" y2="168"/>
    <line class="st0" x1="24" x2="24" y2="168"/>
    <line class="st0" x1="48" x2="48" y2="168"/>
    <line class="st0" x1="72" x2="72" y2="168"/>
    <line class="st0" x1="96" x2="96" y2="168"/>
    <line class="st0" x1="120" x2="120" y2="168"/>
    <line class="st0" x1="144" x2="144" y2="168"/>
    <line class="st0" x1="168" x2="168" y2="168"/>
    <line class="st0" x2="168"/>
    <line class="st0" y1="24" x2="168" y2="24"/>
    <line class="st0" y1="48" x2="168" y2="48"/>
    <line class="st0" y1="72" x2="168" y2="72"/>
    <line class="st0" y1="96" x2="168" y2="96"/>
    <line class="st0" y1="120" x2="168" y2="120"/>
    <line class="st0" y1="144" x2="168" y2="144"/>
    <line class="st0" y1="168" x2="168" y2="168"/>
  </g>
  <g id="typo">
    <g>
      <polyline class="st1" points="48 30 30 30 30 48"/>
      <line class="st1" x1="30" y1="48" x2="30" y2="72"/>
      <line class="st1" x1="30" y1="72" x2="30" y2="96"/>
      <line class="st1" x1="30" y1="96" x2="30" y2="120"/>
      <polyline class="st1" points="30 120 30 138 48 138"/>
      <line class="st1" x1="72" y1="30" x2="48" y2="30"/>
      <line class="st1" x1="48" y1="138" x2="72" y2="138"/>
      <line class="st1" x1="96" y1="30" x2="72" y2="30"/>
      <line class="st1" x1="72" y1="138" x2="96" y2="138"/>
      <line class="st1" x1="120" y1="30" x2="96" y2="30"/>
      <line class="st1" x1="96" y1="138" x2="120" y2="138"/>
      <polyline class="st1" points="138 48 138 30 120 30"/>
      <line class="st1" x1="138" y1="72" x2="138" y2="48"/>
      <line class="st1" x1="138" y1="96" x2="138" y2="72"/>
      <line class="st1" x1="138" y1="120" x2="138" y2="96"/>
      <polyline class="st1" points="120 138 138 138 138 120"/>
    </g>
  </g>
</svg>