<?xml version="1.0" encoding="UTF-8"?>
<svg xmlns="http://www.w3.org/2000/svg" width="1176" height="1176" viewBox="0 0 1176 1176">
  <g id="back">
    <rect width="1176" height="1176" fill="#000000"/>
  </g>
  <g id="grid" stroke="#333333" stroke-width="0.5" opacity="1">
    <line x1="0" y1="0" x2="0" y2="1176"/>
    <line x1="24" y1="0" x2="24" y2="1176"/>
    <line x1="48" y1="0" x2="48" y2="1176"/>
    <line x1="72" y1="0" x2="72" y2="1176"/>
    <line x1="96" y1="0" x2="96" y2="1176"/>
    <line x1="120" y1="0" x2="120" y2="1176"/>
    <line x1="144" y1="0" x2="144" y2="1176"/>
    <line x1="168" y1="0" x2="168" y2="1176"/>
    <line x1="192" y1="0" x2="192" y2="1176"/>
    <line x1="216" y1="0" x2="216" y2="1176"/>
    <line x1="240" y1="0" x2="240" y2="1176"/>
    <line x1="264" y1="0" x2="264" y2="1176"/>
    <line x1="288" y1="0" x2="288" y2="1176"/>
    <line x1="312" y1="0" x2="312" y2="1176"/>
    <line x1="336" y1="0" x2="336" y2="1176"/>
    <line x1="360" y1="0" x2="360" y2="1176"/>
    <line x1="384" y1="0" x2="384" y2="1176"/>
    <line x1="408" y1="0" x2="408" y2="1176"/>
    <line x1="432" y1="0" x2="432" y2="1176"/>
    <line x1="456" y1="0" x2="456" y2="1176"/>
    <line x1="480" y1="0" x2="480" y2="1176"/>
    <line x1="504" y1="0" x2="504" y2="1176"/>
    <line x1="528" y1="0" x2="528" y2="1176"/>
    <line x1="552" y1="0" x2="552" y2="1176"/>
    <line x1="576" y1="0" x2="576" y2="1176"/>
    <line x1="600" y1="0" x2="600" y2="1176"/>
    <line x1="624" y1="0" x2="624" y2="1176"/>
    <line x1="648" y1="0" x2="648" y2="1176"/>
    <line x1="672" y1="0" x2="672" y2="1176"/>
    <line x1="696" y1="0" x2="696" y2="1176"/>
    <line x1="720" y1="0" x2="720" y2="1176"/>
    <line x1="744" y1="0" x2="744" y2="1176"/>
    <line x1="768" y1="0" x2="768" y2="1176"/>
    <line x1="792" y1="0" x2="792" y2="1176"/>
    <line x1="816" y1="0" x2="816" y2="1176"/>
    <line x1="840" y1="0" x2="840" y2="1176"/>
    <line x1="864" y1="0" x2="864" y2="1176"/>
    <line x1="888" y1="0" x2="888" y2="1176"/>
    <line x1="912" y1="0" x2="912" y2="1176"/>
    <line x1="936" y1="0" x2="936" y2="1176"/>
    <line x1="960" y1="0" x2="960" y2="1176"/>
    <line x1="984" y1="0" x2="984" y2="1176"/>
    <line x1="1008" y1="0" x2="1008" y2="1176"/>
    <line x1="1032" y1="0" x2="1032" y2="1176"/>
    <line x1="1056" y1="0" x2="1056" y2="1176"/>
    <line x1="1080" y1="0" x2="1080" y2="1176"/>
    <line x1="1104" y1="0" x2="1104" y2="1176"/>
    <line x1="1128" y1="0" x2="1128" y2="1176"/>
    <line x1="1152" y1="0" x2="1152" y2="1176"/>
    <line x1="1176" y1="0" x2="1176" y2="1176"/>
    <line x1="0" y1="0" x2="1176" y2="0"/>
    <line x1="0" y1="24" x2="1176" y2="24"/>
    <line x1="0" y1="48" x2="1176" y2="48"/>
    <line x1="0" y1="72" x2="1176" y2="72"/>
    <line x1="0" y1="96" x2="1176" y2="96"/>
    <line x1="0" y1="120" x2="1176" y2="120"/>
    <line x1="0" y1="144" x2="1176" y2="144"/>
    <line x1="0" y1="168" x2="1176" y2="168"/>
    <line x1="0" y1="192" x2="1176" y2="192"/>
    <line x1="0" y1="216" x2="1176" y2="216"/>
    <line x1="0" y1="240" x2="1176" y2="240"/>
    <line x1="0" y1="264" x2="1176" y2="264"/>
    <line x1="0" y1="288" x2="1176" y2="288"/>
    <line x1="0" y1="312" x2="1176" y2="312"/>
    <line x1="0" y1="336" x2="1176" y2="336"/>
    <line x1="0" y1="360" x2="1176" y2="360"/>
    <line x1="0" y1="384" x2="1176" y2="384"/>
    <line x1="0" y1="408" x2="1176" y2="408"/>
    <line x1="0" y1="432" x2="1176" y2="432"/>
    <line x1="0" y1="456" x2="1176" y2="456"/>
    <line x1="0" y1="480" x2="1176" y2="480"/>
    <line x1="0" y1="504" x2="1176" y2="504"/>
    <line x1="0" y1="528" x2="1176" y2="528"/>
    <line x1="0" y1="552" x2="1176" y2="552"/>
    <line x1="0" y1="576" x2="1176" y2="576"/>
    <line x1="0" y1="600" x2="1176" y2="600"/>
    <line x1="0" y1="624" x2="1176" y2="624"/>
    <line x1="0" y1="648" x2="1176" y2="648"/>
    <line x1="0" y1="672" x2="1176" y2="672"/>
    <line x1="0" y1="696" x2="1176" y2="696"/>
    <line x1="0" y1="720" x2="1176" y2="720"/>
    <line x1="0" y1="744" x2="1176" y2="744"/>
    <line x1="0" y1="768" x2="1176" y2="768"/>
    <line x1="0" y1="792" x2="1176" y2="792"/>
    <line x1="0" y1="816" x2="1176" y2="816"/>
    <line x1="0" y1="840" x2="1176" y2="840"/>
    <line x1="0" y1="864" x2="1176" y2="864"/>
    <line x1="0" y1="888" x2="1176" y2="888"/>
    <line x1="0" y1="912" x2="1176" y2="912"/>
    <line x1="0" y1="936" x2="1176" y2="936"/>
    <line x1="0" y1="960" x2="1176" y2="960"/>
    <line x1="0" y1="984" x2="1176" y2="984"/>
    <line x1="0" y1="1008" x2="1176" y2="1008"/>
    <line x1="0" y1="1032" x2="1176" y2="1032"/>
    <line x1="0" y1="1056" x2="1176" y2="1056"/>
    <line x1="0" y1="1080" x2="1176" y2="1080"/>
    <line x1="0" y1="1104" x2="1176" y2="1104"/>
    <line x1="0" y1="1128" x2="1176" y2="1128"/>
    <line x1="0" y1="1152" x2="1176" y2="1152"/>
    <line x1="0" y1="1176" x2="1176" y2="1176"/>
  </g>
  <g id="typo" stroke="#ffffff" fill="none">
    <g>
      <g transform="translate(324, 396) rotate(0)">
        <line x1="-6" y1="-6" x2="-6" y2="12" stroke-width="12" stroke-linecap="round"/>
      </g>
      <g transform="translate(324, 420) rotate(0)">
        <line x1="-6" y1="-12" x2="-6" y2="12" stroke-width="12" stroke-linecap="butt"/>
      </g>
      <g transform="translate(324, 444) rotate(0)">
        <line x1="-6" y1="-12" x2="-6" y2="12" stroke-width="12" stroke-linecap="butt"/>
      </g>
      <g transform="translate(324, 468) rotate(0)">
        <path d="M 12.000000000000002 6 A 18 18 0 0 1 -6 -11.999999999999998" stroke-width="12" stroke-linecap="butt" fill="none"/>
      </g>
      <g transform="translate(348, 468) rotate(180)">
        <path d="M 12 -6 A 6 6 0 0 1 6 -12" stroke-width="12" stroke-linecap="butt" fill="none"/>
      </g>
      <g transform="translate(348, 492) rotate(0)">
        <path d="M 12.000000000000002 6 A 18 18 0 0 1 -6 -11.999999999999998" stroke-width="12" stroke-linecap="butt" fill="none"/>
      </g>
      <g transform="translate(372, 492) rotate(270)">
        <line x1="-6" y1="-12" x2="-6" y2="12" stroke-width="12" stroke-linecap="butt"/>
      </g>
      <g transform="translate(396, 468) rotate(90)">
        <path d="M 12 -6 A 6 6 0 0 1 6 -12" stroke-width="12" stroke-linecap="butt" fill="none"/>
      </g>
      <g transform="translate(396, 492) rotate(270)">
        <path d="M 12.000000000000002 6 A 18 18 0 0 1 -6 -11.999999999999998" stroke-width="12" stroke-linecap="butt" fill="none"/>
      </g>
      <g transform="translate(420, 396) rotate(180)">
        <line x1="-6" y1="-12" x2="-6" y2="6" stroke-width="12" stroke-linecap="round"/>
      </g>
      <g transform="translate(420, 420) rotate(180)">
        <line x1="-6" y1="-12" x2="-6" y2="12" stroke-width="12" stroke-linecap="butt"/>
      </g>
      <g transform="translate(420, 444) rotate(180)">
        <line x1="-6" y1="-12" x2="-6" y2="12" stroke-width="12" stroke-linecap="butt"/>
      </g>
      <g transform="translate(420, 468) rotate(270)">
        <path d="M 12.000000000000002 6 A 18 18 0 0 1 -6 -11.999999999999998" stroke-width="12" stroke-linecap="butt" fill="none"/>
      </g>
    </g>
    <g>
      <g transform="translate(468, 420) rotate(90)">
        <path d="M 12.000000000000002 6 A 18 18 0 0 1 -6 -11.999999999999998" stroke-width="12" stroke-linecap="butt" fill="none"/>
      </g>
      <g transform="translate(468, 444) rotate(0)">
        <line x1="-6" y1="-12" x2="-6" y2="12" stroke-width="12" stroke-linecap="butt"/>
      </g>
      <g transform="translate(468, 468) rotate(0)">
        <path d="M 12.000000000000002 6 A 18 18 0 0 1 -6 -11.999999999999998" stroke-width="12" stroke-linecap="butt" fill="none"/>
      </g>
      <g transform="translate(492, 396) rotate(90)">
        <path d="M 12.000000000000002 6 A 18 18 0 0 1 -6 -11.999999999999998" stroke-width="12" stroke-linecap="butt" fill="none"/>
      </g>
      <g transform="translate(492, 420) rotate(270)">
        <path d="M 12 -6 A 6 6 0 0 1 6 -12" stroke-width="12" stroke-linecap="butt" fill="none"/>
      </g>
      <g transform="translate(492, 468) rotate(180)">
        <path d="M 12 -6 A 6 6 0 0 1 6 -12" stroke-width="12" stroke-linecap="butt" fill="none"/>
      </g>
      <g transform="translate(492, 492) rotate(0)">
        <path d="M 12.000000000000002 6 A 18 18 0 0 1 -6 -11.999999999999998" stroke-width="12" stroke-linecap="butt" fill="none"/>
      </g>
      <g transform="translate(516, 396) rotate(90)">
        <line x1="-6" y1="-12" x2="-6" y2="12" stroke-width="12" stroke-linecap="butt"/>
      </g>
      <g transform="translate(516, 492) rotate(270)">
        <line x1="-6" y1="-12" x2="-6" y2="12" stroke-width="12" stroke-linecap="butt"/>
      </g>
      <g transform="translate(540, 396) rotate(180)">
        <path d="M 12.000000000000002 6 A 18 18 0 0 1 -6 -11.999999999999998" stroke-width="12" stroke-linecap="butt" fill="none"/>
      </g>
      <g transform="translate(540, 420) rotate(0)">
        <path d="M 12 -6 A 6 6 0 0 1 6 -12" stroke-width="12" stroke-linecap="butt" fill="none"/>
      </g>
      <g transform="translate(540, 468) rotate(90)">
        <path d="M 12 -6 A 6 6 0 0 1 6 -12" stroke-width="12" stroke-linecap="butt" fill="none"/>
      </g>
      <g transform="translate(540, 492) rotate(270)">
        <path d="M 12.000000000000002 6 A 18 18 0 0 1 -6 -11.999999999999998" stroke-width="12" stroke-linecap="butt" fill="none"/>
      </g>
      <g transform="translate(564, 420) rotate(180)">
        <path d="M 12.000000000000002 6 A 18 18 0 0 1 -6 -11.999999999999998" stroke-width="12" stroke-linecap="butt" fill="none"/>
      </g>
      <g transform="translate(564, 444) rotate(180)">
        <line x1="-6" y1="-12" x2="-6" y2="12" stroke-width="12" stroke-linecap="butt"/>
      </g>
      <g transform="translate(564, 468) rotate(270)">
        <path d="M 12.000000000000002 6 A 18 18 0 0 1 -6 -11.999999999999998" stroke-width="12" stroke-linecap="butt" fill="none"/>
      </g>
    </g>
    <g>
      <g transform="translate(612, 396) rotate(90)">
        <line x1="-6" y1="-12" x2="-6" y2="6" stroke-width="12" stroke-linecap="round"/>
      </g>
      <g transform="translate(612, 492) rotate(270)">
        <line x1="-6" y1="-6" x2="-6" y2="12" stroke-width="12" stroke-linecap="round"/>
      </g>
      <g transform="translate(636, 396) rotate(90)">
        <line x1="-6" y1="-12" x2="-6" y2="12" stroke-width="12" stroke-linecap="butt"/>
      </g>
      <g transform="translate(636, 492) rotate(270)">
        <line x1="-6" y1="-12" x2="-6" y2="12" stroke-width="12" stroke-linecap="butt"/>
      </g>
      <g transform="translate(660, 396) rotate(90)">
        <line x1="-6" y1="-12" x2="-6" y2="12" stroke-width="12" stroke-linecap="butt"/>
        <line x1="-6" y1="0" x2="12" y2="0" stroke-width="12" stroke-linecap="butt"/>
      </g>
      <g transform="translate(660, 420) rotate(0)">
        <line x1="0" y1="-12" x2="0" y2="12" stroke-width="12" stroke-linecap="butt"/>
      </g>
      <g transform="translate(660, 444) rotate(0)">
        <line x1="0" y1="-12" x2="0" y2="12" stroke-width="12" stroke-linecap="butt"/>
      </g>
      <g transform="translate(660, 468) rotate(0)">
        <line x1="0" y1="-12" x2="0" y2="12" stroke-width="12" stroke-linecap="butt"/>
      </g>
      <g transform="translate(660, 492) rotate(270)">
        <line x1="-6" y1="-12" x2="-6" y2="12" stroke-width="12" stroke-linecap="butt"/>
        <line x1="-6" y1="0" x2="12" y2="0" stroke-width="12" stroke-linecap="butt"/>
      </g>
      <g transform="translate(684, 396) rotate(90)">
        <line x1="-6" y1="-12" x2="-6" y2="12" stroke-width="12" stroke-linecap="butt"/>
      </g>
      <g transform="translate(684, 492) rotate(270)">
        <line x1="-6" y1="-12" x2="-6" y2="12" stroke-width="12" stroke-linecap="butt"/>
      </g>
      <g transform="translate(708, 396) rotate(90)">
        <line x1="-6" y1="-6" x2="-6" y2="12" stroke-width="12" stroke-linecap="round"/>
      </g>
      <g transform="translate(708, 492) rotate(270)">
        <line x1="-6" y1="-12" x2="-6" y2="6" stroke-width="12" stroke-linecap="round"/>
      </g>
    </g>
    <g>
      <g transform="translate(756, 396) rotate(90)">
        <polyline points="-6,-12 -6,6 12,6" stroke-width="12" stroke-linecap="butt" stroke-linejoin="miter" fill="none"/>
      </g>
      <g transform="translate(756, 420) rotate(0)">
        <line x1="-6" y1="-12" x2="-6" y2="12" stroke-width="12" stroke-linecap="butt"/>
      </g>
      <g transform="translate(756, 444) rotate(0)">
        <line x1="-6" y1="-12" x2="-6" y2="12" stroke-width="12" stroke-linecap="butt"/>
      </g>
      <g transform="translate(756, 468) rotate(0)">
        <line x1="-6" y1="-12" x2="-6" y2="12" stroke-width="12" stroke-linecap="butt"/>
      </g>
      <g transform="translate(756, 492) rotate(0)">
        <polyline points="-6,-12 -6,6 12,6" stroke-width="12" stroke-linecap="butt" stroke-linejoin="miter" fill="none"/>
      </g>
      <g transform="translate(780, 396) rotate(90)">
        <line x1="-6" y1="-12" x2="-6" y2="12" stroke-width="12" stroke-linecap="butt"/>
      </g>
      <g transform="translate(780, 492) rotate(270)">
        <line x1="-6" y1="-12" x2="-6" y2="12" stroke-width="12" stroke-linecap="butt"/>
      </g>
      <g transform="translate(804, 396) rotate(90)">
        <line x1="-6" y1="-12" x2="-6" y2="12" stroke-width="12" stroke-linecap="butt"/>
      </g>
      <g transform="translate(804, 492) rotate(270)">
        <line x1="-6" y1="-12" x2="-6" y2="12" stroke-width="12" stroke-linecap="butt"/>
      </g>
      <g transform="translate(828, 396) rotate(180)">
        <path d="M 12.000000000000002 6 A 18 18 0 0 1 -6 -11.999999999999998" stroke-width="12" stroke-linecap="butt" fill="none"/>
      </g>
      <g transform="translate(828, 420) rotate(0)">
        <path d="M 12 -6 A 6 6 0 0 1 6 -12" stroke-width="12" stroke-linecap="butt" fill="none"/>
      </g>
      <g transform="translate(828, 468) rotate(90)">
        <path d="M 12 -6 A 6 6 0 0 1 6 -12" stroke-width="12" stroke-linecap="butt" fill="none"/>
      </g>
      <g transform="translate(828, 492) rotate(270)">
        <path d="M 12.000000000000002 6 A 18 18 0 0 1 -6 -11.999999999999998" stroke-width="12" stroke-linecap="butt" fill="none"/>
      </g>
      <g transform="translate(852, 420) rotate(180)">
        <path d="M 12.000000000000002 6 A 18 18 0 0 1 -6 -11.999999999999998" stroke-width="12" stroke-linecap="butt" fill="none"/>
      </g>
      <g transform="translate(852, 444) rotate(180)">
        <line x1="-6" y1="-12" x2="-6" y2="12" stroke-width="12" stroke-linecap="butt"/>
      </g>
      <g transform="translate(852, 468) rotate(270)">
        <path d="M 12.000000000000002 6 A 18 18 0 0 1 -6 -11.999999999999998" stroke-width="12" stroke-linecap="butt" fill="none"/>
      </g>
    </g>
    <g>
      <g transform="translate(36, 540) rotate(90)">
        <line x1="-6" y1="-12" x2="-6" y2="6" stroke-width="12" stroke-linecap="round"/>
      </g>
      <g transform="translate(60, 540) rotate(90)">
        <line x1="-6" y1="-12" x2="-6" y2="12" stroke-width="12" stroke-linecap="butt"/>
      </g>
      <g transform="translate(84, 540) rotate(90)">
        <line x1="-6" y1="-12" x2="-6" y2="12" stroke-width="12" stroke-linecap="butt"/>
        <line x1="-6" y1="0" x2="12" y2="0" stroke-width="12" stroke-linecap="butt"/>
      </g>
      <g transform="translate(84, 564) rotate(0)">
        <line x1="0" y1="-12" x2="0" y2="12" stroke-width="12" stroke-linecap="butt"/>
      </g>
      <g transform="translate(84, 588) rotate(0)">
        <line x1="0" y1="-12" x2="0" y2="12" stroke-width="12" stroke-linecap="butt"/>
      </g>
      <g transform="translate(84, 612) rotate(0)">
        <line x1="0" y1="-12" x2="0" y2="12" stroke-width="12" stroke-linecap="butt"/>
      </g>
      <g transform="translate(84, 636) rotate(0)">
        <line x1="0" y1="-12" x2="0" y2="6" stroke-width="12" stroke-linecap="round"/>
      </g>
      <g transform="translate(108, 540) rotate(90)">
        <line x1="-6" y1="-12" x2="-6" y2="12" stroke-width="12" stroke-linecap="butt"/>
      </g>
      <g transform="translate(132, 540) rotate(90)">
        <line x1="-6" y1="-6" x2="-6" y2="12" stroke-width="12" stroke-linecap="round"/>
      </g>
    </g>
    <g>
      <g transform="translate(180, 540) rotate(90)">
        <line x1="-6" y1="-12" x2="-6" y2="6" stroke-width="12" stroke-linecap="round"/>
      </g>
      <g transform="translate(204, 540) rotate(180)">
        <path d="M 12.000000000000002 6 A 18 18 0 0 1 -6 -11.999999999999998" stroke-width="12" stroke-linecap="butt" fill="none"/>
      </g>
      <g transform="translate(204, 564) rotate(180)">
        <line x1="-6" y1="-12" x2="-6" y2="12" stroke-width="12" stroke-linecap="butt"/>
      </g>
      <g transform="translate(204, 588) rotate(0)">
        <path d="M 12 -6 A 6 6 0 0 1 6 -12" stroke-width="12" stroke-linecap="butt" fill="none"/>
      </g>
      <g transform="translate(228, 588) rotate(90)">
        <line x1="-6" y1="-12" x2="-6" y2="12" stroke-width="12" stroke-linecap="butt"/>
        <line x1="-6" y1="0" x2="12" y2="0" stroke-width="12" stroke-linecap="butt"/>
      </g>
      <g transform="translate(228, 612) rotate(0)">
        <line x1="0" y1="-12" x2="0" y2="12" stroke-width="12" stroke-linecap="butt"/>
      </g>
      <g transform="translate(228, 636) rotate(0)">
        <line x1="0" y1="-12" x2="0" y2="6" stroke-width="12" stroke-linecap="round"/>
      </g>
      <g transform="translate(252, 540) rotate(90)">
        <path d="M 12.000000000000002 6 A 18 18 0 0 1 -6 -11.999999999999998" stroke-width="12" stroke-linecap="butt" fill="none"/>
      </g>
      <g transform="translate(252, 564) rotate(0)">
        <line x1="-6" y1="-12" x2="-6" y2="12" stroke-width="12" stroke-linecap="butt"/>
      </g>
      <g transform="translate(252, 588) rotate(270)">
        <path d="M 12 -6 A 6 6 0 0 1 6 -12" stroke-width="12" stroke-linecap="butt" fill="none"/>
      </g>
      <g transform="translate(276, 540) rotate(90)">
        <line x1="-6" y1="-6" x2="-6" y2="12" stroke-width="12" stroke-linecap="round"/>
      </g>
    </g>
    <g>
      <g transform="translate(324, 540) rotate(90)">
        <polyline points="-6,-12 -6,6 12,6" stroke-width="12" stroke-linecap="butt" stroke-linejoin="miter" fill="none"/>
      </g>
      <g transform="translate(324, 564) rotate(0)">
        <polyline points="-6,-12 -6,6 12,6" stroke-width="12" stroke-linecap="butt" stroke-linejoin="miter" fill="none"/>
      </g>
      <g transform="translate(324, 588) rotate(0)">
        <line x1="-6" y1="-12" x2="-6" y2="12" stroke-width="12" stroke-linecap="butt"/>
      </g>
      <g transform="translate(324, 612) rotate(0)">
        <line x1="-6" y1="-12" x2="-6" y2="12" stroke-width="12" stroke-linecap="butt"/>
      </g>
      <g transform="translate(324, 636) rotate(0)">
        <line x1="-6" y1="-12" x2="-6" y2="6" stroke-width="12" stroke-linecap="round"/>
      </g>
      <g transform="translate(348, 540) rotate(90)">
        <line x1="-6" y1="-12" x2="-6" y2="12" stroke-width="12" stroke-linecap="butt"/>
      </g>
      <g transform="translate(348, 564) rotate(180)">
        <path d="M 12 -6 A 6 6 0 0 1 6 -12" stroke-width="12" stroke-linecap="butt" fill="none"/>
      </g>
      <g transform="translate(348, 588) rotate(0)">
        <path d="M 12.000000000000002 6 A 18 18 0 0 1 -6 -11.999999999999998" stroke-width="12" stroke-linecap="butt" fill="none"/>
      </g>
      <g transform="translate(372, 540) rotate(90)">
        <line x1="-6" y1="-12" x2="-6" y2="12" stroke-width="12" stroke-linecap="butt"/>
      </g>
      <g transform="translate(372, 588) rotate(270)">
        <line x1="-6" y1="-12" x2="-6" y2="12" stroke-width="12" stroke-linecap="butt"/>
      </g>
      <g transform="translate(396, 540) rotate(90)">
        <line x1="-6" y1="-12" x2="-6" y2="12" stroke-width="12" stroke-linecap="butt"/>
      </g>
      <g transform="translate(396, 588) rotate(270)">
        <line x1="-6" y1="-12" x2="-6" y2="12" stroke-width="12" stroke-linecap="butt"/>
      </g>
      <g transform="translate(420, 540) rotate(180)">
        <path d="M 12.000000000000002 6 A 18 18 0 0 1 -6 -11.999999999999998" stroke-width="12" stroke-linecap="butt" fill="none"/>
      </g>
      <g transform="translate(420, 564) rotate(180)">
        <line x1="-6" y1="-12" x2="-6" y2="12" stroke-width="12" stroke-linecap="butt"/>
      </g>
      <g transform="translate(420, 588) rotate(270)">
        <path d="M 12.000000000000002 6 A 18 18 0 0 1 -6 -11.999999999999998" stroke-width="12" stroke-linecap="butt" fill="none"/>
      </g>
    </g>
    <g>
      <g transform="translate(468, 540) rotate(90)">
        <polyline points="-6,-12 -6,6 12,6" stroke-width="12" stroke-linecap="butt" stroke-linejoin="miter" fill="none"/>
      </g>
      <g transform="translate(468, 564) rotate(0)">
        <line x1="-6" y1="-12" x2="-6" y2="12" stroke-width="12" stroke-linecap="butt"/>
      </g>
      <g transform="translate(468, 588) rotate(90)">
        <polyline points="-6,-12 -6,6 12,6" stroke-width="12" stroke-linecap="butt" stroke-linejoin="miter" fill="none"/>
      </g>
      <g transform="translate(468, 612) rotate(0)">
        <line x1="-6" y1="-12" x2="-6" y2="12" stroke-width="12" stroke-linecap="butt"/>
      </g>
      <g transform="translate(468, 636) rotate(0)">
        <polyline points="-6,-12 -6,6 12,6" stroke-width="12" stroke-linecap="butt" stroke-linejoin="miter" fill="none"/>
      </g>
      <g transform="translate(492, 540) rotate(90)">
        <line x1="-6" y1="-12" x2="-6" y2="12" stroke-width="12" stroke-linecap="butt"/>
      </g>
      <g transform="translate(492, 588) rotate(90)">
        <line x1="-6" y1="-12" x2="-6" y2="12" stroke-width="12" stroke-linecap="butt"/>
      </g>
      <g transform="translate(492, 636) rotate(270)">
        <line x1="-6" y1="-12" x2="-6" y2="12" stroke-width="12" stroke-linecap="butt"/>
      </g>
      <g transform="translate(516, 540) rotate(90)">
        <line x1="-6" y1="-12" x2="-6" y2="12" stroke-width="12" stroke-linecap="butt"/>
      </g>
      <g transform="translate(516, 588) rotate(90)">
        <line x1="-6" y1="-12" x2="-6" y2="12" stroke-width="12" stroke-linecap="butt"/>
      </g>
      <g transform="translate(516, 636) rotate(270)">
        <line x1="-6" y1="-12" x2="-6" y2="12" stroke-width="12" stroke-linecap="butt"/>
      </g>
      <g transform="translate(540, 540) rotate(90)">
        <line x1="-6" y1="-12" x2="-6" y2="12" stroke-width="12" stroke-linecap="butt"/>
      </g>
      <g transform="translate(540, 588) rotate(90)">
        <line x1="-6" y1="-6" x2="-6" y2="12" stroke-width="12" stroke-linecap="round"/>
      </g>
      <g transform="translate(540, 636) rotate(270)">
        <line x1="-6" y1="-12" x2="-6" y2="12" stroke-width="12" stroke-linecap="butt"/>
      </g>
      <g transform="translate(564, 540) rotate(90)">
        <line x1="-6" y1="-6" x2="-6" y2="12" stroke-width="12" stroke-linecap="round"/>
      </g>
      <g transform="translate(564, 636) rotate(270)">
        <line x1="-6" y1="-12" x2="-6" y2="6" stroke-width="12" stroke-linecap="round"/>
      </g>
    </g>
    <g>
      <g transform="translate(612, 540) rotate(90)">
        <polyline points="-6,-12 -6,6 12,6" stroke-width="12" stroke-linecap="butt" stroke-linejoin="miter" fill="none"/>
      </g>
      <g transform="translate(612, 564) rotate(0)">
        <line x1="-6" y1="-12" x2="-6" y2="12" stroke-width="12" stroke-linecap="butt"/>
      </g>
      <g transform="translate(612, 588) rotate(90)">
        <polyline points="-6,-12 -6,6 12,6" stroke-width="12" stroke-linecap="butt" stroke-linejoin="miter" fill="none"/>
      </g>
      <g transform="translate(612, 612) rotate(0)">
        <line x1="-6" y1="-12" x2="-6" y2="12" stroke-width="12" stroke-linecap="butt"/>
      </g>
      <g transform="translate(612, 636) rotate(0)">
        <line x1="-6" y1="-12" x2="-6" y2="6" stroke-width="12" stroke-linecap="round"/>
      </g>
      <g transform="translate(636, 540) rotate(90)">
        <line x1="-6" y1="-12" x2="-6" y2="12" stroke-width="12" stroke-linecap="butt"/>
      </g>
      <g transform="translate(636, 588) rotate(90)">
        <line x1="-6" y1="-12" x2="-6" y2="12" stroke-width="12" stroke-linecap="butt"/>
      </g>
      <g transform="translate(660, 540) rotate(90)">
        <line x1="-6" y1="-12" x2="-6" y2="12" stroke-width="12" stroke-linecap="butt"/>
      </g>
      <g transform="translate(660, 588) rotate(90)">
        <line x1="-6" y1="-12" x2="-6" y2="12" stroke-width="12" stroke-linecap="butt"/>
      </g>
      <g transform="translate(684, 540) rotate(90)">
        <line x1="-6" y1="-12" x2="-6" y2="12" stroke-width="12" stroke-linecap="butt"/>
      </g>
      <g transform="translate(684, 588) rotate(90)">
        <line x1="-6" y1="-6" x2="-6" y2="12" stroke-width="12" stroke-linecap="round"/>
      </g>
      <g transform="translate(708, 540) rotate(90)">
        <line x1="-6" y1="-6" x2="-6" y2="12" stroke-width="12" stroke-linecap="round"/>
      </g>
    </g>
    <g>
      <g transform="translate(756, 564) rotate(90)">
        <path d="M 12.000000000000002 6 A 18 18 0 0 1 -6 -11.999999999999998" stroke-width="12" stroke-linecap="butt" fill="none"/>
      </g>
      <g transform="translate(756, 588) rotate(0)">
        <line x1="-6" y1="-12" x2="-6" y2="12" stroke-width="12" stroke-linecap="butt"/>
      </g>
      <g transform="translate(756, 612) rotate(90)">
        <polyline points="-6,-12 -6,6 12,6" stroke-width="12" stroke-linecap="butt" stroke-linejoin="miter" fill="none"/>
      </g>
      <g transform="translate(756, 636) rotate(0)">
        <line x1="-6" y1="-12" x2="-6" y2="6" stroke-width="12" stroke-linecap="round"/>
      </g>
      <g transform="translate(780, 540) rotate(90)">
        <path d="M 12.000000000000002 6 A 18 18 0 0 1 -6 -11.999999999999998" stroke-width="12" stroke-linecap="butt" fill="none"/>
      </g>
      <g transform="translate(780, 564) rotate(270)">
        <path d="M 12 -6 A 6 6 0 0 1 6 -12" stroke-width="12" stroke-linecap="butt" fill="none"/>
      </g>
      <g transform="translate(780, 612) rotate(90)">
        <line x1="-6" y1="-12" x2="-6" y2="12" stroke-width="12" stroke-linecap="butt"/>
      </g>
      <g transform="translate(804, 540) rotate(90)">
        <line x1="-6" y1="-12" x2="-6" y2="12" stroke-width="12" stroke-linecap="butt"/>
      </g>
      <g transform="translate(804, 612) rotate(90)">
        <line x1="-6" y1="-12" x2="-6" y2="12" stroke-width="12" stroke-linecap="butt"/>
      </g>
      <g transform="translate(828, 540) rotate(180)">
        <path d="M 12.000000000000002 6 A 18 18 0 0 1 -6 -11.999999999999998" stroke-width="12" stroke-linecap="butt" fill="none"/>
      </g>
      <g transform="translate(828, 564) rotate(0)">
        <path d="M 12 -6 A 6 6 0 0 1 6 -12" stroke-width="12" stroke-linecap="butt" fill="none"/>
      </g>
      <g transform="translate(828, 612) rotate(90)">
        <line x1="-6" y1="-12" x2="-6" y2="12" stroke-width="12" stroke-linecap="butt"/>
      </g>
      <g transform="translate(852, 564) rotate(180)">
        <path d="M 12.000000000000002 6 A 18 18 0 0 1 -6 -11.999999999999998" stroke-width="12" stroke-linecap="butt" fill="none"/>
      </g>
      <g transform="translate(852, 588) rotate(180)">
        <line x1="-6" y1="-12" x2="-6" y2="12" stroke-width="12" stroke-linecap="butt"/>
      </g>
      <g transform="translate(852, 612) rotate(180)">
        <polyline points="-6,-12 -6,6 12,6" stroke-width="12" stroke-linecap="butt" stroke-linejoin="miter" fill="none"/>
      </g>
      <g transform="translate(852, 636) rotate(180)">
        <line x1="-6" y1="-6" x2="-6" y2="12" stroke-width="12" stroke-linecap="round"/>
      </g>
    </g>
    <g>
      <g transform="translate(900, 564) rotate(90)">
        <path d="M 12.000000000000002 6 A 18 18 0 0 1 -6 -11.999999999999998" stroke-width="12" stroke-linecap="butt" fill="none"/>
      </g>
      <g transform="translate(900, 588) rotate(0)">
        <line x1="-6" y1="-12" x2="-6" y2="12" stroke-width="12" stroke-linecap="butt"/>
      </g>
      <g transform="translate(900, 612) rotate(0)">
        <path d="M 12.000000000000002 6 A 18 18 0 0 1 -6 -11.999999999999998" stroke-width="12" stroke-linecap="butt" fill="none"/>
      </g>
      <g transform="translate(924, 540) rotate(90)">
        <path d="M 12.000000000000002 6 A 18 18 0 0 1 -6 -11.999999999999998" stroke-width="12" stroke-linecap="butt" fill="none"/>
      </g>
      <g transform="translate(924, 564) rotate(270)">
        <path d="M 12 -6 A 6 6 0 0 1 6 -12" stroke-width="12" stroke-linecap="butt" fill="none"/>
      </g>
      <g transform="translate(924, 612) rotate(180)">
        <path d="M 12 -6 A 6 6 0 0 1 6 -12" stroke-width="12" stroke-linecap="butt" fill="none"/>
      </g>
      <g transform="translate(924, 636) rotate(0)">
        <path d="M 12.000000000000002 6 A 18 18 0 0 1 -6 -11.999999999999998" stroke-width="12" stroke-linecap="butt" fill="none"/>
      </g>
      <g transform="translate(948, 540) rotate(90)">
        <line x1="-6" y1="-12" x2="-6" y2="12" stroke-width="12" stroke-linecap="butt"/>
      </g>
      <g transform="translate(948, 636) rotate(270)">
        <line x1="-6" y1="-12" x2="-6" y2="12" stroke-width="12" stroke-linecap="butt"/>
      </g>
      <g transform="translate(972, 540) rotate(180)">
        <path d="M 12.000000000000002 6 A 18 18 0 0 1 -6 -11.999999999999998" stroke-width="12" stroke-linecap="butt" fill="none"/>
      </g>
      <g transform="translate(972, 564) rotate(0)">
        <path d="M 12 -6 A 6 6 0 0 1 6 -12" stroke-width="12" stroke-linecap="butt" fill="none"/>
      </g>
      <g transform="translate(972, 612) rotate(90)">
        <path d="M 12 -6 A 6 6 0 0 1 6 -12" stroke-width="12" stroke-linecap="butt" fill="none"/>
      </g>
      <g transform="translate(972, 636) rotate(270)">
        <path d="M 12.000000000000002 6 A 18 18 0 0 1 -6 -11.999999999999998" stroke-width="12" stroke-linecap="butt" fill="none"/>
      </g>
      <g transform="translate(996, 564) rotate(180)">
        <path d="M 12.000000000000002 6 A 18 18 0 0 1 -5.0092250336652775 -6.110495457669256" stroke-width="12" stroke-linecap="round" fill="none"/>
      </g>
      <g transform="translate(996, 612) rotate(270)">
        <path d="M 6.110495457669263 5.0092250336652775 A 18 18 0 0 1 -6 -11.999999999999998" stroke-width="12" stroke-linecap="round" fill="none"/>
      </g>
    </g>
    <g>
      <g transform="translate(1044, 540) rotate(90)">
        <polyline points="-6,-12 -6,6 12,6" stroke-width="12" stroke-linecap="butt" stroke-linejoin="miter" fill="none"/>
      </g>
      <g transform="translate(1044, 564) rotate(0)">
        <line x1="-6" y1="-12" x2="-6" y2="12" stroke-width="12" stroke-linecap="butt"/>
      </g>
      <g transform="translate(1044, 588) rotate(90)">
        <polyline points="-6,-12 -6,6 12,6" stroke-width="12" stroke-linecap="butt" stroke-linejoin="miter" fill="none"/>
      </g>
      <g transform="translate(1044, 612) rotate(0)">
        <line x1="-6" y1="-12" x2="-6" y2="12" stroke-width="12" stroke-linecap="butt"/>
      </g>
      <g transform="translate(1044, 636) rotate(0)">
        <polyline points="-6,-12 -6,6 12,6" stroke-width="12" stroke-linecap="butt" stroke-linejoin="miter" fill="none"/>
      </g>
      <g transform="translate(1068, 540) rotate(90)">
        <line x1="-6" y1="-12" x2="-6" y2="12" stroke-width="12" stroke-linecap="butt"/>
      </g>
      <g transform="translate(1068, 588) rotate(90)">
        <line x1="-6" y1="-12" x2="-6" y2="12" stroke-width="12" stroke-linecap="butt"/>
      </g>
      <g transform="translate(1068, 636) rotate(270)">
        <line x1="-6" y1="-12" x2="-6" y2="12" stroke-width="12" stroke-linecap="butt"/>
      </g>
      <g transform="translate(1092, 540) rotate(90)">
        <line x1="-6" y1="-12" x2="-6" y2="12" stroke-width="12" stroke-linecap="butt"/>
      </g>
      <g transform="translate(1092, 588) rotate(90)">
        <line x1="-6" y1="-12" x2="-6" y2="12" stroke-width="12" stroke-linecap="butt"/>
      </g>
      <g transform="translate(1092, 636) rotate(270)">
        <line x1="-6" y1="-12" x2="-6" y2="12" stroke-width="12" stroke-linecap="butt"/>
      </g>
      <g transform="translate(1116, 540) rotate(90)">
        <line x1="-6" y1="-12" x2="-6" y2="12" stroke-width="12" stroke-linecap="butt"/>
      </g>
      <g transform="translate(1116, 588) rotate(90)">
        <line x1="-6" y1="-6" x2="-6" y2="12" stroke-width="12" stroke-linecap="round"/>
      </g>
      <g transform="translate(1116, 636) rotate(270)">
        <line x1="-6" y1="-12" x2="-6" y2="12" stroke-width="12" stroke-linecap="butt"/>
      </g>
      <g transform="translate(1140, 540) rotate(90)">
        <line x1="-6" y1="-6" x2="-6" y2="12" stroke-width="12" stroke-linecap="round"/>
      </g>
      <g transform="translate(1140, 636) rotate(270)">
        <line x1="-6" y1="-12" x2="-6" y2="6" stroke-width="12" stroke-linecap="round"/>
      </g>
    </g>
    <g>
      <g transform="translate(324, 708) rotate(90)">
        <path d="M 12.000000000000002 6 A 18 18 0 0 1 -6 -11.999999999999998" stroke-width="12" stroke-linecap="butt" fill="none"/>
      </g>
      <g transform="translate(324, 732) rotate(0)">
        <line x1="-6" y1="-12" x2="-6" y2="12" stroke-width="12" stroke-linecap="butt"/>
      </g>
      <g transform="translate(324, 756) rotate(0)">
        <path d="M 12.000000000000002 6 A 18 18 0 0 1 -6 -11.999999999999998" stroke-width="12" stroke-linecap="butt" fill="none"/>
      </g>
      <g transform="translate(348, 684) rotate(90)">
        <path d="M 12.000000000000002 6 A 18 18 0 0 1 -6 -11.999999999999998" stroke-width="12" stroke-linecap="butt" fill="none"/>
      </g>
      <g transform="translate(348, 708) rotate(270)">
        <path d="M 12 -6 A 6 6 0 0 1 6 -12" stroke-width="12" stroke-linecap="butt" fill="none"/>
      </g>
      <g transform="translate(348, 756) rotate(180)">
        <path d="M 12 -6 A 6 6 0 0 1 6 -12" stroke-width="12" stroke-linecap="butt" fill="none"/>
      </g>
      <g transform="translate(348, 780) rotate(0)">
        <path d="M 12.000000000000002 6 A 18 18 0 0 1 -6 -11.999999999999998" stroke-width="12" stroke-linecap="butt" fill="none"/>
      </g>
      <g transform="translate(372, 684) rotate(90)">
        <line x1="-6" y1="-12" x2="-6" y2="12" stroke-width="12" stroke-linecap="butt"/>
      </g>
      <g transform="translate(372, 780) rotate(270)">
        <line x1="-6" y1="-12" x2="-6" y2="12" stroke-width="12" stroke-linecap="butt"/>
      </g>
      <g transform="translate(396, 684) rotate(180)">
        <path d="M 12.000000000000002 6 A 18 18 0 0 1 -6 -11.999999999999998" stroke-width="12" stroke-linecap="butt" fill="none"/>
      </g>
      <g transform="translate(396, 708) rotate(0)">
        <path d="M 12 -6 A 6 6 0 0 1 6 -12" stroke-width="12" stroke-linecap="butt" fill="none"/>
      </g>
      <g transform="translate(396, 756) rotate(90)">
        <path d="M 12 -6 A 6 6 0 0 1 6 -12" stroke-width="12" stroke-linecap="butt" fill="none"/>
      </g>
      <g transform="translate(396, 780) rotate(270)">
        <path d="M 12.000000000000002 6 A 18 18 0 0 1 -6 -11.999999999999998" stroke-width="12" stroke-linecap="butt" fill="none"/>
      </g>
      <g transform="translate(420, 708) rotate(180)">
        <path d="M 12.000000000000002 6 A 18 18 0 0 1 -5.0092250336652775 -6.110495457669256" stroke-width="12" stroke-linecap="round" fill="none"/>
      </g>
      <g transform="translate(420, 756) rotate(270)">
        <path d="M 6.110495457669263 5.0092250336652775 A 18 18 0 0 1 -6 -11.999999999999998" stroke-width="12" stroke-linecap="round" fill="none"/>
      </g>
    </g>
    <g>
      <g transform="translate(468, 708) rotate(90)">
        <path d="M 12.000000000000002 6 A 18 18 0 0 1 -6 -11.999999999999998" stroke-width="12" stroke-linecap="butt" fill="none"/>
      </g>
      <g transform="translate(468, 732) rotate(0)">
        <line x1="-6" y1="-12" x2="-6" y2="12" stroke-width="12" stroke-linecap="butt"/>
      </g>
      <g transform="translate(468, 756) rotate(0)">
        <path d="M 12.000000000000002 6 A 18 18 0 0 1 -6 -11.999999999999998" stroke-width="12" stroke-linecap="butt" fill="none"/>
      </g>
      <g transform="translate(492, 684) rotate(90)">
        <path d="M 12.000000000000002 6 A 18 18 0 0 1 -6 -11.999999999999998" stroke-width="12" stroke-linecap="butt" fill="none"/>
      </g>
      <g transform="translate(492, 708) rotate(270)">
        <path d="M 12 -6 A 6 6 0 0 1 6 -12" stroke-width="12" stroke-linecap="butt" fill="none"/>
      </g>
      <g transform="translate(492, 756) rotate(180)">
        <path d="M 12 -6 A 6 6 0 0 1 6 -12" stroke-width="12" stroke-linecap="butt" fill="none"/>
      </g>
      <g transform="translate(492, 780) rotate(0)">
        <path d="M 12.000000000000002 6 A 18 18 0 0 1 -6 -11.999999999999998" stroke-width="12" stroke-linecap="butt" fill="none"/>
      </g>
      <g transform="translate(516, 684) rotate(90)">
        <line x1="-6" y1="-12" x2="-6" y2="12" stroke-width="12" stroke-linecap="butt"/>
      </g>
      <g transform="translate(516, 780) rotate(270)">
        <line x1="-6" y1="-12" x2="-6" y2="12" stroke-width="12" stroke-linecap="butt"/>
      </g>
      <g transform="translate(540, 684) rotate(180)">
        <path d="M 12.000000000000002 6 A 18 18 0 0 1 -6 -11.999999999999998" stroke-width="12" stroke-linecap="butt" fill="none"/>
      </g>
      <g transform="translate(540, 708) rotate(0)">
        <path d="M 12 -6 A 6 6 0 0 1 6 -12" stroke-width="12" stroke-linecap="butt" fill="none"/>
      </g>
      <g transform="translate(540, 756) rotate(90)">
        <path d="M 12 -6 A 6 6 0 0 1 6 -12" stroke-width="12" stroke-linecap="butt" fill="none"/>
      </g>
      <g transform="translate(540, 780) rotate(270)">
        <path d="M 12.000000000000002 6 A 18 18 0 0 1 -6 -11.999999999999998" stroke-width="12" stroke-linecap="butt" fill="none"/>
      </g>
      <g transform="translate(564, 708) rotate(180)">
        <path d="M 12.000000000000002 6 A 18 18 0 0 1 -6 -11.999999999999998" stroke-width="12" stroke-linecap="butt" fill="none"/>
      </g>
      <g transform="translate(564, 732) rotate(180)">
        <line x1="-6" y1="-12" x2="-6" y2="12" stroke-width="12" stroke-linecap="butt"/>
      </g>
      <g transform="translate(564, 756) rotate(270)">
        <path d="M 12.000000000000002 6 A 18 18 0 0 1 -6 -11.999999999999998" stroke-width="12" stroke-linecap="butt" fill="none"/>
      </g>
    </g>
    <g>
      <g transform="translate(612, 684) rotate(90)">
        <polyline points="-6,-12 -6,6 12,6" stroke-width="12" stroke-linecap="butt" stroke-linejoin="miter" fill="none"/>
      </g>
      <g transform="translate(612, 708) rotate(0)">
        <line x1="-6" y1="-12" x2="-6" y2="12" stroke-width="12" stroke-linecap="butt"/>
      </g>
      <g transform="translate(612, 732) rotate(0)">
        <line x1="-6" y1="-12" x2="-6" y2="12" stroke-width="12" stroke-linecap="butt"/>
      </g>
      <g transform="translate(612, 756) rotate(0)">
        <line x1="-6" y1="-12" x2="-6" y2="12" stroke-width="12" stroke-linecap="butt"/>
      </g>
      <g transform="translate(612, 780) rotate(0)">
        <polyline points="-6,-12 -6,6 12,6" stroke-width="12" stroke-linecap="butt" stroke-linejoin="miter" fill="none"/>
      </g>
      <g transform="translate(636, 684) rotate(90)">
        <line x1="-6" y1="-12" x2="-6" y2="12" stroke-width="12" stroke-linecap="butt"/>
      </g>
      <g transform="translate(636, 780) rotate(270)">
        <line x1="-6" y1="-12" x2="-6" y2="12" stroke-width="12" stroke-linecap="butt"/>
      </g>
      <g transform="translate(660, 684) rotate(90)">
        <line x1="-6" y1="-12" x2="-6" y2="12" stroke-width="12" stroke-linecap="butt"/>
      </g>
      <g transform="translate(660, 780) rotate(270)">
        <line x1="-6" y1="-12" x2="-6" y2="12" stroke-width="12" stroke-linecap="butt"/>
      </g>
      <g transform="translate(684, 684) rotate(180)">
        <path d="M 12.000000000000002 6 A 18 18 0 0 1 -6 -11.999999999999998" stroke-width="12" stroke-linecap="butt" fill="none"/>
      </g>
      <g transform="translate(684, 708) rotate(0)">
        <path d="M 12 -6 A 6 6 0 0 1 6 -12" stroke-width="12" stroke-linecap="butt" fill="none"/>
      </g>
      <g transform="translate(684, 756) rotate(90)">
        <path d="M 12 -6 A 6 6 0 0 1 6 -12" stroke-width="12" stroke-linecap="butt" fill="none"/>
      </g>
      <g transform="translate(684, 780) rotate(270)">
        <path d="M 12.000000000000002 6 A 18 18 0 0 1 -6 -11.999999999999998" stroke-width="12" stroke-linecap="butt" fill="none"/>
      </g>
      <g transform="translate(708, 708) rotate(180)">
        <path d="M 12.000000000000002 6 A 18 18 0 0 1 -6 -11.999999999999998" stroke-width="12" stroke-linecap="butt" fill="none"/>
      </g>
      <g transform="translate(708, 732) rotate(180)">
        <line x1="-6" y1="-12" x2="-6" y2="12" stroke-width="12" stroke-linecap="butt"/>
      </g>
      <g transform="translate(708, 756) rotate(270)">
        <path d="M 12.000000000000002 6 A 18 18 0 0 1 -6 -11.999999999999998" stroke-width="12" stroke-linecap="butt" fill="none"/>
      </g>
    </g>
    <g>
      <g transform="translate(756, 684) rotate(90)">
        <polyline points="-6,-12 -6,6 12,6" stroke-width="12" stroke-linecap="butt" stroke-linejoin="miter" fill="none"/>
      </g>
      <g transform="translate(756, 708) rotate(0)">
        <line x1="-6" y1="-12" x2="-6" y2="12" stroke-width="12" stroke-linecap="butt"/>
      </g>
      <g transform="translate(756, 732) rotate(90)">
        <polyline points="-6,-12 -6,6 12,6" stroke-width="12" stroke-linecap="butt" stroke-linejoin="miter" fill="none"/>
      </g>
      <g transform="translate(756, 756) rotate(0)">
        <line x1="-6" y1="-12" x2="-6" y2="12" stroke-width="12" stroke-linecap="butt"/>
      </g>
      <g transform="translate(756, 780) rotate(0)">
        <polyline points="-6,-12 -6,6 12,6" stroke-width="12" stroke-linecap="butt" stroke-linejoin="miter" fill="none"/>
      </g>
      <g transform="translate(780, 684) rotate(90)">
        <line x1="-6" y1="-12" x2="-6" y2="12" stroke-width="12" stroke-linecap="butt"/>
      </g>
      <g transform="translate(780, 732) rotate(90)">
        <line x1="-6" y1="-12" x2="-6" y2="12" stroke-width="12" stroke-linecap="butt"/>
      </g>
      <g transform="translate(780, 780) rotate(270)">
        <line x1="-6" y1="-12" x2="-6" y2="12" stroke-width="12" stroke-linecap="butt"/>
      </g>
      <g transform="translate(804, 684) rotate(90)">
        <line x1="-6" y1="-12" x2="-6" y2="12" stroke-width="12" stroke-linecap="butt"/>
      </g>
      <g transform="translate(804, 732) rotate(90)">
        <line x1="-6" y1="-12" x2="-6" y2="12" stroke-width="12" stroke-linecap="butt"/>
      </g>
      <g transform="translate(804, 780) rotate(270)">
        <line x1="-6" y1="-12" x2="-6" y2="12" stroke-width="12" stroke-linecap="butt"/>
      </g>
      <g transform="translate(828, 684) rotate(90)">
        <line x1="-6" y1="-12" x2="-6" y2="12" stroke-width="12" stroke-linecap="butt"/>
      </g>
      <g transform="translate(828, 732) rotate(90)">
        <line x1="-6" y1="-6" x2="-6" y2="12" stroke-width="12" stroke-linecap="round"/>
      </g>
      <g transform="translate(828, 780) rotate(270)">
        <line x1="-6" y1="-12" x2="-6" y2="12" stroke-width="12" stroke-linecap="butt"/>
      </g>
      <g transform="translate(852, 684) rotate(90)">
        <line x1="-6" y1="-6" x2="-6" y2="12" stroke-width="12" stroke-linecap="round"/>
      </g>
      <g transform="translate(852, 780) rotate(270)">
        <line x1="-6" y1="-12" x2="-6" y2="6" stroke-width="12" stroke-linecap="round"/>
      </g>
    </g>
  </g>
</svg>