<?xml version="1.0" encoding="UTF-8"?>
<svg id="Layer_1" xmlns="http://www.w3.org/2000/svg" version="1.1" viewBox="0 0 1176 1176">
  <!-- Generator: Adobe Illustrator 30.1.0, SVG Export Plug-In . SVG Version: 2.1.1 Build 136)  -->
  <defs>
    <style>
      .st0, .st1, .st2, .st3 {
        fill: none;
      }

      .st0, .st2, .st3 {
        stroke: #fff;
        stroke-width: 12px;
      }

      .st1 {
        stroke: #333;
        stroke-width: .5px;
      }

      .st2 {
        stroke-linejoin: round;
      }

      .st3 {
        stroke-linecap: round;
      }
    </style>
  </defs>
  <g id="back">
    <rect width="1176" height="1176"/>
  </g>
  <g id="grid">
    <line class="st1" y2="1176"/>
    <line class="st1" x1="24" x2="24" y2="1176"/>
    <line class="st1" x1="48" x2="48" y2="1176"/>
    <line class="st1" x1="72" x2="72" y2="1176"/>
    <line class="st1" x1="96" x2="96" y2="1176"/>
    <line class="st1" x1="120" x2="120" y2="1176"/>
    <line class="st1" x1="144" x2="144" y2="1176"/>
    <line class="st1" x1="168" x2="168" y2="1176"/>
    <line class="st1" x1="192" x2="192" y2="1176"/>
    <line class="st1" x1="216" x2="216" y2="1176"/>
    <line class="st1" x1="240" x2="240" y2="1176"/>
    <line class="st1" x1="264" x2="264" y2="1176"/>
    <line class="st1" x1="288" x2="288" y2="1176"/>
    <line class="st1" x1="312" x2="312" y2="1176"/>
    <line class="st1" x1="336" x2="336" y2="1176"/>
    <line class="st1" x1="360" x2="360" y2="1176"/>
    <line class="st1" x1="384" x2="384" y2="1176"/>
    <line class="st1" x1="408" x2="408" y2="1176"/>
    <line class="st1" x1="432" x2="432" y2="1176"/>
    <line class="st1" x1="456" x2="456" y2="1176"/>
    <line class="st1" x1="480" x2="480" y2="1176"/>
    <line class="st1" x1="504" x2="504" y2="1176"/>
    <line class="st1" x1="528" x2="528" y2="1176"/>
    <line class="st1" x1="552" x2="552" y2="1176"/>
    <line class="st1" x1="576" x2="576" y2="1176"/>
    <line class="st1" x1="600" x2="600" y2="1176"/>
    <line class="st1" x1="624" x2="624" y2="1176"/>
    <line class="st1" x1="648" x2="648" y2="1176"/>
    <line class="st1" x1="672" x2="672" y2="1176"/>
    <line class="st1" x1="696" x2="696" y2="1176"/>
    <line class="st1" x1="720" x2="720" y2="1176"/>
    <line class="st1" x1="744" x2="744" y2="1176"/>
    <line class="st1" x1="768" x2="768" y2="1176"/>
    <line class="st1" x1="792" x2="792" y2="1176"/>
    <line class="st1" x1="816" x2="816" y2="1176"/>
    <line class="st1" x1="840" x2="840" y2="1176"/>
    <line class="st1" x1="864" x2="864" y2="1176"/>
    <line class="st1" x1="888" x2="888" y2="1176"/>
    <line class="st1" x1="912" x2="912" y2="1176"/>
    <line class="st1" x1="936" x2="936" y2="1176"/>
    <line class="st1" x1="960" x2="960" y2="1176"/>
    <line class="st1" x1="984" x2="984" y2="1176"/>
    <line class="st1" x1="1008" x2="1008" y2="1176"/>
    <line class="st1" x1="1032" x2="1032" y2="1176"/>
    <line class="st1" x1="1056" x2="1056" y2="1176"/>
    <line class="st1" x1="1080" x2="1080" y2="1176"/>
    <line class="st1" x1="1104" x2="1104" y2="1176"/>
    <line class="st1" x1="1128" x2="1128" y2="1176"/>
    <line class="st1" x1="1152" x2="1152" y2="1176"/>
    <line class="st1" x1="1176" x2="1176" y2="1176"/>
    <line class="st1" x2="1176"/>
    <line class="st1" y1="24" x2="1176" y2="24"/>
    <line class="st1" y1="48" x2="1176" y2="48"/>
    <line class="st1" y1="72" x2="1176" y2="72"/>
    <line class="st1" y1="96" x2="1176" y2="96"/>
    <line class="st1" y1="120" x2="1176" y2="120"/>
    <line class="st1" y1="144" x2="1176" y2="144"/>
    <line class="st1" y1="168" x2="1176" y2="168"/>
    <line class="st1" y1="192" x2="1176" y2="192"/>
    <line class="st1" y1="216" x2="1176" y2="216"/>
    <line class="st1" y1="240" x2="1176" y2="240"/>
    <line class="st1" y1="264" x2="1176" y2="264"/>
    <line class="st1" y1="288" x2="1176" y2="288"/>
    <line class="st1" y1="312" x2="1176" y2="312"/>
    <line class="st1" y1="336" x2="1176" y2="336"/>
    <line class="st1" y1="360" x2="1176" y2="360"/>
    <line class="st1" y1="384" x2="1176" y2="384"/>
    <line class="st1" y1="408" x2="1176" y2="408"/>
    <line class="st1" y1="432" x2="1176" y2="432"/>
    <line class="st1" y1="456" x2="1176" y2="456"/>
    <line class="st1" y1="480" x2="1176" y2="480"/>
    <line class="st1" y1="504" x2="1176" y2="504"/>
    <line class="st1" y1="528" x2="1176" y2="528"/>
    <line class="st1" y1="552" x2="1176" y2="552"/>
    <line class="st1" y1="576" x2="1176" y2="576"/>
    <line class="st1" y1="600" x2="1176" y2="600"/>
    <line class="st1" y1="624" x2="1176" y2="624"/>
    <line class="st1" y1="648" x2="1176" y2="648"/>
    <line class="st1" y1="672" x2="1176" y2="672"/>
    <line class="st1" y1="696" x2="1176" y2="696"/>
    <line class="st1" y1="720" x2="1176" y2="720"/>
    <line class="st1" y1="744" x2="1176" y2="744"/>
    <line class="st1" y1="768" x2="1176" y2="768"/>
    <line class="st1" y1="792" x2="1176" y2="792"/>
    <line class="st1" y1="816" x2="1176" y2="816"/>
    <line class="st1" y1="840" x2="1176" y2="840"/>
    <line class="st1" y1="864" x2="1176" y2="864"/>
    <line class="st1" y1="888" x2="1176" y2="888"/>
    <line class="st1" y1="912" x2="1176" y2="912"/>
    <line class="st1" y1="936" x2="1176" y2="936"/>
    <line class="st1" y1="960" x2="1176" y2="960"/>
    <line class="st1" y1="984" x2="1176" y2="984"/>
    <line class="st1" y1="1008" x2="1176" y2="1008"/>
    <line class="st1" y1="1032" x2="1176" y2="1032"/>
    <line class="st1" y1="1056" x2="1176" y2="1056"/>
    <line class="st1" y1="1080" x2="1176" y2="1080"/>
    <line class="st1" y1="1104" x2="1176" y2="1104"/>
    <line class="st1" y1="1128" x2="1176" y2="1128"/>
    <line class="st1" y1="1152" x2="1176" y2="1152"/>
    <line class="st1" y1="1176" x2="1176" y2="1176"/>
  </g>
  <g id="typo">
    <g>
      <line class="st3" x1="318" y1="390" x2="318" y2="408"/>
      <line class="st0" x1="318" y1="408" x2="318" y2="432"/>
      <line class="st0" x1="318" y1="432" x2="318" y2="456"/>
      <path class="st0" d="M336,474c-9.9411259,0-18-8.0588741-18-18"/>
      <path class="st0" d="M336,474c3.3137083,0,6,2.6862917,6,6"/>
      <path class="st0" d="M360,498c-9.9411259,0-18-8.0588741-18-18"/>
      <line class="st0" x1="360" y1="498" x2="384" y2="498"/>
      <path class="st0" d="M402,480c0-3.3137083,2.6862917-6,6-6"/>
      <path class="st0" d="M402,480c0,9.9411259-8.0588741,18-18,18"/>
      <line class="st3" x1="426" y1="408" x2="426" y2="390"/>
      <line class="st0" x1="426" y1="432" x2="426" y2="408"/>
      <line class="st0" x1="426" y1="456" x2="426" y2="432"/>
      <path class="st0" d="M426,456c0,9.9411259-8.0588741,18-18,18"/>
    </g>
    <g>
      <path class="st0" d="M462,432c0-9.9411259,8.0588741-18,18-18"/>
      <line class="st0" x1="462" y1="432" x2="462" y2="456"/>
      <path class="st0" d="M480,474c-9.9411259,0-18-8.0588741-18-18"/>
      <path class="st0" d="M486,408c0-9.9411259,8.0588741-18,18-18"/>
      <path class="st0" d="M486,408c0,3.3137083-2.6862917,6-6,6"/>
      <path class="st0" d="M480,474c3.3137083,0,6,2.6862917,6,6"/>
      <path class="st0" d="M504,498c-9.9411259,0-18-8.0588741-18-18"/>
      <line class="st0" x1="528" y1="390" x2="504" y2="390"/>
      <line class="st0" x1="504" y1="498" x2="528" y2="498"/>
      <path class="st0" d="M528,390c9.9411259,0,18,8.0588741,18,18"/>
      <path class="st0" d="M552,414c-3.3137083,0-6-2.6862917-6-6"/>
      <path class="st0" d="M546,480c0-3.3137083,2.6862917-6,6-6"/>
      <path class="st0" d="M546,480c0,9.9411259-8.0588741,18-18,18"/>
      <path class="st0" d="M552,414c9.9411259,0,18,8.0588741,18,18"/>
      <line class="st0" x1="570" y1="456" x2="570" y2="432"/>
      <path class="st0" d="M570,456c0,9.9411259-8.0588741,18-18,18"/>
    </g>
    <g>
      <line class="st3" x1="624" y1="390" x2="606" y2="390"/>
      <line class="st3" x1="606" y1="498" x2="624" y2="498"/>
      <line class="st0" x1="648" y1="390" x2="624" y2="390"/>
      <line class="st0" x1="624" y1="498" x2="648" y2="498"/>
      <g>
        <line class="st0" x1="672" y1="390" x2="648" y2="390"/>
        <line class="st0" x1="660" y1="390" x2="660" y2="408"/>
      </g>
      <line class="st0" x1="660" y1="408" x2="660" y2="432"/>
      <line class="st0" x1="660" y1="432" x2="660" y2="456"/>
      <line class="st0" x1="660" y1="456" x2="660" y2="480"/>
      <g>
        <line class="st0" x1="648" y1="498" x2="672" y2="498"/>
        <line class="st0" x1="660" y1="498" x2="660" y2="480"/>
      </g>
      <line class="st0" x1="696" y1="390" x2="672" y2="390"/>
      <line class="st0" x1="672" y1="498" x2="696" y2="498"/>
      <line class="st3" x1="714" y1="390" x2="696" y2="390"/>
      <line class="st3" x1="696" y1="498" x2="714" y2="498"/>
    </g>
    <g>
      <polyline class="st2" points="768 390 750 390 750 408"/>
      <line class="st0" x1="750" y1="408" x2="750" y2="432"/>
      <line class="st0" x1="750" y1="432" x2="750" y2="456"/>
      <line class="st0" x1="750" y1="456" x2="750" y2="480"/>
      <polyline class="st2" points="750 480 750 498 768 498"/>
      <line class="st0" x1="792" y1="390" x2="768" y2="390"/>
      <line class="st0" x1="768" y1="498" x2="792" y2="498"/>
      <line class="st0" x1="816" y1="390" x2="792" y2="390"/>
      <line class="st0" x1="792" y1="498" x2="816" y2="498"/>
      <path class="st0" d="M816,390c9.9411259,0,18,8.0588741,18,18"/>
      <path class="st0" d="M840,414c-3.3137083,0-6-2.6862917-6-6"/>
      <path class="st0" d="M834,480c0-3.3137083,2.6862917-6,6-6"/>
      <path class="st0" d="M834,480c0,9.9411259-8.0588741,18-18,18"/>
      <path class="st0" d="M840,414c9.9411259,0,18,8.0588741,18,18"/>
      <line class="st0" x1="858" y1="456" x2="858" y2="432"/>
      <path class="st0" d="M858,456c0,9.9411259-8.0588741,18-18,18"/>
    </g>
    <g>
      <line class="st3" x1="48" y1="534" x2="30" y2="534"/>
      <line class="st0" x1="72" y1="534" x2="48" y2="534"/>
      <g>
        <line class="st0" x1="96" y1="534" x2="72" y2="534"/>
        <line class="st0" x1="84" y1="534" x2="84" y2="552"/>
      </g>
      <line class="st0" x1="84" y1="552" x2="84" y2="576"/>
      <line class="st0" x1="84" y1="576" x2="84" y2="600"/>
      <line class="st0" x1="84" y1="600" x2="84" y2="624"/>
      <line class="st3" x1="84" y1="624" x2="84" y2="642"/>
      <line class="st0" x1="120" y1="534" x2="96" y2="534"/>
      <line class="st3" x1="138" y1="534" x2="120" y2="534"/>
    </g>
    <g>
      <line class="st3" x1="192" y1="534" x2="174" y2="534"/>
      <path class="st0" d="M192,534c9.9411259,0,18,8.0588741,18,18"/>
      <line class="st0" x1="210" y1="576" x2="210" y2="552"/>
      <path class="st0" d="M216,582c-3.3137083,0-6-2.6862917-6-6"/>
      <g>
        <line class="st0" x1="240" y1="582" x2="216" y2="582"/>
        <line class="st0" x1="228" y1="582" x2="228" y2="600"/>
      </g>
      <line class="st0" x1="228" y1="600" x2="228" y2="624"/>
      <line class="st3" x1="228" y1="624" x2="228" y2="642"/>
      <path class="st0" d="M246,552c0-9.9411259,8.0588741-18,18-18"/>
      <line class="st0" x1="246" y1="552" x2="246" y2="576"/>
      <path class="st0" d="M246,576c0,3.3137083-2.6862917,6-6,6"/>
      <line class="st3" x1="282" y1="534" x2="264" y2="534"/>
    </g>
    <g>
      <polyline class="st2" points="336 534 318 534 318 552"/>
      <polyline class="st0" points="318 552 318 570 336 570"/>
      <line class="st0" x1="318" y1="576" x2="318" y2="600"/>
      <line class="st0" x1="318" y1="600" x2="318" y2="624"/>
      <line class="st3" x1="318" y1="624" x2="318" y2="642"/>
      <line class="st0" x1="360" y1="534" x2="336" y2="534"/>
      <path class="st0" d="M336,570c3.3137083,0,6,2.6862917,6,6"/>
      <path class="st0" d="M360,594c-9.9411259,0-18-8.0588741-18-18"/>
      <line class="st0" x1="384" y1="534" x2="360" y2="534"/>
      <line class="st0" x1="360" y1="594" x2="384" y2="594"/>
      <line class="st0" x1="408" y1="534" x2="384" y2="534"/>
      <line class="st0" x1="384" y1="594" x2="408" y2="594"/>
      <path class="st0" d="M408,534c9.9411259,0,18,8.0588741,18,18"/>
      <line class="st0" x1="426" y1="576" x2="426" y2="552"/>
      <path class="st0" d="M426,576c0,9.9411259-8.0588741,18-18,18"/>
    </g>
    <g>
      <polyline class="st2" points="480 534 462 534 462 552"/>
      <line class="st0" x1="462" y1="552" x2="462" y2="576"/>
      <polyline class="st0" points="480 582 462 582 462 600"/>
      <line class="st0" x1="462" y1="600" x2="462" y2="624"/>
      <polyline class="st2" points="462 624 462 642 480 642"/>
      <line class="st0" x1="504" y1="534" x2="480" y2="534"/>
      <line class="st0" x1="504" y1="582" x2="480" y2="582"/>
      <line class="st0" x1="480" y1="642" x2="504" y2="642"/>
      <line class="st0" x1="528" y1="534" x2="504" y2="534"/>
      <line class="st0" x1="528" y1="582" x2="504" y2="582"/>
      <line class="st0" x1="504" y1="642" x2="528" y2="642"/>
      <line class="st0" x1="552" y1="534" x2="528" y2="534"/>
      <line class="st3" x1="546" y1="582" x2="528" y2="582"/>
      <line class="st0" x1="528" y1="642" x2="552" y2="642"/>
      <line class="st3" x1="570" y1="534" x2="552" y2="534"/>
      <line class="st3" x1="552" y1="642" x2="570" y2="642"/>
    </g>
    <g>
      <polyline class="st2" points="624 534 606 534 606 552"/>
      <line class="st0" x1="606" y1="552" x2="606" y2="576"/>
      <polyline class="st0" points="624 582 606 582 606 600"/>
      <line class="st0" x1="606" y1="600" x2="606" y2="624"/>
      <line class="st3" x1="606" y1="624" x2="606" y2="642"/>
      <line class="st0" x1="648" y1="534" x2="624" y2="534"/>
      <line class="st0" x1="648" y1="582" x2="624" y2="582"/>
      <line class="st0" x1="672" y1="534" x2="648" y2="534"/>
      <line class="st0" x1="672" y1="582" x2="648" y2="582"/>
      <line class="st0" x1="696" y1="534" x2="672" y2="534"/>
      <line class="st3" x1="690" y1="582" x2="672" y2="582"/>
      <line class="st3" x1="714" y1="534" x2="696" y2="534"/>
    </g>
    <g>
      <path class="st0" d="M750,576c0-9.9411259,8.0588741-18,18-18"/>
      <line class="st0" x1="750" y1="576" x2="750" y2="600"/>
      <polyline class="st0" points="768 606 750 606 750 624"/>
      <line class="st3" x1="750" y1="624" x2="750" y2="642"/>
      <path class="st0" d="M774,552c0-9.9411259,8.0588741-18,18-18"/>
      <path class="st0" d="M774,552c0,3.3137083-2.6862917,6-6,6"/>
      <line class="st0" x1="792" y1="606" x2="768" y2="606"/>
      <line class="st0" x1="816" y1="534" x2="792" y2="534"/>
      <line class="st0" x1="816" y1="606" x2="792" y2="606"/>
      <path class="st0" d="M816,534c9.9411259,0,18,8.0588741,18,18"/>
      <path class="st0" d="M840,558c-3.3137083,0-6-2.6862917-6-6"/>
      <line class="st0" x1="840" y1="606" x2="816" y2="606"/>
      <path class="st0" d="M840,558c9.9411259,0,18,8.0588741,18,18"/>
      <line class="st0" x1="858" y1="600" x2="858" y2="576"/>
      <polyline class="st0" points="858 624 858 606 840 606"/>
      <line class="st3" x1="858" y1="642" x2="858" y2="624"/>
    </g>
    <g>
      <path class="st0" d="M894,576c0-9.9411259,8.0588741-18,18-18"/>
      <line class="st0" x1="894" y1="576" x2="894" y2="600"/>
      <path class="st0" d="M912,618c-9.9411259,0-18-8.0588741-18-18"/>
      <path class="st0" d="M918,552c0-9.9411259,8.0588741-18,18-18"/>
      <path class="st0" d="M918,552c0,3.3137083-2.6862917,6-6,6"/>
      <path class="st0" d="M912,618c3.3137083,0,6,2.6862917,6,6"/>
      <path class="st0" d="M936,642c-9.9411259,0-18-8.0588741-18-18"/>
      <line class="st0" x1="960" y1="534" x2="936" y2="534"/>
      <line class="st0" x1="936" y1="642" x2="960" y2="642"/>
      <path class="st0" d="M960,534c9.9411259,0,18,8.0588741,18,18"/>
      <path class="st0" d="M984,558c-3.3137083,0-6-2.6862917-6-6"/>
      <path class="st0" d="M978,624c0-3.3137083,2.6862917-6,6-6"/>
      <path class="st0" d="M978,624c0,9.9411259-8.0588741,18-18,18"/>
      <path class="st3" d="M984,558c7.6710796,0,14.4992883,4.8616555,17.0092249,12.1104956"/>
      <path class="st3" d="M1001.0092249,605.8895044c-2.5099366,7.2488401-9.3381453,12.1104956-17.0092249,12.1104956"/>
    </g>
    <g>
      <polyline class="st2" points="1056 534 1038 534 1038 552"/>
      <line class="st0" x1="1038" y1="552" x2="1038" y2="576"/>
      <polyline class="st0" points="1056 582 1038 582 1038 600"/>
      <line class="st0" x1="1038" y1="600" x2="1038" y2="624"/>
      <polyline class="st2" points="1038 624 1038 642 1056 642"/>
      <line class="st0" x1="1080" y1="534" x2="1056" y2="534"/>
      <line class="st0" x1="1080" y1="582" x2="1056" y2="582"/>
      <line class="st0" x1="1056" y1="642" x2="1080" y2="642"/>
      <line class="st0" x1="1104" y1="534" x2="1080" y2="534"/>
      <line class="st0" x1="1104" y1="582" x2="1080" y2="582"/>
      <line class="st0" x1="1080" y1="642" x2="1104" y2="642"/>
      <line class="st0" x1="1128" y1="534" x2="1104" y2="534"/>
      <line class="st3" x1="1122" y1="582" x2="1104" y2="582"/>
      <line class="st0" x1="1104" y1="642" x2="1128" y2="642"/>
      <line class="st3" x1="1146" y1="534" x2="1128" y2="534"/>
      <line class="st3" x1="1128" y1="642" x2="1146" y2="642"/>
    </g>
    <g>
      <path class="st0" d="M318,720c0-9.9411259,8.0588741-18,18-18"/>
      <line class="st0" x1="318" y1="720" x2="318" y2="744"/>
      <path class="st0" d="M336,762c-9.9411259,0-18-8.0588741-18-18"/>
      <path class="st0" d="M342,696c0-9.9411259,8.0588741-18,18-18"/>
      <path class="st0" d="M342,696c0,3.3137083-2.6862917,6-6,6"/>
      <path class="st0" d="M336,762c3.3137083,0,6,2.6862917,6,6"/>
      <path class="st0" d="M360,786c-9.9411259,0-18-8.0588741-18-18"/>
      <line class="st0" x1="384" y1="678" x2="360" y2="678"/>
      <line class="st0" x1="360" y1="786" x2="384" y2="786"/>
      <path class="st0" d="M384,678c9.9411259,0,18,8.0588741,18,18"/>
      <path class="st0" d="M408,702c-3.3137083,0-6-2.6862917-6-6"/>
      <path class="st0" d="M402,768c0-3.3137083,2.6862917-6,6-6"/>
      <path class="st0" d="M402,768c0,9.9411259-8.0588741,18-18,18"/>
      <path class="st3" d="M408,702c7.6710796,0,14.4992883,4.8616555,17.0092249,12.1104956"/>
      <path class="st3" d="M425.0092249,749.8895044c-2.5099366,7.2488401-9.3381453,12.1104956-17.0092249,12.1104956"/>
    </g>
    <g>
      <path class="st0" d="M462,720c0-9.9411259,8.0588741-18,18-18"/>
      <line class="st0" x1="462" y1="720" x2="462" y2="744"/>
      <path class="st0" d="M480,762c-9.9411259,0-18-8.0588741-18-18"/>
      <path class="st0" d="M486,696c0-9.9411259,8.0588741-18,18-18"/>
      <path class="st0" d="M486,696c0,3.3137083-2.6862917,6-6,6"/>
      <path class="st0" d="M480,762c3.3137083,0,6,2.6862917,6,6"/>
      <path class="st0" d="M504,786c-9.9411259,0-18-8.0588741-18-18"/>
      <line class="st0" x1="528" y1="678" x2="504" y2="678"/>
      <line class="st0" x1="504" y1="786" x2="528" y2="786"/>
      <path class="st0" d="M528,678c9.9411259,0,18,8.0588741,18,18"/>
      <path class="st0" d="M552,702c-3.3137083,0-6-2.6862917-6-6"/>
      <path class="st0" d="M546,768c0-3.3137083,2.6862917-6,6-6"/>
      <path class="st0" d="M546,768c0,9.9411259-8.0588741,18-18,18"/>
      <path class="st0" d="M552,702c9.9411259,0,18,8.0588741,18,18"/>
      <line class="st0" x1="570" y1="744" x2="570" y2="720"/>
      <path class="st0" d="M570,744c0,9.9411259-8.0588741,18-18,18"/>
    </g>
    <g>
      <polyline class="st2" points="624 678 606 678 606 696"/>
      <line class="st0" x1="606" y1="696" x2="606" y2="720"/>
      <line class="st0" x1="606" y1="720" x2="606" y2="744"/>
      <line class="st0" x1="606" y1="744" x2="606" y2="768"/>
      <polyline class="st2" points="606 768 606 786 624 786"/>
      <line class="st0" x1="648" y1="678" x2="624" y2="678"/>
      <line class="st0" x1="624" y1="786" x2="648" y2="786"/>
      <line class="st0" x1="672" y1="678" x2="648" y2="678"/>
      <line class="st0" x1="648" y1="786" x2="672" y2="786"/>
      <path class="st0" d="M672,678c9.9411259,0,18,8.0588741,18,18"/>
      <path class="st0" d="M696,702c-3.3137083,0-6-2.6862917-6-6"/>
      <path class="st0" d="M690,768c0-3.3137083,2.6862917-6,6-6"/>
      <path class="st0" d="M690,768c0,9.9411259-8.0588741,18-18,18"/>
      <path class="st0" d="M696,702c9.9411259,0,18,8.0588741,18,18"/>
      <line class="st0" x1="714" y1="744" x2="714" y2="720"/>
      <path class="st0" d="M714,744c0,9.9411259-8.0588741,18-18,18"/>
    </g>
    <g>
      <polyline class="st2" points="768 678 750 678 750 696"/>
      <line class="st0" x1="750" y1="696" x2="750" y2="720"/>
      <polyline class="st0" points="768 726 750 726 750 744"/>
      <line class="st0" x1="750" y1="744" x2="750" y2="768"/>
      <polyline class="st2" points="750 768 750 786 768 786"/>
      <line class="st0" x1="792" y1="678" x2="768" y2="678"/>
      <line class="st0" x1="792" y1="726" x2="768" y2="726"/>
      <line class="st0" x1="768" y1="786" x2="792" y2="786"/>
      <line class="st0" x1="816" y1="678" x2="792" y2="678"/>
      <line class="st0" x1="816" y1="726" x2="792" y2="726"/>
      <line class="st0" x1="792" y1="786" x2="816" y2="786"/>
      <line class="st0" x1="840" y1="678" x2="816" y2="678"/>
      <line class="st3" x1="834" y1="726" x2="816" y2="726"/>
      <line class="st0" x1="816" y1="786" x2="840" y2="786"/>
      <line class="st3" x1="858" y1="678" x2="840" y2="678"/>
      <line class="st3" x1="840" y1="786" x2="858" y2="786"/>
    </g>
  </g>
</svg>