<?xml version="1.0" encoding="UTF-8"?>
<svg id="Layer_1" xmlns="http://www.w3.org/2000/svg" version="1.1" viewBox="0 0 128 128">
  <!-- Generator: Adobe Illustrator 30.1.0, SVG Export Plug-In . SVG Version: 2.1 Build 148) -->
  <defs>
    <style>
      .st0 {
        fill: none;
        stroke: #231f20;
        stroke-width: 15px;
        stroke-linecap: round;
        stroke-linejoin: round;
        stroke-miterlimit: 10;
      }
    </style>
  </defs>
  <polygon class="st0" points="-5.28999999 53.8599999952 -5.28999999 65.4399999952 6.29000001 65.4399999952 6.29000001 53.8599999952"/>
  <polygon class="st0" points="18.20999999 48.3599999952 12.81999999 65.4399999952 24.4099999952 72.0699999936 43.0699999936 28.0699999936"/>
  <path class="st0" d="m71.0699999936 28.0699999936c0 35.0699999936-.1799999936 37.0699999936-.1799999936 37.0699999936 0 .1799999936-.1799999936 28.0699999936-.1799999936 39.0699999936 0-.1799999936 5.0699999936 3.0699999936 6.0699999936-.1799999936-.1799999936 43.0699999936 30.0699999936-.1799999936 71.0699999936-.1799999936 71.0699999936-.1799999936.1799999936 71.0699999936-.1799999936 71.0699999936-.1799999936 71.0699999936-.1799999936.1799999936 71.0699999936-.1799999936 71.0699999936-.1799999936 28.0699999936-.1799999936 28.0699999936-.1799999936 28.0699999936-.1799999936 28.0699999936"/>
</svg>
