<?xml version="1.0" encoding="UTF-8"?>
<svg id="Layer_2" xmlns="http://www.w3.org/2000/svg" version="1.1" viewBox="0 0 720 320">
  <!-- Generator: Adobe Illustrator 29.3.1, SVG Export Plug-In . SVG Version: 2.1.0 Build 151)  -->
  <defs>
    <style>
      .st0 {
        fill: #191919;
      }
    </style>
  </defs>
  <path class="st0" d="M287.3546143,134.0479126c-5.2382812,0-9.5-4.2617188-9.5-9.5s4.2617188-9.5,9.5-9.5,9.5,4.2617188,9.5,9.5-4.2617188,9.5-9.5,9.5ZM287.3546143,116.0479126c-4.6865234,0-8.5,3.8129883-8.5,8.5s3.8134766,8.5,8.5,8.5,8.5-3.8129883,8.5-8.5-3.8134766-8.5-8.5-8.5Z"/>
  <path class="st0" d="M312.3253174,134.0479126c-5.2382812,0-9.5-4.2617188-9.5-9.5s4.2617188-9.5,9.5-9.5,9.5,4.2617188,9.5,9.5-4.2617188,9.5-9.5,9.5ZM312.3253174,116.0479126c-4.6865234,0-8.5,3.8129883-8.5,8.5s3.8134766,8.5,8.5,8.5,8.5-3.8129883,8.5-8.5-3.8134766-8.5-8.5-8.5Z"/>
  <path class="st0" d="M337.2960205,134.0479126c-5.2382812,0-9.5-4.2617188-9.5-9.5s4.2617188-9.5,9.5-9.5,9.5,4.2617188,9.5,9.5-4.2617188,9.5-9.5,9.5ZM337.2960205,116.0479126c-4.6865234,0-8.5,3.8129883-8.5,8.5s3.8134766,8.5,8.5,8.5,8.5-3.8129883,8.5-8.5-3.8134766-8.5-8.5-8.5Z"/>
  <path class="st0" d="M362.2657471,134.0479126c-5.2382812,0-9.5-4.2617188-9.5-9.5s4.2617188-9.5,9.5-9.5,9.5,4.2617188,9.5,9.5-4.2617188,9.5-9.5,9.5ZM362.2657471,116.0479126c-4.6865234,0-8.5,3.8129883-8.5,8.5s3.8134766,8.5,8.5,8.5,8.5-3.8129883,8.5-8.5-3.8134766-8.5-8.5-8.5Z"/>
  <path class="st0" d="M312.3253174,258.0171509c-5.2382812,0-9.5-4.2617188-9.5-9.5,0-5.2373047,4.2617188-9.4990234,9.5-9.4990234s9.5,4.2617188,9.5,9.4990234c0,5.2382812-4.2617188,9.5-9.5,9.5ZM312.3253174,240.0181274c-4.6865234,0-8.5,3.8125-8.5,8.4990234s3.8134766,8.5,8.5,8.5,8.5-3.8134766,8.5-8.5-3.8134766-8.4990234-8.5-8.4990234Z"/>
  <path class="st0" d="M287.3546143,258.0171509c-5.2382812,0-9.5-4.2617188-9.5-9.5,0-5.2373047,4.2617188-9.4990234,9.5-9.4990234s9.5,4.2617188,9.5,9.4990234c0,5.2382812-4.2617188,9.5-9.5,9.5ZM287.3546143,240.0181274c-4.6865234,0-8.5,3.8125-8.5,8.4990234s3.8134766,8.5,8.5,8.5,8.5-3.8134766,8.5-8.5-3.8134766-8.4990234-8.5-8.4990234Z"/>
  <path class="st0" d="M337.2960205,258.0171509c-5.2382812,0-9.5-4.2617188-9.5-9.5,0-5.2373047,4.2617188-9.4990234,9.5-9.4990234s9.5,4.2617188,9.5,9.4990234c0,5.2382812-4.2617188,9.5-9.5,9.5ZM337.2960205,240.0181274c-4.6865234,0-8.5,3.8125-8.5,8.4990234s3.8134766,8.5,8.5,8.5,8.5-3.8134766,8.5-8.5-3.8134766-8.4990234-8.5-8.4990234Z"/>
  <path class="st0" d="M362.2657471,258.0171509c-5.2382812,0-9.5-4.2617188-9.5-9.5,0-5.2373047,4.2617188-9.4990234,9.5-9.4990234s9.5,4.2617188,9.5,9.4990234c0,5.2382812-4.2617188,9.5-9.5,9.5ZM362.2657471,240.0181274c-4.6865234,0-8.5,3.8125-8.5,8.4990234s3.8134766,8.5,8.5,8.5,8.5-3.8134766,8.5-8.5-3.8134766-8.4990234-8.5-8.4990234Z"/>
  <path class="st0" d="M387.2364502,258.0171509c-5.2382812,0-9.5-4.2617188-9.5-9.5,0-5.2373047,4.2617188-9.4990234,9.5-9.4990234s9.5,4.2617188,9.5,9.4990234c0,5.2382812-4.2617188,9.5-9.5,9.5ZM387.2364502,240.0181274c-4.6865234,0-8.5,3.8125-8.5,8.4990234s3.8134766,8.5,8.5,8.5,8.5-3.8134766,8.5-8.5-3.8134766-8.4990234-8.5-8.4990234Z"/>
  <path class="st0" d="M412.2061768,258.0171509c-5.2382812,0-9.5-4.2617188-9.5-9.5,0-5.2373047,4.2617188-9.4990234,9.5-9.4990234s9.5,4.2617188,9.5,9.4990234c0,5.2382812-4.2617188,9.5-9.5,9.5ZM412.2061768,240.0181274c-4.6865234,0-8.5,3.8125-8.5,8.4990234s3.8134766,8.5,8.5,8.5,8.5-3.8134766,8.5-8.5-3.8134766-8.4990234-8.5-8.4990234Z"/>
  <path class="st0" d="M437.1768799,258.0171509c-5.2382812,0-9.5-4.2617188-9.5-9.5,0-5.2373047,4.2617188-9.4990234,9.5-9.4990234s9.5,4.2617188,9.5,9.4990234c0,5.2382812-4.2617188,9.5-9.5,9.5ZM437.1768799,240.0181274c-4.6865234,0-8.5,3.8125-8.5,8.4990234s3.8134766,8.5,8.5,8.5,8.5-3.8134766,8.5-8.5-3.8134766-8.4990234-8.5-8.4990234Z"/>
  <path class="st0" d="M287.3550415,84.5335083c-4.9705811,0-9,4.0294189-9,9s4.0294189,9,9,9,9-4.0294189,9-9-4.0294189-9-9-9ZM289.961731,96.7334595h-.7792969v-6.2866211l-1.2192383,4.1079102h-1.2094727l-1.2294922-4.027832v6.206543h-.7792969v-6.9960938h1.3291016l1.2993164,4.3173828,1.2592773-4.3173828h1.3291016v6.9960938Z"/>
  <path class="st0" d="M312.324585,84.5335083c-4.97052,0-9,4.0294189-9,9s4.02948,9,9,9c4.9705811,0,9-4.0294189,9-9s-4.0294189-9-9-9ZM315.1028442,90.4868774h-2.3383789v6.246582h-.8999023v-6.246582h-2.3383789v-.7495117h5.5766602v.7495117Z"/>
  <path class="st0" d="M337.2949219,84.5335083c-4.9705811,0-9,4.0294189-9,9s4.0294189,9,9,9c4.97052,0,9-4.0294189,9-9s-4.02948-9-9-9ZM339.5637817,96.7334595h-1.309082l-.9794922-3.8676758-.9594727,3.8676758h-1.2993164l-.7895508-6.9960938h.8398438l.6894531,6.3364258.9594727-3.8779297h1.1293945l.9794922,3.8881836.7094727-6.3466797h.8295898l-.7998047,6.9960938Z"/>
  <path class="st0" d="M362.2651978,84.5335083c-4.9705811,0-9,4.0294189-9,9s4.0294189,9,9,9,9-4.0294189,9-9-4.0294189-9-9-9ZM365.0442505,90.4868774h-2.3383789v6.246582h-.8999023v-6.246582h-2.3383789v-.7495117h5.5766602v.7495117Z"/>
  <path class="st0" d="M387.2354736,84.5335083c-4.97052,0-9,4.0294189-9,9s4.02948,9,9,9c4.9705811,0,9-4.0294189,9-9s-4.0294189-9-9-9ZM389.6853638,90.4868774h-3.6982422v2.5385742h3.4584961v.7495117h-3.4584961v2.9584961h-.8994141v-6.9960938h4.5976562v.7495117Z"/>
  <path class="st0" d="M412.2058105,84.5335083c-4.9705811,0-9,4.0294189-9,9s4.0294189,9,9,9c4.97052,0,9-4.0294189,9-9s-4.02948-9-9-9ZM412.2971802,96.8335571c-1.7890625,0-2.5986328-.7998047-2.5986328-2.4389648h.8896484c.0102539,1.1494141.4897461,1.7392578,1.7089844,1.7392578,1.0795898,0,1.5195312-.4399414,1.5195312-1.2792969,0-.7797852-.3999023-1.0795898-1.359375-1.2695312l-.5498047-.1098633c-1.3793945-.2797852-2.0688477-.6796875-2.0688477-1.96875,0-1.159668.7197266-1.8691406,2.2885742-1.8691406,1.7192383,0,2.4389648.7294922,2.4389648,2.269043h-.8798828c-.0200195-1.0595703-.449707-1.5693359-1.559082-1.5693359-1.0195312,0-1.4091797.3896484-1.4091797,1.1494141,0,.8295898.4799805.9794922,1.4692383,1.1894531l.5097656.1098633c1.2592773.2695312,2.019043.7197266,2.019043,2.0087891,0,1.309082-.7695312,2.0390625-2.4189453,2.0390625Z"/>
  <path class="st0" d="M437.1760864,84.5335083c-4.9705811,0-9,4.0294189-9,9s4.0294189,9,9,9,9-4.0294189,9-9-4.0294189-9-9-9ZM437.2678833,96.8335571c-1.7890625,0-2.5986328-.7998047-2.5986328-2.4389648h.8896484c.0102539,1.1494141.4897461,1.7392578,1.7089844,1.7392578,1.0795898,0,1.5195312-.4399414,1.5195312-1.2792969,0-.7797852-.3999023-1.0795898-1.359375-1.2695312l-.5498047-.1098633c-1.3793945-.2797852-2.0688477-.6796875-2.0688477-1.96875,0-1.159668.7197266-1.8691406,2.2885742-1.8691406,1.7192383,0,2.4389648.7294922,2.4389648,2.269043h-.8798828c-.0200195-1.0595703-.449707-1.5693359-1.559082-1.5693359-1.0195312,0-1.4091797.3896484-1.4091797,1.1494141,0,.8295898.4799805.9794922,1.4692383,1.1894531l.5097656.1098633c1.2592773.2695312,2.019043.7197266,2.019043,2.0087891,0,1.309082-.7695312,2.0390625-2.4189453,2.0390625Z"/>
  <g>
    <path class="st0" d="M283.8380127,125.5059204c1.4794922-1.3891602,2.1689453-1.8789062,2.1689453-2.7983398,0-.8398438-.3994141-1.3193359-1.4189453-1.3193359-1.0996094,0-1.5390625.5195312-1.5390625,1.4990234v.1000977h-.8896484v-.1098633c0-1.3994141.8398438-2.2290039,2.4384766-2.2290039,1.5791016,0,2.3193359.7597656,2.3193359,1.9990234,0,1.1494141-.7695312,1.7890625-2.3388672,3.2280273l-1.2294922,1.1293945h3.5976562v.7397461h-4.6367188v-.7993164l1.5283203-1.4394531Z"/>
    <path class="st0" d="M287.4991455,125.9058228c0-.9394531.5-1.559082,1.4492188-1.809082-.7890625-.2397461-1.1992188-.7797852-1.1992188-1.5893555,0-1.2192383.7597656-1.8588867,2.3388672-1.8588867,1.5888672,0,2.3583984.6396484,2.3583984,1.8588867,0,.8095703-.4199219,1.3496094-1.2089844,1.5893555.9589844.25,1.4589844.8696289,1.4589844,1.809082,0,1.2792969-.859375,1.9389648-2.6083984,1.9389648s-2.5888672-.659668-2.5888672-1.9389648ZM291.7872314,125.8355103c0-.8691406-.5996094-1.3491211-1.6992188-1.3491211-1.0898438,0-1.6787109.4799805-1.6787109,1.3491211,0,.8496094.5390625,1.3095703,1.6787109,1.3095703,1.1494141,0,1.6992188-.4599609,1.6992188-1.3095703ZM288.6192627,122.5674438c0,.7895508.5195312,1.2094727,1.46875,1.2094727.9599609,0,1.4794922-.4199219,1.4794922-1.2094727s-.4599609-1.2192383-1.4492188-1.2192383c-1.0195312,0-1.4990234.4296875-1.4990234,1.2192383Z"/>
  </g>
  <g>
    <path class="st0" d="M308.8087158,125.5059204c1.4794922-1.3891602,2.1689453-1.8789062,2.1689453-2.7983398,0-.8398438-.3994141-1.3193359-1.4189453-1.3193359-1.0996094,0-1.5390625.5195312-1.5390625,1.4990234v.1000977h-.8896484v-.1098633c0-1.3994141.8398438-2.2290039,2.4384766-2.2290039,1.5791016,0,2.3193359.7597656,2.3193359,1.9990234,0,1.1494141-.7695312,1.7890625-2.3388672,3.2280273l-1.2294922,1.1293945h3.5976562v.7397461h-4.6367188v-.7993164l1.5283203-1.4394531Z"/>
    <path class="st0" d="M314.9190674,127.8447876c-1.4697266,0-2.2890625-.6396484-2.2890625-1.9492188h.859375c.0097656.8095703.5097656,1.2094727,1.4296875,1.2094727,1.2988281,0,1.8486328-.8696289,1.8486328-2.5883789v-.2602539c-.3496094.6796875-1.0390625.9794922-1.9589844.9794922-1.5292969,0-2.3183594-.7895508-2.3183594-2.2983398,0-1.5092773.8896484-2.2890625,2.5087891-2.2890625,1.8583984,0,2.6582031,1.0595703,2.6582031,3.6181641,0,2.2685547-.7998047,3.578125-2.7382812,3.578125ZM313.3995361,122.9473267c0,1.0195312.5400391,1.5493164,1.5888672,1.5493164,1.0302734,0,1.5898438-.5200195,1.5898438-1.5195312,0-1.0390625-.5302734-1.5888672-1.5791016-1.5888672-1.0302734,0-1.5996094.5395508-1.5996094,1.559082Z"/>
  </g>
  <g>
    <path class="st0" d="M334.3995361,127.8447876c-1.7294922,0-2.4785156-.7197266-2.4785156-2.1289062h.859375c0,.9394531.5,1.4091797,1.6191406,1.4091797,1.0996094,0,1.6494141-.4199219,1.6494141-1.3491211,0-.8398438-.3701172-1.2792969-1.3691406-1.2792969h-1.0595703v-.7397461h1.0390625c.8798828,0,1.2392578-.4897461,1.2392578-1.2192383,0-.7797852-.4794922-1.1694336-1.4492188-1.1694336-1.0888672,0-1.5791016.4794922-1.5791016,1.4189453h-.8496094c0-1.4091797.8193359-2.1386719,2.4384766-2.1386719,1.4794922,0,2.3193359.6298828,2.3193359,1.8588867,0,.7695312-.4101562,1.3193359-1.0996094,1.5791016.7998047.2099609,1.2597656.7700195,1.2597656,1.7490234,0,1.359375-.8603516,2.0092773-2.5390625,2.0092773Z"/>
    <path class="st0" d="M337.4405518,124.2466431c0-2.5087891.8896484-3.5981445,2.5986328-3.5981445,1.6992188,0,2.5986328,1.0893555,2.5986328,3.5981445s-.8994141,3.5981445-2.5986328,3.5981445c-1.7089844,0-2.5986328-1.0795898-2.5986328-3.5981445ZM338.5499268,125.9854126l2.4990234-4.2573242c-.2597656-.2397461-.5996094-.3398438-1.0097656-.3398438-1.1191406,0-1.6992188.7592773-1.6992188,2.8583984,0,.7397461.0703125,1.309082.2099609,1.7387695ZM341.7286377,124.2466431c0-.7797852-.0800781-1.3691406-.2304688-1.809082l-2.5283203,4.277832c.2705078.2797852.6298828.3994141,1.0693359.3994141,1.109375,0,1.6894531-.7592773,1.6894531-2.8681641Z"/>
  </g>
  <g>
    <path class="st0" d="M359.3702393,127.8447876c-1.7294922,0-2.4785156-.7197266-2.4785156-2.1289062h.859375c0,.9394531.5,1.4091797,1.6191406,1.4091797,1.0996094,0,1.6494141-.4199219,1.6494141-1.3491211,0-.8398438-.3701172-1.2792969-1.3691406-1.2792969h-1.0595703v-.7397461h1.0390625c.8798828,0,1.2392578-.4897461,1.2392578-1.2192383,0-.7797852-.4794922-1.1694336-1.4492188-1.1694336-1.0888672,0-1.5791016.4794922-1.5791016,1.4189453h-.8496094c0-1.4091797.8193359-2.1386719,2.4384766-2.1386719,1.4794922,0,2.3193359.6298828,2.3193359,1.8588867,0,.7695312-.4101562,1.3193359-1.0996094,1.5791016.7998047.2099609,1.2597656.7700195,1.2597656,1.7490234,0,1.359375-.8603516,2.0092773-2.5390625,2.0092773Z"/>
    <path class="st0" d="M362.5518799,127.0049438h2.1386719v-5.4770508l-2.0390625.3999023v-.7392578l2.1191406-.4399414h.7792969v6.2563477h2.0390625v.7397461h-5.0371094v-.7397461Z"/>
  </g>
  <path class="st0" d="M387.2362061,115.5478516c-4.9705811,0-9,4.0294189-9,8.999939,0,4.9705811,4.0294189,9,9,9s9-4.0294189,9-9c0-4.97052-4.0294189-8.999939-9-8.999939ZM389.8096924,127.7446899h-5.0371094v-.7397461h2.1386719v-5.4770508l-2.0390625.3999023v-.7392578l2.1191406-.4399414h.7792969v6.2563477h2.0390625v.7397461Z"/>
  <path class="st0" d="M412.2064819,115.5478516c-4.9705811,0-9,4.0294189-9,8.999939,0,4.9705811,4.0294189,9,9,9s9-4.0294189,9-9c0-4.97052-4.0294189-8.999939-9-8.999939ZM414.5499268,127.7446899h-4.6367188v-.7993164l1.5283203-1.4394531c1.4794922-1.3891602,2.1689453-1.8789062,2.1689453-2.7983398,0-.8398438-.3994141-1.3193359-1.4189453-1.3193359-1.0996094,0-1.5390625.5195312-1.5390625,1.4990234v.1000977h-.8896484v-.1098633c0-1.3994141.8398438-2.2290039,2.4384766-2.2290039,1.5791016,0,2.3193359.7597656,2.3193359,1.9990234,0,1.1494141-.7695312,1.7890625-2.3388672,3.2280273l-1.2294922,1.1293945h3.5976562v.7397461Z"/>
  <path class="st0" d="M437.1768188,115.5478516c-4.9705811,0-9,4.0294189-9,8.999939,0,4.9705811,4.0294189,9,9,9s9-4.0294189,9-9c0-4.97052-4.0294189-8.999939-9-8.999939ZM437.0323486,127.8447876c-1.7294922,0-2.4785156-.7197266-2.4785156-2.1289062h.859375c0,.9394531.5,1.4091797,1.6191406,1.4091797,1.0996094,0,1.6494141-.4199219,1.6494141-1.3491211,0-.8398438-.3701172-1.2792969-1.3691406-1.2792969h-1.0595703v-.7397461h1.0390625c.8798828,0,1.2392578-.4897461,1.2392578-1.2192383,0-.7797852-.4794922-1.1694336-1.4492188-1.1694336-1.0888672,0-1.5791016.4794922-1.5791016,1.4189453h-.8496094c0-1.4091797.8193359-2.1386719,2.4384766-2.1386719,1.4794922,0,2.3193359.6298828,2.3193359,1.8588867,0,.7695312-.4101562,1.3193359-1.0996094,1.5791016.7998047.2099609,1.2597656.7700195,1.2597656,1.7490234,0,1.359375-.8603516,2.0092773-2.5390625,2.0092773Z"/>
  <path class="st0" d="M287.3549805,140.2923584c-4.9705811,0-9,4.0294189-9,8.999939,0,4.9705811,4.0294189,9,9,9s9-4.0294189,9-9c0-4.97052-4.0294189-8.999939-9-8.999939ZM290.1964111,150.9365845h-.8691406v1.5493164h-.859375v-1.5493164h-3.6884766v-.6494141l2.1083984-4.7973633h.9199219l-2.0888672,4.7075195h2.7490234v-2.5585938h.859375v2.5585938h.8691406v.7392578Z"/>
  <path class="st0" d="M312.3253174,140.2923584c-4.9705811,0-9,4.0294189-9,8.999939,0,4.9705811,4.0294189,9,9,9s9-4.0294189,9-9c0-4.97052-4.0294189-8.999939-9-8.999939ZM312.3282471,152.5859985c-1.5488281,0-2.4384766-.6796875-2.4384766-1.9692383h.8701172c0,.7998047.5498047,1.2294922,1.5888672,1.2294922,1.0996094,0,1.6591797-.5698242,1.6591797-1.6489258,0-1.109375-.5302734-1.6894531-1.5595703-1.6894531-.8291016,0-1.2685547.25-1.5585938.8198242l-.7597656-.1201172.2197266-3.7177734h4.2978516v.7397461h-3.5478516l-.1503906,2.168457c.3701172-.3994141.8701172-.609375,1.6289062-.609375,1.5195312,0,2.3388672.8393555,2.3388672,2.3984375,0,1.5791016-.9589844,2.3989258-2.5888672,2.3989258Z"/>
  <path class="st0" d="M338.9688721,150.2871704c0,1.0195312-.5703125,1.559082-1.5996094,1.559082-1.0488281,0-1.5791016-.5498047-1.5791016-1.5893555,0-.9990234.5595703-1.519043,1.5888672-1.519043,1.0498047,0,1.5898438.5297852,1.5898438,1.5493164ZM346.2955933,149.2922974c0,4.9705811-4.0294189,9-9,9s-9-4.0294189-9-9c0-4.97052,4.0294189-8.999939,9-8.999939s9,4.0294189,9,8.999939ZM339.8780518,150.296936c0-1.5087891-.7900391-2.2983398-2.3183594-2.2983398-.9199219,0-1.609375.2998047-1.9589844.9790039v-.2597656c0-1.71875.5498047-2.5883789,1.8486328-2.5883789.9199219,0,1.4189453.3999023,1.4296875,1.2094727h.859375c0-1.3095703-.8203125-1.9492188-2.2890625-1.9492188-1.9384766,0-2.7382812,1.3095703-2.7382812,3.578125,0,2.5585938.7998047,3.6181641,2.6582031,3.6181641,1.6191406,0,2.5087891-.7797852,2.5087891-2.2890625Z"/>
  <path class="st0" d="M362.2658691,140.2923584c-4.9705811,0-9,4.0294189-9,8.999939,0,4.9705811,4.0294189,9,9,9s9-4.0294189,9-9c0-4.97052-4.0294189-8.999939-9-8.999939ZM364.7091064,146.2295532l-3.0283203,6.2563477h-.9199219l3.0683594-6.2563477h-4.1074219v-.7397461h4.9873047v.7397461Z"/>
  <path class="st0" d="M385.7520752,147.3086548c0-.7895508.4794922-1.2192383,1.4990234-1.2192383.9892578,0,1.4492188.4296875,1.4492188,1.2192383s-.5195312,1.2094727-1.4794922,1.2094727c-.9492188,0-1.46875-.4199219-1.46875-1.2094727ZM396.2362061,149.2922974c0,4.9705811-4.0294189,9-9,9s-9-4.0294189-9-9c0-4.97052,4.0294189-8.999939,9-8.999939s9,4.0294189,9,8.999939ZM389.8292236,150.6470337c0-.9394531-.5-1.559082-1.4589844-1.809082.7890625-.2397461,1.2089844-.7797852,1.2089844-1.5893555,0-1.2192383-.7695312-1.8588867-2.3583984-1.8588867-1.5791016,0-2.3388672.6396484-2.3388672,1.8588867,0,.8095703.4101562,1.3496094,1.1992188,1.5893555-.9492188.25-1.4492188.8696289-1.4492188,1.809082,0,1.2792969.8398438,1.9389648,2.5888672,1.9389648s2.6083984-.659668,2.6083984-1.9389648ZM387.2208252,149.2276001c-1.0898438,0-1.6787109.4799805-1.6787109,1.3491211,0,.8496094.5390625,1.3095703,1.6787109,1.3095703,1.1494141,0,1.6992188-.4599609,1.6992188-1.3095703,0-.8691406-.5996094-1.3491211-1.6992188-1.3491211Z"/>
  <path class="st0" d="M413.7110596,147.7183228c0,.9995117-.5595703,1.5195312-1.5898438,1.5195312-1.0488281,0-1.5888672-.5297852-1.5888672-1.5493164s.5693359-1.559082,1.5996094-1.559082c1.0488281,0,1.5791016.5498047,1.5791016,1.5888672ZM421.2064819,149.2922974c0,4.9705811-4.0294189,9-9,9s-9-4.0294189-9-9c0-4.97052,4.0294189-8.999939,9-8.999939s9,4.0294189,9,8.999939ZM414.7901611,149.0078735c0-2.5585938-.7998047-3.6181641-2.6582031-3.6181641-1.6191406,0-2.5087891.7797852-2.5087891,2.2890625,0,1.5087891.7890625,2.2983398,2.3183594,2.2983398.9199219,0,1.609375-.2998047,1.9589844-.9794922v.2602539c0,1.71875-.5498047,2.5883789-1.8486328,2.5883789-.9199219,0-1.4199219-.3999023-1.4296875-1.2094727h-.859375c0,1.3095703.8193359,1.9492188,2.2890625,1.9492188,1.9384766,0,2.7382812-1.3095703,2.7382812-3.578125Z"/>
  <path class="st0" d="M440.9317627,146.4692993l-2.4990234,4.2573242c-.1396484-.4296875-.2099609-.9990234-.2099609-1.7387695,0-2.0991211.5800781-2.8583984,1.6992188-2.8583984.4101562,0,.75.1000977,1.0097656.3398438ZM438.8526611,151.456604c.2705078.2797852.6298828.3994141,1.0693359.3994141,1.109375,0,1.6894531-.7592773,1.6894531-2.8681641,0-.7797852-.0800781-1.3691406-.2304688-1.809082l-2.5283203,4.277832ZM446.1767578,149.2922974c0,4.9705811-4.0294189,9-9,9s-9-4.0294189-9-9c0-4.97052,4.0294189-8.999939,9-8.999939s9,4.0294189,9,8.999939ZM437.0010986,151.7461548h-2.0390625v-6.2563477h-.7792969l-2.1191406.4399414v.7392578l2.0390625-.3999023v5.4770508h-2.1386719v.7397461h5.0371094v-.7397461ZM442.5206299,148.987854c0-2.5087891-.8994141-3.5981445-2.5986328-3.5981445-1.7089844,0-2.5986328,1.0893555-2.5986328,3.5981445,0,2.5185547.8896484,3.5981445,2.5986328,3.5981445,1.6992188,0,2.5986328-1.0893555,2.5986328-3.5981445Z"/>
  <path class="st0" d="M287.3549805,165.0368652c-4.9705811,0-9,4.0294189-9,8.999939,0,4.9705811,4.0294189,9,9,9s9-4.0294189,9-9c0-4.97052-4.0294189-8.999939-9-8.999939ZM287.1768799,177.2271118h-5.0371094v-.7402344h2.1386719v-5.4765625l-2.0390625.3994141v-.7392578l2.1191406-.4394531h.7792969v6.2558594h2.0390625v.7402344ZM292.6768799,177.2271118h-5.0371094v-.7402344h2.1386719v-5.4765625l-2.0390625.3994141v-.7392578l2.1191406-.4394531h.7792969v6.2558594h2.0390625v.7402344Z"/>
  <path class="st0" d="M312.3253174,165.0368652c-4.9705811,0-9,4.0294189-9,8.999939,0,4.9705811,4.0294189,9,9,9s9-4.0294189,9-9c0-4.97052-4.0294189-8.999939-9-8.999939ZM312.147583,177.2271118h-5.0371094v-.7402344h2.1386719v-5.4765625l-2.0390625.3994141v-.7392578l2.1191406-.4394531h.7792969v6.2558594h2.0390625v.7402344ZM317.4171143,177.2271118h-4.6367188v-.7998047l1.5283203-1.4394531c1.4794922-1.3886719,2.1689453-1.8789062,2.1689453-2.7978516,0-.8398438-.3994141-1.3193359-1.4189453-1.3193359-1.0996094,0-1.5390625.5195312-1.5390625,1.4990234v.0996094h-.8896484v-.109375c0-1.3994141.8398438-2.2294922,2.4384766-2.2294922,1.5791016,0,2.3193359.7597656,2.3193359,1.9990234,0,1.1494141-.7695312,1.7890625-2.3388672,3.2285156l-1.2294922,1.1289062h3.5976562v.7402344Z"/>
  <path class="st0" d="M337.2955933,165.0368652c-4.9705811,0-9,4.0294189-9,8.999939,0,4.9705811,4.0294189,9,9,9s9-4.0294189,9-9c0-4.97052-4.0294189-8.999939-9-8.999939ZM337.1182861,177.2271118h-5.0371094v-.7402344h2.1386719v-5.4765625l-2.0390625.3994141v-.7392578l2.1191406-.4394531h.7792969v6.2558594h2.0390625v.7402344ZM339.8995361,177.3267212c-1.7294922,0-2.4785156-.7197266-2.4785156-2.1289062h.859375c0,.9394531.5,1.4091797,1.6191406,1.4091797,1.0996094,0,1.6494141-.4199219,1.6494141-1.3486328,0-.8398438-.3701172-1.2792969-1.3691406-1.2792969h-1.0595703v-.7402344h1.0390625c.8798828,0,1.2392578-.4892578,1.2392578-1.21875,0-.7802734-.4794922-1.1699219-1.4492188-1.1699219-1.0888672,0-1.5791016.4794922-1.5791016,1.4189453h-.8496094c0-1.4091797.8193359-2.1386719,2.4384766-2.1386719,1.4794922,0,2.3193359.6298828,2.3193359,1.859375,0,.7695312-.4101562,1.3193359-1.0996094,1.5791016.7998047.2099609,1.2597656.7695312,1.2597656,1.7490234,0,1.359375-.8603516,2.0087891-2.5390625,2.0087891Z"/>
  <path class="st0" d="M362.2658691,165.0368652c-4.9705811,0-9,4.0294189-9,8.999939,0,4.9705811,4.0294189,9,9,9s9-4.0294189,9-9c0-4.97052-4.0294189-8.999939-9-8.999939ZM362.0889893,177.2271118h-5.0371094v-.7402344h2.1386719v-5.4765625l-2.0390625.3994141v-.7392578l2.1191406-.4394531h.7792969v6.2558594h2.0390625v.7402344ZM367.8585205,175.6773071h-.8691406v1.5498047h-.859375v-1.5498047h-3.6884766v-.6494141l2.1083984-4.796875h.9199219l-2.0888672,4.7070312h2.7490234v-2.5585938h.859375v2.5585938h.8691406v.7392578Z"/>
  <path class="st0" d="M387.2362061,165.0368652c-4.9705811,0-9,4.0294189-9,8.999939,0,4.9705811,4.0294189,9,9,9s9-4.0294189,9-9c0-4.97052-4.0294189-8.999939-9-8.999939ZM387.0596924,177.2271118h-5.0371094v-.7402344h2.1386719v-5.4765625l-2.0390625.3994141v-.7392578l2.1191406-.4394531h.7792969v6.2558594h2.0390625v.7402344ZM389.9903564,177.3267212c-1.5488281,0-2.4384766-.6796875-2.4384766-1.96875h.8701172c0,.7998047.5498047,1.2294922,1.5888672,1.2294922,1.0996094,0,1.6591797-.5703125,1.6591797-1.6494141,0-1.109375-.5302734-1.6894531-1.5595703-1.6894531-.8291016,0-1.2685547.25-1.5585938.8203125l-.7597656-.1201172.2197266-3.7177734h4.2978516v.7392578h-3.5478516l-.1503906,2.1689453c.3701172-.3994141.8701172-.609375,1.6289062-.609375,1.5195312,0,2.3388672.8388672,2.3388672,2.3984375,0,1.5791016-.9589844,2.3984375-2.5888672,2.3984375Z"/>
  <path class="st0" d="M416.6309814,175.0278931c0,1.0195312-.5703125,1.5595703-1.5996094,1.5595703-1.0488281,0-1.5791016-.5498047-1.5791016-1.5898438,0-.9990234.5595703-1.5185547,1.5888672-1.5185547,1.0498047,0,1.5898438.5292969,1.5898438,1.5488281ZM421.2064819,174.0368042c0,4.9705811-4.0294189,9-9,9s-9-4.0294189-9-9c0-4.97052,4.0294189-8.999939,9-8.999939s9,4.0294189,9,8.999939ZM412.0303955,176.4868774h-2.0390625v-6.2558594h-.7792969l-2.1191406.4394531v.7392578l2.0390625-.3994141v5.4765625h-2.1386719v.7402344h5.0371094v-.7402344ZM417.5401611,175.0376587c0-1.5087891-.7900391-2.2978516-2.3183594-2.2978516-.9199219,0-1.609375.2998047-1.9589844.9785156v-.2597656c0-1.71875.5498047-2.5878906,1.8486328-2.5878906.9199219,0,1.4189453.3994141,1.4296875,1.2089844h.859375c0-1.3095703-.8203125-1.9492188-2.2890625-1.9492188-1.9384766,0-2.7382812,1.3095703-2.7382812,3.578125,0,2.5585938.7998047,3.6181641,2.6582031,3.6181641,1.6191406,0,2.5087891-.7792969,2.5087891-2.2890625Z"/>
  <path class="st0" d="M437.1767578,165.0368652c-4.9705811,0-9,4.0294189-9,8.999939,0,4.9705811,4.0294189,9,9,9s9-4.0294189,9-9c0-4.97052-4.0294189-8.999939-9-8.999939ZM437.0010986,177.2271118h-5.0371094v-.7402344h2.1386719v-5.4765625l-2.0390625.3994141v-.7392578l2.1191406-.4394531h.7792969v6.2558594h2.0390625v.7402344ZM442.3712158,170.9702759l-3.0283203,6.2568359h-.9199219l3.0683594-6.2568359h-4.1074219v-.7392578h4.9873047v.7392578Z"/>
  <path class="st0" d="M288.6192627,196.7905884c0-.7890625.4794922-1.21875,1.4990234-1.21875.9892578,0,1.4492188.4296875,1.4492188,1.21875,0,.7900391-.5195312,1.2099609-1.4794922,1.2099609-.9492188,0-1.46875-.4199219-1.46875-1.2099609ZM290.0880127,198.7095337c-1.0898438,0-1.6787109.4804688-1.6787109,1.3496094,0,.8496094.5390625,1.3095703,1.6787109,1.3095703,1.1494141,0,1.6992188-.4599609,1.6992188-1.3095703,0-.8691406-.5996094-1.3496094-1.6992188-1.3496094ZM296.3549805,198.781311c0,4.9705811-4.0294189,9-9,9s-9-4.0294189-9-9c0-4.97052,4.0294189-8.999939,9-8.999939s9,4.0294189,9,8.999939ZM287.1768799,201.2280884h-2.0390625v-6.2558594h-.7792969l-2.1191406.4394531v.7392578l2.0390625-.3994141v5.4765625h-2.1386719v.7402344h5.0371094v-.7402344ZM292.6964111,200.1294556c0-.9394531-.5-1.5595703-1.4589844-1.8095703.7890625-.2392578,1.2089844-.7792969,1.2089844-1.5888672,0-1.2197266-.7695312-1.859375-2.3583984-1.859375-1.5791016,0-2.3388672.6396484-2.3388672,1.859375,0,.8095703.4101562,1.3496094,1.1992188,1.5888672-.9492188.25-1.4492188.8701172-1.4492188,1.8095703,0,1.2792969.8398438,1.9384766,2.5888672,1.9384766s2.6083984-.6591797,2.6083984-1.9384766Z"/>
  <path class="st0" d="M316.5782471,197.2007446c0,.9990234-.5595703,1.5195312-1.5898438,1.5195312-1.0488281,0-1.5888672-.5302734-1.5888672-1.5498047s.5693359-1.5585938,1.5996094-1.5585938c1.0488281,0,1.5791016.5498047,1.5791016,1.5888672ZM321.3253174,198.781311c0,4.9705811-4.0294189,9-9,9s-9-4.0294189-9-9c0-4.97052,4.0294189-8.999939,9-8.999939s9,4.0294189,9,8.999939ZM312.147583,201.2280884h-2.0390625v-6.2558594h-.7792969l-2.1191406.4394531v.7392578l2.0390625-.3994141v5.4765625h-2.1386719v.7402344h5.0371094v-.7402344ZM317.6573486,198.4898071c0-2.5585938-.7998047-3.6181641-2.6582031-3.6181641-1.6191406,0-2.5087891.7802734-2.5087891,2.2890625s.7890625,2.2988281,2.3183594,2.2988281c.9199219,0,1.609375-.2998047,1.9589844-.9794922v.2597656c0,1.71875-.5498047,2.5888672-1.8486328,2.5888672-.9199219,0-1.4199219-.4003906-1.4296875-1.2099609h-.859375c0,1.3095703.8193359,1.9492188,2.2890625,1.9492188,1.9384766,0,2.7382812-1.3095703,2.7382812-3.578125Z"/>
  <path class="st0" d="M341.4981689,196.6607056c.1503906.4404297.2304688,1.0292969.2304688,1.8095703,0,2.1083984-.5800781,2.8681641-1.6894531,2.8681641-.4394531,0-.7988281-.1201172-1.0693359-.3994141l2.5283203-4.2783203ZM340.0391846,195.6118774c-1.1191406,0-1.6992188.7587891-1.6992188,2.8583984,0,.7392578.0703125,1.3085938.2099609,1.7382812l2.4990234-4.2568359c-.2597656-.2402344-.5996094-.3398438-1.0097656-.3398438ZM346.2955933,198.781311c0,4.9705811-4.0294189,9-9,9s-9-4.0294189-9-9c0-4.97052,4.0294189-8.999939,9-8.999939s9,4.0294189,9,8.999939ZM336.8878174,201.2280884h-3.5976562l1.2294922-1.1289062c1.5693359-1.4394531,2.3388672-2.0791016,2.3388672-3.2285156,0-1.2392578-.7402344-1.9990234-2.3193359-1.9990234-1.5986328,0-2.4384766.8300781-2.4384766,2.2294922v.109375h.8896484v-.0996094c0-.9794922.4394531-1.4990234,1.5390625-1.4990234,1.0195312,0,1.4189453.4794922,1.4189453,1.3193359,0,.9189453-.6894531,1.4091797-2.1689453,2.7978516l-1.5283203,1.4394531v.7998047h4.6367188v-.7402344ZM342.6378174,198.4702759c0-2.5087891-.8994141-3.5986328-2.5986328-3.5986328-1.7089844,0-2.5986328,1.0898438-2.5986328,3.5986328,0,2.5185547.8896484,3.5976562,2.5986328,3.5976562,1.6992188,0,2.5986328-1.0888672,2.5986328-3.5976562Z"/>
  <path class="st0" d="M362.2658691,189.7813721c-4.9705811,0-9,4.0294189-9,8.999939,0,4.9705811,4.0294189,9,9,9s9-4.0294189,9-9c0-4.97052-4.0294189-8.999939-9-8.999939ZM361.8585205,201.9683228h-4.6367188v-.7998047l1.5283203-1.4394531c1.4794922-1.3886719,2.1689453-1.8789062,2.1689453-2.7978516,0-.8398438-.3994141-1.3193359-1.4189453-1.3193359-1.0996094,0-1.5390625.5195312-1.5390625,1.4990234v.0996094h-.8896484v-.109375c0-1.3994141.8398438-2.2294922,2.4384766-2.2294922,1.5791016,0,2.3193359.7597656,2.3193359,1.9990234,0,1.1494141-.7695312,1.7890625-2.3388672,3.2285156l-1.2294922,1.1289062h3.5976562v.7402344ZM367.5889893,201.9683228h-5.0371094v-.7402344h2.1386719v-5.4765625l-2.0390625.3994141v-.7392578l2.1191406-.4394531h.7792969v6.2558594h2.0390625v.7402344Z"/>
  <path class="st0" d="M387.2362061,189.7813721c-4.9705811,0-9,4.0294189-9,8.999939,0,4.9705811,4.0294189,9,9,9s9-4.0294189,9-9c0-4.97052-4.0294189-8.999939-9-8.999939ZM386.8292236,201.9683228h-4.6367188v-.7998047l1.5283203-1.4394531c1.4794922-1.3886719,2.1689453-1.8789062,2.1689453-2.7978516,0-.8398438-.3994141-1.3193359-1.4189453-1.3193359-1.0996094,0-1.5390625.5195312-1.5390625,1.4990234v.0996094h-.8896484v-.109375c0-1.3994141.8398438-2.2294922,2.4384766-2.2294922,1.5791016,0,2.3193359.7597656,2.3193359,1.9990234,0,1.1494141-.7695312,1.7890625-2.3388672,3.2285156l-1.2294922,1.1289062h3.5976562v.7402344ZM392.3292236,201.9683228h-4.6367188v-.7998047l1.5283203-1.4394531c1.4794922-1.3886719,2.1689453-1.8789062,2.1689453-2.7978516,0-.8398438-.3994141-1.3193359-1.4189453-1.3193359-1.0996094,0-1.5390625.5195312-1.5390625,1.4990234v.0996094h-.8896484v-.109375c0-1.3994141.8398438-2.2294922,2.4384766-2.2294922,1.5791016,0,2.3193359.7597656,2.3193359,1.9990234,0,1.1494141-.7695312,1.7890625-2.3388672,3.2285156l-1.2294922,1.1289062h3.5976562v.7402344Z"/>
  <path class="st0" d="M412.2064819,189.7813721c-4.9705811,0-9,4.0294189-9,8.999939,0,4.9705811,4.0294189,9,9,9s9-4.0294189,9-9c0-4.97052-4.0294189-8.999939-9-8.999939ZM411.7999268,201.9683228h-4.6367188v-.7998047l1.5283203-1.4394531c1.4794922-1.3886719,2.1689453-1.8789062,2.1689453-2.7978516,0-.8398438-.3994141-1.3193359-1.4189453-1.3193359-1.0996094,0-1.5390625.5195312-1.5390625,1.4990234v.0996094h-.8896484v-.109375c0-1.3994141.8398438-2.2294922,2.4384766-2.2294922,1.5791016,0,2.3193359.7597656,2.3193359,1.9990234,0,1.1494141-.7695312,1.7890625-2.3388672,3.2285156l-1.2294922,1.1289062h3.5976562v.7402344ZM414.8116455,202.0679321c-1.7294922,0-2.4785156-.7197266-2.4785156-2.1289062h.859375c0,.9394531.5,1.4091797,1.6191406,1.4091797,1.0996094,0,1.6494141-.4199219,1.6494141-1.3486328,0-.8398438-.3701172-1.2792969-1.3691406-1.2792969h-1.0595703v-.7402344h1.0390625c.8798828,0,1.2392578-.4892578,1.2392578-1.21875,0-.7802734-.4794922-1.1699219-1.4492188-1.1699219-1.0888672,0-1.5791016.4794922-1.5791016,1.4189453h-.8496094c0-1.4091797.8193359-2.1386719,2.4384766-2.1386719,1.4794922,0,2.3193359.6298828,2.3193359,1.859375,0,.7695312-.4101562,1.3193359-1.0996094,1.5791016.7998047.2099609,1.2597656.7695312,1.2597656,1.7490234,0,1.359375-.8603516,2.0087891-2.5390625,2.0087891Z"/>
  <path class="st0" d="M437.1767578,189.7813721c-4.9705811,0-9,4.0294189-9,8.999939,0,4.9705811,4.0294189,9,9,9s9-4.0294189,9-9c0-4.97052-4.0294189-8.999939-9-8.999939ZM436.7706299,201.9683228h-4.6367188v-.7998047l1.5283203-1.4394531c1.4794922-1.3886719,2.1689453-1.8789062,2.1689453-2.7978516,0-.8398438-.3994141-1.3193359-1.4189453-1.3193359-1.0996094,0-1.5390625.5195312-1.5390625,1.4990234v.0996094h-.8896484v-.109375c0-1.3994141.8398438-2.2294922,2.4384766-2.2294922,1.5791016,0,2.3193359.7597656,2.3193359,1.9990234,0,1.1494141-.7695312,1.7890625-2.3388672,3.2285156l-1.2294922,1.1289062h3.5976562v.7402344ZM442.7706299,200.4185181h-.8691406v1.5498047h-.859375v-1.5498047h-3.6884766v-.6494141l2.1083984-4.796875h.9199219l-2.0888672,4.7070312h2.7490234v-2.5585938h.859375v2.5585938h.8691406v.7392578Z"/>
  <path class="st0" d="M287.3549805,214.5258789c-4.9705811,0-9,4.0294189-9,8.999939,0,4.9705811,4.0294189,9,9,9s9-4.0294189,9-9c0-4.97052-4.0294189-8.999939-9-8.999939ZM286.9464111,226.7095337h-4.6367188v-.7998047l1.5283203-1.4394531c1.4794922-1.3886719,2.1689453-1.8789062,2.1689453-2.7978516,0-.8398438-.3994141-1.3193359-1.4189453-1.3193359-1.0996094,0-1.5390625.5195312-1.5390625,1.4990234v.0996094h-.8896484v-.109375c0-1.3994141.8398438-2.2294922,2.4384766-2.2294922,1.5791016,0,2.3193359.7597656,2.3193359,1.9990234,0,1.1494141-.7695312,1.7890625-2.3388672,3.2285156l-1.2294922,1.1289062h3.5976562v.7402344ZM290.1075439,226.8091431c-1.5488281,0-2.4384766-.6796875-2.4384766-1.96875h.8701172c0,.7998047.5498047,1.2294922,1.5888672,1.2294922,1.0996094,0,1.6591797-.5703125,1.6591797-1.6494141,0-1.109375-.5302734-1.6894531-1.5595703-1.6894531-.8291016,0-1.2685547.25-1.5585938.8203125l-.7597656-.1201172.2197266-3.7177734h4.2978516v.7392578h-3.5478516l-.1503906,2.1689453c.3701172-.3994141.8701172-.609375,1.6289062-.609375,1.5195312,0,2.3388672.8388672,2.3388672,2.3984375,0,1.5791016-.9589844,2.3984375-2.5888672,2.3984375Z"/>
  <path class="st0" d="M316.7481689,224.5103149c0,1.0195312-.5703125,1.5595703-1.5996094,1.5595703-1.0488281,0-1.5791016-.5498047-1.5791016-1.5898438,0-.9990234.5595703-1.5185547,1.5888672-1.5185547,1.0498047,0,1.5898438.5292969,1.5898438,1.5488281ZM321.3253174,223.5258179c0,4.9705811-4.0294189,9-9,9s-9-4.0294189-9-9c0-4.97052,4.0294189-8.999939,9-8.999939s9,4.0294189,9,8.999939ZM311.9171143,225.9692993h-3.5976562l1.2294922-1.1289062c1.5693359-1.4394531,2.3388672-2.0791016,2.3388672-3.2285156,0-1.2392578-.7402344-1.9990234-2.3193359-1.9990234-1.5986328,0-2.4384766.8300781-2.4384766,2.2294922v.109375h.8896484v-.0996094c0-.9794922.4394531-1.4990234,1.5390625-1.4990234,1.0195312,0,1.4189453.4794922,1.4189453,1.3193359,0,.9189453-.6894531,1.4091797-2.1689453,2.7978516l-1.5283203,1.4394531v.7998047h4.6367188v-.7402344ZM317.6573486,224.5200806c0-1.5087891-.7900391-2.2978516-2.3183594-2.2978516-.9199219,0-1.609375.2998047-1.9589844.9785156v-.2597656c0-1.71875.5498047-2.5878906,1.8486328-2.5878906.9199219,0,1.4189453.3994141,1.4296875,1.2089844h.859375c0-1.3095703-.8203125-1.9492188-2.2890625-1.9492188-1.9384766,0-2.7382812,1.3095703-2.7382812,3.578125,0,2.5585938.7998047,3.6181641,2.6582031,3.6181641,1.6191406,0,2.5087891-.7792969,2.5087891-2.2890625Z"/>
  <path class="st0" d="M337.2955933,214.5258789c-4.9705811,0-9,4.0294189-9,8.999939,0,4.9705811,4.0294189,9,9,9s9-4.0294189,9-9c0-4.97052-4.0294189-8.999939-9-8.999939ZM336.8878174,226.7095337h-4.6367188v-.7998047l1.5283203-1.4394531c1.4794922-1.3886719,2.1689453-1.8789062,2.1689453-2.7978516,0-.8398438-.3994141-1.3193359-1.4189453-1.3193359-1.0996094,0-1.5390625.5195312-1.5390625,1.4990234v.0996094h-.8896484v-.109375c0-1.3994141.8398438-2.2294922,2.4384766-2.2294922,1.5791016,0,2.3193359.7597656,2.3193359,1.9990234,0,1.1494141-.7695312,1.7890625-2.3388672,3.2285156l-1.2294922,1.1289062h3.5976562v.7402344ZM342.4884033,220.4526978l-3.0283203,6.2568359h-.9199219l3.0683594-6.2568359h-4.1074219v-.7392578h4.9873047v.7392578Z"/>
  <path class="st0" d="M366.6993408,224.800354c0,.8496094-.5498047,1.3095703-1.6992188,1.3095703-1.1396484,0-1.6787109-.4599609-1.6787109-1.3095703,0-.8691406.5888672-1.3496094,1.6787109-1.3496094,1.0996094,0,1.6992188.4804688,1.6992188,1.3496094ZM365.0001221,222.7417603c.9599609,0,1.4794922-.4199219,1.4794922-1.2099609,0-.7890625-.4599609-1.21875-1.4492188-1.21875-1.0195312,0-1.4990234.4296875-1.4990234,1.21875,0,.7900391.5195312,1.2099609,1.46875,1.2099609ZM371.2658691,223.5258179c0,4.9705811-4.0294189,9-9,9s-9-4.0294189-9-9c0-4.97052,4.0294189-8.999939,9-8.999939s9,4.0294189,9,8.999939ZM361.8585205,225.9692993h-3.5976562l1.2294922-1.1289062c1.5693359-1.4394531,2.3388672-2.0791016,2.3388672-3.2285156,0-1.2392578-.7402344-1.9990234-2.3193359-1.9990234-1.5986328,0-2.4384766.8300781-2.4384766,2.2294922v.109375h.8896484v-.0996094c0-.9794922.4394531-1.4990234,1.5390625-1.4990234,1.0195312,0,1.4189453.4794922,1.4189453,1.3193359,0,.9189453-.6894531,1.4091797-2.1689453,2.7978516l-1.5283203,1.4394531v.7998047h4.6367188v-.7402344ZM367.6085205,224.8706665c0-.9394531-.5-1.5595703-1.4589844-1.8095703.7890625-.2392578,1.2089844-.7792969,1.2089844-1.5888672,0-1.2197266-.7695312-1.859375-2.3583984-1.859375-1.5791016,0-2.3388672.6396484-2.3388672,1.859375,0,.8095703.4101562,1.3496094,1.1992188,1.5888672-.9492188.25-1.4492188.8701172-1.4492188,1.8095703,0,1.2792969.8398438,1.9384766,2.5888672,1.9384766s2.6083984-.6591797,2.6083984-1.9384766Z"/>
  <path class="st0" d="M387.2362061,214.5258789c-4.9705811,0-9,4.0294189-9,8.999939,0,4.9705811,4.0294189,9,9,9s9-4.0294189,9-9c0-4.97052-4.0294189-8.999939-9-8.999939ZM386.8292236,226.7095337h-4.6367188v-.7998047l1.5283203-1.4394531c1.4794922-1.3886719,2.1689453-1.8789062,2.1689453-2.7978516,0-.8398438-.3994141-1.3193359-1.4189453-1.3193359-1.0996094,0-1.5390625.5195312-1.5390625,1.4990234v.0996094h-.8896484v-.109375c0-1.3994141.8398438-2.2294922,2.4384766-2.2294922,1.5791016,0,2.3193359.7597656,2.3193359,1.9990234,0,1.1494141-.7695312,1.7890625-2.3388672,3.2285156l-1.2294922,1.1289062h3.5976562v.7402344ZM389.8311768,226.8091431c-1.4697266,0-2.2890625-.6396484-2.2890625-1.9492188h.859375c.0097656.8095703.5097656,1.2099609,1.4296875,1.2099609,1.2988281,0,1.8486328-.8701172,1.8486328-2.5888672v-.2597656c-.3496094.6796875-1.0390625.9794922-1.9589844.9794922-1.5292969,0-2.3183594-.7900391-2.3183594-2.2988281s.8896484-2.2890625,2.5087891-2.2890625c1.8583984,0,2.6582031,1.0595703,2.6582031,3.6181641,0,2.2685547-.7998047,3.578125-2.7382812,3.578125ZM391.4903564,221.9419556c0,.9990234-.5595703,1.5195312-1.5898438,1.5195312-1.0488281,0-1.5888672-.5302734-1.5888672-1.5498047s.5693359-1.5585938,1.5996094-1.5585938c1.0488281,0,1.5791016.5498047,1.5791016,1.5888672Z"/>
  <path class="st0" d="M415.9610596,220.6929321l-2.4990234,4.2568359c-.1396484-.4296875-.2099609-.9990234-.2099609-1.7382812,0-2.0996094.5800781-2.8583984,1.6992188-2.8583984.4101562,0,.75.0996094,1.0097656.3398438ZM413.881958,225.6802368c.2705078.2792969.6298828.3994141,1.0693359.3994141,1.109375,0,1.6894531-.7597656,1.6894531-2.8681641,0-.7802734-.0800781-1.3691406-.2304688-1.8095703l-2.5283203,4.2783203ZM421.2064819,223.5258179c0,4.9705811-4.0294189,9-9,9s-9-4.0294189-9-9c0-4.97052,4.0294189-8.999939,9-8.999939s9,4.0294189,9,8.999939ZM411.850708,224.800354c0-.9794922-.4599609-1.5390625-1.2597656-1.7490234.6894531-.2597656,1.0996094-.8095703,1.0996094-1.5791016,0-1.2294922-.8398438-1.859375-2.3193359-1.859375-1.6191406,0-2.4384766.7294922-2.4384766,2.1386719h.8496094c0-.9394531.4902344-1.4189453,1.5791016-1.4189453.9697266,0,1.4492188.3896484,1.4492188,1.1699219,0,.7294922-.359375,1.21875-1.2392578,1.21875h-1.0390625v.7402344h1.0595703c.9990234,0,1.3691406.4394531,1.3691406,1.2792969,0,.9287109-.5498047,1.3486328-1.6494141,1.3486328-1.1191406,0-1.6191406-.4697266-1.6191406-1.4091797h-.859375c0,1.4091797.7490234,2.1289062,2.4785156,2.1289062,1.6787109,0,2.5390625-.6494141,2.5390625-2.0087891ZM417.5499268,223.2114868c0-2.5087891-.8994141-3.5986328-2.5986328-3.5986328-1.7089844,0-2.5986328,1.0898438-2.5986328,3.5986328,0,2.5185547.8896484,3.5976562,2.5986328,3.5976562,1.6992188,0,2.5986328-1.0888672,2.5986328-3.5976562Z"/>
  <path class="st0" d="M437.1767578,214.5258789c-4.9705811,0-9,4.0294189-9,8.999939,0,4.9705811,4.0294189,9,9,9s9-4.0294189,9-9c0-4.97052-4.0294189-8.999939-9-8.999939ZM434.2823486,226.8091431c-1.7294922,0-2.4785156-.7197266-2.4785156-2.1289062h.859375c0,.9394531.5,1.4091797,1.6191406,1.4091797,1.0996094,0,1.6494141-.4199219,1.6494141-1.3486328,0-.8398438-.3701172-1.2792969-1.3691406-1.2792969h-1.0595703v-.7402344h1.0390625c.8798828,0,1.2392578-.4892578,1.2392578-1.21875,0-.7802734-.4794922-1.1699219-1.4492188-1.1699219-1.0888672,0-1.5791016.4794922-1.5791016,1.4189453h-.8496094c0-1.4091797.8193359-2.1386719,2.4384766-2.1386719,1.4794922,0,2.3193359.6298828,2.3193359,1.859375,0,.7695312-.4101562,1.3193359-1.0996094,1.5791016.7998047.2099609,1.2597656.7695312,1.2597656,1.7490234,0,1.359375-.8603516,2.0087891-2.5390625,2.0087891ZM442.5010986,226.7095337h-5.0371094v-.7402344h2.1386719v-5.4765625l-2.0390625.3994141v-.7392578l2.1191406-.4394531h.7792969v6.2558594h2.0390625v.7402344Z"/>
  <path class="st0" d="M284.8897705,251.0634507h2.1386719v-5.4765625l-2.0390625.3994141v-.7392578l2.1191406-.4394531h.7792969v6.2558594h2.0390625v.7402344h-5.0371094v-.7402344Z"/>
  <path class="st0" d="M311.5587158,249.5644273c1.4794922-1.3886719,2.1689453-1.8789062,2.1689453-2.7978516,0-.8398438-.3994141-1.3193359-1.4189453-1.3193359-1.0996094,0-1.5390625.5195312-1.5390625,1.4990234v.0996094h-.8896484v-.109375c0-1.3994141.8398438-2.2294922,2.4384766-2.2294922,1.5791016,0,2.3193359.7597656,2.3193359,1.9990234,0,1.1494141-.7695312,1.7890625-2.3388672,3.2285156l-1.2294922,1.1289062h3.5976562v.7402344h-4.6367188v-.7998047l1.5283203-1.4394531Z"/>
  <path class="st0" d="M337.1495361,251.9032945c-1.7294922,0-2.4785156-.7197266-2.4785156-2.1289062h.859375c0,.9394531.5,1.4091797,1.6191406,1.4091797,1.0996094,0,1.6494141-.4199219,1.6494141-1.3486328,0-.8398438-.3701172-1.2792969-1.3691406-1.2792969h-1.0595703v-.7402344h1.0390625c.8798828,0,1.2392578-.4892578,1.2392578-1.21875,0-.7802734-.4794922-1.1699219-1.4492188-1.1699219-1.0888672,0-1.5791016.4794922-1.5791016,1.4189453h-.8496094c0-1.4091797.8193359-2.1386719,2.4384766-2.1386719,1.4794922,0,2.3193359.6298828,2.3193359,1.859375,0,.7695312-.4101562,1.3193359-1.0996094,1.5791016.7998047.2099609,1.2597656.7695312,1.2597656,1.7490234,0,1.359375-.8603516,2.0087891-2.5390625,2.0087891Z"/>
  <path class="st0" d="M363.3800049,251.8036851v-1.5498047h-3.6884766v-.6494141l2.1083984-4.796875h.9199219l-2.0888672,4.7070312h2.7490234v-2.5585938h.859375v2.5585938h.8691406v.7392578h-.8691406v1.5498047h-.859375Z"/>
  <path class="st0" d="M384.8018799,249.9345445h.8701172c0,.7998047.5498047,1.2294922,1.5888672,1.2294922,1.0996094,0,1.6591797-.5703125,1.6591797-1.6494141,0-1.109375-.5302734-1.6894531-1.5595703-1.6894531-.8291016,0-1.2685547.25-1.5585938.8203125l-.7597656-.1201172.2197266-3.7177734h4.2978516v.7392578h-3.5478516l-.1503906,2.1689453c.3701172-.3994141.8701172-.609375,1.6289062-.609375,1.5195312,0,2.3388672.8388672,2.3388672,2.3984375,0,1.5791016-.9589844,2.3984375-2.5888672,2.3984375-1.5488281,0-2.4384766-.6796875-2.4384766-1.96875Z"/>
  <path class="st0" d="M412.2813721,251.9032945c-1.8583984,0-2.6582031-1.0595703-2.6582031-3.6181641,0-2.2685547.7998047-3.578125,2.7382812-3.578125,1.46875,0,2.2890625.6396484,2.2890625,1.9492188h-.859375c-.0107422-.8095703-.5097656-1.2089844-1.4296875-1.2089844-1.2988281,0-1.8486328.8691406-1.8486328,2.5878906v.2597656c.3496094-.6787109,1.0390625-.9785156,1.9589844-.9785156,1.5283203,0,2.3183594.7890625,2.3183594,2.2978516,0,1.5097656-.8896484,2.2890625-2.5087891,2.2890625ZM413.8809814,249.6044663c0-1.0195312-.5400391-1.5488281-1.5898438-1.5488281-1.0292969,0-1.5888672.5195312-1.5888672,1.5185547,0,1.0400391.5302734,1.5898438,1.5791016,1.5898438,1.0292969,0,1.5996094-.5400391,1.5996094-1.5595703Z"/>
  <path class="st0" d="M436.5928955,251.8036851h-.9199219l3.0683594-6.2568359h-4.1074219v-.7392578h4.9873047v.7392578l-3.0283203,6.2568359Z"/>
  <path class="st0" d="M294.0743408,55.2744751h1.3496094v7.409668c0,2.1450195-1.2900391,3.2397461-3.7197266,3.2397461s-3.7197266-1.0947266-3.7197266-3.2397461v-7.409668h1.3496094v7.409668c0,1.3798828.8398438,2.1298828,2.3701172,2.1298828,1.5449219,0,2.3701172-.75,2.3701172-2.1298828v-7.409668ZM282.5997314,55.2744751l3.359375,10.4995117h-1.3496094l-.9150391-2.909668h-4.109375l-.9150391,2.909668h-1.3203125l3.3603516-10.4995117h1.8896484ZM283.3341064,61.7539673l-1.6943359-5.3994141-1.7099609,5.3994141h3.4042969ZM314.1739502,62.6841431c0,1.3798828-.8242188,2.1298828-2.3691406,2.1298828-1.5302734,0-2.3701172-.75-2.3701172-2.1298828v-7.409668h-1.3496094v7.409668c0,2.1450195,1.2890625,3.2397461,3.7197266,3.2397461,2.4296875,0,3.7197266-1.0947266,3.7197266-3.2397461v-7.409668h-1.3505859v7.409668ZM301.5899658,61.5889282h3.0146484v.300293c0,2.1298828-.9150391,2.9248047-2.6699219,2.9248047-1.9794922,0-2.9697266-1.2900391-2.9697266-4.2749023,0-3,1.0048828-4.3046875,2.9550781-4.3046875,1.6347656,0,2.3994141.75,2.5947266,2.7299805h1.3349609c-.2255859-2.6699219-1.5449219-3.8398438-3.9296875-3.8398438-2.8349609,0-4.3505859,1.7397461-4.3505859,5.4145508s1.5302734,5.3847656,4.3652344,5.3847656c2.6845703,0,3.9902344-1.4248047,3.9902344-4.2294922v-1.2299805h-4.3349609v1.1245117ZM327.7052002,55.2744751v1.125h3.5097656v9.3745117h1.3496094v-9.3745117h3.5097656v-1.125h-8.3691406ZM322.5889893,59.8491821l-.7646484-.1650391c-1.4853516-.3149414-2.2050781-.5400391-2.2050781-1.784668,0-1.1401367.5849609-1.7250977,2.1152344-1.7250977,1.6650391,0,2.3095703.7651367,2.3398438,2.3549805h1.3193359c0-2.3100586-1.0791016-3.4047852-3.6591797-3.4047852-2.3554688,0-3.4355469,1.0649414-3.4355469,2.8046875,0,1.9350586,1.0351562,2.5351562,3.1054688,2.9550781l.8251953.1650391c1.4394531.284668,2.0400391.7348633,2.0400391,1.9047852,0,1.2597656-.6601562,1.9199219-2.2802734,1.9199219-1.8300781,0-2.5498047-.8852539-2.5654297-2.6098633h-1.3349609c0,2.4599609,1.2158203,3.659668,3.9003906,3.659668,2.4746094,0,3.6298828-1.0947266,3.6298828-3.0595703,0-1.9350586-1.1396484-2.6103516-3.0302734-3.0151367Z"/>
</svg>