<?xml version="1.0" encoding="UTF-8"?>
<svg id="Layer_2" xmlns="http://www.w3.org/2000/svg" version="1.1" viewBox="0 0 720 320">
  <!-- Generator: Adobe Illustrator 29.3.1, SVG Export Plug-In . SVG Version: 2.1.0 Build 151)  -->
  <defs>
    <style>
      .st0 {
        fill: #191919;
      }
    </style>
  </defs>
  <path class="st0" d="M287.3549194,134.0479126c-5.2382812,0-9.5-4.2617188-9.5-9.5s4.2617188-9.5,9.5-9.5,9.5,4.2617188,9.5,9.5-4.2617188,9.5-9.5,9.5ZM287.3549194,116.0479126c-4.6870117,0-8.5,3.8129883-8.5,8.5s3.8129883,8.5,8.5,8.5,8.5-3.8129883,8.5-8.5-3.8129883-8.5-8.5-8.5Z"/>
  <path class="st0" d="M312.3270874,134.0479126c-5.2382812,0-9.5-4.2617188-9.5-9.5s4.2617188-9.5,9.5-9.5,9.5,4.2617188,9.5,9.5-4.2617188,9.5-9.5,9.5ZM312.3270874,116.0479126c-4.6870117,0-8.5,3.8129883-8.5,8.5s3.8129883,8.5,8.5,8.5,8.5-3.8129883,8.5-8.5-3.8129883-8.5-8.5-8.5Z"/>
  <path class="st0" d="M337.2992554,134.0479126c-5.2382812,0-9.5-4.2617188-9.5-9.5s4.2617188-9.5,9.5-9.5,9.5,4.2617188,9.5,9.5-4.2617188,9.5-9.5,9.5ZM337.2992554,116.0479126c-4.6870117,0-8.5,3.8129883-8.5,8.5s3.8129883,8.5,8.5,8.5,8.5-3.8129883,8.5-8.5-3.8129883-8.5-8.5-8.5Z"/>
  <path class="st0" d="M362.2714233,134.0479126c-5.2382812,0-9.5-4.2617188-9.5-9.5s4.2617188-9.5,9.5-9.5,9.5,4.2617188,9.5,9.5-4.2617188,9.5-9.5,9.5ZM362.2714233,116.0479126c-4.6870117,0-8.5,3.8129883-8.5,8.5s3.8129883,8.5,8.5,8.5,8.5-3.8129883,8.5-8.5-3.8129883-8.5-8.5-8.5Z"/>
  <path class="st0" d="M387.2435913,134.0479126c-5.2382812,0-9.5-4.2617188-9.5-9.5s4.2617188-9.5,9.5-9.5,9.5,4.2617188,9.5,9.5-4.2617188,9.5-9.5,9.5ZM387.2435913,116.0479126c-4.6870117,0-8.5,3.8129883-8.5,8.5s3.8129883,8.5,8.5,8.5,8.5-3.8129883,8.5-8.5-3.8129883-8.5-8.5-8.5Z"/>
  <path class="st0" d="M412.2157593,134.0479126c-5.2382812,0-9.5-4.2617188-9.5-9.5s4.2617188-9.5,9.5-9.5,9.5,4.2617188,9.5,9.5-4.2617188,9.5-9.5,9.5ZM412.2157593,116.0479126c-4.6870117,0-8.5,3.8129883-8.5,8.5s3.8129883,8.5,8.5,8.5,8.5-3.8129883,8.5-8.5-3.8129883-8.5-8.5-8.5Z"/>
  <path class="st0" d="M312.3270874,258.0171509c-5.2382812,0-9.5-4.2617188-9.5-9.5,0-5.2373047,4.2617188-9.4990234,9.5-9.4990234s9.5,4.2617188,9.5,9.4990234c0,5.2382812-4.2617188,9.5-9.5,9.5ZM312.3270874,240.0181274c-4.6870117,0-8.5,3.8125-8.5,8.4990234s3.8129883,8.5,8.5,8.5,8.5-3.8134766,8.5-8.5-3.8129883-8.4990234-8.5-8.4990234Z"/>
  <path class="st0" d="M337.2992554,258.0171509c-5.2382812,0-9.5-4.2617188-9.5-9.5,0-5.2373047,4.2617188-9.4990234,9.5-9.4990234s9.5,4.2617188,9.5,9.4990234c0,5.2382812-4.2617188,9.5-9.5,9.5ZM337.2992554,240.0181274c-4.6870117,0-8.5,3.8125-8.5,8.4990234s3.8129883,8.5,8.5,8.5,8.5-3.8134766,8.5-8.5-3.8129883-8.4990234-8.5-8.4990234Z"/>
  <path class="st0" d="M362.2714233,258.0171509c-5.2382812,0-9.5-4.2617188-9.5-9.5,0-5.2373047,4.2617188-9.4990234,9.5-9.4990234s9.5,4.2617188,9.5,9.4990234c0,5.2382812-4.2617188,9.5-9.5,9.5ZM362.2714233,240.0181274c-4.6870117,0-8.5,3.8125-8.5,8.4990234s3.8129883,8.5,8.5,8.5,8.5-3.8134766,8.5-8.5-3.8129883-8.4990234-8.5-8.4990234Z"/>
  <path class="st0" d="M387.2435913,258.0171509c-5.2382812,0-9.5-4.2617188-9.5-9.5,0-5.2373047,4.2617188-9.4990234,9.5-9.4990234s9.5,4.2617188,9.5,9.4990234c0,5.2382812-4.2617188,9.5-9.5,9.5ZM387.2435913,240.0181274c-4.6870117,0-8.5,3.8125-8.5,8.4990234s3.8129883,8.5,8.5,8.5,8.5-3.8134766,8.5-8.5-3.8129883-8.4990234-8.5-8.4990234Z"/>
  <path class="st0" d="M412.2157593,258.0171509c-5.2382812,0-9.5-4.2617188-9.5-9.5,0-5.2373047,4.2617188-9.4990234,9.5-9.4990234s9.5,4.2617188,9.5,9.4990234c0,5.2382812-4.2617188,9.5-9.5,9.5ZM412.2157593,240.0181274c-4.6870117,0-8.5,3.8125-8.5,8.4990234s3.8129883,8.5,8.5,8.5,8.5-3.8134766,8.5-8.5-3.8129883-8.4990234-8.5-8.4990234Z"/>
  <path class="st0" d="M437.1879272,258.0171509c-5.2382812,0-9.5-4.2617188-9.5-9.5,0-5.2373047,4.2617188-9.4990234,9.5-9.4990234s9.5,4.2617188,9.5,9.4990234c0,5.2382812-4.2617188,9.5-9.5,9.5ZM437.1879272,240.0181274c-4.6870117,0-8.5,3.8125-8.5,8.4990234s3.8129883,8.5,8.5,8.5,8.5-3.8134766,8.5-8.5-3.8129883-8.4990234-8.5-8.4990234Z"/>
  <path class="st0" d="M278.2401733,55.2744751h6.2998047v8.159668c0,1.6049805-.7651367,2.3398438-2.3701172,2.3398438h-3.9296875v-1.125h3.8398438c.7797852,0,1.1098633-.3300781,1.1098633-1.125v-7.1245117h-4.949707v-1.125ZM294.0346069,62.6841431c0,1.3798828-.824707,2.1298828-2.3696289,2.1298828-1.5302734,0-2.3701172-.75-2.3701172-2.1298828v-7.409668h-1.3496094v7.409668c0,2.1450195,1.2895508,3.2397461,3.7197266,3.2397461,2.4296875,0,3.7197266-1.0947266,3.7197266-3.2397461v-7.409668h-1.3500977v7.409668ZM304.2201538,64.6939087l-4.2148438-9.4194336h-2.0400391v10.4995117h1.2299805v-9.5097656l4.2446289,9.5097656h2.0249023v-10.4995117h-1.2446289v9.4194336ZM309.8900757,64.6489868v-3.7197266h5.0249023v-1.125h-5.0249023v-3.4047852h5.4448242v-1.125h-6.7949219v10.4995117h6.9599609v-1.125h-5.6098633Z"/>
  <path class="st0" d="M287.3556519,84.5335083c-4.9705811,0-9,4.0294189-9,9s4.0294189,9,9,9,9-4.0294189,9-9-4.0294189-9-9-9ZM289.9623413,96.7334595h-.7792969v-6.2866211l-1.2192383,4.1079102h-1.2094727l-1.2294922-4.027832v6.206543h-.7792969v-6.9960938h1.3291016l1.2993164,4.3173828,1.2592773-4.3173828h1.3291016v6.9960938Z"/>
  <path class="st0" d="M312.3251953,84.5335083c-4.97052,0-9,4.0294189-9,9s4.02948,9,9,9c4.9705811,0,9-4.0294189,9-9s-4.0294189-9-9-9ZM315.1034546,90.4868774h-2.3383789v6.246582h-.8999023v-6.246582h-2.3383789v-.7495117h5.5766602v.7495117Z"/>
  <path class="st0" d="M337.2955322,84.5335083c-4.9705811,0-9,4.0294189-9,9s4.0294189,9,9,9c4.97052,0,9-4.0294189,9-9s-4.02948-9-9-9ZM339.5643921,96.7334595h-1.309082l-.9794922-3.8676758-.9594727,3.8676758h-1.2993164l-.7895508-6.9960938h.8398438l.6894531,6.3364258.9594727-3.8779297h1.1293945l.9794922,3.8881836.7094727-6.3466797h.8295898l-.7998047,6.9960938Z"/>
  <path class="st0" d="M362.2658081,84.5335083c-4.9705811,0-9,4.0294189-9,9s4.0294189,9,9,9,9-4.0294189,9-9-4.0294189-9-9-9ZM365.0448608,90.4868774h-2.3383789v6.246582h-.8999023v-6.246582h-2.3383789v-.7495117h5.5766602v.7495117Z"/>
  <path class="st0" d="M387.236084,84.5335083c-4.97052,0-9,4.0294189-9,9s4.02948,9,9,9c4.9705811,0,9-4.0294189,9-9s-4.0294189-9-9-9ZM389.6859741,90.4868774h-3.6982422v2.5385742h3.4584961v.7495117h-3.4584961v2.9584961h-.8994141v-6.9960938h4.5976562v.7495117Z"/>
  <path class="st0" d="M412.2064209,84.5335083c-4.9705811,0-9,4.0294189-9,9s4.0294189,9,9,9c4.97052,0,9-4.0294189,9-9s-4.02948-9-9-9ZM412.2977905,96.8335571c-1.7890625,0-2.5986328-.7998047-2.5986328-2.4389648h.8896484c.0102539,1.1494141.4897461,1.7392578,1.7089844,1.7392578,1.0795898,0,1.5195312-.4399414,1.5195312-1.2792969,0-.7797852-.3999023-1.0795898-1.359375-1.2695312l-.5498047-.1098633c-1.3793945-.2797852-2.0688477-.6796875-2.0688477-1.96875,0-1.159668.7197266-1.8691406,2.2885742-1.8691406,1.7192383,0,2.4389648.7294922,2.4389648,2.269043h-.8798828c-.0200195-1.0595703-.449707-1.5693359-1.559082-1.5693359-1.0195312,0-1.4091797.3896484-1.4091797,1.1494141,0,.8295898.4799805.9794922,1.4692383,1.1894531l.5097656.1098633c1.2592773.2695312,2.019043.7197266,2.019043,2.0087891,0,1.309082-.7695312,2.0390625-2.4189453,2.0390625Z"/>
  <path class="st0" d="M437.1766968,84.5335083c-4.9705811,0-9,4.0294189-9,9s4.0294189,9,9,9,9-4.0294189,9-9-4.0294189-9-9-9ZM437.2684937,96.8335571c-1.7890625,0-2.5986328-.7998047-2.5986328-2.4389648h.8896484c.0102539,1.1494141.4897461,1.7392578,1.7089844,1.7392578,1.0795898,0,1.5195312-.4399414,1.5195312-1.2792969,0-.7797852-.3999023-1.0795898-1.359375-1.2695312l-.5498047-.1098633c-1.3793945-.2797852-2.0688477-.6796875-2.0688477-1.96875,0-1.159668.7197266-1.8691406,2.2885742-1.8691406,1.7192383,0,2.4389648.7294922,2.4389648,2.269043h-.8798828c-.0200195-1.0595703-.449707-1.5693359-1.559082-1.5693359-1.0195312,0-1.4091797.3896484-1.4091797,1.1494141,0,.8295898.4799805.9794922,1.4692383,1.1894531l.5097656.1098633c1.2592773.2695312,2.019043.7197266,2.019043,2.0087891,0,1.309082-.7695312,2.0390625-2.4189453,2.0390625Z"/>
  <g>
    <path class="st0" d="M283.8432007,125.5059204c1.4794922-1.3891602,2.1689453-1.8789062,2.1689453-2.7983398,0-.8398438-.3999023-1.3193359-1.4189453-1.3193359-1.0996094,0-1.5395508.5195312-1.5395508,1.4990234v.1000977h-.8891602v-.1098633c0-1.3994141.8393555-2.2290039,2.4384766-2.2290039,1.5791016,0,2.3188477.7597656,2.3188477,1.9990234,0,1.1494141-.7695312,1.7890625-2.3388672,3.2280273l-1.2294922,1.1293945h3.5981445v.7397461h-4.637207v-.7993164l1.5288086-1.4394531Z"/>
    <path class="st0" d="M290.1830444,127.8447876c-1.8588867,0-2.6586914-1.0595703-2.6586914-3.6181641,0-2.2685547.7998047-3.578125,2.7387695-3.578125,1.46875,0,2.2885742.6396484,2.2885742,1.9492188h-.859375c-.0102539-.8095703-.5097656-1.2094727-1.4291992-1.2094727-1.2993164,0-1.8491211.8696289-1.8491211,2.5883789v.2597656c.3496094-.6791992,1.0395508-.9790039,1.9589844-.9790039,1.5288086,0,2.3183594.7895508,2.3183594,2.2983398,0,1.5092773-.8891602,2.2890625-2.5083008,2.2890625ZM291.7821655,125.5459595c0-1.0195312-.5400391-1.5493164-1.5893555-1.5493164-1.0292969,0-1.5888672.5200195-1.5888672,1.519043,0,1.0395508.5297852,1.5893555,1.5791016,1.5893555,1.0292969,0,1.5991211-.5395508,1.5991211-1.559082Z"/>
  </g>
  <g>
    <path class="st0" d="M308.8153687,125.5059204c1.4794922-1.3891602,2.1689453-1.8789062,2.1689453-2.7983398,0-.8398438-.3999023-1.3193359-1.4189453-1.3193359-1.0996094,0-1.5395508.5195312-1.5395508,1.4990234v.1000977h-.8891602v-.1098633c0-1.3994141.8393555-2.2290039,2.4384766-2.2290039,1.5791016,0,2.3188477.7597656,2.3188477,1.9990234,0,1.1494141-.7695312,1.7890625-2.3388672,3.2280273l-1.2294922,1.1293945h3.5981445v.7397461h-4.637207v-.7993164l1.5288086-1.4394531Z"/>
    <path class="st0" d="M314.4955444,127.7446899h-.9194336l3.0683594-6.2563477h-4.1079102v-.7397461h4.9873047v.7397461l-3.0283203,6.2563477Z"/>
  </g>
  <g>
    <path class="st0" d="M333.7860718,125.5059204c1.4794922-1.3891602,2.1689453-1.8789062,2.1689453-2.7983398,0-.8398438-.3999023-1.3193359-1.4189453-1.3193359-1.0996094,0-1.5395508.5195312-1.5395508,1.4990234v.1000977h-.8891602v-.1098633c0-1.3994141.8393555-2.2290039,2.4384766-2.2290039,1.5791016,0,2.3188477.7597656,2.3188477,1.9990234,0,1.1494141-.7695312,1.7890625-2.3388672,3.2280273l-1.2294922,1.1293945h3.5981445v.7397461h-4.637207v-.7993164l1.5288086-1.4394531Z"/>
    <path class="st0" d="M337.4472046,125.9058228c0-.9394531.5-1.559082,1.4492188-1.809082-.7895508-.2397461-1.1992188-.7797852-1.1992188-1.5893555,0-1.2192383.7597656-1.8588867,2.3388672-1.8588867,1.5888672,0,2.3583984.6396484,2.3583984,1.8588867,0,.8095703-.4199219,1.3496094-1.2094727,1.5893555.9594727.25,1.4594727.8696289,1.4594727,1.809082,0,1.2792969-.859375,1.9389648-2.6083984,1.9389648s-2.5888672-.659668-2.5888672-1.9389648ZM341.7348022,125.8355103c0-.8691406-.5996094-1.3491211-1.6987305-1.3491211-1.0898438,0-1.6791992.4799805-1.6791992,1.3491211,0,.8496094.5395508,1.3095703,1.6791992,1.3095703,1.1489258,0,1.6987305-.4599609,1.6987305-1.3095703ZM338.5668335,122.5674438c0,.7895508.5195312,1.2094727,1.4692383,1.2094727.9594727,0,1.4790039-.4199219,1.4790039-1.2094727s-.4599609-1.2192383-1.4492188-1.2192383c-1.0195312,0-1.4990234.4296875-1.4990234,1.2192383Z"/>
  </g>
  <g>
    <path class="st0" d="M358.7567749,125.5059204c1.4794922-1.3891602,2.1689453-1.8789062,2.1689453-2.7983398,0-.8398438-.3999023-1.3193359-1.4189453-1.3193359-1.0996094,0-1.5395508.5195312-1.5395508,1.4990234v.1000977h-.8891602v-.1098633c0-1.3994141.8393555-2.2290039,2.4384766-2.2290039,1.5791016,0,2.3188477.7597656,2.3188477,1.9990234,0,1.1494141-.7695312,1.7890625-2.3388672,3.2280273l-1.2294922,1.1293945h3.5981445v.7397461h-4.637207v-.7993164l1.5288086-1.4394531Z"/>
    <path class="st0" d="M364.8666382,127.8447876c-1.4692383,0-2.2885742-.6396484-2.2885742-1.9492188h.859375c.0097656.8095703.5097656,1.2094727,1.4291992,1.2094727,1.2993164,0,1.8491211-.8696289,1.8491211-2.5883789v-.2602539c-.3500977.6796875-1.0395508.9794922-1.9589844.9794922-1.5292969,0-2.3188477-.7895508-2.3188477-2.2983398,0-1.5092773.8896484-2.2890625,2.5087891-2.2890625,1.8588867,0,2.6582031,1.0595703,2.6582031,3.6181641,0,2.2685547-.7993164,3.578125-2.7382812,3.578125ZM363.3475952,122.9473267c0,1.0195312.5395508,1.5493164,1.5888672,1.5493164,1.0297852,0,1.5893555-.5200195,1.5893555-1.5195312,0-1.0390625-.5297852-1.5888672-1.5791016-1.5888672-1.0297852,0-1.5991211.5395508-1.5991211,1.559082Z"/>
  </g>
  <g>
    <path class="st0" d="M384.3471069,127.8447876c-1.7290039,0-2.4785156-.7197266-2.4785156-2.1289062h.8598633c0,.9394531.4995117,1.4091797,1.6186523,1.4091797,1.0996094,0,1.6494141-.4199219,1.6494141-1.3491211,0-.8398438-.3701172-1.2792969-1.3691406-1.2792969h-1.0595703v-.7397461h1.0395508c.8793945,0,1.2392578-.4897461,1.2392578-1.2192383,0-.7797852-.4799805-1.1694336-1.4492188-1.1694336-1.0893555,0-1.5791016.4794922-1.5791016,1.4189453h-.8496094c0-1.4091797.8193359-2.1386719,2.4384766-2.1386719,1.4794922,0,2.3188477.6298828,2.3188477,1.8588867,0,.7695312-.409668,1.3193359-1.0996094,1.5791016.7998047.2099609,1.2597656.7700195,1.2597656,1.7490234,0,1.359375-.8598633,2.0092773-2.5390625,2.0092773Z"/>
    <path class="st0" d="M387.3886108,124.2466431c0-2.5087891.8896484-3.5981445,2.5986328-3.5981445,1.6992188,0,2.5986328,1.0893555,2.5986328,3.5981445s-.8994141,3.5981445-2.5986328,3.5981445c-1.7089844,0-2.5986328-1.0795898-2.5986328-3.5981445ZM388.4979858,125.9854126l2.4985352-4.2573242c-.2597656-.2397461-.5996094-.3398438-1.0092773-.3398438-1.1191406,0-1.6992188.7592773-1.6992188,2.8583984,0,.7397461.0703125,1.309082.2099609,1.7387695ZM391.6762085,124.2466431c0-.7797852-.0795898-1.3691406-.2299805-1.809082l-2.5283203,4.277832c.2700195.2797852.6293945.3994141,1.0693359.3994141,1.109375,0,1.6889648-.7592773,1.6889648-2.8681641Z"/>
  </g>
  <g>
    <path class="st0" d="M409.3178101,127.8447876c-1.7290039,0-2.4785156-.7197266-2.4785156-2.1289062h.8598633c0,.9394531.4995117,1.4091797,1.6186523,1.4091797,1.0996094,0,1.6494141-.4199219,1.6494141-1.3491211,0-.8398438-.3701172-1.2792969-1.3691406-1.2792969h-1.0595703v-.7397461h1.0395508c.8793945,0,1.2392578-.4897461,1.2392578-1.2192383,0-.7797852-.4799805-1.1694336-1.4492188-1.1694336-1.0893555,0-1.5791016.4794922-1.5791016,1.4189453h-.8496094c0-1.4091797.8193359-2.1386719,2.4384766-2.1386719,1.4794922,0,2.3188477.6298828,2.3188477,1.8588867,0,.7695312-.409668,1.3193359-1.0996094,1.5791016.7998047.2099609,1.2597656.7700195,1.2597656,1.7490234,0,1.359375-.8598633,2.0092773-2.5390625,2.0092773Z"/>
    <path class="st0" d="M412.4994507,127.0049438h2.1386719v-5.4770508l-2.0390625.3999023v-.7392578l2.1191406-.4399414h.7792969v6.2563477h2.0390625v.7397461h-5.0371094v-.7397461Z"/>
  </g>
  <path class="st0" d="M437.1766968,115.5478516c-4.9705811,0-9,4.0294189-9,8.999939,0,4.9705811,4.0294189,9,9,9s9-4.0294189,9-9c0-4.97052-4.0294189-8.999939-9-8.999939ZM439.7533569,127.7446899h-5.0371094v-.7397461h2.1386719v-5.4770508l-2.0390625.3999023v-.7392578l2.1191406-.4399414h.7792969v6.2563477h2.0390625v.7397461Z"/>
  <path class="st0" d="M287.3549194,140.2925415c-4.97052,0-8.999939,4.0294189-8.999939,9,0,4.97052,4.0294189,8.999939,8.999939,8.999939,4.9705811,0,9-4.0294189,9-8.999939,0-4.9705811-4.0294189-9-9-9ZM289.703064,152.4859009h-4.637207v-.7993164l1.5288086-1.4394531c1.4794922-1.3891602,2.1689453-1.8789062,2.1689453-2.7983398,0-.8398438-.3999023-1.3193359-1.4189453-1.3193359-1.0996094,0-1.5395508.5195312-1.5395508,1.4990234v.1000977h-.8891602v-.1098633c0-1.3994141.8393555-2.2290039,2.4384766-2.2290039,1.5791016,0,2.3188477.7597656,2.3188477,1.9990234,0,1.1494141-.7695312,1.7890625-2.3388672,3.2280273l-1.2294922,1.1293945h3.5981445v.7397461Z"/>
  <path class="st0" d="M312.3270874,140.2925415c-4.97052,0-8.999939,4.0294189-8.999939,9,0,4.97052,4.0294189,8.999939,8.999939,8.999939,4.9705811,0,9-4.0294189,9-8.999939,0-4.9705811-4.0294189-9-9-9ZM312.1849976,152.5859985c-1.7290039,0-2.4785156-.7197266-2.4785156-2.1289062h.8598633c0,.9394531.4995117,1.4091797,1.6186523,1.4091797,1.0996094,0,1.6494141-.4199219,1.6494141-1.3491211,0-.8398438-.3701172-1.2792969-1.3691406-1.2792969h-1.0595703v-.7397461h1.0395508c.8793945,0,1.2392578-.4897461,1.2392578-1.2192383,0-.7797852-.4799805-1.1694336-1.4492188-1.1694336-1.0893555,0-1.5791016.4794922-1.5791016,1.4189453h-.8496094c0-1.4091797.8193359-2.1386719,2.4384766-2.1386719,1.4794922,0,2.3188477.6298828,2.3188477,1.8588867,0,.7695312-.409668,1.3193359-1.0996094,1.5791016.7998047.2099609,1.2597656.7700195,1.2597656,1.7490234,0,1.359375-.8598633,2.0092773-2.5390625,2.0092773Z"/>
  <path class="st0" d="M337.2992554,140.2925415c-4.97052,0-8.999939,4.0294189-8.999939,9,0,4.97052,4.0294189,8.999939,8.999939,8.999939,4.9705811,0,9-4.0294189,9-8.999939,0-4.9705811-4.0294189-9-9-9ZM340.1444702,150.9365845h-.8696289v1.5493164h-.859375v-1.5493164h-3.6879883v-.6494141l2.1083984-4.7973633h.9199219l-2.0888672,4.7075195h2.7485352v-2.5585938h.859375v2.5585938h.8696289v.7392578Z"/>
  <path class="st0" d="M362.2714233,140.2925415c-4.97052,0-8.999939,4.0294189-8.999939,9,0,4.97052,4.0294189,8.999939,8.999939,8.999939,4.9705811,0,9-4.0294189,9-8.999939,0-4.9705811-4.0294189-9-9-9ZM362.2763062,152.5859985c-1.5488281,0-2.4384766-.6796875-2.4384766-1.9692383h.8696289c0,.7998047.5498047,1.2294922,1.5888672,1.2294922,1.0996094,0,1.6591797-.5698242,1.6591797-1.6489258,0-1.109375-.5297852-1.6894531-1.559082-1.6894531-.8295898,0-1.269043.25-1.559082.8198242l-.7597656-.1201172.2202148-3.7177734h4.2973633v.7397461h-3.5478516l-.1499023,2.168457c.3696289-.3994141.8696289-.609375,1.6289062-.609375,1.519043,0,2.3388672.8393555,2.3388672,2.3984375,0,1.5791016-.9594727,2.3989258-2.5888672,2.3989258Z"/>
  <path class="st0" d="M387.2435913,140.2925415c-4.97052,0-8.999939,4.0294189-8.999939,9,0,4.97052,4.0294189,8.999939,8.999939,8.999939,4.9705811,0,9-4.0294189,9-8.999939,0-4.9705811-4.0294189-9-9-9ZM387.3173218,152.5859985c-1.8588867,0-2.6586914-1.0595703-2.6586914-3.6181641,0-2.2685547.7998047-3.578125,2.7387695-3.578125,1.46875,0,2.2885742.6396484,2.2885742,1.9492188h-.859375c-.0102539-.8095703-.5097656-1.2094727-1.4291992-1.2094727-1.2993164,0-1.8491211.8696289-1.8491211,2.5883789v.2597656c.3496094-.6791992,1.0395508-.9790039,1.9589844-.9790039,1.5288086,0,2.3183594.7895508,2.3183594,2.2983398,0,1.5092773-.8891602,2.2890625-2.5083008,2.2890625ZM388.9164429,150.2871704c0,1.0195312-.5698242,1.559082-1.5991211,1.559082-1.0493164,0-1.5791016-.5498047-1.5791016-1.5893555,0-.9990234.5595703-1.519043,1.5888672-1.519043,1.0493164,0,1.5893555.5297852,1.5893555,1.5493164Z"/>
  <path class="st0" d="M412.2157593,140.2925415c-4.9705811,0-9,4.0294189-9,9,0,4.97052,4.0294189,8.999939,9,8.999939s9-4.0294189,9-8.999939c0-4.9705811-4.0294189-9-9-9ZM414.6566772,146.2295532l-3.0283203,6.2563477h-.9194336l3.0683594-6.2563477h-4.1079102v-.7397461h4.9873047v.7397461Z"/>
  <path class="st0" d="M438.8676147,150.5767212c0,.8496094-.5498047,1.3095703-1.6987305,1.3095703-1.1396484,0-1.6791992-.4599609-1.6791992-1.3095703,0-.8691406.5893555-1.3491211,1.6791992-1.3491211,1.0991211,0,1.6987305.4799805,1.6987305,1.3491211ZM437.1688843,148.5181274c.9594727,0,1.4790039-.4199219,1.4790039-1.2094727s-.4599609-1.2192383-1.4492188-1.2192383c-1.0195312,0-1.4990234.4296875-1.4990234,1.2192383s.5195312,1.2094727,1.4692383,1.2094727ZM446.1879272,149.2925415c0,4.97052-4.0294189,8.999939-9,8.999939s-9-4.0294189-9-8.999939c0-4.9705811,4.0294189-9,9-9s9,4.0294189,9,9ZM439.7772827,150.6470337c0-.9394531-.5-1.559082-1.4594727-1.809082.7895508-.2397461,1.2094727-.7797852,1.2094727-1.5893555,0-1.2192383-.7695312-1.8588867-2.3583984-1.8588867-1.5791016,0-2.3388672.6396484-2.3388672,1.8588867,0,.8095703.409668,1.3496094,1.1992188,1.5893555-.9492188.25-1.4492188.8696289-1.4492188,1.809082,0,1.2792969.8398438,1.9389648,2.5888672,1.9389648s2.6083984-.659668,2.6083984-1.9389648Z"/>
  <path class="st0" d="M288.8637085,172.4595337c0,.9990234-.5595703,1.5195312-1.5893555,1.5195312-1.0493164,0-1.5888672-.5302734-1.5888672-1.5498047s.5693359-1.5585938,1.5991211-1.5585938c1.0493164,0,1.5791016.5498047,1.5791016,1.5888672ZM296.3549194,174.0409546c0,4.97052-4.0294189,8.999939-9,8.999939-4.97052,0-8.999939-4.0294189-8.999939-8.999939,0-4.9705811,4.0294189-9,8.999939-9,4.9705811,0,9,4.0294189,9,9ZM289.9428101,173.7485962c0-2.5585938-.7993164-3.6181641-2.6582031-3.6181641-1.6191406,0-2.5087891.7802734-2.5087891,2.2890625s.7895508,2.2988281,2.3188477,2.2988281c.9194336,0,1.6088867-.2998047,1.9589844-.9794922v.2597656c0,1.71875-.5498047,2.5888672-1.8491211,2.5888672-.9194336,0-1.4194336-.4003906-1.4291992-1.2099609h-.859375c0,1.3095703.8193359,1.9492188,2.2885742,1.9492188,1.9389648,0,2.7382812-1.3095703,2.7382812-3.578125Z"/>
  <path class="st0" d="M316.5341187,171.9194946c.1503906.4404297.2299805,1.0292969.2299805,1.8095703,0,2.1083984-.5795898,2.8681641-1.6889648,2.8681641-.4399414,0-.7993164-.1201172-1.0693359-.3994141l2.5283203-4.2783203ZM315.0751343,170.8706665c-1.1191406,0-1.6992188.7587891-1.6992188,2.8583984,0,.7392578.0703125,1.3085938.2099609,1.7382812l2.4985352-4.2568359c-.2597656-.2402344-.5996094-.3398438-1.0092773-.3398438ZM321.3270874,174.0409546c0,4.97052-4.0294189,8.999939-9,8.999939-4.97052,0-8.999939-4.0294189-8.999939-8.999939,0-4.9705811,4.0294189-9,8.999939-9,4.9705811,0,9,4.0294189,9,9ZM312.1537476,176.4868774h-2.0390625v-6.2558594h-.7792969l-2.1191406.4394531v.7392578l2.0390625-.3994141v5.4765625h-2.1386719v.7402344h5.0371094v-.7402344ZM317.6737671,173.7290649c0-2.5087891-.8994141-3.5986328-2.5986328-3.5986328-1.7089844,0-2.5986328,1.0898438-2.5986328,3.5986328,0,2.5185547.8896484,3.5976562,2.5986328,3.5976562,1.6992188,0,2.5986328-1.0888672,2.5986328-3.5976562Z"/>
  <path class="st0" d="M337.2992554,165.0409546c-4.97052,0-8.999939,4.0294189-8.999939,9,0,4.97052,4.0294189,8.999939,8.999939,8.999939,4.9705811,0,9-4.0294189,9-8.999939,0-4.9705811-4.0294189-9-9-9ZM337.1244507,177.2271118h-5.0371094v-.7402344h2.1386719v-5.4765625l-2.0390625.3994141v-.7392578l2.1191406-.4394531h.7792969v6.2558594h2.0390625v.7402344ZM342.6244507,177.2271118h-5.0371094v-.7402344h2.1386719v-5.4765625l-2.0390625.3994141v-.7392578l2.1191406-.4394531h.7792969v6.2558594h2.0390625v.7402344Z"/>
  <path class="st0" d="M362.2714233,165.0409546c-4.97052,0-8.999939,4.0294189-8.999939,9,0,4.97052,4.0294189,8.999939,8.999939,8.999939,4.9705811,0,9-4.0294189,9-8.999939,0-4.9705811-4.0294189-9-9-9ZM362.0951538,177.2271118h-5.0371094v-.7402344h2.1386719v-5.4765625l-2.0390625.3994141v-.7392578l2.1191406-.4394531h.7792969v6.2558594h2.0390625v.7402344ZM367.3651733,177.2271118h-4.637207v-.7998047l1.5288086-1.4394531c1.4794922-1.3886719,2.1689453-1.8789062,2.1689453-2.7978516,0-.8398438-.3999023-1.3193359-1.4189453-1.3193359-1.0996094,0-1.5395508.5195312-1.5395508,1.4990234v.0996094h-.8891602v-.109375c0-1.3994141.8393555-2.2294922,2.4384766-2.2294922,1.5791016,0,2.3188477.7597656,2.3188477,1.9990234,0,1.1494141-.7695312,1.7890625-2.3388672,3.2285156l-1.2294922,1.1289062h3.5981445v.7402344Z"/>
  <path class="st0" d="M387.2435913,165.0409546c-4.97052,0-8.999939,4.0294189-8.999939,9,0,4.97052,4.0294189,8.999939,8.999939,8.999939,4.9705811,0,9-4.0294189,9-8.999939,0-4.9705811-4.0294189-9-9-9ZM387.0658569,177.2271118h-5.0371094v-.7402344h2.1386719v-5.4765625l-2.0390625.3994141v-.7392578l2.1191406-.4394531h.7792969v6.2558594h2.0390625v.7402344ZM389.8471069,177.3267212c-1.7290039,0-2.4785156-.7197266-2.4785156-2.1289062h.8598633c0,.9394531.4995117,1.4091797,1.6186523,1.4091797,1.0996094,0,1.6494141-.4199219,1.6494141-1.3486328,0-.8398438-.3701172-1.2792969-1.3691406-1.2792969h-1.0595703v-.7402344h1.0395508c.8793945,0,1.2392578-.4892578,1.2392578-1.21875,0-.7802734-.4799805-1.1699219-1.4492188-1.1699219-1.0893555,0-1.5791016.4794922-1.5791016,1.4189453h-.8496094c0-1.4091797.8193359-2.1386719,2.4384766-2.1386719,1.4794922,0,2.3188477.6298828,2.3188477,1.859375,0,.7695312-.409668,1.3193359-1.0996094,1.5791016.7998047.2099609,1.2597656.7695312,1.2597656,1.7490234,0,1.359375-.8598633,2.0087891-2.5390625,2.0087891Z"/>
  <path class="st0" d="M412.2157593,165.0409546c-4.9705811,0-9,4.0294189-9,9,0,4.97052,4.0294189,8.999939,9,8.999939s9-4.0294189,9-8.999939c0-4.9705811-4.0294189-9-9-9ZM412.0365601,177.2271118h-5.0371094v-.7402344h2.1386719v-5.4765625l-2.0390625.3994141v-.7392578l2.1191406-.4394531h.7792969v6.2558594h2.0390625v.7402344ZM417.8065796,175.6773071h-.8696289v1.5498047h-.859375v-1.5498047h-3.6879883v-.6494141l2.1083984-4.796875h.9199219l-2.0888672,4.7070312h2.7485352v-2.5585938h.859375v2.5585938h.8696289v.7392578Z"/>
  <path class="st0" d="M437.1879272,165.0409546c-4.9705811,0-9,4.0294189-9,9,0,4.97052,4.0294189,8.999939,9,8.999939s9-4.0294189,9-8.999939c0-4.9705811-4.0294189-9-9-9ZM437.0072632,177.2271118h-5.0371094v-.7402344h2.1386719v-5.4765625l-2.0390625.3994141v-.7392578l2.1191406-.4394531h.7792969v6.2558594h2.0390625v.7402344ZM439.9384155,177.3267212c-1.5488281,0-2.4384766-.6796875-2.4384766-1.96875h.8696289c0,.7998047.5498047,1.2294922,1.5888672,1.2294922,1.0996094,0,1.6591797-.5703125,1.6591797-1.6494141,0-1.109375-.5297852-1.6894531-1.559082-1.6894531-.8295898,0-1.269043.25-1.559082.8203125l-.7597656-.1201172.2202148-3.7177734h4.2973633v.7392578h-3.5478516l-.1499023,2.1689453c.3696289-.3994141.8696289-.609375,1.6289062-.609375,1.519043,0,2.3388672.8388672,2.3388672,2.3984375,0,1.5791016-.9594727,2.3984375-2.5888672,2.3984375Z"/>
  <path class="st0" d="M291.7836304,199.769104c0,1.0195312-.5698242,1.5595703-1.5991211,1.5595703-1.0493164,0-1.5791016-.5498047-1.5791016-1.5898438,0-.9990234.5595703-1.5185547,1.5888672-1.5185547,1.0493164,0,1.5893555.5292969,1.5893555,1.5488281ZM296.3549194,198.7893677c0,4.97052-4.0294189,8.999939-9,8.999939-4.97052,0-8.999939-4.0294189-8.999939-8.999939,0-4.9705811,4.0294189-9,8.999939-9,4.9705811,0,9,4.0294189,9,9ZM287.1830444,201.2280884h-2.0390625v-6.2558594h-.7792969l-2.1191406.4394531v.7392578l2.0390625-.3994141v5.4765625h-2.1386719v.7402344h5.0371094v-.7402344ZM292.6928101,199.7788696c0-1.5087891-.7895508-2.2978516-2.3183594-2.2978516-.9194336,0-1.609375.2998047-1.9589844.9785156v-.2597656c0-1.71875.5498047-2.5878906,1.8491211-2.5878906.9194336,0,1.4189453.3994141,1.4291992,1.2089844h.859375c0-1.3095703-.8198242-1.9492188-2.2885742-1.9492188-1.9389648,0-2.7387695,1.3095703-2.7387695,3.578125,0,2.5585938.7998047,3.6181641,2.6586914,3.6181641,1.6191406,0,2.5083008-.7792969,2.5083008-2.2890625Z"/>
  <path class="st0" d="M312.3270874,189.7893677c-4.97052,0-8.999939,4.0294189-8.999939,9,0,4.97052,4.0294189,8.999939,8.999939,8.999939,4.9705811,0,9-4.0294189,9-8.999939,0-4.9705811-4.0294189-9-9-9ZM312.1537476,201.9683228h-5.0371094v-.7402344h2.1386719v-5.4765625l-2.0390625.3994141v-.7392578l2.1191406-.4394531h.7792969v6.2558594h2.0390625v.7402344ZM317.5238647,195.7114868l-3.0283203,6.2568359h-.9194336l3.0683594-6.2568359h-4.1079102v-.7392578h4.9873047v.7392578Z"/>
  <path class="st0" d="M341.7348022,200.0591431c0,.8496094-.5498047,1.3095703-1.6987305,1.3095703-1.1396484,0-1.6791992-.4599609-1.6791992-1.3095703,0-.8691406.5893555-1.3496094,1.6791992-1.3496094,1.0991211,0,1.6987305.4804688,1.6987305,1.3496094ZM340.0360718,198.0005493c.9594727,0,1.4790039-.4199219,1.4790039-1.2099609,0-.7890625-.4599609-1.21875-1.4492188-1.21875-1.0195312,0-1.4990234.4296875-1.4990234,1.21875,0,.7900391.5195312,1.2099609,1.4692383,1.2099609ZM346.2992554,198.7893677c0,4.97052-4.0294189,8.999939-9,8.999939-4.97052,0-8.999939-4.0294189-8.999939-8.999939,0-4.9705811,4.0294189-9,8.999939-9,4.9705811,0,9,4.0294189,9,9ZM337.1244507,201.2280884h-2.0390625v-6.2558594h-.7792969l-2.1191406.4394531v.7392578l2.0390625-.3994141v5.4765625h-2.1386719v.7402344h5.0371094v-.7402344ZM342.6444702,200.1294556c0-.9394531-.5-1.5595703-1.4594727-1.8095703.7895508-.2392578,1.2094727-.7792969,1.2094727-1.5888672,0-1.2197266-.7695312-1.859375-2.3583984-1.859375-1.5791016,0-2.3388672.6396484-2.3388672,1.859375,0,.8095703.409668,1.3496094,1.1992188,1.5888672-.9492188.25-1.4492188.8701172-1.4492188,1.8095703,0,1.2792969.8398438,1.9384766,2.5888672,1.9384766s2.6083984-.6591797,2.6083984-1.9384766Z"/>
  <path class="st0" d="M366.5258179,197.2007446c0,.9990234-.5595703,1.5195312-1.5893555,1.5195312-1.0493164,0-1.5888672-.5302734-1.5888672-1.5498047s.5693359-1.5585938,1.5991211-1.5585938c1.0493164,0,1.5791016.5498047,1.5791016,1.5888672ZM371.2714233,198.7893677c0,4.97052-4.0294189,8.999939-9,8.999939-4.97052,0-8.999939-4.0294189-8.999939-8.999939,0-4.9705811,4.0294189-9,8.999939-9,4.9705811,0,9,4.0294189,9,9ZM362.0951538,201.2280884h-2.0390625v-6.2558594h-.7792969l-2.1191406.4394531v.7392578l2.0390625-.3994141v5.4765625h-2.1386719v.7402344h5.0371094v-.7402344ZM367.6049194,198.4898071c0-2.5585938-.7993164-3.6181641-2.6582031-3.6181641-1.6191406,0-2.5087891.7802734-2.5087891,2.2890625s.7895508,2.2988281,2.3188477,2.2988281c.9194336,0,1.6088867-.2998047,1.9589844-.9794922v.2597656c0,1.71875-.5498047,2.5888672-1.8491211,2.5888672-.9194336,0-1.4194336-.4003906-1.4291992-1.2099609h-.859375c0,1.3095703.8193359,1.9492188,2.2885742,1.9492188,1.9389648,0,2.7382812-1.3095703,2.7382812-3.578125Z"/>
  <path class="st0" d="M390.996521,195.9517212l-2.4985352,4.2568359c-.1396484-.4296875-.2099609-.9990234-.2099609-1.7382812,0-2.0996094.5800781-2.8583984,1.6992188-2.8583984.409668,0,.7495117.0996094,1.0092773.3398438ZM388.9179077,200.9390259c.2700195.2792969.6293945.3994141,1.0693359.3994141,1.109375,0,1.6889648-.7597656,1.6889648-2.8681641,0-.7802734-.0795898-1.3691406-.2299805-1.8095703l-2.5283203,4.2783203ZM396.2435913,198.7893677c0,4.97052-4.0294189,8.999939-9,8.999939-4.97052,0-8.999939-4.0294189-8.999939-8.999939,0-4.9705811,4.0294189-9,8.999939-9,4.9705811,0,9,4.0294189,9,9ZM386.8358765,201.2280884h-3.5981445l1.2294922-1.1289062c1.5693359-1.4394531,2.3388672-2.0791016,2.3388672-3.2285156,0-1.2392578-.7397461-1.9990234-2.3188477-1.9990234-1.5991211,0-2.4384766.8300781-2.4384766,2.2294922v.109375h.8891602v-.0996094c0-.9794922.4399414-1.4990234,1.5395508-1.4990234,1.019043,0,1.4189453.4794922,1.4189453,1.3193359,0,.9189453-.6894531,1.4091797-2.1689453,2.7978516l-1.5288086,1.4394531v.7998047h4.637207v-.7402344ZM392.5858765,198.4702759c0-2.5087891-.8994141-3.5986328-2.5986328-3.5986328-1.7089844,0-2.5986328,1.0898438-2.5986328,3.5986328,0,2.5185547.8896484,3.5976562,2.5986328,3.5976562,1.6992188,0,2.5986328-1.0888672,2.5986328-3.5976562Z"/>
  <path class="st0" d="M412.2157593,189.7893677c-4.9705811,0-9,4.0294189-9,9,0,4.97052,4.0294189,8.999939,9,8.999939s9-4.0294189,9-8.999939c0-4.9705811-4.0294189-9-9-9ZM411.8065796,201.9683228h-4.637207v-.7998047l1.5288086-1.4394531c1.4794922-1.3886719,2.1689453-1.8789062,2.1689453-2.7978516,0-.8398438-.3999023-1.3193359-1.4189453-1.3193359-1.0996094,0-1.5395508.5195312-1.5395508,1.4990234v.0996094h-.8891602v-.109375c0-1.3994141.8393555-2.2294922,2.4384766-2.2294922,1.5791016,0,2.3188477.7597656,2.3188477,1.9990234,0,1.1494141-.7695312,1.7890625-2.3388672,3.2285156l-1.2294922,1.1289062h3.5981445v.7402344ZM417.5365601,201.9683228h-5.0371094v-.7402344h2.1386719v-5.4765625l-2.0390625.3994141v-.7392578l2.1191406-.4394531h.7792969v6.2558594h2.0390625v.7402344Z"/>
  <path class="st0" d="M437.1879272,189.7893677c-4.9705811,0-9,4.0294189-9,9,0,4.97052,4.0294189,8.999939,9,8.999939s9-4.0294189,9-8.999939c0-4.9705811-4.0294189-9-9-9ZM436.7772827,201.9683228h-4.637207v-.7998047l1.5288086-1.4394531c1.4794922-1.3886719,2.1689453-1.8789062,2.1689453-2.7978516,0-.8398438-.3999023-1.3193359-1.4189453-1.3193359-1.0996094,0-1.5395508.5195312-1.5395508,1.4990234v.0996094h-.8891602v-.109375c0-1.3994141.8393555-2.2294922,2.4384766-2.2294922,1.5791016,0,2.3188477.7597656,2.3188477,1.9990234,0,1.1494141-.7695312,1.7890625-2.3388672,3.2285156l-1.2294922,1.1289062h3.5981445v.7402344ZM442.2772827,201.9683228h-4.637207v-.7998047l1.5288086-1.4394531c1.4794922-1.3886719,2.1689453-1.8789062,2.1689453-2.7978516,0-.8398438-.3999023-1.3193359-1.4189453-1.3193359-1.0996094,0-1.5395508.5195312-1.5395508,1.4990234v.0996094h-.8891602v-.109375c0-1.3994141.8393555-2.2294922,2.4384766-2.2294922,1.5791016,0,2.3188477.7597656,2.3188477,1.9990234,0,1.1494141-.7695312,1.7890625-2.3388672,3.2285156l-1.2294922,1.1289062h3.5981445v.7402344Z"/>
  <path class="st0" d="M287.3549194,214.5377808c-4.97052,0-8.999939,4.0294189-8.999939,9,0,4.97052,4.0294189,8.999939,8.999939,8.999939,4.9705811,0,9-4.0294189,9-8.999939,0-4.9705811-4.0294189-9-9-9ZM286.953064,226.7095337h-4.637207v-.7998047l1.5288086-1.4394531c1.4794922-1.3886719,2.1689453-1.8789062,2.1689453-2.7978516,0-.8398438-.3999023-1.3193359-1.4189453-1.3193359-1.0996094,0-1.5395508.5195312-1.5395508,1.4990234v.0996094h-.8891602v-.109375c0-1.3994141.8393555-2.2294922,2.4384766-2.2294922,1.5791016,0,2.3188477.7597656,2.3188477,1.9990234,0,1.1494141-.7695312,1.7890625-2.3388672,3.2285156l-1.2294922,1.1289062h3.5981445v.7402344ZM289.9642944,226.8091431c-1.7290039,0-2.4785156-.7197266-2.4785156-2.1289062h.8598633c0,.9394531.4995117,1.4091797,1.6186523,1.4091797,1.0996094,0,1.6494141-.4199219,1.6494141-1.3486328,0-.8398438-.3701172-1.2792969-1.3691406-1.2792969h-1.0595703v-.7402344h1.0395508c.8793945,0,1.2392578-.4892578,1.2392578-1.21875,0-.7802734-.4799805-1.1699219-1.4492188-1.1699219-1.0893555,0-1.5791016.4794922-1.5791016,1.4189453h-.8496094c0-1.4091797.8193359-2.1386719,2.4384766-2.1386719,1.4794922,0,2.3188477.6298828,2.3188477,1.859375,0,.7695312-.409668,1.3193359-1.0996094,1.5791016.7998047.2099609,1.2597656.7695312,1.2597656,1.7490234,0,1.359375-.8598633,2.0087891-2.5390625,2.0087891Z"/>
  <path class="st0" d="M312.3270874,214.5377808c-4.97052,0-8.999939,4.0294189-8.999939,9,0,4.97052,4.0294189,8.999939,8.999939,8.999939,4.9705811,0,9-4.0294189,9-8.999939,0-4.9705811-4.0294189-9-9-9ZM311.9237671,226.7095337h-4.637207v-.7998047l1.5288086-1.4394531c1.4794922-1.3886719,2.1689453-1.8789062,2.1689453-2.7978516,0-.8398438-.3999023-1.3193359-1.4189453-1.3193359-1.0996094,0-1.5395508.5195312-1.5395508,1.4990234v.0996094h-.8891602v-.109375c0-1.3994141.8393555-2.2294922,2.4384766-2.2294922,1.5791016,0,2.3188477.7597656,2.3188477,1.9990234,0,1.1494141-.7695312,1.7890625-2.3388672,3.2285156l-1.2294922,1.1289062h3.5981445v.7402344ZM317.9237671,225.159729h-.8696289v1.5498047h-.859375v-1.5498047h-3.6879883v-.6494141l2.1083984-4.796875h.9199219l-2.0888672,4.7070312h2.7485352v-2.5585938h.859375v2.5585938h.8696289v.7392578Z"/>
  <path class="st0" d="M337.2992554,214.5377808c-4.97052,0-8.999939,4.0294189-8.999939,9,0,4.97052,4.0294189,8.999939,8.999939,8.999939,4.9705811,0,9-4.0294189,9-8.999939,0-4.9705811-4.0294189-9-9-9ZM336.8944702,226.7095337h-4.637207v-.7998047l1.5288086-1.4394531c1.4794922-1.3886719,2.1689453-1.8789062,2.1689453-2.7978516,0-.8398438-.3999023-1.3193359-1.4189453-1.3193359-1.0996094,0-1.5395508.5195312-1.5395508,1.4990234v.0996094h-.8891602v-.109375c0-1.3994141.8393555-2.2294922,2.4384766-2.2294922,1.5791016,0,2.3188477.7597656,2.3188477,1.9990234,0,1.1494141-.7695312,1.7890625-2.3388672,3.2285156l-1.2294922,1.1289062h3.5981445v.7402344ZM340.055603,226.8091431c-1.5488281,0-2.4384766-.6796875-2.4384766-1.96875h.8696289c0,.7998047.5498047,1.2294922,1.5888672,1.2294922,1.0996094,0,1.6591797-.5703125,1.6591797-1.6494141,0-1.109375-.5297852-1.6894531-1.559082-1.6894531-.8295898,0-1.269043.25-1.559082.8203125l-.7597656-.1201172.2202148-3.7177734h4.2973633v.7392578h-3.5478516l-.1499023,2.1689453c.3696289-.3994141.8696289-.609375,1.6289062-.609375,1.519043,0,2.3388672.8388672,2.3388672,2.3984375,0,1.5791016-.9594727,2.3984375-2.5888672,2.3984375Z"/>
  <path class="st0" d="M366.6957397,224.5103149c0,1.0195312-.5698242,1.5595703-1.5991211,1.5595703-1.0493164,0-1.5791016-.5498047-1.5791016-1.5898438,0-.9990234.5595703-1.5185547,1.5888672-1.5185547,1.0493164,0,1.5893555.5292969,1.5893555,1.5488281ZM371.2714233,223.5377808c0,4.97052-4.0294189,8.999939-9,8.999939-4.97052,0-8.999939-4.0294189-8.999939-8.999939,0-4.9705811,4.0294189-9,8.999939-9,4.9705811,0,9,4.0294189,9,9ZM361.8651733,225.9692993h-3.5981445l1.2294922-1.1289062c1.5693359-1.4394531,2.3388672-2.0791016,2.3388672-3.2285156,0-1.2392578-.7397461-1.9990234-2.3188477-1.9990234-1.5991211,0-2.4384766.8300781-2.4384766,2.2294922v.109375h.8891602v-.0996094c0-.9794922.4399414-1.4990234,1.5395508-1.4990234,1.019043,0,1.4189453.4794922,1.4189453,1.3193359,0,.9189453-.6894531,1.4091797-2.1689453,2.7978516l-1.5288086,1.4394531v.7998047h4.637207v-.7402344ZM367.6049194,224.5200806c0-1.5087891-.7895508-2.2978516-2.3183594-2.2978516-.9194336,0-1.609375.2998047-1.9589844.9785156v-.2597656c0-1.71875.5498047-2.5878906,1.8491211-2.5878906.9194336,0,1.4189453.3994141,1.4291992,1.2089844h.859375c0-1.3095703-.8198242-1.9492188-2.2885742-1.9492188-1.9389648,0-2.7387695,1.3095703-2.7387695,3.578125,0,2.5585938.7998047,3.6181641,2.6586914,3.6181641,1.6191406,0,2.5083008-.7792969,2.5083008-2.2890625Z"/>
  <path class="st0" d="M387.2435913,214.5377808c-4.97052,0-8.999939,4.0294189-8.999939,9,0,4.97052,4.0294189,8.999939,8.999939,8.999939,4.9705811,0,9-4.0294189,9-8.999939,0-4.9705811-4.0294189-9-9-9ZM386.8358765,226.7095337h-4.637207v-.7998047l1.5288086-1.4394531c1.4794922-1.3886719,2.1689453-1.8789062,2.1689453-2.7978516,0-.8398438-.3999023-1.3193359-1.4189453-1.3193359-1.0996094,0-1.5395508.5195312-1.5395508,1.4990234v.0996094h-.8891602v-.109375c0-1.3994141.8393555-2.2294922,2.4384766-2.2294922,1.5791016,0,2.3188477.7597656,2.3188477,1.9990234,0,1.1494141-.7695312,1.7890625-2.3388672,3.2285156l-1.2294922,1.1289062h3.5981445v.7402344ZM392.4359741,220.4526978l-3.0283203,6.2568359h-.9194336l3.0683594-6.2568359h-4.1079102v-.7392578h4.9873047v.7392578Z"/>
  <path class="st0" d="M413.4789429,221.5317993c0-.7890625.4794922-1.21875,1.4990234-1.21875.9892578,0,1.4492188.4296875,1.4492188,1.21875,0,.7900391-.5195312,1.2099609-1.4790039,1.2099609-.949707,0-1.4692383-.4199219-1.4692383-1.2099609ZM414.9481812,223.4507446c-1.0898438,0-1.6791992.4804688-1.6791992,1.3496094,0,.8496094.5395508,1.3095703,1.6791992,1.3095703,1.1489258,0,1.6987305-.4599609,1.6987305-1.3095703,0-.8691406-.5996094-1.3496094-1.6987305-1.3496094ZM421.2157593,223.5377808c0,4.97052-4.0294189,8.999939-9,8.999939s-9-4.0294189-9-8.999939c0-4.9705811,4.0294189-9,9-9s9,4.0294189,9,9ZM411.8065796,225.9692993h-3.5981445l1.2294922-1.1289062c1.5693359-1.4394531,2.3388672-2.0791016,2.3388672-3.2285156,0-1.2392578-.7397461-1.9990234-2.3188477-1.9990234-1.5991211,0-2.4384766.8300781-2.4384766,2.2294922v.109375h.8891602v-.0996094c0-.9794922.4399414-1.4990234,1.5395508-1.4990234,1.019043,0,1.4189453.4794922,1.4189453,1.3193359,0,.9189453-.6894531,1.4091797-2.1689453,2.7978516l-1.5288086,1.4394531v.7998047h4.637207v-.7402344ZM417.5565796,224.8706665c0-.9394531-.5-1.5595703-1.4594727-1.8095703.7895508-.2392578,1.2094727-.7792969,1.2094727-1.5888672,0-1.2197266-.7695312-1.859375-2.3583984-1.859375-1.5791016,0-2.3388672.6396484-2.3388672,1.859375,0,.8095703.409668,1.3496094,1.1992188,1.5888672-.9492188.25-1.4492188.8701172-1.4492188,1.8095703,0,1.2792969.8398438,1.9384766,2.5888672,1.9384766s2.6083984-.6591797,2.6083984-1.9384766Z"/>
  <path class="st0" d="M441.4379272,221.9419556c0,.9990234-.5595703,1.5195312-1.5893555,1.5195312-1.0493164,0-1.5888672-.5302734-1.5888672-1.5498047s.5693359-1.5585938,1.5991211-1.5585938c1.0493164,0,1.5791016.5498047,1.5791016,1.5888672ZM446.1879272,223.5377808c0,4.97052-4.0294189,8.999939-9,8.999939s-9-4.0294189-9-8.999939c0-4.9705811,4.0294189-9,9-9s9,4.0294189,9,9ZM436.7772827,225.9692993h-3.5981445l1.2294922-1.1289062c1.5693359-1.4394531,2.3388672-2.0791016,2.3388672-3.2285156,0-1.2392578-.7397461-1.9990234-2.3188477-1.9990234-1.5991211,0-2.4384766.8300781-2.4384766,2.2294922v.109375h.8891602v-.0996094c0-.9794922.4399414-1.4990234,1.5395508-1.4990234,1.019043,0,1.4189453.4794922,1.4189453,1.3193359,0,.9189453-.6894531,1.4091797-2.1689453,2.7978516l-1.5288086,1.4394531v.7998047h4.637207v-.7402344ZM442.5170288,223.2310181c0-2.5585938-.7993164-3.6181641-2.6582031-3.6181641-1.6191406,0-2.5087891.7802734-2.5087891,2.2890625s.7895508,2.2988281,2.3188477,2.2988281c.9194336,0,1.6088867-.2998047,1.9589844-.9794922v.2597656c0,1.71875-.5498047,2.5888672-1.8491211,2.5888672-.9194336,0-1.4194336-.4003906-1.4291992-1.2099609h-.859375c0,1.3095703.8193359,1.9492188,2.2885742,1.9492188,1.9389648,0,2.7382812-1.3095703,2.7382812-3.578125Z"/>
  <path class="st0" d="M291.5634155,246.1431274c.1503906.4404297.2299805,1.0292969.2299805,1.8095703,0,2.1083984-.5795898,2.8681641-1.6889648,2.8681641-.4399414,0-.7993164-.1201172-1.0693359-.3994141l2.5283203-4.2783203ZM290.1044312,245.0942993c-1.1191406,0-1.6992188.7587891-1.6992188,2.8583984,0,.7392578.0703125,1.3085938.2099609,1.7382812l2.4985352-4.2568359c-.2597656-.2402344-.5996094-.3398438-1.0092773-.3398438ZM296.3549194,248.2861938c0,4.97052-4.0294189,8.999939-9,8.999939-4.97052,0-8.999939-4.0294189-8.999939-8.999939,0-4.9705811,4.0294189-9,8.999939-9,4.9705811,0,9,4.0294189,9,9ZM287.0033569,249.5415649c0-.9794922-.4599609-1.5390625-1.2597656-1.7490234.6899414-.2597656,1.0996094-.8095703,1.0996094-1.5791016,0-1.2294922-.8393555-1.859375-2.3188477-1.859375-1.6191406,0-2.4384766.7294922-2.4384766,2.1386719h.8496094c0-.9394531.4897461-1.4189453,1.5791016-1.4189453.9692383,0,1.4492188.3896484,1.4492188,1.1699219,0,.7294922-.3598633,1.21875-1.2392578,1.21875h-1.0395508v.7402344h1.0595703c.9990234,0,1.3691406.4394531,1.3691406,1.2792969,0,.9287109-.5498047,1.3486328-1.6494141,1.3486328-1.1191406,0-1.6186523-.4697266-1.6186523-1.4091797h-.8598633c0,1.4091797.7495117,2.1289062,2.4785156,2.1289062,1.6791992,0,2.5390625-.6494141,2.5390625-2.0087891ZM292.703064,247.9526978c0-2.5087891-.8994141-3.5986328-2.5986328-3.5986328-1.7089844,0-2.5986328,1.0898438-2.5986328,3.5986328,0,2.5185547.8896484,3.5976562,2.5986328,3.5976562,1.6992188,0,2.5986328-1.0888672,2.5986328-3.5976562Z"/>
  <path class="st0" d="M309.8666382,251.0634507h2.1386719v-5.4765625l-2.0390625.3994141v-.7392578l2.1191406-.4394531h.7792969v6.2558594h2.0390625v.7402344h-5.0371094v-.7402344Z"/>
  <path class="st0" d="M336.5360718,249.5644273c1.4794922-1.3886719,2.1689453-1.8789062,2.1689453-2.7978516,0-.8398438-.3999023-1.3193359-1.4189453-1.3193359-1.0996094,0-1.5395508.5195312-1.5395508,1.4990234v.0996094h-.8891602v-.109375c0-1.3994141.8393555-2.2294922,2.4384766-2.2294922,1.5791016,0,2.3188477.7597656,2.3188477,1.9990234,0,1.1494141-.7695312,1.7890625-2.3388672,3.2285156l-1.2294922,1.1289062h3.5981445v.7402344h-4.637207v-.7998047l1.5288086-1.4394531Z"/>
  <path class="st0" d="M362.1264038,251.9032945c-1.7290039,0-2.4785156-.7197266-2.4785156-2.1289062h.8598633c0,.9394531.4995117,1.4091797,1.6186523,1.4091797,1.0996094,0,1.6494141-.4199219,1.6494141-1.3486328,0-.8398438-.3701172-1.2792969-1.3691406-1.2792969h-1.0595703v-.7402344h1.0395508c.8793945,0,1.2392578-.4892578,1.2392578-1.21875,0-.7802734-.4799805-1.1699219-1.4492188-1.1699219-1.0893555,0-1.5791016.4794922-1.5791016,1.4189453h-.8496094c0-1.4091797.8193359-2.1386719,2.4384766-2.1386719,1.4794922,0,2.3188477.6298828,2.3188477,1.859375,0,.7695312-.409668,1.3193359-1.0996094,1.5791016.7998047.2099609,1.2597656.7695312,1.2597656,1.7490234,0,1.359375-.8598633,2.0087891-2.5390625,2.0087891Z"/>
  <path class="st0" d="M388.3568726,251.8036851v-1.5498047h-3.6879883v-.6494141l2.1083984-4.796875h.9199219l-2.0888672,4.7070312h2.7485352v-2.5585938h.859375v2.5585938h.8696289v.7392578h-.8696289v1.5498047h-.859375Z"/>
  <path class="st0" d="M409.7792358,249.9345445h.8696289c0,.7998047.5498047,1.2294922,1.5888672,1.2294922,1.0996094,0,1.6591797-.5703125,1.6591797-1.6494141,0-1.109375-.5297852-1.6894531-1.559082-1.6894531-.8295898,0-1.269043.25-1.559082.8203125l-.7597656-.1201172.2202148-3.7177734h4.2973633v.7392578h-3.5478516l-.1499023,2.1689453c.3696289-.3994141.8696289-.609375,1.6289062-.609375,1.519043,0,2.3388672.8388672,2.3388672,2.3984375,0,1.5791016-.9594727,2.3984375-2.5888672,2.3984375-1.5488281,0-2.4384766-.6796875-2.4384766-1.96875Z"/>
  <path class="st0" d="M437.258728,251.9032945c-1.8588867,0-2.6586914-1.0595703-2.6586914-3.6181641,0-2.2685547.7998047-3.578125,2.7387695-3.578125,1.46875,0,2.2885742.6396484,2.2885742,1.9492188h-.859375c-.0102539-.8095703-.5097656-1.2089844-1.4291992-1.2089844-1.2993164,0-1.8491211.8691406-1.8491211,2.5878906v.2597656c.3496094-.6787109,1.0395508-.9785156,1.9589844-.9785156,1.5288086,0,2.3183594.7890625,2.3183594,2.2978516,0,1.5097656-.8891602,2.2890625-2.5083008,2.2890625ZM438.8578491,249.6044663c0-1.0195312-.5400391-1.5488281-1.5893555-1.5488281-1.0292969,0-1.5888672.5195312-1.5888672,1.5185547,0,1.0400391.5297852,1.5898438,1.5791016,1.5898438,1.0292969,0,1.5991211-.5400391,1.5991211-1.5595703Z"/>
</svg>