<?xml version="1.0" encoding="UTF-8"?>
<svg id="Layer_2" xmlns="http://www.w3.org/2000/svg" version="1.1" viewBox="0 0 720 320">
  <!-- Generator: Adobe Illustrator 29.3.1, SVG Export Plug-In . SVG Version: 2.1.0 Build 151)  -->
  <defs>
    <style>
      .st0 {
        fill: #191919;
      }
    </style>
  </defs>
  <path class="st0" d="M287.3549805,134.0479126c-5.2382812,0-9.5-4.2617188-9.5-9.5s4.2617188-9.5,9.5-9.5,9.5,4.2617188,9.5,9.5-4.2617188,9.5-9.5,9.5ZM287.3549805,116.0479126c-4.6870117,0-8.5,3.8129883-8.5,8.5s3.8129883,8.5,8.5,8.5,8.5-3.8129883,8.5-8.5-3.8129883-8.5-8.5-8.5Z"/>
  <path class="st0" d="M312.3154297,258.0171509c-5.2382812,0-9.5-4.2617188-9.5-9.5,0-5.2373047,4.2617188-9.4990234,9.5-9.4990234s9.5,4.2617188,9.5,9.4990234c0,5.2382812-4.2617188,9.5-9.5,9.5ZM312.3154297,240.0181274c-4.6870117,0-8.5,3.8125-8.5,8.4990234s3.8129883,8.5,8.5,8.5,8.5-3.8134766,8.5-8.5-3.8129883-8.4990234-8.5-8.4990234Z"/>
  <path class="st0" d="M287.3549805,258.0171509c-5.2382812,0-9.5-4.2617188-9.5-9.5,0-5.2373047,4.2617188-9.4990234,9.5-9.4990234s9.5,4.2617188,9.5,9.4990234c0,5.2382812-4.2617188,9.5-9.5,9.5ZM287.3549805,240.0181274c-4.6870117,0-8.5,3.8125-8.5,8.4990234s3.8129883,8.5,8.5,8.5,8.5-3.8134766,8.5-8.5-3.8129883-8.4990234-8.5-8.4990234Z"/>
  <path class="st0" d="M337.2875977,258.0171509c-5.2382812,0-9.5-4.2617188-9.5-9.5,0-5.2373047,4.2617188-9.4990234,9.5-9.4990234s9.5,4.2617188,9.5,9.4990234c0,5.2382812-4.2617188,9.5-9.5,9.5ZM337.2875977,240.0181274c-4.6870117,0-8.5,3.8125-8.5,8.4990234s3.8129883,8.5,8.5,8.5,8.5-3.8134766,8.5-8.5-3.8129883-8.4990234-8.5-8.4990234Z"/>
  <path class="st0" d="M362.2597656,258.0171509c-5.2382812,0-9.5-4.2617188-9.5-9.5,0-5.2373047,4.2617188-9.4990234,9.5-9.4990234s9.5,4.2617188,9.5,9.4990234c0,5.2382812-4.2617188,9.5-9.5,9.5ZM362.2597656,240.0181274c-4.6870117,0-8.5,3.8125-8.5,8.4990234s3.8129883,8.5,8.5,8.5c4.6865234,0,8.5-3.8134766,8.5-8.5s-3.8134766-8.4990234-8.5-8.4990234Z"/>
  <path class="st0" d="M387.2324219,258.0171509c-5.2382812,0-9.5-4.2617188-9.5-9.5,0-5.2373047,4.2617188-9.4990234,9.5-9.4990234s9.5,4.2617188,9.5,9.4990234c0,5.2382812-4.2617188,9.5-9.5,9.5ZM387.2324219,240.0181274c-4.6865234,0-8.5,3.8125-8.5,8.4990234s3.8134766,8.5,8.5,8.5,8.5-3.8134766,8.5-8.5-3.8134766-8.4990234-8.5-8.4990234Z"/>
  <path class="st0" d="M412.2041016,258.0171509c-5.2382812,0-9.5-4.2617188-9.5-9.5,0-5.2373047,4.2617188-9.4990234,9.5-9.4990234s9.5,4.2617188,9.5,9.4990234c0,5.2382812-4.2617188,9.5-9.5,9.5ZM412.2041016,240.0181274c-4.6865234,0-8.5,3.8125-8.5,8.4990234s3.8134766,8.5,8.5,8.5,8.5-3.8134766,8.5-8.5-3.8134766-8.4990234-8.5-8.4990234Z"/>
  <path class="st0" d="M437.1757812,258.0171509c-5.2382812,0-9.5-4.2617188-9.5-9.5,0-5.2373047,4.2617188-9.4990234,9.5-9.4990234s9.5,4.2617188,9.5,9.4990234c0,5.2382812-4.2617188,9.5-9.5,9.5ZM437.1757812,240.0181274c-4.6865234,0-8.5,3.8125-8.5,8.4990234s3.8134766,8.5,8.5,8.5,8.5-3.8134766,8.5-8.5-3.8134766-8.4990234-8.5-8.4990234Z"/>
  <path class="st0" d="M387.2324219,233.0259399c-5.2382812,0-9.5-4.2617188-9.5-9.5s4.2617188-9.5,9.5-9.5,9.5,4.2617188,9.5,9.5-4.2617188,9.5-9.5,9.5ZM387.2324219,215.0259399c-4.6865234,0-8.5,3.8134766-8.5,8.5s3.8134766,8.5,8.5,8.5,8.5-3.8134766,8.5-8.5-3.8134766-8.5-8.5-8.5Z"/>
  <path class="st0" d="M412.2041016,233.0259399c-5.2382812,0-9.5-4.2617188-9.5-9.5s4.2617188-9.5,9.5-9.5,9.5,4.2617188,9.5,9.5-4.2617188,9.5-9.5,9.5ZM412.2041016,215.0259399c-4.6865234,0-8.5,3.8134766-8.5,8.5s3.8134766,8.5,8.5,8.5,8.5-3.8134766,8.5-8.5-3.8134766-8.5-8.5-8.5Z"/>
  <path class="st0" d="M437.1757812,233.0259399c-5.2382812,0-9.5-4.2617188-9.5-9.5s4.2617188-9.5,9.5-9.5,9.5,4.2617188,9.5,9.5-4.2617188,9.5-9.5,9.5ZM437.1757812,215.0259399c-4.6865234,0-8.5,3.8134766-8.5,8.5s3.8134766,8.5,8.5,8.5,8.5-3.8134766,8.5-8.5-3.8134766-8.5-8.5-8.5Z"/>
  <path class="st0" d="M287.3549805,84.5335083c-4.9705811,0-9,4.0294189-9,9s4.0294189,9,9,9,9-4.0294189,9-9-4.0294189-9-9-9ZM289.9616699,96.7334595h-.7792969v-6.2866211l-1.2192383,4.1079102h-1.2094727l-1.2294922-4.027832v6.206543h-.7792969v-6.9960938h1.3291016l1.2993164,4.3173828,1.2592773-4.3173828h1.3291016v6.9960938Z"/>
  <path class="st0" d="M312.3245239,84.5335083c-4.97052,0-9,4.0294189-9,9s4.02948,9,9,9c4.9705811,0,9-4.0294189,9-9s-4.0294189-9-9-9ZM315.1027832,90.4868774h-2.3383789v6.246582h-.8999023v-6.246582h-2.3383789v-.7495117h5.5766602v.7495117Z"/>
  <path class="st0" d="M337.2948608,84.5335083c-4.9705811,0-9,4.0294189-9,9s4.0294189,9,9,9c4.97052,0,9-4.0294189,9-9s-4.02948-9-9-9ZM339.5637207,96.7334595h-1.309082l-.9794922-3.8676758-.9594727,3.8676758h-1.2993164l-.7895508-6.9960938h.8398438l.6894531,6.3364258.9594727-3.8779297h1.1293945l.9794922,3.8881836.7094727-6.3466797h.8295898l-.7998047,6.9960938Z"/>
  <path class="st0" d="M362.2651367,84.5335083c-4.9705811,0-9,4.0294189-9,9s4.0294189,9,9,9,9-4.0294189,9-9-4.0294189-9-9-9ZM365.0441895,90.4868774h-2.3383789v6.246582h-.8999023v-6.246582h-2.3383789v-.7495117h5.5766602v.7495117Z"/>
  <path class="st0" d="M387.2354126,84.5335083c-4.97052,0-9,4.0294189-9,9s4.02948,9,9,9c4.9705811,0,9-4.0294189,9-9s-4.0294189-9-9-9ZM389.6853027,90.4868774h-3.6982422v2.5385742h3.4584961v.7495117h-3.4584961v2.9584961h-.8994141v-6.9960938h4.5976562v.7495117Z"/>
  <path class="st0" d="M412.2057495,84.5335083c-4.9705811,0-9,4.0294189-9,9s4.0294189,9,9,9c4.97052,0,9-4.0294189,9-9s-4.02948-9-9-9ZM412.2971191,96.8335571c-1.7890625,0-2.5986328-.7998047-2.5986328-2.4389648h.8896484c.0102539,1.1494141.4897461,1.7392578,1.7089844,1.7392578,1.0795898,0,1.5195312-.4399414,1.5195312-1.2792969,0-.7797852-.3999023-1.0795898-1.359375-1.2695312l-.5498047-.1098633c-1.3793945-.2797852-2.0688477-.6796875-2.0688477-1.96875,0-1.159668.7197266-1.8691406,2.2885742-1.8691406,1.7192383,0,2.4389648.7294922,2.4389648,2.269043h-.8798828c-.0200195-1.0595703-.449707-1.5693359-1.559082-1.5693359-1.0195312,0-1.4091797.3896484-1.4091797,1.1494141,0,.8295898.4799805.9794922,1.4692383,1.1894531l.5097656.1098633c1.2592773.2695312,2.019043.7197266,2.019043,2.0087891,0,1.309082-.7695312,2.0390625-2.4189453,2.0390625Z"/>
  <path class="st0" d="M437.1760254,84.5335083c-4.9705811,0-9,4.0294189-9,9s4.0294189,9,9,9,9-4.0294189,9-9-4.0294189-9-9-9ZM437.2678223,96.8335571c-1.7890625,0-2.5986328-.7998047-2.5986328-2.4389648h.8896484c.0102539,1.1494141.4897461,1.7392578,1.7089844,1.7392578,1.0795898,0,1.5195312-.4399414,1.5195312-1.2792969,0-.7797852-.3999023-1.0795898-1.359375-1.2695312l-.5498047-.1098633c-1.3793945-.2797852-2.0688477-.6796875-2.0688477-1.96875,0-1.159668.7197266-1.8691406,2.2885742-1.8691406,1.7192383,0,2.4389648.7294922,2.4389648,2.269043h-.8798828c-.0200195-1.0595703-.449707-1.5693359-1.559082-1.5693359-1.0195312,0-1.4091797.3896484-1.4091797,1.1494141,0,.8295898.4799805.9794922,1.4692383,1.1894531l.5097656.1098633c1.2592773.2695312,2.019043.7197266,2.019043,2.0087891,0,1.309082-.7695312,2.0390625-2.4189453,2.0390625Z"/>
  <g>
    <path class="st0" d="M284.4624023,127.8447876c-1.7290039,0-2.4785156-.7197266-2.4785156-2.1289062h.8598633c0,.9394531.4995117,1.4091797,1.6186523,1.4091797,1.0996094,0,1.6494141-.4199219,1.6494141-1.3491211,0-.8398438-.3701172-1.2792969-1.3691406-1.2792969h-1.0595703v-.7397461h1.0395508c.8793945,0,1.2392578-.4897461,1.2392578-1.2192383,0-.7797852-.4799805-1.1694336-1.4492188-1.1694336-1.0893555,0-1.5791016.4794922-1.5791016,1.4189453h-.8496094c0-1.4091797.8193359-2.1386719,2.4384766-2.1386719,1.4794922,0,2.3188477.6298828,2.3188477,1.8588867,0,.7695312-.409668,1.3193359-1.0996094,1.5791016.7998047.2099609,1.2597656.7700195,1.2597656,1.7490234,0,1.359375-.8598633,2.0092773-2.5390625,2.0092773Z"/>
    <path class="st0" d="M287.5039062,124.2466431c0-2.5087891.8896484-3.5981445,2.5986328-3.5981445,1.6992188,0,2.5986328,1.0893555,2.5986328,3.5981445s-.8994141,3.5981445-2.5986328,3.5981445c-1.7089844,0-2.5986328-1.0795898-2.5986328-3.5981445ZM288.6132812,125.9854126l2.4985352-4.2573242c-.2597656-.2397461-.5996094-.3398438-1.0092773-.3398438-1.1191406,0-1.6992188.7592773-1.6992188,2.8583984,0,.7397461.0703125,1.309082.2099609,1.7387695ZM291.7915039,124.2466431c0-.7797852-.0795898-1.3691406-.2299805-1.809082l-2.5283203,4.277832c.2700195.2797852.6293945.3994141,1.0693359.3994141,1.109375,0,1.6889648-.7592773,1.6889648-2.8681641Z"/>
  </g>
  <path class="st0" d="M312.3232422,115.5478516c-4.9705811,0-9,4.0294189-9,8.999939,0,4.9705811,4.0294189,9,9,9s9-4.0294189,9-9c0-4.97052-4.0294189-8.999939-9-8.999939ZM314.9018555,127.7446899h-5.0371094v-.7397461h2.1386719v-5.4770508l-2.0390625.3999023v-.7392578l2.1191406-.4399414h.7792969v6.2563477h2.0390625v.7397461Z"/>
  <path class="st0" d="M337.2939453,115.5478516c-4.9705811,0-9,4.0294189-9,8.999939,0,4.9705811,4.0294189,9,9,9s9-4.0294189,9-9c0-4.97052-4.0294189-8.999939-9-8.999939ZM339.6425781,127.7446899h-4.637207v-.7993164l1.5288086-1.4394531c1.4794922-1.3891602,2.1689453-1.8789062,2.1689453-2.7983398,0-.8398438-.3999023-1.3193359-1.4189453-1.3193359-1.0996094,0-1.5395508.5195312-1.5395508,1.4990234v.1000977h-.8891602v-.1098633c0-1.3994141.8393555-2.2290039,2.4384766-2.2290039,1.5791016,0,2.3188477.7597656,2.3188477,1.9990234,0,1.1494141-.7695312,1.7890625-2.3388672,3.2280273l-1.2294922,1.1293945h3.5981445v.7397461Z"/>
  <path class="st0" d="M362.2646484,115.5478516c-4.9705811,0-9,4.0294189-9,8.999939,0,4.9705811,4.0294189,9,9,9s9-4.0294189,9-9c0-4.97052-4.0294189-8.999939-9-8.999939ZM362.125,127.8447876c-1.7294922,0-2.4790039-.7197266-2.4790039-2.1289062h.8598633c0,.9394531.5,1.4091797,1.6191406,1.4091797,1.0996094,0,1.6494141-.4199219,1.6494141-1.3491211,0-.8398438-.3701172-1.2792969-1.3691406-1.2792969h-1.0595703v-.7397461h1.0390625c.8798828,0,1.2392578-.4897461,1.2392578-1.2192383,0-.7797852-.4794922-1.1694336-1.4492188-1.1694336-1.0888672,0-1.5791016.4794922-1.5791016,1.4189453h-.8496094c0-1.4091797.8193359-2.1386719,2.4384766-2.1386719,1.4794922,0,2.3193359.6298828,2.3193359,1.8588867,0,.7695312-.4101562,1.3193359-1.0996094,1.5791016.7998047.2099609,1.2597656.7700195,1.2597656,1.7490234,0,1.359375-.8603516,2.0092773-2.5390625,2.0092773Z"/>
  <path class="st0" d="M387.2353516,115.5478516c-4.9705811,0-9,4.0294189-9,8.999939,0,4.9705811,4.0294189,9,9,9s9-4.0294189,9-9c0-4.97052-4.0294189-8.999939-9-8.999939ZM390.0839844,126.1953735h-.8691406v1.5493164h-.859375v-1.5493164h-3.6884766v-.6494141l2.1083984-4.7973633h.9199219l-2.0888672,4.7075195h2.7490234v-2.5585938h.859375v2.5585938h.8691406v.7392578Z"/>
  <path class="st0" d="M412.2060547,115.5478516c-4.9705811,0-9,4.0294189-9,8.999939,0,4.9705811,4.0294189,9,9,9s9-4.0294189,9-9c0-4.97052-4.0294189-8.999939-9-8.999939ZM412.2158203,127.8447876c-1.5488281,0-2.4384766-.6796875-2.4384766-1.9692383h.8701172c0,.7998047.5498047,1.2294922,1.5888672,1.2294922,1.0996094,0,1.6591797-.5698242,1.6591797-1.6489258,0-1.109375-.5302734-1.6894531-1.5595703-1.6894531-.8291016,0-1.2685547.25-1.5585938.8198242l-.7597656-.1201172.2197266-3.7177734h4.2978516v.7397461h-3.5478516l-.1503906,2.168457c.3701172-.3994141.8701172-.609375,1.6289062-.609375,1.5195312,0,2.3388672.8393555,2.3388672,2.3984375,0,1.5791016-.9589844,2.3989258-2.5888672,2.3989258Z"/>
  <path class="st0" d="M437.1767578,115.5478516c-4.9705811,0-9,4.0294189-9,8.999939,0,4.9705811,4.0294189,9,9,9s9-4.0294189,9-9c0-4.97052-4.0294189-8.999939-9-8.999939ZM437.2568359,127.8447876c-1.8583984,0-2.6582031-1.0595703-2.6582031-3.6181641,0-2.2685547.7998047-3.578125,2.7382812-3.578125,1.46875,0,2.2890625.6396484,2.2890625,1.9492188h-.859375c-.0107422-.8095703-.5097656-1.2094727-1.4296875-1.2094727-1.2988281,0-1.8486328.8696289-1.8486328,2.5883789v.2597656c.3496094-.6791992,1.0390625-.9790039,1.9589844-.9790039,1.5283203,0,2.3183594.7895508,2.3183594,2.2983398,0,1.5092773-.8896484,2.2890625-2.5087891,2.2890625ZM438.8564453,125.5459595c0,1.0195312-.5703125,1.559082-1.5996094,1.559082-1.0488281,0-1.5791016-.5498047-1.5791016-1.5893555,0-.9990234.5595703-1.519043,1.5888672-1.519043,1.0498047,0,1.5898438.5297852,1.5898438,1.5493164Z"/>
  <path class="st0" d="M287.3549805,140.2923584c-4.9705811,0-9,4.0294189-9,8.999939,0,4.9705811,4.0294189,9,9,9s9-4.0294189,9-9c0-4.97052-4.0294189-8.999939-9-8.999939ZM289.8012695,146.2295532l-3.0283203,6.2563477h-.9194336l3.0683594-6.2563477h-4.1079102v-.7397461h4.9873047v.7397461Z"/>
  <path class="st0" d="M310.8442383,147.3086548c0-.7895508.4794922-1.2192383,1.4990234-1.2192383.9892578,0,1.4492188.4296875,1.4492188,1.2192383s-.5195312,1.2094727-1.4790039,1.2094727c-.949707,0-1.4692383-.4199219-1.4692383-1.2094727ZM312.3134766,149.2276001c-1.0898438,0-1.6791992.4799805-1.6791992,1.3491211,0,.8496094.5395508,1.3095703,1.6791992,1.3095703,1.1489258,0,1.6987305-.4599609,1.6987305-1.3095703,0-.8691406-.5996094-1.3491211-1.6987305-1.3491211ZM321.3232422,149.2922974c0,4.9705811-4.0294189,9-9,9s-9-4.0294189-9-9c0-4.97052,4.0294189-8.999939,9-8.999939s9,4.0294189,9,8.999939ZM314.921875,150.6470337c0-.9394531-.5-1.559082-1.4594727-1.809082.7895508-.2397461,1.2094727-.7797852,1.2094727-1.5893555,0-1.2192383-.7695312-1.8588867-2.3583984-1.8588867-1.5791016,0-2.3388672.6396484-2.3388672,1.8588867,0,.8095703.409668,1.3496094,1.1992188,1.5893555-.9492188.25-1.4492188.8696289-1.4492188,1.809082,0,1.2792969.8398438,1.9389648,2.5888672,1.9389648s2.6083984-.659668,2.6083984-1.9389648Z"/>
  <path class="st0" d="M338.8032227,147.7183228c0,.9995117-.5595703,1.5195312-1.5893555,1.5195312-1.0493164,0-1.5888672-.5297852-1.5888672-1.5493164s.5693359-1.559082,1.5991211-1.559082c1.0493164,0,1.5791016.5498047,1.5791016,1.5888672ZM346.2939453,149.2922974c0,4.9705811-4.0294189,9-9,9s-9-4.0294189-9-9c0-4.97052,4.0294189-8.999939,9-8.999939s9,4.0294189,9,8.999939ZM339.8823242,149.0078735c0-2.5585938-.7993164-3.6181641-2.6582031-3.6181641-1.6191406,0-2.5087891.7797852-2.5087891,2.2890625,0,1.5087891.7895508,2.2983398,2.3188477,2.2983398.9194336,0,1.6088867-.2998047,1.9589844-.9794922v.2602539c0,1.71875-.5498047,2.5883789-1.8491211,2.5883789-.9194336,0-1.4194336-.3999023-1.4291992-1.2094727h-.859375c0,1.3095703.8193359,1.9492188,2.2885742,1.9492188,1.9389648,0,2.7382812-1.3095703,2.7382812-3.578125Z"/>
  <path class="st0" d="M366.0244141,146.4692993l-2.4990234,4.2573242c-.1396484-.4296875-.2099609-.9990234-.2099609-1.7387695,0-2.0991211.5800781-2.8583984,1.6992188-2.8583984.4101562,0,.75.1000977,1.0097656.3398438ZM363.9453125,151.456604c.2705078.2797852.6298828.3994141,1.0693359.3994141,1.109375,0,1.6894531-.7592773,1.6894531-2.8681641,0-.7797852-.0800781-1.3691406-.2304688-1.809082l-2.5283203,4.277832ZM371.2646484,149.2922974c0,4.9705811-4.0294189,9-9,9s-9-4.0294189-9-9c0-4.97052,4.0294189-8.999939,9-8.999939s9,4.0294189,9,8.999939ZM362.09375,151.7461548h-2.0395508v-6.2563477h-.7792969l-2.1191406.4399414v.7392578l2.0390625-.3999023v5.4770508h-2.1386719v.7397461h5.0375977v-.7397461ZM367.6132812,148.987854c0-2.5087891-.8994141-3.5981445-2.5986328-3.5981445-1.7089844,0-2.5986328,1.0893555-2.5986328,3.5981445,0,2.5185547.8896484,3.5981445,2.5986328,3.5981445,1.6992188,0,2.5986328-1.0893555,2.5986328-3.5981445Z"/>
  <path class="st0" d="M387.2353516,140.2923584c-4.9705811,0-9,4.0294189-9,8.999939,0,4.9705811,4.0294189,9,9,9s9-4.0294189,9-9c0-4.97052-4.0294189-8.999939-9-8.999939ZM387.0644531,152.4859009h-5.0371094v-.7397461h2.1386719v-5.4770508l-2.0390625.3999023v-.7392578l2.1191406-.4399414h.7792969v6.2563477h2.0390625v.7397461ZM392.5644531,152.4859009h-5.0371094v-.7397461h2.1386719v-5.4770508l-2.0390625.3999023v-.7392578l2.1191406-.4399414h.7792969v6.2563477h2.0390625v.7397461Z"/>
  <path class="st0" d="M412.2060547,140.2923584c-4.9705811,0-9,4.0294189-9,8.999939,0,4.9705811,4.0294189,9,9,9s9-4.0294189,9-9c0-4.97052-4.0294189-8.999939-9-8.999939ZM412.0351562,152.4859009h-5.0371094v-.7397461h2.1386719v-5.4770508l-2.0390625.3999023v-.7392578l2.1191406-.4399414h.7792969v6.2563477h2.0390625v.7397461ZM417.3046875,152.4859009h-4.6367188v-.7993164l1.5283203-1.4394531c1.4794922-1.3891602,2.1689453-1.8789062,2.1689453-2.7983398,0-.8398438-.3994141-1.3193359-1.4189453-1.3193359-1.0996094,0-1.5390625.5195312-1.5390625,1.4990234v.1000977h-.8896484v-.1098633c0-1.3994141.8398438-2.2290039,2.4384766-2.2290039,1.5791016,0,2.3193359.7597656,2.3193359,1.9990234,0,1.1494141-.7695312,1.7890625-2.3388672,3.2280273l-1.2294922,1.1293945h3.5976562v.7397461Z"/>
  <path class="st0" d="M437.1767578,140.2923584c-4.9705811,0-9,4.0294189-9,8.999939,0,4.9705811,4.0294189,9,9,9s9-4.0294189,9-9c0-4.97052-4.0294189-8.999939-9-8.999939ZM437.0058594,152.4859009h-5.0371094v-.7397461h2.1386719v-5.4770508l-2.0390625.3999023v-.7392578l2.1191406-.4399414h.7792969v6.2563477h2.0390625v.7397461ZM439.7871094,152.5859985c-1.7294922,0-2.4785156-.7197266-2.4785156-2.1289062h.859375c0,.9394531.5,1.4091797,1.6191406,1.4091797,1.0996094,0,1.6494141-.4199219,1.6494141-1.3491211,0-.8398438-.3701172-1.2792969-1.3691406-1.2792969h-1.0595703v-.7397461h1.0390625c.8798828,0,1.2392578-.4897461,1.2392578-1.2192383,0-.7797852-.4794922-1.1694336-1.4492188-1.1694336-1.0888672,0-1.5791016.4794922-1.5791016,1.4189453h-.8496094c0-1.4091797.8193359-2.1386719,2.4384766-2.1386719,1.4794922,0,2.3193359.6298828,2.3193359,1.8588867,0,.7695312-.4101562,1.3193359-1.0996094,1.5791016.7998047.2099609,1.2597656.7700195,1.2597656,1.7490234,0,1.359375-.8603516,2.0092773-2.5390625,2.0092773Z"/>
  <path class="st0" d="M287.3549805,165.0368652c-4.9705811,0-9,4.0294189-9,8.999939,0,4.9705811,4.0294189,9,9,9s9-4.0294189,9-9c0-4.97052-4.0294189-8.999939-9-8.999939ZM287.1811523,177.2271118h-5.0371094v-.7402344h2.1386719v-5.4765625l-2.0390625.3994141v-.7392578l2.1191406-.4394531h.7792969v6.2558594h2.0390625v.7402344ZM292.9511719,175.6773071h-.8696289v1.5498047h-.859375v-1.5498047h-3.6879883v-.6494141l2.1083984-4.796875h.9199219l-2.0888672,4.7070312h2.7485352v-2.5585938h.859375v2.5585938h.8696289v.7392578Z"/>
  <path class="st0" d="M312.3232422,165.0368652c-4.9705811,0-9,4.0294189-9,8.999939,0,4.9705811,4.0294189,9,9,9s9-4.0294189,9-9c0-4.97052-4.0294189-8.999939-9-8.999939ZM312.1518555,177.2271118h-5.0371094v-.7402344h2.1386719v-5.4765625l-2.0390625.3994141v-.7392578l2.1191406-.4394531h.7792969v6.2558594h2.0390625v.7402344ZM315.0830078,177.3267212c-1.5488281,0-2.4384766-.6796875-2.4384766-1.96875h.8696289c0,.7998047.5498047,1.2294922,1.5888672,1.2294922,1.0996094,0,1.6591797-.5703125,1.6591797-1.6494141,0-1.109375-.5297852-1.6894531-1.559082-1.6894531-.8295898,0-1.269043.25-1.559082.8203125l-.7597656-.1201172.2202148-3.7177734h4.2973633v.7392578h-3.5478516l-.1499023,2.1689453c.3696289-.3994141.8696289-.609375,1.6289062-.609375,1.519043,0,2.3388672.8388672,2.3388672,2.3984375,0,1.5791016-.9594727,2.3984375-2.5888672,2.3984375Z"/>
  <path class="st0" d="M341.7231445,175.0278931c0,1.0195312-.5698242,1.5595703-1.5991211,1.5595703-1.0493164,0-1.5791016-.5498047-1.5791016-1.5898438,0-.9990234.5595703-1.5185547,1.5888672-1.5185547,1.0493164,0,1.5893555.5292969,1.5893555,1.5488281ZM346.2939453,174.0368042c0,4.9705811-4.0294189,9-9,9s-9-4.0294189-9-9c0-4.97052,4.0294189-8.999939,9-8.999939s9,4.0294189,9,8.999939ZM337.1225586,176.4868774h-2.0390625v-6.2558594h-.7792969l-2.1191406.4394531v.7392578l2.0390625-.3994141v5.4765625h-2.1386719v.7402344h5.0371094v-.7402344ZM342.6323242,175.0376587c0-1.5087891-.7895508-2.2978516-2.3183594-2.2978516-.9194336,0-1.609375.2998047-1.9589844.9785156v-.2597656c0-1.71875.5498047-2.5878906,1.8491211-2.5878906.9194336,0,1.4189453.3994141,1.4291992,1.2089844h.859375c0-1.3095703-.8198242-1.9492188-2.2885742-1.9492188-1.9389648,0-2.7387695,1.3095703-2.7387695,3.578125,0,2.5585938.7998047,3.6181641,2.6586914,3.6181641,1.6191406,0,2.5083008-.7792969,2.5083008-2.2890625Z"/>
  <path class="st0" d="M362.2646484,165.0368652c-4.9705811,0-9,4.0294189-9,8.999939,0,4.9705811,4.0294189,9,9,9s9-4.0294189,9-9c0-4.97052-4.0294189-8.999939-9-8.999939ZM362.09375,177.2271118h-5.0375977v-.7402344h2.1386719v-5.4765625l-2.0390625.3994141v-.7392578l2.1191406-.4394531h.7792969v6.2558594h2.0395508v.7402344ZM367.4638672,170.9702759l-3.0283203,6.2568359h-.9199219l3.0683594-6.2568359h-4.1074219v-.7392578h4.9873047v.7392578Z"/>
  <path class="st0" d="M388.5068359,172.0493774c0-.7890625.4794922-1.21875,1.4990234-1.21875.9892578,0,1.4492188.4296875,1.4492188,1.21875,0,.7900391-.5195312,1.2099609-1.4794922,1.2099609-.9492188,0-1.46875-.4199219-1.46875-1.2099609ZM389.9755859,173.9683228c-1.0898438,0-1.6787109.4804688-1.6787109,1.3496094,0,.8496094.5390625,1.3095703,1.6787109,1.3095703,1.1494141,0,1.6992188-.4599609,1.6992188-1.3095703,0-.8691406-.5996094-1.3496094-1.6992188-1.3496094ZM396.2353516,174.0368042c0,4.9705811-4.0294189,9-9,9s-9-4.0294189-9-9c0-4.97052,4.0294189-8.999939,9-8.999939s9,4.0294189,9,8.999939ZM387.0644531,176.4868774h-2.0390625v-6.2558594h-.7792969l-2.1191406.4394531v.7392578l2.0390625-.3994141v5.4765625h-2.1386719v.7402344h5.0371094v-.7402344ZM392.5839844,175.3882446c0-.9394531-.5-1.5595703-1.4589844-1.8095703.7890625-.2392578,1.2089844-.7792969,1.2089844-1.5888672,0-1.2197266-.7695312-1.859375-2.3583984-1.859375-1.5791016,0-2.3388672.6396484-2.3388672,1.859375,0,.8095703.4101562,1.3496094,1.1992188,1.5888672-.9492188.25-1.4492188.8701172-1.4492188,1.8095703,0,1.2792969.8398438,1.9384766,2.5888672,1.9384766s2.6083984-.6591797,2.6083984-1.9384766Z"/>
  <path class="st0" d="M416.4658203,172.4595337c0,.9990234-.5595703,1.5195312-1.5898438,1.5195312-1.0488281,0-1.5888672-.5302734-1.5888672-1.5498047s.5693359-1.5585938,1.5996094-1.5585938c1.0488281,0,1.5791016.5498047,1.5791016,1.5888672ZM421.2060547,174.0368042c0,4.9705811-4.0294189,9-9,9s-9-4.0294189-9-9c0-4.97052,4.0294189-8.999939,9-8.999939s9,4.0294189,9,8.999939ZM412.0351562,176.4868774h-2.0390625v-6.2558594h-.7792969l-2.1191406.4394531v.7392578l2.0390625-.3994141v5.4765625h-2.1386719v.7402344h5.0371094v-.7402344ZM417.5449219,173.7485962c0-2.5585938-.7998047-3.6181641-2.6582031-3.6181641-1.6191406,0-2.5087891.7802734-2.5087891,2.2890625s.7890625,2.2988281,2.3183594,2.2988281c.9199219,0,1.609375-.2998047,1.9589844-.9794922v.2597656c0,1.71875-.5498047,2.5888672-1.8486328,2.5888672-.9199219,0-1.4199219-.4003906-1.4296875-1.2099609h-.859375c0,1.3095703.8193359,1.9492188,2.2890625,1.9492188,1.9384766,0,2.7382812-1.3095703,2.7382812-3.578125Z"/>
  <path class="st0" d="M441.3857422,171.9194946c.1503906.4404297.2304688,1.0292969.2304688,1.8095703,0,2.1083984-.5800781,2.8681641-1.6894531,2.8681641-.4394531,0-.7988281-.1201172-1.0693359-.3994141l2.5283203-4.2783203ZM439.9267578,170.8706665c-1.1191406,0-1.6992188.7587891-1.6992188,2.8583984,0,.7392578.0703125,1.3085938.2099609,1.7382812l2.4990234-4.2568359c-.2597656-.2402344-.5996094-.3398438-1.0097656-.3398438ZM446.1767578,174.0368042c0,4.9705811-4.0294189,9-9,9s-9-4.0294189-9-9c0-4.97052,4.0294189-8.999939,9-8.999939s9,4.0294189,9,8.999939ZM436.7753906,176.4868774h-3.5976562l1.2294922-1.1289062c1.5693359-1.4394531,2.3388672-2.0791016,2.3388672-3.2285156,0-1.2392578-.7402344-1.9990234-2.3193359-1.9990234-1.5986328,0-2.4384766.8300781-2.4384766,2.2294922v.109375h.8896484v-.0996094c0-.9794922.4394531-1.4990234,1.5390625-1.4990234,1.0195312,0,1.4189453.4794922,1.4189453,1.3193359,0,.9189453-.6894531,1.4091797-2.1689453,2.7978516l-1.5283203,1.4394531v.7998047h4.6367188v-.7402344ZM442.5253906,173.7290649c0-2.5087891-.8994141-3.5986328-2.5986328-3.5986328-1.7089844,0-2.5986328,1.0898438-2.5986328,3.5986328,0,2.5185547.8896484,3.5976562,2.5986328,3.5976562,1.6992188,0,2.5986328-1.0888672,2.5986328-3.5976562Z"/>
  <path class="st0" d="M287.3549805,189.7813721c-4.9705811,0-9,4.0294189-9,8.999939,0,4.9705811,4.0294189,9,9,9s9-4.0294189,9-9c0-4.97052-4.0294189-8.999939-9-8.999939ZM286.9511719,201.9683228h-4.637207v-.7998047l1.5288086-1.4394531c1.4794922-1.3886719,2.1689453-1.8789062,2.1689453-2.7978516,0-.8398438-.3999023-1.3193359-1.4189453-1.3193359-1.0996094,0-1.5395508.5195312-1.5395508,1.4990234v.0996094h-.8891602v-.109375c0-1.3994141.8393555-2.2294922,2.4384766-2.2294922,1.5791016,0,2.3188477.7597656,2.3188477,1.9990234,0,1.1494141-.7695312,1.7890625-2.3388672,3.2285156l-1.2294922,1.1289062h3.5981445v.7402344ZM292.6811523,201.9683228h-5.0371094v-.7402344h2.1386719v-5.4765625l-2.0390625.3994141v-.7392578l2.1191406-.4394531h.7792969v6.2558594h2.0390625v.7402344Z"/>
  <path class="st0" d="M312.3232422,189.7813721c-4.9705811,0-9,4.0294189-9,8.999939,0,4.9705811,4.0294189,9,9,9s9-4.0294189,9-9c0-4.97052-4.0294189-8.999939-9-8.999939ZM311.921875,201.9683228h-4.637207v-.7998047l1.5288086-1.4394531c1.4794922-1.3886719,2.1689453-1.8789062,2.1689453-2.7978516,0-.8398438-.3999023-1.3193359-1.4189453-1.3193359-1.0996094,0-1.5395508.5195312-1.5395508,1.4990234v.0996094h-.8891602v-.109375c0-1.3994141.8393555-2.2294922,2.4384766-2.2294922,1.5791016,0,2.3188477.7597656,2.3188477,1.9990234,0,1.1494141-.7695312,1.7890625-2.3388672,3.2285156l-1.2294922,1.1289062h3.5981445v.7402344ZM317.421875,201.9683228h-4.637207v-.7998047l1.5288086-1.4394531c1.4794922-1.3886719,2.1689453-1.8789062,2.1689453-2.7978516,0-.8398438-.3999023-1.3193359-1.4189453-1.3193359-1.0996094,0-1.5395508.5195312-1.5395508,1.4990234v.0996094h-.8891602v-.109375c0-1.3994141.8393555-2.2294922,2.4384766-2.2294922,1.5791016,0,2.3188477.7597656,2.3188477,1.9990234,0,1.1494141-.7695312,1.7890625-2.3388672,3.2285156l-1.2294922,1.1289062h3.5981445v.7402344Z"/>
  <path class="st0" d="M337.2939453,189.7813721c-4.9705811,0-9,4.0294189-9,8.999939,0,4.9705811,4.0294189,9,9,9s9-4.0294189,9-9c0-4.97052-4.0294189-8.999939-9-8.999939ZM336.8925781,201.9683228h-4.637207v-.7998047l1.5288086-1.4394531c1.4794922-1.3886719,2.1689453-1.8789062,2.1689453-2.7978516,0-.8398438-.3999023-1.3193359-1.4189453-1.3193359-1.0996094,0-1.5395508.5195312-1.5395508,1.4990234v.0996094h-.8891602v-.109375c0-1.3994141.8393555-2.2294922,2.4384766-2.2294922,1.5791016,0,2.3188477.7597656,2.3188477,1.9990234,0,1.1494141-.7695312,1.7890625-2.3388672,3.2285156l-1.2294922,1.1289062h3.5981445v.7402344ZM339.9038086,202.0679321c-1.7290039,0-2.4785156-.7197266-2.4785156-2.1289062h.8598633c0,.9394531.4995117,1.4091797,1.6186523,1.4091797,1.0996094,0,1.6494141-.4199219,1.6494141-1.3486328,0-.8398438-.3701172-1.2792969-1.3691406-1.2792969h-1.0595703v-.7402344h1.0395508c.8793945,0,1.2392578-.4892578,1.2392578-1.21875,0-.7802734-.4799805-1.1699219-1.4492188-1.1699219-1.0893555,0-1.5791016.4794922-1.5791016,1.4189453h-.8496094c0-1.4091797.8193359-2.1386719,2.4384766-2.1386719,1.4794922,0,2.3188477.6298828,2.3188477,1.859375,0,.7695312-.409668,1.3193359-1.0996094,1.5791016.7998047.2099609,1.2597656.7695312,1.2597656,1.7490234,0,1.359375-.8598633,2.0087891-2.5390625,2.0087891Z"/>
  <path class="st0" d="M362.2646484,189.7813721c-4.9705811,0-9,4.0294189-9,8.999939,0,4.9705811,4.0294189,9,9,9s9-4.0294189,9-9c0-4.97052-4.0294189-8.999939-9-8.999939ZM361.8632812,201.9683228h-4.637207v-.7998047l1.5288086-1.4394531c1.4794922-1.3886719,2.1689453-1.8789062,2.1689453-2.7978516,0-.8398438-.3999023-1.3193359-1.4189453-1.3193359-1.0996094,0-1.5395508.5195312-1.5395508,1.4990234v.0996094h-.8891602v-.109375c0-1.3994141.8393555-2.2294922,2.4384766-2.2294922,1.5791016,0,2.3193359.7597656,2.3193359,1.9990234,0,1.1494141-.7695312,1.7890625-2.3393555,3.2285156l-1.2294922,1.1289062h3.5981445v.7402344ZM367.8632812,200.4185181h-.8691406v1.5498047h-.859375v-1.5498047h-3.6884766v-.6494141l2.1083984-4.796875h.9199219l-2.0888672,4.7070312h2.7490234v-2.5585938h.859375v2.5585938h.8691406v.7392578Z"/>
  <path class="st0" d="M387.2353516,189.7813721c-4.9705811,0-9,4.0294189-9,8.999939,0,4.9705811,4.0294189,9,9,9s9-4.0294189,9-9c0-4.97052-4.0294189-8.999939-9-8.999939ZM386.8339844,201.9683228h-4.6367188v-.7998047l1.5283203-1.4394531c1.4794922-1.3886719,2.1689453-1.8789062,2.1689453-2.7978516,0-.8398438-.3994141-1.3193359-1.4189453-1.3193359-1.0996094,0-1.5390625.5195312-1.5390625,1.4990234v.0996094h-.8896484v-.109375c0-1.3994141.8398438-2.2294922,2.4384766-2.2294922,1.5791016,0,2.3193359.7597656,2.3193359,1.9990234,0,1.1494141-.7695312,1.7890625-2.3388672,3.2285156l-1.2294922,1.1289062h3.5976562v.7402344ZM389.9951172,202.0679321c-1.5488281,0-2.4384766-.6796875-2.4384766-1.96875h.8701172c0,.7998047.5498047,1.2294922,1.5888672,1.2294922,1.0996094,0,1.6591797-.5703125,1.6591797-1.6494141,0-1.109375-.5302734-1.6894531-1.5595703-1.6894531-.8291016,0-1.2685547.25-1.5585938.8203125l-.7597656-.1201172.2197266-3.7177734h4.2978516v.7392578h-3.5478516l-.1503906,2.1689453c.3701172-.3994141.8701172-.609375,1.6289062-.609375,1.5195312,0,2.3388672.8388672,2.3388672,2.3984375,0,1.5791016-.9589844,2.3984375-2.5888672,2.3984375Z"/>
  <path class="st0" d="M412.2060547,189.7813721c-4.9705811,0-9,4.0294189-9,8.999939,0,4.9705811,4.0294189,9,9,9s9-4.0294189,9-9c0-4.97052-4.0294189-8.999939-9-8.999939ZM411.8046875,201.9683228h-4.6367188v-.7998047l1.5283203-1.4394531c1.4794922-1.3886719,2.1689453-1.8789062,2.1689453-2.7978516,0-.8398438-.3994141-1.3193359-1.4189453-1.3193359-1.0996094,0-1.5390625.5195312-1.5390625,1.4990234v.0996094h-.8896484v-.109375c0-1.3994141.8398438-2.2294922,2.4384766-2.2294922,1.5791016,0,2.3193359.7597656,2.3193359,1.9990234,0,1.1494141-.7695312,1.7890625-2.3388672,3.2285156l-1.2294922,1.1289062h3.5976562v.7402344ZM415.0361328,202.0679321c-1.8583984,0-2.6582031-1.0595703-2.6582031-3.6181641,0-2.2685547.7998047-3.578125,2.7382812-3.578125,1.46875,0,2.2890625.6396484,2.2890625,1.9492188h-.859375c-.0107422-.8095703-.5097656-1.2089844-1.4296875-1.2089844-1.2988281,0-1.8486328.8691406-1.8486328,2.5878906v.2597656c.3496094-.6787109,1.0390625-.9785156,1.9589844-.9785156,1.5283203,0,2.3183594.7890625,2.3183594,2.2978516,0,1.5097656-.8896484,2.2890625-2.5087891,2.2890625ZM416.6357422,199.769104c0,1.0195312-.5703125,1.5595703-1.5996094,1.5595703-1.0488281,0-1.5791016-.5498047-1.5791016-1.5898438,0-.9990234.5595703-1.5185547,1.5888672-1.5185547,1.0498047,0,1.5898438.5292969,1.5898438,1.5488281Z"/>
  <path class="st0" d="M437.1767578,189.7813721c-4.9705811,0-9,4.0294189-9,8.999939,0,4.9705811,4.0294189,9,9,9s9-4.0294189,9-9c0-4.97052-4.0294189-8.999939-9-8.999939ZM436.7753906,201.9683228h-4.6367188v-.7998047l1.5283203-1.4394531c1.4794922-1.3886719,2.1689453-1.8789062,2.1689453-2.7978516,0-.8398438-.3994141-1.3193359-1.4189453-1.3193359-1.0996094,0-1.5390625.5195312-1.5390625,1.4990234v.0996094h-.8896484v-.109375c0-1.3994141.8398438-2.2294922,2.4384766-2.2294922,1.5791016,0,2.3193359.7597656,2.3193359,1.9990234,0,1.1494141-.7695312,1.7890625-2.3388672,3.2285156l-1.2294922,1.1289062h3.5976562v.7402344ZM442.3759766,195.7114868l-3.0283203,6.2568359h-.9199219l3.0683594-6.2568359h-4.1074219v-.7392578h4.9873047v.7392578Z"/>
  <path class="st0" d="M288.6235352,221.5317993c0-.7890625.4794922-1.21875,1.4990234-1.21875.9892578,0,1.4492188.4296875,1.4492188,1.21875,0,.7900391-.5195312,1.2099609-1.4790039,1.2099609-.949707,0-1.4692383-.4199219-1.4692383-1.2099609ZM290.0927734,223.4507446c-1.0898438,0-1.6791992.4804688-1.6791992,1.3496094,0,.8496094.5395508,1.3095703,1.6791992,1.3095703,1.1489258,0,1.6987305-.4599609,1.6987305-1.3095703,0-.8691406-.5996094-1.3496094-1.6987305-1.3496094ZM296.3549805,223.5258179c0,4.9705811-4.0294189,9-9,9s-9-4.0294189-9-9c0-4.97052,4.0294189-8.999939,9-8.999939s9,4.0294189,9,8.999939ZM286.9511719,225.9692993h-3.5981445l1.2294922-1.1289062c1.5693359-1.4394531,2.3388672-2.0791016,2.3388672-3.2285156,0-1.2392578-.7397461-1.9990234-2.3188477-1.9990234-1.5991211,0-2.4384766.8300781-2.4384766,2.2294922v.109375h.8891602v-.0996094c0-.9794922.4399414-1.4990234,1.5395508-1.4990234,1.019043,0,1.4189453.4794922,1.4189453,1.3193359,0,.9189453-.6894531,1.4091797-2.1689453,2.7978516l-1.5288086,1.4394531v.7998047h4.637207v-.7402344ZM292.7011719,224.8706665c0-.9394531-.5-1.5595703-1.4594727-1.8095703.7895508-.2392578,1.2094727-.7792969,1.2094727-1.5888672,0-1.2197266-.7695312-1.859375-2.3583984-1.859375-1.5791016,0-2.3388672.6396484-2.3388672,1.859375,0,.8095703.409668,1.3496094,1.1992188,1.5888672-.9492188.25-1.4492188.8701172-1.4492188,1.8095703,0,1.2792969.8398438,1.9384766,2.5888672,1.9384766s2.6083984-.6591797,2.6083984-1.9384766Z"/>
  <path class="st0" d="M316.5825195,221.9419556c0,.9990234-.5595703,1.5195312-1.5893555,1.5195312-1.0493164,0-1.5888672-.5302734-1.5888672-1.5498047s.5693359-1.5585938,1.5991211-1.5585938c1.0493164,0,1.5791016.5498047,1.5791016,1.5888672ZM321.3232422,223.5258179c0,4.9705811-4.0294189,9-9,9s-9-4.0294189-9-9c0-4.97052,4.0294189-8.999939,9-8.999939s9,4.0294189,9,8.999939ZM311.921875,225.9692993h-3.5981445l1.2294922-1.1289062c1.5693359-1.4394531,2.3388672-2.0791016,2.3388672-3.2285156,0-1.2392578-.7397461-1.9990234-2.3188477-1.9990234-1.5991211,0-2.4384766.8300781-2.4384766,2.2294922v.109375h.8891602v-.0996094c0-.9794922.4399414-1.4990234,1.5395508-1.4990234,1.019043,0,1.4189453.4794922,1.4189453,1.3193359,0,.9189453-.6894531,1.4091797-2.1689453,2.7978516l-1.5288086,1.4394531v.7998047h4.637207v-.7402344ZM317.6616211,223.2310181c0-2.5585938-.7993164-3.6181641-2.6582031-3.6181641-1.6191406,0-2.5087891.7802734-2.5087891,2.2890625s.7895508,2.2988281,2.3188477,2.2988281c.9194336,0,1.6088867-.2998047,1.9589844-.9794922v.2597656c0,1.71875-.5498047,2.5888672-1.8491211,2.5888672-.9194336,0-1.4194336-.4003906-1.4291992-1.2099609h-.859375c0,1.3095703.8193359,1.9492188,2.2885742,1.9492188,1.9389648,0,2.7382812-1.3095703,2.7382812-3.578125Z"/>
  <path class="st0" d="M341.5029297,221.4019165c.1503906.4404297.2299805,1.0292969.2299805,1.8095703,0,2.1083984-.5795898,2.8681641-1.6889648,2.8681641-.4399414,0-.7993164-.1201172-1.0693359-.3994141l2.5283203-4.2783203ZM340.0439453,220.3530884c-1.1191406,0-1.6992188.7587891-1.6992188,2.8583984,0,.7392578.0703125,1.3085938.2099609,1.7382812l2.4985352-4.2568359c-.2597656-.2402344-.5996094-.3398438-1.0092773-.3398438ZM346.2939453,223.5258179c0,4.9705811-4.0294189,9-9,9s-9-4.0294189-9-9c0-4.97052,4.0294189-8.999939,9-8.999939s9,4.0294189,9,8.999939ZM336.9428711,224.800354c0-.9794922-.4599609-1.5390625-1.2597656-1.7490234.6899414-.2597656,1.0996094-.8095703,1.0996094-1.5791016,0-1.2294922-.8393555-1.859375-2.3188477-1.859375-1.6191406,0-2.4384766.7294922-2.4384766,2.1386719h.8496094c0-.9394531.4897461-1.4189453,1.5791016-1.4189453.9692383,0,1.4492188.3896484,1.4492188,1.1699219,0,.7294922-.3598633,1.21875-1.2392578,1.21875h-1.0395508v.7402344h1.0595703c.9990234,0,1.3691406.4394531,1.3691406,1.2792969,0,.9287109-.5498047,1.3486328-1.6494141,1.3486328-1.1191406,0-1.6186523-.4697266-1.6186523-1.4091797h-.8598633c0,1.4091797.7495117,2.1289062,2.4785156,2.1289062,1.6791992,0,2.5390625-.6494141,2.5390625-2.0087891ZM342.6425781,223.2114868c0-2.5087891-.8994141-3.5986328-2.5986328-3.5986328-1.7089844,0-2.5986328,1.0898438-2.5986328,3.5986328,0,2.5185547.8896484,3.5976562,2.5986328,3.5976562,1.6992188,0,2.5986328-1.0888672,2.5986328-3.5976562Z"/>
  <path class="st0" d="M362.2646484,214.5258789c-4.9705811,0-9,4.0294189-9,8.999939,0,4.9705811,4.0294189,9,9,9s9-4.0294189,9-9c0-4.97052-4.0294189-8.999939-9-8.999939ZM359.3745117,226.8091431c-1.7290039,0-2.4785156-.7197266-2.4785156-2.1289062h.8598633c0,.9394531.4995117,1.4091797,1.6186523,1.4091797,1.0996094,0,1.6499023-.4199219,1.6499023-1.3486328,0-.8398438-.3706055-1.2792969-1.3696289-1.2792969h-1.0595703v-.7402344h1.0395508c.8793945,0,1.2392578-.4892578,1.2392578-1.21875,0-.7802734-.4799805-1.1699219-1.4492188-1.1699219-1.0893555,0-1.5791016.4794922-1.5791016,1.4189453h-.8496094c0-1.4091797.8193359-2.1386719,2.4384766-2.1386719,1.4794922,0,2.3193359.6298828,2.3193359,1.859375,0,.7695312-.4101562,1.3193359-1.1000977,1.5791016.800293.2099609,1.2602539.7695312,1.2602539,1.7490234,0,1.359375-.8603516,2.0087891-2.5395508,2.0087891ZM367.59375,226.7095337h-5.0371094v-.7402344h2.1386719v-5.4765625l-2.0390625.3994141v-.7392578l2.1191406-.4394531h.7792969v6.2558594h2.0390625v.7402344Z"/>
  <path class="st0" d="M384.7773438,225.9692993h2.1386719v-5.4765625l-2.0390625.3994141v-.7392578l2.1191406-.4394531h.7792969v6.2558594h2.0390625v.7402344h-5.0371094v-.7402344Z"/>
  <path class="st0" d="M411.4462891,224.4702759c1.4794922-1.3886719,2.1689453-1.8789062,2.1689453-2.7978516,0-.8398438-.3994141-1.3193359-1.4189453-1.3193359-1.0996094,0-1.5390625.5195312-1.5390625,1.4990234v.0996094h-.8896484v-.109375c0-1.3994141.8398438-2.2294922,2.4384766-2.2294922,1.5791016,0,2.3193359.7597656,2.3193359,1.9990234,0,1.1494141-.7695312,1.7890625-2.3388672,3.2285156l-1.2294922,1.1289062h3.5976562v.7402344h-4.6367188v-.7998047l1.5283203-1.4394531Z"/>
  <path class="st0" d="M437.0371094,226.8091431c-1.7294922,0-2.4785156-.7197266-2.4785156-2.1289062h.859375c0,.9394531.5,1.4091797,1.6191406,1.4091797,1.0996094,0,1.6494141-.4199219,1.6494141-1.3486328,0-.8398438-.3701172-1.2792969-1.3691406-1.2792969h-1.0595703v-.7402344h1.0390625c.8798828,0,1.2392578-.4892578,1.2392578-1.21875,0-.7802734-.4794922-1.1699219-1.4492188-1.1699219-1.0888672,0-1.5791016.4794922-1.5791016,1.4189453h-.8496094c0-1.4091797.8193359-2.1386719,2.4384766-2.1386719,1.4794922,0,2.3193359.6298828,2.3193359,1.859375,0,.7695312-.4101562,1.3193359-1.0996094,1.5791016.7998047.2099609,1.2597656.7695312,1.2597656,1.7490234,0,1.359375-.8603516,2.0087891-2.5390625,2.0087891Z"/>
  <path class="st0" d="M288.472168,251.8036851v-1.5498047h-3.6879883v-.6494141l2.1083984-4.796875h.9199219l-2.0888672,4.7070312h2.7485352v-2.5585938h.859375v2.5585938h.8696289v.7392578h-.8696289v1.5498047h-.859375Z"/>
  <path class="st0" d="M309.8945312,249.9345445h.8696289c0,.7998047.5498047,1.2294922,1.5888672,1.2294922,1.0996094,0,1.6591797-.5703125,1.6591797-1.6494141,0-1.109375-.5297852-1.6894531-1.559082-1.6894531-.8295898,0-1.269043.25-1.559082.8203125l-.7597656-.1201172.2202148-3.7177734h4.2973633v.7392578h-3.5478516l-.1499023,2.1689453c.3696289-.3994141.8696289-.609375,1.6289062-.609375,1.519043,0,2.3388672.8388672,2.3388672,2.3984375,0,1.5791016-.9594727,2.3984375-2.5888672,2.3984375-1.5488281,0-2.4384766-.6796875-2.4384766-1.96875Z"/>
  <path class="st0" d="M337.3740234,251.9032945c-1.8588867,0-2.6586914-1.0595703-2.6586914-3.6181641,0-2.2685547.7998047-3.578125,2.7387695-3.578125,1.46875,0,2.2885742.6396484,2.2885742,1.9492188h-.859375c-.0102539-.8095703-.5097656-1.2089844-1.4291992-1.2089844-1.2993164,0-1.8491211.8691406-1.8491211,2.5878906v.2597656c.3496094-.6787109,1.0395508-.9785156,1.9589844-.9785156,1.5288086,0,2.3183594.7890625,2.3183594,2.2978516,0,1.5097656-.8891602,2.2890625-2.5083008,2.2890625ZM338.9731445,249.6044663c0-1.0195312-.5400391-1.5488281-1.5893555-1.5488281-1.0292969,0-1.5888672.5195312-1.5888672,1.5185547,0,1.0400391.5297852,1.5898438,1.5791016,1.5898438,1.0292969,0,1.5991211-.5400391,1.5991211-1.5595703Z"/>
  <path class="st0" d="M361.6855469,251.8036851h-.9199219l3.0683594-6.2568359h-4.1079102v-.7392578h4.987793v.7392578l-3.0283203,6.2568359Z"/>
  <path class="st0" d="M384.6367188,249.9648179c0-.9394531.5-1.5595703,1.4492188-1.8095703-.7890625-.2392578-1.1992188-.7792969-1.1992188-1.5888672,0-1.2197266.7597656-1.859375,2.3388672-1.859375,1.5888672,0,2.3583984.6396484,2.3583984,1.859375,0,.8095703-.4199219,1.3496094-1.2089844,1.5888672.9589844.25,1.4589844.8701172,1.4589844,1.8095703,0,1.2792969-.859375,1.9384766-2.6083984,1.9384766s-2.5888672-.6591797-2.5888672-1.9384766ZM388.9248047,249.8945054c0-.8691406-.5996094-1.3496094-1.6992188-1.3496094-1.0898438,0-1.6787109.4804688-1.6787109,1.3496094,0,.8496094.5390625,1.3095703,1.6787109,1.3095703,1.1494141,0,1.6992188-.4599609,1.6992188-1.3095703ZM385.7568359,246.6259507c0,.7900391.5195312,1.2099609,1.46875,1.2099609.9599609,0,1.4794922-.4199219,1.4794922-1.2099609,0-.7890625-.4599609-1.21875-1.4492188-1.21875-1.0195312,0-1.4990234.4296875-1.4990234,1.21875Z"/>
  <path class="st0" d="M412.0566406,251.9032945c-1.4697266,0-2.2890625-.6396484-2.2890625-1.9492188h.859375c.0097656.8095703.5097656,1.2099609,1.4296875,1.2099609,1.2988281,0,1.8486328-.8701172,1.8486328-2.5888672v-.2597656c-.3496094.6796875-1.0390625.9794922-1.9589844.9794922-1.5292969,0-2.3183594-.7900391-2.3183594-2.2988281s.8896484-2.2890625,2.5087891-2.2890625c1.8583984,0,2.6582031,1.0595703,2.6582031,3.6181641,0,2.2685547-.7998047,3.578125-2.7382812,3.578125ZM410.5371094,247.0058335c0,1.0195312.5400391,1.5498047,1.5888672,1.5498047,1.0302734,0,1.5898438-.5205078,1.5898438-1.5195312,0-1.0390625-.5302734-1.5888672-1.5791016-1.5888672-1.0302734,0-1.5996094.5390625-1.5996094,1.5585938Z"/>
  <g>
    <path class="st0" d="M431.96875,251.0634507h2.1386719v-5.4765625l-2.0390625.3994141v-.7392578l2.1191406-.4394531h.7792969v6.2558594h2.0390625v.7402344h-5.0371094v-.7402344Z"/>
    <path class="st0" d="M437.328125,248.3056382c0-2.5087891.8896484-3.5986328,2.5986328-3.5986328,1.6992188,0,2.5986328,1.0898438,2.5986328,3.5986328s-.8994141,3.5976562-2.5986328,3.5976562c-1.7089844,0-2.5986328-1.0791016-2.5986328-3.5976562ZM438.4375,250.0439195l2.4990234-4.2568359c-.2597656-.2402344-.5996094-.3398438-1.0097656-.3398438-1.1191406,0-1.6992188.7587891-1.6992188,2.8583984,0,.7392578.0703125,1.3085938.2099609,1.7382812ZM441.6162109,248.3056382c0-.7802734-.0800781-1.3691406-.2304688-1.8095703l-2.5283203,4.2783203c.2705078.2792969.6298828.3994141,1.0693359.3994141,1.109375,0,1.6894531-.7597656,1.6894531-2.8681641Z"/>
  </g>
  <path class="st0" d="M278.3007812,55.2744751h6.2998047v8.159668c0,1.6049805-.7651367,2.3398438-2.3701172,2.3398438h-3.9296875v-1.125h3.8398438c.7797852,0,1.1098633-.3300781,1.1098633-1.125v-7.1245117h-4.949707v-1.125ZM294.0952148,62.6841431c0,1.3798828-.824707,2.1298828-2.3696289,2.1298828-1.5302734,0-2.3701172-.75-2.3701172-2.1298828v-7.409668h-1.3496094v7.409668c0,2.1450195,1.2895508,3.2397461,3.7197266,3.2397461,2.4296875,0,3.7197266-1.0947266,3.7197266-3.2397461v-7.409668h-1.3500977v7.409668ZM300.140625,55.2744751h-1.3496094v10.4995117h6.8696289v-1.125h-5.5200195v-9.3745117ZM314.6303711,55.2744751l-2.7900391,5.3095703-2.7597656-5.3095703h-1.5l3.5698242,6.6445312v3.8549805h1.3500977v-3.8696289l3.5698242-6.6298828h-1.4399414Z"/>
</svg>