<svg width="1920" height="1080" viewBox="0 0 1920 1080" fill="none" xmlns="http://www.w3.org/2000/svg">
<rect width="1920" height="1080" fill="#E6BCF0"/>
<path d="M707.172 627.84C656.772 627.84 619.092 590.16 619.092 540C619.092 489.84 656.772 452.16 707.172 452.16C732.612 452.16 754.932 461.76 770.772 477.84L748.692 490.56C737.652 478.32 722.292 470.88 705.012 470.88C669.972 470.88 643.812 500.64 643.812 540C643.812 579.36 669.972 609.12 705.012 609.12C722.292 609.12 737.652 601.68 748.692 589.44L770.772 602.16C754.932 618.24 732.612 627.84 707.172 627.84ZM765.012 579.84C742.452 579.84 725.172 562.56 725.172 540C725.172 517.44 742.452 500.16 765.012 500.16C787.572 500.16 804.852 517.44 804.852 540C804.852 562.56 787.572 579.84 765.012 579.84ZM765.012 561.84C775.332 561.84 783.252 552.24 783.252 540C783.252 527.76 775.332 518.16 765.012 518.16C754.692 518.16 746.772 527.76 746.772 540C746.772 552.24 754.692 561.84 765.012 561.84ZM819.252 624V456H843.252V603.6L928.452 599.76L923.892 624H819.252ZM864.852 578.64V456H888.852V558.48L936.852 554.16L932.292 578.64H864.852ZM935.892 624L993.492 456H1012.69L1070.29 624H1044.13L1033.33 589.2L968.532 593.04L958.692 624H935.892ZM975.252 571.68H1027.81L1001.65 487.2L975.252 571.68ZM1078.69 624V456H1130.53C1161.97 456 1179.01 478.08 1179.01 500.64C1179.01 515.52 1171.57 530.88 1155.73 540.24C1166.77 548.88 1173.49 561.6 1173.49 576.48C1173.49 602.64 1151.65 624 1125.01 624H1078.69ZM1120.93 604.8C1137.73 604.8 1148.77 592.56 1148.77 577.2C1148.77 561.84 1137.73 549.6 1120.93 549.6H1102.69V604.8H1120.93ZM1129.57 531.6C1143.73 531.6 1154.29 519.36 1154.29 503.28C1154.29 487.2 1143.73 475.2 1129.57 475.2H1102.69V531.6H1129.57ZM1174.93 624L1232.53 456H1251.73L1309.33 624H1283.17L1272.37 589.2L1207.57 593.04L1197.73 624H1174.93ZM1214.29 571.68H1266.85L1240.69 487.2L1214.29 571.68Z" fill="black"/>
</svg>
