<svg width="1920" height="1080" viewBox="0 0 1920 1080" fill="none" xmlns="http://www.w3.org/2000/svg">
<path d="M0 8.00002C0 3.58174 3.58172 0 8 0H1912C1916.42 0 1920 3.58172 1920 8V1072C1920 1076.42 1916.42 1080 1912 1080H7.99999C3.58171 1080 0 1076.42 0 1072V8.00002Z" fill="white"/>
<path fill-rule="evenodd" clip-rule="evenodd" d="M977.29 749C988.09 749 996.49 757.64 996.49 768.92C996.49 780.2 988.09 788.84 977.29 788.84C966.49 788.84 958.09 780.2 958.09 768.92C958.09 757.64 966.49 749 977.29 749ZM977.29 758C972.13 758 968.53 762.56 968.53 768.92C968.53 775.28 972.13 779.84 977.29 779.84C982.45 779.84 986.05 775.28 986.05 768.92C986.05 762.56 982.45 758 977.29 758Z" fill="black"/>
<path fill-rule="evenodd" clip-rule="evenodd" d="M977.29 725C1002.49 725 1021.33 743.84 1021.33 768.92C1021.33 794 1002.49 812.84 977.29 812.84C952.09 812.84 933.25 794 933.25 768.92C933.25 743.84 952.09 725 977.29 725ZM977.29 734.36C958.69 734.36 945.25 748.88 945.25 768.92C945.25 788.96 958.69 803.479 977.29 803.479C995.89 803.479 1009.33 788.96 1009.33 768.92C1009.33 748.88 995.89 734.36 977.29 734.36Z" fill="black"/>
<path d="M769.517 605C788.957 605 804.557 616.28 810.677 632.72L798.316 636.8C794.236 623.12 782.957 614.6 769.517 614.6C751.157 614.6 737.837 629.12 737.837 648.92C737.837 668.72 751.157 683.24 769.517 683.24C782.957 683.24 794.236 674.72 798.316 661.04L810.677 665.12C804.557 681.56 788.957 692.84 769.517 692.84C744.317 692.84 725.477 674 725.477 648.92C725.477 623.84 744.317 605 769.517 605Z" fill="black"/>
<path d="M1029.67 605C1042.39 605 1053.55 609.8 1061.47 617.84L1050.43 624.2C1044.91 618.08 1037.23 614.6 1028.59 614.6C1010.83 614.6 997.993 629.12 997.993 648.92C997.993 668.72 1010.83 683.24 1028.59 683.24C1037.23 683.24 1044.91 679.76 1050.43 673.64L1061.47 680C1053.55 688.04 1042.39 692.84 1029.67 692.84C1004.47 692.84 985.633 674 985.633 648.92C985.633 623.84 1004.47 605 1029.67 605Z" fill="black"/>
<path d="M1158.58 605C1178.02 605 1193.74 616.16 1199.74 632.72L1188.34 636.439C1184.02 623.24 1172.86 614.36 1158.58 614.36C1140.22 614.36 1126.9 629.24 1126.9 648.92C1126.9 668.6 1140.22 683.479 1158.58 683.479C1172.86 683.479 1184.02 674.6 1188.34 661.4L1199.74 665.12C1193.62 681.68 1178.02 692.84 1158.58 692.84C1133.38 692.84 1114.54 674 1114.54 648.92C1114.54 623.84 1133.38 605 1158.58 605Z" fill="black"/>
<path d="M835.877 680.72L878.477 678.8L876.197 690.92H823.877V606.92H835.877V680.72Z" fill="black"/>
<path fill-rule="evenodd" clip-rule="evenodd" d="M917.837 606.92C932.237 606.92 942.077 616.16 942.077 629.6C942.077 637.4 937.997 643.76 930.917 647.6C939.797 651.56 944.837 659 944.837 668.6C944.837 682.519 935.237 690.92 918.197 690.92H894.677V606.92H917.837ZM906.677 681.32H920.117C927.677 681.32 932.476 675.8 932.477 667.28C932.477 658.52 927.197 653.12 918.437 653.12H906.677V681.32ZM906.677 644.36H915.797C923.957 644.36 929.717 638.6 929.717 630.08C929.717 622.16 924.557 616.52 916.037 616.52H906.677V644.36Z" fill="black"/>
<path fill-rule="evenodd" clip-rule="evenodd" d="M1058.59 629C1069.87 629 1078.51 637.64 1078.51 648.92C1078.51 660.2 1069.87 668.84 1058.59 668.84C1047.31 668.84 1038.67 660.2 1038.67 648.92C1038.67 637.64 1047.31 629 1058.59 629ZM1058.59 638C1053.43 638 1049.47 642.8 1049.47 648.92C1049.47 655.04 1053.43 659.84 1058.59 659.84C1063.75 659.84 1067.71 655.04 1067.71 648.92C1067.71 642.8 1063.75 638 1058.59 638Z" fill="black"/>
<path fill-rule="evenodd" clip-rule="evenodd" d="M1159.06 629C1169.86 629 1178.26 637.64 1178.26 648.92C1178.26 660.2 1169.86 668.84 1159.06 668.84C1148.26 668.84 1139.86 660.2 1139.86 648.92C1139.86 637.64 1148.26 629 1159.06 629ZM1159.06 638C1153.9 638 1150.3 642.56 1150.3 648.92C1150.3 655.28 1153.9 659.84 1159.06 659.84C1164.22 659.84 1167.82 655.28 1167.82 648.92C1167.82 642.56 1164.22 638 1159.06 638Z" fill="black"/>
<path d="M858.677 658.16L882.677 656L880.396 668.24H846.677V606.92H858.677V658.16Z" fill="black"/>
<path d="M486.04 485C498.76 485 509.92 489.8 517.84 497.84L506.8 504.2C501.28 498.08 493.6 494.36 484.96 494.36C467.44 494.36 454.36 509.24 454.36 528.92C454.36 548.6 467.44 563.479 484.96 563.479C493.6 563.479 501.28 559.76 506.8 553.64L517.84 560C509.92 568.04 498.76 572.84 486.04 572.84C460.84 572.84 442 554 442 528.92C442 503.84 460.84 485 486.04 485Z" fill="black"/>
<path d="M855.532 485C868.252 485 879.412 489.8 887.332 497.84L876.292 504.2C870.772 498.08 863.092 494.36 854.452 494.36C836.932 494.36 823.853 509.24 823.853 528.92C823.853 548.6 836.932 563.479 854.452 563.479C863.092 563.479 870.772 559.76 876.292 553.64L887.332 560C879.412 568.04 868.252 572.84 855.532 572.84C830.332 572.84 811.492 554 811.492 528.92C811.492 503.84 830.332 485 855.532 485Z" fill="black"/>
<path d="M1219.17 485C1238.6 485 1254.33 496.16 1260.33 512.72L1248.92 516.439C1244.6 503.24 1233.44 494.36 1219.17 494.36C1200.81 494.36 1187.49 509.24 1187.49 528.92C1187.49 548.6 1200.81 563.479 1219.17 563.479C1233.44 563.479 1244.6 554.6 1248.92 541.4L1260.33 545.12C1254.21 561.68 1238.6 572.84 1219.17 572.84C1193.97 572.84 1175.12 554 1175.12 528.92C1175.12 503.84 1193.97 485 1219.17 485Z" fill="black"/>
<path d="M554.08 560.72L596.681 558.8L594.4 570.92H542.08V486.92H554.08V560.72Z" fill="black"/>
<path fill-rule="evenodd" clip-rule="evenodd" d="M648.76 570.92H630.28C615.64 570.92 605.8 561.2 605.8 547.16C605.8 533.12 616.361 523.52 631.721 523.52H636.76V497.12L588.76 499.04L591.16 486.92H648.76V570.92ZM632.92 533.12C622.72 533.12 618.16 540.44 618.16 548.36C618.16 554.6 622.361 561.32 630.521 561.32H636.76V533.12H632.92Z" fill="black"/>
<path fill-rule="evenodd" clip-rule="evenodd" d="M686.681 486.92C702.4 486.92 710.92 497.96 710.92 509.24C710.92 516.68 707.2 524.36 699.28 529.04C704.8 533.36 708.16 539.72 708.16 547.16C708.16 560.24 697.24 570.92 683.92 570.92H660.76V486.92H686.681ZM672.76 561.32H681.88C690.28 561.32 695.8 555.2 695.8 547.52C695.8 539.84 690.28 533.72 681.88 533.72H672.76V561.32ZM672.76 524.72H686.2C693.28 524.72 698.561 518.6 698.561 510.56C698.56 502.52 693.28 496.52 686.2 496.52H672.76V524.72Z" fill="black"/>
<path fill-rule="evenodd" clip-rule="evenodd" d="M776.08 570.92H763L757.601 553.52L725.2 555.439L720.28 570.92H708.88L737.681 486.92H747.28L776.08 570.92ZM728.561 544.76H754.84L741.76 502.52L728.561 544.76Z" fill="black"/>
<path d="M924.772 560.72L967.372 558.8L965.093 570.92H912.772V486.92H924.772V560.72Z" fill="black"/>
<path fill-rule="evenodd" clip-rule="evenodd" d="M1019.45 570.92H1000.97C986.333 570.92 976.492 561.2 976.492 547.16C976.492 533.12 987.052 523.52 1002.41 523.52H1007.45V497L959.452 499.04L961.853 486.92H1019.45V570.92ZM1003.61 533.12C993.412 533.12 988.853 540.44 988.853 548.36C988.853 554.6 993.053 561.32 1001.21 561.32H1007.45V533.12H1003.61Z" fill="black"/>
<path fill-rule="evenodd" clip-rule="evenodd" d="M1054.61 486.92C1067.93 486.92 1078.85 497.6 1078.85 510.68C1078.85 518.12 1075.49 524.48 1069.97 528.8C1077.89 533.48 1081.61 541.16 1081.61 548.6C1081.61 559.88 1073.09 570.92 1057.37 570.92H1031.45V486.92H1054.61ZM1043.45 561.32H1056.89C1063.97 561.32 1069.25 555.32 1069.25 547.28C1069.25 539.24 1063.97 533.12 1056.89 533.12H1043.45V561.32ZM1043.45 524.12H1052.57C1060.97 524.12 1066.49 518 1066.49 510.32C1066.49 502.64 1060.97 496.52 1052.57 496.52H1043.45V524.12Z" fill="black"/>
<path fill-rule="evenodd" clip-rule="evenodd" d="M1130.69 570.92H1112.21C1097.57 570.92 1087.73 561.2 1087.73 547.16C1087.73 533.12 1098.29 523.52 1113.65 523.52H1118.69V497.24L1085.33 499.04L1087.73 486.92H1130.69V570.92ZM1114.85 533.12C1104.65 533.12 1100.09 540.44 1100.09 548.36C1100.09 554.6 1104.29 561.32 1112.45 561.32H1118.69V533.12H1114.85Z" fill="black"/>
<path d="M1280.73 560.72L1317.92 558.8L1315.65 570.92H1268.73V486.92H1280.73V560.72Z" fill="black"/>
<path fill-rule="evenodd" clip-rule="evenodd" d="M1370.12 570.92H1351.65C1337.01 570.92 1327.17 561.2 1327.17 547.16C1327.17 533.12 1337.73 523.52 1353.08 523.52H1358.12V497.12L1313.96 499.04L1316.37 486.92H1370.12V570.92ZM1354.29 533.12C1344.09 533.12 1339.53 540.44 1339.53 548.36C1339.53 554.6 1343.73 561.32 1351.89 561.32H1358.12V533.12H1354.29Z" fill="black"/>
<path fill-rule="evenodd" clip-rule="evenodd" d="M1406.85 486.92C1422.57 486.92 1431.08 497.96 1431.08 509.24C1431.08 516.92 1427.13 524.84 1418.73 529.4C1424.61 533.6 1428.33 540.2 1428.33 547.76C1428.33 560.48 1417.4 570.92 1404.08 570.92H1380.92V486.92H1406.85ZM1392.92 561.32H1402.04C1410.44 561.32 1415.96 555.2 1415.96 547.4C1415.96 539.24 1410.2 533.479 1402.04 533.479H1392.92V561.32ZM1392.92 524.72H1406.37C1413.45 524.72 1418.73 518.6 1418.73 510.56C1418.73 502.52 1413.45 496.52 1406.37 496.52H1392.92V524.72Z" fill="black"/>
<path fill-rule="evenodd" clip-rule="evenodd" d="M1477.89 570.92H1459.41C1444.77 570.92 1434.92 561.2 1434.92 547.16C1434.92 533.12 1445.49 523.52 1460.85 523.52H1465.89V497L1437.33 499.04L1439.73 486.92H1477.89V570.92ZM1462.04 533.12C1451.85 533.12 1447.29 540.44 1447.29 548.36C1447.29 554.6 1451.49 561.32 1459.65 561.32H1465.89V533.12H1462.04Z" fill="black"/>
<path fill-rule="evenodd" clip-rule="evenodd" d="M514.96 509C526 509 534.88 517.88 534.88 528.92C534.88 539.96 526 548.84 514.96 548.84C503.92 548.84 495.04 539.96 495.04 528.92C495.04 517.88 503.92 509 514.96 509ZM514.96 518C509.92 518 505.84 522.8 505.84 528.92C505.84 535.04 509.92 539.84 514.96 539.84C520 539.84 524.08 535.04 524.08 528.92C524.08 522.8 520 518 514.96 518Z" fill="black"/>
<path fill-rule="evenodd" clip-rule="evenodd" d="M884.452 509C895.492 509 904.372 517.88 904.372 528.92C904.372 539.96 895.492 548.84 884.452 548.84C873.412 548.84 864.532 539.96 864.532 528.92C864.532 517.88 873.412 509 884.452 509ZM884.452 518C879.412 518 875.332 522.8 875.332 528.92C875.332 535.04 879.412 539.84 884.452 539.84C889.492 539.84 893.572 535.04 893.572 528.92C893.572 522.8 889.492 518 884.452 518Z" fill="black"/>
<path fill-rule="evenodd" clip-rule="evenodd" d="M1219.65 509C1230.45 509 1238.85 517.64 1238.85 528.92C1238.85 540.2 1230.45 548.84 1219.65 548.84C1208.85 548.84 1200.45 540.2 1200.45 528.92C1200.45 517.64 1208.85 509 1219.65 509ZM1219.65 518C1214.49 518 1210.89 522.56 1210.89 528.92C1210.89 535.28 1214.49 539.84 1219.65 539.84C1224.81 539.84 1228.41 535.28 1228.41 528.92C1228.41 522.56 1224.81 518 1219.65 518Z" fill="black"/>
<path d="M576.88 538.16L600.88 536L598.601 548.24H564.88V486.92H576.88V538.16Z" fill="black"/>
<path d="M947.572 538.16L971.572 536L969.292 548.24H935.572V486.92H947.572V538.16Z" fill="black"/>
<path d="M1303.53 538.16L1322.12 536L1319.85 548.24H1291.53V486.92H1303.53V538.16Z" fill="black"/>
<path d="M835.903 365C848.623 365 859.783 369.8 867.703 377.84L856.663 384.2C851.143 378.08 843.463 374.36 834.823 374.36C817.303 374.36 804.224 389.24 804.224 408.92C804.224 428.6 817.303 443.479 834.823 443.479C843.463 443.479 851.143 439.76 856.663 433.64L867.703 440C859.783 448.04 848.623 452.84 835.903 452.84C810.703 452.84 791.863 434 791.863 408.92C791.863 383.84 810.703 365 835.903 365Z" fill="black"/>
<path d="M903.943 440.72L946.544 438.8L944.264 450.92H891.943V366.92H903.943V440.72Z" fill="black"/>
<path fill-rule="evenodd" clip-rule="evenodd" d="M1017.46 450.92H1004.38L998.983 433.52L966.584 435.44L961.663 450.92H950.264L979.063 366.92H988.663L1017.46 450.92ZM969.943 424.76H996.224L983.144 382.52L969.943 424.76Z" fill="black"/>
<path fill-rule="evenodd" clip-rule="evenodd" d="M1047.58 366.92C1063.3 366.92 1071.82 377.96 1071.82 389.24C1071.82 396.68 1068.1 404.36 1060.18 409.04C1065.7 413.36 1069.06 419.72 1069.06 427.16C1069.06 440.24 1058.14 450.92 1044.82 450.92H1021.66V366.92H1047.58ZM1033.66 441.32H1042.78C1051.18 441.32 1056.7 435.2 1056.7 427.52C1056.7 419.84 1051.18 413.72 1042.78 413.72H1033.66V441.32ZM1033.66 404.72H1047.1C1054.18 404.72 1059.46 398.6 1059.46 390.56C1059.46 382.52 1054.18 376.52 1047.1 376.52H1033.66V404.72Z" fill="black"/>
<path fill-rule="evenodd" clip-rule="evenodd" d="M1136.98 450.92H1123.9L1118.5 433.52L1086.1 435.44L1081.18 450.92H1069.78L1098.58 366.92H1108.18L1136.98 450.92ZM1089.46 424.76H1115.74L1102.66 382.52L1089.46 424.76Z" fill="black"/>
<path fill-rule="evenodd" clip-rule="evenodd" d="M864.823 389C876.103 389 884.743 397.64 884.743 408.92C884.743 420.2 876.103 428.84 864.823 428.84C853.543 428.84 844.903 420.2 844.903 408.92C844.903 397.64 853.543 389 864.823 389ZM864.823 398C859.663 398 855.703 402.8 855.703 408.92C855.703 415.04 859.663 419.84 864.823 419.84C869.983 419.84 873.943 415.04 873.943 408.92C873.943 402.8 869.983 398 864.823 398Z" fill="black"/>
<path d="M926.743 418.16L950.743 416L948.464 428.24H914.743V366.92H926.743V418.16Z" fill="black"/>
</svg>
