<svg width="1920" height="720" viewBox="0 0 1920 720" fill="none" xmlns="http://www.w3.org/2000/svg">
<rect width="1920" height="720" fill="white"/>
<path fill-rule="evenodd" clip-rule="evenodd" d="M977.29 569C988.09 569 996.49 577.64 996.49 588.92C996.49 600.2 988.09 608.84 977.29 608.84C966.49 608.84 958.09 600.2 958.09 588.92C958.09 577.64 966.49 569 977.29 569ZM977.29 578C972.13 578 968.53 582.56 968.53 588.92C968.53 595.28 972.13 599.84 977.29 599.84C982.45 599.84 986.05 595.28 986.05 588.92C986.05 582.56 982.45 578 977.29 578Z" fill="black"/>
<path fill-rule="evenodd" clip-rule="evenodd" d="M977.29 545C1002.49 545 1021.33 563.84 1021.33 588.92C1021.33 614 1002.49 632.84 977.29 632.84C952.09 632.84 933.25 614 933.25 588.92C933.25 563.84 952.09 545 977.29 545ZM977.29 554.36C958.69 554.36 945.25 568.88 945.25 588.92C945.25 608.96 958.69 623.479 977.29 623.479C995.89 623.479 1009.33 608.96 1009.33 588.92C1009.33 568.88 995.89 554.36 977.29 554.36Z" fill="black"/>
<path d="M769.517 425C788.957 425 804.557 436.28 810.677 452.72L798.316 456.8C794.236 443.12 782.957 434.6 769.517 434.6C751.157 434.6 737.837 449.12 737.837 468.92C737.837 488.72 751.157 503.24 769.517 503.24C782.957 503.24 794.236 494.72 798.316 481.04L810.677 485.12C804.557 501.56 788.957 512.84 769.517 512.84C744.317 512.84 725.477 494 725.477 468.92C725.477 443.84 744.317 425 769.517 425Z" fill="black"/>
<path d="M1029.67 425C1042.39 425 1053.55 429.8 1061.47 437.84L1050.43 444.2C1044.91 438.08 1037.23 434.6 1028.59 434.6C1010.83 434.6 997.993 449.12 997.993 468.92C997.993 488.72 1010.83 503.24 1028.59 503.24C1037.23 503.24 1044.91 499.76 1050.43 493.64L1061.47 500C1053.55 508.04 1042.39 512.84 1029.67 512.84C1004.47 512.84 985.633 494 985.633 468.92C985.633 443.84 1004.47 425 1029.67 425Z" fill="black"/>
<path d="M1158.58 425C1178.02 425 1193.74 436.16 1199.74 452.72L1188.34 456.439C1184.02 443.24 1172.86 434.36 1158.58 434.36C1140.22 434.36 1126.9 449.24 1126.9 468.92C1126.9 488.6 1140.22 503.479 1158.58 503.479C1172.86 503.479 1184.02 494.6 1188.34 481.4L1199.74 485.12C1193.62 501.68 1178.02 512.84 1158.58 512.84C1133.38 512.84 1114.54 494 1114.54 468.92C1114.54 443.84 1133.38 425 1158.58 425Z" fill="black"/>
<path d="M835.877 500.72L878.477 498.8L876.197 510.92H823.877V426.92H835.877V500.72Z" fill="black"/>
<path fill-rule="evenodd" clip-rule="evenodd" d="M917.837 426.92C932.237 426.92 942.077 436.16 942.077 449.6C942.077 457.4 937.997 463.76 930.917 467.6C939.797 471.56 944.837 479 944.837 488.6C944.837 502.519 935.237 510.92 918.197 510.92H894.677V426.92H917.837ZM906.677 501.32H920.117C927.677 501.32 932.476 495.8 932.477 487.28C932.477 478.52 927.197 473.12 918.437 473.12H906.677V501.32ZM906.677 464.36H915.797C923.957 464.36 929.717 458.6 929.717 450.08C929.717 442.16 924.557 436.52 916.037 436.52H906.677V464.36Z" fill="black"/>
<path fill-rule="evenodd" clip-rule="evenodd" d="M1058.59 449C1069.87 449 1078.51 457.64 1078.51 468.92C1078.51 480.2 1069.87 488.84 1058.59 488.84C1047.31 488.84 1038.67 480.2 1038.67 468.92C1038.67 457.64 1047.31 449 1058.59 449ZM1058.59 458C1053.43 458 1049.47 462.8 1049.47 468.92C1049.47 475.04 1053.43 479.84 1058.59 479.84C1063.75 479.84 1067.71 475.04 1067.71 468.92C1067.71 462.8 1063.75 458 1058.59 458Z" fill="black"/>
<path fill-rule="evenodd" clip-rule="evenodd" d="M1159.06 449C1169.86 449 1178.26 457.64 1178.26 468.92C1178.26 480.2 1169.86 488.84 1159.06 488.84C1148.26 488.84 1139.86 480.2 1139.86 468.92C1139.86 457.64 1148.26 449 1159.06 449ZM1159.06 458C1153.9 458 1150.3 462.56 1150.3 468.92C1150.3 475.28 1153.9 479.84 1159.06 479.84C1164.22 479.84 1167.82 475.28 1167.82 468.92C1167.82 462.56 1164.22 458 1159.06 458Z" fill="black"/>
<path d="M858.677 478.16L882.677 476L880.396 488.24H846.677V426.92H858.677V478.16Z" fill="black"/>
<path d="M486.04 305C498.76 305 509.92 309.8 517.84 317.84L506.8 324.2C501.28 318.08 493.6 314.36 484.96 314.36C467.44 314.36 454.36 329.24 454.36 348.92C454.36 368.6 467.44 383.479 484.96 383.479C493.6 383.479 501.28 379.76 506.8 373.64L517.84 380C509.92 388.04 498.76 392.84 486.04 392.84C460.84 392.84 442 374 442 348.92C442 323.84 460.84 305 486.04 305Z" fill="black"/>
<path d="M855.532 305C868.252 305 879.412 309.8 887.332 317.84L876.292 324.2C870.772 318.08 863.092 314.36 854.452 314.36C836.932 314.36 823.853 329.24 823.853 348.92C823.853 368.6 836.932 383.479 854.452 383.479C863.092 383.479 870.772 379.76 876.292 373.64L887.332 380C879.412 388.04 868.252 392.84 855.532 392.84C830.332 392.84 811.492 374 811.492 348.92C811.492 323.84 830.332 305 855.532 305Z" fill="black"/>
<path d="M1219.17 305C1238.6 305 1254.33 316.16 1260.33 332.72L1248.92 336.439C1244.6 323.24 1233.44 314.36 1219.17 314.36C1200.81 314.36 1187.49 329.24 1187.49 348.92C1187.49 368.6 1200.81 383.479 1219.17 383.479C1233.44 383.479 1244.6 374.6 1248.92 361.4L1260.33 365.12C1254.21 381.68 1238.6 392.84 1219.17 392.84C1193.97 392.84 1175.12 374 1175.12 348.92C1175.12 323.84 1193.97 305 1219.17 305Z" fill="black"/>
<path d="M554.08 380.72L596.681 378.8L594.4 390.92H542.08V306.92H554.08V380.72Z" fill="black"/>
<path fill-rule="evenodd" clip-rule="evenodd" d="M648.76 390.92H630.28C615.64 390.92 605.8 381.2 605.8 367.16C605.8 353.12 616.361 343.52 631.721 343.52H636.76V317.12L588.76 319.04L591.16 306.92H648.76V390.92ZM632.92 353.12C622.72 353.12 618.16 360.44 618.16 368.36C618.16 374.6 622.361 381.32 630.521 381.32H636.76V353.12H632.92Z" fill="black"/>
<path fill-rule="evenodd" clip-rule="evenodd" d="M686.681 306.92C702.4 306.92 710.92 317.96 710.92 329.24C710.92 336.68 707.2 344.36 699.28 349.04C704.8 353.36 708.16 359.72 708.16 367.16C708.16 380.24 697.24 390.92 683.92 390.92H660.76V306.92H686.681ZM672.76 381.32H681.88C690.28 381.32 695.8 375.2 695.8 367.52C695.8 359.84 690.28 353.72 681.88 353.72H672.76V381.32ZM672.76 344.72H686.2C693.28 344.72 698.561 338.6 698.561 330.56C698.56 322.52 693.28 316.52 686.2 316.52H672.76V344.72Z" fill="black"/>
<path fill-rule="evenodd" clip-rule="evenodd" d="M776.08 390.92H763L757.601 373.52L725.2 375.439L720.28 390.92H708.88L737.681 306.92H747.28L776.08 390.92ZM728.561 364.76H754.84L741.76 322.52L728.561 364.76Z" fill="black"/>
<path d="M924.772 380.72L967.372 378.8L965.093 390.92H912.772V306.92H924.772V380.72Z" fill="black"/>
<path fill-rule="evenodd" clip-rule="evenodd" d="M1019.45 390.92H1000.97C986.333 390.92 976.492 381.2 976.492 367.16C976.492 353.12 987.052 343.52 1002.41 343.52H1007.45V317L959.452 319.04L961.853 306.92H1019.45V390.92ZM1003.61 353.12C993.412 353.12 988.853 360.44 988.853 368.36C988.853 374.6 993.053 381.32 1001.21 381.32H1007.45V353.12H1003.61Z" fill="black"/>
<path fill-rule="evenodd" clip-rule="evenodd" d="M1054.61 306.92C1067.93 306.92 1078.85 317.6 1078.85 330.68C1078.85 338.12 1075.49 344.48 1069.97 348.8C1077.89 353.48 1081.61 361.16 1081.61 368.6C1081.61 379.88 1073.09 390.92 1057.37 390.92H1031.45V306.92H1054.61ZM1043.45 381.32H1056.89C1063.97 381.32 1069.25 375.32 1069.25 367.28C1069.25 359.24 1063.97 353.12 1056.89 353.12H1043.45V381.32ZM1043.45 344.12H1052.57C1060.97 344.12 1066.49 338 1066.49 330.32C1066.49 322.64 1060.97 316.52 1052.57 316.52H1043.45V344.12Z" fill="black"/>
<path fill-rule="evenodd" clip-rule="evenodd" d="M1130.69 390.92H1112.21C1097.57 390.92 1087.73 381.2 1087.73 367.16C1087.73 353.12 1098.29 343.52 1113.65 343.52H1118.69V317.24L1085.33 319.04L1087.73 306.92H1130.69V390.92ZM1114.85 353.12C1104.65 353.12 1100.09 360.44 1100.09 368.36C1100.09 374.6 1104.29 381.32 1112.45 381.32H1118.69V353.12H1114.85Z" fill="black"/>
<path d="M1280.73 380.72L1317.92 378.8L1315.65 390.92H1268.73V306.92H1280.73V380.72Z" fill="black"/>
<path fill-rule="evenodd" clip-rule="evenodd" d="M1370.12 390.92H1351.65C1337.01 390.92 1327.17 381.2 1327.17 367.16C1327.17 353.12 1337.73 343.52 1353.08 343.52H1358.12V317.12L1313.96 319.04L1316.37 306.92H1370.12V390.92ZM1354.29 353.12C1344.09 353.12 1339.53 360.44 1339.53 368.36C1339.53 374.6 1343.73 381.32 1351.89 381.32H1358.12V353.12H1354.29Z" fill="black"/>
<path fill-rule="evenodd" clip-rule="evenodd" d="M1406.85 306.92C1422.57 306.92 1431.08 317.96 1431.08 329.24C1431.08 336.92 1427.13 344.84 1418.73 349.4C1424.61 353.6 1428.33 360.2 1428.33 367.76C1428.33 380.48 1417.4 390.92 1404.08 390.92H1380.92V306.92H1406.85ZM1392.92 381.32H1402.04C1410.44 381.32 1415.96 375.2 1415.96 367.4C1415.96 359.24 1410.2 353.479 1402.04 353.479H1392.92V381.32ZM1392.92 344.72H1406.37C1413.45 344.72 1418.73 338.6 1418.73 330.56C1418.73 322.52 1413.45 316.52 1406.37 316.52H1392.92V344.72Z" fill="black"/>
<path fill-rule="evenodd" clip-rule="evenodd" d="M1477.89 390.92H1459.41C1444.77 390.92 1434.92 381.2 1434.92 367.16C1434.92 353.12 1445.49 343.52 1460.85 343.52H1465.89V317L1437.33 319.04L1439.73 306.92H1477.89V390.92ZM1462.04 353.12C1451.85 353.12 1447.29 360.44 1447.29 368.36C1447.29 374.6 1451.49 381.32 1459.65 381.32H1465.89V353.12H1462.04Z" fill="black"/>
<path fill-rule="evenodd" clip-rule="evenodd" d="M514.96 329C526 329 534.88 337.88 534.88 348.92C534.88 359.96 526 368.84 514.96 368.84C503.92 368.84 495.04 359.96 495.04 348.92C495.04 337.88 503.92 329 514.96 329ZM514.96 338C509.92 338 505.84 342.8 505.84 348.92C505.84 355.04 509.92 359.84 514.96 359.84C520 359.84 524.08 355.04 524.08 348.92C524.08 342.8 520 338 514.96 338Z" fill="black"/>
<path fill-rule="evenodd" clip-rule="evenodd" d="M884.452 329C895.492 329 904.372 337.88 904.372 348.92C904.372 359.96 895.492 368.84 884.452 368.84C873.412 368.84 864.532 359.96 864.532 348.92C864.532 337.88 873.412 329 884.452 329ZM884.452 338C879.412 338 875.332 342.8 875.332 348.92C875.332 355.04 879.412 359.84 884.452 359.84C889.492 359.84 893.572 355.04 893.572 348.92C893.572 342.8 889.492 338 884.452 338Z" fill="black"/>
<path fill-rule="evenodd" clip-rule="evenodd" d="M1219.65 329C1230.45 329 1238.85 337.64 1238.85 348.92C1238.85 360.2 1230.45 368.84 1219.65 368.84C1208.85 368.84 1200.45 360.2 1200.45 348.92C1200.45 337.64 1208.85 329 1219.65 329ZM1219.65 338C1214.49 338 1210.89 342.56 1210.89 348.92C1210.89 355.28 1214.49 359.84 1219.65 359.84C1224.81 359.84 1228.41 355.28 1228.41 348.92C1228.41 342.56 1224.81 338 1219.65 338Z" fill="black"/>
<path d="M576.88 358.16L600.88 356L598.601 368.24H564.88V306.92H576.88V358.16Z" fill="black"/>
<path d="M947.572 358.16L971.572 356L969.292 368.24H935.572V306.92H947.572V358.16Z" fill="black"/>
<path d="M1303.53 358.16L1322.12 356L1319.85 368.24H1291.53V306.92H1303.53V358.16Z" fill="black"/>
<path d="M835.903 185C848.623 185 859.783 189.8 867.703 197.84L856.663 204.2C851.143 198.08 843.463 194.36 834.823 194.36C817.303 194.36 804.224 209.24 804.224 228.92C804.224 248.6 817.303 263.479 834.823 263.479C843.463 263.479 851.143 259.76 856.663 253.64L867.703 260C859.783 268.04 848.623 272.84 835.903 272.84C810.703 272.84 791.863 254 791.863 228.92C791.863 203.84 810.703 185 835.903 185Z" fill="black"/>
<path d="M903.943 260.72L946.544 258.8L944.264 270.92H891.943V186.92H903.943V260.72Z" fill="black"/>
<path fill-rule="evenodd" clip-rule="evenodd" d="M1017.46 270.92H1004.38L998.983 253.52L966.584 255.44L961.663 270.92H950.264L979.063 186.92H988.663L1017.46 270.92ZM969.943 244.76H996.224L983.144 202.52L969.943 244.76Z" fill="black"/>
<path fill-rule="evenodd" clip-rule="evenodd" d="M1047.58 186.92C1063.3 186.92 1071.82 197.96 1071.82 209.24C1071.82 216.68 1068.1 224.36 1060.18 229.04C1065.7 233.36 1069.06 239.72 1069.06 247.16C1069.06 260.24 1058.14 270.92 1044.82 270.92H1021.66V186.92H1047.58ZM1033.66 261.32H1042.78C1051.18 261.32 1056.7 255.2 1056.7 247.52C1056.7 239.84 1051.18 233.72 1042.78 233.72H1033.66V261.32ZM1033.66 224.72H1047.1C1054.18 224.72 1059.46 218.6 1059.46 210.56C1059.46 202.52 1054.18 196.52 1047.1 196.52H1033.66V224.72Z" fill="black"/>
<path fill-rule="evenodd" clip-rule="evenodd" d="M1136.98 270.92H1123.9L1118.5 253.52L1086.1 255.44L1081.18 270.92H1069.78L1098.58 186.92H1108.18L1136.98 270.92ZM1089.46 244.76H1115.74L1102.66 202.52L1089.46 244.76Z" fill="black"/>
<path fill-rule="evenodd" clip-rule="evenodd" d="M864.823 209C876.103 209 884.743 217.64 884.743 228.92C884.743 240.2 876.103 248.84 864.823 248.84C853.543 248.84 844.903 240.2 844.903 228.92C844.903 217.64 853.543 209 864.823 209ZM864.823 218C859.663 218 855.703 222.8 855.703 228.92C855.703 235.04 859.663 239.84 864.823 239.84C869.983 239.84 873.943 235.04 873.943 228.92C873.943 222.8 869.983 218 864.823 218Z" fill="black"/>
<path d="M926.743 238.16L950.743 236L948.464 248.24H914.743V186.92H926.743V238.16Z" fill="black"/>
</svg>
