<svg width="1920" height="1080" viewBox="0 0 1920 1080" fill="none" xmlns="http://www.w3.org/2000/svg">
<rect width="1920" height="1080" fill="white"/>
<path d="M508.608 402L537.408 318H547.008L575.808 402H562.728L557.328 384.6L524.928 386.52L520.008 402H508.608ZM528.288 375.84H554.568L541.488 333.6L528.288 375.84ZM586.045 402V318H609.205C623.605 318 633.445 327.24 633.445 340.68C633.445 348.48 629.365 354.84 622.285 358.68C631.165 362.64 636.205 370.08 636.205 379.68C636.205 393.6 626.605 402 609.565 402H586.045ZM611.485 392.4C619.045 392.4 623.845 386.88 623.845 378.36C623.845 369.6 618.565 364.2 609.805 364.2H598.045V392.4H611.485ZM607.165 355.44C615.325 355.44 621.085 349.68 621.085 341.16C621.085 333.24 615.925 327.6 607.405 327.6H598.045V355.44H607.165ZM691.028 403.92C665.828 403.92 646.988 385.08 646.988 360C646.988 334.92 665.828 316.08 691.028 316.08C710.468 316.08 726.068 327.36 732.188 343.8L719.828 347.88C715.748 334.2 704.468 325.68 691.028 325.68C672.668 325.68 659.348 340.2 659.348 360C659.348 379.8 672.668 394.32 691.028 394.32C704.468 394.32 715.748 385.8 719.828 372.12L732.188 376.2C726.068 392.64 710.468 403.92 691.028 403.92ZM745.42 402V318H776.98C803.14 318 821.02 335.16 821.02 360C821.02 384.84 803.14 402 776.98 402H745.42ZM757.42 392.4H776.98C795.82 392.4 808.66 379.2 808.66 360C808.66 340.8 795.82 327.6 776.98 327.6H757.42V392.4ZM835.42 402V318H881.38L883.78 330.12L847.42 328.2V352.44L874.78 350.64V361.44H847.42V391.8L884.98 389.88L882.58 402H835.42ZM898.233 402V318H944.193L946.593 330.12L910.233 328.2V352.44L938.793 350.64V361.44H910.233V402H898.233ZM997.824 403.92C972.624 403.92 953.784 385.08 953.784 360C953.784 334.92 972.624 316.08 997.824 316.08C1016.54 316.08 1031.78 326.4 1038.38 342L1026.26 346.56C1022.3 333.48 1011.02 325.68 997.344 325.68C979.464 325.68 966.144 340.44 966.144 360C966.144 379.56 979.464 394.32 997.344 394.32C1015.1 394.32 1027.22 383.4 1029.5 366.48L993.624 368.28L995.784 357.6H1041.86V360C1041.86 385.08 1023.02 403.92 997.824 403.92ZM1055.62 402V318H1067.62V353.52H1103.62V318H1115.62V402H1103.62V362.52L1067.62 364.32V402H1055.62ZM1157.63 403.92C1142.51 403.92 1131.83 391.56 1131.83 374.04L1144.19 368.4V370.56C1144.19 385.44 1149.35 394.32 1158.11 394.32C1166.51 394.32 1171.43 386.76 1171.43 374.04V328.2L1130.99 330.24L1133.39 318.12H1171.43V318H1183.43V372.84C1183.43 392.16 1173.71 403.92 1157.63 403.92ZM1201.98 402V318H1213.98V369.12L1244.58 318H1258.98L1234.62 354.72L1258.98 402H1245.18L1227.66 364.8L1213.98 385.2V402H1201.98ZM1271.59 402V318H1283.59V391.8L1315.39 389.88L1312.99 402H1271.59ZM1325.03 402V318H1336.19L1364.15 384.24L1389.95 318H1402.43V402H1390.43V343.32L1367.27 402H1358.75L1334.03 343.92L1335.83 402H1325.03ZM476.534 522.12V438.12H486.134L527.414 501L524.534 438.12H536.534V522.12H526.934L485.654 459.12L488.534 522.12H476.534ZM594.992 523.92C569.792 523.92 550.952 505.08 550.952 480C550.952 454.92 569.792 436.08 594.992 436.08C620.192 436.08 639.032 454.92 639.032 480C639.032 505.08 620.192 523.92 594.992 523.92ZM594.992 514.32C613.112 514.32 626.672 499.56 626.672 480C626.672 460.44 613.112 445.68 594.992 445.68C576.872 445.68 563.312 460.44 563.312 480C563.312 499.56 576.872 514.32 594.992 514.32ZM653.487 522V438H681.807C696.207 438 706.047 447.72 706.047 461.76C706.047 477.24 694.527 487.8 677.727 487.8H665.487V522H653.487ZM677.727 478.8C687.687 478.8 693.687 472.92 693.687 463.2C693.687 453.48 688.527 447.6 680.007 447.6H665.487V477.6L677.727 478.8ZM758.469 538.56V530.16L799.269 526.44L796.869 538.56H758.469ZM758.469 523.92C733.269 523.92 714.429 505.08 714.429 480C714.429 454.92 733.269 436.08 758.469 436.08C783.669 436.08 802.509 454.92 802.509 480C802.509 505.08 783.669 523.92 758.469 523.92ZM758.469 514.32C776.589 514.32 790.149 499.56 790.149 480C790.149 460.44 776.589 445.68 758.469 445.68C740.349 445.68 726.789 460.44 726.789 480C726.789 499.56 740.349 514.32 758.469 514.32ZM816.963 522V438H846.483C860.883 438 870.723 447.12 870.723 460.32C870.723 470.88 864.843 478.92 854.763 482.76L873.363 522H859.803L844.563 484.8H828.963V522H816.963ZM842.403 475.8C852.603 475.8 858.363 470.64 858.363 461.64C858.363 452.88 853.203 447.6 844.683 447.6H828.963V474.48L842.403 475.8ZM907.425 523.92C892.185 523.92 882.465 513.36 882.945 497.28L895.425 495.6C895.185 496.8 895.065 497.88 895.065 498.96C895.065 507.96 900.705 514.2 908.865 514.2C916.305 514.2 921.465 509.4 921.465 502.32C921.465 496.08 918.465 491.64 910.785 487.56L897.105 480.24C888.345 475.56 883.545 467.88 883.545 458.28C883.545 445.08 893.265 436.08 907.305 436.08C921.225 436.08 930.705 446.04 930.705 460.68L918.225 461.52C918.345 460.44 918.465 459.48 918.465 458.64C918.465 449.52 911.865 445.68 905.745 445.68C898.545 445.68 893.385 450.24 893.385 456.6C893.385 462.36 896.505 466.2 904.305 470.4L917.985 477.72C926.745 482.4 931.785 490.68 931.785 500.28C931.785 514.32 921.825 523.92 907.425 523.92ZM962.449 522V448.2L938.449 450L936.049 438H998.449L1000.85 450L974.449 448.2V522H962.449ZM1040.43 523.92C1022.67 523.92 1010.43 511.32 1010.43 492.84V438H1022.43V490.44C1022.43 505.2 1029.87 514.08 1042.23 514.08C1054.11 514.08 1061.43 505.2 1061.43 490.56L1059.63 438H1070.43V492.96C1070.43 511.32 1058.19 523.92 1040.43 523.92ZM1108.87 522L1080.07 438H1093.15L1114.39 506.4L1135.87 438H1147.27L1118.47 522H1108.87ZM1170.97 522L1142.53 438H1155.61L1175.65 503.64L1195.93 438H1204.33L1224.61 505.32L1243.33 438H1254.73L1228.93 522H1219.45L1199.29 461.28L1180.33 522H1170.97ZM1255.4 522L1281.2 479.04L1256.72 438H1271.12L1288.64 471.72L1306.28 438H1318.88L1294.76 479.04L1320.2 522H1305.8L1287.32 486.24L1268 522H1255.4ZM1347.9 522V489.24L1319.58 438H1333.74L1354.62 480.48L1375.86 438H1388.22L1359.9 489.24V522H1347.9ZM1392.36 522V514.08L1432.68 448.08L1392.36 450.12L1394.76 438H1448.28V445.2L1407.36 511.92L1448.88 509.88L1446.48 522H1392.36ZM567.158 654C550.118 642.48 539.438 623.04 539.438 600C539.438 576.96 550.118 557.52 567.158 546L570.278 549.6C556.958 561.6 549.038 579.36 549.038 600C549.038 620.64 556.958 638.4 570.278 650.4L567.158 654ZM672.987 595.8C661.947 595.8 653.067 586.92 653.067 575.88C653.067 564.84 661.947 555.96 672.987 555.96C684.027 555.96 692.907 564.84 692.907 575.88C692.907 586.92 684.027 595.8 672.987 595.8ZM583.467 642.12V558.12H593.067L634.347 621L631.467 558.12H643.467V642.12H633.867L592.587 579.12L595.467 642.12H583.467ZM657.267 615.12V606.48L689.667 603.48L687.387 615.12H657.267ZM672.987 586.8C678.027 586.8 682.107 582 682.107 575.88C682.107 569.76 678.027 564.96 672.987 564.96C667.947 564.96 663.867 569.76 663.867 575.88C663.867 582 667.947 586.8 672.987 586.8ZM714.478 642V584.64L705.238 585.84L704.878 584.76C712.678 575.04 717.838 566.4 721.678 558H726.478V642H714.478ZM743.375 642V634.08L774.215 597.72C780.455 590.4 782.375 584.04 782.375 578.4C782.375 570.84 777.335 565.68 769.775 565.68C762.095 565.68 753.815 571.92 753.815 586.8C753.815 587.88 753.815 589.2 754.055 590.4L741.455 589.08C741.455 568.56 752.255 556.08 769.895 556.08C784.655 556.08 794.735 565.2 794.735 578.4C794.735 587.52 791.375 595.2 782.255 605.4L758.375 632.16L795.095 629.88L792.695 642H743.375ZM834.934 643.92C818.014 643.92 806.494 632.88 806.494 616.68L819.214 615C818.974 616.2 818.854 617.4 818.854 618.6C818.854 627.12 825.334 634.32 834.814 634.32C844.174 634.32 851.014 626.52 851.014 616.08C851.014 604.8 842.974 598.68 828.094 598.68H826.054V593.4L846.334 568.2L807.814 570.12L810.214 558H863.734V565.2L839.374 590.04C855.574 593.04 863.374 604.8 863.374 616.68C863.374 632.4 851.374 643.92 834.934 643.92ZM911.526 642V623.28H873.366V615.96L907.326 557.88L923.526 558V611.64L934.566 611.16L932.166 623.28H923.526V642H911.526ZM885.246 613.32L911.526 612.24V572.16L885.246 613.32ZM972.869 643.92C956.189 643.92 944.789 632.88 944.789 616.68L957.509 615C957.269 616.2 957.149 617.4 957.149 618.6C957.149 628.32 963.149 634.32 972.869 634.32C982.229 634.32 988.829 626.52 988.829 616.32C988.829 606.12 982.229 598.2 972.149 598.2C965.189 598.2 960.629 600.6 956.669 605.16L948.269 601.08L953.309 558H996.749L999.149 570.12L962.309 567.84L958.349 592.44C962.549 590.04 967.829 588.72 973.829 588.72C989.309 588.72 1001.19 600.12 1001.19 616.32C1001.19 632.52 989.189 643.92 972.869 643.92ZM1038.82 643.92C1022.38 643.92 1010.74 632.4 1010.74 616.08C1010.74 609.84 1013.14 602.88 1017.46 596.4L1042.9 558H1058.98L1033.66 589.2C1035.46 588.84 1037.5 588.6 1039.54 588.6C1055.62 588.6 1067.26 600.24 1067.26 616.32C1067.26 632.52 1055.26 643.92 1038.82 643.92ZM1038.82 634.32C1048.18 634.32 1054.9 626.52 1054.9 616.08C1054.9 605.64 1048.18 597.84 1038.82 597.84C1029.46 597.84 1022.74 605.64 1022.74 616.08C1022.74 626.52 1029.46 634.32 1038.82 634.32ZM1079.2 642L1116.64 567.96L1074.4 570.12L1076.8 558H1132V561.6L1093 642H1079.2ZM1164.67 643.92C1149.79 643.92 1138.39 633.48 1138.39 620.16C1138.39 611.64 1142.83 604.32 1149.79 600.12C1141.87 595.32 1138.03 587.16 1138.03 579.36C1138.03 567.6 1146.55 556.08 1164.67 556.08C1182.79 556.08 1191.31 567.6 1191.31 579.36C1191.31 587.16 1187.47 595.32 1179.55 600.12C1186.51 604.32 1190.95 611.64 1190.95 620.16C1190.95 633.48 1179.55 643.92 1164.67 643.92ZM1164.67 634.32C1172.83 634.32 1178.59 628.2 1178.59 619.44C1178.59 610.68 1172.83 604.56 1164.67 604.56C1156.51 604.56 1150.75 610.68 1150.75 619.44C1150.75 628.2 1156.51 634.32 1164.67 634.32ZM1164.67 595.92C1173.07 595.92 1178.95 589.56 1178.95 580.68C1178.95 571.92 1173.07 565.68 1164.67 565.68C1156.27 565.68 1150.39 571.92 1150.39 580.68C1150.39 589.56 1156.27 595.92 1164.67 595.92ZM1231.74 556.08C1248.18 556.08 1259.82 567.6 1259.82 583.92C1259.82 590.16 1257.42 597.12 1253.1 603.6L1227.66 642H1211.58L1236.9 610.8C1235.1 611.16 1233.06 611.4 1231.02 611.4C1214.94 611.4 1203.3 599.76 1203.3 583.68C1203.3 567.48 1215.3 556.08 1231.74 556.08ZM1231.74 565.68C1222.38 565.68 1215.66 573.48 1215.66 583.92C1215.66 594.36 1222.38 602.16 1231.74 602.16C1241.1 602.16 1247.82 594.36 1247.82 583.92C1247.82 573.48 1241.1 565.68 1231.74 565.68ZM1305.37 643.92C1285.21 643.92 1270.57 625.44 1270.57 600C1270.57 574.56 1285.21 556.08 1305.37 556.08C1325.53 556.08 1340.17 574.56 1340.17 600C1340.17 625.44 1325.53 643.92 1305.37 643.92ZM1305.37 634.32C1318.45 634.32 1327.93 619.8 1327.93 600C1327.93 580.2 1318.45 565.68 1305.37 565.68C1292.29 565.68 1282.81 580.2 1282.81 600C1282.81 619.8 1292.29 634.32 1305.37 634.32ZM1349.73 650.4C1363.05 638.4 1370.97 620.64 1370.97 600C1370.97 579.36 1363.05 561.6 1349.73 549.6L1352.85 546C1369.89 557.52 1380.57 576.96 1380.57 600C1380.57 623.04 1369.89 642.48 1352.85 654L1349.73 650.4ZM702.285 676.32C701.565 679.36 700.805 682.64 700.005 686.16C699.205 689.68 698.485 693.12 697.845 696.48C697.205 699.84 696.685 702.92 696.285 705.72H684.885L684.045 704.4C684.765 701.6 685.685 698.6 686.805 695.4C687.925 692.12 689.165 688.84 690.525 685.56C691.885 682.28 693.205 679.2 694.485 676.32H702.285ZM680.085 676.32C679.365 679.36 678.605 682.64 677.805 686.16C677.005 689.68 676.285 693.12 675.645 696.48C675.005 699.84 674.485 702.92 674.085 705.72H662.805L662.085 704.4C662.805 701.6 663.725 698.6 664.845 695.4C665.965 692.12 667.165 688.84 668.445 685.56C669.805 682.28 671.125 679.2 672.405 676.32H680.085ZM717.69 736.32V678H730.89L726.69 736.32H717.69ZM721.17 763.92C716.85 763.92 713.37 760.44 713.37 756.12C713.37 751.8 716.85 748.32 721.17 748.32C725.49 748.32 728.97 751.8 728.97 756.12C728.97 760.44 725.49 763.92 721.17 763.92ZM788.586 763.92C763.386 763.92 744.546 745.08 744.546 720C744.546 694.92 763.386 676.08 788.586 676.08C813.786 676.08 832.626 694.92 832.626 720.84C832.626 732.12 824.826 739.92 814.986 739.92C809.586 739.92 804.906 737.4 802.146 732.12C799.146 736.92 794.226 739.92 788.586 739.92C777.786 739.92 769.386 731.28 769.386 720C769.386 708.72 777.786 700.08 788.586 700.08C799.386 700.08 807.786 708.72 807.786 720V721.68C807.786 727.2 810.906 731.04 815.466 731.04C819.906 731.04 823.026 727.2 823.026 720.84C823.026 700.08 808.506 685.68 788.586 685.68C769.986 685.68 756.546 700.08 756.546 720C756.546 739.92 769.986 754.32 788.586 754.32C793.626 754.32 798.186 753.36 802.266 751.56L806.226 760.56C800.946 762.72 794.946 763.92 788.586 763.92ZM788.586 730.92C793.746 730.92 797.346 726.36 797.346 720C797.346 713.64 793.746 709.08 788.586 709.08C783.426 709.08 779.826 713.64 779.826 720C779.826 726.36 783.426 730.92 788.586 730.92ZM862.697 774.6L863.777 763.8C849.977 762.84 841.097 752.64 841.577 737.28L854.057 735.6C853.817 736.8 853.697 737.88 853.697 738.96C853.697 747.96 859.337 754.2 867.497 754.2C874.937 754.2 880.097 749.4 880.097 742.32C880.097 736.08 877.097 731.64 869.417 727.56L855.737 720.24C846.977 715.56 842.177 707.88 842.177 698.28C842.177 686.64 849.617 678.36 861.017 676.44L859.937 666H869.537V676.32C881.417 677.88 889.337 687.36 889.337 700.68L876.857 701.52C876.977 700.44 877.097 699.48 877.097 698.64C877.097 689.52 870.497 685.68 864.377 685.68C857.177 685.68 852.017 690.24 852.017 696.6C852.017 702.36 855.137 706.2 862.937 710.4L876.617 717.72C885.377 722.4 890.417 730.68 890.417 740.28C890.417 753.48 881.537 762.72 868.697 763.8V774.6H862.697ZM918.414 773.52L914.334 771L966.654 678H979.734L918.414 773.52ZM921.174 715.92C909.894 715.92 901.254 707.28 901.254 696C901.254 684.72 909.894 676.08 921.174 676.08C932.454 676.08 941.094 684.72 941.094 696C941.094 707.28 932.454 715.92 921.174 715.92ZM921.174 706.92C926.334 706.92 930.294 702.12 930.294 696C930.294 689.88 926.334 685.08 921.174 685.08C916.014 685.08 912.054 689.88 912.054 696C912.054 702.12 916.014 706.92 921.174 706.92ZM973.974 763.92C962.694 763.92 954.054 755.28 954.054 744C954.054 732.72 962.694 724.08 973.974 724.08C985.254 724.08 993.894 732.72 993.894 744C993.894 755.28 985.254 763.92 973.974 763.92ZM973.974 754.92C979.134 754.92 983.094 750.12 983.094 744C983.094 737.88 979.134 733.08 973.974 733.08C968.814 733.08 964.854 737.88 964.854 744C964.854 750.12 968.814 754.92 973.974 754.92ZM1055.7 762L1048.62 750.36L1047.42 751.92C1040.58 760.32 1034.34 763.68 1025.58 763.68C1012.98 763.68 1003.5 754.68 1003.5 742.68C1003.5 735.6 1006.74 727.92 1012.26 722.4L1024.38 710.4L1004.82 678H1064.1L1061.46 690L1024.86 688.2L1052.22 732.84L1055.82 728.4H1066.62L1056.9 740.4L1070.1 762H1055.7ZM1015.14 740.28C1015.14 747.48 1021.5 753.12 1028.46 753.12C1032.54 753.12 1036.86 751.44 1040.82 746.64L1044.06 742.68L1029.18 718.2L1020.54 727.8C1017.06 731.76 1015.14 736.2 1015.14 740.28ZM1104.99 774C1087.95 762.48 1077.27 743.04 1077.27 720C1077.27 696.96 1087.95 677.52 1104.99 666L1108.11 669.6C1094.79 681.6 1086.87 699.36 1086.87 720C1086.87 740.64 1094.79 758.4 1108.11 770.4L1104.99 774ZM1115.3 770.4C1128.62 758.4 1136.54 740.64 1136.54 720C1136.54 699.36 1128.62 681.6 1115.3 669.6L1118.42 666C1135.46 677.52 1146.14 696.96 1146.14 720C1146.14 743.04 1135.46 762.48 1118.42 774L1115.3 770.4ZM1179.73 736.32C1179.61 735.12 1179.49 734.04 1179.49 733.08C1179.49 728.88 1181.29 725.88 1185.49 720.96L1192.69 712.44C1196.17 708.24 1198.45 704.04 1198.45 697.8C1198.45 690.6 1193.29 685.68 1185.85 685.68C1175.89 685.68 1169.77 693.72 1169.77 706.8C1169.77 708.6 1170.01 710.64 1170.37 712.92L1157.65 711.48C1157.53 710.64 1157.53 709.8 1157.53 708.96C1157.53 689.52 1169.05 676.08 1185.97 676.08C1200.73 676.08 1210.81 684.72 1210.81 697.2C1210.81 703.8 1206.97 711.12 1201.09 717.48L1193.41 725.76C1189.21 730.32 1188.13 732.48 1188.13 734.88V736.32H1179.73ZM1184.53 763.92C1180.21 763.92 1176.73 760.44 1176.73 756.12C1176.73 751.8 1180.21 748.32 1184.53 748.32C1188.85 748.32 1192.33 751.8 1192.33 756.12C1192.33 760.44 1188.85 763.92 1184.53 763.92ZM1257.87 677.64C1257.15 680.44 1256.23 683.48 1255.11 686.76C1253.99 690.04 1252.75 693.32 1251.39 696.6C1250.11 699.8 1248.83 702.84 1247.55 705.72H1239.63C1240.43 702.68 1241.19 699.44 1241.91 696C1242.71 692.48 1243.43 689.04 1244.07 685.68C1244.79 682.24 1245.35 679.12 1245.75 676.32H1257.03L1257.87 677.64ZM1235.67 677.64C1234.95 680.44 1234.03 683.48 1232.91 686.76C1231.79 690.04 1230.55 693.32 1229.19 696.6C1227.91 699.8 1226.63 702.84 1225.35 705.72H1217.67C1218.23 703.48 1218.79 701.08 1219.35 698.52C1219.91 695.96 1220.43 693.4 1220.91 690.84C1221.47 688.2 1221.95 685.64 1222.35 683.16C1222.83 680.68 1223.23 678.4 1223.55 676.32H1234.83L1235.67 677.64Z" fill="black"/>
</svg>
