<svg width="1080" height="1080" viewBox="0 0 1080 1080" fill="none" xmlns="http://www.w3.org/2000/svg">
<rect width="1080" height="1080" fill="#FF885E"/>
<path d="M271.221 342V258H283.221V331.8L319.221 329.88L316.821 342H271.221ZM304.821 319.32V258H316.821V319.32H304.821ZM374.68 343.92C349.48 343.92 330.64 325.08 330.64 300C330.64 274.92 349.48 256.08 374.68 256.08C393.4 256.08 408.64 266.4 415.24 282L403.12 286.56C399.16 273.48 387.88 265.68 374.2 265.68C356.32 265.68 343 280.44 343 300C343 319.56 356.32 334.32 374.2 334.32C391.96 334.32 404.08 323.4 406.36 306.48L370.48 308.28L372.64 297.6H418.72V300C418.72 325.08 399.88 343.92 374.68 343.92ZM422.299 342L451.099 258H460.699L489.499 342H476.419L471.019 324.6L438.619 326.52L433.699 342H422.299ZM441.979 315.84H468.259L455.179 273.6L441.979 315.84ZM509.285 342V268.2L485.285 270L482.885 258H545.285L547.685 270L521.285 268.2V342H509.285ZM587.262 343.92C569.502 343.92 557.262 331.32 557.262 312.84V258H569.262V310.44C569.262 325.2 576.702 334.08 589.062 334.08C600.942 334.08 608.262 325.2 608.262 310.56L606.462 258H617.262V312.96C617.262 331.32 605.022 343.92 587.262 343.92ZM635.909 342V258H665.429C679.829 258 689.669 267.12 689.669 280.32C689.669 290.88 683.789 298.92 673.709 302.76L692.309 342H678.749L663.509 304.8H647.909V342H635.909ZM661.349 295.8C671.549 295.8 677.309 290.64 677.309 281.64C677.309 272.88 672.149 267.6 663.629 267.6H647.909V294.48L661.349 295.8ZM706.69 342V258H752.65L755.05 270.12L718.69 268.2V292.44L746.05 290.64V301.44H718.69V331.8L756.25 329.88L753.85 342H706.69ZM789.182 343.92C773.942 343.92 764.222 333.36 764.702 317.28L777.182 315.6C776.942 316.8 776.822 317.88 776.822 318.96C776.822 327.96 782.462 334.2 790.622 334.2C798.062 334.2 803.222 329.4 803.222 322.32C803.222 316.08 800.222 311.64 792.542 307.56L778.862 300.24C770.102 295.56 765.302 287.88 765.302 278.28C765.302 265.08 775.022 256.08 789.062 256.08C802.982 256.08 812.462 266.04 812.462 280.68L799.982 281.52C800.102 280.44 800.222 279.48 800.222 278.64C800.222 269.52 793.622 265.68 787.502 265.68C780.302 265.68 775.142 270.24 775.142 276.6C775.142 282.36 778.262 286.2 786.062 290.4L799.742 297.72C808.502 302.4 813.542 310.68 813.542 320.28C813.542 334.32 803.582 343.92 789.182 343.92ZM173.194 462V378H201.514C215.914 378 225.754 387.72 225.754 401.76C225.754 417.24 214.234 427.8 197.434 427.8H185.194V462H173.194ZM197.434 418.8C207.394 418.8 213.394 412.92 213.394 403.2C213.394 393.48 208.234 387.6 199.714 387.6H185.194V417.6L197.434 418.8ZM240.108 462V378H269.628C284.028 378 293.868 387.12 293.868 400.32C293.868 410.88 287.988 418.92 277.908 422.76L296.508 462H282.948L267.708 424.8H252.108V462H240.108ZM265.548 415.8C275.748 415.8 281.508 410.64 281.508 401.64C281.508 392.88 276.348 387.6 267.828 387.6H252.108V414.48L265.548 415.8ZM310.889 462V378H356.849L359.249 390.12L322.889 388.2V412.44L350.249 410.64V421.44H322.889V451.8L360.449 449.88L358.049 462H310.889ZM393.382 463.92C378.142 463.92 368.422 453.36 368.902 437.28L381.382 435.6C381.142 436.8 381.022 437.88 381.022 438.96C381.022 447.96 386.662 454.2 394.822 454.2C402.262 454.2 407.422 449.4 407.422 442.32C407.422 436.08 404.422 431.64 396.742 427.56L383.062 420.24C374.302 415.56 369.502 407.88 369.502 398.28C369.502 384.84 378.862 376.08 393.262 376.08C405.742 376.08 416.542 384.6 424.102 400.32L439.462 435.84C444.622 447.72 451.342 454.2 460.342 454.2C467.782 454.2 472.942 449.4 472.942 442.32C472.942 436.08 469.942 431.64 462.262 427.56L448.582 420.24C439.822 415.56 435.022 407.88 435.022 398.28C435.022 385.08 444.742 376.08 458.782 376.08C472.702 376.08 482.182 386.04 482.182 400.68L469.702 401.52C469.822 400.44 469.942 399.48 469.942 398.64C469.942 389.52 463.342 385.68 457.222 385.68C450.022 385.68 444.862 390.24 444.862 396.6C444.862 402.36 447.982 406.2 455.782 410.4L469.462 417.72C478.222 422.4 483.262 430.68 483.262 440.28C483.262 454.32 473.302 463.92 458.902 463.92C446.422 463.92 436.102 455.4 429.262 439.56L414.382 405C408.982 392.4 401.662 385.68 391.702 385.68C384.502 385.68 379.342 390.24 379.342 396.6C379.342 402.36 382.462 406.2 390.262 410.4L403.942 417.72C412.702 422.4 417.742 430.68 417.742 440.28C417.742 454.32 407.782 463.92 393.382 463.92ZM527.686 462V378H557.206C571.606 378 581.446 387.12 581.446 400.32C581.446 410.88 575.566 418.92 565.486 422.76L584.086 462H570.526L555.286 424.8H539.686V462H527.686ZM553.126 415.8C563.326 415.8 569.086 410.64 569.086 401.64C569.086 392.88 563.926 387.6 555.406 387.6H539.686V414.48L553.126 415.8ZM598.467 462V378H644.427L646.827 390.12L610.467 388.2V412.44L637.827 410.64V421.44H610.467V451.8L648.027 449.88L645.627 462H598.467ZM661.28 462V378H673.28V451.8L714.68 449.88L712.4 462H661.28ZM684.68 439.32V378H715.52L717.68 389.4L696.08 387.36V404.4L711.56 402.96V413.04H696.08V430.08L718.88 427.92L716.6 439.32H684.68ZM727.28 462L756.08 378H765.68L794.48 462H781.4L776 444.6L743.6 446.52L738.68 462H727.28ZM746.96 435.84H773.24L760.16 393.6L746.96 435.84ZM824.397 463.92C809.157 463.92 799.437 453.36 799.917 437.28L812.397 435.6C812.157 436.8 812.037 437.88 812.037 438.96C812.037 447.96 817.677 454.2 825.837 454.2C833.277 454.2 838.437 449.4 838.437 442.32C838.437 436.08 835.437 431.64 827.757 427.56L814.077 420.24C805.317 415.56 800.517 407.88 800.517 398.28C800.517 385.08 810.237 376.08 824.277 376.08C838.197 376.08 847.677 386.04 847.677 400.68L835.197 401.52C835.317 400.44 835.437 399.48 835.437 398.64C835.437 389.52 828.837 385.68 822.717 385.68C815.517 385.68 810.357 390.24 810.357 396.6C810.357 402.36 813.477 406.2 821.277 410.4L834.957 417.72C843.717 422.4 848.757 430.68 848.757 440.28C848.757 454.32 838.797 463.92 824.397 463.92ZM863.194 462V378H909.154L911.554 390.12L875.194 388.2V412.44L902.554 410.64V421.44H875.194V451.8L912.754 449.88L910.354 462H863.194ZM140.264 582V498H186.224L188.624 510.12L152.264 508.2V532.44L179.624 530.64V541.44H152.264V571.8L189.824 569.88L187.424 582H140.264ZM203.077 582V498H231.397C245.797 498 255.637 507.72 255.637 521.76C255.637 537.24 244.117 547.8 227.317 547.8H215.077V582H203.077ZM227.317 538.8C237.277 538.8 243.277 532.92 243.277 523.2C243.277 513.48 238.117 507.6 229.597 507.6H215.077V537.6L227.317 538.8ZM318.499 583.92C303.259 583.92 293.539 573.36 294.019 557.28L306.499 555.6C306.259 556.8 306.139 557.88 306.139 558.96C306.139 567.96 311.779 574.2 319.939 574.2C327.379 574.2 332.539 569.4 332.539 562.32C332.539 556.08 329.539 551.52 321.859 547.44L309.499 540.84C299.419 535.44 294.139 527.88 294.139 517.2C294.139 505.8 302.899 498 315.739 498H369.259V582H357.259V507.6H315.739C308.059 507.6 303.739 511.08 303.739 517.2C303.739 522 307.819 526.68 315.379 530.4L329.059 537.72C337.819 542.4 342.859 550.68 342.859 560.28C342.859 574.32 332.899 583.92 318.499 583.92ZM388.467 582.12V498.12H398.067L439.347 561L436.467 498.12H448.467V582.12H438.867L397.587 519.12L400.467 582.12H388.467ZM506.926 583.92C481.726 583.92 462.886 565.08 462.886 540C462.886 514.92 481.726 496.08 506.926 496.08C525.646 496.08 540.886 506.4 547.486 522L535.366 526.56C531.406 513.48 520.126 505.68 506.446 505.68C488.566 505.68 475.246 520.44 475.246 540C475.246 559.56 488.566 574.32 506.446 574.32C524.206 574.32 536.326 563.4 538.606 546.48L502.726 548.28L504.886 537.6H550.966V540C550.966 565.08 532.126 583.92 506.926 583.92ZM564.717 582V498H576.717V571.8L618.117 569.88L615.837 582H564.717ZM588.117 559.32V498H618.957L621.117 509.4L599.517 507.36V524.4L614.997 522.96V533.04H599.517V550.08L622.317 547.92L620.037 559.32H588.117ZM750.477 583.92C740.997 583.92 732.477 581.28 725.397 576.6C718.917 580.08 711.237 582 702.957 582H669.717V498H702.957C711.237 498 718.917 499.92 725.397 503.4C732.477 498.72 740.997 496.08 750.477 496.08C775.677 496.08 794.517 514.92 794.517 540C794.517 565.08 775.677 583.92 750.477 583.92ZM702.957 572.64C708.117 572.64 713.037 571.44 717.237 569.4C710.517 561.84 706.437 551.52 706.437 540C706.437 528.48 710.517 518.16 717.237 510.6C713.037 508.56 708.117 507.36 702.957 507.36H681.717V572.64H702.957ZM726.597 563.4C731.637 557.28 734.637 549.12 734.637 540C734.637 530.88 731.637 522.72 726.597 516.6C721.677 522.84 718.797 530.88 718.797 540C718.797 549.12 721.677 557.16 726.597 563.4ZM750.477 574.32C768.597 574.32 782.157 559.56 782.157 540C782.157 520.44 768.597 505.68 750.477 505.68C744.597 505.68 739.077 507.24 734.517 510C742.197 517.44 746.997 528 746.997 540C746.997 552 742.197 562.56 734.517 570C739.077 572.76 744.597 574.32 750.477 574.32ZM808.936 582V498H838.456C852.856 498 862.696 507.12 862.696 520.32C862.696 530.88 856.816 538.92 846.736 542.76L865.336 582H851.776L836.536 544.8H820.936V582H808.936ZM834.376 535.8C844.576 535.8 850.336 530.64 850.336 521.64C850.336 512.88 845.176 507.6 836.656 507.6H820.936V534.48L834.376 535.8ZM879.717 582.12V498.12H889.317L930.597 561L927.717 498.12H939.717V582.12H930.117L888.837 519.12L891.717 582.12H879.717ZM300.442 703.92C275.242 703.92 256.402 685.08 256.402 660C256.402 634.92 275.242 616.08 300.442 616.08C313.162 616.08 324.322 620.88 332.242 628.92L321.202 635.28C315.682 629.16 308.002 625.68 299.362 625.68C281.602 625.68 268.762 640.2 268.762 660C268.762 679.8 281.602 694.32 299.362 694.32C308.002 694.32 315.682 690.84 321.202 684.72L332.242 691.08C324.322 699.12 313.162 703.92 300.442 703.92ZM329.362 679.92C318.082 679.92 309.442 671.28 309.442 660C309.442 648.72 318.082 640.08 329.362 640.08C340.642 640.08 349.282 648.72 349.282 660C349.282 671.28 340.642 679.92 329.362 679.92ZM329.362 670.92C334.522 670.92 338.482 666.12 338.482 660C338.482 653.88 334.522 649.08 329.362 649.08C324.202 649.08 320.242 653.88 320.242 660C320.242 666.12 324.202 670.92 329.362 670.92ZM360.108 702V618H371.268L399.708 685.2L426.948 618H436.548L466.308 684.36L491.628 618H504.108V702H492.108V642.12L468.948 702H461.028L435.708 645.48H434.868L436.308 702H425.508L426.468 646.08H425.628L402.348 702H393.828L369.108 643.92L370.908 702H360.108ZM552.75 704.04C534.99 704.04 522.75 691.92 522.75 674.16V618.12H534.75V670.68C534.75 685.32 542.19 694.2 554.55 694.2C566.43 694.2 573.75 685.32 573.75 670.68L571.95 618.12H581.55L622.83 681L619.95 618.12H631.95V702.12H622.35L582.63 641.64L582.75 673.08C582.75 691.44 570.51 704.04 552.75 704.04ZM651.202 702V618H663.202V702H651.202ZM699.773 702V628.56L675.773 630L673.373 618H742.133L764.213 660.48L785.453 618H797.813L751.493 702H738.893L758.453 670.92L732.653 626.64L711.773 627.84V702H699.773ZM806.342 676.32V618H819.542L815.342 676.32H806.342ZM809.822 703.92C805.502 703.92 802.022 700.44 802.022 696.12C802.022 691.8 805.502 688.32 809.822 688.32C814.142 688.32 817.622 691.8 817.622 696.12C817.622 700.44 814.142 703.92 809.822 703.92ZM409.895 823.92C384.695 823.92 365.855 805.08 365.855 780C365.855 754.92 384.695 736.08 409.895 736.08C429.335 736.08 444.935 747.36 451.055 763.8L438.695 767.88C434.615 754.2 423.335 745.68 409.895 745.68C391.535 745.68 378.215 760.2 378.215 780C378.215 799.8 391.535 814.32 409.895 814.32C423.335 814.32 434.615 805.8 438.695 792.12L451.055 796.2C444.935 812.64 429.335 823.92 409.895 823.92ZM464.255 822V738H476.255V811.8L518.855 809.88L516.575 822H464.255ZM487.055 799.32V738H499.055V789.24L523.055 787.08L520.775 799.32H487.055ZM535.055 822V738H558.215C572.615 738 582.455 747.24 582.455 760.68C582.455 768.48 578.375 774.84 571.295 778.68C580.175 782.64 585.215 790.08 585.215 799.68C585.215 813.6 575.615 822 558.575 822H535.055ZM560.495 812.4C568.055 812.4 572.855 806.88 572.855 798.36C572.855 789.6 567.575 784.2 558.815 784.2H547.055V812.4H560.495ZM556.175 775.44C564.335 775.44 570.095 769.68 570.095 761.16C570.095 753.24 564.935 747.6 556.415 747.6H547.055V775.44H556.175ZM670.051 823.92C644.851 823.92 626.011 805.08 626.011 780C626.011 754.92 644.851 736.08 670.051 736.08C695.251 736.08 714.091 754.92 714.091 780C714.091 805.08 695.251 823.92 670.051 823.92ZM670.051 814.32C688.171 814.32 701.731 799.56 701.731 780C701.731 760.44 688.171 745.68 670.051 745.68C651.931 745.68 638.371 760.44 638.371 780C638.371 799.56 651.931 814.32 670.051 814.32ZM664.651 801.6V771.6L650.251 773.04L652.171 762.6H687.931L689.851 773.04L675.451 771.6V801.6H664.651Z" fill="black"/>
<path d="M540.836 70.928C528.656 70.928 519.55 61.822 519.55 49.7C519.55 37.578 528.656 28.472 540.836 28.472C550.232 28.472 557.83 33.866 560.73 41.87L555.22 43.668C553.132 37.288 547.738 32.996 540.836 32.996C531.962 32.996 525.524 40.188 525.524 49.7C525.524 59.212 531.962 66.404 540.836 66.404C547.738 66.404 553.132 62.112 555.22 55.732L560.73 57.53C557.772 65.534 550.232 70.928 540.836 70.928ZM541.068 59.328C535.848 59.328 531.788 55.152 531.788 49.7C531.788 44.248 535.848 40.072 541.068 40.072C546.288 40.072 550.348 44.248 550.348 49.7C550.348 55.152 546.288 59.328 541.068 59.328ZM541.068 54.978C543.562 54.978 545.302 52.774 545.302 49.7C545.302 46.626 543.562 44.422 541.068 44.422C538.574 44.422 536.834 46.626 536.834 49.7C536.834 52.774 538.574 54.978 541.068 54.978Z" fill="black"/>
</svg>
