<svg width="1080" height="1080" viewBox="0 0 1080 1080" fill="none" xmlns="http://www.w3.org/2000/svg">
<rect width="1080" height="1080" fill="#EFE14A"/>
<path d="M558.026 295.8C546.986 295.8 538.106 286.92 538.106 275.88C538.106 264.84 546.986 255.96 558.026 255.96C569.066 255.96 577.946 264.84 577.946 275.88C577.946 286.92 569.066 295.8 558.026 295.8ZM468.506 342.12V258.12H478.106L519.386 321L516.506 258.12H528.506V342.12H518.906L477.626 279.12L480.506 342.12H468.506ZM542.306 315.12V306.48L574.706 303.48L572.426 315.12H542.306ZM558.026 286.8C563.066 286.8 567.146 282 567.146 275.88C567.146 269.76 563.066 264.96 558.026 264.96C552.986 264.96 548.906 269.76 548.906 275.88C548.906 282 552.986 286.8 558.026 286.8ZM599.517 342V284.64L590.277 285.84L589.917 284.76C597.717 275.04 602.877 266.4 606.717 258H611.517V342H599.517ZM257.773 463.92C237.613 463.92 222.973 445.44 222.973 420C222.973 394.56 237.613 376.08 257.773 376.08C277.933 376.08 292.573 394.56 292.573 420C292.573 445.44 277.933 463.92 257.773 463.92ZM257.773 454.32C270.853 454.32 280.333 439.8 280.333 420C280.333 400.2 270.853 385.68 257.773 385.68C244.693 385.68 235.213 400.2 235.213 420C235.213 439.8 244.693 454.32 257.773 454.32ZM312.935 462V404.64L303.695 405.84L303.335 404.76C311.135 395.04 316.295 386.4 320.135 378H324.935V462H312.935ZM341.832 462V454.08L372.672 417.72C378.912 410.4 380.832 404.04 380.832 398.4C380.832 390.84 375.792 385.68 368.232 385.68C360.552 385.68 352.272 391.92 352.272 406.8C352.272 407.88 352.272 409.2 352.512 410.4L339.912 409.08C339.912 388.56 350.712 376.08 368.352 376.08C383.112 376.08 393.192 385.2 393.192 398.4C393.192 407.52 389.832 415.2 380.712 425.4L356.832 452.16L393.552 449.88L391.152 462H341.832ZM433.391 463.92C416.471 463.92 404.951 452.88 404.951 436.68L417.671 435C417.431 436.2 417.311 437.4 417.311 438.6C417.311 447.12 423.791 454.32 433.271 454.32C442.631 454.32 449.471 446.52 449.471 436.08C449.471 424.8 441.431 418.68 426.551 418.68H424.511V413.4L444.791 388.2L406.271 390.12L408.671 378H462.191V385.2L437.831 410.04C454.031 413.04 461.831 424.8 461.831 436.68C461.831 452.4 449.831 463.92 433.391 463.92ZM509.983 462V443.28H471.823V435.96L505.783 377.88L521.983 378V431.64L533.023 431.16L530.623 443.28H521.983V462H509.983ZM483.703 433.32L509.983 432.24V392.16L483.703 433.32ZM571.326 463.92C554.646 463.92 543.246 452.88 543.246 436.68L555.966 435C555.726 436.2 555.606 437.4 555.606 438.6C555.606 448.32 561.606 454.32 571.326 454.32C580.686 454.32 587.286 446.52 587.286 436.32C587.286 426.12 580.686 418.2 570.606 418.2C563.646 418.2 559.086 420.6 555.126 425.16L546.726 421.08L551.766 378H595.206L597.606 390.12L560.766 387.84L556.806 412.44C561.006 410.04 566.286 408.72 572.286 408.72C587.766 408.72 599.646 420.12 599.646 436.32C599.646 452.52 587.646 463.92 571.326 463.92ZM637.275 463.92C620.835 463.92 609.195 452.4 609.195 436.08C609.195 429.84 611.595 422.88 615.915 416.4L641.355 378H657.435L632.115 409.2C633.915 408.84 635.955 408.6 637.995 408.6C654.075 408.6 665.715 420.24 665.715 436.32C665.715 452.52 653.715 463.92 637.275 463.92ZM637.275 454.32C646.635 454.32 653.355 446.52 653.355 436.08C653.355 425.64 646.635 417.84 637.275 417.84C627.915 417.84 621.195 425.64 621.195 436.08C621.195 446.52 627.915 454.32 637.275 454.32ZM677.66 462L715.1 387.96L672.86 390.12L675.26 378H730.46V381.6L691.46 462H677.66ZM763.128 463.92C748.248 463.92 736.848 453.48 736.848 440.16C736.848 431.64 741.288 424.32 748.248 420.12C740.328 415.32 736.488 407.16 736.488 399.36C736.488 387.6 745.008 376.08 763.128 376.08C781.248 376.08 789.768 387.6 789.768 399.36C789.768 407.16 785.928 415.32 778.008 420.12C784.968 424.32 789.408 431.64 789.408 440.16C789.408 453.48 778.008 463.92 763.128 463.92ZM763.128 454.32C771.288 454.32 777.048 448.2 777.048 439.44C777.048 430.68 771.288 424.56 763.128 424.56C754.968 424.56 749.208 430.68 749.208 439.44C749.208 448.2 754.968 454.32 763.128 454.32ZM763.128 415.92C771.528 415.92 777.408 409.56 777.408 400.68C777.408 391.92 771.528 385.68 763.128 385.68C754.728 385.68 748.848 391.92 748.848 400.68C748.848 409.56 754.728 415.92 763.128 415.92ZM830.202 376.08C846.642 376.08 858.282 387.6 858.282 403.92C858.282 410.16 855.882 417.12 851.562 423.6L826.122 462H810.042L835.362 430.8C833.562 431.16 831.522 431.4 829.482 431.4C813.402 431.4 801.762 419.76 801.762 403.68C801.762 387.48 813.762 376.08 830.202 376.08ZM830.202 385.68C820.842 385.68 814.122 393.48 814.122 403.92C814.122 414.36 820.842 422.16 830.202 422.16C839.562 422.16 846.282 414.36 846.282 403.92C846.282 393.48 839.562 385.68 830.202 385.68ZM101.646 582V524.64L92.4061 525.84L92.0461 524.76C99.8461 515.04 105.006 506.4 108.846 498H113.646V582H101.646ZM152.503 583.92C137.263 583.92 127.543 573.36 128.023 557.28L140.503 555.6C140.263 556.8 140.143 557.88 140.143 558.96C140.143 567.96 145.783 574.2 153.943 574.2C161.383 574.2 166.543 569.4 166.543 562.32C166.543 556.08 163.543 551.52 155.863 547.44L143.503 540.84C133.423 535.44 128.143 527.88 128.143 517.2C128.143 505.8 136.903 498 149.743 498H227.263L229.663 510L203.263 508.2V582H191.263V507.6H149.743C142.063 507.6 137.743 511.08 137.743 517.2C137.743 522 141.823 526.68 149.383 530.4L163.063 537.72C171.823 542.4 176.863 550.68 176.863 560.28C176.863 574.32 166.903 583.92 152.503 583.92ZM265.191 582V574.08L296.031 537.72C302.271 530.4 304.191 524.04 304.191 518.4C304.191 510.84 299.151 505.68 291.591 505.68C283.911 505.68 275.631 511.92 275.631 526.8C275.631 527.88 275.631 529.2 275.871 530.4L263.271 529.08C263.271 508.56 274.071 496.08 291.711 496.08C306.471 496.08 316.551 505.2 316.551 518.4C316.551 527.52 313.191 535.2 304.071 545.4L280.191 572.16L316.911 569.88L314.511 582H265.191ZM332.51 582.12V498.12H342.11L383.39 561L380.51 498.12H392.51V582.12H382.91L341.63 519.12L344.51 582.12H332.51ZM411.729 582V498H443.289C469.449 498 487.329 515.16 487.329 540C487.329 564.84 469.449 582 443.289 582H411.729ZM423.729 572.4H443.289C462.129 572.4 474.969 559.2 474.969 540C474.969 520.8 462.129 507.6 443.289 507.6H423.729V572.4ZM555.969 583.92C539.049 583.92 527.529 572.88 527.529 556.68L540.249 555C540.009 556.2 539.889 557.4 539.889 558.6C539.889 567.12 546.369 574.32 555.849 574.32C565.209 574.32 572.049 566.52 572.049 556.08C572.049 544.8 564.009 538.68 549.129 538.68H547.089V533.4L567.369 508.2L528.849 510.12L531.249 498H584.769V505.2L560.409 530.04C576.609 533.04 584.409 544.8 584.409 556.68C584.409 572.4 572.409 583.92 555.969 583.92ZM600.401 582V498H629.921C644.321 498 654.161 507.12 654.161 520.32C654.161 530.88 648.281 538.92 638.201 542.76L656.801 582H643.241L628.001 544.8H612.401V582H600.401ZM625.841 535.8C636.041 535.8 641.801 530.64 641.801 521.64C641.801 512.88 636.641 507.6 628.121 507.6H612.401V534.48L625.841 535.8ZM671.182 582V498H702.742C728.902 498 746.782 515.16 746.782 540C746.782 564.84 728.902 582 702.742 582H671.182ZM683.182 572.4H702.742C721.582 572.4 734.422 559.2 734.422 540C734.422 520.8 721.582 507.6 702.742 507.6H683.182V572.4ZM823.342 582V563.28H785.182V555.96L819.142 497.88L835.342 498V551.64L846.382 551.16L843.982 563.28H835.342V582H823.342ZM797.062 553.32L823.342 552.24V512.16L797.062 553.32ZM877.605 582V508.2L853.605 510L851.205 498H935.205V533.52H971.205V498H983.205V582H971.205V542.52L935.205 544.32V582H923.205V507.6H889.605V582H877.605ZM203.879 703.92C186.959 703.92 175.439 692.88 175.439 676.68L188.159 675C187.919 676.2 187.799 677.4 187.799 678.6C187.799 687.12 194.279 694.32 203.759 694.32C213.119 694.32 219.959 686.52 219.959 676.08C219.959 664.8 211.919 658.68 197.039 658.68H194.999V653.4L215.279 628.2L176.759 630.12L179.159 618H232.679V625.2L208.319 650.04C224.519 653.04 232.319 664.8 232.319 676.68C232.319 692.4 220.319 703.92 203.879 703.92ZM279.511 703.92C259.351 703.92 244.711 685.44 244.711 660C244.711 634.56 259.351 616.08 279.511 616.08C299.671 616.08 314.311 634.56 314.311 660C314.311 685.44 299.671 703.92 279.511 703.92ZM279.511 694.32C292.591 694.32 302.071 679.8 302.071 660C302.071 640.2 292.591 625.68 279.511 625.68C266.431 625.68 256.951 640.2 256.951 660C256.951 679.8 266.431 694.32 279.511 694.32ZM361.073 703.92C340.913 703.92 326.273 685.44 326.273 660C326.273 634.56 340.913 616.08 361.073 616.08C381.233 616.08 395.873 634.56 395.873 660C395.873 685.44 381.233 703.92 361.073 703.92ZM361.073 694.32C374.153 694.32 383.633 679.8 383.633 660C383.633 640.2 374.153 625.68 361.073 625.68C347.993 625.68 338.513 640.2 338.513 660C338.513 679.8 347.993 694.32 361.073 694.32ZM442.636 703.92C422.476 703.92 407.836 685.44 407.836 660C407.836 634.56 422.476 616.08 442.636 616.08C462.796 616.08 477.436 634.56 477.436 660C477.436 685.44 462.796 703.92 442.636 703.92ZM442.636 694.32C455.716 694.32 465.196 679.8 465.196 660C465.196 640.2 455.716 625.68 442.636 625.68C429.556 625.68 420.076 640.2 420.076 660C420.076 679.8 429.556 694.32 442.636 694.32ZM509.318 714.6L510.398 703.8C496.598 702.84 487.718 692.64 488.198 677.28L500.678 675.6C500.438 676.8 500.318 677.88 500.318 678.96C500.318 687.96 505.958 694.2 514.118 694.2C521.558 694.2 526.718 689.4 526.718 682.32C526.718 676.08 523.718 671.64 516.038 667.56L502.358 660.24C493.598 655.56 488.798 647.88 488.798 638.28C488.798 626.64 496.238 618.36 507.638 616.44L506.558 606H516.158V616.32C528.038 617.88 535.958 627.36 535.958 640.68L523.478 641.52C523.598 640.44 523.718 639.48 523.718 638.64C523.718 629.52 517.118 625.68 510.998 625.68C503.798 625.68 498.638 630.24 498.638 636.6C498.638 642.36 501.758 646.2 509.558 650.4L523.238 657.72C531.998 662.4 537.038 670.68 537.038 680.28C537.038 693.48 528.158 702.72 515.318 703.8V714.6H509.318ZM579.195 702V694.08L610.035 657.72C616.275 650.4 618.195 644.04 618.195 638.4C618.195 630.84 613.155 625.68 605.595 625.68C597.915 625.68 589.635 631.92 589.635 646.8C589.635 647.88 589.635 649.2 589.875 650.4L577.275 649.08C577.275 628.56 588.075 616.08 605.715 616.08C620.475 616.08 630.555 625.2 630.555 638.4C630.555 647.52 627.195 655.2 618.075 665.4L594.195 692.16L630.915 689.88L628.515 702H579.195ZM677.714 703.92C657.554 703.92 642.914 685.44 642.914 660C642.914 634.56 657.554 616.08 677.714 616.08C697.874 616.08 712.514 634.56 712.514 660C712.514 685.44 697.874 703.92 677.714 703.92ZM677.714 694.32C690.794 694.32 700.274 679.8 700.274 660C700.274 640.2 690.794 625.68 677.714 625.68C664.634 625.68 655.154 640.2 655.154 660C655.154 679.8 664.634 694.32 677.714 694.32ZM759.277 703.92C739.117 703.92 724.477 685.44 724.477 660C724.477 634.56 739.117 616.08 759.277 616.08C779.437 616.08 794.077 634.56 794.077 660C794.077 685.44 779.437 703.92 759.277 703.92ZM759.277 694.32C772.357 694.32 781.837 679.8 781.837 660C781.837 640.2 772.357 625.68 759.277 625.68C746.197 625.68 736.717 640.2 736.717 660C736.717 679.8 746.197 694.32 759.277 694.32ZM865.679 703.92C845.879 703.92 829.919 692.28 824.039 675.12L809.639 675.6V666.6H822.119C821.759 664.32 821.639 662.28 821.639 660C821.639 657.84 821.759 655.68 822.119 653.52H809.639V644.52L824.039 645C829.919 627.72 845.759 616.08 865.679 616.08C884.639 616.08 900.119 626.88 906.359 642.72L894.119 646.8C889.799 633.84 878.759 625.44 865.679 625.44C851.639 625.44 840.839 633.12 836.159 645.48L874.559 646.92V653.52H834.119C833.759 655.68 833.639 657.72 833.639 660C833.639 662.28 833.759 664.44 834.119 666.6H874.559V673.2L836.159 674.64C840.839 686.88 851.639 694.56 865.679 694.56C878.759 694.56 889.799 686.28 894.119 673.2L906.359 677.28C899.999 693.24 884.639 703.92 865.679 703.92ZM447.702 736.08C464.142 736.08 475.782 747.6 475.782 763.92C475.782 770.16 473.382 777.12 469.062 783.6L443.622 822H427.542L452.862 790.8C451.062 791.16 449.022 791.4 446.982 791.4C430.902 791.4 419.262 779.76 419.262 763.68C419.262 747.48 431.262 736.08 447.702 736.08ZM447.702 745.68C438.342 745.68 431.622 753.48 431.622 763.92C431.622 774.36 438.342 782.16 447.702 782.16C457.062 782.16 463.782 774.36 463.782 763.92C463.782 753.48 457.062 745.68 447.702 745.68ZM521.327 823.92C501.167 823.92 486.527 805.44 486.527 780C486.527 754.56 501.167 736.08 521.327 736.08C541.487 736.08 556.127 754.56 556.127 780C556.127 805.44 541.487 823.92 521.327 823.92ZM521.327 814.32C534.407 814.32 543.887 799.8 543.887 780C543.887 760.2 534.407 745.68 521.327 745.68C508.247 745.68 498.767 760.2 498.767 780C498.767 799.8 508.247 814.32 521.327 814.32ZM585.25 833.52L581.17 831L633.49 738H646.57L585.25 833.52ZM588.01 775.92C576.73 775.92 568.09 767.28 568.09 756C568.09 744.72 576.73 736.08 588.01 736.08C599.29 736.08 607.93 744.72 607.93 756C607.93 767.28 599.29 775.92 588.01 775.92ZM588.01 766.92C593.17 766.92 597.13 762.12 597.13 756C597.13 749.88 593.17 745.08 588.01 745.08C582.85 745.08 578.89 749.88 578.89 756C578.89 762.12 582.85 766.92 588.01 766.92ZM640.81 823.92C629.53 823.92 620.89 815.28 620.89 804C620.89 792.72 629.53 784.08 640.81 784.08C652.09 784.08 660.73 792.72 660.73 804C660.73 815.28 652.09 823.92 640.81 823.92ZM640.81 814.92C645.97 814.92 649.93 810.12 649.93 804C649.93 797.88 645.97 793.08 640.81 793.08C635.65 793.08 631.69 797.88 631.69 804C631.69 810.12 635.65 814.92 640.81 814.92Z" fill="black"/>
<path d="M540.836 70.928C528.656 70.928 519.55 61.822 519.55 49.7C519.55 37.578 528.656 28.472 540.836 28.472C550.232 28.472 557.83 33.866 560.73 41.87L555.22 43.668C553.132 37.288 547.738 32.996 540.836 32.996C531.962 32.996 525.524 40.188 525.524 49.7C525.524 59.212 531.962 66.404 540.836 66.404C547.738 66.404 553.132 62.112 555.22 55.732L560.73 57.53C557.772 65.534 550.232 70.928 540.836 70.928ZM541.068 59.328C535.848 59.328 531.788 55.152 531.788 49.7C531.788 44.248 535.848 40.072 541.068 40.072C546.288 40.072 550.348 44.248 550.348 49.7C550.348 55.152 546.288 59.328 541.068 59.328ZM541.068 54.978C543.562 54.978 545.302 52.774 545.302 49.7C545.302 46.626 543.562 44.422 541.068 44.422C538.574 44.422 536.834 46.626 536.834 49.7C536.834 52.774 538.574 54.978 541.068 54.978Z" fill="black"/>
</svg>
