<svg width="1920" height="1080" viewBox="0 0 1920 1080" fill="none" xmlns="http://www.w3.org/2000/svg">
<rect width="1920" height="1080" fill="white"/>
<path d="M179.76 282L208.44 198H269.16L271.56 210.12L226.08 207L231.6 232.68L260.16 230.64V241.44H233.64L240.72 272.64L271.56 269.88L269.16 282H230.4L226.68 264.48L196.08 266.52L191.16 282H179.76ZM199.44 255.84H224.76L214.44 207.84L199.44 255.84ZM374.737 283.92C365.257 283.92 358.777 278.88 355.897 269.52L354.337 264.6L322.057 266.52L317.137 282H305.737L334.537 198H344.137L367.897 267.48C369.457 271.8 371.977 274.32 376.177 274.32C380.377 274.32 383.137 270.96 383.137 265.56V198H429.097L431.497 210.12L395.137 208.2V232.44L423.697 230.64V241.44H395.137V263.76C395.137 275.64 386.857 283.92 374.737 283.92ZM325.417 255.84H351.577L338.497 213.96L325.417 255.84ZM531.966 283.92C523.086 283.92 517.686 279.24 514.686 269.52L513.126 264.6L480.846 266.52L475.926 282H464.526L493.326 198H502.926L526.686 267.48C528.246 271.8 530.766 274.2 534.966 274.2C539.166 274.2 541.926 270.96 541.926 265.56V198H551.526L592.806 260.88L589.926 198H601.926V282H592.326L550.926 218.88V263.76C550.926 276.24 543.726 283.92 531.966 283.92ZM484.206 255.84H510.366L497.286 213.96L484.206 255.84ZM711.182 283.92C701.702 283.92 695.222 278.88 692.342 269.52L690.782 264.6L658.502 266.52L653.582 282H642.182L670.982 198H680.582L704.342 267.48C705.902 271.8 708.422 274.32 712.622 274.32C716.822 274.32 719.582 270.96 719.582 265.56V198H749.102C763.502 198 773.342 207.12 773.342 220.32C773.342 230.88 767.462 238.92 757.382 242.76L775.982 282H762.422L747.182 244.8H731.582V263.76C731.582 275.64 723.302 283.92 711.182 283.92ZM745.022 235.8C755.222 235.8 760.982 230.64 760.982 221.64C760.982 212.88 755.822 207.6 747.302 207.6H731.582V234.48L745.022 235.8ZM661.862 255.84H688.022L674.942 213.96L661.862 255.84ZM811.401 282L840.201 198H849.801L871.041 264L891.921 198H903.321L874.521 282H865.521L859.881 264.6L827.601 266.52L822.801 282H811.401ZM830.961 255.84H857.001L843.681 215.16L830.961 255.84ZM932.221 282L961.021 198H970.621L991.261 261.84L1010.94 198H1019.34L1039.62 265.32L1058.34 198H1069.74L1043.94 282H1034.46L1014.3 221.28L995.341 282H986.341L980.701 264.6L948.421 266.52L943.621 282H932.221ZM951.781 255.84H977.821L964.501 215.16L951.781 255.84ZM1146.87 283.92C1121.67 283.92 1102.83 265.08 1102.83 240C1102.83 214.92 1121.67 196.08 1146.87 196.08C1159.59 196.08 1170.75 200.88 1178.67 208.92L1167.63 215.28C1162.11 209.16 1154.43 205.68 1145.79 205.68C1128.03 205.68 1115.19 220.2 1115.19 240C1115.19 259.8 1128.03 274.32 1145.79 274.32C1154.43 274.32 1162.11 270.84 1167.63 264.72L1178.67 271.08C1170.75 279.12 1159.59 283.92 1146.87 283.92ZM1174.71 259.92C1163.43 259.92 1154.79 251.28 1154.79 240C1154.79 228.72 1163.43 220.08 1174.71 220.08C1183.47 220.08 1190.43 225.12 1192.83 233.52L1182.39 235.44C1181.31 231.48 1178.43 229.08 1174.71 229.08C1169.55 229.08 1165.59 233.88 1165.59 240C1165.59 246.12 1169.55 250.92 1174.71 250.92C1178.43 250.92 1181.31 248.52 1182.39 244.56L1192.83 246.36C1190.43 254.76 1183.47 259.92 1174.71 259.92ZM1272.84 283.92C1247.64 283.92 1228.8 265.08 1228.8 240C1228.8 214.92 1247.64 196.08 1272.84 196.08C1285.56 196.08 1296.72 200.88 1304.64 208.92L1293.6 215.28C1288.08 209.16 1280.4 205.68 1271.76 205.68C1254 205.68 1241.16 220.2 1241.16 240C1241.16 259.8 1254 274.32 1271.76 274.32C1280.4 274.32 1288.08 270.84 1293.6 264.72L1304.64 271.08C1296.72 279.12 1285.56 283.92 1272.84 283.92ZM1301.76 259.92C1290.48 259.92 1281.84 251.28 1281.84 240C1281.84 228.72 1290.48 220.08 1301.76 220.08C1313.04 220.08 1321.68 228.72 1321.68 240C1321.68 251.28 1313.04 259.92 1301.76 259.92ZM1301.76 250.92C1306.92 250.92 1310.88 246.12 1310.88 240C1310.88 233.88 1306.92 229.08 1301.76 229.08C1296.6 229.08 1292.64 233.88 1292.64 240C1292.64 246.12 1296.6 250.92 1301.76 250.92ZM1443.27 283.92C1433.79 283.92 1425.27 281.28 1418.19 276.6C1411.71 280.08 1404.03 282 1395.75 282H1362.51V198H1395.75C1404.03 198 1411.71 199.92 1418.19 203.4C1425.27 198.72 1433.79 196.08 1443.27 196.08C1468.47 196.08 1487.31 214.92 1487.31 240C1487.31 265.08 1468.47 283.92 1443.27 283.92ZM1395.75 272.64C1400.91 272.64 1405.83 271.44 1410.03 269.4C1403.31 261.84 1399.23 251.52 1399.23 240C1399.23 228.48 1403.31 218.16 1410.03 210.6C1405.83 208.56 1400.91 207.36 1395.75 207.36H1374.51V272.64H1395.75ZM1419.39 263.4C1424.43 257.28 1427.43 249.12 1427.43 240C1427.43 230.88 1424.43 222.72 1419.39 216.6C1414.47 222.84 1411.59 230.88 1411.59 240C1411.59 249.12 1414.47 257.16 1419.39 263.4ZM1443.27 274.32C1461.39 274.32 1474.95 259.56 1474.95 240C1474.95 220.44 1461.39 205.68 1443.27 205.68C1437.39 205.68 1431.87 207.24 1427.31 210C1434.99 217.44 1439.79 228 1439.79 240C1439.79 252 1434.99 262.56 1427.31 270C1431.87 272.76 1437.39 274.32 1443.27 274.32ZM1531.73 282V198H1577.69L1580.09 210.12L1543.73 208.2V232.44L1570.49 230.64V241.44H1543.73V271.8L1580.21 270L1604.93 198H1614.53L1643.33 282H1630.25L1624.85 264.6L1592.45 266.52L1587.53 282H1531.73ZM1595.81 255.84H1622.09L1609.01 213.6L1595.81 255.84ZM1683.49 282V198H1731.85L1734.25 210.12L1695.49 208.2V235.68H1710.85V244.44L1695.49 245.4V271.8L1736.65 269.88L1734.25 282H1683.49ZM1740.37 259.92C1729.09 259.92 1720.45 251.28 1720.45 240C1720.45 228.72 1729.09 220.08 1740.37 220.08C1751.65 220.08 1760.29 228.72 1760.29 240C1760.29 251.28 1751.65 259.92 1740.37 259.92ZM1740.37 250.92C1745.41 250.92 1749.49 246.12 1749.49 240C1749.49 233.88 1745.41 229.08 1740.37 229.08C1735.33 229.08 1731.25 233.88 1731.25 240C1731.25 246.12 1735.33 250.92 1740.37 250.92ZM173.174 402V318H276.974L279.374 330L252.974 328.2V402H240.974V327.6H185.174V352.44L212.534 350.64V361.44H185.174V391.8L222.734 389.88L220.334 402H173.174ZM317.198 402V318H374.438L391.958 351.72L409.598 318H422.198L398.078 359.04L423.518 402H409.118L390.638 366.24L371.318 402H317.198ZM329.198 392.4H364.478L384.518 359.04L366.038 327.6H329.198V352.44L354.158 350.64V361.44H329.198V392.4ZM464.268 402V318H566.988L569.388 330.12L533.028 328.2V352.44L560.388 350.64V361.44H533.028V391.8L570.588 389.88L568.188 402H521.028V327.6H476.268V352.44L503.628 350.64V361.44H476.268V402H464.268ZM611.455 402V318H714.175L716.575 330.12L680.215 328.2V352.44L706.975 350.64V361.44H680.215V391.8L716.695 390L741.415 318H751.015L779.815 402H766.735L761.335 384.6L728.935 386.52L724.015 402H668.215V327.6H623.455V352.44L650.815 350.64V361.44H623.455V402H611.455ZM835.255 403.92C830.935 403.92 827.455 400.44 827.455 396.12C827.455 391.8 830.935 388.32 835.255 388.32C839.575 388.32 843.055 391.8 843.055 396.12C843.055 400.44 839.575 403.92 835.255 403.92ZM799.255 402V328.2L775.255 330L772.855 318H835.255L837.655 330L811.255 328.2V402H799.255ZM732.295 375.84H758.575L745.495 333.6L732.295 375.84ZM958.625 403.92C946.145 403.92 939.065 396.6 939.065 383.76V362.52L903.065 364.32V402H891.065V318H903.065V353.52H939.065V318H951.065V385.68C951.065 391.08 953.705 394.32 958.025 394.32C962.465 394.32 964.865 391.8 966.665 386.28L989.105 318H998.705L1027.5 402H1014.42L1009.02 384.6L977.585 386.4L976.625 389.52C974.105 398.04 966.785 403.92 958.625 403.92ZM980.705 375.84H1006.38L993.305 333.72L980.705 375.84ZM1115.67 402V362.52L1079.67 364.32V402H1067.67V318H1079.67V353.52H1115.67V318H1161.63L1164.03 330.12L1127.67 328.2V352.44L1155.03 350.64V361.44H1127.67V391.8L1165.23 389.88L1162.83 402H1115.67ZM1256.41 402V362.52L1220.41 364.32V402H1208.41V318H1220.41V353.52H1256.41V318H1266.13L1307.41 380.88L1304.53 318H1316.53V402H1306.93L1265.53 338.76L1268.41 402H1256.41ZM1404.91 403.92C1379.71 403.92 1360.87 385.08 1360.87 360C1360.87 334.92 1379.71 316.08 1404.91 316.08C1413.91 316.08 1422.19 318.48 1428.91 322.68C1435.63 318.48 1443.91 316.08 1452.91 316.08C1471.63 316.08 1486.87 326.4 1493.47 342L1481.35 346.56C1477.39 333.48 1466.11 325.68 1452.43 325.68C1446.91 325.68 1441.87 327 1437.31 329.64C1444.51 337.32 1448.95 348 1448.95 360C1448.95 372 1444.51 382.68 1437.31 390.36C1441.87 393 1446.91 394.32 1452.43 394.32C1470.19 394.32 1482.31 383.4 1484.59 366.48L1459.51 368.04L1461.67 357.6H1496.95V360C1496.95 385.08 1478.11 403.92 1452.91 403.92C1443.91 403.92 1435.63 401.52 1428.91 397.32C1422.19 401.52 1413.91 403.92 1404.91 403.92ZM1404.91 394.32C1410.55 394.32 1415.83 392.88 1420.39 390.24C1413.19 382.44 1408.87 372 1408.87 360C1408.87 348 1413.19 337.56 1420.39 329.76C1415.83 327.12 1410.55 325.68 1404.91 325.68C1386.79 325.68 1373.23 340.44 1373.23 360C1373.23 379.56 1386.79 394.32 1404.91 394.32ZM1428.79 383.4C1433.83 377.28 1436.83 369.12 1436.83 360C1436.83 350.88 1433.83 342.72 1428.79 336.6C1423.87 342.84 1420.99 350.88 1420.99 360C1420.99 369.12 1423.87 377.16 1428.79 383.4ZM1579.99 403.92C1554.79 403.92 1535.95 385.08 1535.95 360C1535.95 334.92 1554.79 316.08 1579.99 316.08C1588.99 316.08 1597.27 318.48 1603.99 322.68C1610.71 318.48 1618.99 316.08 1627.99 316.08C1653.19 316.08 1672.03 334.92 1672.03 360C1672.03 385.08 1653.19 403.92 1627.99 403.92C1618.99 403.92 1610.71 401.52 1603.99 397.32C1597.27 401.52 1588.99 403.92 1579.99 403.92ZM1579.99 394.32C1585.63 394.32 1590.91 392.88 1595.47 390.24C1588.27 382.44 1583.95 372 1583.95 360C1583.95 348 1588.27 337.56 1595.47 329.76C1590.91 327.12 1585.63 325.68 1579.99 325.68C1561.87 325.68 1548.31 340.44 1548.31 360C1548.31 379.56 1561.87 394.32 1579.99 394.32ZM1603.87 383.4C1608.91 377.28 1611.91 369.12 1611.91 360C1611.91 350.88 1608.91 342.72 1603.87 336.6C1598.95 342.84 1596.07 350.88 1596.07 360C1596.07 369.12 1598.95 377.16 1603.87 383.4ZM1627.99 394.32C1646.11 394.32 1659.67 379.56 1659.67 360C1659.67 340.44 1646.11 325.68 1627.99 325.68C1622.35 325.68 1617.07 327.12 1612.51 329.76C1619.71 337.56 1624.03 348 1624.03 360C1624.03 372 1619.71 382.44 1612.51 390.24C1617.07 392.88 1622.35 394.32 1627.99 394.32ZM1741.62 403.92C1726.5 403.92 1715.82 391.56 1715.82 374.04L1728.18 370.56C1728.18 385.44 1733.34 394.32 1742.1 394.32C1750.5 394.32 1755.42 386.76 1755.42 374.04V318H1767.42V372.84C1767.42 392.16 1757.7 403.92 1741.62 403.92ZM1715.82 362.04V318H1727.82V362.04H1715.82ZM127.413 522V438H139.413V511.8L188.853 509.52L186.333 522H127.413ZM146.493 499.32L171.093 438H190.053V499.32H179.253V486.48L162.813 487.32L158.493 499.32H146.493ZM165.933 478.56H179.253V447.36H177.093L165.933 478.56ZM239.209 522V438H251.209V511.8L292.609 509.88L290.329 522H239.209ZM262.609 499.32V438H293.449L295.609 449.4L274.009 447.36V464.4L289.489 462.96V473.04H274.009V490.08L296.809 487.92L294.529 499.32H262.609ZM344.209 522V438H356.209V511.8L404.209 509.52L401.689 522H344.209ZM383.929 501C372.649 501 365.449 493.2 365.929 481.32L375.529 480.12C375.529 488.88 380.329 492.6 385.009 492.6C389.209 492.6 393.169 489.72 393.169 484.2C393.169 480.6 390.889 477 385.369 474.12L376.729 469.56C370.009 465.96 365.809 459.6 365.809 452.4C365.809 442.68 373.009 436.08 383.449 436.08C394.129 436.08 401.089 443.16 401.089 453.6L391.489 454.8C391.489 447.48 387.169 444.24 382.969 444.24C378.889 444.24 374.809 447.36 374.809 452.4C374.809 456 376.729 458.76 381.409 461.16L389.809 465.6C398.689 470.16 402.169 476.16 402.169 483.96C402.169 494.04 394.729 501 383.929 501ZM447.452 522V438H459.452V511.8L495.452 509.88L493.052 522H447.452ZM481.052 499.32V438H493.052V499.32H481.052ZM541.67 522V438H553.67V511.8L596.27 509.88L593.99 522H541.67ZM564.47 499.32V438H576.47V489.24L600.47 487.08L598.19 499.32H564.47ZM642.452 522V438H654.452V511.8L702.812 509.52L700.292 522H642.452ZM685.172 487.44C673.532 487.44 665.252 479.16 665.252 467.52V438H677.252V467.52C677.252 473.88 680.972 478.44 686.372 478.44C691.652 478.44 695.492 473.88 695.492 467.52L693.092 438H705.092V467.52C705.092 479.16 696.812 487.44 685.172 487.44ZM749.444 522V438H761.444V511.8L807.284 509.52L804.764 522H749.444ZM790.964 475.8C779.684 475.8 771.044 467.16 771.044 455.88C771.044 444.6 779.684 435.96 790.964 435.96C802.244 435.96 810.884 444.6 810.884 455.88C810.884 467.16 802.244 475.8 790.964 475.8ZM790.964 466.8C796.124 466.8 800.084 462 800.084 455.88C800.084 449.76 796.124 444.96 790.964 444.96C785.804 444.96 781.844 449.76 781.844 455.88C781.844 462 785.804 466.8 790.964 466.8ZM936.591 523.92C924.111 523.92 917.031 516.6 917.031 503.76V463.32L893.871 522H885.351L860.631 463.92L862.431 522H851.631V438H862.791L890.751 504.24L916.551 438H929.031V505.68C929.031 511.08 931.671 514.32 935.991 514.32C940.431 514.32 942.831 511.8 944.631 506.28L967.071 438H976.671L1005.47 522H992.391L986.991 504.6L955.551 506.4L954.591 509.52C952.071 518.04 944.751 523.92 936.591 523.92ZM958.671 495.84H984.351L971.271 453.72L958.671 495.84ZM1045.69 522V438H1056.85L1084.81 504.24L1110.61 438H1158.49L1160.89 450.12L1124.53 448.2V472.44L1151.89 470.64V481.44H1124.53V511.8L1162.09 509.88L1159.69 522H1112.53V459.84L1087.93 522H1079.41L1054.69 463.92L1056.49 522H1045.69ZM1205.3 522V438H1216.46L1244.9 505.2L1272.14 438H1281.74L1311.5 504.36L1336.82 438H1349.3V522H1337.3V462.12L1314.14 522H1306.22L1280.9 465.48H1280.06L1281.5 522H1270.7L1271.66 466.08H1270.82L1247.54 522H1239.02L1214.3 463.92L1216.1 522H1205.3ZM1398.55 522V438H1408.15L1451.95 504.84L1448.95 438H1494.91L1497.31 450.12L1460.95 448.08V472.44L1488.31 470.64V481.44H1460.95V511.8L1498.51 509.88L1496.11 522H1448.95L1407.67 459L1410.55 522H1398.55ZM1541.75 522V438H1551.35L1592.87 501.24V438H1602.59L1643.87 500.88L1640.99 438H1652.99V522H1643.39L1601.87 458.64V522H1592.15L1550.87 459L1553.75 522H1541.75ZM1702.18 522V438H1711.78L1755.58 504.84L1752.58 438H1764.58V473.52H1800.58V438H1812.58V522H1800.58V482.52L1764.58 484.32V522H1752.58L1711.3 459L1714.18 522H1702.18ZM202.102 643.92C176.902 643.92 158.062 625.08 158.062 600C158.062 574.92 176.902 556.08 202.102 556.08C208.942 556.08 215.422 557.52 221.062 560.16L272.182 558L274.582 570.12L233.182 568.8C239.902 575.76 244.222 584.88 245.182 595.56L266.782 594V604.8L245.302 604.2C244.342 615 240.022 624.12 233.182 631.2L275.782 629.88L273.382 642L221.062 639.84C215.422 642.48 209.062 643.92 202.102 643.92ZM202.102 634.32C220.222 634.32 233.782 619.56 233.782 600C233.782 580.44 220.222 565.68 202.102 565.68C183.982 565.68 170.422 580.44 170.422 600C170.422 619.56 183.982 634.32 202.102 634.32ZM358.195 643.92C332.995 643.92 314.155 625.08 314.155 600C314.155 574.92 332.995 556.08 358.195 556.08C383.395 556.08 402.235 574.92 402.235 600C402.235 625.08 383.395 643.92 358.195 643.92ZM358.195 634.32C376.315 634.32 389.875 619.56 389.875 600C389.875 580.44 376.315 565.68 358.195 565.68C340.075 565.68 326.515 580.44 326.515 600C326.515 619.56 340.075 634.32 358.195 634.32ZM352.795 621.6V591.6L338.395 593.04L340.315 582.6H376.075L377.995 593.04L363.595 591.6V621.6H352.795ZM497.09 643.92C487.25 643.92 480.77 639.84 476.81 627.72L470.33 607.8L458.69 625.2V642H446.69V558H458.69V609.12L492.17 558H507.29L477.17 597.72L487.73 623.4C491.09 631.68 493.73 634.32 497.93 634.32C502.13 634.32 504.89 631.44 506.93 625.08L528.89 558H538.49L567.29 642H554.21L548.81 624.6L517.49 626.4L517.37 627C514.01 638.28 507.05 643.92 497.09 643.92ZM520.73 615.84H546.17L533.09 573.72L520.73 615.84ZM662.671 643.92C652.831 643.92 646.351 639.84 642.391 627.72L634.951 604.8H619.471V642H607.471V558H636.991C651.391 558 661.231 567.12 661.231 580.32C661.231 591 655.111 599.16 645.031 602.88L653.311 623.4C656.671 631.68 659.311 634.32 663.511 634.32C667.711 634.32 670.471 631.44 672.511 625.08L694.471 558H704.071L732.871 642H719.791L714.391 624.6L683.071 626.4L682.951 627C679.591 638.28 672.631 643.92 662.671 643.92ZM632.911 595.8C643.111 595.8 648.871 590.64 648.871 581.64C648.871 572.88 643.711 567.6 635.191 567.6H619.471V594.48L632.911 595.8ZM686.311 615.84H711.751L698.671 573.72L686.311 615.84ZM798.497 595.8C808.697 595.8 814.457 590.64 814.457 581.64C814.457 572.88 809.297 567.6 800.777 567.6H785.057V594.48L798.497 595.8ZM920.657 623.76C920.657 635.64 912.377 643.92 900.257 643.92C890.777 643.92 884.297 638.88 881.417 629.52L879.857 624.6L848.657 626.4L848.537 627C845.177 638.28 838.217 643.92 828.257 643.92C818.417 643.92 811.937 639.84 807.977 627.72L800.537 604.8H785.057V642H773.057V558H802.577C816.977 558 826.817 567.12 826.817 580.32C826.817 591 820.697 599.16 810.617 602.88L818.897 623.4C822.257 631.68 824.897 634.32 829.097 634.32C833.297 634.32 836.057 631.44 838.097 625.08L860.057 558H869.657L893.417 627.48C894.977 631.8 897.497 634.32 901.697 634.32C905.897 634.32 908.657 630.96 908.657 625.56V558H936.977C951.377 558 961.217 567.72 961.217 581.76C961.217 597.24 949.697 607.8 932.897 607.8H920.657V623.76ZM932.897 598.8C942.857 598.8 948.857 592.92 948.857 583.2C948.857 573.48 943.697 567.6 935.177 567.6H920.657V597.6L932.897 598.8ZM851.897 615.84H877.097L864.137 574.2L851.897 615.84ZM1069.39 643.92C1059.19 643.92 1052.59 638.64 1048.63 629.52L1037.71 604.8H1017.67V642H1005.67V558H1035.19C1049.59 558 1059.43 567.12 1059.43 580.32C1059.43 589.44 1054.87 596.76 1047.31 600.96L1059.19 624.48C1062.19 630.48 1065.79 634.32 1070.35 634.32C1076.35 634.32 1079.83 630 1079.83 622.92V558H1109.35C1123.75 558 1133.59 567.12 1133.59 580.32C1133.59 590.88 1127.71 598.92 1117.63 602.76L1136.23 642H1122.67L1107.43 604.8H1091.83V622.56C1091.83 635.64 1082.71 643.92 1069.39 643.92ZM1031.11 595.8C1041.31 595.8 1047.07 590.64 1047.07 581.64C1047.07 572.88 1041.91 567.6 1033.39 567.6H1017.67V594.48L1031.11 595.8ZM1105.27 595.8C1115.47 595.8 1121.23 590.64 1121.23 581.64C1121.23 572.88 1116.07 567.6 1107.55 567.6H1091.83V594.48L1105.27 595.8ZM1244.36 643.92C1234.16 643.92 1227.56 638.64 1223.6 629.52L1212.68 604.8H1192.64V642H1180.64V558H1210.16C1224.56 558 1234.4 567.12 1234.4 580.32C1234.4 589.44 1229.84 596.76 1222.28 600.96L1234.16 624.48C1237.16 630.48 1240.76 634.32 1245.32 634.32C1251.32 634.32 1254.8 630 1254.8 622.92V558H1284.32C1298.72 558 1308.56 567.12 1308.56 580.32C1308.56 591 1302.44 599.16 1292.36 602.88L1300.64 623.4C1304 631.68 1306.64 634.32 1310.84 634.32C1315.04 634.32 1317.8 631.44 1319.84 625.08L1341.8 558H1351.4L1380.2 642H1367.12L1361.72 624.6L1330.4 626.4L1330.28 627C1326.92 638.4 1319.96 643.92 1310 643.92C1300.16 643.92 1293.68 639.84 1289.72 627.72L1282.28 604.8H1266.8V622.56C1266.8 635.64 1257.68 643.92 1244.36 643.92ZM1206.08 595.8C1216.28 595.8 1222.04 590.64 1222.04 581.64C1222.04 572.88 1216.88 567.6 1208.36 567.6H1192.64V594.48L1206.08 595.8ZM1280.24 595.8C1290.44 595.8 1296.2 590.64 1296.2 581.64C1296.2 572.88 1291.04 567.6 1282.52 567.6H1266.8V594.48L1280.24 595.8ZM1333.64 615.84H1359.08L1346 573.72L1333.64 615.84ZM1440.08 643.92C1424.84 643.92 1415.12 633.36 1415.6 617.28L1428.08 615.6C1427.84 616.8 1427.72 617.88 1427.72 618.96C1427.72 627.96 1433.36 634.2 1441.52 634.2C1448.96 634.2 1454.12 629.4 1454.12 622.32C1454.12 616.08 1451.12 611.52 1443.44 607.44L1431.08 600.84C1421 595.44 1415.72 587.88 1415.72 577.2C1415.72 565.8 1424.48 558 1437.32 558H1490.84V642H1478.84V567.6H1437.32C1429.64 567.6 1425.32 571.08 1425.32 577.2C1425.32 582 1429.4 586.68 1436.96 590.4L1450.64 597.72C1459.4 602.4 1464.44 610.68 1464.44 620.28C1464.44 634.32 1454.48 643.92 1440.08 643.92ZM1557.39 643.92C1542.15 643.92 1532.43 633.36 1532.91 617.28L1545.39 615.6C1545.15 616.8 1545.03 617.88 1545.03 618.96C1545.03 627.96 1550.67 634.2 1558.83 634.2C1566.27 634.2 1571.43 629.4 1571.43 622.32C1571.43 616.08 1568.43 611.64 1560.75 607.56L1547.07 600.24C1538.31 595.56 1533.51 587.88 1533.51 578.28C1533.51 564.84 1542.87 556.08 1557.27 556.08C1569.75 556.08 1580.55 564.6 1588.11 580.32L1603.47 615.84C1608.63 627.72 1615.35 634.2 1624.35 634.2C1631.79 634.2 1636.95 629.4 1636.95 622.32C1636.95 616.08 1633.95 611.64 1626.27 607.56L1612.59 600.24C1603.83 595.56 1599.03 587.88 1599.03 578.28C1599.03 565.08 1608.75 556.08 1622.79 556.08C1636.71 556.08 1646.19 566.04 1646.19 580.68L1633.71 581.52C1633.83 580.44 1633.95 579.48 1633.95 578.64C1633.95 569.52 1627.35 565.68 1621.23 565.68C1614.03 565.68 1608.87 570.24 1608.87 576.6C1608.87 582.36 1611.99 586.2 1619.79 590.4L1633.47 597.72C1642.23 602.4 1647.27 610.68 1647.27 620.28C1647.27 634.32 1637.31 643.92 1622.91 643.92C1610.43 643.92 1600.11 635.4 1593.27 619.56L1578.39 585C1572.99 572.4 1565.67 565.68 1555.71 565.68C1548.51 565.68 1543.35 570.24 1543.35 576.6C1543.35 582.36 1546.47 586.2 1554.27 590.4L1567.95 597.72C1576.71 602.4 1581.75 610.68 1581.75 620.28C1581.75 634.32 1571.79 643.92 1557.39 643.92ZM1711.37 643.92C1696.13 643.92 1686.41 633.36 1686.89 617.28L1699.37 615.6C1699.13 616.8 1699.01 617.88 1699.01 618.96C1699.01 627.96 1704.65 634.2 1712.81 634.2C1720.25 634.2 1725.41 629.4 1725.41 622.32C1725.41 616.08 1722.41 611.52 1714.73 607.44L1702.37 600.84C1692.29 595.44 1687.01 587.88 1687.01 577.2C1687.01 565.8 1695.77 558 1708.61 558H1786.13L1788.53 570L1762.13 568.2V642H1750.13V567.6H1708.61C1700.93 567.6 1696.61 571.08 1696.61 577.2C1696.61 582 1700.69 586.68 1708.25 590.4L1721.93 597.72C1730.69 602.4 1735.73 610.68 1735.73 620.28C1735.73 634.32 1725.77 643.92 1711.37 643.92ZM159.841 762V688.2L134.641 690L132.241 678H251.401L253.801 690.12L217.441 688.2V712.44L244.801 710.64V721.44H217.441V751.8L255.001 749.88L252.601 762H205.441V687.6H171.841V762H159.841ZM358.811 762V687.6H325.211V762H313.211V688.2L289.211 690L286.811 678H404.771L407.171 690.12L370.811 688.2V712.44L397.571 710.64V721.44H370.811V751.8L407.291 750L432.011 678H441.611L463.931 743.28L486.971 678H494.291L510.131 742.68L539.171 678H551.651V762H539.651V700.32L511.691 762H502.571L487.811 702.24L466.931 762H457.331L451.931 744.6L419.531 746.52L414.611 762H358.811ZM422.891 735.84H449.171L436.091 693.6L422.891 735.84ZM615.906 762V688.2L591.906 690L589.506 678H673.506V713.52H709.506V678H721.506V762H709.506V722.52L673.506 724.32V762H661.506V687.6H627.906V762H615.906ZM785.711 762V688.2L761.711 690L759.311 678H843.311V713.52H879.311V678H925.271L927.671 690.12L891.311 688.2V712.44L918.671 710.64V721.44H891.311V751.8L928.871 749.88L926.471 762H879.311V722.52L843.311 724.32V762H831.311V687.6H797.711V762H785.711ZM987.156 762V688.2L963.156 690L960.756 678H1062.28C1076.68 678 1086.52 687.12 1086.52 700.32C1086.52 710.88 1080.64 718.92 1070.56 722.76L1089.16 762H1075.6L1060.36 724.8H1044.76V762H1032.76V687.6H999.156V762H987.156ZM1058.2 715.8C1068.4 715.8 1074.16 710.64 1074.16 701.64C1074.16 692.88 1069 687.6 1060.48 687.6H1044.76V714.48L1058.2 715.8ZM1249.44 763.92C1239.6 763.92 1233.12 759.84 1229.16 747.72L1221.72 724.8H1206.24V762H1194.24V687.6H1160.64V762H1148.64V688.2L1124.64 690L1122.24 678H1223.76C1238.16 678 1248 687.12 1248 700.32C1248 711 1241.88 719.16 1231.8 722.88L1240.08 743.4C1243.44 751.68 1246.08 754.32 1250.28 754.32C1254.48 754.32 1257.24 751.44 1259.28 745.08L1281.24 678H1290.84L1319.64 762H1306.56L1301.16 744.6L1269.84 746.4L1269.72 747C1266.36 758.4 1259.4 763.92 1249.44 763.92ZM1219.68 715.8C1229.88 715.8 1235.64 710.64 1235.64 701.64C1235.64 692.88 1230.48 687.6 1221.96 687.6H1206.24V714.48L1219.68 715.8ZM1273.08 735.84H1298.52L1285.44 693.72L1273.08 735.84ZM1374.93 762V688.2L1350.93 690L1348.53 678H1458.93L1461.33 690L1434.93 688.2V762H1422.93V687.6H1386.93V762H1374.93ZM1514.27 762V688.56L1490.27 690L1487.87 678H1559.15L1580.39 746.4L1601.87 678H1613.27L1584.47 762H1574.87L1548.95 686.52L1526.27 687.84V762H1514.27ZM1666.14 762V688.56L1642.14 690L1639.74 678H1711.02L1731.06 743.64L1751.34 678H1759.74L1780.02 745.32L1798.74 678H1810.14L1784.34 762H1774.86L1754.7 701.28L1735.74 762H1726.74L1700.82 686.52L1678.14 687.84V762H1666.14ZM545.77 882V808.56L521.77 810L519.37 798H588.13L610.21 840.48L631.45 798H643.81L597.49 882H584.89L604.45 850.92L578.65 806.64L557.77 807.84V882H545.77ZM705.074 884.04C687.314 884.04 675.074 871.92 675.074 854.16V798.12H687.074V850.68C687.074 865.32 694.514 874.2 706.874 874.2C718.754 874.2 726.074 865.32 726.074 850.68L724.274 798H735.074V833.52H771.074V798H783.074V882H771.074V842.52L735.074 844.32V853.08C735.074 871.44 722.834 884.04 705.074 884.04ZM861.637 884.04C843.877 884.04 831.637 871.92 831.637 854.16V798.12H843.637V850.68C843.637 865.32 851.077 874.2 863.437 874.2C875.317 874.2 882.637 865.32 882.637 850.68L880.837 798.12H890.437L931.717 861L928.837 798.12H940.837V882.12H931.237L891.517 821.64L891.637 853.08C891.637 871.44 879.397 884.04 861.637 884.04ZM1019.49 884.04C1001.73 884.04 989.488 871.92 989.488 854.16V798.12H1001.49V850.68C1001.49 865.32 1008.93 874.2 1021.29 874.2C1033.17 874.2 1040.49 865.32 1040.49 850.68L1038.69 798H1049.49L1077.57 864L1103.25 798H1115.73V882H1103.73V823.32L1080.57 882H1073.37L1049.49 824.16V853.08C1049.49 871.44 1037.25 884.04 1019.49 884.04ZM1182.39 882L1153.59 798H1166.67L1186.83 862.92L1209.03 798H1219.83L1248.63 882H1235.55L1228.95 860.76L1197.87 862.08L1191.63 882H1182.39ZM1200.99 852.24H1226.31L1213.71 811.68L1200.99 852.24ZM1305.9 882L1277.46 798H1290.54L1310.58 863.64L1330.86 798H1339.26L1358.82 862.8L1381.02 798H1391.82L1420.62 882H1407.54L1400.94 860.76L1369.86 862.08L1363.62 882H1354.38L1334.22 821.28L1315.26 882H1305.9ZM1372.98 852.24H1398.3L1385.7 811.68L1372.98 852.24Z" fill="black"/>
</svg>
