<svg width="1080" height="1080" viewBox="0 0 1080 1080" fill="none" xmlns="http://www.w3.org/2000/svg">
<g clip-path="url(#clip0_2033_493)">
<rect width="1080" height="1080" fill="#EFE14A"/>
<rect width="540" height="1080" fill="#E6BCF0"/>
<path d="M192.536 493.268C177.055 493.268 165.481 481.694 165.481 466.287C165.481 450.879 177.055 439.305 192.536 439.305C200.35 439.305 207.206 442.254 212.072 447.193L205.289 451.1C201.898 447.341 197.18 445.055 191.872 445.055C181.109 445.055 173.074 454.197 173.074 466.287C173.074 478.377 181.109 487.518 191.872 487.518C197.18 487.518 201.898 485.233 205.289 481.473L212.072 485.38C207.206 490.32 200.35 493.268 192.536 493.268ZM210.302 478.524C203.373 478.524 198.065 473.217 198.065 466.287C198.065 459.357 203.373 454.049 210.302 454.049C217.232 454.049 222.54 459.357 222.54 466.287C222.54 473.217 217.232 478.524 210.302 478.524ZM210.302 472.995C213.472 472.995 215.905 470.047 215.905 466.287C215.905 462.527 213.472 459.578 210.302 459.578C207.132 459.578 204.7 462.527 204.7 466.287C204.7 470.047 207.132 472.995 210.302 472.995ZM226.963 492.089V440.485H234.335V485.823L260.506 484.643L259.105 492.089H226.963ZM240.97 478.156V440.485H248.342V471.963L263.086 470.636L261.685 478.156H240.97ZM262.791 492.089L280.484 440.485H286.382L304.074 492.089H296.039L292.722 481.399L272.817 482.579L269.795 492.089H262.791ZM274.881 476.018H291.026L282.99 450.068L274.881 476.018ZM306.655 492.089V440.485H322.578C332.236 440.485 337.47 447.267 337.47 454.197C337.47 458.767 335.184 463.485 330.319 466.361C333.71 469.014 335.774 472.922 335.774 477.492C335.774 485.528 329.066 492.089 320.883 492.089H306.655ZM319.629 486.191C324.79 486.191 328.181 482.432 328.181 477.713C328.181 472.995 324.79 469.236 319.629 469.236H314.027V486.191H319.629ZM322.283 463.707C326.633 463.707 329.876 459.947 329.876 455.008C329.876 450.068 326.633 446.382 322.283 446.382H314.027V463.707H322.283ZM336.216 492.089L353.909 440.485H359.807L377.5 492.089H369.464L366.147 481.399L346.242 482.579L343.22 492.089H336.216ZM348.307 476.018H364.451L356.416 450.068L348.307 476.018ZM138.769 566.089V514.485H156.904C165.75 514.485 171.795 520.087 171.795 528.197C171.795 534.684 168.183 539.623 161.99 541.982L173.417 566.089H165.087L155.724 543.236H146.141V566.089H138.769ZM154.397 537.707C160.663 537.707 164.202 534.537 164.202 529.008C164.202 523.626 161.032 520.382 155.798 520.382H146.141V536.896L154.397 537.707ZM182.252 566.089V514.485H210.487L211.961 521.931L189.624 520.751V535.642L206.432 534.537V541.171H189.624V559.823L212.698 558.643L211.224 566.089H182.252ZM244.946 567.268C229.465 567.268 217.891 555.694 217.891 540.287C217.891 524.879 229.465 513.305 244.946 513.305C256.889 513.305 266.546 520.161 270.232 530.335L263.229 532.62C260.575 524.511 253.719 519.055 244.946 519.055C233.667 519.055 225.484 528.197 225.484 540.287C225.484 552.377 233.667 561.518 244.946 561.518C253.719 561.518 260.575 556.063 263.229 547.954L270.232 550.239C266.473 560.412 256.889 567.268 244.946 567.268ZM245.241 552.524C238.606 552.524 233.446 547.217 233.446 540.287C233.446 533.357 238.606 528.049 245.241 528.049C251.876 528.049 257.036 533.357 257.036 540.287C257.036 547.217 251.876 552.524 245.241 552.524ZM245.241 546.995C248.411 546.995 250.623 544.194 250.623 540.287C250.623 536.38 248.411 533.578 245.241 533.578C242.071 533.578 239.86 536.38 239.86 540.287C239.86 544.194 242.071 546.995 245.241 546.995ZM278.722 566.089V514.485H296.857C305.703 514.485 311.748 520.087 311.748 528.197C311.748 534.684 308.136 539.623 301.943 541.982L313.37 566.089H305.04L295.677 543.236H286.094V566.089H278.722ZM294.35 537.707C300.616 537.707 304.155 534.537 304.155 529.008C304.155 523.626 300.985 520.382 295.751 520.382H286.094V536.896L294.35 537.707ZM322.205 566.089V514.485H341.593C357.664 514.485 368.649 525.027 368.649 540.287C368.649 555.547 357.664 566.089 341.593 566.089H322.205ZM329.577 560.191H341.593C353.167 560.191 361.056 552.082 361.056 540.287C361.056 528.492 353.167 520.382 341.593 520.382H329.577V560.191ZM389.585 567.268C380.223 567.268 374.251 560.781 374.546 550.903L382.213 549.87C382.066 550.608 381.992 551.271 381.992 551.935C381.992 557.464 385.457 561.297 390.47 561.297C395.04 561.297 398.21 558.348 398.21 553.999C398.21 550.165 396.367 547.438 391.649 544.931L383.245 540.434C377.864 537.559 374.915 532.841 374.915 526.943C374.915 518.834 380.886 513.305 389.511 513.305C398.063 513.305 403.887 519.424 403.887 528.418L396.22 528.934C396.294 528.27 396.367 527.681 396.367 527.165C396.367 521.562 392.313 519.203 388.553 519.203C384.13 519.203 380.96 522.004 380.96 525.911C380.96 529.45 382.877 531.809 387.668 534.389L396.073 538.886C401.454 541.761 404.55 546.848 404.55 552.746C404.55 561.371 398.432 567.268 389.585 567.268ZM223.072 640.089V588.485H230.444V633.823L249.979 632.643L248.505 640.089H223.072ZM255.9 640.089V588.485H270.128C278.974 588.485 285.02 594.161 285.02 602.418C285.02 607.21 282.513 611.117 278.164 613.476C283.619 615.909 286.715 620.479 286.715 626.377C286.715 634.928 280.817 640.089 270.349 640.089H255.9ZM271.529 634.191C276.173 634.191 279.122 630.8 279.122 625.566C279.122 620.184 275.878 616.867 270.497 616.867H263.272V634.191H271.529ZM268.875 611.485C273.888 611.485 277.426 607.947 277.426 602.713C277.426 597.847 274.256 594.382 269.022 594.382H263.272V611.485H268.875ZM296.288 640.089V588.485H303.66V633.823L323.196 632.643L321.721 640.089H296.288Z" fill="black"/>
<rect width="540" height="1080" transform="translate(540)" fill="#569CE9"/>
<path d="M712.941 566L695.469 514.396H703.504L715.816 554.721L728.274 514.396H733.435L745.894 555.753L757.394 514.396H764.397L748.547 566H742.724L730.339 528.698L718.691 566H712.941ZM794.073 567.18C778.592 567.18 767.018 555.605 767.018 540.198C767.018 524.79 778.592 513.216 794.073 513.216C799.602 513.216 804.689 514.691 808.817 517.271C812.945 514.691 818.032 513.216 823.561 513.216C839.042 513.216 850.616 524.79 850.616 540.198C850.616 555.605 839.042 567.18 823.561 567.18C818.032 567.18 812.945 565.705 808.817 563.125C804.689 565.705 799.602 567.18 794.073 567.18ZM794.073 561.282C797.538 561.282 800.782 560.397 803.583 558.775C799.16 553.984 796.506 547.57 796.506 540.198C796.506 532.826 799.16 526.412 803.583 521.62C800.782 519.999 797.538 519.114 794.073 519.114C782.941 519.114 774.611 528.182 774.611 540.198C774.611 552.214 782.941 561.282 794.073 561.282ZM808.743 554.573C811.84 550.814 813.683 545.801 813.683 540.198C813.683 534.595 811.84 529.582 808.743 525.823C805.721 529.656 803.952 534.595 803.952 540.198C803.952 545.801 805.721 550.74 808.743 554.573ZM823.561 561.282C834.693 561.282 843.023 552.214 843.023 540.198C843.023 528.182 834.693 519.114 823.561 519.114C820.096 519.114 816.853 519.999 814.051 521.62C818.474 526.412 821.128 532.826 821.128 540.198C821.128 547.57 818.474 553.984 814.051 558.775C816.853 560.397 820.096 561.282 823.561 561.282ZM870.676 566L853.204 514.396H861.24L873.551 554.721L886.01 514.396H891.17L903.629 555.753L915.129 514.396H922.132L906.283 566H900.459L888.074 528.698L876.426 566H870.676Z" fill="black"/>
</g>
<defs>
<clipPath id="clip0_2033_493">
<rect width="1080" height="1080" fill="white"/>
</clipPath>
</defs>
</svg>
