<svg width="1080" height="1080" viewBox="0 0 1080 1080" fill="none" xmlns="http://www.w3.org/2000/svg">
<g clip-path="url(#clip0_2033_490)">
<rect width="1080" height="1080" fill="#FF885E"/>
<rect width="540" height="1080" fill="#FD855A"/>
<path d="M96.512 566V514.396H113.91C122.756 514.396 128.801 520.367 128.801 528.992C128.801 538.502 121.724 544.99 111.403 544.99H103.884V566H96.512ZM111.403 539.461C117.522 539.461 121.208 535.848 121.208 529.877C121.208 523.906 118.038 520.294 112.804 520.294H103.884V538.724L111.403 539.461ZM161.006 567.18C145.525 567.18 133.951 555.605 133.951 540.198C133.951 524.79 145.525 513.216 161.006 513.216C176.487 513.216 188.061 524.79 188.061 540.198C188.061 555.605 176.487 567.18 161.006 567.18ZM161.006 561.282C172.138 561.282 180.468 552.214 180.468 540.198C180.468 528.182 172.138 519.114 161.006 519.114C149.874 519.114 141.544 528.182 141.544 540.198C141.544 552.214 149.874 561.282 161.006 561.282ZM196.941 566V514.396H215.076C223.923 514.396 229.968 519.999 229.968 528.108C229.968 534.595 226.356 539.534 220.163 541.894L231.59 566H223.259L213.897 543.147H204.313V566H196.941ZM212.57 537.618C218.836 537.618 222.375 534.448 222.375 528.919C222.375 523.537 219.205 520.294 213.971 520.294H204.313V536.807L212.57 537.618ZM311.599 567.18C305.554 567.18 301.573 564.673 299.14 557.227L294.57 543.147H285.06V566H277.688V520.294H257.046V566H249.674V520.662L234.93 521.768L233.456 514.396H295.823C304.669 514.396 310.714 519.999 310.714 528.108C310.714 534.669 306.955 539.682 300.762 541.967L305.849 554.573C307.913 559.66 309.535 561.282 312.115 561.282C314.695 561.282 316.391 559.513 317.644 555.605L331.135 514.396H337.033L354.725 566H346.69L343.372 555.311L324.132 556.416L324.058 556.785C321.994 563.788 317.718 567.18 311.599 567.18ZM293.317 537.618C299.583 537.618 303.121 534.448 303.121 528.919C303.121 523.537 299.951 520.294 294.717 520.294H285.06V536.807L293.317 537.618ZM326.122 549.929H341.751L333.715 524.053L326.122 549.929ZM361.012 566V514.396H368.384V566H361.012ZM390.851 566V520.662L376.107 521.768L374.633 514.396H412.967L414.442 521.768L398.223 520.662V566H390.851ZM432.064 567.18C422.701 567.18 416.73 560.692 417.025 550.814L424.692 549.782C424.544 550.519 424.47 551.182 424.47 551.846C424.47 557.375 427.935 561.208 432.948 561.208C437.519 561.208 440.689 558.259 440.689 553.91C440.689 550.076 438.846 547.349 434.128 544.842L425.724 540.345C420.342 537.47 417.393 532.752 417.393 526.855C417.393 518.745 423.365 513.216 431.99 513.216C440.541 513.216 446.365 519.335 446.365 528.329L438.698 528.845C438.772 528.182 438.846 527.592 438.846 527.076C438.846 521.473 434.791 519.114 431.031 519.114C426.608 519.114 423.438 521.915 423.438 525.823C423.438 529.361 425.355 531.72 430.147 534.3L438.551 538.797C443.933 541.672 447.029 546.759 447.029 552.657C447.029 561.282 440.91 567.18 432.064 567.18Z" fill="black"/>
<rect width="540" height="1080" transform="translate(540)" fill="#EFE14A"/>
<path d="M721.084 492V446.662L706.34 447.768L704.866 440.396H756.47V462.217H778.586V440.396H785.958V492H778.586V467.746L756.47 468.852V492H749.098V446.294H728.456V492H721.084ZM797.722 492V440.396H815.857C824.703 440.396 830.748 445.999 830.748 454.108C830.748 460.595 827.136 465.534 820.944 467.894L832.37 492H824.04L814.677 469.147H805.094V492H797.722ZM813.35 463.618C819.617 463.618 823.155 460.448 823.155 454.919C823.155 449.537 819.985 446.294 814.751 446.294H805.094V462.807L813.35 463.618ZM841.205 492V440.396H869.44L870.914 447.842L848.577 446.662V461.554L865.385 460.448V467.083H848.577V485.734L871.652 484.554L870.177 492H841.205ZM895.274 493.18C885.175 493.18 877.803 486.102 877.803 476.445C877.803 469.147 882.594 461.922 892.547 460.079L877.581 444.819V440.396H910.461L911.935 447.842L888.271 446.662L900.73 462.143V465.387H899.476C890.335 465.387 885.396 469.147 885.396 476.076C885.396 482.49 889.598 487.282 895.348 487.282C901.172 487.282 905.153 482.859 905.153 477.625C905.153 476.887 905.079 476.15 904.932 475.413L912.746 476.445C912.746 486.397 905.669 493.18 895.274 493.18ZM619.388 567.253C608.478 567.253 600.958 559.808 600.958 548.897V514.47H608.33V546.759C608.33 555.753 612.901 561.208 620.494 561.208C627.792 561.208 632.289 555.753 632.289 546.759L631.183 514.47H637.081L662.441 553.099L660.671 514.47H668.043V566.074H662.146L637.744 528.919L637.818 548.233C637.818 559.513 630.299 567.253 619.388 567.253ZM679.87 566V514.396H699.259C715.33 514.396 726.314 524.938 726.314 540.198C726.314 555.458 715.33 566 699.259 566H679.87ZM687.242 560.102H699.259C710.833 560.102 718.721 551.993 718.721 540.198C718.721 528.403 710.833 520.294 699.259 520.294H687.242V560.102ZM735.16 566V514.396H763.395L764.87 521.842L742.532 520.662V535.554L759.341 534.448V541.083H742.532V559.734L765.607 558.554L764.132 566H735.16ZM812.894 567.18C806.627 567.18 802.573 563.936 800.14 558.333L793.432 543.147H781.12V566H773.748V514.396H791.883C800.73 514.396 806.775 519.999 806.775 528.108C806.775 533.711 803.974 538.208 799.329 540.788L806.627 555.237C808.47 558.923 810.682 561.282 813.483 561.282C817.169 561.282 819.307 558.628 819.307 554.278V514.396H837.443C846.289 514.396 852.334 519.999 852.334 528.108C852.334 534.669 848.574 539.682 842.382 541.967L847.468 554.573C849.533 559.66 851.154 561.282 853.735 561.282C856.315 561.282 858.01 559.513 859.264 555.605L872.754 514.396H878.652L896.345 566H888.309L884.992 555.311L865.751 556.416L865.677 556.785C863.613 563.788 859.337 567.18 853.219 567.18C847.174 567.18 843.193 564.673 840.76 557.227L836.189 543.147H826.679V554.057C826.679 562.093 821.077 567.18 812.894 567.18ZM789.377 537.618C795.643 537.618 799.182 534.448 799.182 528.919C799.182 523.537 796.012 520.294 790.778 520.294H781.12V536.807L789.377 537.618ZM834.936 537.618C841.202 537.618 844.741 534.448 844.741 528.919C844.741 523.537 841.571 520.294 836.337 520.294H826.679V536.807L834.936 537.618ZM867.741 549.929H883.37L875.335 524.053L867.741 549.929ZM909.218 566V520.662L893.736 521.768L892.262 514.396H965.466L966.941 521.842L944.603 520.662V535.554L961.412 534.448V541.083H944.603V559.734L967.678 558.554L966.203 566H937.231V520.294H916.59V566H909.218ZM975.759 566V514.396H995.147C1011.22 514.396 1022.2 524.938 1022.2 540.198C1022.2 555.458 1011.22 566 995.147 566H975.759ZM983.131 560.102H995.147C1006.72 560.102 1014.61 551.993 1014.61 540.198C1014.61 528.403 1006.72 520.294 995.147 520.294H983.131V560.102ZM730.697 641.18C724.873 641.18 720.892 638.083 719.123 632.333L718.164 629.311L698.334 630.49L695.311 640H688.308L706.001 588.396H711.898L726.495 631.08C727.453 633.734 729.001 635.282 731.582 635.282C734.162 635.282 735.857 633.218 735.857 629.9V588.396H753.992C762.839 588.396 768.884 593.999 768.884 602.108C768.884 608.595 765.272 613.534 759.079 615.894L770.506 640H762.175L752.813 617.147H743.229V628.795C743.229 636.093 738.143 641.18 730.697 641.18ZM751.486 611.618C757.752 611.618 761.291 608.448 761.291 602.919C761.291 597.537 758.121 594.294 752.887 594.294H743.229V610.807L751.486 611.618ZM700.398 623.929H716.469L708.433 598.201L700.398 623.929ZM788.613 640V594.662L773.869 595.768L772.395 588.396H810.729L812.204 595.768L795.985 594.662V640H788.613ZM818.456 640V588.396H825.828V640H818.456ZM849.696 641.18C840.333 641.18 834.362 634.692 834.657 624.814L842.324 623.782C842.176 624.519 842.102 625.182 842.102 625.846C842.102 631.375 845.567 635.208 850.58 635.208C855.151 635.208 858.321 632.259 858.321 627.91C858.321 624.076 856.478 621.275 851.76 618.769L844.167 614.714C837.974 611.397 834.73 606.752 834.73 600.191C834.73 593.188 840.112 588.396 848 588.396H895.623L897.098 595.768L880.879 594.662V640H873.507V594.294H848C843.282 594.294 840.628 596.431 840.628 600.191C840.628 603.14 843.135 606.015 847.779 608.3L856.183 612.797C861.565 615.672 864.661 620.759 864.661 626.657C864.661 635.282 858.542 641.18 849.696 641.18ZM914.705 641.18C905.342 641.18 899.371 634.692 899.666 624.814L907.333 623.782C907.185 624.519 907.111 625.182 907.111 625.846C907.111 631.375 910.576 635.208 915.589 635.208C920.16 635.208 923.33 632.259 923.33 627.91C923.33 624.076 921.487 621.349 916.769 618.842L908.365 614.345C902.983 611.47 900.034 606.752 900.034 600.855C900.034 592.745 906.006 587.216 914.631 587.216C923.182 587.216 929.006 593.335 929.006 602.329L921.339 602.845C921.413 602.182 921.487 601.592 921.487 601.076C921.487 595.473 917.432 593.114 913.673 593.114C909.249 593.114 906.079 595.915 906.079 599.823C906.079 603.361 907.996 605.72 912.788 608.3L921.192 612.797C926.574 615.672 929.67 620.759 929.67 626.657C929.67 635.282 923.551 641.18 914.705 641.18Z" fill="black"/>
</g>
<defs>
<clipPath id="clip0_2033_490">
<rect width="1080" height="1080" fill="white"/>
</clipPath>
</defs>
</svg>
