<svg width="1920" height="1080" viewBox="0 0 1920 1080" fill="none" xmlns="http://www.w3.org/2000/svg">
<rect width="1920" height="1080" fill="white"/>
<path d="M660.51 583.92C645.27 583.92 635.55 573.36 636.03 557.28L648.51 555.6C648.27 556.8 648.15 557.88 648.15 558.96C648.15 567.96 653.79 574.2 661.95 574.2C669.39 574.2 674.55 569.4 674.55 562.32C674.55 556.08 671.55 551.64 663.87 547.56L650.19 540.24C641.43 535.56 636.63 527.88 636.63 518.28C636.63 505.08 646.35 496.08 660.39 496.08C674.31 496.08 683.79 506.04 683.79 520.68L671.31 521.52C671.43 520.44 671.55 519.48 671.55 518.64C671.55 509.52 664.95 505.68 658.83 505.68C651.63 505.68 646.47 510.24 646.47 516.6C646.47 522.36 649.59 526.2 657.39 530.4L671.07 537.72C679.83 542.4 684.87 550.68 684.87 560.28C684.87 574.32 674.91 583.92 660.51 583.92ZM690.307 582L719.107 498H728.707L757.507 582H744.427L739.027 564.6L706.627 566.52L701.707 582H690.307ZM709.987 555.84H736.267L723.187 513.6L709.987 555.84ZM779.302 582V549.24L750.982 498H765.142L786.022 540.48L807.262 498H819.622L791.302 549.24V582H779.302ZM854.932 582V498H866.932V582H854.932ZM903.504 582V508.2L879.504 510L877.104 498H939.504L941.904 510L915.504 508.2V582H903.504ZM979.737 582V498H991.737V571.8L1023.54 569.88L1021.14 582H979.737ZM1072.41 583.92C1047.21 583.92 1028.37 565.08 1028.37 540C1028.37 514.92 1047.21 496.08 1072.41 496.08C1097.61 496.08 1116.45 514.92 1116.45 540C1116.45 565.08 1097.61 583.92 1072.41 583.92ZM1072.41 574.32C1090.53 574.32 1104.09 559.56 1104.09 540C1104.09 520.44 1090.53 505.68 1072.41 505.68C1054.29 505.68 1040.73 520.44 1040.73 540C1040.73 559.56 1054.29 574.32 1072.41 574.32ZM1159.72 583.92C1141.96 583.92 1129.72 571.32 1129.72 552.84V498H1141.72V550.44C1141.72 565.2 1149.16 574.08 1161.52 574.08C1173.4 574.08 1180.72 565.2 1180.72 550.56L1178.92 498H1189.72V552.96C1189.72 571.32 1177.48 583.92 1159.72 583.92ZM1208.37 582V498H1239.93C1266.09 498 1283.97 515.16 1283.97 540C1283.97 564.84 1266.09 582 1239.93 582H1208.37ZM1220.37 572.4H1239.93C1258.77 572.4 1271.61 559.2 1271.61 540C1271.61 520.8 1258.77 507.6 1239.93 507.6H1220.37V572.4Z" fill="black"/>
<path d="M960.836 70.928C948.656 70.928 939.55 61.822 939.55 49.7C939.55 37.578 948.656 28.472 960.836 28.472C970.232 28.472 977.83 33.866 980.73 41.87L975.22 43.668C973.132 37.288 967.738 32.996 960.836 32.996C951.962 32.996 945.524 40.188 945.524 49.7C945.524 59.212 951.962 66.404 960.836 66.404C967.738 66.404 973.132 62.112 975.22 55.732L980.73 57.53C977.772 65.534 970.232 70.928 960.836 70.928ZM961.068 59.328C955.848 59.328 951.788 55.152 951.788 49.7C951.788 44.248 955.848 40.072 961.068 40.072C966.288 40.072 970.348 44.248 970.348 49.7C970.348 55.152 966.288 59.328 961.068 59.328ZM961.068 54.978C963.562 54.978 965.302 52.774 965.302 49.7C965.302 46.626 963.562 44.422 961.068 44.422C958.574 44.422 956.834 46.626 956.834 49.7C956.834 52.774 958.574 54.978 961.068 54.978Z" fill="black"/>
<path d="M934.546 1050.32C930.346 1050.32 927.206 1047.18 927.206 1043C927.206 1038.82 930.346 1035.68 934.546 1035.68C937.786 1035.68 940.406 1037.54 941.406 1040.3L939.506 1040.92C938.786 1038.72 936.926 1037.24 934.546 1037.24C931.486 1037.24 929.266 1039.72 929.266 1043C929.266 1046.28 931.486 1048.76 934.546 1048.76C936.926 1048.76 938.786 1047.28 939.506 1045.08L941.406 1045.7C940.386 1048.46 937.786 1050.32 934.546 1050.32ZM934.626 1046.32C932.826 1046.32 931.426 1044.88 931.426 1043C931.426 1041.12 932.826 1039.68 934.626 1039.68C936.426 1039.68 937.826 1041.12 937.826 1043C937.826 1044.88 936.426 1046.32 934.626 1046.32ZM934.626 1044.82C935.486 1044.82 936.086 1044.06 936.086 1043C936.086 1041.94 935.486 1041.18 934.626 1041.18C933.766 1041.18 933.166 1041.94 933.166 1043C933.166 1044.06 933.766 1044.82 934.626 1044.82ZM948.329 1050V1048.68L953.469 1042.62C954.509 1041.4 954.829 1040.34 954.829 1039.4C954.829 1038.14 953.989 1037.28 952.729 1037.28C951.449 1037.28 950.069 1038.32 950.069 1040.8C950.069 1040.98 950.069 1041.2 950.109 1041.4L948.009 1041.18C948.009 1037.76 949.809 1035.68 952.749 1035.68C955.209 1035.68 956.889 1037.2 956.889 1039.4C956.889 1040.92 956.329 1042.2 954.809 1043.9L950.829 1048.36L956.949 1047.98L956.549 1050H948.329ZM964.749 1050.32C961.389 1050.32 958.949 1047.24 958.949 1043C958.949 1038.76 961.389 1035.68 964.749 1035.68C968.109 1035.68 970.549 1038.76 970.549 1043C970.549 1047.24 968.109 1050.32 964.749 1050.32ZM964.749 1048.72C966.929 1048.72 968.509 1046.3 968.509 1043C968.509 1039.7 966.929 1037.28 964.749 1037.28C962.569 1037.28 960.989 1039.7 960.989 1043C960.989 1046.3 962.569 1048.72 964.749 1048.72ZM972.763 1050V1048.68L977.903 1042.62C978.943 1041.4 979.263 1040.34 979.263 1039.4C979.263 1038.14 978.423 1037.28 977.163 1037.28C975.883 1037.28 974.503 1038.32 974.503 1040.8C974.503 1040.98 974.503 1041.2 974.543 1041.4L972.443 1041.18C972.443 1037.76 974.243 1035.68 977.183 1035.68C979.643 1035.68 981.323 1037.2 981.323 1039.4C981.323 1040.92 980.763 1042.2 979.243 1043.9L975.263 1048.36L981.383 1047.98L980.983 1050H972.763ZM987.863 1050.32C985.123 1050.32 983.183 1048.4 983.183 1045.68C983.183 1044.64 983.583 1043.48 984.303 1042.4L988.543 1036H991.223L987.003 1041.2C987.303 1041.14 987.643 1041.1 987.983 1041.1C990.663 1041.1 992.603 1043.04 992.603 1045.72C992.603 1048.42 990.603 1050.32 987.863 1050.32ZM987.863 1048.72C989.423 1048.72 990.543 1047.42 990.543 1045.68C990.543 1043.94 989.423 1042.64 987.863 1042.64C986.303 1042.64 985.183 1043.94 985.183 1045.68C985.183 1047.42 986.303 1048.72 987.863 1048.72Z" fill="black"/>
</svg>
