<?xml version="1.0" encoding="UTF-8"?>
<svg id="Layer_1" xmlns="http://www.w3.org/2000/svg" version="1.1" viewBox="0 0 1920 1080">
  <!-- Generator: Adobe Illustrator 29.3.1, SVG Export Plug-In . SVG Version: 2.1.0 Build 151)  -->
  <defs>
    <style>
      .st0 {
        stroke: #fff;
        stroke-width: 50px;
      }

      .st0, .st1 {
        fill: none;
        stroke-miterlimit: 10;
      }

      .st1 {
        stroke: #3f3f3f;
        stroke-width: .5px;
      }
    </style>
  </defs>
  <g>
    <path class="st1" d="M960.1428571,790c-138.1835938,0-250-111.8164062-250-250s111.8164062-250,250-250,250,111.8164062,250,250-111.8164062,250-250,250Z"/>
    <path class="st1" d="M1185.1428571,540c0-124.3652344-100.6347656-225-225-225s-225,100.6347656-225,225,100.6347656,225,225,225,225-100.6347656,225-225Z"/>
    <path class="st1" d="M960.1428571,740c-110.546875,0-200-89.453125-200-200s89.453125-200,200-200,200,89.453125,200,200-89.453125,200-200,200Z"/>
    <path class="st1" d="M1135.1428571,540c0-96.7285156-78.2714844-175-175-175s-175,78.2714844-175,175,78.2714844,175,175,175,175-78.2714844,175-175Z"/>
    <path class="st1" d="M960.1428571,690c-82.9101562,0-150-67.0898438-150-150s67.0898438-150,150-150,150,67.0898438,150,150-67.0898438,150-150,150Z"/>
    <path class="st1" d="M1085.1428571,540c0-69.0917969-55.9082031-125-125-125s-125,55.9082031-125,125,55.9082031,125,125,125,125-55.9082031,125-125Z"/>
    <path class="st1" d="M960.1428571,640c-55.2734375,0-100-44.7265625-100-100s44.7265625-100,100-100,100,44.7265625,100,100-44.7265625,100-100,100Z"/>
    <path class="st1" d="M1035.1428571,540c0-41.4550781-33.5449219-75-75-75s-75,33.5449219-75,75,33.5449219,75,75,75,75-33.5449219,75-75Z"/>
    <path class="st1" d="M960.1428571,590c-27.6367188,0-50-22.3632813-50-50s22.3632812-50,50-50,50,22.3632813,50,50-22.3632812,50-50,50Z"/>
    <path class="st1" d="M985.1428571,540c0-13.8183594-11.1816406-25-25-25s-25,11.1816406-25,25,11.1816406,25,25,25,25-11.1816406,25-25Z"/>
  </g>
  <g>
    <line class="st1" x1="960.1428571" y1="540" x2="960.1428571" y2="790"/>
    <line class="st1" x1="960.1428571" y1="540" x2="1085.1428571" y2="756.5063509"/>
    <line class="st1" x1="960.1428571" y1="540" x2="1176.6492081" y2="665"/>
    <line class="st1" x1="960.1428571" y1="540" x2="1210.1428571" y2="540"/>
    <line class="st1" x1="960.1428571" y1="540" x2="1176.6492081" y2="415"/>
    <line class="st1" x1="960.1428571" y1="540" x2="1085.1428571" y2="323.4936491"/>
    <line class="st1" x1="960.1428571" y1="540" x2="960.1428571" y2="290"/>
    <line class="st1" x1="960.1428571" y1="540" x2="835.1428571" y2="323.4936491"/>
    <line class="st1" x1="960.1428571" y1="540" x2="743.6365062" y2="415"/>
    <line class="st1" x1="960.1428571" y1="540" x2="710.1428571" y2="540"/>
    <line class="st1" x1="960.1428571" y1="540" x2="743.6365062" y2="665"/>
    <line class="st1" x1="960.1428571" y1="540" x2="835.1428571" y2="756.5063509"/>
  </g>
  <polyline class="st0" points="1135 540.0001153 960.1428571 540 1047.5291575 388.3952144"/>
</svg>