<?xml version="1.0" encoding="UTF-8"?>
<svg id="Layer_1" xmlns="http://www.w3.org/2000/svg" version="1.1" viewBox="0 0 168 168">
  <!-- Generator: Adobe Illustrator 30.1.0, SVG Export Plug-In . SVG Version: 2.1.1 Build 136)  -->
  <defs>
    <style>
      .st0 {
        fill: red;
      }

      .st1 {
        fill: none;
        stroke: #000;
        stroke-width: 12px;
      }
    </style>
  </defs>
  <g id="R3">
    <rect class="st0" x="120" y="120" width="24" height="24"/>
    <path class="st1" d="M138,120c0,9.9-8.1,18-18,18"/>
  </g>
  <g id="S3">
    <rect class="st0" x="96" y="120" width="24" height="24"/>
    <line class="st1" x1="96" y1="138" x2="120" y2="138"/>
  </g>
  <g id="S31" data-name="S3">
    <rect class="st0" x="72" y="120" width="24" height="24"/>
    <line class="st1" x1="72" y1="138" x2="96" y2="138"/>
  </g>
  <g id="S32" data-name="S3">
    <rect class="st0" x="48" y="120" width="24" height="24"/>
    <line class="st1" x1="48" y1="138" x2="72" y2="138"/>
  </g>
  <g id="R0">
    <rect class="st0" x="24" y="120" width="24" height="24"/>
    <path class="st1" d="M48,138c-9.9,0-18-8.1-18-18"/>
  </g>
  <g id="E0">
    <rect class="st0" x="120" y="96" width="24" height="24"/>
  </g>
  <g id="E01" data-name="E0">
    <rect class="st0" x="96" y="96" width="24" height="24"/>
  </g>
  <g id="E02" data-name="E0">
    <rect class="st0" x="72" y="96" width="24" height="24"/>
  </g>
  <g id="E03" data-name="E0">
    <rect class="st0" x="48" y="96" width="24" height="24"/>
  </g>
  <g id="S0">
    <rect class="st0" x="24" y="96" width="24" height="24"/>
    <line class="st1" x1="30" y1="96" x2="30" y2="120"/>
  </g>
  <g id="E04" data-name="E0">
    <rect class="st0" x="120" y="72" width="24" height="24"/>
  </g>
  <g id="E05" data-name="E0">
    <rect class="st0" x="96" y="72" width="24" height="24"/>
  </g>
  <g id="E06" data-name="E0">
    <rect class="st0" x="72" y="72" width="24" height="24"/>
  </g>
  <g id="E07" data-name="E0">
    <rect class="st0" x="48" y="72" width="24" height="24"/>
  </g>
  <g id="S01" data-name="S0">
    <rect class="st0" x="24" y="72" width="24" height="24"/>
    <line class="st1" x1="30" y1="72" x2="30" y2="96"/>
  </g>
  <g id="E08" data-name="E0">
    <rect class="st0" x="120" y="48" width="24" height="24"/>
  </g>
  <g id="E09" data-name="E0">
    <rect class="st0" x="96" y="48" width="24" height="24"/>
  </g>
  <g id="E010" data-name="E0">
    <rect class="st0" x="72" y="48" width="24" height="24"/>
  </g>
  <g id="E011" data-name="E0">
    <rect class="st0" x="48" y="48" width="24" height="24"/>
  </g>
  <g id="S02" data-name="S0">
    <rect class="st0" x="24" y="48" width="24" height="24"/>
    <line class="st1" x1="30" y1="48" x2="30" y2="72"/>
  </g>
  <g id="R2">
    <rect class="st0" x="120" y="24" width="24" height="24"/>
    <path class="st1" d="M120,30c9.9,0,18,8.1,18,18"/>
  </g>
  <g id="S1">
    <rect class="st0" x="96" y="24" width="24" height="24"/>
    <line class="st1" x1="120" y1="30" x2="96" y2="30"/>
  </g>
  <g id="S11" data-name="S1">
    <rect class="st0" x="72" y="24" width="24" height="24"/>
    <line class="st1" x1="96" y1="30" x2="72" y2="30"/>
  </g>
  <g id="S12" data-name="S1">
    <rect class="st0" x="48" y="24" width="24" height="24"/>
    <line class="st1" x1="72" y1="30" x2="48" y2="30"/>
  </g>
  <g id="R1">
    <rect class="st0" x="24" y="24" width="24" height="24"/>
    <path class="st1" d="M30,48c0-9.9,8.1-18,18-18"/>
  </g>
</svg>