<?xml version="1.0" encoding="UTF-8"?>
<svg id="Layer_1" xmlns="http://www.w3.org/2000/svg" version="1.1" viewBox="0 0 32 32">
  <!-- Generator: Adobe Illustrator 30.1.0, SVG Export Plug-In . SVG Version: 2.1.1 Build 136)  -->
  <defs>
    <style>
      .st0 {
        fill: #fff;
      }
    </style>
  </defs>
  <rect y="0" width="32" height="32"/>
  <path class="st0" d="M22.8571429,9.1428571c0-2.5206473-2.0507812-4.5714286-4.5714286-4.5714286h-4.5714286c-2.5206473,0-4.5714286,2.0507812-4.5714286,4.5714286-2.5206473,0-4.5714286,2.0507812-4.5714286,4.5714286v4.5714286c0,2.5206473,2.0507812,4.5714286,4.5714286,4.5714286,0,2.5206473,2.0507812,4.5714286,4.5714286,4.5714286h4.5714286c2.5206473,0,4.5714286-2.0507812,4.5714286-4.5714286,2.5206473,0,4.5714286-2.0507812,4.5714286-4.5714286v-4.5714286c0-2.5206473-2.0507812-4.5714286-4.5714286-4.5714286ZM18.2857143,22.8571429h-4.5714286c0-2.5206473-2.0507812-4.5714286-4.5714286-4.5714286v-4.5714286c2.5206473,0,4.5714286-2.0507812,4.5714286-4.5714286h4.5714286c0,2.5206473,2.0507812,4.5714286,4.5714286,4.5714286v4.5714286c-2.5206473,0-4.5714286,2.0507812-4.5714286,4.5714286Z"/>
</svg>