<?xml version="1.0" encoding="UTF-8"?>
<svg id="Layer_1" xmlns="http://www.w3.org/2000/svg" version="1.1" viewBox="0 0 512 512">
  <!-- Generator: Adobe Illustrator 30.1.0, SVG Export Plug-In . SVG Version: 2.1.1 Build 136)  -->
  <defs>
    <style>
      .st0 {
        fill: #fff;
      }
    </style>
  </defs>
  <path d="M512,325.5c0,7.1239929,0,14.2399902-.0409851,21.3640137-.0339966,5.9989929-.1029968,11.9979858-.2680054,17.9899902-.3559875,13.0679932-1.1239929,26.2449951-3.447998,39.1690063-2.3590088,13.1090088-6.2049866,25.3059998-12.2659912,37.2219849-5.9580078,11.7030029-13.7460022,22.4190063-23.0289917,31.7089844-9.2900085,9.2900085-20,17.071991-31.7099915,23.0299988-11.9089966,6.0610046-24.1130066,9.9070129-37.2219849,12.2659912-12.9230042,2.3240051-26.1010132,3.0920105-39.1690063,3.447998-5.9989929.1650085-11.9909973.2330017-17.9899902.2680054-7.1229858.0480042-14.2399902.0409851-21.3640137.0409851h-139c-7.1239929,0-14.2400055,0-21.3639984-.0409851-5.9989929-.0350037-11.9980011-.1029968-17.9900055-.2680054-13.0679932-.3559875-26.2450027-1.1239929-39.1689987-3.447998-13.1090012-2.3590088-25.3059998-6.2049866-37.2219009-12.2659912-11.7033005-5.9580078-22.4193993-13.7460022-31.7094994-23.0299988-9.2900009-9.2900085-17.0716991-19.9989929-23.0296001-31.7089844-6.0608006-11.9089966-9.9070702-24.1130066-12.2655697-37.2219849-2.3242199-12.9240112-3.0920999-26.1010132-3.4486179-39.1690063-.164546-5.9989929-.2331071-11.9909973-.2673876-17.9899902C.0000393,339.7400208.0000393,332.6240234.0000393,325.5v-139C.0000393,179.3760071.0000393,172.2599945.0411759,165.1360016c.0342805-5.9989929.1028414-11.9980011.2673884-17.9900055.356517-13.0679932,1.124405-26.2450027,3.448615-39.1689987,2.3585-13.1091003,6.2047806-25.3060989,12.2655602-37.2220001,5.9580002-11.7033997,13.7465-22.4195023,23.0296974-31.7094994,9.2900009-9.2900009,19.9991989-17.0716991,31.709404-23.0296001,11.9091034-6.0608406,24.1128998-9.9071102,37.2221985-12.2656097,12.9230042-2.3242199,26.1009979-3.092104,39.1690063-3.448622,5.9989929-.164546,11.9909973-.233107,17.9900055-.2673875C172.2600555-.000002,179.3760529-.000002,186.5000458-.000002h139.0000153C332.624054-.000002,339.7400513-.000002,346.8640747.0411346c5.9989929.0342805,11.9979858.1028414,17.9899902.2673884,13.0679932.356517,26.2449951,1.1244051,39.1690063,3.448615,13.1090088,2.3584998,25.3059998,6.2047799,37.2219849,12.2655594,11.7030029,5.9580002,22.4190063,13.7465,31.7089844,23.0297012,9.2900085,9.2900009,17.071991,19.9991989,23.0299988,31.7093964,6.0610046,11.9091034,9.9070129,24.1128998,12.2659912,37.2221985,2.3240051,12.9230042,3.0920105,26.1009979,3.447998,39.1689911.1650085,5.9989929.2330017,11.9909973.2680054,17.9900055.0480042,7.1230011.0409851,14.2400055.0409851,21.3639984v139l-.007019-.0069885Z"/>
  <path class="st0" d="M365.7142944,146.2857208c0-40.3303528-32.8125-73.1428604-73.1428528-73.1428604h-73.1428528c-40.3303528,0-73.1428528,32.8125-73.1428528,73.1428604-40.3303528,0-73.1428604,32.8125-73.1428604,73.142868v73.1428528c0,40.3303528,32.8125,73.1428528,73.1428604,73.1428528,0,40.3303528,32.8125,73.1428528,73.1428528,73.1428528h73.1428528c40.3303528,0,73.1428528-32.8125,73.1428528-73.1428528,40.3303528,0,73.1428528-32.8125,73.1428528-73.1428528v-73.1428528c0-40.3303528-32.8125-73.1428528-73.1428528-73.142868ZM292.5714417,365.7142944h-73.1428528c0-40.3303528-32.8125-73.1428528-73.1428528-73.1428528v-73.1428528c40.3303528,0,73.1428528-32.8125,73.1428528-73.1428528h73.1428528c0,40.3303528,32.8125,73.1428528,73.1428528,73.1428528v73.1428528c-40.3303528,0-73.1428528,32.8125-73.1428528,73.1428528Z"/>
</svg>