<?xml version="1.0" encoding="UTF-8"?> <svg xmlns="http://www.w3.org/2000/svg" xmlns:xlink="http://www.w3.org/1999/xlink" id="Layer_1" data-name="Layer 1" viewBox="0 0 280 280"> <defs> <style>.cls-1{fill:url(#New_Gradient_Swatch_1);}</style> <linearGradient id="New_Gradient_Swatch_1" x1="0.78" y1="280.78" x2="280.6" y2="0.97" gradientUnits="userSpaceOnUse"> <stop offset="0" stop-color="#fff"></stop> <stop offset="0.1"></stop> <stop offset="0.2" stop-color="#fff"></stop> <stop offset="0.3"></stop> <stop offset="0.4" stop-color="#fff"></stop> <stop offset="0.5"></stop> <stop offset="0.6" stop-color="#fff"></stop> <stop offset="0.7"></stop> <stop offset="0.8" stop-color="#fff"></stop> <stop offset="0.9"></stop> <stop offset="1" stop-color="#fff"></stop> </linearGradient> </defs> <title>kill3</title> <path class="cls-1" d="M213.07,112H191.33l11.19-18.65h21.74Zm20.39,74.81H211.72l-11.19,18.65h21.74ZM155.8,280h21.74l33.54-55.9H189.34Zm48-261.35L215,0H193.26L182.07,18.65ZM146.59,186.54h21.74l33.54-55.9H180.13ZM246,93.33l-55.92,93.2h21.74l55.92-93.2Zm-86.92-.13,33.54-55.9H170.88l-33.54,55.9ZM255.2,186.8,199.28,280H221l55.92-93.2ZM280,36.6V.37L224.3,93.2H246ZM115.49,280h23.06a167.26,167.26,0,0,0-62.2-55.92h92.24l11.18-18.64H66.47L77.66,186.8H55.92L44.74,205.44H0v18.64a147.12,147.12,0,0,1,31.51,3.4L0,280H21.74L50,232.84A148.65,148.65,0,0,1,115.49,280ZM280,217.93,242.75,280h21.74L280,254.16ZM0,130.62A147.12,147.12,0,0,1,31.51,134L0,186.54H21.74L50,139.38a148.86,148.86,0,0,1,71.19,54.84l10.41-17.35a167.08,167.08,0,0,0-55.28-46.26h83L170.57,112H66.47L77.66,93.33H55.92L44.74,112H0v18.64Zm280,14.73V109.12l-46.45,77.41h21.74ZM202.56,93.2,258.48,0H236.74L180.82,93.2Zm-180.81,0L50,46A148.66,148.66,0,0,1,115.6,93.33l0-.13,10.14-16.9a167,167,0,0,0-49.37-39h72.78l11.18-18.64H66.47L77.66,0H55.92L44.74,18.65H0V37.29a147.12,147.12,0,0,1,31.51,3.4L0,93.2Z"></path> </svg> 