<?xml version="1.0" encoding="utf-8"?>
<!-- Generator: Adobe Illustrator 24.1.3, SVG Export Plug-In . SVG Version: 6.00 Build 0)  -->
<svg version="1.1" id="Layer_1" xmlns="http://www.w3.org/2000/svg" xmlns:xlink="http://www.w3.org/1999/xlink" x="0px" y="0px"
	 viewBox="0 0 280 280" style="enable-background:new 0 0 280 280;" xml:space="preserve">
<style type="text/css">
	.st0{fill:url(#SVGID_1_);}
</style>
<linearGradient id="SVGID_1_" gradientUnits="userSpaceOnUse" x1="0.7826" y1="1.2173" x2="280.6026" y2="281.0273" gradientTransform="matrix(1 0 0 -1 0 282)">
	<stop  offset="0" style="stop-color:#F0F8FF"/>
	<stop  offset="9.952463e-02" style="stop-color:#BB8F90"/>
	<stop  offset="0.2" style="stop-color:#F0F8FF"/>
	<stop  offset="0.2995" style="stop-color:#BB8F90"/>
	<stop  offset="0.4" style="stop-color:#F0F8FF"/>
	<stop  offset="0.5" style="stop-color:#BB8F90"/>
	<stop  offset="0.6" style="stop-color:#F0F8FF"/>
	<stop  offset="0.7" style="stop-color:#BB8F90"/>
	<stop  offset="0.8" style="stop-color:#F0F8FF"/>
	<stop  offset="0.9" style="stop-color:#BB8F90"/>
	<stop  offset="1" style="stop-color:#F0F8FF"/>
</linearGradient>
<path class="st0" d="M213.1,112h-21.7l11.2-18.7h21.7L213.1,112z M233.5,186.8h-21.7l-11.2,18.6h21.7L233.5,186.8z M155.8,280h21.7
	l33.5-55.9h-21.7L155.8,280z M203.8,18.6L215,0h-21.7l-11.2,18.6L203.8,18.6z M146.6,186.5h21.7l33.5-55.9h-21.7L146.6,186.5z
	 M246,93.3l-55.9,93.2h21.7l55.9-93.2H246z M159.1,93.2l33.5-55.9h-21.7l-33.5,55.9H159.1z M255.2,186.8L199.3,280H221l55.9-93.2
	H255.2z M280,36.6V0.4l-55.7,92.8H246L280,36.6z M115.5,280h23.1c-15.7-23.6-37.1-42.8-62.2-55.9h92.2l11.2-18.6H66.5l11.2-18.6
	H55.9l-11.2,18.6H0v18.6c10.6,0,21.2,1.1,31.5,3.4L0,280h21.7L50,232.8C75.8,242.2,98.4,258.5,115.5,280z M280,217.9L242.8,280h21.7
	l15.5-25.8V217.9z M0,130.6c10.6,0,21.2,1.1,31.5,3.4L0,186.5h21.7L50,139.4c28.8,10.5,53.7,29.7,71.2,54.8l10.4-17.4
	c-14.8-19.3-33.7-35-55.3-46.3h83l11.2-18.6H66.5l11.2-18.7H55.9L44.7,112H0V130.6L0,130.6z M280,145.3v-36.2l-46.4,77.4h21.7
	L280,145.3z M202.6,93.2L258.5,0h-21.7l-55.9,93.2H202.6z M21.8,93.2L50,46c25.8,9.4,48.5,25.8,65.6,47.3v-0.1l10.1-16.9
	c-13.8-16-30.6-29.2-49.4-39h72.8l11.2-18.6H66.5L77.7,0H55.9L44.7,18.6H0v18.6c10.6,0,21.2,1.1,31.5,3.4L0,93.2H21.8z"/>
</svg>
