<?xml version="1.0" encoding="UTF-8"?>
<svg id="Layer_1" xmlns="http://www.w3.org/2000/svg" version="1.1" viewBox="0 0 792 299">
  <!-- Generator: Adobe Illustrator 30.1.0, SVG Export Plug-In . SVG Version: 2.1.1 Build 136)  -->
  <defs>
    <style>
      .st0 {
        fill: #595953;
      }
    </style>
  </defs>
  <path class="st0" d="M792,170.2869873v.9210205l-22.2600098,2.7630005-43.0499878,132.6209717h-.9190063l-42.6820068-132.6209717-22.2600098-2.7630005v-.9210205h52.2480469v.9210205l-21.8930054,2.7630005,36.0579834,114.2019653,36.242981-114.2019653-21.8930054-2.7630005v-.9210205h50.40802ZM649.8049927,233.835022c0,39.4179688-29.6190186,69.072937-68.9890137,69.072937s-68.9889526-29.6549683-68.9889526-69.072937c0-39.4190063,29.6189575-69.0740356,68.9889526-69.0740356s68.9890137,29.6550293,68.9890137,69.0740356ZM642.0780029,233.835022c0-37.2080078-25.3880005-63.5480347-61.2620239-63.5480347-35.8739624,0-61.2619629,26.3400269-61.2619629,63.5480347,0,37.2069702,25.3880005,63.5479736,61.2619629,63.5479736,35.8740234,0,61.2620239-26.3410034,61.2620239-63.5479736ZM433.6390381,171.2080078l22.0769653,2.7630005v109.2279663l-61.6300049-122.1220093h-.9199829v134.4639893l-22.0770264,2.7630005v.9200439h49.6719971v-.9200439l-22.0759888-2.7630005v-109.2289429l61.6300049,122.1219482h.9199829v-134.4629517l22.0760498-2.7630005v-.9210205h-49.6719971v.9210205ZM292.9590454,171.2080078l22.0769653,2.7630005v121.5699463l-22.0769653,2.7630005v.9200439h51.5119629v-.9200439l-22.0769653-2.7630005v-121.5699463l22.0769653-2.7630005v-.9210205h-51.5119629v.9210205ZM244.2360229,161.0769653h-1.2880249l-41.2099609,127.2800293-40.8410034-127.2800293h-1.2880249v134.4639893l-22.0759888,2.7630005v.9200439h47.4639893v-.9200439l-19.8690186-2.7630005v-99.6509399l35.507019,110.7019653h.9190063l35.322998-108.8599854v97.80896l-19.8690186,2.7630005v.9200439h49.3040161v-.9200439l-22.0759888-2.7630005v-134.4639893ZM108.7269897,295.5409546l22.4440308,2.7630005v.9200439h-52.2474976v-.9200439l21.8924561-2.7630005-12.3259888-38.4979858h-47.4644775l-12.5100098,38.4979858,21.8925171,2.7630005v.9200439H0v-.9200439l22.444397-2.7630005,42.8652344-130.7799683h.9198608l42.4974976,130.7799683ZM86.6502075,251.5169678l-21.8925171-68.5209961-22.0764771,68.5209961h43.9689941ZM504.4620361,137.1829834v.9210205h49.3039551v-.9210205l-22.0759888-2.7630005V-.0439453h-1.2880249l-41.2089844,127.2799683L448.3510132-.0439453h-1.2880249v134.4639282l-22.0759888,2.7630005v.9210205h47.4639893v-.9210205l-19.867981-2.7630005V34.7692871l35.5059814,110.7026978h.9200439l35.3219604-108.8607788v97.8087769l-19.8689575,2.7630005ZM398.3690186,137.1829834l-22.0770264-2.7630005V12.8497925l22.0770264-2.7628784v-.9210205h-51.5120239v.9210205l22.0760498,2.7628784v121.5701904l-22.0760498,2.7630005v.9210205h51.5120239v-.9210205ZM242.1630249,14.6917725h33.6669922v119.7282104l-22.0770264,2.7630005v.9210205h49.3040161v-.9210205l-19.867981-2.7630005V14.6917725h34.0339966l5.7030029,21.7352295.9199829-.1842041-3.3109741-23.7614136-.368042-3.3154907h-80.9469604l-.368042,3.3154907-3.3120117,23.7614136.9200439.1842041,5.7030029-21.7352295Z"/>
</svg>