<?xml version="1.0" encoding="UTF-8"?>
<svg id="Layer_1" xmlns="http://www.w3.org/2000/svg" version="1.1" viewBox="0 0 1656 196">
  <!-- Generator: Adobe Illustrator 30.1.0, SVG Export Plug-In . SVG Version: 2.1.1 Build 136)  -->
  <defs>
    <style>
      .st0 {
        fill: #595953;
      }
    </style>
  </defs>
  <path class="st0" d="M1667,12.6121216v1.3112793l-31.7299805,3.9335938-61.3699951,188.8150024h-1.3100586l-60.8399658-188.8150024-31.7299805-3.9335938v-1.3112793h74.4799805v1.3112793l-31.2099609,3.9335938,51.3999023,162.5910034,51.6600342-162.5910034-31.1999512-3.9335938v-1.3112793h71.8499756ZM1464.3100586,103.0859985c0,56.1199951-42.2200928,98.3410034-98.3400879,98.3410034s-98.3499756-42.2210083-98.3499756-98.3410034,42.2299805-98.3411255,98.3499756-98.3411255,98.3400879,42.2211304,98.3400879,98.3411255ZM1453.2900391,103.0859985c0-52.9730835-36.1900635-90.473877-87.3200684-90.473877-51.1400146,0-87.3299561,37.5007935-87.3299561,90.473877,0,52.9730225,36.1899414,90.473999,87.3299561,90.473999,51.1300049,0,87.3200684-37.5009766,87.3200684-90.473999ZM1156.1700439,13.9234009l31.4699707,3.9335938v155.5100098L1099.7900391-.5h-1.3100586v191.4370117l-31.4699707,3.93396v1.3110352h70.8000488v-1.3110352l-31.460083-3.93396V35.4273071l87.8499756,173.8666992h1.3100586V17.8569946l31.4699707-3.9335938v-1.3112793h-70.8099365v1.3112793ZM955.6380005,13.9234009l31.4689941,3.9335938v173.0800171l-31.4689941,3.93396v1.3110352h73.4319458v-1.3110352l-31.4729614-3.93396V17.8569946l31.4729614-3.9335938v-1.3112793h-73.4319458v1.3112793ZM886.184021-.5h-1.835022l-58.742981,181.210022L767.3880005-.5h-1.835022v191.4370117l-31.4699707,3.93396v1.3110352h67.6589966v-1.3110352l-28.3220215-3.93396V49.0639038l50.6130371,157.6080933h1.3109741l50.3510132-154.9857178v139.2507324l-28.322998,3.93396v1.3110352h70.2810059v-1.3110352l-31.4689941-3.93396V-.5ZM693.0219727,190.9370117l31.9940186,3.93396v1.3110352h-74.4769897v-1.3110352l31.2069702-3.93396-17.5709839-54.8080444h-67.657959l-17.8330078,54.8080444,31.2069702,3.93396v1.3110352h-71.8549805v-1.3110352l31.9940186-3.93396L631.1329956,4.744873h1.3109741l60.5780029,186.1921387ZM661.5529785,128.2609863l-31.2069702-97.5540771-31.4689941,97.5540771h62.6759644ZM433.1500244-.5h-1.8359985l-58.742981,181.210022L314.3540039-.5h-1.8359985v191.4370117l-31.4689941,3.93396v1.3110352h67.65802v-1.3110352l-28.3220215-3.93396V49.0639038l50.6129761,157.6080933h1.3110352l50.3510132-154.9857178v139.2507324l-28.3220215,3.93396v1.3110352h70.2810059v-1.3110352l-31.4689941-3.93396V-.5ZM169.677002,13.9234009l31.4700317,3.9335938v173.0800171l-31.4700317,3.93396v1.3110352h73.4279785v-1.3110352l-31.4689941-3.93396V17.8569946l31.4689941-3.9335938v-1.3112793h-73.4279785v1.3112793ZM131.632019,12.6121216H16.244873l-.5244751,4.7203979-4.7203979,33.8292847,1.3112183.2622681,8.1294556-30.9447021h47.9905396v170.4576416l-31.4692383,3.93396v1.3110352h70.2810059v-1.3110352l-28.3220825-3.93396V20.4793701h48.5150757l8.1290283,30.9447021,1.3120117-.2622681-4.7210083-33.8292847-.5239868-4.7203979Z"/>
</svg>