<svg width="3840" height="2160" viewBox="0 0 3840 2160" fill="none" xmlns="http://www.w3.org/2000/svg">
<rect width="3840" height="2160" fill="black"/>
<path d="M1840.8 273.182V295H1838.16V277.017H1837.99C1837.89 277.216 1837.63 277.443 1837.22 277.699C1836.81 277.947 1836.28 278.168 1835.62 278.359C1834.97 278.544 1834.22 278.636 1833.39 278.636V276.42C1834.23 276.42 1834.96 276.268 1835.58 275.962C1836.2 275.657 1836.71 275.298 1837.12 274.886C1837.54 274.474 1837.86 274.102 1838.07 273.768C1838.29 273.434 1838.42 273.239 1838.46 273.182H1840.8ZM1874.37 278.636C1874.24 277.557 1873.72 276.719 1872.81 276.122C1871.9 275.526 1870.79 275.227 1869.47 275.227C1868.5 275.227 1867.66 275.384 1866.93 275.696C1866.22 276.009 1865.65 276.438 1865.25 276.985C1864.85 277.532 1864.65 278.153 1864.65 278.849C1864.65 279.432 1864.79 279.933 1865.07 280.352C1865.35 280.763 1865.71 281.108 1866.16 281.385C1866.6 281.655 1867.06 281.879 1867.54 282.056C1868.02 282.227 1868.47 282.365 1868.87 282.472L1871.09 283.068C1871.66 283.217 1872.29 283.423 1872.98 283.686C1873.69 283.949 1874.36 284.308 1875 284.762C1875.64 285.21 1876.18 285.785 1876.6 286.488C1877.01 287.191 1877.22 288.054 1877.22 289.077C1877.22 290.256 1876.91 291.321 1876.3 292.273C1875.69 293.224 1874.79 293.981 1873.61 294.542C1872.44 295.103 1871.02 295.384 1869.34 295.384C1867.78 295.384 1866.42 295.131 1865.28 294.627C1864.15 294.123 1863.25 293.42 1862.6 292.518C1861.95 291.616 1861.58 290.568 1861.5 289.375H1864.23C1864.3 290.199 1864.57 290.881 1865.06 291.42C1865.55 291.953 1866.17 292.351 1866.91 292.614C1867.66 292.869 1868.47 292.997 1869.34 292.997C1870.35 292.997 1871.25 292.834 1872.06 292.507C1872.86 292.173 1873.5 291.712 1873.96 291.122C1874.43 290.526 1874.67 289.83 1874.67 289.034C1874.67 288.31 1874.46 287.72 1874.06 287.266C1873.66 286.811 1873.12 286.442 1872.46 286.158C1871.8 285.874 1871.09 285.625 1870.32 285.412L1867.64 284.645C1865.93 284.155 1864.58 283.455 1863.59 282.546C1862.59 281.637 1862.1 280.447 1862.1 278.977C1862.1 277.756 1862.43 276.69 1863.09 275.781C1863.75 274.865 1864.65 274.155 1865.77 273.651C1866.9 273.139 1868.16 272.884 1869.55 272.884C1870.96 272.884 1872.21 273.136 1873.3 273.64C1874.4 274.137 1875.26 274.819 1875.9 275.685C1876.55 276.552 1876.89 277.536 1876.93 278.636H1874.37ZM1895.37 275.526V273.182H1911.74V275.526H1904.88V295H1902.24V275.526H1895.37ZM1955.15 295H1952.38L1960.39 273.182H1963.12L1971.13 295H1968.36L1961.84 276.634H1961.67L1955.15 295ZM1956.17 286.477H1967.34V288.821H1956.17V286.477ZM1996.26 295H1989.53V273.182H1996.56C1998.67 273.182 2000.49 273.619 2001.99 274.492C2003.5 275.359 2004.65 276.605 2005.45 278.232C2006.26 279.851 2006.66 281.79 2006.66 284.048C2006.66 286.321 2006.25 288.278 2005.44 289.918C2004.63 291.552 2003.45 292.809 2001.91 293.69C2000.36 294.563 1998.48 295 1996.26 295ZM1992.17 292.656H1996.09C1997.89 292.656 1999.39 292.308 2000.57 291.612C2001.76 290.916 2002.64 289.925 2003.23 288.64C2003.81 287.354 2004.1 285.824 2004.1 284.048C2004.1 282.287 2003.81 280.771 2003.24 279.499C2002.66 278.221 2001.8 277.241 2000.66 276.559C1999.52 275.87 1998.09 275.526 1996.39 275.526H1992.17V292.656Z" fill="#E3E1D3"/>
<path d="M929.636 407.24L900.196 365.88L917.396 344.6L908.116 343.4V343H930.436V343.4L920.516 344.6L903.956 364.92L930.276 406.76L929.636 407.24ZM882.836 399V398.6L892.436 397.4V344.6L882.836 343.4V343H905.236V343.4L895.636 344.6V397.4L905.236 398.6V399H882.836ZM949.27 399V398.6L959.03 397.4L977.67 340.6H978.07L996.55 397.4L1006.31 398.6V399H983.59V398.6L993.11 397.4L987.75 380.68H967.11L961.67 397.4L971.19 398.6V399H949.27ZM967.83 378.28H986.95L977.43 348.52L967.83 378.28ZM1032.19 399V398.6L1041.79 397.4V345.4H1027.15L1024.67 354.84L1024.27 354.76L1025.71 344.44L1025.87 343H1061.07L1061.23 344.44L1062.67 354.76L1062.27 354.84L1059.79 345.4H1044.99V397.4L1053.63 398.6V399H1032.19ZM1119.16 377.88L1116.2 370.44H1105.48V396.6H1128.28L1129.48 387H1129.88V399H1092.68V398.6L1102.28 397.4V344.6L1092.68 343.4V343H1129.08V355H1128.68L1127.48 345.4H1105.48V368.2H1116.2L1119.16 360.76L1119.56 360.84L1117.72 369.08V369.56L1119.56 377.8L1119.16 377.88ZM1224.56 402.2L1206 344.6L1196.32 343.4V343H1219.04V343.4L1209.52 344.6L1225.2 394.2L1240.96 344.6L1231.44 343.4V343H1253.36V343.4L1243.68 344.6L1224.96 402.2H1224.56ZM1276.98 399V398.6L1286.58 397.4V344.6L1276.98 343.4V343H1299.86V343.4L1289.78 344.6V396.6H1312.1L1314.58 387.16L1314.98 387.24L1313.54 397.56L1313.38 399H1276.98ZM1338.18 399V398.6L1347.94 397.4L1366.58 340.6H1366.98L1385.46 397.4L1395.22 398.6V399H1372.5V398.6L1382.02 397.4L1376.66 380.68H1356.02L1350.58 397.4L1360.1 398.6V399H1338.18ZM1356.74 378.28H1375.86L1366.34 348.52L1356.74 378.28ZM1418.38 399V398.6L1427.98 397.4V344.6L1418.38 343.4V343H1447.18C1463.18 343 1475.18 355 1475.18 371C1475.18 387 1463.18 399 1447.18 399H1418.38ZM1431.18 396.6H1447.1C1461.66 396.6 1471.98 386.04 1471.98 371C1471.98 355.96 1461.66 345.4 1447.1 345.4H1431.18V396.6ZM1507.99 399V398.6L1517.59 397.4V344.6L1507.99 343.4V343H1530.39V343.4L1520.79 344.6V397.4L1530.39 398.6V399H1507.99ZM1581.49 400.52C1573.33 400.52 1565.17 395.4 1565.17 385.08L1575.25 376.2L1575.49 376.44L1568.53 384.92C1568.53 393.72 1575.01 398.12 1581.49 398.12C1589.01 398.12 1594.61 392.68 1594.61 385.48C1594.61 379.56 1591.25 375 1585.09 372.04L1577.73 368.6C1569.73 364.92 1566.45 359.4 1566.45 354.2C1566.45 346.44 1572.93 340.6 1581.49 340.6C1589.01 340.6 1596.05 345.32 1596.37 355L1587.65 362.2L1587.41 361.96L1593.41 354.92C1593.01 346.92 1587.33 343 1581.49 343C1574.53 343 1569.33 347.8 1569.33 354.2C1569.33 358.28 1571.97 362.68 1578.85 365.64L1586.29 369C1593.73 372.28 1597.89 378.12 1597.89 385.24C1597.89 393.96 1590.85 400.52 1581.49 400.52ZM1632.68 399V398.6L1642.28 397.4V344.6L1632.68 343.4V343H1655.56V343.4L1645.48 344.6V396.6H1667.8L1670.28 387.16L1670.68 387.24L1669.24 397.56L1669.08 399H1632.68ZM1693.88 399V398.6L1703.64 397.4L1722.28 340.6H1722.68L1741.16 397.4L1750.92 398.6V399H1728.2V398.6L1737.72 397.4L1732.36 380.68H1711.72L1706.28 397.4L1715.8 398.6V399H1693.88ZM1712.44 378.28H1731.56L1722.04 348.52L1712.44 378.28ZM1792.29 402.2L1773.73 344.6L1764.05 343.4V343H1786.77V343.4L1777.25 344.6L1792.93 394.2L1808.69 344.6L1799.17 343.4V343H1821.09V343.4L1811.41 344.6L1792.69 402.2H1792.29ZM1844.71 399V398.6L1854.31 397.4V344.6L1844.71 343.4V343H1867.59V343.4L1857.51 344.6V396.6H1879.83L1882.31 387.16L1882.71 387.24L1881.27 397.56L1881.11 399H1844.71ZM1941.19 377.88L1938.23 370.44H1927.51V396.6H1950.31L1951.51 387H1951.91V399H1914.71V398.6L1924.31 397.4V344.6L1914.71 343.4V343H1951.11V355H1950.71L1949.51 345.4H1927.51V368.2H1938.23L1941.19 360.76L1941.59 360.84L1939.75 369.08V369.56L1941.59 377.8L1941.19 377.88ZM2006.98 402.2L1988.42 344.6L1978.74 343.4V343H2001.46V343.4L1991.94 344.6L2007.62 394.2L2023.38 344.6L2013.86 343.4V343H2035.78V343.4L2026.1 344.6L2007.38 402.2H2006.98ZM2049.04 399V398.6L2058.8 397.4L2077.44 340.6H2077.84L2096.32 397.4L2106.08 398.6V399H2083.36V398.6L2092.88 397.4L2087.52 380.68H2066.88L2061.44 397.4L2070.96 398.6V399H2049.04ZM2067.6 378.28H2086.72L2077.2 348.52L2067.6 378.28ZM2121.32 415L2120.92 414.84L2130.04 399.48C2129.32 399.08 2128.84 398.28 2128.84 397.4C2128.84 396.12 2129.96 395 2131.24 395C2132.52 395 2133.64 396.12 2133.64 397.4C2133.64 397.96 2133.48 398.44 2132.92 399.24L2121.32 415ZM2194.5 399V398.6L2204.26 397.4L2222.9 340.6H2223.3L2241.78 397.4L2251.54 398.6V399H2228.82V398.6L2238.34 397.4L2232.98 380.68H2212.34L2206.9 397.4L2216.42 398.6V399H2194.5ZM2213.06 378.28H2232.18L2222.66 348.52L2213.06 378.28ZM2274.71 399V398.6L2284.31 397.4V344.6L2274.71 343.4V343H2297.59V343.4L2287.51 344.6V396.6H2309.83L2312.31 387.16L2312.71 387.24L2311.27 397.56L2311.11 399H2274.71ZM2371.19 377.88L2368.23 370.44H2357.51V396.6H2380.31L2381.51 387H2381.91V399H2344.71V398.6L2354.31 397.4V344.6L2344.71 343.4V343H2381.11V355H2380.71L2379.51 345.4H2357.51V368.2H2368.23L2371.19 360.76L2371.59 360.84L2369.75 369.08V369.56L2371.59 377.8L2371.19 377.88ZM2441.3 399V398.6L2450.26 397.4L2438.74 372.52L2427.38 397.4L2436.34 398.6V399H2414.74V398.6L2424.5 397.4L2437.54 369.88L2425.46 344.6L2415.7 343.4V343H2437.7V343.4L2429.22 344.6L2439.14 366.28L2449.06 344.6L2440.58 343.4V343H2461.7V343.4L2451.94 344.6L2440.42 369L2453.94 397.4L2463.78 398.6V399H2441.3ZM2561.03 377.88L2558.07 370.44H2547.35V396.6H2570.15L2571.35 387H2571.75V399H2534.55V398.6L2544.15 397.4V344.6L2534.55 343.4V343H2570.95V355H2570.55L2569.35 345.4H2547.35V368.2H2558.07L2561.03 360.76L2561.43 360.84L2559.59 369.08V369.56L2561.43 377.8L2561.03 377.88ZM2606.59 399V398.6L2616.19 397.4V344.6L2606.59 343.4V343H2628.99V343.4L2619.39 344.6V397.4L2628.99 398.6V399H2606.59ZM2660.96 399V398.6L2670.56 397.4V344.6L2660.96 343.4V343H2689.76C2705.76 343 2717.76 355 2717.76 371C2717.76 387 2705.76 399 2689.76 399H2660.96ZM2673.76 396.6H2689.68C2704.24 396.6 2714.56 386.04 2714.56 371C2714.56 355.96 2704.24 345.4 2689.68 345.4H2673.76V396.6ZM2777.61 402.2L2762.17 354.12V397.4L2770.81 398.6V399H2750.17V398.6L2759.77 397.4V339H2760.33L2778.09 394.28L2796.01 339H2796.57V397.4L2806.17 398.6V399H2784.73V398.6L2793.37 397.4V354.92L2778.01 402.2H2777.61ZM2828.96 399V398.6L2838.72 397.4L2857.36 340.6H2857.76L2876.24 397.4L2886 398.6V399H2863.28V398.6L2872.8 397.4L2867.44 380.68H2846.8L2841.36 397.4L2850.88 398.6V399H2828.96ZM2847.52 378.28H2866.64L2857.12 348.52L2847.52 378.28ZM2947.56 403L2920.76 349.96V397.4L2930.36 398.6V399H2908.76V398.6L2918.36 397.4V339H2918.76L2945.56 392.04V344.6L2935.96 343.4V343H2957.56V343.4L2947.96 344.6V403H2947.56Z" fill="#E3E1D3"/>
<path d="M1609.37 521V499.182H1616.74C1618.45 499.182 1619.85 499.491 1620.94 500.109C1622.03 500.719 1622.84 501.547 1623.37 502.591C1623.89 503.635 1624.16 504.8 1624.16 506.085C1624.16 507.371 1623.89 508.539 1623.37 509.59C1622.85 510.641 1622.05 511.479 1620.96 512.104C1619.87 512.722 1618.48 513.031 1616.79 513.031H1611.5V510.688H1616.7C1617.87 510.688 1618.81 510.485 1619.52 510.08C1620.23 509.675 1620.75 509.129 1621.07 508.44C1621.39 507.744 1621.56 506.959 1621.56 506.085C1621.56 505.212 1621.39 504.43 1621.07 503.741C1620.75 503.053 1620.23 502.513 1619.51 502.122C1618.8 501.724 1617.84 501.526 1616.66 501.526H1612.01V521H1609.37ZM1643.41 521V499.182H1650.79C1652.49 499.182 1653.89 499.473 1654.98 500.055C1656.08 500.631 1656.89 501.423 1657.41 502.431C1657.94 503.44 1658.2 504.587 1658.2 505.872C1658.2 507.158 1657.94 508.298 1657.41 509.292C1656.89 510.286 1656.08 511.067 1654.99 511.636C1653.91 512.197 1652.52 512.477 1650.83 512.477H1644.86V510.091H1650.74C1651.91 510.091 1652.85 509.92 1653.56 509.58C1654.27 509.239 1654.79 508.756 1655.11 508.131C1655.44 507.499 1655.6 506.746 1655.6 505.872C1655.6 504.999 1655.44 504.235 1655.11 503.582C1654.78 502.928 1654.26 502.424 1653.54 502.069C1652.83 501.707 1651.88 501.526 1650.7 501.526H1646.06V521H1643.41ZM1653.68 511.199L1659.05 521H1655.98L1650.7 511.199H1653.68ZM1696.01 510.091C1696.01 512.392 1695.6 514.381 1694.77 516.057C1693.93 517.733 1692.79 519.026 1691.35 519.935C1689.9 520.844 1688.24 521.298 1686.38 521.298C1684.52 521.298 1682.87 520.844 1681.42 519.935C1679.97 519.026 1678.83 517.733 1678 516.057C1677.17 514.381 1676.75 512.392 1676.75 510.091C1676.75 507.79 1677.17 505.801 1678 504.125C1678.83 502.449 1679.97 501.156 1681.42 500.247C1682.87 499.338 1684.52 498.884 1686.38 498.884C1688.24 498.884 1689.9 499.338 1691.35 500.247C1692.79 501.156 1693.93 502.449 1694.77 504.125C1695.6 505.801 1696.01 507.79 1696.01 510.091ZM1693.46 510.091C1693.46 508.202 1693.14 506.607 1692.51 505.308C1691.88 504.008 1691.03 503.024 1689.96 502.357C1688.9 501.689 1687.7 501.355 1686.38 501.355C1685.06 501.355 1683.86 501.689 1682.79 502.357C1681.73 503.024 1680.88 504.008 1680.25 505.308C1679.62 506.607 1679.31 508.202 1679.31 510.091C1679.31 511.98 1679.62 513.575 1680.25 514.874C1680.88 516.174 1681.73 517.158 1682.79 517.825C1683.86 518.493 1685.06 518.827 1686.38 518.827C1687.7 518.827 1688.9 518.493 1689.96 517.825C1691.03 517.158 1691.88 516.174 1692.51 514.874C1693.14 513.575 1693.46 511.98 1693.46 510.091ZM1722.19 521H1715.45V499.182H1722.49C1724.6 499.182 1726.41 499.619 1727.92 500.492C1729.42 501.359 1730.58 502.605 1731.38 504.232C1732.18 505.851 1732.59 507.79 1732.59 510.048C1732.59 512.321 1732.18 514.278 1731.37 515.918C1730.56 517.552 1729.38 518.809 1727.83 519.69C1726.29 520.563 1724.4 521 1722.19 521ZM1718.1 518.656H1722.02C1723.82 518.656 1725.32 518.308 1726.5 517.612C1727.69 516.916 1728.57 515.925 1729.15 514.64C1729.74 513.354 1730.03 511.824 1730.03 510.048C1730.03 508.287 1729.74 506.771 1729.17 505.499C1728.59 504.221 1727.73 503.241 1726.59 502.559C1725.44 501.87 1724.02 501.526 1722.32 501.526H1718.1V518.656ZM1766.34 499.182H1768.98V513.628C1768.98 515.119 1768.63 516.451 1767.92 517.623C1767.23 518.788 1766.24 519.707 1764.97 520.382C1763.7 521.05 1762.21 521.384 1760.5 521.384C1758.79 521.384 1757.29 521.05 1756.02 520.382C1754.75 519.707 1753.76 518.788 1753.06 517.623C1752.37 516.451 1752.02 515.119 1752.02 513.628V499.182H1754.66V513.415C1754.66 514.48 1754.89 515.428 1755.36 516.259C1755.83 517.083 1756.5 517.733 1757.37 518.209C1758.24 518.678 1759.28 518.912 1760.5 518.912C1761.71 518.912 1762.76 518.678 1763.63 518.209C1764.5 517.733 1765.17 517.083 1765.63 516.259C1766.1 515.428 1766.34 514.48 1766.34 513.415V499.182ZM1806.81 506H1804.17C1804.01 505.24 1803.74 504.572 1803.35 503.997C1802.96 503.422 1802.5 502.939 1801.94 502.548C1801.39 502.151 1800.79 501.852 1800.12 501.653C1799.45 501.455 1798.76 501.355 1798.03 501.355C1796.71 501.355 1795.51 501.689 1794.44 502.357C1793.38 503.024 1792.53 504.008 1791.9 505.308C1791.27 506.607 1790.96 508.202 1790.96 510.091C1790.96 511.98 1791.27 513.575 1791.9 514.874C1792.53 516.174 1793.38 517.158 1794.44 517.825C1795.51 518.493 1796.71 518.827 1798.03 518.827C1798.76 518.827 1799.45 518.727 1800.12 518.528C1800.79 518.33 1801.39 518.035 1801.94 517.644C1802.5 517.246 1802.96 516.76 1803.35 516.185C1803.74 515.602 1804.01 514.935 1804.17 514.182H1806.81C1806.61 515.297 1806.25 516.295 1805.72 517.175C1805.2 518.056 1804.54 518.805 1803.76 519.423C1802.98 520.034 1802.1 520.499 1801.13 520.819C1800.17 521.138 1799.13 521.298 1798.03 521.298C1796.17 521.298 1794.52 520.844 1793.07 519.935C1791.62 519.026 1790.48 517.733 1789.65 516.057C1788.82 514.381 1788.4 512.392 1788.4 510.091C1788.4 507.79 1788.82 505.801 1789.65 504.125C1790.48 502.449 1791.62 501.156 1793.07 500.247C1794.52 499.338 1796.17 498.884 1798.03 498.884C1799.13 498.884 1800.17 499.043 1801.13 499.363C1802.1 499.683 1802.98 500.151 1803.76 500.769C1804.54 501.38 1805.2 502.126 1805.72 503.006C1806.25 503.88 1806.61 504.878 1806.81 506ZM1824.89 501.526V499.182H1841.25V501.526H1834.39V521H1831.75V501.526H1824.89ZM1862.97 499.182V521H1860.33V499.182H1862.97ZM1901.68 510.091C1901.68 512.392 1901.26 514.381 1900.43 516.057C1899.6 517.733 1898.46 519.026 1897.01 519.935C1895.56 520.844 1893.91 521.298 1892.05 521.298C1890.18 521.298 1888.53 520.844 1887.08 519.935C1885.63 519.026 1884.49 517.733 1883.66 516.057C1882.83 514.381 1882.41 512.392 1882.41 510.091C1882.41 507.79 1882.83 505.801 1883.66 504.125C1884.49 502.449 1885.63 501.156 1887.08 500.247C1888.53 499.338 1890.18 498.884 1892.05 498.884C1893.91 498.884 1895.56 499.338 1897.01 500.247C1898.46 501.156 1899.6 502.449 1900.43 504.125C1901.26 505.801 1901.68 507.79 1901.68 510.091ZM1899.12 510.091C1899.12 508.202 1898.8 506.607 1898.17 505.308C1897.55 504.008 1896.7 503.024 1895.62 502.357C1894.56 501.689 1893.37 501.355 1892.05 501.355C1890.72 501.355 1889.53 501.689 1888.46 502.357C1887.39 503.024 1886.54 504.008 1885.91 505.308C1885.28 506.607 1884.97 508.202 1884.97 510.091C1884.97 511.98 1885.28 513.575 1885.91 514.874C1886.54 516.174 1887.39 517.158 1888.46 517.825C1889.53 518.493 1890.72 518.827 1892.05 518.827C1893.37 518.827 1894.56 518.493 1895.62 517.825C1896.7 517.158 1897.55 516.174 1898.17 514.874C1898.8 513.575 1899.12 511.98 1899.12 510.091ZM1938.42 499.182V521H1935.86L1923.97 503.869H1923.76V521H1921.12V499.182H1923.68L1935.61 516.355H1935.82V499.182H1938.42ZM1988.88 521H1982.14V499.182H1989.18C1991.29 499.182 1993.1 499.619 1994.61 500.492C1996.11 501.359 1997.27 502.605 1998.07 504.232C1998.87 505.851 1999.27 507.79 1999.27 510.048C1999.27 512.321 1998.87 514.278 1998.06 515.918C1997.25 517.552 1996.07 518.809 1994.52 519.69C1992.97 520.563 1991.09 521 1988.88 521ZM1984.79 518.656H1988.71C1990.51 518.656 1992.01 518.308 1993.19 517.612C1994.38 516.916 1995.26 515.925 1995.84 514.64C1996.43 513.354 1996.72 511.824 1996.72 510.048C1996.72 508.287 1996.43 506.771 1995.85 505.499C1995.28 504.221 1994.42 503.241 1993.28 502.559C1992.13 501.87 1990.71 501.526 1989 501.526H1984.79V518.656ZM2018.71 521V499.182H2031.87V501.526H2021.35V508.898H2031.19V511.241H2021.35V518.656H2032.04V521H2018.71ZM2063.57 504.636C2063.44 503.557 2062.92 502.719 2062.01 502.122C2061.1 501.526 2059.99 501.227 2058.67 501.227C2057.7 501.227 2056.86 501.384 2056.13 501.696C2055.41 502.009 2054.85 502.438 2054.45 502.985C2054.05 503.532 2053.85 504.153 2053.85 504.849C2053.85 505.432 2053.99 505.933 2054.27 506.352C2054.55 506.763 2054.91 507.108 2055.35 507.385C2055.79 507.655 2056.26 507.879 2056.74 508.056C2057.22 508.227 2057.67 508.365 2058.07 508.472L2060.29 509.068C2060.85 509.217 2061.49 509.423 2062.18 509.686C2062.89 509.949 2063.56 510.308 2064.2 510.762C2064.84 511.21 2065.38 511.785 2065.79 512.488C2066.21 513.191 2066.42 514.054 2066.42 515.077C2066.42 516.256 2066.11 517.321 2065.5 518.273C2064.89 519.224 2063.99 519.981 2062.81 520.542C2061.64 521.103 2060.22 521.384 2058.54 521.384C2056.98 521.384 2055.62 521.131 2054.48 520.627C2053.34 520.123 2052.45 519.42 2051.8 518.518C2051.15 517.616 2050.78 516.568 2050.7 515.375H2053.43C2053.5 516.199 2053.77 516.881 2054.26 517.42C2054.75 517.953 2055.36 518.351 2056.11 518.614C2056.86 518.869 2057.67 518.997 2058.54 518.997C2059.55 518.997 2060.45 518.834 2061.26 518.507C2062.06 518.173 2062.69 517.712 2063.16 517.122C2063.63 516.526 2063.87 515.83 2063.87 515.034C2063.87 514.31 2063.66 513.72 2063.26 513.266C2062.85 512.811 2062.32 512.442 2061.66 512.158C2061 511.874 2060.29 511.625 2059.52 511.412L2056.84 510.645C2055.13 510.155 2053.78 509.455 2052.79 508.546C2051.79 507.637 2051.3 506.447 2051.3 504.977C2051.3 503.756 2051.63 502.69 2052.29 501.781C2052.95 500.865 2053.85 500.155 2054.97 499.651C2056.1 499.139 2057.36 498.884 2058.75 498.884C2060.16 498.884 2061.41 499.136 2062.5 499.64C2063.6 500.137 2064.46 500.819 2065.1 501.685C2065.75 502.552 2066.09 503.536 2066.12 504.636H2063.57ZM2088.41 499.182V521H2085.77V499.182H2088.41ZM2117.57 521.298C2115.64 521.298 2113.94 520.844 2112.48 519.935C2111.02 519.026 2109.89 517.733 2109.07 516.057C2108.26 514.381 2107.85 512.392 2107.85 510.091C2107.85 508.365 2108.09 506.813 2108.57 505.435C2109.04 504.05 2109.71 502.871 2110.57 501.898C2111.44 500.925 2112.46 500.18 2113.63 499.661C2114.81 499.143 2116.09 498.884 2117.48 498.884C2118.64 498.884 2119.72 499.058 2120.72 499.406C2121.73 499.746 2122.64 500.233 2123.44 500.865C2124.25 501.49 2124.92 502.239 2125.45 503.113C2125.99 503.979 2126.36 504.942 2126.56 506H2123.83C2123.61 505.283 2123.31 504.64 2122.92 504.072C2122.53 503.496 2122.06 503.006 2121.51 502.602C2120.97 502.197 2120.35 501.888 2119.68 501.675C2119 501.462 2118.27 501.355 2117.48 501.355C2116.19 501.355 2115.01 501.689 2113.94 502.357C2112.86 503.024 2112.01 504.008 2111.37 505.308C2110.73 506.607 2110.41 508.202 2110.41 510.091C2110.41 511.98 2110.73 513.575 2111.36 514.874C2111.99 516.174 2112.85 517.158 2113.93 517.825C2115.01 518.493 2116.22 518.827 2117.57 518.827C2118.87 518.827 2120.01 518.543 2120.99 517.974C2121.98 517.399 2122.75 516.611 2123.3 515.609C2123.86 514.601 2124.13 513.45 2124.13 512.158L2124.47 512.435H2118.17V510.091H2126.69V521H2124.47L2124.15 518.337H2124.05C2123.22 519.288 2122.29 520.02 2121.27 520.531C2120.24 521.043 2119.01 521.298 2117.57 521.298ZM2163.51 499.182V521H2160.95L2149.06 503.869H2148.85V521H2146.21V499.182H2148.76L2160.7 516.355H2160.91V499.182H2163.51ZM2183.79 521V499.182H2196.96V501.526H2186.44V508.898H2196.28V511.241H2186.44V518.656H2197.13V521H2183.79ZM2216.72 521V499.182H2224.1C2225.8 499.182 2227.2 499.473 2228.29 500.055C2229.39 500.631 2230.2 501.423 2230.72 502.431C2231.25 503.44 2231.51 504.587 2231.51 505.872C2231.51 507.158 2231.25 508.298 2230.72 509.292C2230.2 510.286 2229.39 511.067 2228.3 511.636C2227.22 512.197 2225.83 512.477 2224.14 512.477H2218.17V510.091H2224.05C2225.22 510.091 2226.16 509.92 2226.87 509.58C2227.58 509.239 2228.1 508.756 2228.42 508.131C2228.75 507.499 2228.91 506.746 2228.91 505.872C2228.91 504.999 2228.75 504.235 2228.42 503.582C2228.09 502.928 2227.57 502.424 2226.86 502.069C2226.14 501.707 2225.19 501.526 2224.01 501.526H2219.37V521H2216.72ZM2226.99 511.199L2232.36 521H2229.3L2224.01 511.199H2226.99Z" fill="#E3E1D3"/>
<path d="M1483.33 625V624.6L1493.09 623.4L1511.73 566.6H1512.13L1530.61 623.4L1540.37 624.6V625H1517.65V624.6L1527.17 623.4L1521.81 606.68H1501.17L1495.73 623.4L1505.25 624.6V625H1483.33ZM1501.89 604.28H1521.01L1511.49 574.52L1501.89 604.28ZM1563.54 625V624.6L1573.14 623.4V570.6L1563.54 569.4V569H1586.42V569.4L1576.34 570.6V622.6H1598.66L1601.14 613.16L1601.54 613.24L1600.1 623.56L1599.94 625H1563.54ZM1637.07 625V624.6L1646.67 623.4V599.4L1633.31 570.6L1623.55 569.4V569H1646.43V569.4L1636.99 570.6L1648.59 596.2L1660.11 570.6L1650.67 569.4V569H1672.75V569.4L1662.99 570.6L1649.87 598.68V623.4L1658.51 624.6V625H1637.07ZM1729.57 626.6C1712.45 626.6 1699.57 613.72 1699.57 596.6C1699.57 579.48 1712.45 566.6 1729.57 566.6C1746.69 566.6 1759.57 579.48 1759.57 596.6C1759.57 613.72 1746.69 626.6 1729.57 626.6ZM1729.57 624.2C1745.17 624.2 1756.21 612.76 1756.21 596.6C1756.21 580.44 1745.17 569 1729.57 569C1713.97 569 1702.93 580.44 1702.93 596.6C1702.93 612.76 1713.97 624.2 1729.57 624.2ZM1830.77 629L1803.97 575.96V623.4L1813.57 624.6V625H1791.97V624.6L1801.57 623.4V565H1801.97L1828.77 618.04V570.6L1819.17 569.4V569H1840.77V569.4L1831.17 570.6V629H1830.77ZM1863.57 625V624.6L1873.33 623.4L1891.97 566.6H1892.37L1910.85 623.4L1920.61 624.6V625H1897.89V624.6L1907.41 623.4L1902.05 606.68H1881.41L1875.97 623.4L1885.49 624.6V625H1863.57ZM1882.13 604.28H1901.25L1891.73 574.52L1882.13 604.28ZM2021.78 629L1994.98 575.96V623.4L2004.58 624.6V625H1982.98V624.6L1992.58 623.4V565H1992.98L2019.78 618.04V570.6L2010.18 569.4V569H2031.78V569.4L2022.18 570.6V629H2021.78ZM2089.86 603.88L2086.9 596.44H2076.18V622.6H2098.98L2100.18 613H2100.58V625H2063.38V624.6L2072.98 623.4V570.6L2063.38 569.4V569H2099.78V581H2099.38L2098.18 571.4H2076.18V594.2H2086.9L2089.86 586.76L2090.26 586.84L2088.42 595.08V595.56L2090.26 603.8L2089.86 603.88ZM2135.41 625V624.6L2145.01 623.4V570.6L2135.41 569.4V569H2156.05C2164.45 569 2170.45 574.6 2170.45 582.52C2170.45 588.04 2167.49 592.52 2163.01 594.68C2169.97 596.12 2175.01 602.12 2175.01 609.56C2175.01 618.6 2168.37 625 2159.01 625H2135.41ZM2156.05 594.2C2162.37 594.2 2167.09 589.32 2167.09 582.76C2167.09 576.28 2162.37 571.4 2156.05 571.4H2148.21V594.2H2156.05ZM2148.21 622.6H2159.01C2166.21 622.6 2171.65 617 2171.65 609.48C2171.65 602.12 2166.21 596.44 2159.01 596.44H2148.21V622.6ZM2257.61 633.24L2227.37 591L2227.61 590.52L2232.17 592.12H2233.29C2240.81 592.12 2244.97 587.64 2244.97 581.8C2244.97 575.8 2240.33 571.4 2234.09 571.4H2223.45V623.4L2233.53 624.6V625H2210.65V624.6L2220.25 623.4V570.6L2210.65 569.4V569H2234.73C2242.73 569 2248.33 574.2 2248.33 581.64C2248.33 588.84 2242.73 594.12 2234.73 594.12H2234.01L2258.25 632.76L2257.61 633.24ZM2317.07 626.6C2299.95 626.6 2287.07 613.72 2287.07 596.6C2287.07 579.48 2299.95 566.6 2317.07 566.6C2334.19 566.6 2347.07 579.48 2347.07 596.6C2347.07 613.72 2334.19 626.6 2317.07 626.6ZM2317.07 624.2C2332.67 624.2 2343.71 612.76 2343.71 596.6C2343.71 580.44 2332.67 569 2317.07 569C2301.47 569 2290.43 580.44 2290.43 596.6C2290.43 612.76 2301.47 624.2 2317.07 624.2Z" fill="#E3E1D3"/>
<path d="M1576.98 747V725.182H1584.36C1586.07 725.182 1587.47 725.491 1588.55 726.109C1589.65 726.719 1590.46 727.547 1590.98 728.591C1591.51 729.635 1591.77 730.8 1591.77 732.085C1591.77 733.371 1591.51 734.539 1590.98 735.59C1590.46 736.641 1589.66 737.479 1588.57 738.104C1587.49 738.722 1586.1 739.031 1584.4 739.031H1579.11V736.688H1584.31C1585.48 736.688 1586.43 736.485 1587.14 736.08C1587.85 735.675 1588.36 735.129 1588.68 734.44C1589.01 733.744 1589.17 732.959 1589.17 732.085C1589.17 731.212 1589.01 730.43 1588.68 729.741C1588.36 729.053 1587.84 728.513 1587.12 728.122C1586.41 727.724 1585.46 727.526 1584.27 727.526H1579.62V747H1576.98ZM1611.03 747V725.182H1618.4C1620.1 725.182 1621.5 725.473 1622.6 726.055C1623.69 726.631 1624.5 727.423 1625.02 728.431C1625.55 729.44 1625.81 730.587 1625.81 731.872C1625.81 733.158 1625.55 734.298 1625.02 735.292C1624.5 736.286 1623.69 737.067 1622.61 737.636C1621.52 738.197 1620.13 738.477 1618.44 738.477H1612.47V736.091H1618.36C1619.52 736.091 1620.46 735.92 1621.17 735.58C1621.89 735.239 1622.4 734.756 1622.72 734.131C1623.05 733.499 1623.21 732.746 1623.21 731.872C1623.21 730.999 1623.05 730.235 1622.72 729.582C1622.4 728.928 1621.87 728.424 1621.16 728.069C1620.44 727.707 1619.49 727.526 1618.31 727.526H1613.67V747H1611.03ZM1621.3 737.199L1626.67 747H1623.6L1618.31 737.199H1621.3ZM1663.62 736.091C1663.62 738.392 1663.21 740.381 1662.38 742.057C1661.55 743.733 1660.41 745.026 1658.96 745.935C1657.51 746.844 1655.85 747.298 1653.99 747.298C1652.13 747.298 1650.48 746.844 1649.03 745.935C1647.58 745.026 1646.44 743.733 1645.61 742.057C1644.78 740.381 1644.36 738.392 1644.36 736.091C1644.36 733.79 1644.78 731.801 1645.61 730.125C1646.44 728.449 1647.58 727.156 1649.03 726.247C1650.48 725.338 1652.13 724.884 1653.99 724.884C1655.85 724.884 1657.51 725.338 1658.96 726.247C1660.41 727.156 1661.55 728.449 1662.38 730.125C1663.21 731.801 1663.62 733.79 1663.62 736.091ZM1661.07 736.091C1661.07 734.202 1660.75 732.607 1660.12 731.308C1659.49 730.008 1658.65 729.024 1657.57 728.357C1656.51 727.689 1655.31 727.355 1653.99 727.355C1652.67 727.355 1651.48 727.689 1650.4 728.357C1649.34 729.024 1648.49 730.008 1647.86 731.308C1647.23 732.607 1646.92 734.202 1646.92 736.091C1646.92 737.98 1647.23 739.575 1647.86 740.874C1648.49 742.174 1649.34 743.158 1650.4 743.825C1651.48 744.493 1652.67 744.827 1653.99 744.827C1655.31 744.827 1656.51 744.493 1657.57 743.825C1658.65 743.158 1659.49 742.174 1660.12 740.874C1660.75 739.575 1661.07 737.98 1661.07 736.091ZM1689.8 747H1683.07V725.182H1690.1C1692.21 725.182 1694.03 725.619 1695.53 726.492C1697.04 727.359 1698.19 728.605 1698.99 730.232C1699.8 731.851 1700.2 733.79 1700.2 736.048C1700.2 738.321 1699.79 740.278 1698.98 741.918C1698.17 743.552 1696.99 744.809 1695.45 745.69C1693.9 746.563 1692.02 747 1689.8 747ZM1685.71 744.656H1689.63C1691.43 744.656 1692.93 744.308 1694.11 743.612C1695.3 742.916 1696.18 741.925 1696.77 740.64C1697.35 739.354 1697.64 737.824 1697.64 736.048C1697.64 734.287 1697.35 732.771 1696.78 731.499C1696.2 730.221 1695.34 729.241 1694.2 728.559C1693.06 727.87 1691.63 727.526 1689.93 727.526H1685.71V744.656ZM1733.95 725.182H1736.59V739.628C1736.59 741.119 1736.24 742.451 1735.53 743.623C1734.84 744.788 1733.86 745.707 1732.58 746.382C1731.31 747.05 1729.82 747.384 1728.11 747.384C1726.4 747.384 1724.91 747.05 1723.64 746.382C1722.36 745.707 1721.38 744.788 1720.67 743.623C1719.98 742.451 1719.63 741.119 1719.63 739.628V725.182H1722.27V739.415C1722.27 740.48 1722.51 741.428 1722.97 742.259C1723.44 743.083 1724.11 743.733 1724.98 744.209C1725.85 744.678 1726.89 744.912 1728.11 744.912C1729.32 744.912 1730.37 744.678 1731.24 744.209C1732.12 743.733 1732.78 743.083 1733.24 742.259C1733.71 741.428 1733.95 740.48 1733.95 739.415V725.182ZM1774.42 732H1771.78C1771.62 731.24 1771.35 730.572 1770.96 729.997C1770.58 729.422 1770.11 728.939 1769.55 728.548C1769.01 728.151 1768.4 727.852 1767.73 727.653C1767.06 727.455 1766.37 727.355 1765.64 727.355C1764.32 727.355 1763.13 727.689 1762.05 728.357C1760.99 729.024 1760.14 730.008 1759.51 731.308C1758.88 732.607 1758.57 734.202 1758.57 736.091C1758.57 737.98 1758.88 739.575 1759.51 740.874C1760.14 742.174 1760.99 743.158 1762.05 743.825C1763.13 744.493 1764.32 744.827 1765.64 744.827C1766.37 744.827 1767.06 744.727 1767.73 744.528C1768.4 744.33 1769.01 744.035 1769.55 743.644C1770.11 743.246 1770.58 742.76 1770.96 742.185C1771.35 741.602 1771.62 740.935 1771.78 740.182H1774.42C1774.22 741.297 1773.86 742.295 1773.34 743.175C1772.81 744.056 1772.16 744.805 1771.38 745.423C1770.59 746.034 1769.72 746.499 1768.74 746.819C1767.78 747.138 1766.74 747.298 1765.64 747.298C1763.78 747.298 1762.13 746.844 1760.68 745.935C1759.23 745.026 1758.09 743.733 1757.26 742.057C1756.43 740.381 1756.01 738.392 1756.01 736.091C1756.01 733.79 1756.43 731.801 1757.26 730.125C1758.09 728.449 1759.23 727.156 1760.68 726.247C1762.13 725.338 1763.78 724.884 1765.64 724.884C1766.74 724.884 1767.78 725.043 1768.74 725.363C1769.72 725.683 1770.59 726.151 1771.38 726.769C1772.16 727.38 1772.81 728.126 1773.34 729.006C1773.86 729.88 1774.22 730.878 1774.42 732ZM1792.5 727.526V725.182H1808.86V727.526H1802V747H1799.36V727.526H1792.5ZM1830.58 725.182V747H1827.94V725.182H1830.58ZM1869.29 736.091C1869.29 738.392 1868.87 740.381 1868.04 742.057C1867.21 743.733 1866.07 745.026 1864.62 745.935C1863.17 746.844 1861.52 747.298 1859.66 747.298C1857.8 747.298 1856.14 746.844 1854.69 745.935C1853.24 745.026 1852.1 743.733 1851.27 742.057C1850.44 740.381 1850.03 738.392 1850.03 736.091C1850.03 733.79 1850.44 731.801 1851.27 730.125C1852.1 728.449 1853.24 727.156 1854.69 726.247C1856.14 725.338 1857.8 724.884 1859.66 724.884C1861.52 724.884 1863.17 725.338 1864.62 726.247C1866.07 727.156 1867.21 728.449 1868.04 730.125C1868.87 731.801 1869.29 733.79 1869.29 736.091ZM1866.73 736.091C1866.73 734.202 1866.42 732.607 1865.78 731.308C1865.16 730.008 1864.31 729.024 1863.24 728.357C1862.17 727.689 1860.98 727.355 1859.66 727.355C1858.34 727.355 1857.14 727.689 1856.07 728.357C1855 729.024 1854.15 730.008 1853.52 731.308C1852.9 732.607 1852.58 734.202 1852.58 736.091C1852.58 737.98 1852.9 739.575 1853.52 740.874C1854.15 742.174 1855 743.158 1856.07 743.825C1857.14 744.493 1858.34 744.827 1859.66 744.827C1860.98 744.827 1862.17 744.493 1863.24 743.825C1864.31 743.158 1865.16 742.174 1865.78 740.874C1866.42 739.575 1866.73 737.98 1866.73 736.091ZM1906.03 725.182V747H1903.48L1891.59 729.869H1891.37V747H1888.73V725.182H1891.29L1903.22 742.355H1903.43V725.182H1906.03ZM1950.65 747H1947.88L1955.89 725.182H1958.62L1966.63 747H1963.86L1957.34 728.634H1957.17L1950.65 747ZM1951.67 738.477H1962.84V740.821H1951.67V738.477ZM1996.96 730.636C1996.83 729.557 1996.32 728.719 1995.41 728.122C1994.5 727.526 1993.38 727.227 1992.06 727.227C1991.1 727.227 1990.25 727.384 1989.53 727.696C1988.81 728.009 1988.25 728.438 1987.84 728.985C1987.44 729.532 1987.25 730.153 1987.25 730.849C1987.25 731.432 1987.38 731.933 1987.66 732.352C1987.95 732.763 1988.31 733.108 1988.75 733.385C1989.19 733.655 1989.65 733.879 1990.13 734.056C1990.62 734.227 1991.06 734.365 1991.46 734.472L1993.68 735.068C1994.25 735.217 1994.88 735.423 1995.58 735.686C1996.28 735.949 1996.95 736.308 1997.59 736.762C1998.24 737.21 1998.77 737.785 1999.19 738.488C1999.61 739.191 1999.82 740.054 1999.82 741.077C1999.82 742.256 1999.51 743.321 1998.89 744.273C1998.28 745.224 1997.38 745.981 1996.21 746.542C1995.03 747.103 1993.61 747.384 1991.93 747.384C1990.37 747.384 1989.02 747.131 1987.87 746.627C1986.74 746.123 1985.84 745.42 1985.19 744.518C1984.54 743.616 1984.18 742.568 1984.09 741.375H1986.82C1986.89 742.199 1987.17 742.881 1987.65 743.42C1988.14 743.953 1988.76 744.351 1989.5 744.614C1990.26 744.869 1991.07 744.997 1991.93 744.997C1992.94 744.997 1993.85 744.834 1994.65 744.507C1995.45 744.173 1996.09 743.712 1996.56 743.122C1997.03 742.526 1997.26 741.83 1997.26 741.034C1997.26 740.31 1997.06 739.72 1996.65 739.266C1996.25 738.811 1995.72 738.442 1995.05 738.158C1994.39 737.874 1993.68 737.625 1992.91 737.412L1990.23 736.645C1988.52 736.155 1987.17 735.455 1986.18 734.546C1985.19 733.637 1984.69 732.447 1984.69 730.977C1984.69 729.756 1985.02 728.69 1985.68 727.781C1986.35 726.865 1987.24 726.155 1988.36 725.651C1989.49 725.139 1990.75 724.884 1992.15 724.884C1993.55 724.884 1994.8 725.136 1995.9 725.64C1996.99 726.137 1997.86 726.819 1998.5 727.685C1999.14 728.552 1999.48 729.536 1999.52 730.636H1996.96ZM2031.09 730.636C2030.96 729.557 2030.45 728.719 2029.54 728.122C2028.63 727.526 2027.51 727.227 2026.19 727.227C2025.23 727.227 2024.38 727.384 2023.66 727.696C2022.94 728.009 2022.38 728.438 2021.97 728.985C2021.58 729.532 2021.38 730.153 2021.38 730.849C2021.38 731.432 2021.52 731.933 2021.79 732.352C2022.08 732.763 2022.44 733.108 2022.88 733.385C2023.32 733.655 2023.78 733.879 2024.26 734.056C2024.75 734.227 2025.19 734.365 2025.6 734.472L2027.81 735.068C2028.38 735.217 2029.01 735.423 2029.71 735.686C2030.41 735.949 2031.08 736.308 2031.72 736.762C2032.37 737.21 2032.9 737.785 2033.32 738.488C2033.74 739.191 2033.95 740.054 2033.95 741.077C2033.95 742.256 2033.64 743.321 2033.02 744.273C2032.41 745.224 2031.52 745.981 2030.34 746.542C2029.16 747.103 2027.74 747.384 2026.06 747.384C2024.5 747.384 2023.15 747.131 2022.01 746.627C2020.87 746.123 2019.97 745.42 2019.32 744.518C2018.67 743.616 2018.31 742.568 2018.22 741.375H2020.95C2021.02 742.199 2021.3 742.881 2021.78 743.42C2022.27 743.953 2022.89 744.351 2023.64 744.614C2024.39 744.869 2025.2 744.997 2026.06 744.997C2027.07 744.997 2027.98 744.834 2028.78 744.507C2029.58 744.173 2030.22 743.712 2030.69 743.122C2031.16 742.526 2031.39 741.83 2031.39 741.034C2031.39 740.31 2031.19 739.72 2030.78 739.266C2030.38 738.811 2029.85 738.442 2029.19 738.158C2028.52 737.874 2027.81 737.625 2027.04 737.412L2024.36 736.645C2022.65 736.155 2021.31 735.455 2020.31 734.546C2019.32 733.637 2018.82 732.447 2018.82 730.977C2018.82 729.756 2019.15 728.69 2019.81 727.781C2020.48 726.865 2021.37 726.155 2022.5 725.651C2023.62 725.139 2024.89 724.884 2026.28 724.884C2027.68 724.884 2028.93 725.136 2030.03 725.64C2031.12 726.137 2031.99 726.819 2032.63 727.685C2033.27 728.552 2033.61 729.536 2033.65 730.636H2031.09ZM2055.93 725.182V747H2053.29V725.182H2055.93ZM2088.16 730.636C2088.03 729.557 2087.52 728.719 2086.61 728.122C2085.7 727.526 2084.58 727.227 2083.26 727.227C2082.3 727.227 2081.45 727.384 2080.73 727.696C2080.01 728.009 2079.45 728.438 2079.04 728.985C2078.65 729.532 2078.45 730.153 2078.45 730.849C2078.45 731.432 2078.59 731.933 2078.86 732.352C2079.15 732.763 2079.51 733.108 2079.95 733.385C2080.39 733.655 2080.85 733.879 2081.33 734.056C2081.82 734.227 2082.26 734.365 2082.67 734.472L2084.88 735.068C2085.45 735.217 2086.08 735.423 2086.78 735.686C2087.48 735.949 2088.15 736.308 2088.79 736.762C2089.44 737.21 2089.97 737.785 2090.39 738.488C2090.81 739.191 2091.02 740.054 2091.02 741.077C2091.02 742.256 2090.71 743.321 2090.09 744.273C2089.48 745.224 2088.59 745.981 2087.41 746.542C2086.23 747.103 2084.81 747.384 2083.13 747.384C2081.57 747.384 2080.22 747.131 2079.08 746.627C2077.94 746.123 2077.04 745.42 2076.39 744.518C2075.74 743.616 2075.38 742.568 2075.29 741.375H2078.02C2078.09 742.199 2078.37 742.881 2078.85 743.42C2079.34 743.953 2079.96 744.351 2080.71 744.614C2081.46 744.869 2082.27 744.997 2083.13 744.997C2084.14 744.997 2085.05 744.834 2085.85 744.507C2086.65 744.173 2087.29 743.712 2087.76 743.122C2088.23 742.526 2088.46 741.83 2088.46 741.034C2088.46 740.31 2088.26 739.72 2087.85 739.266C2087.45 738.811 2086.92 738.442 2086.26 738.158C2085.6 737.874 2084.88 737.625 2084.11 737.412L2081.43 736.645C2079.73 736.155 2078.38 735.455 2077.38 734.546C2076.39 733.637 2075.89 732.447 2075.89 730.977C2075.89 729.756 2076.22 728.69 2076.88 727.781C2077.55 726.865 2078.44 726.155 2079.57 725.651C2080.69 725.139 2081.96 724.884 2083.35 724.884C2084.75 724.884 2086 725.136 2087.1 725.64C2088.19 726.137 2089.06 726.819 2089.7 727.685C2090.34 728.552 2090.68 729.536 2090.72 730.636H2088.16ZM2109.17 727.526V725.182H2125.53V727.526H2118.67V747H2116.03V727.526H2109.17ZM2142.96 747H2140.19L2148.2 725.182H2150.92L2158.94 747H2156.17L2149.65 728.634H2149.48L2142.96 747ZM2143.98 738.477H2155.14V740.821H2143.98V738.477ZM2194.64 725.182V747H2192.08L2180.19 729.869H2179.98V747H2177.33V725.182H2179.89L2191.82 742.355H2192.04V725.182H2194.64ZM2213.73 727.526V725.182H2230.09V727.526H2223.23V747H2220.59V727.526H2213.73ZM2261.1 730.636C2260.97 729.557 2260.46 728.719 2259.55 728.122C2258.64 727.526 2257.52 727.227 2256.2 727.227C2255.24 727.227 2254.39 727.384 2253.67 727.696C2252.95 728.009 2252.39 728.438 2251.98 728.985C2251.59 729.532 2251.39 730.153 2251.39 730.849C2251.39 731.432 2251.52 731.933 2251.8 732.352C2252.09 732.763 2252.45 733.108 2252.89 733.385C2253.33 733.655 2253.79 733.879 2254.27 734.056C2254.76 734.227 2255.2 734.365 2255.61 734.472L2257.82 735.068C2258.39 735.217 2259.02 735.423 2259.72 735.686C2260.42 735.949 2261.09 736.308 2261.73 736.762C2262.38 737.21 2262.91 737.785 2263.33 738.488C2263.75 739.191 2263.96 740.054 2263.96 741.077C2263.96 742.256 2263.65 743.321 2263.03 744.273C2262.42 745.224 2261.52 745.981 2260.35 746.542C2259.17 747.103 2257.75 747.384 2256.07 747.384C2254.51 747.384 2253.16 747.131 2252.01 746.627C2250.88 746.123 2249.98 745.42 2249.33 744.518C2248.68 743.616 2248.32 742.568 2248.23 741.375H2250.96C2251.03 742.199 2251.31 742.881 2251.79 743.42C2252.28 743.953 2252.9 744.351 2253.64 744.614C2254.4 744.869 2255.21 744.997 2256.07 744.997C2257.08 744.997 2257.99 744.834 2258.79 744.507C2259.59 744.173 2260.23 743.712 2260.7 743.122C2261.17 742.526 2261.4 741.83 2261.4 741.034C2261.4 740.31 2261.2 739.72 2260.79 739.266C2260.39 738.811 2259.86 738.442 2259.2 738.158C2258.53 737.874 2257.82 737.625 2257.05 737.412L2254.37 736.645C2252.66 736.155 2251.32 735.455 2250.32 734.546C2249.33 733.637 2248.83 732.447 2248.83 730.977C2248.83 729.756 2249.16 728.69 2249.82 727.781C2250.49 726.865 2251.38 726.155 2252.5 725.651C2253.63 725.139 2254.89 724.884 2256.29 724.884C2257.69 724.884 2258.94 725.136 2260.04 725.64C2261.13 726.137 2262 726.819 2262.64 727.685C2263.28 728.552 2263.62 729.536 2263.66 730.636H2261.1Z" fill="#E3E1D3"/>
<path d="M876 851V850.6L885.6 849.4V796.6L876 795.4V795H904.8C920.8 795 932.8 807 932.8 823C932.8 839 920.8 851 904.8 851H876ZM888.8 848.6H904.72C919.28 848.6 929.6 838.04 929.6 823C929.6 807.96 919.28 797.4 904.72 797.4H888.8V848.6ZM992.649 854.2L977.209 806.12V849.4L985.849 850.6V851H965.209V850.6L974.809 849.4V791H975.369L993.129 846.28L1011.05 791H1011.61V849.4L1021.21 850.6V851H999.769V850.6L1008.41 849.4V806.92L993.049 854.2H992.649ZM1052.8 851V850.6L1062.4 849.4V796.6L1052.8 795.4V795H1075.2V795.4L1065.6 796.6V849.4L1075.2 850.6V851H1052.8ZM1113.09 851V850.6L1122.69 849.4V797.4H1108.05L1105.57 806.84L1105.17 806.76L1106.61 796.44L1106.77 795H1141.97L1142.13 796.44L1143.57 806.76L1143.17 806.84L1140.69 797.4H1125.89V849.4L1134.53 850.6V851H1113.09ZM1220.54 859.24L1190.3 817L1190.54 816.52L1195.1 818.12H1196.22C1203.74 818.12 1207.9 813.64 1207.9 807.8C1207.9 801.8 1203.26 797.4 1197.02 797.4H1186.38V849.4L1196.46 850.6V851H1173.58V850.6L1183.18 849.4V796.6L1173.58 795.4V795H1197.66C1205.66 795 1211.26 800.2 1211.26 807.64C1211.26 814.84 1205.66 820.12 1197.66 820.12H1196.94L1221.18 858.76L1220.54 859.24ZM1249.2 851V850.6L1258.8 849.4V796.6L1249.2 795.4V795H1271.6V795.4L1262 796.6V849.4L1271.6 850.6V851H1249.2ZM1311.1 851V850.6L1320.7 849.4V825.4L1307.34 796.6L1297.58 795.4V795H1320.46V795.4L1311.02 796.6L1322.62 822.2L1334.14 796.6L1324.7 795.4V795H1346.78V795.4L1337.02 796.6L1323.9 824.68V849.4L1332.54 850.6V851H1311.1ZM1431.47 854.2L1412.91 796.6L1403.23 795.4V795H1425.95V795.4L1416.43 796.6L1432.11 846.2L1447.87 796.6L1438.35 795.4V795H1460.27V795.4L1450.59 796.6L1431.87 854.2H1431.47ZM1483.89 851V850.6L1493.49 849.4V796.6L1483.89 795.4V795H1506.77V795.4L1496.69 796.6V848.6H1519.01L1521.49 839.16L1521.89 839.24L1520.45 849.56L1520.29 851H1483.89ZM1545.09 851V850.6L1554.85 849.4L1573.49 792.6H1573.89L1592.37 849.4L1602.13 850.6V851H1579.41V850.6L1588.93 849.4L1583.57 832.68H1562.93L1557.49 849.4L1567.01 850.6V851H1545.09ZM1563.65 830.28H1582.77L1573.25 800.52L1563.65 830.28ZM1644.42 852.52C1636.26 852.52 1628.1 847.4 1628.1 837.08L1638.18 828.2L1638.42 828.44L1631.46 836.92C1631.46 845.72 1637.94 850.12 1644.42 850.12C1651.94 850.12 1657.54 844.68 1657.54 837.48C1657.54 831.56 1654.18 827 1648.02 824.04L1640.66 820.6C1632.66 816.92 1629.38 811.4 1629.38 806.2C1629.38 798.44 1635.86 792.6 1644.42 792.6C1651.94 792.6 1658.98 797.32 1659.3 807L1650.58 814.2L1650.34 813.96L1656.34 806.92C1655.94 798.92 1650.26 795 1644.42 795C1637.46 795 1632.26 799.8 1632.26 806.2C1632.26 810.28 1634.9 814.68 1641.78 817.64L1649.22 821C1656.66 824.28 1660.82 830.12 1660.82 837.24C1660.82 845.96 1653.78 852.52 1644.42 852.52ZM1724.85 852.6C1707.73 852.6 1694.85 839.72 1694.85 822.6C1694.85 805.48 1707.73 792.6 1724.85 792.6C1741.97 792.6 1754.85 805.48 1754.85 822.6C1754.85 839.72 1741.97 852.6 1724.85 852.6ZM1724.85 850.2C1740.45 850.2 1751.49 838.76 1751.49 822.6C1751.49 806.44 1740.45 795 1724.85 795C1709.25 795 1698.21 806.44 1698.21 822.6C1698.21 838.76 1709.25 850.2 1724.85 850.2ZM1807.88 854.2L1789.32 796.6L1779.64 795.4V795H1802.36V795.4L1792.84 796.6L1808.52 846.2L1824.28 796.6L1814.76 795.4V795H1836.68V795.4L1827 796.6L1808.28 854.2H1807.88ZM1849.17 867L1848.77 866.84L1857.89 851.48C1857.17 851.08 1856.69 850.28 1856.69 849.4C1856.69 848.12 1857.81 847 1859.09 847C1860.37 847 1861.49 848.12 1861.49 849.4C1861.49 849.96 1861.33 850.44 1860.77 851.24L1849.17 867ZM1959.37 854.2L1943.93 806.12V849.4L1952.57 850.6V851H1931.93V850.6L1941.53 849.4V791H1942.09L1959.85 846.28L1977.77 791H1978.33V849.4L1987.93 850.6V851H1966.49V850.6L1975.13 849.4V806.92L1959.77 854.2H1959.37ZM2010.72 851V850.6L2020.48 849.4L2039.12 792.6H2039.52L2058 849.4L2067.76 850.6V851H2045.04V850.6L2054.56 849.4L2049.2 832.68H2028.56L2023.12 849.4L2032.64 850.6V851H2010.72ZM2029.28 830.28H2048.4L2038.88 800.52L2029.28 830.28ZM2137.72 859.24L2108.28 817.88L2125.48 796.6L2116.2 795.4V795H2138.52V795.4L2128.6 796.6L2112.04 816.92L2138.36 858.76L2137.72 859.24ZM2090.92 851V850.6L2100.52 849.4V796.6L2090.92 795.4V795H2113.32V795.4L2103.72 796.6V849.4L2113.32 850.6V851H2090.92ZM2185.28 852.52C2177.12 852.52 2168.96 847.4 2168.96 837.08L2179.04 828.2L2179.28 828.44L2172.32 836.92C2172.32 845.72 2178.8 850.12 2185.28 850.12C2192.8 850.12 2198.4 844.68 2198.4 837.48C2198.4 831.56 2195.04 827 2188.88 824.04L2181.52 820.6C2173.52 816.92 2170.24 811.4 2170.24 806.2C2170.24 798.44 2176.72 792.6 2185.28 792.6C2192.8 792.6 2199.84 797.32 2200.16 807L2191.44 814.2L2191.2 813.96L2197.2 806.92C2196.8 798.92 2191.12 795 2185.28 795C2178.32 795 2173.12 799.8 2173.12 806.2C2173.12 810.28 2175.76 814.68 2182.64 817.64L2190.08 821C2197.52 824.28 2201.68 830.12 2201.68 837.24C2201.68 845.96 2194.64 852.52 2185.28 852.52ZM2236.47 851V850.6L2246.07 849.4V796.6L2236.47 795.4V795H2258.87V795.4L2249.27 796.6V849.4L2258.87 850.6V851H2236.47ZM2317.88 854.2L2302.44 806.12V849.4L2311.08 850.6V851H2290.44V850.6L2300.04 849.4V791H2300.6L2318.36 846.28L2336.28 791H2336.84V849.4L2346.44 850.6V851H2325V850.6L2333.64 849.4V806.92L2318.28 854.2H2317.88ZM2437.93 852.52C2429.77 852.52 2421.61 847.4 2421.61 837.08L2431.69 828.2L2431.93 828.44L2424.97 836.92C2424.97 845.72 2431.45 850.12 2437.93 850.12C2445.45 850.12 2451.05 844.68 2451.05 837.48C2451.05 831.56 2447.69 827 2441.53 824.04L2434.17 820.6C2426.17 816.92 2422.89 811.4 2422.89 806.2C2422.89 798.44 2429.37 792.6 2437.93 792.6C2445.45 792.6 2452.49 797.32 2452.81 807L2444.09 814.2L2443.85 813.96L2449.85 806.92C2449.45 798.92 2443.77 795 2437.93 795C2430.97 795 2425.77 799.8 2425.77 806.2C2425.77 810.28 2428.41 814.68 2435.29 817.64L2442.73 821C2450.17 824.28 2454.33 830.12 2454.33 837.24C2454.33 845.96 2447.29 852.52 2437.93 852.52ZM2515.69 851V850.6L2524.33 849.4V822.6H2501.93V849.4L2510.57 850.6V851H2489.13V850.6L2498.73 849.4V796.6L2489.13 795.4V795H2510.57V795.4L2501.93 796.6V820.2H2524.33V796.6L2515.69 795.4V795H2537.13V795.4L2527.53 796.6V849.4L2537.13 850.6V851H2515.69ZM2615.93 859.24L2586.49 817.88L2603.69 796.6L2594.41 795.4V795H2616.73V795.4L2606.81 796.6L2590.25 816.92L2616.57 858.76L2615.93 859.24ZM2569.13 851V850.6L2578.73 849.4V796.6L2569.13 795.4V795H2591.53V795.4L2581.93 796.6V849.4L2591.53 850.6V851H2569.13ZM2635.56 851V850.6L2645.32 849.4L2663.96 792.6H2664.36L2682.84 849.4L2692.6 850.6V851H2669.88V850.6L2679.4 849.4L2674.04 832.68H2653.4L2647.96 849.4L2657.48 850.6V851H2635.56ZM2654.12 830.28H2673.24L2663.72 800.52L2654.12 830.28ZM2762.73 859.24L2732.49 817L2732.73 816.52L2737.29 818.12H2738.41C2745.93 818.12 2750.09 813.64 2750.09 807.8C2750.09 801.8 2745.45 797.4 2739.21 797.4H2728.57V849.4L2738.65 850.6V851H2715.77V850.6L2725.37 849.4V796.6L2715.77 795.4V795H2739.85C2747.85 795 2753.45 800.2 2753.45 807.64C2753.45 814.84 2747.85 820.12 2739.85 820.12H2739.13L2763.37 858.76L2762.73 859.24ZM2791.39 851V850.6L2800.99 849.4V796.6L2791.39 795.4V795H2814.27V795.4L2804.19 796.6V848.6H2826.51L2828.99 839.16L2829.39 839.24L2827.95 849.56L2827.79 851H2791.39ZM2852.59 851V850.6L2862.35 849.4L2880.99 792.6H2881.39L2899.87 849.4L2909.63 850.6V851H2886.91V850.6L2896.43 849.4L2891.07 832.68H2870.43L2864.99 849.4L2874.51 850.6V851H2852.59ZM2871.15 830.28H2890.27L2880.75 800.52L2871.15 830.28ZM2935.51 851V850.6L2945.11 849.4V797.4H2930.47L2927.99 806.84L2927.59 806.76L2929.03 796.44L2929.19 795H2964.39L2964.55 796.44L2965.99 806.76L2965.59 806.84L2963.11 797.4H2948.31V849.4L2956.95 850.6V851H2935.51ZM950.071 966.2L934.631 918.12V961.4L943.271 962.6V963H922.631V962.6L932.231 961.4V903H932.791L950.551 958.28L968.471 903H969.031V961.4L978.631 962.6V963H957.191V962.6L965.831 961.4V918.92L950.471 966.2H950.071ZM1010.22 963V962.6L1019.82 961.4V908.6L1010.22 907.4V907H1032.62V907.4L1023.02 908.6V961.4L1032.62 962.6V963H1010.22ZM1095.39 964.6C1078.27 964.6 1065.39 951.72 1065.39 934.6C1065.39 917.48 1078.27 904.6 1095.39 904.6C1107.95 904.6 1118.27 911.56 1122.83 922.04L1114.91 932.12L1114.59 932.04L1119.71 922.68C1115.79 913.24 1106.75 907 1095.39 907C1079.79 907 1068.75 918.44 1068.75 934.6C1068.75 950.76 1079.79 962.2 1095.39 962.2C1107.23 962.2 1116.43 955.64 1120.19 945.4V941.16L1120.51 941.08L1123.23 946.12C1118.91 957.16 1108.35 964.6 1095.39 964.6ZM1181.78 963V962.6L1190.42 961.4V934.6H1168.02V961.4L1176.66 962.6V963H1155.22V962.6L1164.82 961.4V908.6L1155.22 907.4V907H1176.66V907.4L1168.02 908.6V932.2H1190.42V908.6L1181.78 907.4V907H1203.22V907.4L1193.62 908.6V961.4L1203.22 962.6V963H1181.78ZM1226.42 963V962.6L1236.18 961.4L1254.82 904.6H1255.22L1273.7 961.4L1283.46 962.6V963H1260.74V962.6L1270.26 961.4L1264.9 944.68H1244.26L1238.82 961.4L1248.34 962.6V963H1226.42ZM1244.98 942.28H1264.1L1254.58 912.52L1244.98 942.28ZM1333.11 941.88L1330.15 934.44H1319.43V960.6H1342.23L1343.43 951H1343.83V963H1306.63V962.6L1316.23 961.4V908.6L1306.63 907.4V907H1343.03V919H1342.63L1341.43 909.4H1319.43V932.2H1330.15L1333.11 924.76L1333.51 924.84L1331.67 933.08V933.56L1333.51 941.8L1333.11 941.88ZM1378.66 963V962.6L1388.26 961.4V908.6L1378.66 907.4V907H1401.54V907.4L1391.46 908.6V960.6H1413.78L1416.26 951.16L1416.66 951.24L1415.22 961.56L1415.06 963H1378.66ZM1489.44 963V962.6L1499.04 961.4V908.6L1489.44 907.4V907H1518.24C1534.24 907 1546.24 919 1546.24 935C1546.24 951 1534.24 963 1518.24 963H1489.44ZM1502.24 960.6H1518.16C1532.72 960.6 1543.04 950.04 1543.04 935C1543.04 919.96 1532.72 909.4 1518.16 909.4H1502.24V960.6ZM1609.85 964.6C1592.73 964.6 1579.85 951.72 1579.85 934.6C1579.85 917.48 1592.73 904.6 1609.85 904.6C1626.97 904.6 1639.85 917.48 1639.85 934.6C1639.85 951.72 1626.97 964.6 1609.85 964.6ZM1609.85 962.2C1625.45 962.2 1636.49 950.76 1636.49 934.6C1636.49 918.44 1625.45 907 1609.85 907C1594.25 907 1583.21 918.44 1583.21 934.6C1583.21 950.76 1594.25 962.2 1609.85 962.2ZM1711.04 967L1684.24 913.96V961.4L1693.84 962.6V963H1672.24V962.6L1681.84 961.4V903H1682.24L1709.04 956.04V908.6L1699.44 907.4V907H1721.04V907.4L1711.44 908.6V967H1711.04ZM1771.76 964.52C1763.6 964.52 1755.44 959.4 1755.44 949.08L1765.52 940.2L1765.76 940.44L1758.8 948.92C1758.8 957.72 1765.28 962.12 1771.76 962.12C1779.28 962.12 1784.88 956.68 1784.88 949.48C1784.88 943.56 1781.52 939 1775.36 936.04L1768 932.6C1760 928.92 1756.72 923.4 1756.72 918.2C1756.72 910.44 1763.2 904.6 1771.76 904.6C1779.28 904.6 1786.32 909.32 1786.64 919L1777.92 926.2L1777.68 925.96L1783.68 918.92C1783.28 910.92 1777.6 907 1771.76 907C1764.8 907 1759.6 911.8 1759.6 918.2C1759.6 922.28 1762.24 926.68 1769.12 929.64L1776.56 933C1784 936.28 1788.16 942.12 1788.16 949.24C1788.16 957.96 1781.12 964.52 1771.76 964.52ZM1869.75 971.24L1840.31 929.88L1857.51 908.6L1848.23 907.4V907H1870.55V907.4L1860.63 908.6L1844.07 928.92L1870.39 970.76L1869.75 971.24ZM1822.95 963V962.6L1832.55 961.4V908.6L1822.95 907.4V907H1845.35V907.4L1835.75 908.6V961.4L1845.35 962.6V963H1822.95ZM1928.21 964.6C1911.09 964.6 1898.21 951.72 1898.21 934.6C1898.21 917.48 1911.09 904.6 1928.21 904.6C1945.33 904.6 1958.21 917.48 1958.21 934.6C1958.21 951.72 1945.33 964.6 1928.21 964.6ZM1928.21 962.2C1943.81 962.2 1954.85 950.76 1954.85 934.6C1954.85 918.44 1943.81 907 1928.21 907C1912.61 907 1901.57 918.44 1901.57 934.6C1901.57 950.76 1912.61 962.2 1928.21 962.2ZM1991 963V962.6L2000.6 961.4V908.6L1991 907.4V907H2013.4V907.4L2003.8 908.6V961.4L2013.4 962.6V963H1991ZM2037.45 979L2037.05 978.84L2046.18 963.48C2045.46 963.08 2044.98 962.28 2044.98 961.4C2044.98 960.12 2046.1 959 2047.38 959C2048.66 959 2049.78 960.12 2049.78 961.4C2049.78 961.96 2049.62 962.44 2049.06 963.24L2037.45 979ZM2120.61 963V962.6L2130.21 961.4V908.6L2120.61 907.4V907H2143.49V907.4L2133.41 908.6V960.6H2155.73L2158.21 951.16L2158.61 951.24L2157.17 961.56L2157.01 963H2120.61ZM2217.09 941.88L2214.13 934.44H2203.41V960.6H2226.21L2227.41 951H2227.81V963H2190.61V962.6L2200.21 961.4V908.6L2190.61 907.4V907H2227.01V919H2226.61L2225.41 909.4H2203.41V932.2H2214.13L2217.09 924.76L2217.49 924.84L2215.65 933.08V933.56L2217.49 941.8L2217.09 941.88ZM2282.88 966.2L2264.32 908.6L2254.64 907.4V907H2277.36V907.4L2267.84 908.6L2283.52 958.2L2299.28 908.6L2289.76 907.4V907H2311.68V907.4L2302 908.6L2283.28 966.2H2282.88ZM2421.87 971.24L2391.63 929L2391.87 928.52L2396.43 930.12H2397.55C2405.07 930.12 2409.23 925.64 2409.23 919.8C2409.23 913.8 2404.59 909.4 2398.35 909.4H2387.71V961.4L2397.79 962.6V963H2374.91V962.6L2384.51 961.4V908.6L2374.91 907.4V907H2398.99C2406.99 907 2412.59 912.2 2412.59 919.64C2412.59 926.84 2406.99 932.12 2398.99 932.12H2398.27L2422.51 970.76L2421.87 971.24ZM2481.33 964.6C2464.21 964.6 2451.33 951.72 2451.33 934.6C2451.33 917.48 2464.21 904.6 2481.33 904.6C2498.45 904.6 2511.33 917.48 2511.33 934.6C2511.33 951.72 2498.45 964.6 2481.33 964.6ZM2481.33 962.2C2496.93 962.2 2507.97 950.76 2507.97 934.6C2507.97 918.44 2496.93 907 2481.33 907C2465.73 907 2454.69 918.44 2454.69 934.6C2454.69 950.76 2465.73 962.2 2481.33 962.2ZM2571.17 966.2L2555.73 918.12V961.4L2564.37 962.6V963H2543.73V962.6L2553.33 961.4V903H2553.89L2571.65 958.28L2589.57 903H2590.13V961.4L2599.73 962.6V963H2578.29V962.6L2586.93 961.4V918.92L2571.57 966.2H2571.17ZM2622.51 963V962.6L2632.27 961.4L2650.91 904.6H2651.31L2669.79 961.4L2679.55 962.6V963H2656.83V962.6L2666.35 961.4L2660.99 944.68H2640.35L2634.91 961.4L2644.43 962.6V963H2622.51ZM2641.07 942.28H2660.19L2650.67 912.52L2641.07 942.28ZM2741.12 967L2714.32 913.96V961.4L2723.92 962.6V963H2702.32V962.6L2711.92 961.4V903H2712.32L2739.12 956.04V908.6L2729.52 907.4V907H2751.12V907.4L2741.52 908.6V967H2741.12ZM2813.52 964.6C2796.4 964.6 2783.52 951.72 2783.52 934.6C2783.52 917.48 2796.4 904.6 2813.52 904.6C2830.64 904.6 2843.52 917.48 2843.52 934.6C2843.52 951.72 2830.64 964.6 2813.52 964.6ZM2813.52 962.2C2829.12 962.2 2840.16 950.76 2840.16 934.6C2840.16 918.44 2829.12 907 2813.52 907C2797.92 907 2786.88 918.44 2786.88 934.6C2786.88 950.76 2797.92 962.2 2813.52 962.2ZM2896.55 966.2L2877.99 908.6L2868.31 907.4V907H2891.03V907.4L2881.51 908.6L2897.19 958.2L2912.95 908.6L2903.43 907.4V907H2925.35V907.4L2915.67 908.6L2896.95 966.2H2896.55Z" fill="#E3E1D3"/>
<path d="M1674.14 1070H1671.5C1671.34 1069.24 1671.07 1068.57 1670.68 1068C1670.29 1067.42 1669.82 1066.94 1669.27 1066.55C1668.72 1066.15 1668.12 1065.85 1667.45 1065.65C1666.78 1065.45 1666.09 1065.36 1665.36 1065.36C1664.04 1065.36 1662.84 1065.69 1661.77 1066.36C1660.71 1067.02 1659.86 1068.01 1659.22 1069.31C1658.6 1070.61 1658.29 1072.2 1658.29 1074.09C1658.29 1075.98 1658.6 1077.57 1659.22 1078.87C1659.86 1080.17 1660.71 1081.16 1661.77 1081.83C1662.84 1082.49 1664.04 1082.83 1665.36 1082.83C1666.09 1082.83 1666.78 1082.73 1667.45 1082.53C1668.12 1082.33 1668.72 1082.03 1669.27 1081.64C1669.82 1081.25 1670.29 1080.76 1670.68 1080.18C1671.07 1079.6 1671.34 1078.93 1671.5 1078.18H1674.14C1673.94 1079.3 1673.58 1080.29 1673.05 1081.18C1672.53 1082.06 1671.87 1082.81 1671.09 1083.42C1670.31 1084.03 1669.43 1084.5 1668.46 1084.82C1667.5 1085.14 1666.46 1085.3 1665.36 1085.3C1663.5 1085.3 1661.85 1084.84 1660.4 1083.93C1658.95 1083.03 1657.81 1081.73 1656.98 1080.06C1656.15 1078.38 1655.73 1076.39 1655.73 1074.09C1655.73 1071.79 1656.15 1069.8 1656.98 1068.12C1657.81 1066.45 1658.95 1065.16 1660.4 1064.25C1661.85 1063.34 1663.5 1062.88 1665.36 1062.88C1666.46 1062.88 1667.5 1063.04 1668.46 1063.36C1669.43 1063.68 1670.31 1064.15 1671.09 1064.77C1671.87 1065.38 1672.53 1066.13 1673.05 1067.01C1673.58 1067.88 1673.94 1068.88 1674.14 1070ZM1711.82 1074.09C1711.82 1076.39 1711.4 1078.38 1710.57 1080.06C1709.74 1081.73 1708.6 1083.03 1707.15 1083.93C1705.7 1084.84 1704.05 1085.3 1702.19 1085.3C1700.33 1085.3 1698.67 1084.84 1697.22 1083.93C1695.77 1083.03 1694.63 1081.73 1693.8 1080.06C1692.97 1078.38 1692.56 1076.39 1692.56 1074.09C1692.56 1071.79 1692.97 1069.8 1693.8 1068.12C1694.63 1066.45 1695.77 1065.16 1697.22 1064.25C1698.67 1063.34 1700.33 1062.88 1702.19 1062.88C1704.05 1062.88 1705.7 1063.34 1707.15 1064.25C1708.6 1065.16 1709.74 1066.45 1710.57 1068.12C1711.4 1069.8 1711.82 1071.79 1711.82 1074.09ZM1709.26 1074.09C1709.26 1072.2 1708.94 1070.61 1708.31 1069.31C1707.69 1068.01 1706.84 1067.02 1705.77 1066.36C1704.7 1065.69 1703.51 1065.36 1702.19 1065.36C1700.87 1065.36 1699.67 1065.69 1698.6 1066.36C1697.53 1067.02 1696.68 1068.01 1696.05 1069.31C1695.43 1070.61 1695.11 1072.2 1695.11 1074.09C1695.11 1075.98 1695.43 1077.57 1696.05 1078.87C1696.68 1080.17 1697.53 1081.16 1698.6 1081.83C1699.67 1082.49 1700.87 1082.83 1702.19 1082.83C1703.51 1082.83 1704.7 1082.49 1705.77 1081.83C1706.84 1081.16 1707.69 1080.17 1708.31 1078.87C1708.94 1077.57 1709.26 1075.98 1709.26 1074.09ZM1743.19 1068.64C1743.06 1067.56 1742.55 1066.72 1741.64 1066.12C1740.73 1065.53 1739.61 1065.23 1738.29 1065.23C1737.33 1065.23 1736.48 1065.38 1735.76 1065.7C1735.04 1066.01 1734.48 1066.44 1734.07 1066.99C1733.67 1067.53 1733.48 1068.15 1733.48 1068.85C1733.48 1069.43 1733.61 1069.93 1733.89 1070.35C1734.18 1070.76 1734.54 1071.11 1734.98 1071.38C1735.42 1071.65 1735.88 1071.88 1736.36 1072.06C1736.85 1072.23 1737.29 1072.37 1737.69 1072.47L1739.91 1073.07C1740.48 1073.22 1741.11 1073.42 1741.81 1073.69C1742.51 1073.95 1743.18 1074.31 1743.82 1074.76C1744.47 1075.21 1745 1075.78 1745.42 1076.49C1745.84 1077.19 1746.05 1078.05 1746.05 1079.08C1746.05 1080.26 1745.74 1081.32 1745.12 1082.27C1744.51 1083.22 1743.61 1083.98 1742.44 1084.54C1741.26 1085.1 1739.84 1085.38 1738.16 1085.38C1736.6 1085.38 1735.25 1085.13 1734.1 1084.63C1732.97 1084.12 1732.07 1083.42 1731.42 1082.52C1730.77 1081.62 1730.41 1080.57 1730.32 1079.38H1733.05C1733.12 1080.2 1733.4 1080.88 1733.88 1081.42C1734.37 1081.95 1734.99 1082.35 1735.73 1082.61C1736.49 1082.87 1737.3 1083 1738.16 1083C1739.17 1083 1740.08 1082.83 1740.88 1082.51C1741.68 1082.17 1742.32 1081.71 1742.79 1081.12C1743.26 1080.53 1743.49 1079.83 1743.49 1079.03C1743.49 1078.31 1743.29 1077.72 1742.88 1077.27C1742.48 1076.81 1741.95 1076.44 1741.29 1076.16C1740.62 1075.87 1739.91 1075.62 1739.14 1075.41L1736.46 1074.64C1734.75 1074.15 1733.41 1073.46 1732.41 1072.55C1731.42 1071.64 1730.92 1070.45 1730.92 1068.98C1730.92 1067.76 1731.25 1066.69 1731.91 1065.78C1732.58 1064.87 1733.47 1064.15 1734.59 1063.65C1735.72 1063.14 1736.98 1062.88 1738.38 1062.88C1739.78 1062.88 1741.03 1063.14 1742.13 1063.64C1743.22 1064.14 1744.09 1064.82 1744.73 1065.69C1745.37 1066.55 1745.71 1067.54 1745.75 1068.64H1743.19ZM1764.2 1065.53V1063.18H1780.56V1065.53H1773.7V1085H1771.06V1065.53H1764.2ZM1813.96 1063.18H1816.6V1077.63C1816.6 1079.12 1816.25 1080.45 1815.54 1081.62C1814.85 1082.79 1813.86 1083.71 1812.59 1084.38C1811.32 1085.05 1809.83 1085.38 1808.12 1085.38C1806.41 1085.38 1804.92 1085.05 1803.64 1084.38C1802.37 1083.71 1801.39 1082.79 1800.68 1081.62C1799.99 1080.45 1799.64 1079.12 1799.64 1077.63V1063.18H1802.28V1077.41C1802.28 1078.48 1802.52 1079.43 1802.98 1080.26C1803.45 1081.08 1804.12 1081.73 1804.99 1082.21C1805.86 1082.68 1806.9 1082.91 1808.12 1082.91C1809.33 1082.91 1810.38 1082.68 1811.25 1082.21C1812.12 1081.73 1812.79 1081.08 1813.25 1080.26C1813.72 1079.43 1813.96 1078.48 1813.96 1077.41V1063.18ZM1836.88 1063.18H1840.03L1847.44 1081.29H1847.7L1855.11 1063.18H1858.27V1085H1855.8V1068.42H1855.58L1848.76 1085H1846.38L1839.56 1068.42H1839.35V1085H1836.88V1063.18ZM1878.56 1085V1063.18H1891.73V1065.53H1881.21V1072.9H1891.05V1075.24H1881.21V1082.66H1891.9V1085H1878.56ZM1941.67 1085H1934.93V1063.18H1941.96C1944.08 1063.18 1945.89 1063.62 1947.4 1064.49C1948.9 1065.36 1950.06 1066.61 1950.86 1068.23C1951.66 1069.85 1952.06 1071.79 1952.06 1074.05C1952.06 1076.32 1951.66 1078.28 1950.85 1079.92C1950.04 1081.55 1948.86 1082.81 1947.31 1083.69C1945.76 1084.56 1943.88 1085 1941.67 1085ZM1937.57 1082.66H1941.49C1943.3 1082.66 1944.79 1082.31 1945.98 1081.61C1947.17 1080.92 1948.05 1079.93 1948.63 1078.64C1949.21 1077.35 1949.51 1075.82 1949.51 1074.05C1949.51 1072.29 1949.22 1070.77 1948.64 1069.5C1948.07 1068.22 1947.21 1067.24 1946.06 1066.56C1944.92 1065.87 1943.5 1065.53 1941.79 1065.53H1937.57V1082.66ZM1971.49 1085V1063.18H1984.66V1065.53H1974.14V1072.9H1983.98V1075.24H1974.14V1082.66H1984.83V1085H1971.49ZM2016.36 1068.64C2016.23 1067.56 2015.71 1066.72 2014.8 1066.12C2013.89 1065.53 2012.78 1065.23 2011.46 1065.23C2010.49 1065.23 2009.64 1065.38 2008.92 1065.7C2008.2 1066.01 2007.64 1066.44 2007.24 1066.99C2006.84 1067.53 2006.64 1068.15 2006.64 1068.85C2006.64 1069.43 2006.78 1069.93 2007.06 1070.35C2007.34 1070.76 2007.7 1071.11 2008.14 1071.38C2008.58 1071.65 2009.04 1071.88 2009.53 1072.06C2010.01 1072.23 2010.45 1072.37 2010.86 1072.47L2013.07 1073.07C2013.64 1073.22 2014.28 1073.42 2014.97 1073.69C2015.67 1073.95 2016.35 1074.31 2016.98 1074.76C2017.63 1075.21 2018.16 1075.78 2018.58 1076.49C2019 1077.19 2019.21 1078.05 2019.21 1079.08C2019.21 1080.26 2018.9 1081.32 2018.28 1082.27C2017.67 1083.22 2016.78 1083.98 2015.6 1084.54C2014.43 1085.1 2013 1085.38 2011.33 1085.38C2009.77 1085.38 2008.41 1085.13 2007.27 1084.63C2006.13 1084.12 2005.24 1083.42 2004.58 1082.52C2003.94 1081.62 2003.57 1080.57 2003.49 1079.38H2006.21C2006.29 1080.2 2006.56 1080.88 2007.05 1081.42C2007.54 1081.95 2008.15 1082.35 2008.9 1082.61C2009.65 1082.87 2010.46 1083 2011.33 1083C2012.34 1083 2013.24 1082.83 2014.04 1082.51C2014.85 1082.17 2015.48 1081.71 2015.95 1081.12C2016.42 1080.53 2016.65 1079.83 2016.65 1079.03C2016.65 1078.31 2016.45 1077.72 2016.05 1077.27C2015.64 1076.81 2015.11 1076.44 2014.45 1076.16C2013.79 1075.87 2013.07 1075.62 2012.31 1075.41L2009.62 1074.64C2007.92 1074.15 2006.57 1073.46 2005.57 1072.55C2004.58 1071.64 2004.08 1070.45 2004.08 1068.98C2004.08 1067.76 2004.41 1066.69 2005.07 1065.78C2005.74 1064.87 2006.64 1064.15 2007.76 1063.65C2008.89 1063.14 2010.15 1062.88 2011.54 1062.88C2012.95 1062.88 2014.2 1063.14 2015.29 1063.64C2016.38 1064.14 2017.25 1064.82 2017.89 1065.69C2018.54 1066.55 2018.88 1067.54 2018.91 1068.64H2016.36ZM2041.2 1063.18V1085H2038.56V1063.18H2041.2ZM2070.36 1085.3C2068.43 1085.3 2066.73 1084.84 2065.27 1083.93C2063.81 1083.03 2062.67 1081.73 2061.86 1080.06C2061.05 1078.38 2060.64 1076.39 2060.64 1074.09C2060.64 1072.37 2060.88 1070.81 2061.36 1069.44C2061.83 1068.05 2062.5 1066.87 2063.36 1065.9C2064.23 1064.93 2065.24 1064.18 2066.42 1063.66C2067.6 1063.14 2068.88 1062.88 2070.27 1062.88C2071.42 1062.88 2072.5 1063.06 2073.51 1063.41C2074.52 1063.75 2075.43 1064.23 2076.23 1064.87C2077.04 1065.49 2077.71 1066.24 2078.24 1067.11C2078.78 1067.98 2079.15 1068.94 2079.35 1070H2076.62C2076.4 1069.28 2076.1 1068.64 2075.71 1068.07C2075.32 1067.5 2074.85 1067.01 2074.3 1066.6C2073.75 1066.2 2073.14 1065.89 2072.47 1065.67C2071.79 1065.46 2071.06 1065.36 2070.27 1065.36C2068.98 1065.36 2067.8 1065.69 2066.73 1066.36C2065.65 1067.02 2064.8 1068.01 2064.16 1069.31C2063.52 1070.61 2063.2 1072.2 2063.2 1074.09C2063.2 1075.98 2063.52 1077.57 2064.15 1078.87C2064.78 1080.17 2065.64 1081.16 2066.71 1081.83C2067.79 1082.49 2069.01 1082.83 2070.36 1082.83C2071.66 1082.83 2072.8 1082.54 2073.78 1081.97C2074.77 1081.4 2075.54 1080.61 2076.09 1079.61C2076.64 1078.6 2076.92 1077.45 2076.92 1076.16L2077.26 1076.43H2070.95V1074.09H2079.48V1085H2077.26L2076.94 1082.34H2076.84C2076 1083.29 2075.08 1084.02 2074.05 1084.53C2073.03 1085.04 2071.8 1085.3 2070.36 1085.3ZM2116.3 1063.18V1085H2113.74L2101.85 1067.87H2101.64V1085H2098.99V1063.18H2101.55L2113.48 1080.36H2113.7V1063.18H2116.3ZM2136.58 1085V1063.18H2149.75V1065.53H2139.22V1072.9H2149.07V1075.24H2139.22V1082.66H2149.92V1085H2136.58ZM2169.51 1085V1063.18H2176.88C2178.59 1063.18 2179.99 1063.47 2181.08 1064.06C2182.18 1064.63 2182.99 1065.42 2183.51 1066.43C2184.04 1067.44 2184.3 1068.59 2184.3 1069.87C2184.3 1071.16 2184.04 1072.3 2183.51 1073.29C2182.99 1074.29 2182.18 1075.07 2181.09 1075.64C2180.01 1076.2 2178.62 1076.48 2176.93 1076.48H2170.96V1074.09H2176.84C2178.01 1074.09 2178.94 1073.92 2179.65 1073.58C2180.37 1073.24 2180.89 1072.76 2181.21 1072.13C2181.54 1071.5 2181.7 1070.75 2181.7 1069.87C2181.7 1069 2181.54 1068.24 2181.21 1067.58C2180.88 1066.93 2180.36 1066.42 2179.64 1066.07C2178.93 1065.71 2177.98 1065.53 2176.8 1065.53H2172.15V1085H2169.51ZM2179.78 1075.2L2185.15 1085H2182.08L2176.8 1075.2H2179.78Z" fill="#E3E1D3"/>
<path d="M1383.64 1190.52C1375.48 1190.52 1367.32 1185.4 1367.32 1175.08L1377.4 1166.2L1377.64 1166.44L1370.68 1174.92C1370.68 1183.72 1377.16 1188.12 1383.64 1188.12C1391.16 1188.12 1396.76 1182.68 1396.76 1175.48C1396.76 1169.56 1393.4 1165 1387.24 1162.04L1379.88 1158.6C1371.88 1154.92 1368.6 1149.4 1368.6 1144.2C1368.6 1136.44 1375.08 1130.6 1383.64 1130.6C1391.16 1130.6 1398.2 1135.32 1398.52 1145L1389.8 1152.2L1389.56 1151.96L1395.56 1144.92C1395.16 1136.92 1389.48 1133 1383.64 1133C1376.68 1133 1371.48 1137.8 1371.48 1144.2C1371.48 1148.28 1374.12 1152.68 1381 1155.64L1388.44 1159C1395.88 1162.28 1400.04 1168.12 1400.04 1175.24C1400.04 1183.96 1393 1190.52 1383.64 1190.52ZM1455.07 1192.2L1436.51 1134.6L1426.83 1133.4V1133H1449.55V1133.4L1440.03 1134.6L1455.71 1184.2L1471.47 1134.6L1461.95 1133.4V1133H1483.87V1133.4L1474.19 1134.6L1455.47 1192.2H1455.07ZM1533.96 1167.88L1531 1160.44H1520.28V1186.6H1543.08L1544.28 1177H1544.68V1189H1507.48V1188.6L1517.08 1187.4V1134.6L1507.48 1133.4V1133H1543.88V1145H1543.48L1542.28 1135.4H1520.28V1158.2H1531L1533.96 1150.76L1534.36 1150.84L1532.52 1159.08V1159.56L1534.36 1167.8L1533.96 1167.88ZM1585.44 1189V1188.6L1595.04 1187.4V1135.4H1580.4L1577.92 1144.84L1577.52 1144.76L1578.96 1134.44L1579.12 1133H1614.32L1614.48 1134.44L1615.92 1144.76L1615.52 1144.84L1613.04 1135.4H1598.24V1187.4L1606.88 1188.6V1189H1585.44ZM1645.92 1189V1188.6L1655.52 1187.4V1134.6L1645.92 1133.4V1133H1668.8V1133.4L1658.72 1134.6V1186.6H1681.04L1683.52 1177.16L1683.92 1177.24L1682.48 1187.56L1682.32 1189H1645.92ZM1707.12 1189V1188.6L1716.88 1187.4L1735.52 1130.6H1735.92L1754.4 1187.4L1764.16 1188.6V1189H1741.44V1188.6L1750.96 1187.4L1745.6 1170.68H1724.96L1719.52 1187.4L1729.04 1188.6V1189H1707.12ZM1725.68 1168.28H1744.8L1735.28 1138.52L1725.68 1168.28ZM1825.73 1193L1798.93 1139.96V1187.4L1808.53 1188.6V1189H1786.93V1188.6L1796.53 1187.4V1129H1796.93L1823.73 1182.04V1134.6L1814.13 1133.4V1133H1835.73V1133.4L1826.13 1134.6V1193H1825.73ZM1858.53 1189V1188.6L1868.29 1187.4L1886.93 1130.6H1887.33L1905.81 1187.4L1915.57 1188.6V1189H1892.85V1188.6L1902.37 1187.4L1897.01 1170.68H1876.37L1870.93 1187.4L1880.45 1188.6V1189H1858.53ZM1877.09 1168.28H1896.21L1886.69 1138.52L1877.09 1168.28ZM2025.3 1197.24L1995.06 1155L1995.3 1154.52L1999.86 1156.12H2000.98C2008.5 1156.12 2012.66 1151.64 2012.66 1145.8C2012.66 1139.8 2008.02 1135.4 2001.78 1135.4H1991.14V1187.4L2001.22 1188.6V1189H1978.34V1188.6L1987.94 1187.4V1134.6L1978.34 1133.4V1133H2002.42C2010.42 1133 2016.02 1138.2 2016.02 1145.64C2016.02 1152.84 2010.42 1158.12 2002.42 1158.12H2001.7L2025.94 1196.76L2025.3 1197.24ZM2080.45 1167.88L2077.49 1160.44H2066.77V1186.6H2089.57L2090.77 1177H2091.17V1189H2053.97V1188.6L2063.57 1187.4V1134.6L2053.97 1133.4V1133H2090.37V1145H2089.97L2088.77 1135.4H2066.77V1158.2H2077.49L2080.45 1150.76L2080.85 1150.84L2079.01 1159.08V1159.56L2080.85 1167.8L2080.45 1167.88ZM2145.12 1190.52C2136.96 1190.52 2128.8 1185.4 2128.8 1175.08L2138.88 1166.2L2139.12 1166.44L2132.16 1174.92C2132.16 1183.72 2138.64 1188.12 2145.12 1188.12C2152.64 1188.12 2158.24 1182.68 2158.24 1175.48C2158.24 1169.56 2154.88 1165 2148.72 1162.04L2141.36 1158.6C2133.36 1154.92 2130.08 1149.4 2130.08 1144.2C2130.08 1136.44 2136.56 1130.6 2145.12 1130.6C2152.64 1130.6 2159.68 1135.32 2160 1145L2151.28 1152.2L2151.04 1151.96L2157.04 1144.92C2156.64 1136.92 2150.96 1133 2145.12 1133C2138.16 1133 2132.96 1137.8 2132.96 1144.2C2132.96 1148.28 2135.6 1152.68 2142.48 1155.64L2149.92 1159C2157.36 1162.28 2161.52 1168.12 2161.52 1175.24C2161.52 1183.96 2154.48 1190.52 2145.12 1190.52ZM2222.87 1189V1188.6L2231.51 1187.4V1160.6H2209.11V1187.4L2217.75 1188.6V1189H2196.31V1188.6L2205.91 1187.4V1134.6L2196.31 1133.4V1133H2217.75V1133.4L2209.11 1134.6V1158.2H2231.51V1134.6L2222.87 1133.4V1133H2244.31V1133.4L2234.71 1134.6V1187.4L2244.31 1188.6V1189H2222.87ZM2303.35 1192.2L2287.91 1144.12V1187.4L2296.55 1188.6V1189H2275.91V1188.6L2285.51 1187.4V1129H2286.07L2303.83 1184.28L2321.75 1129H2322.31V1187.4L2331.91 1188.6V1189H2310.47V1188.6L2319.11 1187.4V1144.92L2303.75 1192.2H2303.35ZM2363.5 1189V1188.6L2373.1 1187.4V1134.6L2363.5 1133.4V1133H2385.9V1133.4L2376.3 1134.6V1187.4L2385.9 1188.6V1189H2363.5ZM2417.88 1189V1188.6L2427.48 1187.4V1134.6L2417.88 1133.4V1133H2446.68C2462.68 1133 2474.68 1145 2474.68 1161C2474.68 1177 2462.68 1189 2446.68 1189H2417.88ZM2430.68 1186.6H2446.6C2461.16 1186.6 2471.48 1176.04 2471.48 1161C2471.48 1145.96 2461.16 1135.4 2446.6 1135.4H2430.68V1186.6Z" fill="#E3E1D3"/>
<path d="M1698.64 1289.18H1701.79L1709.21 1307.29H1709.46L1716.88 1289.18H1720.03V1311H1717.56V1294.42H1717.35L1710.53 1311H1708.14L1701.32 1294.42H1701.11V1311H1698.64V1289.18ZM1741.22 1311H1738.45L1746.46 1289.18H1749.19L1757.2 1311H1754.43L1747.91 1292.63H1747.74L1741.22 1311ZM1742.25 1302.48H1753.41V1304.82H1742.25V1302.48ZM1775.6 1311V1289.18H1778.24V1300.01H1778.5L1788.3 1289.18H1791.75L1782.59 1299.03L1791.75 1311H1788.56L1780.97 1300.86L1778.24 1303.93V1311H1775.6ZM1810.17 1311V1289.18H1823.34V1291.53H1812.81V1298.9H1822.66V1301.24H1812.81V1308.66H1823.51V1311H1810.17ZM1852.14 1298.92V1301.26H1842.59V1298.92H1852.14ZM1886.22 1289.18H1888.86V1303.63C1888.86 1305.12 1888.51 1306.45 1887.81 1307.62C1887.11 1308.79 1886.13 1309.71 1884.85 1310.38C1883.58 1311.05 1882.09 1311.38 1880.38 1311.38C1878.67 1311.38 1877.18 1311.05 1875.91 1310.38C1874.63 1309.71 1873.65 1308.79 1872.94 1307.62C1872.25 1306.45 1871.9 1305.12 1871.9 1303.63V1289.18H1874.54V1303.41C1874.54 1304.48 1874.78 1305.43 1875.25 1306.26C1875.71 1307.08 1876.38 1307.73 1877.25 1308.21C1878.12 1308.68 1879.17 1308.91 1880.38 1308.91C1881.59 1308.91 1882.64 1308.68 1883.51 1308.21C1884.39 1307.73 1885.05 1307.08 1885.51 1306.26C1885.98 1305.43 1886.22 1304.48 1886.22 1303.41V1289.18ZM1909.14 1311V1289.18H1916.51C1918.22 1289.18 1919.62 1289.49 1920.71 1290.11C1921.8 1290.72 1922.61 1291.55 1923.13 1292.59C1923.66 1293.63 1923.92 1294.8 1923.92 1296.09C1923.92 1297.37 1923.66 1298.54 1923.13 1299.59C1922.62 1300.64 1921.81 1301.48 1920.73 1302.1C1919.64 1302.72 1918.25 1303.03 1916.55 1303.03H1911.27V1300.69H1916.47C1917.64 1300.69 1918.58 1300.49 1919.29 1300.08C1920 1299.68 1920.51 1299.13 1920.83 1298.44C1921.16 1297.74 1921.32 1296.96 1921.32 1296.09C1921.32 1295.21 1921.16 1294.43 1920.83 1293.74C1920.51 1293.05 1920 1292.51 1919.28 1292.12C1918.56 1291.72 1917.61 1291.53 1916.42 1291.53H1911.78V1311H1909.14ZM1967.51 1311H1964.74L1972.75 1289.18H1975.48L1983.49 1311H1980.72L1974.2 1292.63H1974.03L1967.51 1311ZM1968.53 1302.48H1979.7V1304.82H1968.53V1302.48ZM2001.89 1311V1289.18H2009.26C2010.97 1289.18 2012.37 1289.47 2013.46 1290.06C2014.55 1290.63 2015.36 1291.42 2015.89 1292.43C2016.41 1293.44 2016.68 1294.59 2016.68 1295.87C2016.68 1297.16 2016.41 1298.3 2015.89 1299.29C2015.36 1300.29 2014.56 1301.07 2013.47 1301.64C2012.38 1302.2 2011 1302.48 2009.3 1302.48H2003.34V1300.09H2009.22C2010.38 1300.09 2011.32 1299.92 2012.03 1299.58C2012.75 1299.24 2013.27 1298.76 2013.59 1298.13C2013.91 1297.5 2014.08 1296.75 2014.08 1295.87C2014.08 1295 2013.91 1294.24 2013.59 1293.58C2013.26 1292.93 2012.74 1292.42 2012.02 1292.07C2011.3 1291.71 2010.36 1291.53 2009.18 1291.53H2004.53V1311H2001.89ZM2012.16 1301.2L2017.53 1311H2014.46L2009.18 1301.2H2012.16ZM2034.89 1291.53V1289.18H2051.25V1291.53H2044.39V1311H2041.75V1291.53H2034.89ZM2072.97 1289.18V1311H2070.33V1289.18H2072.97ZM2105.2 1294.64C2105.07 1293.56 2104.55 1292.72 2103.64 1292.12C2102.73 1291.53 2101.62 1291.23 2100.3 1291.23C2099.33 1291.23 2098.49 1291.38 2097.76 1291.7C2097.05 1292.01 2096.48 1292.44 2096.08 1292.99C2095.68 1293.53 2095.48 1294.15 2095.48 1294.85C2095.48 1295.43 2095.62 1295.93 2095.9 1296.35C2096.18 1296.76 2096.54 1297.11 2096.99 1297.38C2097.43 1297.65 2097.89 1297.88 2098.37 1298.06C2098.85 1298.23 2099.3 1298.37 2099.7 1298.47L2101.92 1299.07C2102.49 1299.22 2103.12 1299.42 2103.81 1299.69C2104.52 1299.95 2105.19 1300.31 2105.83 1300.76C2106.47 1301.21 2107.01 1301.78 2107.43 1302.49C2107.84 1303.19 2108.05 1304.05 2108.05 1305.08C2108.05 1306.26 2107.75 1307.32 2107.13 1308.27C2106.52 1309.22 2105.62 1309.98 2104.44 1310.54C2103.27 1311.1 2101.85 1311.38 2100.17 1311.38C2098.61 1311.38 2097.25 1311.13 2096.11 1310.63C2094.98 1310.12 2094.08 1309.42 2093.43 1308.52C2092.78 1307.62 2092.41 1306.57 2092.33 1305.38H2095.06C2095.13 1306.2 2095.4 1306.88 2095.89 1307.42C2096.38 1307.95 2097 1308.35 2097.74 1308.61C2098.49 1308.87 2099.3 1309 2100.17 1309C2101.18 1309 2102.08 1308.83 2102.89 1308.51C2103.69 1308.17 2104.33 1307.71 2104.79 1307.12C2105.26 1306.53 2105.5 1305.83 2105.5 1305.03C2105.5 1304.31 2105.29 1303.72 2104.89 1303.27C2104.49 1302.81 2103.95 1302.44 2103.29 1302.16C2102.63 1301.87 2101.92 1301.62 2101.15 1301.41L2098.47 1300.64C2096.76 1300.15 2095.41 1299.46 2094.42 1298.55C2093.42 1297.64 2092.93 1296.45 2092.93 1294.98C2092.93 1293.76 2093.26 1292.69 2093.92 1291.78C2094.58 1290.87 2095.48 1290.15 2096.6 1289.65C2097.73 1289.14 2098.99 1288.88 2100.38 1288.88C2101.79 1288.88 2103.04 1289.14 2104.13 1289.64C2105.23 1290.14 2106.09 1290.82 2106.73 1291.69C2107.38 1292.55 2107.72 1293.54 2107.76 1294.64H2105.2ZM2126.2 1291.53V1289.18H2142.57V1291.53H2135.71V1311H2133.07V1291.53H2126.2Z" fill="#E3E1D3"/>
<path d="M1328.89 1415V1414.6L1338.49 1413.4V1360.6L1328.89 1359.4V1359H1349.53C1357.93 1359 1363.93 1364.6 1363.93 1372.52C1363.93 1378.04 1360.97 1382.52 1356.49 1384.68C1363.45 1386.12 1368.49 1392.12 1368.49 1399.56C1368.49 1408.6 1361.85 1415 1352.49 1415H1328.89ZM1349.53 1384.2C1355.85 1384.2 1360.57 1379.32 1360.57 1372.76C1360.57 1366.28 1355.85 1361.4 1349.53 1361.4H1341.69V1384.2H1349.53ZM1341.69 1412.6H1352.49C1359.69 1412.6 1365.13 1407 1365.13 1399.48C1365.13 1392.12 1359.69 1386.44 1352.49 1386.44H1341.69V1412.6ZM1427.65 1416.6C1420.45 1416.6 1413.33 1411.4 1413.33 1400.92V1360.6L1403.73 1359.4V1359H1425.17V1359.4L1416.53 1360.6V1400.6C1416.53 1408.36 1421.33 1413.8 1428.13 1413.8C1434.93 1413.8 1439.73 1408.44 1439.73 1400.92V1360.6L1431.09 1359.4V1359H1451.73V1359.4L1442.13 1360.6V1400.6C1442.13 1411.32 1434.85 1416.6 1427.65 1416.6ZM1483.34 1415V1414.6L1492.94 1413.4V1360.6L1483.34 1359.4V1359H1506.22V1359.4L1496.14 1360.6V1412.6H1518.46L1520.94 1403.16L1521.34 1403.24L1519.9 1413.56L1519.74 1415H1483.34ZM1553.34 1415V1414.6L1562.94 1413.4V1360.6L1553.34 1359.4V1359H1582.14C1598.14 1359 1610.14 1371 1610.14 1387C1610.14 1403 1598.14 1415 1582.14 1415H1553.34ZM1566.14 1412.6H1582.06C1596.62 1412.6 1606.94 1402.04 1606.94 1387C1606.94 1371.96 1596.62 1361.4 1582.06 1361.4H1566.14V1412.6ZM1634.15 1415V1414.6L1643.91 1413.4L1662.55 1356.6H1662.95L1681.43 1413.4L1691.19 1414.6V1415H1668.47V1414.6L1677.99 1413.4L1672.63 1396.68H1651.99L1646.55 1413.4L1656.07 1414.6V1415H1634.15ZM1652.71 1394.28H1671.83L1662.31 1364.52L1652.71 1394.28ZM1761.16 1423.24L1731.72 1381.88L1748.92 1360.6L1739.64 1359.4V1359H1761.96V1359.4L1752.04 1360.6L1735.48 1380.92L1761.8 1422.76L1761.16 1423.24ZM1714.36 1415V1414.6L1723.96 1413.4V1360.6L1714.36 1359.4V1359H1736.76V1359.4L1727.16 1360.6V1413.4L1736.76 1414.6V1415H1714.36ZM1819.61 1416.6C1802.49 1416.6 1789.61 1403.72 1789.61 1386.6C1789.61 1369.48 1802.49 1356.6 1819.61 1356.6C1836.73 1356.6 1849.61 1369.48 1849.61 1386.6C1849.61 1403.72 1836.73 1416.6 1819.61 1416.6ZM1819.61 1414.2C1835.21 1414.2 1846.25 1402.76 1846.25 1386.6C1846.25 1370.44 1835.21 1359 1819.61 1359C1804.01 1359 1792.97 1370.44 1792.97 1386.6C1792.97 1402.76 1804.01 1414.2 1819.61 1414.2ZM1902.65 1418.2L1884.09 1360.6L1874.41 1359.4V1359H1897.13V1359.4L1887.61 1360.6L1903.29 1410.2L1919.05 1360.6L1909.53 1359.4V1359H1931.45V1359.4L1921.77 1360.6L1903.05 1418.2H1902.65ZM1944.7 1415V1414.6L1954.46 1413.4L1973.1 1356.6H1973.5L1991.98 1413.4L2001.74 1414.6V1415H1979.02V1414.6L1988.54 1413.4L1983.18 1396.68H1962.54L1957.1 1413.4L1966.62 1414.6V1415H1944.7ZM1963.26 1394.28H1982.38L1972.86 1364.52L1963.26 1394.28ZM2102.92 1419L2076.12 1365.96V1413.4L2085.72 1414.6V1415H2064.12V1414.6L2073.72 1413.4V1355H2074.12L2100.92 1408.04V1360.6L2091.32 1359.4V1359H2112.92V1359.4L2103.32 1360.6V1419H2102.92ZM2135.72 1415V1414.6L2145.48 1413.4L2164.12 1356.6H2164.52L2183 1413.4L2192.76 1414.6V1415H2170.04V1414.6L2179.56 1413.4L2174.2 1396.68H2153.56L2148.12 1413.4L2157.64 1414.6V1415H2135.72ZM2154.28 1394.28H2173.4L2163.88 1364.52L2154.28 1394.28ZM2218.64 1415V1414.6L2228.24 1413.4V1361.4H2213.6L2211.12 1370.84L2210.72 1370.76L2212.16 1360.44L2212.32 1359H2247.52L2247.68 1360.44L2249.12 1370.76L2248.72 1370.84L2246.24 1361.4H2231.44V1413.4L2240.08 1414.6V1415H2218.64ZM2267.12 1415V1414.6L2276.88 1413.4L2295.52 1356.6H2295.92L2314.4 1413.4L2324.16 1414.6V1415H2301.44V1414.6L2310.96 1413.4L2305.6 1396.68H2284.96L2279.52 1413.4L2289.04 1414.6V1415H2267.12ZM2285.68 1394.28H2304.8L2295.28 1364.52L2285.68 1394.28ZM2347.33 1415V1414.6L2356.93 1413.4V1360.6L2347.33 1359.4V1359H2370.21V1359.4L2360.13 1360.6V1412.6H2382.45L2384.93 1403.16L2385.33 1403.24L2383.89 1413.56L2383.73 1415H2347.33ZM2417.33 1415V1414.6L2426.93 1413.4V1360.6L2417.33 1359.4V1359H2439.73V1359.4L2430.13 1360.6V1413.4L2439.73 1414.6V1415H2417.33ZM2462.9 1415V1414.6L2472.66 1413.4L2491.3 1356.6H2491.7L2510.18 1413.4L2519.94 1414.6V1415H2497.22V1414.6L2506.74 1413.4L2501.38 1396.68H2480.74L2475.3 1413.4L2484.82 1414.6V1415H2462.9ZM2481.46 1394.28H2500.58L2491.06 1364.52L2481.46 1394.28Z" fill="#E3E1D3"/>
<path d="M1525.49 1515.18H1528.65L1536.06 1533.29H1536.32L1543.73 1515.18H1546.89V1537H1544.41V1520.42H1544.2L1537.38 1537H1535L1528.18 1520.42H1527.97V1537H1525.49V1515.18ZM1568.08 1537H1565.31L1573.32 1515.18H1576.05L1584.06 1537H1581.29L1574.77 1518.63H1574.6L1568.08 1537ZM1569.1 1528.48H1580.27V1530.82H1569.1V1528.48ZM1602.46 1537V1515.18H1605.1V1526.01H1605.35L1615.16 1515.18H1618.61L1609.45 1525.03L1618.61 1537H1615.41L1607.83 1526.86L1605.1 1529.93V1537H1602.46ZM1637.03 1537V1515.18H1650.19V1517.53H1639.67V1524.9H1649.51V1527.24H1639.67V1534.66H1650.36V1537H1637.03ZM1678.99 1524.92V1527.26H1669.45V1524.92H1678.99ZM1713.07 1515.18H1715.72V1529.63C1715.72 1531.12 1715.36 1532.45 1714.66 1533.62C1713.96 1534.79 1712.98 1535.71 1711.71 1536.38C1710.44 1537.05 1708.95 1537.38 1707.24 1537.38C1705.52 1537.38 1704.03 1537.05 1702.76 1536.38C1701.49 1535.71 1700.5 1534.79 1699.8 1533.62C1699.1 1532.45 1698.76 1531.12 1698.76 1529.63V1515.18H1701.4V1529.41C1701.4 1530.48 1701.63 1531.43 1702.1 1532.26C1702.57 1533.08 1703.24 1533.73 1704.1 1534.21C1704.98 1534.68 1706.02 1534.91 1707.24 1534.91C1708.45 1534.91 1709.49 1534.68 1710.37 1534.21C1711.24 1533.73 1711.91 1533.08 1712.37 1532.26C1712.84 1531.43 1713.07 1530.48 1713.07 1529.41V1515.18ZM1735.99 1537V1515.18H1743.36C1745.08 1515.18 1746.47 1515.49 1747.56 1516.11C1748.66 1516.72 1749.46 1517.55 1749.99 1518.59C1750.52 1519.63 1750.78 1520.8 1750.78 1522.09C1750.78 1523.37 1750.52 1524.54 1749.99 1525.59C1749.47 1526.64 1748.67 1527.48 1747.58 1528.1C1746.5 1528.72 1745.1 1529.03 1743.41 1529.03H1738.12V1526.69H1743.32C1744.49 1526.69 1745.43 1526.49 1746.14 1526.08C1746.85 1525.68 1747.37 1525.13 1747.69 1524.44C1748.02 1523.74 1748.18 1522.96 1748.18 1522.09C1748.18 1521.21 1748.02 1520.43 1747.69 1519.74C1747.37 1519.05 1746.85 1518.51 1746.13 1518.12C1745.42 1517.72 1744.46 1517.53 1743.28 1517.53H1738.63V1537H1735.99ZM1794.37 1537H1791.6L1799.61 1515.18H1802.34L1810.35 1537H1807.58L1801.06 1518.63H1800.89L1794.37 1537ZM1795.39 1528.48H1806.55V1530.82H1795.39V1528.48ZM1828.75 1537V1515.18H1836.12C1837.82 1515.18 1839.22 1515.47 1840.32 1516.06C1841.41 1516.63 1842.22 1517.42 1842.74 1518.43C1843.27 1519.44 1843.53 1520.59 1843.53 1521.87C1843.53 1523.16 1843.27 1524.3 1842.74 1525.29C1842.22 1526.29 1841.41 1527.07 1840.33 1527.64C1839.24 1528.2 1837.85 1528.48 1836.16 1528.48H1830.19V1526.09H1836.08C1837.24 1526.09 1838.18 1525.92 1838.89 1525.58C1839.6 1525.24 1840.12 1524.76 1840.44 1524.13C1840.77 1523.5 1840.93 1522.75 1840.93 1521.87C1840.93 1521 1840.77 1520.24 1840.44 1519.58C1840.12 1518.93 1839.59 1518.42 1838.88 1518.07C1838.16 1517.71 1837.21 1517.53 1836.03 1517.53H1831.39V1537H1828.75ZM1839.02 1527.2L1844.38 1537H1841.32L1836.03 1527.2H1839.02ZM1861.74 1517.53V1515.18H1878.11V1517.53H1871.24V1537H1868.6V1517.53H1861.74ZM1899.83 1515.18V1537H1897.18V1515.18H1899.83ZM1932.05 1520.64C1931.93 1519.56 1931.41 1518.72 1930.5 1518.12C1929.59 1517.53 1928.47 1517.23 1927.15 1517.23C1926.19 1517.23 1925.34 1517.38 1924.62 1517.7C1923.9 1518.01 1923.34 1518.44 1922.94 1518.99C1922.54 1519.53 1922.34 1520.15 1922.34 1520.85C1922.34 1521.43 1922.48 1521.93 1922.75 1522.35C1923.04 1522.76 1923.4 1523.11 1923.84 1523.38C1924.28 1523.65 1924.74 1523.88 1925.23 1524.06C1925.71 1524.23 1926.15 1524.37 1926.56 1524.47L1928.77 1525.07C1929.34 1525.22 1929.97 1525.42 1930.67 1525.69C1931.37 1525.95 1932.04 1526.31 1932.68 1526.76C1933.33 1527.21 1933.86 1527.78 1934.28 1528.49C1934.7 1529.19 1934.91 1530.05 1934.91 1531.08C1934.91 1532.26 1934.6 1533.32 1933.98 1534.27C1933.37 1535.22 1932.48 1535.98 1931.3 1536.54C1930.13 1537.1 1928.7 1537.38 1927.03 1537.38C1925.46 1537.38 1924.11 1537.13 1922.97 1536.63C1921.83 1536.12 1920.94 1535.42 1920.28 1534.52C1919.64 1533.62 1919.27 1532.57 1919.19 1531.38H1921.91C1921.98 1532.2 1922.26 1532.88 1922.74 1533.42C1923.23 1533.95 1923.85 1534.35 1924.6 1534.61C1925.35 1534.87 1926.16 1535 1927.03 1535C1928.03 1535 1928.94 1534.83 1929.74 1534.51C1930.55 1534.17 1931.18 1533.71 1931.65 1533.12C1932.12 1532.53 1932.35 1531.83 1932.35 1531.03C1932.35 1530.31 1932.15 1529.72 1931.75 1529.27C1931.34 1528.81 1930.81 1528.44 1930.15 1528.16C1929.49 1527.87 1928.77 1527.62 1928.01 1527.41L1925.32 1526.64C1923.62 1526.15 1922.27 1525.46 1921.27 1524.55C1920.28 1523.64 1919.78 1522.45 1919.78 1520.98C1919.78 1519.76 1920.11 1518.69 1920.77 1517.78C1921.44 1516.87 1922.33 1516.15 1923.46 1515.65C1924.59 1515.14 1925.85 1514.88 1927.24 1514.88C1928.65 1514.88 1929.9 1515.14 1930.99 1515.64C1932.08 1516.14 1932.95 1516.82 1933.59 1517.69C1934.23 1518.55 1934.58 1519.54 1934.61 1520.64H1932.05ZM1953.06 1517.53V1515.18H1969.42V1517.53H1962.56V1537H1959.92V1517.53H1953.06ZM2012.83 1537H2010.06L2018.08 1515.18H2020.8L2028.81 1537H2026.04L2019.52 1518.63H2019.35L2012.83 1537ZM2013.86 1528.48H2025.02V1530.82H2013.86V1528.48ZM2059.14 1520.64C2059.02 1519.56 2058.5 1518.72 2057.59 1518.12C2056.68 1517.53 2055.56 1517.23 2054.24 1517.23C2053.28 1517.23 2052.43 1517.38 2051.71 1517.7C2050.99 1518.01 2050.43 1518.44 2050.02 1518.99C2049.63 1519.53 2049.43 1520.15 2049.43 1520.85C2049.43 1521.43 2049.57 1521.93 2049.84 1522.35C2050.13 1522.76 2050.49 1523.11 2050.93 1523.38C2051.37 1523.65 2051.83 1523.88 2052.32 1524.06C2052.8 1524.23 2053.24 1524.37 2053.65 1524.47L2055.86 1525.07C2056.43 1525.22 2057.06 1525.42 2057.76 1525.69C2058.46 1525.95 2059.13 1526.31 2059.77 1526.76C2060.42 1527.21 2060.95 1527.78 2061.37 1528.49C2061.79 1529.19 2062 1530.05 2062 1531.08C2062 1532.26 2061.69 1533.32 2061.07 1534.27C2060.46 1535.22 2059.57 1535.98 2058.39 1536.54C2057.22 1537.1 2055.79 1537.38 2054.12 1537.38C2052.55 1537.38 2051.2 1537.13 2050.06 1536.63C2048.92 1536.12 2048.03 1535.42 2047.37 1534.52C2046.73 1533.62 2046.36 1532.57 2046.27 1531.38H2049C2049.07 1532.2 2049.35 1532.88 2049.83 1533.42C2050.32 1533.95 2050.94 1534.35 2051.69 1534.61C2052.44 1534.87 2053.25 1535 2054.12 1535C2055.12 1535 2056.03 1534.83 2056.83 1534.51C2057.63 1534.17 2058.27 1533.71 2058.74 1533.12C2059.21 1532.53 2059.44 1531.83 2059.44 1531.03C2059.44 1530.31 2059.24 1529.72 2058.84 1529.27C2058.43 1528.81 2057.9 1528.44 2057.24 1528.16C2056.58 1527.87 2055.86 1527.62 2055.1 1527.41L2052.41 1526.64C2050.71 1526.15 2049.36 1525.46 2048.36 1524.55C2047.37 1523.64 2046.87 1522.45 2046.87 1520.98C2046.87 1519.76 2047.2 1518.69 2047.86 1517.78C2048.53 1516.87 2049.42 1516.15 2050.55 1515.65C2051.68 1515.14 2052.94 1514.88 2054.33 1514.88C2055.74 1514.88 2056.99 1515.14 2058.08 1515.64C2059.17 1516.14 2060.04 1516.82 2060.68 1517.69C2061.32 1518.55 2061.67 1519.54 2061.7 1520.64H2059.14ZM2093.28 1520.64C2093.15 1519.56 2092.63 1518.72 2091.72 1518.12C2090.81 1517.53 2089.7 1517.23 2088.37 1517.23C2087.41 1517.23 2086.56 1517.38 2085.84 1517.7C2085.12 1518.01 2084.56 1518.44 2084.16 1518.99C2083.76 1519.53 2083.56 1520.15 2083.56 1520.85C2083.56 1521.43 2083.7 1521.93 2083.97 1522.35C2084.26 1522.76 2084.62 1523.11 2085.06 1523.38C2085.5 1523.65 2085.96 1523.88 2086.45 1524.06C2086.93 1524.23 2087.37 1524.37 2087.78 1524.47L2089.99 1525.07C2090.56 1525.22 2091.19 1525.42 2091.89 1525.69C2092.59 1525.95 2093.26 1526.31 2093.9 1526.76C2094.55 1527.21 2095.08 1527.78 2095.5 1528.49C2095.92 1529.19 2096.13 1530.05 2096.13 1531.08C2096.13 1532.26 2095.82 1533.32 2095.2 1534.27C2094.59 1535.22 2093.7 1535.98 2092.52 1536.54C2091.35 1537.1 2089.92 1537.38 2088.25 1537.38C2086.68 1537.38 2085.33 1537.13 2084.19 1536.63C2083.05 1536.12 2082.16 1535.42 2081.5 1534.52C2080.86 1533.62 2080.49 1532.57 2080.41 1531.38H2083.13C2083.2 1532.2 2083.48 1532.88 2083.96 1533.42C2084.45 1533.95 2085.07 1534.35 2085.82 1534.61C2086.57 1534.87 2087.38 1535 2088.25 1535C2089.26 1535 2090.16 1534.83 2090.96 1534.51C2091.77 1534.17 2092.4 1533.71 2092.87 1533.12C2093.34 1532.53 2093.57 1531.83 2093.57 1531.03C2093.57 1530.31 2093.37 1529.72 2092.97 1529.27C2092.56 1528.81 2092.03 1528.44 2091.37 1528.16C2090.71 1527.87 2089.99 1527.62 2089.23 1527.41L2086.54 1526.64C2084.84 1526.15 2083.49 1525.46 2082.49 1524.55C2081.5 1523.64 2081 1522.45 2081 1520.98C2081 1519.76 2081.33 1518.69 2081.99 1517.78C2082.66 1516.87 2083.56 1516.15 2084.68 1515.65C2085.81 1515.14 2087.07 1514.88 2088.46 1514.88C2089.87 1514.88 2091.12 1515.14 2092.21 1515.64C2093.3 1516.14 2094.17 1516.82 2094.81 1517.69C2095.46 1518.55 2095.8 1519.54 2095.83 1520.64H2093.28ZM2118.12 1515.18V1537H2115.47V1515.18H2118.12ZM2150.35 1520.64C2150.22 1519.56 2149.7 1518.72 2148.79 1518.12C2147.88 1517.53 2146.77 1517.23 2145.44 1517.23C2144.48 1517.23 2143.63 1517.38 2142.91 1517.7C2142.19 1518.01 2141.63 1518.44 2141.23 1518.99C2140.83 1519.53 2140.63 1520.15 2140.63 1520.85C2140.63 1521.43 2140.77 1521.93 2141.04 1522.35C2141.33 1522.76 2141.69 1523.11 2142.13 1523.38C2142.57 1523.65 2143.03 1523.88 2143.52 1524.06C2144 1524.23 2144.44 1524.37 2144.85 1524.47L2147.06 1525.07C2147.63 1525.22 2148.26 1525.42 2148.96 1525.69C2149.66 1525.95 2150.33 1526.31 2150.97 1526.76C2151.62 1527.21 2152.15 1527.78 2152.57 1528.49C2152.99 1529.19 2153.2 1530.05 2153.2 1531.08C2153.2 1532.26 2152.89 1533.32 2152.27 1534.27C2151.66 1535.22 2150.77 1535.98 2149.59 1536.54C2148.42 1537.1 2146.99 1537.38 2145.32 1537.38C2143.75 1537.38 2142.4 1537.13 2141.26 1536.63C2140.12 1536.12 2139.23 1535.42 2138.57 1534.52C2137.93 1533.62 2137.56 1532.57 2137.48 1531.38H2140.2C2140.27 1532.2 2140.55 1532.88 2141.03 1533.42C2141.52 1533.95 2142.14 1534.35 2142.89 1534.61C2143.64 1534.87 2144.45 1535 2145.32 1535C2146.33 1535 2147.23 1534.83 2148.03 1534.51C2148.84 1534.17 2149.47 1533.71 2149.94 1533.12C2150.41 1532.53 2150.64 1531.83 2150.64 1531.03C2150.64 1530.31 2150.44 1529.72 2150.04 1529.27C2149.63 1528.81 2149.1 1528.44 2148.44 1528.16C2147.78 1527.87 2147.06 1527.62 2146.3 1527.41L2143.61 1526.64C2141.91 1526.15 2140.56 1525.46 2139.56 1524.55C2138.57 1523.64 2138.07 1522.45 2138.07 1520.98C2138.07 1519.76 2138.4 1518.69 2139.06 1517.78C2139.73 1516.87 2140.63 1516.15 2141.75 1515.65C2142.88 1515.14 2144.14 1514.88 2145.53 1514.88C2146.94 1514.88 2148.19 1515.14 2149.28 1515.64C2150.37 1516.14 2151.24 1516.82 2151.88 1517.69C2152.53 1518.55 2152.87 1519.54 2152.9 1520.64H2150.35ZM2171.35 1517.53V1515.18H2187.71V1517.53H2180.85V1537H2178.21V1517.53H2171.35ZM2205.14 1537H2202.37L2210.38 1515.18H2213.11L2221.12 1537H2218.35L2211.83 1518.63H2211.66L2205.14 1537ZM2206.16 1528.48H2217.33V1530.82H2206.16V1528.48ZM2256.82 1515.18V1537H2254.26L2242.37 1519.87H2242.16V1537H2239.52V1515.18H2242.07L2254.01 1532.36H2254.22V1515.18H2256.82ZM2275.91 1517.53V1515.18H2292.28V1517.53H2285.41V1537H2282.77V1517.53H2275.91Z" fill="#E3E1D3"/>
<path d="M1492.37 1641V1640.6L1501.97 1639.4V1586.6L1492.37 1585.4V1585H1515.49C1524.85 1585 1530.85 1590.68 1530.85 1599.48C1530.85 1608.2 1524.85 1613.8 1515.49 1613.8H1505.17V1639.4L1515.25 1640.6V1641H1492.37ZM1505.17 1611.4H1515.25C1522.53 1611.4 1527.49 1606.52 1527.49 1599.4C1527.49 1592.28 1522.53 1587.4 1515.25 1587.4H1505.17V1611.4ZM1612.61 1649.24L1582.37 1607L1582.61 1606.52L1587.17 1608.12H1588.29C1595.81 1608.12 1599.97 1603.64 1599.97 1597.8C1599.97 1591.8 1595.33 1587.4 1589.09 1587.4H1578.45V1639.4L1588.53 1640.6V1641H1565.65V1640.6L1575.25 1639.4V1586.6L1565.65 1585.4V1585H1589.73C1597.73 1585 1603.33 1590.2 1603.33 1597.64C1603.33 1604.84 1597.73 1610.12 1589.73 1610.12H1589.01L1613.25 1648.76L1612.61 1649.24ZM1672.07 1642.6C1654.95 1642.6 1642.07 1629.72 1642.07 1612.6C1642.07 1595.48 1654.95 1582.6 1672.07 1582.6C1689.19 1582.6 1702.07 1595.48 1702.07 1612.6C1702.07 1629.72 1689.19 1642.6 1672.07 1642.6ZM1672.07 1640.2C1687.67 1640.2 1698.71 1628.76 1698.71 1612.6C1698.71 1596.44 1687.67 1585 1672.07 1585C1656.47 1585 1645.43 1596.44 1645.43 1612.6C1645.43 1628.76 1656.47 1640.2 1672.07 1640.2ZM1755.11 1644.2L1736.55 1586.6L1726.87 1585.4V1585H1749.59V1585.4L1740.07 1586.6L1755.75 1636.2L1771.51 1586.6L1761.99 1585.4V1585H1783.91V1585.4L1774.23 1586.6L1755.51 1644.2H1755.11ZM1797.16 1641V1640.6L1806.92 1639.4L1825.56 1582.6H1825.96L1844.44 1639.4L1854.2 1640.6V1641H1831.48V1640.6L1841 1639.4L1835.64 1622.68H1815L1809.56 1639.4L1819.08 1640.6V1641H1797.16ZM1815.72 1620.28H1834.84L1825.32 1590.52L1815.72 1620.28ZM1877.37 1641V1640.6L1886.97 1639.4V1586.6L1877.37 1585.4V1585H1906.17C1922.17 1585 1934.17 1597 1934.17 1613C1934.17 1629 1922.17 1641 1906.17 1641H1877.37ZM1890.17 1638.6H1906.09C1920.65 1638.6 1930.97 1628.04 1930.97 1613C1930.97 1597.96 1920.65 1587.4 1906.09 1587.4H1890.17V1638.6ZM1958.18 1641V1640.6L1967.94 1639.4L1986.58 1582.6H1986.98L2005.46 1639.4L2015.22 1640.6V1641H1992.5V1640.6L2002.02 1639.4L1996.66 1622.68H1976.02L1970.58 1639.4L1980.1 1640.6V1641H1958.18ZM1976.74 1620.28H1995.86L1986.34 1590.52L1976.74 1620.28ZM2068.02 1641V1640.6L2077.78 1639.4L2096.42 1582.6H2096.82L2115.3 1639.4L2125.06 1640.6V1641H2102.34V1640.6L2111.86 1639.4L2106.5 1622.68H2085.86L2080.42 1639.4L2089.94 1640.6V1641H2068.02ZM2086.58 1620.28H2105.7L2096.18 1590.52L2086.58 1620.28ZM2186.63 1645L2159.83 1591.96V1639.4L2169.43 1640.6V1641H2147.83V1640.6L2157.43 1639.4V1581H2157.83L2184.63 1634.04V1586.6L2175.03 1585.4V1585H2196.63V1585.4L2187.03 1586.6V1645H2186.63ZM2266.63 1645L2239.83 1591.96V1639.4L2249.43 1640.6V1641H2227.83V1640.6L2237.43 1639.4V1581H2237.83L2264.63 1634.04V1586.6L2255.03 1585.4V1585H2276.63V1585.4L2267.03 1586.6V1645H2266.63ZM2299.43 1641V1640.6L2309.19 1639.4L2327.83 1582.6H2328.23L2346.71 1639.4L2356.47 1640.6V1641H2333.75V1640.6L2343.27 1639.4L2337.91 1622.68H2317.27L2311.83 1639.4L2321.35 1640.6V1641H2299.43ZM2317.99 1620.28H2337.11L2327.59 1590.52L2317.99 1620.28Z" fill="#E3E1D3"/>
<path d="M1757.59 1746.64C1757.46 1745.56 1756.95 1744.72 1756.04 1744.12C1755.13 1743.53 1754.01 1743.23 1752.69 1743.23C1751.72 1743.23 1750.88 1743.38 1750.16 1743.7C1749.44 1744.01 1748.88 1744.44 1748.47 1744.99C1748.07 1745.53 1747.88 1746.15 1747.88 1746.85C1747.88 1747.43 1748.01 1747.93 1748.29 1748.35C1748.58 1748.76 1748.94 1749.11 1749.38 1749.38C1749.82 1749.65 1750.28 1749.88 1750.76 1750.06C1751.25 1750.23 1751.69 1750.37 1752.09 1750.47L1754.31 1751.07C1754.88 1751.22 1755.51 1751.42 1756.21 1751.69C1756.91 1751.95 1757.58 1752.31 1758.22 1752.76C1758.87 1753.21 1759.4 1753.78 1759.82 1754.49C1760.24 1755.19 1760.45 1756.05 1760.45 1757.08C1760.45 1758.26 1760.14 1759.32 1759.52 1760.27C1758.91 1761.22 1758.01 1761.98 1756.84 1762.54C1755.66 1763.1 1754.24 1763.38 1752.56 1763.38C1751 1763.38 1749.65 1763.13 1748.5 1762.63C1747.37 1762.12 1746.47 1761.42 1745.82 1760.52C1745.17 1759.62 1744.81 1758.57 1744.72 1757.38H1747.45C1747.52 1758.2 1747.8 1758.88 1748.28 1759.42C1748.77 1759.95 1749.39 1760.35 1750.13 1760.61C1750.89 1760.87 1751.7 1761 1752.56 1761C1753.57 1761 1754.48 1760.83 1755.28 1760.51C1756.08 1760.17 1756.72 1759.71 1757.19 1759.12C1757.66 1758.53 1757.89 1757.83 1757.89 1757.03C1757.89 1756.31 1757.69 1755.72 1757.28 1755.27C1756.88 1754.81 1756.34 1754.44 1755.68 1754.16C1755.02 1753.87 1754.31 1753.62 1753.54 1753.41L1750.86 1752.64C1749.15 1752.15 1747.8 1751.46 1746.81 1750.55C1745.82 1749.64 1745.32 1748.45 1745.32 1746.98C1745.32 1745.76 1745.65 1744.69 1746.31 1743.78C1746.98 1742.87 1747.87 1742.15 1748.99 1741.65C1750.12 1741.14 1751.38 1740.88 1752.78 1740.88C1754.18 1740.88 1755.43 1741.14 1756.53 1741.64C1757.62 1742.14 1758.49 1742.82 1759.13 1743.69C1759.77 1744.55 1760.11 1745.54 1760.15 1746.64H1757.59ZM1779.79 1763V1741.18H1792.87V1743.53H1782.43V1750.9H1791.89V1753.24H1782.43V1763H1779.79ZM1813.68 1741.18L1819.3 1750.26H1819.47L1825.1 1741.18H1828.21L1821.35 1752.09L1828.21 1763H1825.1L1819.47 1754.09H1819.3L1813.68 1763H1810.57L1817.6 1752.09L1810.57 1741.18H1813.68ZM1870.08 1741.18H1873.24L1880.65 1759.29H1880.91L1888.32 1741.18H1891.48V1763H1889V1746.42H1888.79L1881.97 1763H1879.59L1872.77 1746.42H1872.56V1763H1870.08V1741.18ZM1912.67 1763H1909.9L1917.91 1741.18H1920.64L1928.65 1763H1925.88L1919.36 1744.63H1919.19L1912.67 1763ZM1913.69 1754.48H1924.86V1756.82H1913.69V1754.48ZM1947.05 1763V1741.18H1949.69V1752.01H1949.94L1959.75 1741.18H1963.2L1954.03 1751.03L1963.2 1763H1960L1952.42 1752.86L1949.69 1755.93V1763H1947.05ZM1981.62 1763V1741.18H1994.78V1743.53H1984.26V1750.9H1994.1V1753.24H1984.26V1760.66H1994.95V1763H1981.62ZM2023.58 1750.92V1753.26H2014.03V1750.92H2023.58ZM2057.66 1741.18H2060.31V1755.63C2060.31 1757.12 2059.95 1758.45 2059.25 1759.62C2058.55 1760.79 2057.57 1761.71 2056.3 1762.38C2055.03 1763.05 2053.54 1763.38 2051.83 1763.38C2050.11 1763.38 2048.62 1763.05 2047.35 1762.38C2046.08 1761.71 2045.09 1760.79 2044.39 1759.62C2043.69 1758.45 2043.35 1757.12 2043.35 1755.63V1741.18H2045.99V1755.41C2045.99 1756.48 2046.22 1757.43 2046.69 1758.26C2047.16 1759.08 2047.83 1759.73 2048.69 1760.21C2049.57 1760.68 2050.61 1760.91 2051.83 1760.91C2053.04 1760.91 2054.08 1760.68 2054.96 1760.21C2055.83 1759.73 2056.5 1759.08 2056.96 1758.26C2057.43 1757.43 2057.66 1756.48 2057.66 1755.41V1741.18ZM2080.58 1763V1741.18H2087.95C2089.67 1741.18 2091.06 1741.49 2092.15 1742.11C2093.24 1742.72 2094.05 1743.55 2094.58 1744.59C2095.11 1745.63 2095.37 1746.8 2095.37 1748.09C2095.37 1749.37 2095.11 1750.54 2094.58 1751.59C2094.06 1752.64 2093.26 1753.48 2092.17 1754.1C2091.09 1754.72 2089.69 1755.03 2088 1755.03H2082.71V1752.69H2087.91C2089.08 1752.69 2090.02 1752.49 2090.73 1752.08C2091.44 1751.68 2091.96 1751.13 2092.28 1750.44C2092.61 1749.74 2092.77 1748.96 2092.77 1748.09C2092.77 1747.21 2092.61 1746.43 2092.28 1745.74C2091.96 1745.05 2091.44 1744.51 2090.72 1744.12C2090.01 1743.72 2089.05 1743.53 2087.87 1743.53H2083.22V1763H2080.58Z" fill="#E3E1D3"/>
<path d="M1249.58 1867V1866.6L1259.34 1865.4L1277.98 1808.6H1278.38L1296.86 1865.4L1306.62 1866.6V1867H1283.9V1866.6L1293.42 1865.4L1288.06 1848.68H1267.42L1261.98 1865.4L1271.5 1866.6V1867H1249.58ZM1268.14 1846.28H1287.26L1277.74 1816.52L1268.14 1846.28ZM1368.19 1871L1341.39 1817.96V1865.4L1350.99 1866.6V1867H1329.39V1866.6L1338.99 1865.4V1807H1339.39L1366.19 1860.04V1812.6L1356.59 1811.4V1811H1378.19V1811.4L1368.59 1812.6V1871H1368.19ZM1400.99 1867V1866.6L1410.75 1865.4L1429.39 1808.6H1429.79L1448.27 1865.4L1458.03 1866.6V1867H1435.31V1866.6L1444.83 1865.4L1439.47 1848.68H1418.83L1413.39 1865.4L1422.91 1866.6V1867H1400.99ZM1419.55 1846.28H1438.67L1429.15 1816.52L1419.55 1846.28ZM1500.32 1868.52C1492.16 1868.52 1484 1863.4 1484 1853.08L1494.08 1844.2L1494.32 1844.44L1487.36 1852.92C1487.36 1861.72 1493.84 1866.12 1500.32 1866.12C1507.84 1866.12 1513.44 1860.68 1513.44 1853.48C1513.44 1847.56 1510.08 1843 1503.92 1840.04L1496.56 1836.6C1488.56 1832.92 1485.28 1827.4 1485.28 1822.2C1485.28 1814.44 1491.76 1808.6 1500.32 1808.6C1507.84 1808.6 1514.88 1813.32 1515.2 1823L1506.48 1830.2L1506.24 1829.96L1512.24 1822.92C1511.84 1814.92 1506.16 1811 1500.32 1811C1493.36 1811 1488.16 1815.8 1488.16 1822.2C1488.16 1826.28 1490.8 1830.68 1497.68 1833.64L1505.12 1837C1512.56 1840.28 1516.72 1846.12 1516.72 1853.24C1516.72 1861.96 1509.68 1868.52 1500.32 1868.52ZM1557.43 1867V1866.6L1567.03 1865.4V1813.4H1552.39L1549.91 1822.84L1549.51 1822.76L1550.95 1812.44L1551.11 1811H1586.31L1586.47 1812.44L1587.91 1822.76L1587.51 1822.84L1585.03 1813.4H1570.23V1865.4L1578.87 1866.6V1867H1557.43ZM1605.91 1867V1866.6L1615.67 1865.4L1634.31 1808.6H1634.71L1653.19 1865.4L1662.95 1866.6V1867H1640.23V1866.6L1649.75 1865.4L1644.39 1848.68H1623.75L1618.31 1865.4L1627.83 1866.6V1867H1605.91ZM1624.47 1846.28H1643.59L1634.07 1816.52L1624.47 1846.28ZM1705.24 1868.52C1697.08 1868.52 1688.92 1863.4 1688.92 1853.08L1699 1844.2L1699.24 1844.44L1692.28 1852.92C1692.28 1861.72 1698.76 1866.12 1705.24 1866.12C1712.76 1866.12 1718.36 1860.68 1718.36 1853.48C1718.36 1847.56 1715 1843 1708.84 1840.04L1701.48 1836.6C1693.48 1832.92 1690.2 1827.4 1690.2 1822.2C1690.2 1814.44 1696.68 1808.6 1705.24 1808.6C1712.76 1808.6 1719.8 1813.32 1720.12 1823L1711.4 1830.2L1711.16 1829.96L1717.16 1822.92C1716.76 1814.92 1711.08 1811 1705.24 1811C1698.28 1811 1693.08 1815.8 1693.08 1822.2C1693.08 1826.28 1695.72 1830.68 1702.6 1833.64L1710.04 1837C1717.48 1840.28 1721.64 1846.12 1721.64 1853.24C1721.64 1861.96 1714.6 1868.52 1705.24 1868.52ZM1756.43 1867V1866.6L1766.03 1865.4V1812.6L1756.43 1811.4V1811H1778.83V1811.4L1769.23 1812.6V1865.4L1778.83 1866.6V1867H1756.43ZM1802 1867V1866.6L1811.76 1865.4L1830.4 1808.6H1830.8L1849.28 1865.4L1859.04 1866.6V1867H1836.32V1866.6L1845.84 1865.4L1840.48 1848.68H1819.84L1814.4 1865.4L1823.92 1866.6V1867H1802ZM1820.56 1846.28H1839.68L1830.16 1816.52L1820.56 1846.28ZM1927.74 1867V1866.6L1937.34 1865.4V1813.4H1922.7L1920.22 1822.84L1919.82 1822.76L1921.26 1812.44L1921.42 1811H1956.62L1956.78 1812.44L1958.22 1822.76L1957.82 1822.84L1955.34 1813.4H1940.54V1865.4L1949.18 1866.6V1867H1927.74ZM2014.71 1845.88L2011.75 1838.44H2001.03V1864.6H2023.83L2025.03 1855H2025.43V1867H1988.23V1866.6L1997.83 1865.4V1812.6L1988.23 1811.4V1811H2024.63V1823H2024.23L2023.03 1813.4H2001.03V1836.2H2011.75L2014.71 1828.76L2015.11 1828.84L2013.27 1837.08V1837.56L2015.11 1845.8L2014.71 1845.88ZM2098.66 1871L2071.86 1817.96V1865.4L2081.46 1866.6V1867H2059.86V1866.6L2069.46 1865.4V1807H2069.86L2096.66 1860.04V1812.6L2087.06 1811.4V1811H2108.66V1811.4L2099.06 1812.6V1871H2098.66ZM2140.26 1867V1866.6L2149.86 1865.4V1812.6L2140.26 1811.4V1811H2169.06C2185.06 1811 2197.06 1823 2197.06 1839C2197.06 1855 2185.06 1867 2169.06 1867H2140.26ZM2153.06 1864.6H2168.98C2183.54 1864.6 2193.86 1854.04 2193.86 1839C2193.86 1823.96 2183.54 1813.4 2168.98 1813.4H2153.06V1864.6ZM2256.35 1845.88L2253.39 1838.44H2242.67V1864.6H2265.47L2266.67 1855H2267.07V1867H2229.87V1866.6L2239.47 1865.4V1812.6L2229.87 1811.4V1811H2266.27V1823H2265.87L2264.67 1813.4H2242.67V1836.2H2253.39L2256.35 1828.76L2256.75 1828.84L2254.91 1837.08V1837.56L2256.75 1845.8L2256.35 1845.88ZM2348.86 1875.24L2318.62 1833L2318.86 1832.52L2323.42 1834.12H2324.54C2332.06 1834.12 2336.22 1829.64 2336.22 1823.8C2336.22 1817.8 2331.58 1813.4 2325.34 1813.4H2314.7V1865.4L2324.78 1866.6V1867H2301.9V1866.6L2311.5 1865.4V1812.6L2301.9 1811.4V1811H2325.98C2333.98 1811 2339.58 1816.2 2339.58 1823.64C2339.58 1830.84 2333.98 1836.12 2325.98 1836.12H2325.26L2349.5 1874.76L2348.86 1875.24ZM2408.32 1868.6C2391.2 1868.6 2378.32 1855.72 2378.32 1838.6C2378.32 1821.48 2391.2 1808.6 2408.32 1808.6C2425.44 1808.6 2438.32 1821.48 2438.32 1838.6C2438.32 1855.72 2425.44 1868.6 2408.32 1868.6ZM2408.32 1866.2C2423.92 1866.2 2434.96 1854.76 2434.96 1838.6C2434.96 1822.44 2423.92 1811 2408.32 1811C2392.72 1811 2381.68 1822.44 2381.68 1838.6C2381.68 1854.76 2392.72 1866.2 2408.32 1866.2ZM2491.36 1870.2L2472.8 1812.6L2463.12 1811.4V1811H2485.84V1811.4L2476.32 1812.6L2492 1862.2L2507.76 1812.6L2498.24 1811.4V1811H2520.16V1811.4L2510.48 1812.6L2491.76 1870.2H2491.36ZM2533.41 1867V1866.6L2543.17 1865.4L2561.81 1808.6H2562.21L2580.69 1865.4L2590.45 1866.6V1867H2567.73V1866.6L2577.25 1865.4L2571.89 1848.68H2551.25L2545.81 1865.4L2555.33 1866.6V1867H2533.41ZM2551.97 1846.28H2571.09L2561.57 1816.52L2551.97 1846.28Z" fill="#E3E1D3"/>
</svg>
