<svg width="3859" height="2160" viewBox="0 0 3859 2160" fill="none" xmlns="http://www.w3.org/2000/svg">
<rect width="3840" height="2160" transform="translate(9)" fill="black"/>
<path d="M1811.46 222H1804.73V200.182H1811.76C1813.88 200.182 1815.69 200.619 1817.19 201.492C1818.7 202.359 1819.85 203.605 1820.65 205.232C1821.46 206.851 1821.86 208.79 1821.86 211.048C1821.86 213.321 1821.45 215.278 1820.64 216.918C1819.83 218.552 1818.66 219.809 1817.11 220.69C1815.56 221.563 1813.68 222 1811.46 222ZM1807.37 219.656H1811.29C1813.09 219.656 1814.59 219.308 1815.78 218.612C1816.96 217.916 1817.85 216.925 1818.43 215.64C1819.01 214.354 1819.3 212.824 1819.3 211.048C1819.3 209.287 1819.01 207.771 1818.44 206.499C1817.86 205.221 1817 204.241 1815.86 203.559C1814.72 202.87 1813.29 202.526 1811.59 202.526H1807.37V219.656ZM1843.93 200.182V222H1841.29V200.182H1843.93ZM1864.23 222V200.182H1871.6C1873.31 200.182 1874.71 200.473 1875.8 201.055C1876.89 201.631 1877.7 202.423 1878.23 203.431C1878.75 204.44 1879.02 205.587 1879.02 206.872C1879.02 208.158 1878.75 209.298 1878.23 210.292C1877.7 211.286 1876.9 212.067 1875.81 212.636C1874.72 213.197 1873.34 213.477 1871.64 213.477H1865.68V211.091H1871.56C1872.72 211.091 1873.66 210.92 1874.37 210.58C1875.09 210.239 1875.61 209.756 1875.93 209.131C1876.25 208.499 1876.42 207.746 1876.42 206.872C1876.42 205.999 1876.25 205.235 1875.93 204.582C1875.6 203.928 1875.08 203.424 1874.36 203.069C1873.64 202.707 1872.7 202.526 1871.52 202.526H1866.87V222H1864.23ZM1874.5 212.199L1879.87 222H1876.8L1871.52 212.199H1874.5ZM1898.42 222V200.182H1911.59V202.526H1901.06V209.898H1910.91V212.241H1901.06V219.656H1911.76V222H1898.42ZM1948.91 207H1946.26C1946.11 206.24 1945.83 205.572 1945.44 204.997C1945.06 204.422 1944.59 203.939 1944.04 203.548C1943.49 203.151 1942.88 202.852 1942.22 202.653C1941.55 202.455 1940.85 202.355 1940.13 202.355C1938.81 202.355 1937.61 202.689 1936.54 203.357C1935.47 204.024 1934.62 205.008 1933.99 206.308C1933.37 207.607 1933.05 209.202 1933.05 211.091C1933.05 212.98 1933.37 214.575 1933.99 215.874C1934.62 217.174 1935.47 218.158 1936.54 218.825C1937.61 219.493 1938.81 219.827 1940.13 219.827C1940.85 219.827 1941.55 219.727 1942.22 219.528C1942.88 219.33 1943.49 219.035 1944.04 218.644C1944.59 218.246 1945.06 217.76 1945.44 217.185C1945.83 216.602 1946.11 215.935 1946.26 215.182H1948.91C1948.71 216.297 1948.34 217.295 1947.82 218.175C1947.29 219.056 1946.64 219.805 1945.86 220.423C1945.08 221.034 1944.2 221.499 1943.23 221.819C1942.26 222.138 1941.23 222.298 1940.13 222.298C1938.27 222.298 1936.61 221.844 1935.16 220.935C1933.71 220.026 1932.57 218.733 1931.74 217.057C1930.91 215.381 1930.5 213.392 1930.5 211.091C1930.5 208.79 1930.91 206.801 1931.74 205.125C1932.57 203.449 1933.71 202.156 1935.16 201.247C1936.61 200.338 1938.27 199.884 1940.13 199.884C1941.23 199.884 1942.26 200.043 1943.23 200.363C1944.2 200.683 1945.08 201.151 1945.86 201.769C1946.64 202.38 1947.29 203.126 1947.82 204.006C1948.34 204.88 1948.71 205.878 1948.91 207ZM1966.98 202.526V200.182H1983.35V202.526H1976.48V222H1973.84V202.526H1966.98ZM2019.92 211.091C2019.92 213.392 2019.51 215.381 2018.68 217.057C2017.85 218.733 2016.71 220.026 2015.26 220.935C2013.81 221.844 2012.15 222.298 2010.29 222.298C2008.43 222.298 2006.78 221.844 2005.33 220.935C2003.88 220.026 2002.74 218.733 2001.91 217.057C2001.08 215.381 2000.66 213.392 2000.66 211.091C2000.66 208.79 2001.08 206.801 2001.91 205.125C2002.74 203.449 2003.88 202.156 2005.33 201.247C2006.78 200.338 2008.43 199.884 2010.29 199.884C2012.15 199.884 2013.81 200.338 2015.26 201.247C2016.71 202.156 2017.85 203.449 2018.68 205.125C2019.51 206.801 2019.92 208.79 2019.92 211.091ZM2017.37 211.091C2017.37 209.202 2017.05 207.607 2016.42 206.308C2015.79 205.008 2014.95 204.024 2013.87 203.357C2012.81 202.689 2011.61 202.355 2010.29 202.355C2008.97 202.355 2007.78 202.689 2006.7 203.357C2005.64 204.024 2004.79 205.008 2004.16 206.308C2003.53 207.607 2003.22 209.202 2003.22 211.091C2003.22 212.98 2003.53 214.575 2004.16 215.874C2004.79 217.174 2005.64 218.158 2006.7 218.825C2007.78 219.493 2008.97 219.827 2010.29 219.827C2011.61 219.827 2012.81 219.493 2013.87 218.825C2014.95 218.158 2015.79 217.174 2016.42 215.874C2017.05 214.575 2017.37 212.98 2017.37 211.091ZM2039.37 222V200.182H2046.74C2048.44 200.182 2049.84 200.473 2050.94 201.055C2052.03 201.631 2052.84 202.423 2053.37 203.431C2053.89 204.44 2054.15 205.587 2054.15 206.872C2054.15 208.158 2053.89 209.298 2053.37 210.292C2052.84 211.286 2052.03 212.067 2050.95 212.636C2049.86 213.197 2048.47 213.477 2046.78 213.477H2040.82V211.091H2046.7C2047.86 211.091 2048.8 210.92 2049.51 210.58C2050.23 210.239 2050.74 209.756 2051.06 209.131C2051.39 208.499 2051.55 207.746 2051.55 206.872C2051.55 205.999 2051.39 205.235 2051.06 204.582C2050.74 203.928 2050.22 203.424 2049.5 203.069C2048.78 202.707 2047.83 202.526 2046.65 202.526H2042.01V222H2039.37ZM2049.64 212.199L2055.01 222H2051.94L2046.65 212.199H2049.64Z" fill="#E3E1D3"/>
<path d="M1434.03 329.2L1418.59 281.12V324.4L1427.23 325.6V326H1406.59V325.6L1416.19 324.4V266H1416.75L1434.51 321.28L1452.43 266H1452.99V324.4L1462.59 325.6V326H1441.15V325.6L1449.79 324.4V281.92L1434.43 329.2H1434.03ZM1494.18 326V325.6L1503.78 324.4V271.6L1494.18 270.4V270H1516.58V270.4L1506.98 271.6V324.4L1516.58 325.6V326H1494.18ZM1595.35 334.24L1565.91 292.88L1583.11 271.6L1573.83 270.4V270H1596.15V270.4L1586.23 271.6L1569.67 291.92L1595.99 333.76L1595.35 334.24ZM1548.55 326V325.6L1558.15 324.4V271.6L1548.55 270.4V270H1570.95V270.4L1561.35 271.6V324.4L1570.95 325.6V326H1548.55ZM1650.35 326V325.6L1658.99 324.4V297.6H1636.59V324.4L1645.23 325.6V326H1623.79V325.6L1633.39 324.4V271.6L1623.79 270.4V270H1645.23V270.4L1636.59 271.6V295.2H1658.99V271.6L1650.35 270.4V270H1671.79V270.4L1662.19 271.6V324.4L1671.79 325.6V326H1650.35ZM1694.99 326V325.6L1704.75 324.4L1723.39 267.6H1723.79L1742.27 324.4L1752.03 325.6V326H1729.31V325.6L1738.83 324.4L1733.47 307.68H1712.83L1707.39 324.4L1716.91 325.6V326H1694.99ZM1713.55 305.28H1732.67L1723.15 275.52L1713.55 305.28ZM1775.2 326V325.6L1784.8 324.4V271.6L1775.2 270.4V270H1797.6V270.4L1788 271.6V324.4L1797.6 325.6V326H1775.2ZM1829.57 326V325.6L1839.17 324.4V271.6L1829.57 270.4V270H1852.45V270.4L1842.37 271.6V323.6H1864.69L1867.17 314.16L1867.57 314.24L1866.13 324.56L1865.97 326H1829.57ZM1971.15 327.6C1954.03 327.6 1941.15 314.72 1941.15 297.6C1941.15 280.48 1954.03 267.6 1971.15 267.6C1983.71 267.6 1994.03 274.56 1998.59 285.04L1995.87 290.08L1995.55 290V285.76C1991.63 276.24 1982.59 270 1971.15 270C1955.55 270 1944.51 281.44 1944.51 297.6C1944.51 313.76 1955.55 325.2 1971.15 325.2C1985.39 325.2 1995.87 315.68 1997.55 301.76L1971.07 299.76V299.36H2001.07C2000.19 315.52 1987.63 327.6 1971.15 327.6ZM2024.68 326V325.6L2034.44 324.4L2053.08 267.6H2053.48L2071.96 324.4L2081.72 325.6V326H2059V325.6L2068.52 324.4L2063.16 307.68H2042.52L2037.08 324.4L2046.6 325.6V326H2024.68ZM2043.24 305.28H2062.36L2052.84 275.52L2043.24 305.28ZM2124 327.52C2115.84 327.52 2107.68 322.4 2107.68 312.08L2117.76 303.2L2118 303.44L2111.04 311.92C2111.04 320.72 2117.52 325.12 2124 325.12C2131.52 325.12 2137.12 319.68 2137.12 312.48C2137.12 306.56 2133.76 302 2127.6 299.04L2120.24 295.6C2112.24 291.92 2108.96 286.4 2108.96 281.2C2108.96 273.44 2115.44 267.6 2124 267.6C2131.52 267.6 2138.56 272.32 2138.88 282L2130.16 289.2L2129.92 288.96L2135.92 281.92C2135.52 273.92 2129.84 270 2124 270C2117.04 270 2111.84 274.8 2111.84 281.2C2111.84 285.28 2114.48 289.68 2121.36 292.64L2128.8 296C2136.24 299.28 2140.4 305.12 2140.4 312.24C2140.4 320.96 2133.36 327.52 2124 327.52ZM2175.2 326V325.6L2184.8 324.4V271.6L2175.2 270.4V270H2197.6V270.4L2188 271.6V324.4L2197.6 325.6V326H2175.2ZM2256.61 329.2L2241.17 281.12V324.4L2249.81 325.6V326H2229.17V325.6L2238.77 324.4V266H2239.33L2257.09 321.28L2275.01 266H2275.57V324.4L2285.17 325.6V326H2263.73V325.6L2272.37 324.4V281.92L2257.01 329.2H2256.61ZM2347.56 327.6C2330.44 327.6 2317.56 314.72 2317.56 297.6C2317.56 280.48 2330.44 267.6 2347.56 267.6C2364.68 267.6 2377.56 280.48 2377.56 297.6C2377.56 314.72 2364.68 327.6 2347.56 327.6ZM2347.56 325.2C2363.16 325.2 2374.2 313.76 2374.2 297.6C2374.2 281.44 2363.16 270 2347.56 270C2331.96 270 2320.92 281.44 2320.92 297.6C2320.92 313.76 2331.96 325.2 2347.56 325.2ZM2430.59 329.2L2412.03 271.6L2402.35 270.4V270H2425.07V270.4L2415.55 271.6L2431.23 321.2L2446.99 271.6L2437.47 270.4V270H2459.39V270.4L2449.71 271.6L2430.99 329.2H2430.59Z" fill="#E3E1D3"/>
<path d="M1549.02 448H1542.29V426.182H1549.32C1551.43 426.182 1553.25 426.619 1554.75 427.492C1556.26 428.359 1557.41 429.605 1558.21 431.232C1559.02 432.851 1559.42 434.79 1559.42 437.048C1559.42 439.321 1559.01 441.278 1558.2 442.918C1557.39 444.552 1556.21 445.809 1554.67 446.69C1553.12 447.563 1551.24 448 1549.02 448ZM1544.93 445.656H1548.85C1550.65 445.656 1552.15 445.308 1553.33 444.612C1554.52 443.916 1555.4 442.925 1555.99 441.64C1556.57 440.354 1556.86 438.824 1556.86 437.048C1556.86 435.287 1556.57 433.771 1556 432.499C1555.42 431.221 1554.56 430.241 1553.42 429.559C1552.28 428.87 1550.85 428.526 1549.15 428.526H1544.93V445.656ZM1581.49 426.182V448H1578.85V426.182H1581.49ZM1601.79 448V426.182H1609.16C1610.87 426.182 1612.26 426.473 1613.36 427.055C1614.45 427.631 1615.26 428.423 1615.79 429.431C1616.31 430.44 1616.58 431.587 1616.58 432.872C1616.58 434.158 1616.31 435.298 1615.79 436.292C1615.26 437.286 1614.46 438.067 1613.37 438.636C1612.28 439.197 1610.89 439.477 1609.2 439.477H1603.24V437.091H1609.12C1610.28 437.091 1611.22 436.92 1611.93 436.58C1612.65 436.239 1613.17 435.756 1613.49 435.131C1613.81 434.499 1613.98 433.746 1613.98 432.872C1613.98 431.999 1613.81 431.235 1613.49 430.582C1613.16 429.928 1612.64 429.424 1611.92 429.069C1611.2 428.707 1610.25 428.526 1609.08 428.526H1604.43V448H1601.79ZM1612.06 438.199L1617.43 448H1614.36L1609.08 438.199H1612.06ZM1635.98 448V426.182H1649.15V428.526H1638.62V435.898H1648.46V438.241H1638.62V445.656H1649.32V448H1635.98ZM1686.46 433H1683.82C1683.67 432.24 1683.39 431.572 1683 430.997C1682.62 430.422 1682.15 429.939 1681.6 429.548C1681.05 429.151 1680.44 428.852 1679.77 428.653C1679.11 428.455 1678.41 428.355 1677.69 428.355C1676.37 428.355 1675.17 428.689 1674.1 429.357C1673.03 430.024 1672.18 431.008 1671.55 432.308C1670.92 433.607 1670.61 435.202 1670.61 437.091C1670.61 438.98 1670.92 440.575 1671.55 441.874C1672.18 443.174 1673.03 444.158 1674.1 444.825C1675.17 445.493 1676.37 445.827 1677.69 445.827C1678.41 445.827 1679.11 445.727 1679.77 445.528C1680.44 445.33 1681.05 445.035 1681.6 444.644C1682.15 444.246 1682.62 443.76 1683 443.185C1683.39 442.602 1683.67 441.935 1683.82 441.182H1686.46C1686.27 442.297 1685.9 443.295 1685.38 444.175C1684.85 445.056 1684.2 445.805 1683.42 446.423C1682.64 447.034 1681.76 447.499 1680.79 447.819C1679.82 448.138 1678.79 448.298 1677.69 448.298C1675.83 448.298 1674.17 447.844 1672.72 446.935C1671.27 446.026 1670.13 444.733 1669.3 443.057C1668.47 441.381 1668.06 439.392 1668.06 437.091C1668.06 434.79 1668.47 432.801 1669.3 431.125C1670.13 429.449 1671.27 428.156 1672.72 427.247C1674.17 426.338 1675.83 425.884 1677.69 425.884C1678.79 425.884 1679.82 426.043 1680.79 426.363C1681.76 426.683 1682.64 427.151 1683.42 427.769C1684.2 428.38 1684.85 429.126 1685.38 430.006C1685.9 430.88 1686.27 431.878 1686.46 433ZM1704.54 428.526V426.182H1720.9V428.526H1714.04V448H1711.4V428.526H1704.54ZM1757.48 437.091C1757.48 439.392 1757.07 441.381 1756.24 443.057C1755.41 444.733 1754.27 446.026 1752.82 446.935C1751.37 447.844 1749.71 448.298 1747.85 448.298C1745.99 448.298 1744.34 447.844 1742.89 446.935C1741.44 446.026 1740.3 444.733 1739.47 443.057C1738.64 441.381 1738.22 439.392 1738.22 437.091C1738.22 434.79 1738.64 432.801 1739.47 431.125C1740.3 429.449 1741.44 428.156 1742.89 427.247C1744.34 426.338 1745.99 425.884 1747.85 425.884C1749.71 425.884 1751.37 426.338 1752.82 427.247C1754.27 428.156 1755.41 429.449 1756.24 431.125C1757.07 432.801 1757.48 434.79 1757.48 437.091ZM1754.93 437.091C1754.93 435.202 1754.61 433.607 1753.98 432.308C1753.35 431.008 1752.5 430.024 1751.43 429.357C1750.37 428.689 1749.17 428.355 1747.85 428.355C1746.53 428.355 1745.33 428.689 1744.26 429.357C1743.2 430.024 1742.35 431.008 1741.72 432.308C1741.09 433.607 1740.78 435.202 1740.78 437.091C1740.78 438.98 1741.09 440.575 1741.72 441.874C1742.35 443.174 1743.2 444.158 1744.26 444.825C1745.33 445.493 1746.53 445.827 1747.85 445.827C1749.17 445.827 1750.37 445.493 1751.43 444.825C1752.5 444.158 1753.35 443.174 1753.98 441.874C1754.61 440.575 1754.93 438.98 1754.93 437.091ZM1776.93 448V426.182H1784.3C1786 426.182 1787.4 426.473 1788.49 427.055C1789.59 427.631 1790.4 428.423 1790.92 429.431C1791.45 430.44 1791.71 431.587 1791.71 432.872C1791.71 434.158 1791.45 435.298 1790.92 436.292C1790.4 437.286 1789.59 438.067 1788.51 438.636C1787.42 439.197 1786.03 439.477 1784.34 439.477H1778.37V437.091H1784.25C1785.42 437.091 1786.36 436.92 1787.07 436.58C1787.78 436.239 1788.3 435.756 1788.62 435.131C1788.95 434.499 1789.11 433.746 1789.11 432.872C1789.11 431.999 1788.95 431.235 1788.62 430.582C1788.3 429.928 1787.77 429.424 1787.06 429.069C1786.34 428.707 1785.39 428.526 1784.21 428.526H1779.57V448H1776.93ZM1787.2 438.199L1792.56 448H1789.5L1784.21 438.199H1787.2ZM1852.96 437.091C1852.96 439.392 1852.55 441.381 1851.71 443.057C1850.88 444.733 1849.74 446.026 1848.3 446.935C1846.85 447.844 1845.19 448.298 1843.33 448.298C1841.47 448.298 1839.81 447.844 1838.37 446.935C1836.92 446.026 1835.78 444.733 1834.95 443.057C1834.12 441.381 1833.7 439.392 1833.7 437.091C1833.7 434.79 1834.12 432.801 1834.95 431.125C1835.78 429.449 1836.92 428.156 1838.37 427.247C1839.81 426.338 1841.47 425.884 1843.33 425.884C1845.19 425.884 1846.85 426.338 1848.3 427.247C1849.74 428.156 1850.88 429.449 1851.71 431.125C1852.55 432.801 1852.96 434.79 1852.96 437.091ZM1850.4 437.091C1850.4 435.202 1850.09 433.607 1849.46 432.308C1848.83 431.008 1847.98 430.024 1846.91 429.357C1845.84 428.689 1844.65 428.355 1843.33 428.355C1842.01 428.355 1840.81 428.689 1839.74 429.357C1838.68 430.024 1837.83 431.008 1837.19 432.308C1836.57 433.607 1836.26 435.202 1836.26 437.091C1836.26 438.98 1836.57 440.575 1837.19 441.874C1837.83 443.174 1838.68 444.158 1839.74 444.825C1840.81 445.493 1842.01 445.827 1843.33 445.827C1844.65 445.827 1845.84 445.493 1846.91 444.825C1847.98 444.158 1848.83 443.174 1849.46 441.874C1850.09 440.575 1850.4 438.98 1850.4 437.091ZM1872.4 448V426.182H1885.49V428.526H1875.05V435.898H1884.51V438.241H1875.05V448H1872.4ZM1928.45 448V426.182H1935.82C1937.53 426.182 1938.93 426.491 1940.02 427.109C1941.11 427.719 1941.92 428.547 1942.45 429.591C1942.97 430.635 1943.24 431.8 1943.24 433.085C1943.24 434.371 1942.97 435.539 1942.45 436.59C1941.93 437.641 1941.13 438.479 1940.04 439.104C1938.95 439.722 1937.56 440.031 1935.86 440.031H1930.58V437.688H1935.78C1936.95 437.688 1937.89 437.485 1938.6 437.08C1939.31 436.675 1939.83 436.129 1940.15 435.44C1940.47 434.744 1940.64 433.959 1940.64 433.085C1940.64 432.212 1940.47 431.43 1940.15 430.741C1939.83 430.053 1939.31 429.513 1938.59 429.122C1937.87 428.724 1936.92 428.526 1935.74 428.526H1931.09V448H1928.45ZM1962.49 448V426.182H1965.13V435.898H1976.77V426.182H1979.41V448H1976.77V438.241H1965.13V448H1962.49ZM2018.11 437.091C2018.11 439.392 2017.69 441.381 2016.86 443.057C2016.03 444.733 2014.89 446.026 2013.44 446.935C2011.99 447.844 2010.34 448.298 2008.48 448.298C2006.62 448.298 2004.96 447.844 2003.51 446.935C2002.06 446.026 2000.92 444.733 2000.09 443.057C1999.26 441.381 1998.85 439.392 1998.85 437.091C1998.85 434.79 1999.26 432.801 2000.09 431.125C2000.92 429.449 2002.06 428.156 2003.51 427.247C2004.96 426.338 2006.62 425.884 2008.48 425.884C2010.34 425.884 2011.99 426.338 2013.44 427.247C2014.89 428.156 2016.03 429.449 2016.86 431.125C2017.69 432.801 2018.11 434.79 2018.11 437.091ZM2015.55 437.091C2015.55 435.202 2015.23 433.607 2014.6 432.308C2013.98 431.008 2013.13 430.024 2012.06 429.357C2010.99 428.689 2009.8 428.355 2008.48 428.355C2007.16 428.355 2005.96 428.689 2004.89 429.357C2003.82 430.024 2002.97 431.008 2002.34 432.308C2001.72 433.607 2001.4 435.202 2001.4 437.091C2001.4 438.98 2001.72 440.575 2002.34 441.874C2002.97 443.174 2003.82 444.158 2004.89 444.825C2005.96 445.493 2007.16 445.827 2008.48 445.827C2009.8 445.827 2010.99 445.493 2012.06 444.825C2013.13 444.158 2013.98 443.174 2014.6 441.874C2015.23 440.575 2015.55 438.98 2015.55 437.091ZM2035.45 428.526V426.182H2051.81V428.526H2044.95V448H2042.31V428.526H2035.45ZM2088.39 437.091C2088.39 439.392 2087.98 441.381 2087.14 443.057C2086.31 444.733 2085.17 446.026 2083.72 446.935C2082.28 447.844 2080.62 448.298 2078.76 448.298C2076.9 448.298 2075.24 447.844 2073.8 446.935C2072.35 446.026 2071.21 444.733 2070.38 443.057C2069.55 441.381 2069.13 439.392 2069.13 437.091C2069.13 434.79 2069.55 432.801 2070.38 431.125C2071.21 429.449 2072.35 428.156 2073.8 427.247C2075.24 426.338 2076.9 425.884 2078.76 425.884C2080.62 425.884 2082.28 426.338 2083.72 427.247C2085.17 428.156 2086.31 429.449 2087.14 431.125C2087.98 432.801 2088.39 434.79 2088.39 437.091ZM2085.83 437.091C2085.83 435.202 2085.52 433.607 2084.89 432.308C2084.26 431.008 2083.41 430.024 2082.34 429.357C2081.27 428.689 2080.08 428.355 2078.76 428.355C2077.44 428.355 2076.24 428.689 2075.17 429.357C2074.1 430.024 2073.26 431.008 2072.62 432.308C2072 433.607 2071.69 435.202 2071.69 437.091C2071.69 438.98 2072 440.575 2072.62 441.874C2073.26 443.174 2074.1 444.158 2075.17 444.825C2076.24 445.493 2077.44 445.827 2078.76 445.827C2080.08 445.827 2081.27 445.493 2082.34 444.825C2083.41 444.158 2084.26 443.174 2084.89 441.874C2085.52 440.575 2085.83 438.98 2085.83 437.091ZM2116.7 448.298C2114.77 448.298 2113.07 447.844 2111.6 446.935C2110.15 446.026 2109.01 444.733 2108.2 443.057C2107.39 441.381 2106.98 439.392 2106.98 437.091C2106.98 435.365 2107.22 433.813 2107.69 432.435C2108.17 431.05 2108.84 429.871 2109.7 428.898C2110.56 427.925 2111.58 427.18 2112.76 426.661C2113.93 426.143 2115.22 425.884 2116.61 425.884C2117.76 425.884 2118.84 426.058 2119.85 426.406C2120.86 426.746 2121.76 427.233 2122.57 427.865C2123.38 428.49 2124.05 429.239 2124.58 430.113C2125.12 430.979 2125.49 431.942 2125.69 433H2122.96C2122.74 432.283 2122.44 431.64 2122.05 431.072C2121.65 430.496 2121.19 430.006 2120.64 429.602C2120.09 429.197 2119.48 428.888 2118.81 428.675C2118.13 428.462 2117.4 428.355 2116.61 428.355C2115.32 428.355 2114.14 428.689 2113.06 429.357C2111.99 430.024 2111.14 431.008 2110.5 432.308C2109.86 433.607 2109.54 435.202 2109.54 437.091C2109.54 438.98 2109.85 440.575 2110.49 441.874C2111.12 443.174 2111.97 444.158 2113.05 444.825C2114.13 445.493 2115.35 445.827 2116.7 445.827C2118 445.827 2119.14 445.543 2120.12 444.974C2121.1 444.399 2121.87 443.611 2122.43 442.609C2122.98 441.601 2123.26 440.45 2123.26 439.158L2123.6 439.435H2117.29V437.091H2125.82V448H2123.6L2123.28 445.337H2123.17C2122.34 446.288 2121.42 447.02 2120.39 447.531C2119.37 448.043 2118.14 448.298 2116.7 448.298ZM2145.33 448V426.182H2152.71C2154.41 426.182 2155.81 426.473 2156.9 427.055C2158 427.631 2158.81 428.423 2159.33 429.431C2159.86 430.44 2160.12 431.587 2160.12 432.872C2160.12 434.158 2159.86 435.298 2159.33 436.292C2158.81 437.286 2158 438.067 2156.91 438.636C2155.83 439.197 2154.44 439.477 2152.75 439.477H2146.78V437.091H2152.66C2153.83 437.091 2154.77 436.92 2155.48 436.58C2156.19 436.239 2156.71 435.756 2157.03 435.131C2157.36 434.499 2157.52 433.746 2157.52 432.872C2157.52 431.999 2157.36 431.235 2157.03 430.582C2156.7 429.928 2156.18 429.424 2155.46 429.069C2154.75 428.707 2153.8 428.526 2152.62 428.526H2147.98V448H2145.33ZM2155.6 438.199L2160.97 448H2157.9L2152.62 438.199H2155.6ZM2180.42 448H2177.65L2185.66 426.182H2188.39L2196.4 448H2193.63L2187.11 429.634H2186.94L2180.42 448ZM2181.44 439.477H2192.61V441.821H2181.44V439.477ZM2214.8 448V426.182H2222.17C2223.88 426.182 2225.28 426.491 2226.37 427.109C2227.46 427.719 2228.27 428.547 2228.79 429.591C2229.32 430.635 2229.58 431.8 2229.58 433.085C2229.58 434.371 2229.32 435.539 2228.79 436.59C2228.28 437.641 2227.47 438.479 2226.39 439.104C2225.3 439.722 2223.91 440.031 2222.21 440.031H2216.93V437.688H2222.13C2223.3 437.688 2224.24 437.485 2224.95 437.08C2225.66 436.675 2226.17 436.129 2226.49 435.44C2226.82 434.744 2226.98 433.959 2226.98 433.085C2226.98 432.212 2226.82 431.43 2226.49 430.741C2226.17 430.053 2225.66 429.513 2224.94 429.122C2224.22 428.724 2223.27 428.526 2222.08 428.526H2217.44V448H2214.8ZM2248.84 448V426.182H2251.48V435.898H2263.11V426.182H2265.76V448H2263.11V438.241H2251.48V448H2248.84ZM2284.17 426.182H2287.2L2293.25 436.366H2293.5L2299.55 426.182H2302.58L2294.7 439.009V448H2292.05V439.009L2284.17 426.182Z" fill="#E3E1D3"/>
<path d="M1496.21 556L1469.41 502.96V550.4L1479.01 551.6V552H1457.41V551.6L1467.01 550.4V492H1467.41L1494.21 545.04V497.6L1484.61 496.4V496H1506.21V496.4L1496.61 497.6V556H1496.21ZM1529.01 552V551.6L1538.77 550.4L1557.41 493.6H1557.81L1576.29 550.4L1586.05 551.6V552H1563.33V551.6L1572.85 550.4L1567.49 533.68H1546.85L1541.41 550.4L1550.93 551.6V552H1529.01ZM1547.57 531.28H1566.69L1557.17 501.52L1547.57 531.28ZM1611.94 552V551.6L1621.54 550.4V498.4H1606.9L1604.42 507.84L1604.02 507.76L1605.46 497.44L1605.62 496H1640.82L1640.98 497.44L1642.42 507.76L1642.02 507.84L1639.54 498.4H1624.74V550.4L1633.38 551.6V552H1611.94ZM1660.42 552V551.6L1670.18 550.4L1688.82 493.6H1689.22L1707.7 550.4L1717.46 551.6V552H1694.74V551.6L1704.26 550.4L1698.9 533.68H1678.26L1672.82 550.4L1682.34 551.6V552H1660.42ZM1678.98 531.28H1698.1L1688.58 501.52L1678.98 531.28ZM1740.63 552V551.6L1750.23 550.4V497.6L1740.63 496.4V496H1763.51V496.4L1753.43 497.6V549.6H1775.74L1778.23 540.16L1778.63 540.24L1777.19 550.56L1777.03 552H1740.63ZM1810.63 552V551.6L1820.23 550.4V497.6L1810.63 496.4V496H1833.03V496.4L1823.43 497.6V550.4L1833.03 551.6V552H1810.63ZM1856.2 552V551.6L1865.96 550.4L1884.6 493.6H1885L1903.48 550.4L1913.24 551.6V552H1890.52V551.6L1900.04 550.4L1894.68 533.68H1874.04L1868.6 550.4L1878.12 551.6V552H1856.2ZM1874.76 531.28H1893.88L1884.36 501.52L1874.76 531.28ZM1976.02 552V551.6L1985.62 550.4V497.6L1976.02 496.4V496H1996.66C2005.06 496 2011.06 501.6 2011.06 509.52C2011.06 515.04 2008.1 519.52 2003.62 521.68C2010.58 523.12 2015.62 529.12 2015.62 536.56C2015.62 545.6 2008.98 552 1999.62 552H1976.02ZM1996.66 521.2C2002.98 521.2 2007.7 516.32 2007.7 509.76C2007.7 503.28 2002.98 498.4 1996.66 498.4H1988.82V521.2H1996.66ZM1988.82 549.6H1999.62C2006.82 549.6 2012.26 544 2012.26 536.48C2012.26 529.12 2006.82 523.44 1999.62 523.44H1988.82V549.6ZM2074.77 553.6C2067.57 553.6 2060.45 548.4 2060.45 537.92V497.6L2050.85 496.4V496H2072.29V496.4L2063.65 497.6V537.6C2063.65 545.36 2068.45 550.8 2075.25 550.8C2082.05 550.8 2086.85 545.44 2086.85 537.92V497.6L2078.21 496.4V496H2098.85V496.4L2089.25 497.6V537.6C2089.25 548.32 2081.97 553.6 2074.77 553.6ZM2136.39 552V551.6L2145.99 550.4V498.4H2131.35L2128.87 507.84L2128.47 507.76L2129.91 497.44L2130.07 496H2165.27L2165.43 497.44L2166.87 507.76L2166.47 507.84L2163.99 498.4H2149.19V550.4L2157.83 551.6V552H2136.39ZM2226.89 553.6C2209.77 553.6 2196.89 540.72 2196.89 523.6C2196.89 506.48 2209.77 493.6 2226.89 493.6C2244.01 493.6 2256.89 506.48 2256.89 523.6C2256.89 540.72 2244.01 553.6 2226.89 553.6ZM2226.89 551.2C2242.49 551.2 2253.53 539.76 2253.53 523.6C2253.53 507.44 2242.49 496 2226.89 496C2211.29 496 2200.25 507.44 2200.25 523.6C2200.25 539.76 2211.29 551.2 2226.89 551.2ZM2309.93 555.2L2291.37 497.6L2281.69 496.4V496H2304.41V496.4L2294.89 497.6L2310.57 547.2L2326.33 497.6L2316.81 496.4V496H2338.73V496.4L2329.05 497.6L2310.33 555.2H2309.93ZM2351.98 552V551.6L2361.74 550.4L2380.38 493.6H2380.78L2399.26 550.4L2409.02 551.6V552H2386.3V551.6L2395.82 550.4L2390.46 533.68H2369.82L2364.38 550.4L2373.9 551.6V552H2351.98ZM2370.54 531.28H2389.66L2380.14 501.52L2370.54 531.28Z" fill="#E3E1D3"/>
</svg>
