<svg width="3840" height="2160" viewBox="0 0 3840 2160" fill="none" xmlns="http://www.w3.org/2000/svg">
<rect width="3840" height="2160" fill="black"/>
<path d="M1831.24 271V249.182H1844.4V251.526H1833.88V258.898H1843.72V261.241H1833.88V268.656H1844.57V271H1831.24ZM1870.9 271H1864.17V249.182H1871.2C1873.31 249.182 1875.12 249.619 1876.63 250.492C1878.14 251.359 1879.29 252.605 1880.09 254.232C1880.89 255.851 1881.3 257.79 1881.3 260.048C1881.3 262.321 1880.89 264.278 1880.08 265.918C1879.27 267.552 1878.09 268.809 1876.54 269.69C1875 270.563 1873.11 271 1870.9 271ZM1866.81 268.656H1870.73C1872.53 268.656 1874.03 268.308 1875.21 267.612C1876.4 266.916 1877.28 265.925 1877.87 264.64C1878.45 263.354 1878.74 261.824 1878.74 260.048C1878.74 258.287 1878.45 256.771 1877.88 255.499C1877.3 254.221 1876.44 253.241 1875.3 252.559C1874.15 251.87 1872.73 251.526 1871.03 251.526H1866.81V268.656ZM1903.37 249.182V271H1900.73V249.182H1903.37ZM1922.47 251.526V249.182H1938.84V251.526H1931.98V271H1929.34V251.526H1922.47ZM1975.42 260.091C1975.42 262.392 1975 264.381 1974.17 266.057C1973.34 267.733 1972.2 269.026 1970.75 269.935C1969.3 270.844 1967.65 271.298 1965.79 271.298C1963.92 271.298 1962.27 270.844 1960.82 269.935C1959.37 269.026 1958.23 267.733 1957.4 266.057C1956.57 264.381 1956.16 262.392 1956.16 260.091C1956.16 257.79 1956.57 255.801 1957.4 254.125C1958.23 252.449 1959.37 251.156 1960.82 250.247C1962.27 249.338 1963.92 248.884 1965.79 248.884C1967.65 248.884 1969.3 249.338 1970.75 250.247C1972.2 251.156 1973.34 252.449 1974.17 254.125C1975 255.801 1975.42 257.79 1975.42 260.091ZM1972.86 260.091C1972.86 258.202 1972.54 256.607 1971.91 255.308C1971.29 254.008 1970.44 253.024 1969.37 252.357C1968.3 251.689 1967.11 251.355 1965.79 251.355C1964.46 251.355 1963.27 251.689 1962.2 252.357C1961.13 253.024 1960.28 254.008 1959.65 255.308C1959.02 256.607 1958.71 258.202 1958.71 260.091C1958.71 261.98 1959.02 263.575 1959.65 264.874C1960.28 266.174 1961.13 267.158 1962.2 267.825C1963.27 268.493 1964.46 268.827 1965.79 268.827C1967.11 268.827 1968.3 268.493 1969.37 267.825C1970.44 267.158 1971.29 266.174 1971.91 264.874C1972.54 263.575 1972.86 261.98 1972.86 260.091ZM1994.86 271V249.182H2002.23C2003.94 249.182 2005.33 249.473 2006.43 250.055C2007.52 250.631 2008.33 251.423 2008.86 252.431C2009.38 253.44 2009.65 254.587 2009.65 255.872C2009.65 257.158 2009.38 258.298 2008.86 259.292C2008.33 260.286 2007.53 261.067 2006.44 261.636C2005.35 262.197 2003.96 262.477 2002.27 262.477H1996.31V260.091H2002.19C2003.35 260.091 2004.29 259.92 2005 259.58C2005.72 259.239 2006.24 258.756 2006.56 258.131C2006.88 257.499 2007.05 256.746 2007.05 255.872C2007.05 254.999 2006.88 254.235 2006.56 253.582C2006.23 252.928 2005.71 252.424 2004.99 252.069C2004.27 251.707 2003.32 251.526 2002.15 251.526H1997.5V271H1994.86ZM2005.13 261.199L2010.5 271H2007.43L2002.15 261.199H2005.13Z" fill="#E3E1D3"/>
<path d="M1530.65 378.2L1512.09 320.6L1502.41 319.4V319H1525.13V319.4L1515.61 320.6L1531.29 370.2L1547.05 320.6L1537.53 319.4V319H1559.45V319.4L1549.77 320.6L1531.05 378.2H1530.65ZM1583.07 375V374.6L1592.67 373.4V320.6L1583.07 319.4V319H1605.95V319.4L1595.87 320.6V372.6H1618.19L1620.67 363.16L1621.07 363.24L1619.63 373.56L1619.47 375H1583.07ZM1644.27 375V374.6L1654.03 373.4L1672.67 316.6H1673.07L1691.55 373.4L1701.31 374.6V375H1678.59V374.6L1688.11 373.4L1682.75 356.68H1662.11L1656.67 373.4L1666.19 374.6V375H1644.27ZM1662.83 354.28H1681.95L1672.43 324.52L1662.83 354.28ZM1724.48 375V374.6L1734.08 373.4V320.6L1724.48 319.4V319H1753.28C1769.28 319 1781.28 331 1781.28 347C1781.28 363 1769.28 375 1753.28 375H1724.48ZM1737.28 372.6H1753.2C1767.76 372.6 1778.08 362.04 1778.08 347C1778.08 331.96 1767.76 321.4 1753.2 321.4H1737.28V372.6ZM1861.22 375V374.6L1870.82 373.4V349.4L1857.46 320.6L1847.7 319.4V319H1870.58V319.4L1861.14 320.6L1872.74 346.2L1884.26 320.6L1874.82 319.4V319H1896.9V319.4L1887.14 320.6L1874.02 348.68V373.4L1882.66 374.6V375H1861.22ZM1912.55 375V374.6L1922.31 373.4L1940.95 316.6H1941.35L1959.83 373.4L1969.59 374.6V375H1946.87V374.6L1956.39 373.4L1951.03 356.68H1930.39L1924.95 373.4L1934.47 374.6V375H1912.55ZM1931.11 354.28H1950.23L1940.71 324.52L1931.11 354.28ZM2039.56 383.24L2010.12 341.88L2027.32 320.6L2018.04 319.4V319H2040.36V319.4L2030.44 320.6L2013.88 340.92L2040.2 382.76L2039.56 383.24ZM1992.76 375V374.6L2002.36 373.4V320.6L1992.76 319.4V319H2015.16V319.4L2005.56 320.6V373.4L2015.16 374.6V375H1992.76ZM2091.51 376.6C2084.31 376.6 2077.19 371.4 2077.19 360.92V320.6L2067.59 319.4V319H2089.03V319.4L2080.39 320.6V360.6C2080.39 368.36 2085.19 373.8 2091.99 373.8C2098.79 373.8 2103.59 368.44 2103.59 360.92V320.6L2094.95 319.4V319H2115.59V319.4L2105.99 320.6V360.6C2105.99 371.32 2098.71 376.6 2091.51 376.6ZM2185.61 379L2158.81 325.96V373.4L2168.41 374.6V375H2146.81V374.6L2156.41 373.4V315H2156.81L2183.61 368.04V320.6L2174.01 319.4V319H2195.61V319.4L2186.01 320.6V379H2185.61ZM2227.21 375V374.6L2236.81 373.4V320.6L2227.21 319.4V319H2249.61V319.4L2240.01 320.6V373.4L2249.61 374.6V375H2227.21ZM2319.99 379L2293.19 325.96V373.4L2302.79 374.6V375H2281.19V374.6L2290.79 373.4V315H2291.19L2317.99 368.04V320.6L2308.39 319.4V319H2329.99V319.4L2320.39 320.6V379H2319.99Z" fill="#E3E1D3"/>
<path d="M1858.83 492H1856.18C1856.03 491.24 1855.76 490.572 1855.36 489.997C1854.98 489.422 1854.51 488.939 1853.96 488.548C1853.41 488.151 1852.8 487.852 1852.14 487.653C1851.47 487.455 1850.77 487.355 1850.05 487.355C1848.73 487.355 1847.53 487.689 1846.46 488.357C1845.39 489.024 1844.54 490.008 1843.91 491.308C1843.29 492.607 1842.97 494.202 1842.97 496.091C1842.97 497.98 1843.29 499.575 1843.91 500.874C1844.54 502.174 1845.39 503.158 1846.46 503.825C1847.53 504.493 1848.73 504.827 1850.05 504.827C1850.77 504.827 1851.47 504.727 1852.14 504.528C1852.8 504.33 1853.41 504.035 1853.96 503.644C1854.51 503.246 1854.98 502.76 1855.36 502.185C1855.76 501.602 1856.03 500.935 1856.18 500.182H1858.83C1858.63 501.297 1858.27 502.295 1857.74 503.175C1857.21 504.056 1856.56 504.805 1855.78 505.423C1855 506.034 1854.12 506.499 1853.15 506.819C1852.18 507.138 1851.15 507.298 1850.05 507.298C1848.19 507.298 1846.53 506.844 1845.08 505.935C1843.64 505.026 1842.5 503.733 1841.66 502.057C1840.83 500.381 1840.42 498.392 1840.42 496.091C1840.42 493.79 1840.83 491.801 1841.66 490.125C1842.5 488.449 1843.64 487.156 1845.08 486.247C1846.53 485.338 1848.19 484.884 1850.05 484.884C1851.15 484.884 1852.18 485.043 1853.15 485.363C1854.12 485.683 1855 486.151 1855.78 486.769C1856.56 487.38 1857.21 488.126 1857.74 489.006C1858.27 489.88 1858.63 490.878 1858.83 492ZM1896.51 496.091C1896.51 498.392 1896.09 500.381 1895.26 502.057C1894.43 503.733 1893.29 505.026 1891.84 505.935C1890.39 506.844 1888.74 507.298 1886.87 507.298C1885.01 507.298 1883.36 506.844 1881.91 505.935C1880.46 505.026 1879.32 503.733 1878.49 502.057C1877.66 500.381 1877.24 498.392 1877.24 496.091C1877.24 493.79 1877.66 491.801 1878.49 490.125C1879.32 488.449 1880.46 487.156 1881.91 486.247C1883.36 485.338 1885.01 484.884 1886.87 484.884C1888.74 484.884 1890.39 485.338 1891.84 486.247C1893.29 487.156 1894.43 488.449 1895.26 490.125C1896.09 491.801 1896.51 493.79 1896.51 496.091ZM1893.95 496.091C1893.95 494.202 1893.63 492.607 1893 491.308C1892.38 490.008 1891.53 489.024 1890.45 488.357C1889.39 487.689 1888.2 487.355 1886.87 487.355C1885.55 487.355 1884.36 487.689 1883.28 488.357C1882.22 489.024 1881.37 490.008 1880.74 491.308C1880.11 492.607 1879.8 494.202 1879.8 496.091C1879.8 497.98 1880.11 499.575 1880.74 500.874C1881.37 502.174 1882.22 503.158 1883.28 503.825C1884.36 504.493 1885.55 504.827 1886.87 504.827C1888.2 504.827 1889.39 504.493 1890.45 503.825C1891.53 503.158 1892.38 502.174 1893 500.874C1893.63 499.575 1893.95 497.98 1893.95 496.091ZM1915.95 507V485.182H1918.59V504.656H1928.73V507H1915.95ZM1965.38 496.091C1965.38 498.392 1964.97 500.381 1964.14 502.057C1963.3 503.733 1962.16 505.026 1960.72 505.935C1959.27 506.844 1957.61 507.298 1955.75 507.298C1953.89 507.298 1952.24 506.844 1950.79 505.935C1949.34 505.026 1948.2 503.733 1947.37 502.057C1946.54 500.381 1946.12 498.392 1946.12 496.091C1946.12 493.79 1946.54 491.801 1947.37 490.125C1948.2 488.449 1949.34 487.156 1950.79 486.247C1952.24 485.338 1953.89 484.884 1955.75 484.884C1957.61 484.884 1959.27 485.338 1960.72 486.247C1962.16 487.156 1963.3 488.449 1964.14 490.125C1964.97 491.801 1965.38 493.79 1965.38 496.091ZM1962.83 496.091C1962.83 494.202 1962.51 492.607 1961.88 491.308C1961.25 490.008 1960.4 489.024 1959.33 488.357C1958.27 487.689 1957.07 487.355 1955.75 487.355C1954.43 487.355 1953.23 487.689 1952.16 488.357C1951.1 489.024 1950.25 490.008 1949.62 491.308C1948.99 492.607 1948.68 494.202 1948.68 496.091C1948.68 497.98 1948.99 499.575 1949.62 500.874C1950.25 502.174 1951.1 503.158 1952.16 503.825C1953.23 504.493 1954.43 504.827 1955.75 504.827C1957.07 504.827 1958.27 504.493 1959.33 503.825C1960.4 503.158 1961.25 502.174 1961.88 500.874C1962.51 499.575 1962.83 497.98 1962.83 496.091ZM1984.82 507V485.182H1992.2C1993.9 485.182 1995.3 485.473 1996.39 486.055C1997.49 486.631 1998.3 487.423 1998.82 488.431C1999.35 489.44 1999.61 490.587 1999.61 491.872C1999.61 493.158 1999.35 494.298 1998.82 495.292C1998.3 496.286 1997.49 497.067 1996.4 497.636C1995.32 498.197 1993.93 498.477 1992.24 498.477H1986.27V496.091H1992.15C1993.32 496.091 1994.26 495.92 1994.97 495.58C1995.68 495.239 1996.2 494.756 1996.52 494.131C1996.85 493.499 1997.01 492.746 1997.01 491.872C1997.01 490.999 1996.85 490.235 1996.52 489.582C1996.2 488.928 1995.67 488.424 1994.96 488.069C1994.24 487.707 1993.29 487.526 1992.11 487.526H1987.47V507H1984.82ZM1995.09 497.199L2000.46 507H1997.4L1992.11 497.199H1995.09Z" fill="#E3E1D3"/>
<path d="M1231.15 611V610.6L1240.91 609.4L1259.55 552.6H1259.95L1278.43 609.4L1288.19 610.6V611H1265.47V610.6L1274.99 609.4L1269.63 592.68H1248.99L1243.55 609.4L1253.07 610.6V611H1231.15ZM1249.71 590.28H1268.83L1259.31 560.52L1249.71 590.28ZM1311.35 611V610.6L1320.95 609.4V556.6L1311.35 555.4V555H1334.23V555.4L1324.15 556.6V608.6H1346.47L1348.95 599.16L1349.35 599.24L1347.91 609.56L1347.75 611H1311.35ZM1407.83 589.88L1404.87 582.44H1394.15V608.6H1416.95L1418.15 599H1418.55V611H1381.35V610.6L1390.95 609.4V556.6L1381.35 555.4V555H1417.75V567H1417.35L1416.15 557.4H1394.15V580.2H1404.87L1407.83 572.76L1408.23 572.84L1406.39 581.08V581.56L1408.23 589.8L1407.83 589.88ZM1477.94 611V610.6L1486.9 609.4L1475.38 584.52L1464.02 609.4L1472.98 610.6V611H1451.38V610.6L1461.14 609.4L1474.18 581.88L1462.1 556.6L1452.34 555.4V555H1474.34V555.4L1465.86 556.6L1475.78 578.28L1485.7 556.6L1477.22 555.4V555H1498.34V555.4L1488.58 556.6L1477.06 581L1490.58 609.4L1500.42 610.6V611H1477.94ZM1521.61 611V610.6L1531.37 609.4L1550.01 552.6H1550.41L1568.89 609.4L1578.65 610.6V611H1555.93V610.6L1565.45 609.4L1560.09 592.68H1539.45L1534.01 609.4L1543.53 610.6V611H1521.61ZM1540.17 590.28H1559.29L1549.77 560.52L1540.17 590.28ZM1640.22 615L1613.42 561.96V609.4L1623.02 610.6V611H1601.42V610.6L1611.02 609.4V551H1611.42L1638.22 604.04V556.6L1628.62 555.4V555H1650.22V555.4L1640.62 556.6V615H1640.22ZM1681.82 611V610.6L1691.42 609.4V556.6L1681.82 555.4V555H1710.62C1726.62 555 1738.62 567 1738.62 583C1738.62 599 1726.62 611 1710.62 611H1681.82ZM1694.62 608.6H1710.54C1725.1 608.6 1735.42 598.04 1735.42 583C1735.42 567.96 1725.1 557.4 1710.54 557.4H1694.62V608.6ZM1797.91 589.88L1794.95 582.44H1784.23V608.6H1807.03L1808.23 599H1808.63V611H1771.43V610.6L1781.03 609.4V556.6L1771.43 555.4V555H1807.83V567H1807.43L1806.23 557.4H1784.23V580.2H1794.95L1797.91 572.76L1798.31 572.84L1796.47 581.08V581.56L1798.31 589.8L1797.91 589.88ZM1890.42 619.24L1860.18 577L1860.42 576.52L1864.98 578.12H1866.1C1873.62 578.12 1877.78 573.64 1877.78 567.8C1877.78 561.8 1873.14 557.4 1866.9 557.4H1856.26V609.4L1866.34 610.6V611H1843.46V610.6L1853.06 609.4V556.6L1843.46 555.4V555H1867.54C1875.54 555 1881.14 560.2 1881.14 567.64C1881.14 574.84 1875.54 580.12 1867.54 580.12H1866.82L1891.06 618.76L1890.42 619.24ZM1959.89 611V610.6L1984.45 557.4H1961.97L1959.49 566.84L1959.09 566.76L1960.53 556.44L1960.69 555H1988.69V555.4L1964.13 608.6H1986.61L1989.09 599.16L1989.49 599.24L1988.05 609.56L1987.89 611H1959.89ZM2052.31 612.6C2035.19 612.6 2022.31 599.72 2022.31 582.6C2022.31 565.48 2035.19 552.6 2052.31 552.6C2069.43 552.6 2082.31 565.48 2082.31 582.6C2082.31 599.72 2069.43 612.6 2052.31 612.6ZM2052.31 610.2C2067.91 610.2 2078.95 598.76 2078.95 582.6C2078.95 566.44 2067.91 555 2052.31 555C2036.71 555 2025.67 566.44 2025.67 582.6C2025.67 598.76 2036.71 610.2 2052.31 610.2ZM2115.1 611V610.6L2124.7 609.4V556.6L2115.1 555.4V555H2137.98V555.4L2127.9 556.6V608.6H2150.22L2152.7 599.16L2153.1 599.24L2151.66 609.56L2151.5 611H2115.1ZM2215.12 612.6C2198 612.6 2185.12 599.72 2185.12 582.6C2185.12 565.48 2198 552.6 2215.12 552.6C2232.24 552.6 2245.12 565.48 2245.12 582.6C2245.12 599.72 2232.24 612.6 2215.12 612.6ZM2215.12 610.2C2230.72 610.2 2241.76 598.76 2241.76 582.6C2241.76 566.44 2230.72 555 2215.12 555C2199.52 555 2188.48 566.44 2188.48 582.6C2188.48 598.76 2199.52 610.2 2215.12 610.2ZM2283.05 611V610.6L2292.65 609.4V557.4H2278.01L2275.53 566.84L2275.13 566.76L2276.57 556.44L2276.73 555H2311.93L2312.09 556.44L2313.53 566.76L2313.13 566.84L2310.65 557.4H2295.85V609.4L2304.49 610.6V611H2283.05ZM2331.54 611V610.6L2341.3 609.4L2359.94 552.6H2360.34L2378.82 609.4L2388.58 610.6V611H2365.86V610.6L2375.38 609.4L2370.02 592.68H2349.38L2343.94 609.4L2353.46 610.6V611H2331.54ZM2350.1 590.28H2369.22L2359.7 560.52L2350.1 590.28ZM2458.7 619.24L2428.46 577L2428.7 576.52L2433.26 578.12H2434.38C2441.9 578.12 2446.06 573.64 2446.06 567.8C2446.06 561.8 2441.42 557.4 2435.18 557.4H2424.54V609.4L2434.62 610.6V611H2411.74V610.6L2421.34 609.4V556.6L2411.74 555.4V555H2435.82C2443.82 555 2449.42 560.2 2449.42 567.64C2449.42 574.84 2443.82 580.12 2435.82 580.12H2435.1L2459.34 618.76L2458.7 619.24ZM2513.85 589.88L2510.89 582.44H2500.17V608.6H2522.97L2524.17 599H2524.57V611H2487.37V610.6L2496.97 609.4V556.6L2487.37 555.4V555H2523.77V567H2523.37L2522.17 557.4H2500.17V580.2H2510.89L2513.85 572.76L2514.25 572.84L2512.41 581.08V581.56L2514.25 589.8L2513.85 589.88ZM2579.64 614.2L2561.08 556.6L2551.4 555.4V555H2574.12V555.4L2564.6 556.6L2580.28 606.2L2596.04 556.6L2586.52 555.4V555H2608.44V555.4L2598.76 556.6L2580.04 614.2H2579.64Z" fill="#E3E1D3"/>
<path d="M1785.42 743H1778.69V721.182H1785.72C1787.84 721.182 1789.65 721.619 1791.16 722.492C1792.66 723.359 1793.82 724.605 1794.62 726.232C1795.42 727.851 1795.82 729.79 1795.82 732.048C1795.82 734.321 1795.42 736.278 1794.61 737.918C1793.8 739.552 1792.62 740.809 1791.07 741.69C1789.52 742.563 1787.64 743 1785.42 743ZM1781.33 740.656H1785.25C1787.06 740.656 1788.55 740.308 1789.74 739.612C1790.93 738.916 1791.81 737.925 1792.39 736.64C1792.97 735.354 1793.27 733.824 1793.27 732.048C1793.27 730.287 1792.98 728.771 1792.4 727.499C1791.83 726.221 1790.97 725.241 1789.82 724.559C1788.68 723.87 1787.26 723.526 1785.55 723.526H1781.33V740.656ZM1815.25 743V721.182H1828.42V723.526H1817.9V730.898H1827.74V733.241H1817.9V740.656H1828.59V743H1815.25ZM1860.12 726.636C1859.99 725.557 1859.47 724.719 1858.56 724.122C1857.65 723.526 1856.54 723.227 1855.22 723.227C1854.25 723.227 1853.4 723.384 1852.68 723.696C1851.96 724.009 1851.4 724.438 1851 724.985C1850.6 725.532 1850.4 726.153 1850.4 726.849C1850.4 727.432 1850.54 727.933 1850.82 728.352C1851.1 728.763 1851.46 729.108 1851.9 729.385C1852.34 729.655 1852.8 729.879 1853.29 730.056C1853.77 730.227 1854.21 730.365 1854.62 730.472L1856.83 731.068C1857.4 731.217 1858.03 731.423 1858.73 731.686C1859.43 731.949 1860.11 732.308 1860.74 732.762C1861.39 733.21 1861.92 733.785 1862.34 734.488C1862.76 735.191 1862.97 736.054 1862.97 737.077C1862.97 738.256 1862.66 739.321 1862.04 740.273C1861.43 741.224 1860.54 741.981 1859.36 742.542C1858.19 743.103 1856.76 743.384 1855.09 743.384C1853.52 743.384 1852.17 743.131 1851.03 742.627C1849.89 742.123 1849 741.42 1848.34 740.518C1847.7 739.616 1847.33 738.568 1847.25 737.375H1849.97C1850.04 738.199 1850.32 738.881 1850.8 739.42C1851.29 739.953 1851.91 740.351 1852.66 740.614C1853.41 740.869 1854.22 740.997 1855.09 740.997C1856.1 740.997 1857 740.834 1857.8 740.507C1858.61 740.173 1859.24 739.712 1859.71 739.122C1860.18 738.526 1860.41 737.83 1860.41 737.034C1860.41 736.31 1860.21 735.72 1859.81 735.266C1859.4 734.811 1858.87 734.442 1858.21 734.158C1857.55 733.874 1856.83 733.625 1856.07 733.412L1853.38 732.645C1851.68 732.155 1850.33 731.455 1849.33 730.546C1848.34 729.637 1847.84 728.447 1847.84 726.977C1847.84 725.756 1848.17 724.69 1848.83 723.781C1849.5 722.865 1850.4 722.155 1851.52 721.651C1852.65 721.139 1853.91 720.884 1855.3 720.884C1856.71 720.884 1857.96 721.136 1859.05 721.64C1860.14 722.137 1861.01 722.819 1861.65 723.685C1862.3 724.552 1862.64 725.536 1862.67 726.636H1860.12ZM1884.96 721.182V743H1882.31V721.182H1884.96ZM1914.12 743.298C1912.19 743.298 1910.49 742.844 1909.03 741.935C1907.57 741.026 1906.43 739.733 1905.62 738.057C1904.81 736.381 1904.4 734.392 1904.4 732.091C1904.4 730.365 1904.64 728.813 1905.12 727.435C1905.59 726.05 1906.26 724.871 1907.12 723.898C1907.99 722.925 1909 722.18 1910.18 721.661C1911.36 721.143 1912.64 720.884 1914.03 720.884C1915.18 720.884 1916.26 721.058 1917.27 721.406C1918.28 721.746 1919.19 722.233 1919.99 722.865C1920.8 723.49 1921.47 724.239 1922 725.113C1922.54 725.979 1922.91 726.942 1923.11 728H1920.38C1920.16 727.283 1919.86 726.64 1919.47 726.072C1919.08 725.496 1918.61 725.006 1918.06 724.602C1917.51 724.197 1916.9 723.888 1916.23 723.675C1915.55 723.462 1914.82 723.355 1914.03 723.355C1912.74 723.355 1911.56 723.689 1910.49 724.357C1909.41 725.024 1908.56 726.008 1907.92 727.308C1907.28 728.607 1906.96 730.202 1906.96 732.091C1906.96 733.98 1907.27 735.575 1907.91 736.874C1908.54 738.174 1909.39 739.158 1910.47 739.825C1911.55 740.493 1912.77 740.827 1914.12 740.827C1915.42 740.827 1916.56 740.543 1917.54 739.974C1918.52 739.399 1919.3 738.611 1919.85 737.609C1920.4 736.601 1920.68 735.45 1920.68 734.158L1921.02 734.435H1914.71V732.091H1923.24V743H1921.02L1920.7 740.337H1920.6C1919.76 741.288 1918.84 742.02 1917.81 742.531C1916.79 743.043 1915.56 743.298 1914.12 743.298ZM1960.06 721.182V743H1957.5L1945.61 725.869H1945.4V743H1942.75V721.182H1945.31L1957.24 738.355H1957.46V721.182H1960.06ZM1980.34 743V721.182H1993.51V723.526H1982.98V730.898H1992.83V733.241H1982.98V740.656H1993.68V743H1980.34ZM2013.27 743V721.182H2020.64C2022.35 721.182 2023.75 721.473 2024.84 722.055C2025.94 722.631 2026.74 723.423 2027.27 724.431C2027.8 725.44 2028.06 726.587 2028.06 727.872C2028.06 729.158 2027.8 730.298 2027.27 731.292C2026.74 732.286 2025.94 733.067 2024.85 733.636C2023.77 734.197 2022.38 734.477 2020.69 734.477H2014.72V732.091H2020.6C2021.77 732.091 2022.7 731.92 2023.41 731.58C2024.13 731.239 2024.65 730.756 2024.97 730.131C2025.3 729.499 2025.46 728.746 2025.46 727.872C2025.46 726.999 2025.3 726.235 2024.97 725.582C2024.64 724.928 2024.12 724.424 2023.4 724.069C2022.69 723.707 2021.74 723.526 2020.56 723.526H2015.91V743H2013.27ZM2023.54 733.199L2028.91 743H2025.84L2020.56 733.199H2023.54ZM2059.39 726.636C2059.27 725.557 2058.75 724.719 2057.84 724.122C2056.93 723.526 2055.81 723.227 2054.49 723.227C2053.53 723.227 2052.68 723.384 2051.96 723.696C2051.24 724.009 2050.68 724.438 2050.27 724.985C2049.88 725.532 2049.68 726.153 2049.68 726.849C2049.68 727.432 2049.82 727.933 2050.09 728.352C2050.38 728.763 2050.74 729.108 2051.18 729.385C2051.62 729.655 2052.08 729.879 2052.56 730.056C2053.05 730.227 2053.49 730.365 2053.9 730.472L2056.11 731.068C2056.68 731.217 2057.31 731.423 2058.01 731.686C2058.71 731.949 2059.38 732.308 2060.02 732.762C2060.67 733.21 2061.2 733.785 2061.62 734.488C2062.04 735.191 2062.25 736.054 2062.25 737.077C2062.25 738.256 2061.94 739.321 2061.32 740.273C2060.71 741.224 2059.82 741.981 2058.64 742.542C2057.46 743.103 2056.04 743.384 2054.36 743.384C2052.8 743.384 2051.45 743.131 2050.31 742.627C2049.17 742.123 2048.27 741.42 2047.62 740.518C2046.97 739.616 2046.61 738.568 2046.52 737.375H2049.25C2049.32 738.199 2049.6 738.881 2050.08 739.42C2050.57 739.953 2051.19 740.351 2051.94 740.614C2052.69 740.869 2053.5 740.997 2054.36 740.997C2055.37 740.997 2056.28 740.834 2057.08 740.507C2057.88 740.173 2058.52 739.712 2058.99 739.122C2059.46 738.526 2059.69 737.83 2059.69 737.034C2059.69 736.31 2059.49 735.72 2059.08 735.266C2058.68 734.811 2058.15 734.442 2057.49 734.158C2056.83 733.874 2056.11 733.625 2055.34 733.412L2052.66 732.645C2050.96 732.155 2049.61 731.455 2048.61 730.546C2047.62 729.637 2047.12 728.447 2047.12 726.977C2047.12 725.756 2047.45 724.69 2048.11 723.781C2048.78 722.865 2049.67 722.155 2050.8 721.651C2051.93 721.139 2053.19 720.884 2054.58 720.884C2055.98 720.884 2057.23 721.136 2058.33 721.64C2059.42 722.137 2060.29 722.819 2060.93 723.685C2061.57 724.552 2061.91 725.536 2061.95 726.636H2059.39Z" fill="#E3E1D3"/>
<path d="M855.559 847V846.6L865.319 845.4L883.959 788.6H884.359L902.839 845.4L912.599 846.6V847H889.879V846.6L899.399 845.4L894.039 828.68H873.399L867.959 845.4L877.479 846.6V847H855.559ZM874.119 826.28H893.239L883.719 796.52L874.119 826.28ZM974.166 851L947.366 797.96V845.4L956.966 846.6V847H935.366V846.6L944.966 845.4V787H945.366L972.166 840.04V792.6L962.566 791.4V791H984.166V791.4L974.566 792.6V851H974.166ZM1015.77 847V846.6L1025.37 845.4V792.6L1015.77 791.4V791H1044.57C1060.57 791 1072.57 803 1072.57 819C1072.57 835 1060.57 847 1044.57 847H1015.77ZM1028.57 844.6H1044.49C1059.05 844.6 1069.37 834.04 1069.37 819C1069.37 803.96 1059.05 793.4 1044.49 793.4H1028.57V844.6ZM1152.34 855.24L1122.1 813L1122.34 812.52L1126.9 814.12H1128.02C1135.54 814.12 1139.7 809.64 1139.7 803.8C1139.7 797.8 1135.06 793.4 1128.82 793.4H1118.18V845.4L1128.26 846.6V847H1105.38V846.6L1114.98 845.4V792.6L1105.38 791.4V791H1129.46C1137.46 791 1143.06 796.2 1143.06 803.64C1143.06 810.84 1137.46 816.12 1129.46 816.12H1128.74L1152.98 854.76L1152.34 855.24ZM1207.48 825.88L1204.52 818.44H1193.8V844.6H1216.6L1217.8 835H1218.2V847H1181V846.6L1190.6 845.4V792.6L1181 791.4V791H1217.4V803H1217L1215.8 793.4H1193.8V816.2H1204.52L1207.48 808.76L1207.88 808.84L1206.04 817.08V817.56L1207.88 825.8L1207.48 825.88ZM1260.55 847V846.6L1270.15 845.4V821.4L1256.79 792.6L1247.03 791.4V791H1269.91V791.4L1260.47 792.6L1272.07 818.2L1283.59 792.6L1274.15 791.4V791H1296.23V791.4L1286.47 792.6L1273.35 820.68V845.4L1281.99 846.6V847H1260.55ZM1392.66 848.6C1375.54 848.6 1362.66 835.72 1362.66 818.6C1362.66 801.48 1375.54 788.6 1392.66 788.6C1409.78 788.6 1422.66 801.48 1422.66 818.6C1422.66 835.72 1409.78 848.6 1392.66 848.6ZM1392.66 846.2C1408.26 846.2 1419.3 834.76 1419.3 818.6C1419.3 802.44 1408.26 791 1392.66 791C1377.06 791 1366.02 802.44 1366.02 818.6C1366.02 834.76 1377.06 846.2 1392.66 846.2ZM1455.45 847V846.6L1465.05 845.4V792.6L1455.45 791.4V791H1478.33V791.4L1468.25 792.6V844.6H1490.57L1493.05 835.16L1493.45 835.24L1492.01 845.56L1491.85 847H1455.45ZM1544.57 848.52C1536.41 848.52 1528.25 843.4 1528.25 833.08L1538.33 824.2L1538.57 824.44L1531.61 832.92C1531.61 841.72 1538.09 846.12 1544.57 846.12C1552.09 846.12 1557.69 840.68 1557.69 833.48C1557.69 827.56 1554.33 823 1548.17 820.04L1540.81 816.6C1532.81 812.92 1529.53 807.4 1529.53 802.2C1529.53 794.44 1536.01 788.6 1544.57 788.6C1552.09 788.6 1559.13 793.32 1559.45 803L1550.73 810.2L1550.49 809.96L1556.49 802.92C1556.09 794.92 1550.41 791 1544.57 791C1537.61 791 1532.41 795.8 1532.41 802.2C1532.41 806.28 1535.05 810.68 1541.93 813.64L1549.37 817C1556.81 820.28 1560.97 826.12 1560.97 833.24C1560.97 841.96 1553.93 848.52 1544.57 848.52ZM1622.33 847V846.6L1630.97 845.4V818.6H1608.57V845.4L1617.21 846.6V847H1595.77V846.6L1605.37 845.4V792.6L1595.77 791.4V791H1617.21V791.4L1608.57 792.6V816.2H1630.97V792.6L1622.33 791.4V791H1643.77V791.4L1634.17 792.6V845.4L1643.77 846.6V847H1622.33ZM1702.25 825.88L1699.29 818.44H1688.57V844.6H1711.37L1712.57 835H1712.97V847H1675.77V846.6L1685.37 845.4V792.6L1675.77 791.4V791H1712.17V803H1711.77L1710.57 793.4H1688.57V816.2H1699.29L1702.25 808.76L1702.65 808.84L1700.81 817.08V817.56L1702.65 825.8L1702.25 825.88ZM1768.04 850.2L1749.48 792.6L1739.8 791.4V791H1762.52V791.4L1753 792.6L1768.68 842.2L1784.44 792.6L1774.92 791.4V791H1796.84V791.4L1787.16 792.6L1768.44 850.2H1768.04ZM1839.57 848.52C1831.41 848.52 1823.25 843.4 1823.25 833.08L1833.33 824.2L1833.57 824.44L1826.61 832.92C1826.61 841.72 1833.09 846.12 1839.57 846.12C1847.09 846.12 1852.69 840.68 1852.69 833.48C1852.69 827.56 1849.33 823 1843.17 820.04L1835.81 816.6C1827.81 812.92 1824.53 807.4 1824.53 802.2C1824.53 794.44 1831.01 788.6 1839.57 788.6C1847.09 788.6 1854.13 793.32 1854.45 803L1845.73 810.2L1845.49 809.96L1851.49 802.92C1851.09 794.92 1845.41 791 1839.57 791C1832.61 791 1827.41 795.8 1827.41 802.2C1827.41 806.28 1830.05 810.68 1836.93 813.64L1844.37 817C1851.81 820.28 1855.97 826.12 1855.97 833.24C1855.97 841.96 1848.93 848.52 1839.57 848.52ZM1937.57 855.24L1908.13 813.88L1925.33 792.6L1916.05 791.4V791H1938.37V791.4L1928.45 792.6L1911.89 812.92L1938.21 854.76L1937.57 855.24ZM1890.77 847V846.6L1900.37 845.4V792.6L1890.77 791.4V791H1913.17V791.4L1903.57 792.6V845.4L1913.17 846.6V847H1890.77ZM1966 847V846.6L1975.6 845.4V792.6L1966 791.4V791H1988.4V791.4L1978.8 792.6V845.4L1988.4 846.6V847H1966ZM2027.9 847V846.6L2037.5 845.4V821.4L2024.14 792.6L2014.38 791.4V791H2037.26V791.4L2027.82 792.6L2039.42 818.2L2050.94 792.6L2041.5 791.4V791H2063.58V791.4L2053.82 792.6L2040.7 820.68V845.4L2049.34 846.6V847H2027.9ZM2078.47 863L2078.07 862.84L2087.19 847.48C2086.47 847.08 2085.99 846.28 2085.99 845.4C2085.99 844.12 2087.11 843 2088.39 843C2089.67 843 2090.79 844.12 2090.79 845.4C2090.79 845.96 2090.63 846.44 2090.07 847.24L2078.47 863ZM2188.67 850.2L2173.23 802.12V845.4L2181.87 846.6V847H2161.23V846.6L2170.83 845.4V787H2171.39L2189.15 842.28L2207.07 787H2207.63V845.4L2217.23 846.6V847H2195.79V846.6L2204.43 845.4V802.92L2189.07 850.2H2188.67ZM2248.81 847V846.6L2258.41 845.4V792.6L2248.81 791.4V791H2271.21V791.4L2261.61 792.6V845.4L2271.21 846.6V847H2248.81ZM2322.31 848.52C2314.15 848.52 2305.99 843.4 2305.99 833.08L2316.07 824.2L2316.31 824.44L2309.35 832.92C2309.35 841.72 2315.83 846.12 2322.31 846.12C2329.83 846.12 2335.43 840.68 2335.43 833.48C2335.43 827.56 2332.07 823 2325.91 820.04L2318.55 816.6C2310.55 812.92 2307.27 807.4 2307.27 802.2C2307.27 794.44 2313.75 788.6 2322.31 788.6C2329.83 788.6 2336.87 793.32 2337.19 803L2328.47 810.2L2328.23 809.96L2334.23 802.92C2333.83 794.92 2328.15 791 2322.31 791C2315.35 791 2310.15 795.8 2310.15 802.2C2310.15 806.28 2312.79 810.68 2319.67 813.64L2327.11 817C2334.55 820.28 2338.71 826.12 2338.71 833.24C2338.71 841.96 2331.67 848.52 2322.31 848.52ZM2400.06 847V846.6L2408.7 845.4V818.6H2386.3V845.4L2394.94 846.6V847H2373.5V846.6L2383.1 845.4V792.6L2373.5 791.4V791H2394.94V791.4L2386.3 792.6V816.2H2408.7V792.6L2400.06 791.4V791H2421.5V791.4L2411.9 792.6V845.4L2421.5 846.6V847H2400.06ZM2444.7 847V846.6L2454.46 845.4L2473.1 788.6H2473.5L2491.98 845.4L2501.74 846.6V847H2479.02V846.6L2488.54 845.4L2483.18 828.68H2462.54L2457.1 845.4L2466.62 846.6V847H2444.7ZM2463.26 826.28H2482.38L2472.86 796.52L2463.26 826.28ZM2564.52 847V846.6L2574.12 845.4V792.6L2564.52 791.4V791H2586.92V791.4L2577.32 792.6V845.4L2586.92 846.6V847H2564.52ZM2639.13 850.2L2620.57 792.6L2610.89 791.4V791H2633.61V791.4L2624.09 792.6L2639.77 842.2L2655.53 792.6L2646.01 791.4V791H2667.93V791.4L2658.25 792.6L2639.53 850.2H2639.13ZM2681.18 847V846.6L2690.94 845.4L2709.58 788.6H2709.98L2728.46 845.4L2738.22 846.6V847H2715.5V846.6L2725.02 845.4L2719.66 828.68H2699.02L2693.58 845.4L2703.1 846.6V847H2681.18ZM2699.74 826.28H2718.86L2709.34 796.52L2699.74 826.28ZM2799.79 851L2772.99 797.96V845.4L2782.59 846.6V847H2760.99V846.6L2770.59 845.4V787H2770.99L2797.79 840.04V792.6L2788.19 791.4V791H2809.79V791.4L2800.19 792.6V851H2799.79ZM2872.19 848.6C2855.07 848.6 2842.19 835.72 2842.19 818.6C2842.19 801.48 2855.07 788.6 2872.19 788.6C2889.31 788.6 2902.19 801.48 2902.19 818.6C2902.19 835.72 2889.31 848.6 2872.19 848.6ZM2872.19 846.2C2887.79 846.2 2898.83 834.76 2898.83 818.6C2898.83 802.44 2887.79 791 2872.19 791C2856.59 791 2845.55 802.44 2845.55 818.6C2845.55 834.76 2856.59 846.2 2872.19 846.2ZM2955.22 850.2L2936.66 792.6L2926.98 791.4V791H2949.7V791.4L2940.18 792.6L2955.86 842.2L2971.62 792.6L2962.1 791.4V791H2984.02V791.4L2974.34 792.6L2955.62 850.2H2955.22Z" fill="#E3E1D3"/>
<path d="M1772.52 964H1769.88C1769.72 963.24 1769.45 962.572 1769.06 961.997C1768.67 961.422 1768.2 960.939 1767.65 960.548C1767.1 960.151 1766.5 959.852 1765.83 959.653C1765.16 959.455 1764.46 959.355 1763.74 959.355C1762.42 959.355 1761.22 959.689 1760.15 960.357C1759.08 961.024 1758.24 962.008 1757.6 963.308C1756.98 964.607 1756.67 966.202 1756.67 968.091C1756.67 969.98 1756.98 971.575 1757.6 972.874C1758.24 974.174 1759.08 975.158 1760.15 975.825C1761.22 976.493 1762.42 976.827 1763.74 976.827C1764.46 976.827 1765.16 976.727 1765.83 976.528C1766.5 976.33 1767.1 976.035 1767.65 975.644C1768.2 975.246 1768.67 974.76 1769.06 974.185C1769.45 973.602 1769.72 972.935 1769.88 972.182H1772.52C1772.32 973.297 1771.96 974.295 1771.43 975.175C1770.91 976.056 1770.25 976.805 1769.47 977.423C1768.69 978.034 1767.81 978.499 1766.84 978.819C1765.87 979.138 1764.84 979.298 1763.74 979.298C1761.88 979.298 1760.22 978.844 1758.78 977.935C1757.33 977.026 1756.19 975.733 1755.36 974.057C1754.52 972.381 1754.11 970.392 1754.11 968.091C1754.11 965.79 1754.52 963.801 1755.36 962.125C1756.19 960.449 1757.33 959.156 1758.78 958.247C1760.22 957.338 1761.88 956.884 1763.74 956.884C1764.84 956.884 1765.87 957.043 1766.84 957.363C1767.81 957.683 1768.69 958.151 1769.47 958.769C1770.25 959.38 1770.91 960.126 1771.43 961.006C1771.96 961.88 1772.32 962.878 1772.52 964ZM1800.65 979.298C1798.72 979.298 1797.02 978.844 1795.56 977.935C1794.1 977.026 1792.97 975.733 1792.15 974.057C1791.34 972.381 1790.94 970.392 1790.94 968.091C1790.94 966.365 1791.17 964.813 1791.65 963.435C1792.12 962.05 1792.79 960.871 1793.65 959.898C1794.52 958.925 1795.54 958.18 1796.71 957.661C1797.89 957.143 1799.17 956.884 1800.57 956.884C1801.72 956.884 1802.8 957.058 1803.8 957.406C1804.81 957.746 1805.72 958.233 1806.52 958.865C1807.33 959.49 1808 960.239 1808.53 961.113C1809.07 961.979 1809.44 962.942 1809.64 964H1806.92C1806.7 963.283 1806.39 962.64 1806 962.072C1805.61 961.496 1805.14 961.006 1804.59 960.602C1804.05 960.197 1803.44 959.888 1802.76 959.675C1802.09 959.462 1801.35 959.355 1800.57 959.355C1799.27 959.355 1798.09 959.689 1797.02 960.357C1795.95 961.024 1795.09 962.008 1794.45 963.308C1793.81 964.607 1793.49 966.202 1793.49 968.091C1793.49 969.98 1793.81 971.575 1794.44 972.874C1795.07 974.174 1795.93 975.158 1797.01 975.825C1798.09 976.493 1799.3 976.827 1800.65 976.827C1801.95 976.827 1803.09 976.543 1804.07 975.974C1805.06 975.399 1805.83 974.611 1806.38 973.609C1806.94 972.601 1807.21 971.45 1807.21 970.158L1807.55 970.435H1801.25V968.091H1809.77V979H1807.55L1807.23 976.337H1807.13C1806.3 977.288 1805.37 978.02 1804.35 978.531C1803.33 979.043 1802.09 979.298 1800.65 979.298ZM1853.62 979H1850.85L1858.86 957.182H1861.59L1869.6 979H1866.83L1860.31 960.634H1860.14L1853.62 979ZM1854.64 970.477H1865.81V972.821H1854.64V970.477ZM1888 979V957.182H1895.37C1897.08 957.182 1898.47 957.473 1899.57 958.055C1900.66 958.631 1901.47 959.423 1902 960.431C1902.52 961.44 1902.79 962.587 1902.79 963.872C1902.79 965.158 1902.52 966.298 1902 967.292C1901.47 968.286 1900.67 969.067 1899.58 969.636C1898.49 970.197 1897.1 970.477 1895.41 970.477H1889.45V968.091H1895.33C1896.49 968.091 1897.43 967.92 1898.14 967.58C1898.86 967.239 1899.38 966.756 1899.7 966.131C1900.02 965.499 1900.19 964.746 1900.19 963.872C1900.19 962.999 1900.02 962.235 1899.7 961.582C1899.37 960.928 1898.85 960.424 1898.13 960.069C1897.41 959.707 1896.46 959.526 1895.29 959.526H1890.64V979H1888ZM1898.27 969.199L1903.64 979H1900.57L1895.29 969.199H1898.27ZM1920.99 959.526V957.182H1937.36V959.526H1930.5V979H1927.86V959.526H1920.99ZM1959.08 957.182V979H1956.44V957.182H1959.08ZM1991.31 962.636C1991.18 961.557 1990.66 960.719 1989.75 960.122C1988.84 959.526 1987.73 959.227 1986.41 959.227C1985.44 959.227 1984.6 959.384 1983.87 959.696C1983.15 960.009 1982.59 960.438 1982.19 960.985C1981.79 961.532 1981.59 962.153 1981.59 962.849C1981.59 963.432 1981.73 963.933 1982.01 964.352C1982.29 964.763 1982.65 965.108 1983.09 965.385C1983.53 965.655 1984 965.879 1984.48 966.056C1984.96 966.227 1985.41 966.365 1985.81 966.472L1988.03 967.068C1988.59 967.217 1989.23 967.423 1989.92 967.686C1990.63 967.949 1991.3 968.308 1991.94 968.762C1992.58 969.21 1993.11 969.785 1993.53 970.488C1993.95 971.191 1994.16 972.054 1994.16 973.077C1994.16 974.256 1993.85 975.321 1993.24 976.273C1992.62 977.224 1991.73 977.981 1990.55 978.542C1989.38 979.103 1987.95 979.384 1986.28 979.384C1984.72 979.384 1983.36 979.131 1982.22 978.627C1981.08 978.123 1980.19 977.42 1979.54 976.518C1978.89 975.616 1978.52 974.568 1978.44 973.375H1981.17C1981.24 974.199 1981.51 974.881 1982 975.42C1982.49 975.953 1983.1 976.351 1983.85 976.614C1984.6 976.869 1985.41 976.997 1986.28 976.997C1987.29 976.997 1988.19 976.834 1989 976.507C1989.8 976.173 1990.43 975.712 1990.9 975.122C1991.37 974.526 1991.61 973.83 1991.61 973.034C1991.61 972.31 1991.4 971.72 1991 971.266C1990.59 970.811 1990.06 970.442 1989.4 970.158C1988.74 969.874 1988.03 969.625 1987.26 969.412L1984.57 968.645C1982.87 968.155 1981.52 967.455 1980.53 966.546C1979.53 965.637 1979.03 964.447 1979.03 962.977C1979.03 961.756 1979.36 960.69 1980.03 959.781C1980.69 958.865 1981.59 958.155 1982.71 957.651C1983.84 957.139 1985.1 956.884 1986.49 956.884C1987.9 956.884 1989.15 957.136 1990.24 957.64C1991.34 958.137 1992.2 958.819 1992.84 959.685C1993.49 960.552 1993.83 961.536 1993.86 962.636H1991.31ZM2012.31 959.526V957.182H2028.68V959.526H2021.82V979H2019.17V959.526H2012.31ZM2059.69 962.636C2059.56 961.557 2059.04 960.719 2058.13 960.122C2057.22 959.526 2056.11 959.227 2054.79 959.227C2053.82 959.227 2052.97 959.384 2052.25 959.696C2051.53 960.009 2050.97 960.438 2050.57 960.985C2050.17 961.532 2049.97 962.153 2049.97 962.849C2049.97 963.432 2050.11 963.933 2050.39 964.352C2050.67 964.763 2051.03 965.108 2051.47 965.385C2051.91 965.655 2052.37 965.879 2052.86 966.056C2053.34 966.227 2053.78 966.365 2054.19 966.472L2056.4 967.068C2056.97 967.217 2057.61 967.423 2058.3 967.686C2059 967.949 2059.68 968.308 2060.31 968.762C2060.96 969.21 2061.49 969.785 2061.91 970.488C2062.33 971.191 2062.54 972.054 2062.54 973.077C2062.54 974.256 2062.23 975.321 2061.61 976.273C2061 977.224 2060.11 977.981 2058.93 978.542C2057.76 979.103 2056.33 979.384 2054.66 979.384C2053.1 979.384 2051.74 979.131 2050.6 978.627C2049.46 978.123 2048.57 977.42 2047.91 976.518C2047.27 975.616 2046.9 974.568 2046.82 973.375H2049.54C2049.62 974.199 2049.89 974.881 2050.38 975.42C2050.87 975.953 2051.48 976.351 2052.23 976.614C2052.98 976.869 2053.79 976.997 2054.66 976.997C2055.67 976.997 2056.57 976.834 2057.37 976.507C2058.18 976.173 2058.81 975.712 2059.28 975.122C2059.75 974.526 2059.98 973.83 2059.98 973.034C2059.98 972.31 2059.78 971.72 2059.38 971.266C2058.97 970.811 2058.44 970.442 2057.78 970.158C2057.12 969.874 2056.4 969.625 2055.64 969.412L2052.95 968.645C2051.25 968.155 2049.9 967.455 2048.9 966.546C2047.91 965.637 2047.41 964.447 2047.41 962.977C2047.41 961.756 2047.74 960.69 2048.4 959.781C2049.07 958.865 2049.97 958.155 2051.09 957.651C2052.22 957.139 2053.48 956.884 2054.87 956.884C2056.28 956.884 2057.53 957.136 2058.62 957.64C2059.71 958.137 2060.58 958.819 2061.22 959.685C2061.87 960.552 2062.21 961.536 2062.24 962.636H2059.69Z" fill="#E3E1D3"/>
<path d="M885.247 1083V1082.6L895.007 1081.4L913.647 1024.6H914.047L932.527 1081.4L942.287 1082.6V1083H919.567V1082.6L929.087 1081.4L923.727 1064.68H903.087L897.647 1081.4L907.167 1082.6V1083H885.247ZM903.807 1062.28H922.927L913.407 1032.52L903.807 1062.28ZM1003.85 1087L977.053 1033.96V1081.4L986.653 1082.6V1083H965.053V1082.6L974.653 1081.4V1023H975.053L1001.85 1076.04V1028.6L992.253 1027.4V1027H1013.85V1027.4L1004.25 1028.6V1087H1003.85ZM1051.37 1083V1082.6L1060.97 1081.4V1029.4H1046.33L1043.85 1038.84L1043.45 1038.76L1044.89 1028.44L1045.05 1027H1080.25L1080.41 1028.44L1081.85 1038.76L1081.45 1038.84L1078.97 1029.4H1064.17V1081.4L1072.81 1082.6V1083H1051.37ZM1141.88 1084.6C1124.76 1084.6 1111.88 1071.72 1111.88 1054.6C1111.88 1037.48 1124.76 1024.6 1141.88 1024.6C1159 1024.6 1171.88 1037.48 1171.88 1054.6C1171.88 1071.72 1159 1084.6 1141.88 1084.6ZM1141.88 1082.2C1157.48 1082.2 1168.52 1070.76 1168.52 1054.6C1168.52 1038.44 1157.48 1027 1141.88 1027C1126.28 1027 1115.24 1038.44 1115.24 1054.6C1115.24 1070.76 1126.28 1082.2 1141.88 1082.2ZM1243.07 1087L1216.27 1033.96V1081.4L1225.87 1082.6V1083H1204.27V1082.6L1213.87 1081.4V1023H1214.27L1241.07 1076.04V1028.6L1231.47 1027.4V1027H1253.07V1027.4L1243.47 1028.6V1087H1243.07ZM1372.25 1091.24L1342.81 1049.88L1360.01 1028.6L1350.73 1027.4V1027H1373.05V1027.4L1363.13 1028.6L1346.57 1048.92L1372.89 1090.76L1372.25 1091.24ZM1325.45 1083V1082.6L1335.05 1081.4V1028.6L1325.45 1027.4V1027H1347.85V1027.4L1338.25 1028.6V1081.4L1347.85 1082.6V1083H1325.45ZM1447.65 1091.24L1417.41 1049L1417.65 1048.52L1422.21 1050.12H1423.33C1430.85 1050.12 1435.01 1045.64 1435.01 1039.8C1435.01 1033.8 1430.37 1029.4 1424.13 1029.4H1413.49V1081.4L1423.57 1082.6V1083H1400.69V1082.6L1410.29 1081.4V1028.6L1400.69 1027.4V1027H1424.77C1432.77 1027 1438.37 1032.2 1438.37 1039.64C1438.37 1046.84 1432.77 1052.12 1424.77 1052.12H1424.05L1448.29 1090.76L1447.65 1091.24ZM1467.51 1083V1082.6L1477.27 1081.4L1495.91 1024.6H1496.31L1514.79 1081.4L1524.55 1082.6V1083H1501.83V1082.6L1511.35 1081.4L1505.99 1064.68H1485.35L1479.91 1081.4L1489.43 1082.6V1083H1467.51ZM1486.07 1062.28H1505.19L1495.67 1032.52L1486.07 1062.28ZM1565.93 1086.2L1547.37 1028.6L1537.69 1027.4V1027H1560.41V1027.4L1550.89 1028.6L1566.57 1078.2L1582.33 1028.6L1572.81 1027.4V1027H1594.73V1027.4L1585.05 1028.6L1566.33 1086.2H1565.93ZM1649.14 1084.6C1632.02 1084.6 1619.14 1071.72 1619.14 1054.6C1619.14 1037.48 1632.02 1024.6 1649.14 1024.6C1661.7 1024.6 1672.02 1031.56 1676.58 1042.04L1668.66 1052.12L1668.34 1052.04L1673.46 1042.68C1669.54 1033.24 1660.5 1027 1649.14 1027C1633.54 1027 1622.5 1038.44 1622.5 1054.6C1622.5 1070.76 1633.54 1082.2 1649.14 1082.2C1660.98 1082.2 1670.18 1075.64 1673.94 1065.4V1061.16L1674.26 1061.08L1676.98 1066.12C1672.66 1077.16 1662.1 1084.6 1649.14 1084.6ZM1735.53 1083V1082.6L1744.17 1081.4V1054.6H1721.77V1081.4L1730.41 1082.6V1083H1708.97V1082.6L1718.57 1081.4V1028.6L1708.97 1027.4V1027H1730.41V1027.4L1721.77 1028.6V1052.2H1744.17V1028.6L1735.53 1027.4V1027H1756.97V1027.4L1747.37 1028.6V1081.4L1756.97 1082.6V1083H1735.53ZM1812.49 1084.6C1805.29 1084.6 1798.17 1079.4 1798.17 1068.92V1028.6L1788.57 1027.4V1027H1810.01V1027.4L1801.37 1028.6V1068.6C1801.37 1076.36 1806.17 1081.8 1812.97 1081.8C1819.77 1081.8 1824.57 1076.44 1824.57 1068.92V1028.6L1815.93 1027.4V1027H1836.57V1027.4L1826.97 1028.6V1068.6C1826.97 1079.32 1819.69 1084.6 1812.49 1084.6ZM1914.99 1091.24L1885.55 1049.88L1902.75 1028.6L1893.47 1027.4V1027H1915.79V1027.4L1905.87 1028.6L1889.31 1048.92L1915.63 1090.76L1914.99 1091.24ZM1868.19 1083V1082.6L1877.79 1081.4V1028.6L1868.19 1027.4V1027H1890.59V1027.4L1880.99 1028.6V1081.4L1890.59 1082.6V1083H1868.19ZM1934.72 1099L1934.32 1098.84L1943.44 1083.48C1942.72 1083.08 1942.24 1082.28 1942.24 1081.4C1942.24 1080.12 1943.36 1079 1944.64 1079C1945.92 1079 1947.04 1080.12 1947.04 1081.4C1947.04 1081.96 1946.88 1082.44 1946.32 1083.24L1934.72 1099ZM2023.8 1083V1082.6L2033.4 1081.4V1029.4H2018.76L2016.28 1038.84L2015.88 1038.76L2017.32 1028.44L2017.48 1027H2052.68L2052.84 1028.44L2054.28 1038.76L2053.88 1038.84L2051.4 1029.4H2036.6V1081.4L2045.24 1082.6V1083H2023.8ZM2072.28 1083V1082.6L2082.04 1081.4L2100.68 1024.6H2101.08L2119.56 1081.4L2129.32 1082.6V1083H2106.6V1082.6L2116.12 1081.4L2110.76 1064.68H2090.12L2084.68 1081.4L2094.2 1082.6V1083H2072.28ZM2090.84 1062.28H2109.96L2100.44 1032.52L2090.84 1062.28ZM2171.6 1084.52C2163.44 1084.52 2155.28 1079.4 2155.28 1069.08L2165.36 1060.2L2165.6 1060.44L2158.64 1068.92C2158.64 1077.72 2165.12 1082.12 2171.6 1082.12C2179.12 1082.12 2184.72 1076.68 2184.72 1069.48C2184.72 1063.56 2181.36 1059 2175.2 1056.04L2167.84 1052.6C2159.84 1048.92 2156.56 1043.4 2156.56 1038.2C2156.56 1030.44 2163.04 1024.6 2171.6 1024.6C2179.12 1024.6 2186.16 1029.32 2186.48 1039L2177.76 1046.2L2177.52 1045.96L2183.52 1038.92C2183.12 1030.92 2177.44 1027 2171.6 1027C2164.64 1027 2159.44 1031.8 2159.44 1038.2C2159.44 1042.28 2162.08 1046.68 2168.96 1049.64L2176.4 1053C2183.84 1056.28 2188 1062.12 2188 1069.24C2188 1077.96 2180.96 1084.52 2171.6 1084.52ZM2222.8 1083V1082.6L2232.4 1081.4V1028.6L2222.8 1027.4V1027H2245.68V1027.4L2235.6 1028.6V1080.6H2257.92L2260.4 1071.16L2260.8 1071.24L2259.36 1081.56L2259.2 1083H2222.8ZM2292.8 1083V1082.6L2302.4 1081.4V1028.6L2292.8 1027.4V1027H2315.2V1027.4L2305.6 1028.6V1081.4L2315.2 1082.6V1083H2292.8ZM2414.43 1061.88L2411.47 1054.44H2400.75V1080.6H2423.55L2424.75 1071H2425.15V1083H2387.95V1082.6L2397.55 1081.4V1028.6L2387.95 1027.4V1027H2424.35V1039H2423.95L2422.75 1029.4H2400.75V1052.2H2411.47L2414.43 1044.76L2414.83 1044.84L2412.99 1053.08V1053.56L2414.83 1061.8L2414.43 1061.88ZM2459.98 1083V1082.6L2469.58 1081.4V1028.6L2459.98 1027.4V1027H2480.62C2489.02 1027 2495.02 1032.6 2495.02 1040.52C2495.02 1046.04 2492.06 1050.52 2487.58 1052.68C2494.54 1054.12 2499.58 1060.12 2499.58 1067.56C2499.58 1076.6 2492.94 1083 2483.58 1083H2459.98ZM2480.62 1052.2C2486.94 1052.2 2491.66 1047.32 2491.66 1040.76C2491.66 1034.28 2486.94 1029.4 2480.62 1029.4H2472.78V1052.2H2480.62ZM2472.78 1080.6H2483.58C2490.78 1080.6 2496.22 1075 2496.22 1067.48C2496.22 1060.12 2490.78 1054.44 2483.58 1054.44H2472.78V1080.6ZM2535.22 1083V1082.6L2544.82 1081.4V1028.6L2535.22 1027.4V1027H2558.1V1027.4L2548.02 1028.6V1080.6H2570.34L2572.82 1071.16L2573.22 1071.24L2571.78 1081.56L2571.62 1083H2535.22ZM2635.24 1084.6C2618.12 1084.6 2605.24 1071.72 2605.24 1054.6C2605.24 1037.48 2618.12 1024.6 2635.24 1024.6C2652.36 1024.6 2665.24 1037.48 2665.24 1054.6C2665.24 1071.72 2652.36 1084.6 2635.24 1084.6ZM2635.24 1082.2C2650.84 1082.2 2661.88 1070.76 2661.88 1054.6C2661.88 1038.44 2650.84 1027 2635.24 1027C2619.64 1027 2608.6 1038.44 2608.6 1054.6C2608.6 1070.76 2619.64 1082.2 2635.24 1082.2ZM2736.43 1087L2709.63 1033.96V1081.4L2719.23 1082.6V1083H2697.63V1082.6L2707.23 1081.4V1023H2707.63L2734.43 1076.04V1028.6L2724.83 1027.4V1027H2746.43V1027.4L2736.83 1028.6V1087H2736.43ZM2797.15 1084.52C2788.99 1084.52 2780.83 1079.4 2780.83 1069.08L2790.91 1060.2L2791.15 1060.44L2784.19 1068.92C2784.19 1077.72 2790.67 1082.12 2797.15 1082.12C2804.67 1082.12 2810.27 1076.68 2810.27 1069.48C2810.27 1063.56 2806.91 1059 2800.75 1056.04L2793.39 1052.6C2785.39 1048.92 2782.11 1043.4 2782.11 1038.2C2782.11 1030.44 2788.59 1024.6 2797.15 1024.6C2804.67 1024.6 2811.71 1029.32 2812.03 1039L2803.31 1046.2L2803.07 1045.96L2809.07 1038.92C2808.67 1030.92 2802.99 1027 2797.15 1027C2790.19 1027 2784.99 1031.8 2784.99 1038.2C2784.99 1042.28 2787.63 1046.68 2794.51 1049.64L2801.95 1053C2809.39 1056.28 2813.55 1062.12 2813.55 1069.24C2813.55 1077.96 2806.51 1084.52 2797.15 1084.52ZM2895.14 1091.24L2865.7 1049.88L2882.9 1028.6L2873.62 1027.4V1027H2895.94V1027.4L2886.02 1028.6L2869.46 1048.92L2895.78 1090.76L2895.14 1091.24ZM2848.34 1083V1082.6L2857.94 1081.4V1028.6L2848.34 1027.4V1027H2870.74V1027.4L2861.14 1028.6V1081.4L2870.74 1082.6V1083H2848.34ZM2923.58 1083V1082.6L2933.18 1081.4V1028.6L2923.58 1027.4V1027H2945.98V1027.4L2936.38 1028.6V1081.4L2945.98 1082.6V1083H2923.58ZM450.247 1195V1194.6L460.007 1193.4L478.647 1136.6H479.047L497.527 1193.4L507.287 1194.6V1195H484.567V1194.6L494.087 1193.4L488.727 1176.68H468.087L462.647 1193.4L472.167 1194.6V1195H450.247ZM468.807 1174.28H487.927L478.407 1144.52L468.807 1174.28ZM530.453 1195V1194.6L540.053 1193.4V1140.6L530.453 1139.4V1139H553.333V1139.4L543.253 1140.6V1192.6H565.573L568.053 1183.16L568.453 1183.24L567.013 1193.56L566.853 1195H530.453ZM626.933 1173.88L623.973 1166.44H613.253V1192.6H636.053L637.253 1183H637.653V1195H600.453V1194.6L610.053 1193.4V1140.6L600.453 1139.4V1139H636.853V1151H636.453L635.253 1141.4H613.253V1164.2H623.973L626.933 1156.76L627.333 1156.84L625.493 1165.08V1165.56L627.333 1173.8L626.933 1173.88ZM697.044 1195V1194.6L706.004 1193.4L694.484 1168.52L683.124 1193.4L692.084 1194.6V1195H670.484V1194.6L680.244 1193.4L693.284 1165.88L681.204 1140.6L671.444 1139.4V1139H693.444V1139.4L684.964 1140.6L694.884 1162.28L704.804 1140.6L696.324 1139.4V1139H717.444V1139.4L707.684 1140.6L696.164 1165L709.684 1193.4L719.524 1194.6V1195H697.044ZM740.716 1195V1194.6L750.476 1193.4L769.116 1136.6H769.516L787.996 1193.4L797.756 1194.6V1195H775.036V1194.6L784.556 1193.4L779.196 1176.68H758.556L753.116 1193.4L762.636 1194.6V1195H740.716ZM759.276 1174.28H778.396L768.876 1144.52L759.276 1174.28ZM859.322 1199L832.522 1145.96V1193.4L842.122 1194.6V1195H820.522V1194.6L830.122 1193.4V1135H830.522L857.322 1188.04V1140.6L847.722 1139.4V1139H869.322V1139.4L859.722 1140.6V1199H859.322ZM900.922 1195V1194.6L910.522 1193.4V1140.6L900.922 1139.4V1139H929.722C945.722 1139 957.722 1151 957.722 1167C957.722 1183 945.722 1195 929.722 1195H900.922ZM913.722 1192.6H929.642C944.202 1192.6 954.522 1182.04 954.522 1167C954.522 1151.96 944.202 1141.4 929.642 1141.4H913.722V1192.6ZM1037.49 1203.24L1007.25 1161L1007.49 1160.52L1012.05 1162.12H1013.17C1020.69 1162.12 1024.85 1157.64 1024.85 1151.8C1024.85 1145.8 1020.21 1141.4 1013.97 1141.4H1003.33V1193.4L1013.41 1194.6V1195H990.531V1194.6L1000.13 1193.4V1140.6L990.531 1139.4V1139H1014.61C1022.61 1139 1028.21 1144.2 1028.21 1151.64C1028.21 1158.84 1022.61 1164.12 1014.61 1164.12H1013.89L1038.13 1202.76L1037.49 1203.24ZM1057.36 1195V1194.6L1067.12 1193.4L1085.76 1136.6H1086.16L1104.64 1193.4L1114.4 1194.6V1195H1091.68V1194.6L1101.2 1193.4L1095.84 1176.68H1075.2L1069.76 1193.4L1079.28 1194.6V1195H1057.36ZM1075.92 1174.28H1095.04L1085.52 1144.52L1075.92 1174.28ZM1183.09 1195V1194.6L1192.69 1193.4V1141.4H1178.05L1175.57 1150.84L1175.17 1150.76L1176.61 1140.44L1176.77 1139H1211.97L1212.13 1140.44L1213.57 1150.76L1213.17 1150.84L1210.69 1141.4H1195.89V1193.4L1204.53 1194.6V1195H1183.09ZM1270.06 1173.88L1267.1 1166.44H1256.38V1192.6H1279.18L1280.38 1183H1280.78V1195H1243.58V1194.6L1253.18 1193.4V1140.6L1243.58 1139.4V1139H1279.98V1151H1279.58L1278.38 1141.4H1256.38V1164.2H1267.1L1270.06 1156.76L1270.46 1156.84L1268.62 1165.08V1165.56L1270.46 1173.8L1270.06 1173.88ZM1362.57 1203.24L1332.33 1161L1332.57 1160.52L1337.13 1162.12H1338.25C1345.77 1162.12 1349.93 1157.64 1349.93 1151.8C1349.93 1145.8 1345.29 1141.4 1339.05 1141.4H1328.41V1193.4L1338.49 1194.6V1195H1315.61V1194.6L1325.21 1193.4V1140.6L1315.61 1139.4V1139H1339.69C1347.69 1139 1353.29 1144.2 1353.29 1151.64C1353.29 1158.84 1347.69 1164.12 1339.69 1164.12H1338.97L1363.21 1202.76L1362.57 1203.24ZM1429.63 1199L1402.83 1145.96V1193.4L1412.43 1194.6V1195H1390.83V1194.6L1400.43 1193.4V1135H1400.83L1427.63 1188.04V1140.6L1418.03 1139.4V1139H1439.63V1139.4L1430.03 1140.6V1199H1429.63ZM1502.03 1196.6C1484.91 1196.6 1472.03 1183.72 1472.03 1166.6C1472.03 1149.48 1484.91 1136.6 1502.03 1136.6C1519.15 1136.6 1532.03 1149.48 1532.03 1166.6C1532.03 1183.72 1519.15 1196.6 1502.03 1196.6ZM1502.03 1194.2C1517.63 1194.2 1528.67 1182.76 1528.67 1166.6C1528.67 1150.44 1517.63 1139 1502.03 1139C1486.43 1139 1475.39 1150.44 1475.39 1166.6C1475.39 1182.76 1486.43 1194.2 1502.03 1194.2ZM1585.07 1198.2L1566.51 1140.6L1556.83 1139.4V1139H1579.55V1139.4L1570.03 1140.6L1585.71 1190.2L1601.47 1140.6L1591.95 1139.4V1139H1613.87V1139.4L1604.19 1140.6L1585.47 1198.2H1585.07ZM1656.6 1196.52C1648.44 1196.52 1640.28 1191.4 1640.28 1181.08L1650.36 1172.2L1650.6 1172.44L1643.64 1180.92C1643.64 1189.72 1650.12 1194.12 1656.6 1194.12C1664.12 1194.12 1669.72 1188.68 1669.72 1181.48C1669.72 1175.56 1666.36 1171 1660.2 1168.04L1652.84 1164.6C1644.84 1160.92 1641.56 1155.4 1641.56 1150.2C1641.56 1142.44 1648.04 1136.6 1656.6 1136.6C1664.12 1136.6 1671.16 1141.32 1671.48 1151L1662.76 1158.2L1662.52 1157.96L1668.52 1150.92C1668.12 1142.92 1662.44 1139 1656.6 1139C1649.64 1139 1644.44 1143.8 1644.44 1150.2C1644.44 1154.28 1647.08 1158.68 1653.96 1161.64L1661.4 1165C1668.84 1168.28 1673 1174.12 1673 1181.24C1673 1189.96 1665.96 1196.52 1656.6 1196.52ZM1754.6 1203.24L1725.16 1161.88L1742.36 1140.6L1733.08 1139.4V1139H1755.4V1139.4L1745.48 1140.6L1728.92 1160.92L1755.24 1202.76L1754.6 1203.24ZM1707.8 1195V1194.6L1717.4 1193.4V1140.6L1707.8 1139.4V1139H1730.2V1139.4L1720.6 1140.6V1193.4L1730.2 1194.6V1195H1707.8ZM1774.23 1195V1194.6L1783.99 1193.4L1802.63 1136.6H1803.03L1821.51 1193.4L1831.27 1194.6V1195H1808.55V1194.6L1818.07 1193.4L1812.71 1176.68H1792.07L1786.63 1193.4L1796.15 1194.6V1195H1774.23ZM1792.79 1174.28H1811.91L1802.39 1144.52L1792.79 1174.28ZM1859.93 1195V1194.6L1869.53 1193.4V1169.4L1856.17 1140.6L1846.41 1139.4V1139H1869.29V1139.4L1859.85 1140.6L1871.45 1166.2L1882.97 1140.6L1873.53 1139.4V1139H1895.61V1139.4L1885.85 1140.6L1872.73 1168.68V1193.4L1881.37 1194.6V1195H1859.93ZM1911.26 1195V1194.6L1921.02 1193.4L1939.66 1136.6H1940.06L1958.54 1193.4L1968.3 1194.6V1195H1945.58V1194.6L1955.1 1193.4L1949.74 1176.68H1929.1L1923.66 1193.4L1933.18 1194.6V1195H1911.26ZM1929.82 1174.28H1948.94L1939.42 1144.52L1929.82 1174.28ZM1983.55 1211L1983.15 1210.84L1992.27 1195.48C1991.55 1195.08 1991.07 1194.28 1991.07 1193.4C1991.07 1192.12 1992.19 1191 1993.47 1191C1994.75 1191 1995.87 1192.12 1995.87 1193.4C1995.87 1193.96 1995.71 1194.44 1995.15 1195.24L1983.55 1211ZM2085.77 1198.2L2067.21 1140.6L2057.53 1139.4V1139H2080.25V1139.4L2070.73 1140.6L2086.41 1190.2L2102.17 1140.6L2092.65 1139.4V1139H2114.57V1139.4L2104.89 1140.6L2086.17 1198.2H2085.77ZM2138.19 1195V1194.6L2147.79 1193.4V1140.6L2138.19 1139.4V1139H2160.59V1139.4L2150.99 1140.6V1193.4L2160.59 1194.6V1195H2138.19ZM2223.36 1196.6C2206.24 1196.6 2193.36 1183.72 2193.36 1166.6C2193.36 1149.48 2206.24 1136.6 2223.36 1136.6C2235.92 1136.6 2246.24 1143.56 2250.8 1154.04L2242.88 1164.12L2242.56 1164.04L2247.68 1154.68C2243.76 1145.24 2234.72 1139 2223.36 1139C2207.76 1139 2196.72 1150.44 2196.72 1166.6C2196.72 1182.76 2207.76 1194.2 2223.36 1194.2C2235.2 1194.2 2244.4 1187.64 2248.16 1177.4V1173.16L2248.48 1173.08L2251.2 1178.12C2246.88 1189.16 2236.32 1196.6 2223.36 1196.6ZM2288.33 1195V1194.6L2297.93 1193.4V1141.4H2283.29L2280.81 1150.84L2280.41 1150.76L2281.85 1140.44L2282.01 1139H2317.21L2317.37 1140.44L2318.81 1150.76L2318.41 1150.84L2315.93 1141.4H2301.13V1193.4L2309.77 1194.6V1195H2288.33ZM2378.83 1196.6C2361.71 1196.6 2348.83 1183.72 2348.83 1166.6C2348.83 1149.48 2361.71 1136.6 2378.83 1136.6C2395.95 1136.6 2408.83 1149.48 2408.83 1166.6C2408.83 1183.72 2395.95 1196.6 2378.83 1196.6ZM2378.83 1194.2C2394.43 1194.2 2405.47 1182.76 2405.47 1166.6C2405.47 1150.44 2394.43 1139 2378.83 1139C2363.23 1139 2352.19 1150.44 2352.19 1166.6C2352.19 1182.76 2363.23 1194.2 2378.83 1194.2ZM2488.59 1203.24L2458.35 1161L2458.59 1160.52L2463.15 1162.12H2464.27C2471.79 1162.12 2475.95 1157.64 2475.95 1151.8C2475.95 1145.8 2471.31 1141.4 2465.07 1141.4H2454.43V1193.4L2464.51 1194.6V1195H2441.63V1194.6L2451.23 1193.4V1140.6L2441.63 1139.4V1139H2465.71C2473.71 1139 2479.31 1144.2 2479.31 1151.64C2479.31 1158.84 2473.71 1164.12 2465.71 1164.12H2464.99L2489.23 1202.76L2488.59 1203.24ZM2547.28 1195V1194.6L2557.04 1193.4L2575.68 1136.6H2576.08L2594.56 1193.4L2604.32 1194.6V1195H2581.6V1194.6L2591.12 1193.4L2585.76 1176.68H2565.12L2559.68 1193.4L2569.2 1194.6V1195H2547.28ZM2565.84 1174.28H2584.96L2575.44 1144.52L2565.84 1174.28ZM2665.88 1199L2639.08 1145.96V1193.4L2648.68 1194.6V1195H2627.08V1194.6L2636.68 1193.4V1135H2637.08L2663.88 1188.04V1140.6L2654.28 1139.4V1139H2675.88V1139.4L2666.28 1140.6V1199H2665.88ZM2707.48 1195V1194.6L2717.08 1193.4V1140.6L2707.48 1139.4V1139H2736.28C2752.28 1139 2764.28 1151 2764.28 1167C2764.28 1183 2752.28 1195 2736.28 1195H2707.48ZM2720.28 1192.6H2736.2C2750.76 1192.6 2761.08 1182.04 2761.08 1167C2761.08 1151.96 2750.76 1141.4 2736.2 1141.4H2720.28V1192.6ZM2844.05 1203.24L2813.81 1161L2814.05 1160.52L2818.61 1162.12H2819.73C2827.25 1162.12 2831.41 1157.64 2831.41 1151.8C2831.41 1145.8 2826.77 1141.4 2820.53 1141.4H2809.89V1193.4L2819.97 1194.6V1195H2797.09V1194.6L2806.69 1193.4V1140.6L2797.09 1139.4V1139H2821.17C2829.17 1139 2834.77 1144.2 2834.77 1151.64C2834.77 1158.84 2829.17 1164.12 2821.17 1164.12H2820.45L2844.69 1202.76L2844.05 1203.24ZM2872.72 1195V1194.6L2882.32 1193.4V1140.6L2872.72 1139.4V1139H2895.12V1139.4L2885.52 1140.6V1193.4L2895.12 1194.6V1195H2872.72ZM2953.57 1173.88L2950.61 1166.44H2939.89V1192.6H2962.69L2963.89 1183H2964.29V1195H2927.09V1194.6L2936.69 1193.4V1140.6L2927.09 1139.4V1139H2963.49V1151H2963.09L2961.89 1141.4H2939.89V1164.2H2950.61L2953.57 1156.76L2953.97 1156.84L2952.13 1165.08V1165.56L2953.97 1173.8L2953.57 1173.88ZM3019.37 1198.2L3000.81 1140.6L2991.12 1139.4V1139H3013.85V1139.4L3004.33 1140.6L3020.01 1190.2L3035.77 1140.6L3026.25 1139.4V1139H3048.17V1139.4L3038.49 1140.6L3019.77 1198.2H3019.37ZM3090.9 1196.52C3082.74 1196.52 3074.58 1191.4 3074.58 1181.08L3084.66 1172.2L3084.9 1172.44L3077.94 1180.92C3077.94 1189.72 3084.42 1194.12 3090.9 1194.12C3098.42 1194.12 3104.02 1188.68 3104.02 1181.48C3104.02 1175.56 3100.66 1171 3094.5 1168.04L3087.14 1164.6C3079.14 1160.92 3075.86 1155.4 3075.86 1150.2C3075.86 1142.44 3082.34 1136.6 3090.9 1136.6C3098.42 1136.6 3105.46 1141.32 3105.78 1151L3097.06 1158.2L3096.82 1157.96L3102.82 1150.92C3102.42 1142.92 3096.74 1139 3090.9 1139C3083.94 1139 3078.74 1143.8 3078.74 1150.2C3078.74 1154.28 3081.38 1158.68 3088.26 1161.64L3095.7 1165C3103.14 1168.28 3107.3 1174.12 3107.3 1181.24C3107.3 1189.96 3100.26 1196.52 3090.9 1196.52ZM3188.89 1203.24L3159.45 1161.88L3176.65 1140.6L3167.37 1139.4V1139H3189.69V1139.4L3179.77 1140.6L3163.21 1160.92L3189.53 1202.76L3188.89 1203.24ZM3142.09 1195V1194.6L3151.69 1193.4V1140.6L3142.09 1139.4V1139H3164.49V1139.4L3154.89 1140.6V1193.4L3164.49 1194.6V1195H3142.09ZM3217.33 1195V1194.6L3226.93 1193.4V1140.6L3217.33 1139.4V1139H3239.73V1139.4L3230.13 1140.6V1193.4L3239.73 1194.6V1195H3217.33ZM3279.22 1195V1194.6L3288.82 1193.4V1169.4L3275.46 1140.6L3265.7 1139.4V1139H3288.58V1139.4L3279.14 1140.6L3290.74 1166.2L3302.26 1140.6L3292.82 1139.4V1139H3314.9V1139.4L3305.14 1140.6L3292.02 1168.68V1193.4L3300.66 1194.6V1195H3279.22ZM3329.8 1211L3329.4 1210.84L3338.52 1195.48C3337.8 1195.08 3337.32 1194.28 3337.32 1193.4C3337.32 1192.12 3338.44 1191 3339.72 1191C3341 1191 3342.12 1192.12 3342.12 1193.4C3342.12 1193.96 3341.96 1194.44 3341.4 1195.24L3329.8 1211ZM1232.47 1307V1306.6L1242.23 1305.4L1260.87 1248.6H1261.27L1279.75 1305.4L1289.51 1306.6V1307H1266.79V1306.6L1276.31 1305.4L1270.95 1288.68H1250.31L1244.87 1305.4L1254.39 1306.6V1307H1232.47ZM1251.03 1286.28H1270.15L1260.63 1256.52L1251.03 1286.28ZM1312.68 1307V1306.6L1322.28 1305.4V1252.6L1312.68 1251.4V1251H1335.56V1251.4L1325.48 1252.6V1304.6H1347.8L1350.28 1295.16L1350.68 1295.24L1349.24 1305.56L1349.08 1307H1312.68ZM1409.16 1285.88L1406.2 1278.44H1395.48V1304.6H1418.28L1419.48 1295H1419.88V1307H1382.68V1306.6L1392.28 1305.4V1252.6L1382.68 1251.4V1251H1419.08V1263H1418.68L1417.48 1253.4H1395.48V1276.2H1406.2L1409.16 1268.76L1409.56 1268.84L1407.72 1277.08V1277.56L1409.56 1285.8L1409.16 1285.88ZM1479.27 1307V1306.6L1488.23 1305.4L1476.71 1280.52L1465.35 1305.4L1474.31 1306.6V1307H1452.71V1306.6L1462.47 1305.4L1475.51 1277.88L1463.43 1252.6L1453.67 1251.4V1251H1475.67V1251.4L1467.19 1252.6L1477.11 1274.28L1487.03 1252.6L1478.55 1251.4V1251H1499.67V1251.4L1489.91 1252.6L1478.39 1277L1491.91 1305.4L1501.75 1306.6V1307H1479.27ZM1522.94 1307V1306.6L1532.7 1305.4L1551.34 1248.6H1551.74L1570.22 1305.4L1579.98 1306.6V1307H1557.26V1306.6L1566.78 1305.4L1561.42 1288.68H1540.78L1535.34 1305.4L1544.86 1306.6V1307H1522.94ZM1541.5 1286.28H1560.62L1551.1 1256.52L1541.5 1286.28ZM1641.55 1311L1614.75 1257.96V1305.4L1624.35 1306.6V1307H1602.75V1306.6L1612.35 1305.4V1247H1612.75L1639.55 1300.04V1252.6L1629.95 1251.4V1251H1651.55V1251.4L1641.95 1252.6V1311H1641.55ZM1683.15 1307V1306.6L1692.75 1305.4V1252.6L1683.15 1251.4V1251H1711.95C1727.95 1251 1739.95 1263 1739.95 1279C1739.95 1295 1727.95 1307 1711.95 1307H1683.15ZM1695.95 1304.6H1711.87C1726.43 1304.6 1736.75 1294.04 1736.75 1279C1736.75 1263.96 1726.43 1253.4 1711.87 1253.4H1695.95V1304.6ZM1799.24 1285.88L1796.28 1278.44H1785.56V1304.6H1808.36L1809.56 1295H1809.96V1307H1772.76V1306.6L1782.36 1305.4V1252.6L1772.76 1251.4V1251H1809.16V1263H1808.76L1807.56 1253.4H1785.56V1276.2H1796.28L1799.24 1268.76L1799.64 1268.84L1797.8 1277.08V1277.56L1799.64 1285.8L1799.24 1285.88ZM1891.75 1315.24L1861.51 1273L1861.75 1272.52L1866.31 1274.12H1867.43C1874.95 1274.12 1879.11 1269.64 1879.11 1263.8C1879.11 1257.8 1874.47 1253.4 1868.23 1253.4H1857.59V1305.4L1867.67 1306.6V1307H1844.79V1306.6L1854.39 1305.4V1252.6L1844.79 1251.4V1251H1868.87C1876.87 1251 1882.47 1256.2 1882.47 1263.64C1882.47 1270.84 1876.87 1276.12 1868.87 1276.12H1868.15L1892.39 1314.76L1891.75 1315.24ZM2007.21 1315.24L1977.77 1273.88L1994.97 1252.6L1985.69 1251.4V1251H2008.01V1251.4L1998.09 1252.6L1981.53 1272.92L2007.85 1314.76L2007.21 1315.24ZM1960.41 1307V1306.6L1970.01 1305.4V1252.6L1960.41 1251.4V1251H1982.81V1251.4L1973.21 1252.6V1305.4L1982.81 1306.6V1307H1960.41ZM2059.17 1308.6C2051.97 1308.6 2044.85 1303.4 2044.85 1292.92V1252.6L2035.25 1251.4V1251H2056.69V1251.4L2048.05 1252.6V1292.6C2048.05 1300.36 2052.85 1305.8 2059.65 1305.8C2066.45 1305.8 2071.25 1300.44 2071.25 1292.92V1252.6L2062.61 1251.4V1251H2083.25V1251.4L2073.65 1252.6V1292.6C2073.65 1303.32 2066.37 1308.6 2059.17 1308.6ZM2115.67 1307V1306.6L2140.23 1253.4H2117.75L2115.27 1262.84L2114.87 1262.76L2116.31 1252.44L2116.47 1251H2144.47V1251.4L2119.91 1304.6H2142.39L2144.87 1295.16L2145.27 1295.24L2143.83 1305.56L2143.67 1307H2115.67ZM2215.69 1311L2188.89 1257.96V1305.4L2198.49 1306.6V1307H2176.89V1306.6L2186.49 1305.4V1247H2186.89L2213.69 1300.04V1252.6L2204.09 1251.4V1251H2225.69V1251.4L2216.09 1252.6V1311H2215.69ZM2283.77 1285.88L2280.81 1278.44H2270.09V1304.6H2292.89L2294.09 1295H2294.49V1307H2257.29V1306.6L2266.89 1305.4V1252.6L2257.29 1251.4V1251H2293.69V1263H2293.29L2292.09 1253.4H2270.09V1276.2H2280.81L2283.77 1268.76L2284.17 1268.84L2282.33 1277.08V1277.56L2284.17 1285.8L2283.77 1285.88ZM2335.24 1307V1306.6L2344.84 1305.4V1253.4H2330.2L2327.72 1262.84L2327.32 1262.76L2328.76 1252.44L2328.92 1251H2364.12L2364.28 1252.44L2365.72 1262.76L2365.32 1262.84L2362.84 1253.4H2348.04V1305.4L2356.68 1306.6V1307H2335.24ZM2414.85 1308.52C2406.69 1308.52 2398.53 1303.4 2398.53 1293.08L2408.61 1284.2L2408.85 1284.44L2401.89 1292.92C2401.89 1301.72 2408.37 1306.12 2414.85 1306.12C2422.37 1306.12 2427.97 1300.68 2427.97 1293.48C2427.97 1287.56 2424.61 1283 2418.45 1280.04L2411.09 1276.6C2403.09 1272.92 2399.81 1267.4 2399.81 1262.2C2399.81 1254.44 2406.29 1248.6 2414.85 1248.6C2422.37 1248.6 2429.41 1253.32 2429.73 1263L2421.01 1270.2L2420.77 1269.96L2426.77 1262.92C2426.37 1254.92 2420.69 1251 2414.85 1251C2407.89 1251 2402.69 1255.8 2402.69 1262.2C2402.69 1266.28 2405.33 1270.68 2412.21 1273.64L2419.65 1277C2427.09 1280.28 2431.25 1286.12 2431.25 1293.24C2431.25 1301.96 2424.21 1308.52 2414.85 1308.52ZM2495.28 1308.6C2478.16 1308.6 2465.28 1295.72 2465.28 1278.6C2465.28 1261.48 2478.16 1248.6 2495.28 1248.6C2512.4 1248.6 2525.28 1261.48 2525.28 1278.6C2525.28 1295.72 2512.4 1308.6 2495.28 1308.6ZM2495.28 1306.2C2510.88 1306.2 2521.92 1294.76 2521.92 1278.6C2521.92 1262.44 2510.88 1251 2495.28 1251C2479.68 1251 2468.64 1262.44 2468.64 1278.6C2468.64 1294.76 2479.68 1306.2 2495.28 1306.2ZM2578.31 1310.2L2559.75 1252.6L2550.07 1251.4V1251H2572.79V1251.4L2563.27 1252.6L2578.95 1302.2L2594.71 1252.6L2585.19 1251.4V1251H2607.11V1251.4L2597.43 1252.6L2578.71 1310.2H2578.31Z" fill="#E3E1D3"/>
<path d="M1690.79 1424H1688.15C1688 1423.24 1687.72 1422.57 1687.33 1422C1686.95 1421.42 1686.48 1420.94 1685.93 1420.55C1685.38 1420.15 1684.77 1419.85 1684.1 1419.65C1683.44 1419.45 1682.74 1419.36 1682.02 1419.36C1680.7 1419.36 1679.5 1419.69 1678.43 1420.36C1677.36 1421.02 1676.51 1422.01 1675.88 1423.31C1675.25 1424.61 1674.94 1426.2 1674.94 1428.09C1674.94 1429.98 1675.25 1431.57 1675.88 1432.87C1676.51 1434.17 1677.36 1435.16 1678.43 1435.83C1679.5 1436.49 1680.7 1436.83 1682.02 1436.83C1682.74 1436.83 1683.44 1436.73 1684.1 1436.53C1684.77 1436.33 1685.38 1436.03 1685.93 1435.64C1686.48 1435.25 1686.95 1434.76 1687.33 1434.18C1687.72 1433.6 1688 1432.93 1688.15 1432.18H1690.79C1690.6 1433.3 1690.23 1434.29 1689.71 1435.18C1689.18 1436.06 1688.53 1436.81 1687.75 1437.42C1686.97 1438.03 1686.09 1438.5 1685.12 1438.82C1684.15 1439.14 1683.12 1439.3 1682.02 1439.3C1680.16 1439.3 1678.5 1438.84 1677.05 1437.93C1675.6 1437.03 1674.46 1435.73 1673.63 1434.06C1672.8 1432.38 1672.39 1430.39 1672.39 1428.09C1672.39 1425.79 1672.8 1423.8 1673.63 1422.12C1674.46 1420.45 1675.6 1419.16 1677.05 1418.25C1678.5 1417.34 1680.16 1416.88 1682.02 1416.88C1683.12 1416.88 1684.15 1417.04 1685.12 1417.36C1686.09 1417.68 1686.97 1418.15 1687.75 1418.77C1688.53 1419.38 1689.18 1420.13 1689.71 1421.01C1690.23 1421.88 1690.6 1422.88 1690.79 1424ZM1718.93 1439.3C1717 1439.3 1715.3 1438.84 1713.84 1437.93C1712.38 1437.03 1711.24 1435.73 1710.43 1434.06C1709.62 1432.38 1709.21 1430.39 1709.21 1428.09C1709.21 1426.37 1709.45 1424.81 1709.93 1423.44C1710.4 1422.05 1711.07 1420.87 1711.93 1419.9C1712.79 1418.93 1713.81 1418.18 1714.99 1417.66C1716.16 1417.14 1717.45 1416.88 1718.84 1416.88C1719.99 1416.88 1721.07 1417.06 1722.08 1417.41C1723.09 1417.75 1724 1418.23 1724.8 1418.87C1725.61 1419.49 1726.28 1420.24 1726.81 1421.11C1727.35 1421.98 1727.72 1422.94 1727.92 1424H1725.19C1724.97 1423.28 1724.67 1422.64 1724.28 1422.07C1723.88 1421.5 1723.42 1421.01 1722.87 1420.6C1722.32 1420.2 1721.71 1419.89 1721.04 1419.67C1720.36 1419.46 1719.63 1419.36 1718.84 1419.36C1717.55 1419.36 1716.37 1419.69 1715.29 1420.36C1714.22 1421.02 1713.37 1422.01 1712.73 1423.31C1712.09 1424.61 1711.77 1426.2 1711.77 1428.09C1711.77 1429.98 1712.08 1431.57 1712.72 1432.87C1713.35 1434.17 1714.2 1435.16 1715.28 1435.83C1716.36 1436.49 1717.58 1436.83 1718.93 1436.83C1720.23 1436.83 1721.37 1436.54 1722.35 1435.97C1723.33 1435.4 1724.11 1434.61 1724.66 1433.61C1725.21 1432.6 1725.49 1431.45 1725.49 1430.16L1725.83 1430.43H1719.52V1428.09H1728.05V1439H1725.83L1725.51 1436.34H1725.4C1724.57 1437.29 1723.65 1438.02 1722.62 1438.53C1721.6 1439.04 1720.37 1439.3 1718.93 1439.3ZM1788.56 1424H1785.92C1785.76 1423.24 1785.49 1422.57 1785.1 1422C1784.71 1421.42 1784.24 1420.94 1783.69 1420.55C1783.14 1420.15 1782.54 1419.85 1781.87 1419.65C1781.2 1419.45 1780.5 1419.36 1779.78 1419.36C1778.46 1419.36 1777.26 1419.69 1776.19 1420.36C1775.12 1421.02 1774.28 1422.01 1773.64 1423.31C1773.02 1424.61 1772.71 1426.2 1772.71 1428.09C1772.71 1429.98 1773.02 1431.57 1773.64 1432.87C1774.28 1434.17 1775.12 1435.16 1776.19 1435.83C1777.26 1436.49 1778.46 1436.83 1779.78 1436.83C1780.5 1436.83 1781.2 1436.73 1781.87 1436.53C1782.54 1436.33 1783.14 1436.03 1783.69 1435.64C1784.24 1435.25 1784.71 1434.76 1785.1 1434.18C1785.49 1433.6 1785.76 1432.93 1785.92 1432.18H1788.56C1788.36 1433.3 1788 1434.29 1787.47 1435.18C1786.95 1436.06 1786.29 1436.81 1785.51 1437.42C1784.73 1438.03 1783.85 1438.5 1782.88 1438.82C1781.91 1439.14 1780.88 1439.3 1779.78 1439.3C1777.92 1439.3 1776.26 1438.84 1774.82 1437.93C1773.37 1437.03 1772.23 1435.73 1771.4 1434.06C1770.56 1432.38 1770.15 1430.39 1770.15 1428.09C1770.15 1425.79 1770.56 1423.8 1771.4 1422.12C1772.23 1420.45 1773.37 1419.16 1774.82 1418.25C1776.26 1417.34 1777.92 1416.88 1779.78 1416.88C1780.88 1416.88 1781.91 1417.04 1782.88 1417.36C1783.85 1417.68 1784.73 1418.15 1785.51 1418.77C1786.29 1419.38 1786.95 1420.13 1787.47 1421.01C1788 1421.88 1788.36 1422.88 1788.56 1424ZM1826.24 1428.09C1826.24 1430.39 1825.82 1432.38 1824.99 1434.06C1824.16 1435.73 1823.02 1437.03 1821.57 1437.93C1820.12 1438.84 1818.47 1439.3 1816.61 1439.3C1814.75 1439.3 1813.09 1438.84 1811.64 1437.93C1810.19 1437.03 1809.05 1435.73 1808.22 1434.06C1807.39 1432.38 1806.98 1430.39 1806.98 1428.09C1806.98 1425.79 1807.39 1423.8 1808.22 1422.12C1809.05 1420.45 1810.19 1419.16 1811.64 1418.25C1813.09 1417.34 1814.75 1416.88 1816.61 1416.88C1818.47 1416.88 1820.12 1417.34 1821.57 1418.25C1823.02 1419.16 1824.16 1420.45 1824.99 1422.12C1825.82 1423.8 1826.24 1425.79 1826.24 1428.09ZM1823.68 1428.09C1823.68 1426.2 1823.36 1424.61 1822.73 1423.31C1822.11 1422.01 1821.26 1421.02 1820.19 1420.36C1819.12 1419.69 1817.93 1419.36 1816.61 1419.36C1815.28 1419.36 1814.09 1419.69 1813.02 1420.36C1811.95 1421.02 1811.1 1422.01 1810.47 1423.31C1809.84 1424.61 1809.53 1426.2 1809.53 1428.09C1809.53 1429.98 1809.84 1431.57 1810.47 1432.87C1811.1 1434.17 1811.95 1435.16 1813.02 1435.83C1814.09 1436.49 1815.28 1436.83 1816.61 1436.83C1817.93 1436.83 1819.12 1436.49 1820.19 1435.83C1821.26 1435.16 1822.11 1434.17 1822.73 1432.87C1823.36 1431.57 1823.68 1429.98 1823.68 1428.09ZM1864.09 1428.09C1864.09 1430.39 1863.67 1432.38 1862.84 1434.06C1862.01 1435.73 1860.87 1437.03 1859.42 1437.93C1857.97 1438.84 1856.32 1439.3 1854.46 1439.3C1852.6 1439.3 1850.94 1438.84 1849.49 1437.93C1848.04 1437.03 1846.9 1435.73 1846.07 1434.06C1845.24 1432.38 1844.83 1430.39 1844.83 1428.09C1844.83 1425.79 1845.24 1423.8 1846.07 1422.12C1846.9 1420.45 1848.04 1419.16 1849.49 1418.25C1850.94 1417.34 1852.6 1416.88 1854.46 1416.88C1856.32 1416.88 1857.97 1417.34 1859.42 1418.25C1860.87 1419.16 1862.01 1420.45 1862.84 1422.12C1863.67 1423.8 1864.09 1425.79 1864.09 1428.09ZM1861.53 1428.09C1861.53 1426.2 1861.22 1424.61 1860.58 1423.31C1859.96 1422.01 1859.11 1421.02 1858.04 1420.36C1856.97 1419.69 1855.78 1419.36 1854.46 1419.36C1853.14 1419.36 1851.94 1419.69 1850.87 1420.36C1849.8 1421.02 1848.95 1422.01 1848.32 1423.31C1847.7 1424.61 1847.38 1426.2 1847.38 1428.09C1847.38 1429.98 1847.7 1431.57 1848.32 1432.87C1848.95 1434.17 1849.8 1435.16 1850.87 1435.83C1851.94 1436.49 1853.14 1436.83 1854.46 1436.83C1855.78 1436.83 1856.97 1436.49 1858.04 1435.83C1859.11 1435.16 1859.96 1434.17 1860.58 1432.87C1861.22 1431.57 1861.53 1429.98 1861.53 1428.09ZM1883.53 1439V1417.18H1890.9C1892.61 1417.18 1894.01 1417.47 1895.1 1418.06C1896.19 1418.63 1897 1419.42 1897.53 1420.43C1898.05 1421.44 1898.32 1422.59 1898.32 1423.87C1898.32 1425.16 1898.05 1426.3 1897.53 1427.29C1897 1428.29 1896.2 1429.07 1895.11 1429.64C1894.02 1430.2 1892.64 1430.48 1890.95 1430.48H1884.98V1428.09H1890.86C1892.03 1428.09 1892.96 1427.92 1893.67 1427.58C1894.39 1427.24 1894.91 1426.76 1895.23 1426.13C1895.55 1425.5 1895.72 1424.75 1895.72 1423.87C1895.72 1423 1895.55 1422.24 1895.23 1421.58C1894.9 1420.93 1894.38 1420.42 1893.66 1420.07C1892.94 1419.71 1892 1419.53 1890.82 1419.53H1886.17V1439H1883.53ZM1893.8 1429.2L1899.17 1439H1896.1L1890.82 1429.2H1893.8ZM1924.45 1439H1917.72V1417.18H1924.75C1926.87 1417.18 1928.68 1417.62 1930.18 1418.49C1931.69 1419.36 1932.84 1420.61 1933.65 1422.23C1934.45 1423.85 1934.85 1425.79 1934.85 1428.05C1934.85 1430.32 1934.45 1432.28 1933.64 1433.92C1932.83 1435.55 1931.65 1436.81 1930.1 1437.69C1928.55 1438.56 1926.67 1439 1924.45 1439ZM1920.36 1436.66H1924.28C1926.09 1436.66 1927.58 1436.31 1928.77 1435.61C1929.95 1434.92 1930.84 1433.93 1931.42 1432.64C1932 1431.35 1932.29 1429.82 1932.29 1428.05C1932.29 1426.29 1932.01 1424.77 1931.43 1423.5C1930.86 1422.22 1930 1421.24 1928.85 1420.56C1927.71 1419.87 1926.29 1419.53 1924.58 1419.53H1920.36V1436.66ZM1956.92 1417.18V1439H1954.28V1417.18H1956.92ZM1994.52 1417.18V1439H1991.97L1980.08 1421.87H1979.86V1439H1977.22V1417.18H1979.78L1991.71 1434.36H1991.92V1417.18H1994.52ZM2015.7 1439H2012.94L2020.95 1417.18H2023.67L2031.69 1439H2028.92L2022.4 1420.63H2022.22L2015.7 1439ZM2016.73 1430.48H2027.89V1432.82H2016.73V1430.48ZM2046.34 1419.53V1417.18H2062.71V1419.53H2055.84V1439H2053.2V1419.53H2046.34ZM2099.28 1428.09C2099.28 1430.39 2098.87 1432.38 2098.04 1434.06C2097.21 1435.73 2096.07 1437.03 2094.62 1437.93C2093.17 1438.84 2091.51 1439.3 2089.65 1439.3C2087.79 1439.3 2086.14 1438.84 2084.69 1437.93C2083.24 1437.03 2082.1 1435.73 2081.27 1434.06C2080.44 1432.38 2080.02 1430.39 2080.02 1428.09C2080.02 1425.79 2080.44 1423.8 2081.27 1422.12C2082.1 1420.45 2083.24 1419.16 2084.69 1418.25C2086.14 1417.34 2087.79 1416.88 2089.65 1416.88C2091.51 1416.88 2093.17 1417.34 2094.62 1418.25C2096.07 1419.16 2097.21 1420.45 2098.04 1422.12C2098.87 1423.8 2099.28 1425.79 2099.28 1428.09ZM2096.73 1428.09C2096.73 1426.2 2096.41 1424.61 2095.78 1423.31C2095.15 1422.01 2094.3 1421.02 2093.23 1420.36C2092.17 1419.69 2090.97 1419.36 2089.65 1419.36C2088.33 1419.36 2087.14 1419.69 2086.06 1420.36C2085 1421.02 2084.15 1422.01 2083.52 1423.31C2082.89 1424.61 2082.58 1426.2 2082.58 1428.09C2082.58 1429.98 2082.89 1431.57 2083.52 1432.87C2084.15 1434.17 2085 1435.16 2086.06 1435.83C2087.14 1436.49 2088.33 1436.83 2089.65 1436.83C2090.97 1436.83 2092.17 1436.49 2093.23 1435.83C2094.3 1435.16 2095.15 1434.17 2095.78 1432.87C2096.41 1431.57 2096.73 1429.98 2096.73 1428.09ZM2118.73 1439V1417.18H2126.1C2127.8 1417.18 2129.2 1417.47 2130.3 1418.06C2131.39 1418.63 2132.2 1419.42 2132.72 1420.43C2133.25 1421.44 2133.51 1422.59 2133.51 1423.87C2133.51 1425.16 2133.25 1426.3 2132.72 1427.29C2132.2 1428.29 2131.39 1429.07 2130.31 1429.64C2129.22 1430.2 2127.83 1430.48 2126.14 1430.48H2120.17V1428.09H2126.06C2127.22 1428.09 2128.16 1427.92 2128.87 1427.58C2129.59 1427.24 2130.1 1426.76 2130.42 1426.13C2130.75 1425.5 2130.91 1424.75 2130.91 1423.87C2130.91 1423 2130.75 1422.24 2130.42 1421.58C2130.1 1420.93 2129.57 1420.42 2128.86 1420.07C2128.14 1419.71 2127.19 1419.53 2126.01 1419.53H2121.37V1439H2118.73ZM2129 1429.2L2134.37 1439H2131.3L2126.01 1429.2H2129ZM2164.85 1422.64C2164.72 1421.56 2164.2 1420.72 2163.29 1420.12C2162.38 1419.53 2161.27 1419.23 2159.95 1419.23C2158.98 1419.23 2158.14 1419.38 2157.41 1419.7C2156.69 1420.01 2156.13 1420.44 2155.73 1420.99C2155.33 1421.53 2155.13 1422.15 2155.13 1422.85C2155.13 1423.43 2155.27 1423.93 2155.55 1424.35C2155.83 1424.76 2156.19 1425.11 2156.63 1425.38C2157.07 1425.65 2157.54 1425.88 2158.02 1426.06C2158.5 1426.23 2158.95 1426.37 2159.35 1426.47L2161.57 1427.07C2162.13 1427.22 2162.77 1427.42 2163.46 1427.69C2164.17 1427.95 2164.84 1428.31 2165.48 1428.76C2166.12 1429.21 2166.65 1429.78 2167.07 1430.49C2167.49 1431.19 2167.7 1432.05 2167.7 1433.08C2167.7 1434.26 2167.39 1435.32 2166.78 1436.27C2166.16 1437.22 2165.27 1437.98 2164.09 1438.54C2162.92 1439.1 2161.5 1439.38 2159.82 1439.38C2158.26 1439.38 2156.9 1439.13 2155.76 1438.63C2154.62 1438.12 2153.73 1437.42 2153.08 1436.52C2152.43 1435.62 2152.06 1434.57 2151.98 1433.38H2154.71C2154.78 1434.2 2155.05 1434.88 2155.54 1435.42C2156.03 1435.95 2156.64 1436.35 2157.39 1436.61C2158.14 1436.87 2158.95 1437 2159.82 1437C2160.83 1437 2161.73 1436.83 2162.54 1436.51C2163.34 1436.17 2163.97 1435.71 2164.44 1435.12C2164.91 1434.53 2165.15 1433.83 2165.15 1433.03C2165.15 1432.31 2164.94 1431.72 2164.54 1431.27C2164.13 1430.81 2163.6 1430.44 2162.94 1430.16C2162.28 1429.87 2161.57 1429.62 2160.8 1429.41L2158.11 1428.64C2156.41 1428.15 2155.06 1427.46 2154.07 1426.55C2153.07 1425.64 2152.57 1424.45 2152.57 1422.98C2152.57 1421.76 2152.9 1420.69 2153.57 1419.78C2154.23 1418.87 2155.13 1418.15 2156.25 1417.65C2157.38 1417.14 2158.64 1416.88 2160.03 1416.88C2161.44 1416.88 2162.69 1417.14 2163.78 1417.64C2164.88 1418.14 2165.74 1418.82 2166.38 1419.69C2167.03 1420.55 2167.37 1421.54 2167.4 1422.64H2164.85Z" fill="#E3E1D3"/>
<path d="M757.864 1543V1542.6L767.624 1541.4L786.264 1484.6H786.664L805.144 1541.4L814.904 1542.6V1543H792.184V1542.6L801.704 1541.4L796.344 1524.68H775.704L770.264 1541.4L779.784 1542.6V1543H757.864ZM776.424 1522.28H795.544L786.024 1492.52L776.424 1522.28ZM838.07 1543V1542.6L847.67 1541.4V1488.6L838.07 1487.4V1487H860.95V1487.4L850.87 1488.6V1540.6H873.19L875.67 1531.16L876.07 1531.24L874.63 1541.56L874.47 1543H838.07ZM908.07 1543V1542.6L917.67 1541.4V1488.6L908.07 1487.4V1487H930.47V1487.4L920.87 1488.6V1541.4L930.47 1542.6V1543H908.07ZM981.565 1544.52C973.405 1544.52 965.245 1539.4 965.245 1529.08L975.325 1520.2L975.565 1520.44L968.605 1528.92C968.605 1537.72 975.085 1542.12 981.565 1542.12C989.085 1542.12 994.685 1536.68 994.685 1529.48C994.685 1523.56 991.325 1519 985.165 1516.04L977.805 1512.6C969.805 1508.92 966.525 1503.4 966.525 1498.2C966.525 1490.44 973.005 1484.6 981.565 1484.6C989.085 1484.6 996.125 1489.32 996.445 1499L987.725 1506.2L987.485 1505.96L993.485 1498.92C993.085 1490.92 987.405 1487 981.565 1487C974.605 1487 969.405 1491.8 969.405 1498.2C969.405 1502.28 972.045 1506.68 978.925 1509.64L986.365 1513C993.805 1516.28 997.965 1522.12 997.965 1529.24C997.965 1537.96 990.925 1544.52 981.565 1544.52ZM1023.96 1543V1542.6L1033.72 1541.4L1052.36 1484.6H1052.76L1071.24 1541.4L1081 1542.6V1543H1058.28V1542.6L1067.8 1541.4L1062.44 1524.68H1041.8L1036.36 1541.4L1045.88 1542.6V1543H1023.96ZM1042.52 1522.28H1061.64L1052.12 1492.52L1042.52 1522.28ZM1150.12 1543V1542.6L1159.72 1541.4V1517.4L1146.36 1488.6L1136.6 1487.4V1487H1159.48V1487.4L1150.04 1488.6L1161.64 1514.2L1173.16 1488.6L1163.72 1487.4V1487H1185.8V1487.4L1176.04 1488.6L1162.92 1516.68V1541.4L1171.56 1542.6V1543H1150.12ZM1201.46 1543V1542.6L1211.22 1541.4L1229.86 1484.6H1230.26L1248.74 1541.4L1258.5 1542.6V1543H1235.78V1542.6L1245.3 1541.4L1239.94 1524.68H1219.3L1213.86 1541.4L1223.38 1542.6V1543H1201.46ZM1220.02 1522.28H1239.14L1229.62 1492.52L1220.02 1522.28ZM1328.62 1551.24L1298.38 1509L1298.62 1508.52L1303.18 1510.12H1304.3C1311.82 1510.12 1315.98 1505.64 1315.98 1499.8C1315.98 1493.8 1311.34 1489.4 1305.1 1489.4H1294.46V1541.4L1304.54 1542.6V1543H1281.66V1542.6L1291.26 1541.4V1488.6L1281.66 1487.4V1487H1305.74C1313.74 1487 1319.34 1492.2 1319.34 1499.64C1319.34 1506.84 1313.74 1512.12 1305.74 1512.12H1305.02L1329.26 1550.76L1328.62 1551.24ZM1388.09 1544.6C1370.97 1544.6 1358.09 1531.72 1358.09 1514.6C1358.09 1497.48 1370.97 1484.6 1388.09 1484.6C1405.21 1484.6 1418.09 1497.48 1418.09 1514.6C1418.09 1531.72 1405.21 1544.6 1388.09 1544.6ZM1388.09 1542.2C1403.69 1542.2 1414.73 1530.76 1414.73 1514.6C1414.73 1498.44 1403.69 1487 1388.09 1487C1372.49 1487 1361.45 1498.44 1361.45 1514.6C1361.45 1530.76 1372.49 1542.2 1388.09 1542.2ZM1468.44 1544.52C1460.28 1544.52 1452.12 1539.4 1452.12 1529.08L1462.2 1520.2L1462.44 1520.44L1455.48 1528.92C1455.48 1537.72 1461.96 1542.12 1468.44 1542.12C1475.96 1542.12 1481.56 1536.68 1481.56 1529.48C1481.56 1523.56 1478.2 1519 1472.04 1516.04L1464.68 1512.6C1456.68 1508.92 1453.4 1503.4 1453.4 1498.2C1453.4 1490.44 1459.88 1484.6 1468.44 1484.6C1475.96 1484.6 1483 1489.32 1483.32 1499L1474.6 1506.2L1474.36 1505.96L1480.36 1498.92C1479.96 1490.92 1474.28 1487 1468.44 1487C1461.48 1487 1456.28 1491.8 1456.28 1498.2C1456.28 1502.28 1458.92 1506.68 1465.8 1509.64L1473.24 1513C1480.68 1516.28 1484.84 1522.12 1484.84 1529.24C1484.84 1537.96 1477.8 1544.52 1468.44 1544.52ZM1519.63 1543V1542.6L1529.23 1541.4V1488.6L1519.63 1487.4V1487H1542.51V1487.4L1532.43 1488.6V1540.6H1554.75L1557.23 1531.16L1557.63 1531.24L1556.19 1541.56L1556.03 1543H1519.63ZM1580.83 1543V1542.6L1590.59 1541.4L1609.23 1484.6H1609.63L1628.11 1541.4L1637.87 1542.6V1543H1615.15V1542.6L1624.67 1541.4L1619.31 1524.68H1598.67L1593.23 1541.4L1602.75 1542.6V1543H1580.83ZM1599.39 1522.28H1618.51L1608.99 1492.52L1599.39 1522.28ZM1679.25 1546.2L1660.69 1488.6L1651.01 1487.4V1487H1673.73V1487.4L1664.21 1488.6L1679.89 1538.2L1695.65 1488.6L1686.13 1487.4V1487H1708.05V1487.4L1698.37 1488.6L1679.65 1546.2H1679.25ZM1750.78 1544.52C1742.62 1544.52 1734.46 1539.4 1734.46 1529.08L1744.54 1520.2L1744.78 1520.44L1737.82 1528.92C1737.82 1537.72 1744.3 1542.12 1750.78 1542.12C1758.3 1542.12 1763.9 1536.68 1763.9 1529.48C1763.9 1523.56 1760.54 1519 1754.38 1516.04L1747.02 1512.6C1739.02 1508.92 1735.74 1503.4 1735.74 1498.2C1735.74 1490.44 1742.22 1484.6 1750.78 1484.6C1758.3 1484.6 1765.34 1489.32 1765.66 1499L1756.94 1506.2L1756.7 1505.96L1762.7 1498.92C1762.3 1490.92 1756.62 1487 1750.78 1487C1743.82 1487 1738.62 1491.8 1738.62 1498.2C1738.62 1502.28 1741.26 1506.68 1748.14 1509.64L1755.58 1513C1763.02 1516.28 1767.18 1522.12 1767.18 1529.24C1767.18 1537.96 1760.14 1544.52 1750.78 1544.52ZM1848.78 1551.24L1819.34 1509.88L1836.54 1488.6L1827.26 1487.4V1487H1849.58V1487.4L1839.66 1488.6L1823.1 1508.92L1849.42 1550.76L1848.78 1551.24ZM1801.98 1543V1542.6L1811.58 1541.4V1488.6L1801.98 1487.4V1487H1824.38V1487.4L1814.78 1488.6V1541.4L1824.38 1542.6V1543H1801.98ZM1868.41 1543V1542.6L1878.17 1541.4L1896.81 1484.6H1897.21L1915.69 1541.4L1925.45 1542.6V1543H1902.73V1542.6L1912.25 1541.4L1906.89 1524.68H1886.25L1880.81 1541.4L1890.33 1542.6V1543H1868.41ZM1886.97 1522.28H1906.09L1896.57 1492.52L1886.97 1522.28ZM1954.11 1543V1542.6L1963.71 1541.4V1517.4L1950.35 1488.6L1940.59 1487.4V1487H1963.47V1487.4L1954.03 1488.6L1965.63 1514.2L1977.15 1488.6L1967.71 1487.4V1487H1989.79V1487.4L1980.03 1488.6L1966.91 1516.68V1541.4L1975.55 1542.6V1543H1954.11ZM2005.44 1543V1542.6L2015.2 1541.4L2033.84 1484.6H2034.24L2052.72 1541.4L2062.48 1542.6V1543H2039.76V1542.6L2049.28 1541.4L2043.92 1524.68H2023.28L2017.84 1541.4L2027.36 1542.6V1543H2005.44ZM2024 1522.28H2043.12L2033.6 1492.52L2024 1522.28ZM2077.73 1559L2077.33 1558.84L2086.45 1543.48C2085.73 1543.08 2085.25 1542.28 2085.25 1541.4C2085.25 1540.12 2086.37 1539 2087.65 1539C2088.93 1539 2090.05 1540.12 2090.05 1541.4C2090.05 1541.96 2089.89 1542.44 2089.33 1543.24L2077.73 1559ZM2187.92 1546.2L2172.48 1498.12V1541.4L2181.12 1542.6V1543H2160.48V1542.6L2170.08 1541.4V1483H2170.64L2188.4 1538.28L2206.32 1483H2206.88V1541.4L2216.48 1542.6V1543H2195.04V1542.6L2203.68 1541.4V1498.92L2188.32 1546.2H2187.92ZM2248.07 1543V1542.6L2257.67 1541.4V1488.6L2248.07 1487.4V1487H2270.47V1487.4L2260.87 1488.6V1541.4L2270.47 1542.6V1543H2248.07ZM2321.57 1544.52C2313.41 1544.52 2305.25 1539.4 2305.25 1529.08L2315.33 1520.2L2315.57 1520.44L2308.61 1528.92C2308.61 1537.72 2315.09 1542.12 2321.57 1542.12C2329.09 1542.12 2334.69 1536.68 2334.69 1529.48C2334.69 1523.56 2331.33 1519 2325.17 1516.04L2317.81 1512.6C2309.81 1508.92 2306.53 1503.4 2306.53 1498.2C2306.53 1490.44 2313.01 1484.6 2321.57 1484.6C2329.09 1484.6 2336.13 1489.32 2336.45 1499L2327.73 1506.2L2327.49 1505.96L2333.49 1498.92C2333.09 1490.92 2327.41 1487 2321.57 1487C2314.61 1487 2309.41 1491.8 2309.41 1498.2C2309.41 1502.28 2312.05 1506.68 2318.93 1509.64L2326.37 1513C2333.81 1516.28 2337.97 1522.12 2337.97 1529.24C2337.97 1537.96 2330.93 1544.52 2321.57 1544.52ZM2399.32 1543V1542.6L2407.96 1541.4V1514.6H2385.56V1541.4L2394.2 1542.6V1543H2372.76V1542.6L2382.36 1541.4V1488.6L2372.76 1487.4V1487H2394.2V1487.4L2385.56 1488.6V1512.2H2407.96V1488.6L2399.32 1487.4V1487H2420.76V1487.4L2411.16 1488.6V1541.4L2420.76 1542.6V1543H2399.32ZM2443.96 1543V1542.6L2453.72 1541.4L2472.36 1484.6H2472.76L2491.24 1541.4L2501 1542.6V1543H2478.28V1542.6L2487.8 1541.4L2482.44 1524.68H2461.8L2456.36 1541.4L2465.88 1542.6V1543H2443.96ZM2462.52 1522.28H2481.64L2472.12 1492.52L2462.52 1522.28ZM2590.81 1546.2L2575.37 1498.12V1541.4L2584.01 1542.6V1543H2563.37V1542.6L2572.97 1541.4V1483H2573.53L2591.29 1538.28L2609.21 1483H2609.77V1541.4L2619.37 1542.6V1543H2597.93V1542.6L2606.57 1541.4V1498.92L2591.21 1546.2H2590.81ZM2642.16 1543V1542.6L2651.92 1541.4L2670.56 1484.6H2670.96L2689.44 1541.4L2699.2 1542.6V1543H2676.48V1542.6L2686 1541.4L2680.64 1524.68H2660L2654.56 1541.4L2664.08 1542.6V1543H2642.16ZM2660.72 1522.28H2679.84L2670.32 1492.52L2660.72 1522.28ZM2753.17 1544.6C2736.05 1544.6 2723.17 1531.72 2723.17 1514.6C2723.17 1497.48 2736.05 1484.6 2753.17 1484.6C2765.73 1484.6 2776.05 1491.56 2780.61 1502.04L2777.89 1507.08L2777.57 1507V1502.76C2773.65 1493.24 2764.61 1487 2753.17 1487C2737.57 1487 2726.53 1498.44 2726.53 1514.6C2726.53 1530.76 2737.57 1542.2 2753.17 1542.2C2767.41 1542.2 2777.89 1532.68 2779.57 1518.76L2753.09 1516.76V1516.36H2783.09C2782.21 1532.52 2769.65 1544.6 2753.17 1544.6ZM2806.69 1543V1542.6L2816.45 1541.4L2835.09 1484.6H2835.49L2853.97 1541.4L2863.73 1542.6V1543H2841.01V1542.6L2850.53 1541.4L2845.17 1524.68H2824.53L2819.09 1541.4L2828.61 1542.6V1543H2806.69ZM2825.25 1522.28H2844.37L2834.85 1492.52L2825.25 1522.28ZM2925.3 1547L2898.5 1493.96V1541.4L2908.1 1542.6V1543H2886.5V1542.6L2896.1 1541.4V1483H2896.5L2923.3 1536.04V1488.6L2913.7 1487.4V1487H2935.3V1487.4L2925.7 1488.6V1547H2925.3ZM2993.38 1521.88L2990.42 1514.44H2979.7V1540.6H3002.5L3003.7 1531H3004.1V1543H2966.9V1542.6L2976.5 1541.4V1488.6L2966.9 1487.4V1487H3003.3V1499H3002.9L3001.7 1489.4H2979.7V1512.2H2990.42L2993.38 1504.76L2993.78 1504.84L2991.94 1513.08V1513.56L2993.78 1521.8L2993.38 1521.88ZM3044.85 1543V1542.6L3054.45 1541.4V1489.4H3039.81L3037.33 1498.84L3036.93 1498.76L3038.37 1488.44L3038.53 1487H3073.73L3073.89 1488.44L3075.33 1498.76L3074.93 1498.84L3072.45 1489.4H3057.65V1541.4L3066.29 1542.6V1543H3044.85Z" fill="#E3E1D3"/>
<path d="M1754.54 1658.64C1754.42 1657.56 1753.9 1656.72 1752.99 1656.12C1752.08 1655.53 1750.97 1655.23 1749.64 1655.23C1748.68 1655.23 1747.83 1655.38 1747.11 1655.7C1746.39 1656.01 1745.83 1656.44 1745.43 1656.99C1745.03 1657.53 1744.83 1658.15 1744.83 1658.85C1744.83 1659.43 1744.97 1659.93 1745.24 1660.35C1745.53 1660.76 1745.89 1661.11 1746.33 1661.38C1746.77 1661.65 1747.23 1661.88 1747.72 1662.06C1748.2 1662.23 1748.64 1662.37 1749.05 1662.47L1751.26 1663.07C1751.83 1663.22 1752.46 1663.42 1753.16 1663.69C1753.86 1663.95 1754.53 1664.31 1755.17 1664.76C1755.82 1665.21 1756.35 1665.78 1756.77 1666.49C1757.19 1667.19 1757.4 1668.05 1757.4 1669.08C1757.4 1670.26 1757.09 1671.32 1756.47 1672.27C1755.86 1673.22 1754.97 1673.98 1753.79 1674.54C1752.62 1675.1 1751.19 1675.38 1749.52 1675.38C1747.95 1675.38 1746.6 1675.13 1745.46 1674.63C1744.32 1674.12 1743.43 1673.42 1742.77 1672.52C1742.13 1671.62 1741.76 1670.57 1741.68 1669.38H1744.4C1744.47 1670.2 1744.75 1670.88 1745.23 1671.42C1745.72 1671.95 1746.34 1672.35 1747.09 1672.61C1747.84 1672.87 1748.65 1673 1749.52 1673C1750.52 1673 1751.43 1672.83 1752.23 1672.51C1753.04 1672.17 1753.67 1671.71 1754.14 1671.12C1754.61 1670.53 1754.84 1669.83 1754.84 1669.03C1754.84 1668.31 1754.64 1667.72 1754.24 1667.27C1753.83 1666.81 1753.3 1666.44 1752.64 1666.16C1751.98 1665.87 1751.26 1665.62 1750.5 1665.41L1747.81 1664.64C1746.11 1664.15 1744.76 1663.46 1743.76 1662.55C1742.77 1661.64 1742.27 1660.45 1742.27 1658.98C1742.27 1657.76 1742.6 1656.69 1743.26 1655.78C1743.93 1654.87 1744.83 1654.15 1745.95 1653.65C1747.08 1653.14 1748.34 1652.88 1749.73 1652.88C1751.14 1652.88 1752.39 1653.14 1753.48 1653.64C1754.57 1654.14 1755.44 1654.82 1756.08 1655.69C1756.72 1656.55 1757.07 1657.54 1757.1 1658.64H1754.54ZM1776.74 1675V1653.18H1789.91V1655.53H1779.39V1662.9H1789.23V1665.24H1779.39V1672.66H1790.08V1675H1776.74ZM1808.48 1655.53V1653.18H1824.84V1655.53H1817.98V1675H1815.34V1655.53H1808.48ZM1871.32 1675L1865.36 1653.18H1868.04L1872.6 1670.95H1872.81L1877.46 1653.18H1880.44L1885.09 1670.95H1885.3L1889.86 1653.18H1892.54L1886.58 1675H1883.85L1879.03 1657.61H1878.86L1874.05 1675H1871.32ZM1928.22 1664.09C1928.22 1666.39 1927.8 1668.38 1926.97 1670.06C1926.14 1671.73 1925 1673.03 1923.55 1673.93C1922.1 1674.84 1920.45 1675.3 1918.59 1675.3C1916.73 1675.3 1915.07 1674.84 1913.62 1673.93C1912.18 1673.03 1911.04 1671.73 1910.2 1670.06C1909.37 1668.38 1908.96 1666.39 1908.96 1664.09C1908.96 1661.79 1909.37 1659.8 1910.2 1658.12C1911.04 1656.45 1912.18 1655.16 1913.62 1654.25C1915.07 1653.34 1916.73 1652.88 1918.59 1652.88C1920.45 1652.88 1922.1 1653.34 1923.55 1654.25C1925 1655.16 1926.14 1656.45 1926.97 1658.12C1927.8 1659.8 1928.22 1661.79 1928.22 1664.09ZM1925.66 1664.09C1925.66 1662.2 1925.35 1660.61 1924.71 1659.31C1924.09 1658.01 1923.24 1657.02 1922.17 1656.36C1921.1 1655.69 1919.91 1655.36 1918.59 1655.36C1917.27 1655.36 1916.07 1655.69 1915 1656.36C1913.93 1657.02 1913.08 1658.01 1912.45 1659.31C1911.83 1660.61 1911.51 1662.2 1911.51 1664.09C1911.51 1665.98 1911.83 1667.57 1912.45 1668.87C1913.08 1670.17 1913.93 1671.16 1915 1671.83C1916.07 1672.49 1917.27 1672.83 1918.59 1672.83C1919.91 1672.83 1921.1 1672.49 1922.17 1671.83C1923.24 1671.16 1924.09 1670.17 1924.71 1668.87C1925.35 1667.57 1925.66 1665.98 1925.66 1664.09ZM1947.66 1675V1653.18H1955.03C1956.74 1653.18 1958.14 1653.47 1959.23 1654.06C1960.32 1654.63 1961.13 1655.42 1961.66 1656.43C1962.19 1657.44 1962.45 1658.59 1962.45 1659.87C1962.45 1661.16 1962.19 1662.3 1961.66 1663.29C1961.13 1664.29 1960.33 1665.07 1959.24 1665.64C1958.16 1666.2 1956.77 1666.48 1955.08 1666.48H1949.11V1664.09H1954.99C1956.16 1664.09 1957.09 1663.92 1957.8 1663.58C1958.52 1663.24 1959.04 1662.76 1959.36 1662.13C1959.69 1661.5 1959.85 1660.75 1959.85 1659.87C1959.85 1659 1959.69 1658.24 1959.36 1657.58C1959.03 1656.93 1958.51 1656.42 1957.79 1656.07C1957.08 1655.71 1956.13 1655.53 1954.95 1655.53H1950.3V1675H1947.66ZM1957.93 1665.2L1963.3 1675H1960.23L1954.95 1665.2H1957.93ZM1981.85 1675V1653.18H1984.49V1664.01H1984.75L1994.55 1653.18H1998L1988.84 1663.03L1998 1675H1994.81L1987.22 1664.86L1984.49 1667.93V1675H1981.85ZM2016.42 1675V1653.18H2029.59V1655.53H2019.06V1662.9H2028.91V1665.24H2019.06V1672.66H2029.76V1675H2016.42ZM2049.35 1675V1653.18H2056.72C2058.43 1653.18 2059.83 1653.47 2060.92 1654.06C2062.01 1654.63 2062.82 1655.42 2063.35 1656.43C2063.88 1657.44 2064.14 1658.59 2064.14 1659.87C2064.14 1661.16 2063.88 1662.3 2063.35 1663.29C2062.82 1664.29 2062.02 1665.07 2060.93 1665.64C2059.84 1666.2 2058.46 1666.48 2056.77 1666.48H2050.8V1664.09H2056.68C2057.85 1664.09 2058.78 1663.92 2059.49 1663.58C2060.21 1663.24 2060.73 1662.76 2061.05 1662.13C2061.38 1661.5 2061.54 1660.75 2061.54 1659.87C2061.54 1659 2061.38 1658.24 2061.05 1657.58C2060.72 1656.93 2060.2 1656.42 2059.48 1656.07C2058.77 1655.71 2057.82 1655.53 2056.64 1655.53H2051.99V1675H2049.35ZM2059.62 1665.2L2064.99 1675H2061.92L2056.64 1665.2H2059.62ZM2095.47 1658.64C2095.34 1657.56 2094.83 1656.72 2093.92 1656.12C2093.01 1655.53 2091.89 1655.23 2090.57 1655.23C2089.61 1655.23 2088.76 1655.38 2088.04 1655.7C2087.32 1656.01 2086.76 1656.44 2086.35 1656.99C2085.96 1657.53 2085.76 1658.15 2085.76 1658.85C2085.76 1659.43 2085.89 1659.93 2086.17 1660.35C2086.46 1660.76 2086.82 1661.11 2087.26 1661.38C2087.7 1661.65 2088.16 1661.88 2088.64 1662.06C2089.13 1662.23 2089.57 1662.37 2089.98 1662.47L2092.19 1663.07C2092.76 1663.22 2093.39 1663.42 2094.09 1663.69C2094.79 1663.95 2095.46 1664.31 2096.1 1664.76C2096.75 1665.21 2097.28 1665.78 2097.7 1666.49C2098.12 1667.19 2098.33 1668.05 2098.33 1669.08C2098.33 1670.26 2098.02 1671.32 2097.4 1672.27C2096.79 1673.22 2095.89 1673.98 2094.72 1674.54C2093.54 1675.1 2092.12 1675.38 2090.44 1675.38C2088.88 1675.38 2087.53 1675.13 2086.38 1674.63C2085.25 1674.12 2084.35 1673.42 2083.7 1672.52C2083.05 1671.62 2082.69 1670.57 2082.6 1669.38H2085.33C2085.4 1670.2 2085.68 1670.88 2086.16 1671.42C2086.65 1671.95 2087.27 1672.35 2088.01 1672.61C2088.77 1672.87 2089.58 1673 2090.44 1673C2091.45 1673 2092.36 1672.83 2093.16 1672.51C2093.96 1672.17 2094.6 1671.71 2095.07 1671.12C2095.54 1670.53 2095.77 1669.83 2095.77 1669.03C2095.77 1668.31 2095.57 1667.72 2095.16 1667.27C2094.76 1666.81 2094.23 1666.44 2093.57 1666.16C2092.9 1665.87 2092.19 1665.62 2091.42 1665.41L2088.74 1664.64C2087.03 1664.15 2085.69 1663.46 2084.69 1662.55C2083.7 1661.64 2083.2 1660.45 2083.2 1658.98C2083.2 1657.76 2083.53 1656.69 2084.19 1655.78C2084.86 1654.87 2085.75 1654.15 2086.88 1653.65C2088 1653.14 2089.26 1652.88 2090.66 1652.88C2092.06 1652.88 2093.31 1653.14 2094.41 1653.64C2095.5 1654.14 2096.37 1654.82 2097.01 1655.69C2097.65 1656.55 2097.99 1657.54 2098.03 1658.64H2095.47Z" fill="#E3E1D3"/>
<path d="M976.474 1782.2L957.914 1724.6L948.234 1723.4V1723H970.954V1723.4L961.434 1724.6L977.114 1774.2L992.874 1724.6L983.354 1723.4V1723H1005.27V1723.4L995.594 1724.6L976.874 1782.2H976.474ZM1018.53 1779V1778.6L1028.29 1777.4L1046.93 1720.6H1047.33L1065.81 1777.4L1075.57 1778.6V1779H1052.85V1778.6L1062.37 1777.4L1057.01 1760.68H1036.37L1030.93 1777.4L1040.45 1778.6V1779H1018.53ZM1037.09 1758.28H1056.21L1046.69 1728.52L1037.09 1758.28ZM1098.73 1779V1778.6L1108.33 1777.4V1724.6L1098.73 1723.4V1723H1121.61V1723.4L1111.53 1724.6V1776.6H1133.85L1136.33 1767.16L1136.73 1767.24L1135.29 1777.56L1135.13 1779H1098.73ZM1195.21 1757.88L1192.25 1750.44H1181.53V1776.6H1204.33L1205.53 1767H1205.93V1779H1168.73V1778.6L1178.33 1777.4V1724.6L1168.73 1723.4V1723H1205.13V1735H1204.73L1203.53 1725.4H1181.53V1748.2H1192.25L1195.21 1740.76L1195.61 1740.84L1193.77 1749.08V1749.56L1195.61 1757.8L1195.21 1757.88ZM1279.17 1783L1252.37 1729.96V1777.4L1261.97 1778.6V1779H1240.37V1778.6L1249.97 1777.4V1719H1250.37L1277.17 1772.04V1724.6L1267.57 1723.4V1723H1289.17V1723.4L1279.57 1724.6V1783H1279.17ZM1326.69 1779V1778.6L1336.29 1777.4V1725.4H1321.65L1319.17 1734.84L1318.77 1734.76L1320.21 1724.44L1320.37 1723H1355.57L1355.73 1724.44L1357.17 1734.76L1356.77 1734.84L1354.29 1725.4H1339.49V1777.4L1348.13 1778.6V1779H1326.69ZM1387.17 1779V1778.6L1396.77 1777.4V1724.6L1387.17 1723.4V1723H1409.57V1723.4L1399.97 1724.6V1777.4L1409.57 1778.6V1779H1387.17ZM1479.95 1783L1453.15 1729.96V1777.4L1462.75 1778.6V1779H1441.15V1778.6L1450.75 1777.4V1719H1451.15L1477.95 1772.04V1724.6L1468.35 1723.4V1723H1489.95V1723.4L1480.35 1724.6V1783H1479.95ZM1563.13 1779V1778.6L1587.69 1725.4H1565.21L1562.73 1734.84L1562.33 1734.76L1563.77 1724.44L1563.93 1723H1591.93V1723.4L1567.37 1776.6H1589.85L1592.33 1767.16L1592.73 1767.24L1591.29 1777.56L1591.13 1779H1563.13ZM1648.27 1780.6C1641.07 1780.6 1633.95 1775.4 1633.95 1764.92V1724.6L1624.35 1723.4V1723H1645.79V1723.4L1637.15 1724.6V1764.6C1637.15 1772.36 1641.95 1777.8 1648.75 1777.8C1655.55 1777.8 1660.35 1772.44 1660.35 1764.92V1724.6L1651.71 1723.4V1723H1672.35V1723.4L1662.75 1724.6V1764.6C1662.75 1775.32 1655.47 1780.6 1648.27 1780.6ZM1730.45 1757.88L1727.49 1750.44H1716.77V1776.6H1739.57L1740.77 1767H1741.17V1779H1703.97V1778.6L1713.57 1777.4V1724.6L1703.97 1723.4V1723H1740.37V1735H1739.97L1738.77 1725.4H1716.77V1748.2H1727.49L1730.45 1740.76L1730.85 1740.84L1729.01 1749.08V1749.56L1730.85 1757.8L1730.45 1757.88ZM1796.24 1782.2L1777.68 1724.6L1768 1723.4V1723H1790.72V1723.4L1781.2 1724.6L1796.88 1774.2L1812.64 1724.6L1803.12 1723.4V1723H1825.04V1723.4L1815.36 1724.6L1796.64 1782.2H1796.24ZM1837.53 1795L1837.13 1794.84L1846.25 1779.48C1845.53 1779.08 1845.05 1778.28 1845.05 1777.4C1845.05 1776.12 1846.17 1775 1847.45 1775C1848.73 1775 1849.85 1776.12 1849.85 1777.4C1849.85 1777.96 1849.69 1778.44 1849.13 1779.24L1837.53 1795ZM1920.69 1779V1778.6L1930.29 1777.4V1724.6L1920.69 1723.4V1723H1943.09V1723.4L1933.49 1724.6V1777.4L1943.09 1778.6V1779H1920.69ZM2022.02 1787.24L1991.78 1745L1992.02 1744.52L1996.58 1746.12H1997.7C2005.22 1746.12 2009.38 1741.64 2009.38 1735.8C2009.38 1729.8 2004.74 1725.4 1998.5 1725.4H1987.86V1777.4L1997.94 1778.6V1779H1975.06V1778.6L1984.66 1777.4V1724.6L1975.06 1723.4V1723H1999.14C2007.14 1723 2012.74 1728.2 2012.74 1735.64C2012.74 1742.84 2007.14 1748.12 1999.14 1748.12H1998.42L2022.66 1786.76L2022.02 1787.24ZM2050.69 1779V1778.6L2060.29 1777.4V1724.6L2050.69 1723.4V1723H2073.09V1723.4L2063.49 1724.6V1777.4L2073.09 1778.6V1779H2050.69ZM2143.46 1783L2116.66 1729.96V1777.4L2126.26 1778.6V1779H2104.66V1778.6L2114.26 1777.4V1719H2114.66L2141.46 1772.04V1724.6L2131.86 1723.4V1723H2153.46V1723.4L2143.86 1724.6V1783H2143.46ZM2176.26 1779V1778.6L2186.02 1777.4L2204.66 1720.6H2205.06L2223.54 1777.4L2233.3 1778.6V1779H2210.58V1778.6L2220.1 1777.4L2214.74 1760.68H2194.1L2188.66 1777.4L2198.18 1778.6V1779H2176.26ZM2194.82 1758.28H2213.94L2204.42 1728.52L2194.82 1758.28ZM2342.88 1787.24L2313.44 1745.88L2330.64 1724.6L2321.36 1723.4V1723H2343.68V1723.4L2333.76 1724.6L2317.2 1744.92L2343.52 1786.76L2342.88 1787.24ZM2296.08 1779V1778.6L2305.68 1777.4V1724.6L2296.08 1723.4V1723H2318.48V1723.4L2308.88 1724.6V1777.4L2318.48 1778.6V1779H2296.08ZM2401.33 1780.6C2384.21 1780.6 2371.33 1767.72 2371.33 1750.6C2371.33 1733.48 2384.21 1720.6 2401.33 1720.6C2418.45 1720.6 2431.33 1733.48 2431.33 1750.6C2431.33 1767.72 2418.45 1780.6 2401.33 1780.6ZM2401.33 1778.2C2416.93 1778.2 2427.97 1766.76 2427.97 1750.6C2427.97 1734.44 2416.93 1723 2401.33 1723C2385.73 1723 2374.69 1734.44 2374.69 1750.6C2374.69 1766.76 2385.73 1778.2 2401.33 1778.2ZM2494.93 1780.6C2477.81 1780.6 2464.93 1767.72 2464.93 1750.6C2464.93 1733.48 2477.81 1720.6 2494.93 1720.6C2507.49 1720.6 2517.81 1727.56 2522.37 1738.04L2514.45 1748.12L2514.13 1748.04L2519.25 1738.68C2515.33 1729.24 2506.29 1723 2494.93 1723C2479.33 1723 2468.29 1734.44 2468.29 1750.6C2468.29 1766.76 2479.33 1778.2 2494.93 1778.2C2506.77 1778.2 2515.97 1771.64 2519.73 1761.4V1757.16L2520.05 1757.08L2522.77 1762.12C2518.45 1773.16 2507.89 1780.6 2494.93 1780.6ZM2581.31 1779V1778.6L2589.95 1777.4V1750.6H2567.55V1777.4L2576.19 1778.6V1779H2554.75V1778.6L2564.35 1777.4V1724.6L2554.75 1723.4V1723H2576.19V1723.4L2567.55 1724.6V1748.2H2589.95V1724.6L2581.31 1723.4V1723H2602.75V1723.4L2593.15 1724.6V1777.4L2602.75 1778.6V1779H2581.31ZM2681.55 1787.24L2652.11 1745.88L2669.31 1724.6L2660.03 1723.4V1723H2682.35V1723.4L2672.43 1724.6L2655.87 1744.92L2682.19 1786.76L2681.55 1787.24ZM2634.75 1779V1778.6L2644.35 1777.4V1724.6L2634.75 1723.4V1723H2657.15V1723.4L2647.55 1724.6V1777.4L2657.15 1778.6V1779H2634.75ZM2709.98 1779V1778.6L2719.58 1777.4V1724.6L2709.98 1723.4V1723H2732.38V1723.4L2722.78 1724.6V1777.4L2732.38 1778.6V1779H2709.98ZM2802.76 1783L2775.96 1729.96V1777.4L2785.56 1778.6V1779H2763.96V1778.6L2773.56 1777.4V1719H2773.96L2800.76 1772.04V1724.6L2791.16 1723.4V1723H2812.76V1723.4L2803.16 1724.6V1783H2802.76ZM2835.56 1779V1778.6L2845.32 1777.4L2863.96 1720.6H2864.36L2882.84 1777.4L2892.6 1778.6V1779H2869.88V1778.6L2879.4 1777.4L2874.04 1760.68H2853.4L2847.96 1777.4L2857.48 1778.6V1779H2835.56ZM2854.12 1758.28H2873.24L2863.72 1728.52L2854.12 1758.28ZM1316.12 1894.2L1297.56 1836.6L1287.88 1835.4V1835H1310.6V1835.4L1301.08 1836.6L1316.76 1886.2L1332.52 1836.6L1323 1835.4V1835H1344.92V1835.4L1335.24 1836.6L1316.52 1894.2H1316.12ZM1368.54 1891V1890.6L1378.14 1889.4V1836.6L1368.54 1835.4V1835H1390.94V1835.4L1381.34 1836.6V1889.4L1390.94 1890.6V1891H1368.54ZM1453.71 1892.6C1436.59 1892.6 1423.71 1879.72 1423.71 1862.6C1423.71 1845.48 1436.59 1832.6 1453.71 1832.6C1466.27 1832.6 1476.59 1839.56 1481.15 1850.04L1473.23 1860.12L1472.91 1860.04L1478.03 1850.68C1474.11 1841.24 1465.07 1835 1453.71 1835C1438.11 1835 1427.07 1846.44 1427.07 1862.6C1427.07 1878.76 1438.11 1890.2 1453.71 1890.2C1465.55 1890.2 1474.75 1883.64 1478.51 1873.4V1869.16L1478.83 1869.08L1481.55 1874.12C1477.23 1885.16 1466.67 1892.6 1453.71 1892.6ZM1518.68 1891V1890.6L1528.28 1889.4V1837.4H1513.64L1511.16 1846.84L1510.76 1846.76L1512.2 1836.44L1512.36 1835H1547.56L1547.72 1836.44L1549.16 1846.76L1548.76 1846.84L1546.28 1837.4H1531.48V1889.4L1540.12 1890.6V1891H1518.68ZM1609.18 1892.6C1592.06 1892.6 1579.18 1879.72 1579.18 1862.6C1579.18 1845.48 1592.06 1832.6 1609.18 1832.6C1626.3 1832.6 1639.18 1845.48 1639.18 1862.6C1639.18 1879.72 1626.3 1892.6 1609.18 1892.6ZM1609.18 1890.2C1624.78 1890.2 1635.82 1878.76 1635.82 1862.6C1635.82 1846.44 1624.78 1835 1609.18 1835C1593.58 1835 1582.54 1846.44 1582.54 1862.6C1582.54 1878.76 1593.58 1890.2 1609.18 1890.2ZM1718.94 1899.24L1688.7 1857L1688.94 1856.52L1693.5 1858.12H1694.62C1702.14 1858.12 1706.3 1853.64 1706.3 1847.8C1706.3 1841.8 1701.66 1837.4 1695.42 1837.4H1684.78V1889.4L1694.86 1890.6V1891H1671.98V1890.6L1681.58 1889.4V1836.6L1671.98 1835.4V1835H1696.06C1704.06 1835 1709.66 1840.2 1709.66 1847.64C1709.66 1854.84 1704.06 1860.12 1696.06 1860.12H1695.34L1719.58 1898.76L1718.94 1899.24ZM1747.6 1891V1890.6L1757.2 1889.4V1836.6L1747.6 1835.4V1835H1770V1835.4L1760.4 1836.6V1889.4L1770 1890.6V1891H1747.6ZM1793.18 1891V1890.6L1802.94 1889.4L1821.58 1832.6H1821.98L1840.46 1889.4L1850.22 1890.6V1891H1827.5V1890.6L1837.02 1889.4L1831.66 1872.68H1811.02L1805.58 1889.4L1815.1 1890.6V1891H1793.18ZM1811.74 1870.28H1830.86L1821.34 1840.52L1811.74 1870.28ZM1919.34 1891V1890.6L1928.94 1889.4V1865.4L1915.58 1836.6L1905.82 1835.4V1835H1928.7V1835.4L1919.26 1836.6L1930.86 1862.2L1942.38 1836.6L1932.94 1835.4V1835H1955.02V1835.4L1945.26 1836.6L1932.14 1864.68V1889.4L1940.78 1890.6V1891H1919.34ZM1970.68 1891V1890.6L1980.44 1889.4L1999.08 1832.6H1999.48L2017.96 1889.4L2027.72 1890.6V1891H2005V1890.6L2014.52 1889.4L2009.16 1872.68H1988.52L1983.08 1889.4L1992.6 1890.6V1891H1970.68ZM1989.24 1870.28H2008.36L1998.84 1840.52L1989.24 1870.28ZM2097.68 1899.24L2068.24 1857.88L2085.44 1836.6L2076.16 1835.4V1835H2098.48V1835.4L2088.56 1836.6L2072 1856.92L2098.32 1898.76L2097.68 1899.24ZM2050.88 1891V1890.6L2060.48 1889.4V1836.6L2050.88 1835.4V1835H2073.28V1835.4L2063.68 1836.6V1889.4L2073.28 1890.6V1891H2050.88ZM2156.14 1892.6C2139.02 1892.6 2126.14 1879.72 2126.14 1862.6C2126.14 1845.48 2139.02 1832.6 2156.14 1832.6C2173.26 1832.6 2186.14 1845.48 2186.14 1862.6C2186.14 1879.72 2173.26 1892.6 2156.14 1892.6ZM2156.14 1890.2C2171.74 1890.2 2182.78 1878.76 2182.78 1862.6C2182.78 1846.44 2171.74 1835 2156.14 1835C2140.54 1835 2129.5 1846.44 2129.5 1862.6C2129.5 1878.76 2140.54 1890.2 2156.14 1890.2ZM2239.17 1894.2L2220.61 1836.6L2210.93 1835.4V1835H2233.65V1835.4L2224.13 1836.6L2239.81 1886.2L2255.57 1836.6L2246.05 1835.4V1835H2267.97V1835.4L2258.29 1836.6L2239.57 1894.2H2239.17ZM2291.59 1891V1890.6L2301.19 1889.4V1836.6L2291.59 1835.4V1835H2314.47V1835.4L2304.39 1836.6V1888.6H2326.71L2329.19 1879.16L2329.59 1879.24L2328.15 1889.56L2327.99 1891H2291.59ZM2388.07 1869.88L2385.11 1862.44H2374.39V1888.6H2397.19L2398.39 1879H2398.79V1891H2361.59V1890.6L2371.19 1889.4V1836.6L2361.59 1835.4V1835H2397.99V1847H2397.59L2396.39 1837.4H2374.39V1860.2H2385.11L2388.07 1852.76L2388.47 1852.84L2386.63 1861.08V1861.56L2388.47 1869.8L2388.07 1869.88ZM2453.86 1894.2L2435.3 1836.6L2425.62 1835.4V1835H2448.34V1835.4L2438.82 1836.6L2454.5 1886.2L2470.26 1836.6L2460.74 1835.4V1835H2482.66V1835.4L2472.98 1836.6L2454.26 1894.2H2453.86ZM2495.91 1891V1890.6L2505.67 1889.4L2524.31 1832.6H2524.71L2543.19 1889.4L2552.95 1890.6V1891H2530.23V1890.6L2539.75 1889.4L2534.39 1872.68H2513.75L2508.31 1889.4L2517.83 1890.6V1891H2495.91ZM2514.47 1870.28H2533.59L2524.07 1840.52L2514.47 1870.28Z" fill="#E3E1D3"/>
</svg>
