<svg width="3840" height="2160" viewBox="0 0 3840 2160" fill="none" xmlns="http://www.w3.org/2000/svg">
<rect width="3840" height="2160" fill="black"/>
<path d="M1841.18 216.182V238H1838.54V220.017H1838.37C1838.27 220.216 1838.01 220.443 1837.6 220.699C1837.19 220.947 1836.66 221.168 1836 221.359C1835.35 221.544 1834.6 221.636 1833.77 221.636V219.42C1834.61 219.42 1835.34 219.268 1835.96 218.962C1836.58 218.657 1837.09 218.298 1837.51 217.886C1837.92 217.474 1838.24 217.102 1838.45 216.768C1838.67 216.434 1838.8 216.239 1838.84 216.182H1841.18ZM1874.75 221.636C1874.62 220.557 1874.1 219.719 1873.19 219.122C1872.29 218.526 1871.17 218.227 1869.85 218.227C1868.88 218.227 1868.04 218.384 1867.31 218.696C1866.6 219.009 1866.04 219.438 1865.63 219.985C1865.23 220.532 1865.03 221.153 1865.03 221.849C1865.03 222.432 1865.17 222.933 1865.45 223.352C1865.73 223.763 1866.1 224.108 1866.54 224.385C1866.98 224.655 1867.44 224.879 1867.92 225.056C1868.4 225.227 1868.85 225.365 1869.25 225.472L1871.47 226.068C1872.04 226.217 1872.67 226.423 1873.36 226.686C1874.07 226.949 1874.74 227.308 1875.38 227.762C1876.02 228.21 1876.56 228.785 1876.98 229.488C1877.4 230.191 1877.6 231.054 1877.6 232.077C1877.6 233.256 1877.3 234.321 1876.68 235.273C1876.07 236.224 1875.17 236.981 1873.99 237.542C1872.82 238.103 1871.4 238.384 1869.72 238.384C1868.16 238.384 1866.81 238.131 1865.66 237.627C1864.53 237.123 1863.63 236.42 1862.98 235.518C1862.33 234.616 1861.97 233.568 1861.88 232.375H1864.61C1864.68 233.199 1864.96 233.881 1865.44 234.42C1865.93 234.953 1866.55 235.351 1867.29 235.614C1868.05 235.869 1868.85 235.997 1869.72 235.997C1870.73 235.997 1871.64 235.834 1872.44 235.507C1873.24 235.173 1873.88 234.712 1874.34 234.122C1874.81 233.526 1875.05 232.83 1875.05 232.034C1875.05 231.31 1874.85 230.72 1874.44 230.266C1874.04 229.811 1873.5 229.442 1872.84 229.158C1872.18 228.874 1871.47 228.625 1870.7 228.412L1868.02 227.645C1866.31 227.155 1864.96 226.455 1863.97 225.546C1862.97 224.637 1862.48 223.447 1862.48 221.977C1862.48 220.756 1862.81 219.69 1863.47 218.781C1864.14 217.865 1865.03 217.155 1866.15 216.651C1867.28 216.139 1868.54 215.884 1869.93 215.884C1871.34 215.884 1872.59 216.136 1873.68 216.64C1874.78 217.137 1875.64 217.819 1876.28 218.685C1876.93 219.552 1877.27 220.536 1877.31 221.636H1874.75ZM1895.76 218.526V216.182H1912.12V218.526H1905.26V238H1902.62V218.526H1895.76ZM1955.53 238H1952.76L1960.77 216.182H1963.5L1971.51 238H1968.74L1962.22 219.634H1962.05L1955.53 238ZM1956.55 229.477H1967.72V231.821H1956.55V229.477ZM2006.44 223H2003.8C2003.64 222.24 2003.37 221.572 2002.98 220.997C2002.59 220.422 2002.12 219.939 2001.57 219.548C2001.02 219.151 2000.42 218.852 1999.75 218.653C1999.08 218.455 1998.39 218.355 1997.66 218.355C1996.34 218.355 1995.14 218.689 1994.07 219.357C1993.01 220.024 1992.16 221.008 1991.52 222.308C1990.9 223.607 1990.59 225.202 1990.59 227.091C1990.59 228.98 1990.9 230.575 1991.52 231.874C1992.16 233.174 1993.01 234.158 1994.07 234.825C1995.14 235.493 1996.34 235.827 1997.66 235.827C1998.39 235.827 1999.08 235.727 1999.75 235.528C2000.42 235.33 2001.02 235.035 2001.57 234.644C2002.12 234.246 2002.59 233.76 2002.98 233.185C2003.37 232.602 2003.64 231.935 2003.8 231.182H2006.44C2006.24 232.297 2005.88 233.295 2005.35 234.175C2004.83 235.056 2004.17 235.805 2003.39 236.423C2002.61 237.034 2001.73 237.499 2000.76 237.819C1999.79 238.138 1998.76 238.298 1997.66 238.298C1995.8 238.298 1994.15 237.844 1992.7 236.935C1991.25 236.026 1990.11 234.733 1989.28 233.057C1988.45 231.381 1988.03 229.392 1988.03 227.091C1988.03 224.79 1988.45 222.801 1989.28 221.125C1990.11 219.449 1991.25 218.156 1992.7 217.247C1994.15 216.338 1995.8 215.884 1997.66 215.884C1998.76 215.884 1999.79 216.043 2000.76 216.363C2001.73 216.683 2002.61 217.151 2003.39 217.769C2004.17 218.38 2004.83 219.126 2005.35 220.006C2005.88 220.88 2006.24 221.878 2006.44 223Z" fill="#E3E1D3"/>
<path d="M825.436 342V341.6L835.036 340.4V288.4H820.396L817.916 297.84L817.516 297.76L818.956 287.44L819.116 286H854.316L854.476 287.44L855.916 297.76L855.516 297.84L853.036 288.4H838.236V340.4L846.876 341.6V342H825.436ZM873.919 342V341.6L883.679 340.4L902.319 283.6H902.719L921.199 340.4L930.959 341.6V342H908.239V341.6L917.759 340.4L912.399 323.68H891.759L886.319 340.4L895.839 341.6V342H873.919ZM892.479 321.28H911.599L902.079 291.52L892.479 321.28ZM1000.93 350.24L971.485 308.88L988.685 287.6L979.405 286.4V286H1001.73V286.4L991.805 287.6L975.245 307.92L1001.57 349.76L1000.93 350.24ZM954.125 342V341.6L963.725 340.4V287.6L954.125 286.4V286H976.525V286.4L966.925 287.6V340.4L976.525 341.6V342H954.125ZM1055.92 342V341.6L1064.56 340.4V313.6H1042.16V340.4L1050.8 341.6V342H1029.36V341.6L1038.96 340.4V287.6L1029.36 286.4V286H1050.8V286.4L1042.16 287.6V311.2H1064.56V287.6L1055.92 286.4V286H1077.36V286.4L1067.76 287.6V340.4L1077.36 341.6V342H1055.92ZM1109.36 342V341.6L1118.96 340.4V287.6L1109.36 286.4V286H1131.76V286.4L1122.16 287.6V340.4L1131.76 341.6V342H1109.36ZM1210.69 350.24L1180.45 308L1180.69 307.52L1185.25 309.12H1186.37C1193.89 309.12 1198.05 304.64 1198.05 298.8C1198.05 292.8 1193.41 288.4 1187.17 288.4H1176.53V340.4L1186.61 341.6V342H1163.73V341.6L1173.33 340.4V287.6L1163.73 286.4V286H1187.81C1195.81 286 1201.41 291.2 1201.41 298.64C1201.41 305.84 1195.81 311.12 1187.81 311.12H1187.09L1211.33 349.76L1210.69 350.24ZM1285.28 342V341.6L1294.88 340.4V288.4H1280.24L1277.76 297.84L1277.36 297.76L1278.8 287.44L1278.96 286H1314.16L1314.32 287.44L1315.76 297.76L1315.36 297.84L1312.88 288.4H1298.08V340.4L1306.72 341.6V342H1285.28ZM1345.77 342V341.6L1355.37 340.4V287.6L1345.77 286.4V286H1368.17V286.4L1358.57 287.6V340.4L1368.17 341.6V342H1345.77ZM1427.18 345.2L1411.74 297.12V340.4L1420.38 341.6V342H1399.74V341.6L1409.34 340.4V282H1409.9L1427.66 337.28L1445.58 282H1446.14V340.4L1455.74 341.6V342H1434.3V341.6L1442.94 340.4V297.92L1427.58 345.2H1427.18ZM1513.81 320.88L1510.85 313.44H1500.13V339.6H1522.93L1524.13 330H1524.53V342H1487.33V341.6L1496.93 340.4V287.6L1487.33 286.4V286H1523.73V298H1523.33L1522.13 288.4H1500.13V311.2H1510.85L1513.81 303.76L1514.21 303.84L1512.37 312.08V312.56L1514.21 320.8L1513.81 320.88ZM1606.32 350.24L1576.08 308L1576.32 307.52L1580.88 309.12H1582C1589.52 309.12 1593.68 304.64 1593.68 298.8C1593.68 292.8 1589.04 288.4 1582.8 288.4H1572.16V340.4L1582.24 341.6V342H1559.36V341.6L1568.96 340.4V287.6L1559.36 286.4V286H1583.44C1591.44 286 1597.04 291.2 1597.04 298.64C1597.04 305.84 1591.44 311.12 1583.44 311.12H1582.72L1606.96 349.76L1606.32 350.24ZM1665.78 343.6C1648.66 343.6 1635.78 330.72 1635.78 313.6C1635.78 296.48 1648.66 283.6 1665.78 283.6C1678.34 283.6 1688.66 290.56 1693.22 301.04L1690.5 306.08L1690.18 306V301.76C1686.26 292.24 1677.22 286 1665.78 286C1650.18 286 1639.14 297.44 1639.14 313.6C1639.14 329.76 1650.18 341.2 1665.78 341.2C1680.02 341.2 1690.5 331.68 1692.18 317.76L1665.7 315.76V315.36H1695.7C1694.82 331.52 1682.26 343.6 1665.78 343.6ZM1719.31 342V341.6L1729.07 340.4L1747.71 283.6H1748.11L1766.59 340.4L1776.35 341.6V342H1753.63V341.6L1763.15 340.4L1757.79 323.68H1737.15L1731.71 340.4L1741.23 341.6V342H1719.31ZM1737.87 321.28H1756.99L1747.47 291.52L1737.87 321.28ZM1799.52 342V341.6L1809.12 340.4V287.6L1799.52 286.4V286H1822.4V286.4L1812.32 287.6V339.6H1834.64L1837.12 330.16L1837.52 330.24L1836.08 340.56L1835.92 342H1799.52ZM1869.52 342V341.6L1879.12 340.4V287.6L1869.52 286.4V286H1891.92V286.4L1882.32 287.6V340.4L1891.92 341.6V342H1869.52ZM1950.37 320.88L1947.41 313.44H1936.69V339.6H1959.49L1960.69 330H1961.09V342H1923.89V341.6L1933.49 340.4V287.6L1923.89 286.4V286H1960.29V298H1959.89L1958.69 288.4H1936.69V311.2H1947.41L1950.37 303.76L1950.77 303.84L1948.93 312.08V312.56L1950.77 320.8L1950.37 320.88ZM2016.16 345.2L1997.6 287.6L1987.92 286.4V286H2010.64V286.4L2001.12 287.6L2016.8 337.2L2032.56 287.6L2023.04 286.4V286H2044.96V286.4L2035.28 287.6L2016.56 345.2H2016.16ZM2057.45 358L2057.05 357.84L2066.18 342.48C2065.46 342.08 2064.98 341.28 2064.98 340.4C2064.98 339.12 2066.1 338 2067.38 338C2068.66 338 2069.78 339.12 2069.78 340.4C2069.78 340.96 2069.62 341.44 2069.06 342.24L2057.45 358ZM2130.64 342V341.6L2140.4 340.4L2159.04 283.6H2159.44L2177.92 340.4L2187.68 341.6V342H2164.96V341.6L2174.48 340.4L2169.12 323.68H2148.48L2143.04 340.4L2152.56 341.6V342H2130.64ZM2149.2 321.28H2168.32L2158.8 291.52L2149.2 321.28ZM2210.84 342V341.6L2220.44 340.4V287.6L2210.84 286.4V286H2233.72V286.4L2223.64 287.6V339.6H2245.96L2248.44 330.16L2248.84 330.24L2247.4 340.56L2247.24 342H2210.84ZM2307.32 320.88L2304.36 313.44H2293.64V339.6H2316.44L2317.64 330H2318.04V342H2280.84V341.6L2290.44 340.4V287.6L2280.84 286.4V286H2317.24V298H2316.84L2315.64 288.4H2293.64V311.2H2304.36L2307.32 303.76L2307.72 303.84L2305.88 312.08V312.56L2307.72 320.8L2307.32 320.88ZM2377.44 342V341.6L2386.4 340.4L2374.88 315.52L2363.52 340.4L2372.48 341.6V342H2350.88V341.6L2360.64 340.4L2373.68 312.88L2361.6 287.6L2351.84 286.4V286H2373.84V286.4L2365.36 287.6L2375.28 309.28L2385.2 287.6L2376.72 286.4V286H2397.84V286.4L2388.08 287.6L2376.56 312L2390.08 340.4L2399.92 341.6V342H2377.44ZM2456.39 320.88L2453.43 313.44H2442.71V339.6H2465.51L2466.71 330H2467.11V342H2429.91V341.6L2439.51 340.4V287.6L2429.91 286.4V286H2466.31V298H2465.91L2464.71 288.4H2442.71V311.2H2453.43L2456.39 303.76L2456.79 303.84L2454.95 312.08V312.56L2456.79 320.8L2456.39 320.88ZM2509.46 342V341.6L2519.06 340.4V316.4L2505.7 287.6L2495.94 286.4V286H2518.82V286.4L2509.38 287.6L2520.98 313.2L2532.5 287.6L2523.06 286.4V286H2545.14V286.4L2535.38 287.6L2522.26 315.68V340.4L2530.9 341.6V342H2509.46ZM2610.77 342V341.6L2620.37 340.4V287.6L2610.77 286.4V286H2631.41C2639.81 286 2645.81 291.6 2645.81 299.52C2645.81 305.04 2642.85 309.52 2638.37 311.68C2645.33 313.12 2650.37 319.12 2650.37 326.56C2650.37 335.6 2643.73 342 2634.37 342H2610.77ZM2631.41 311.2C2637.73 311.2 2642.45 306.32 2642.45 299.76C2642.45 293.28 2637.73 288.4 2631.41 288.4H2623.57V311.2H2631.41ZM2623.57 339.6H2634.37C2641.57 339.6 2647.01 334 2647.01 326.48C2647.01 319.12 2641.57 313.44 2634.37 313.44H2623.57V339.6ZM2677.2 342V341.6L2686.96 340.4L2705.6 283.6H2706L2724.48 340.4L2734.24 341.6V342H2711.52V341.6L2721.04 340.4L2715.68 323.68H2695.04L2689.6 340.4L2699.12 341.6V342H2677.2ZM2695.76 321.28H2714.88L2705.36 291.52L2695.76 321.28ZM2757.41 342V341.6L2767.01 340.4V287.6L2757.41 286.4V286H2779.81V286.4L2770.21 287.6V340.4L2779.81 341.6V342H2757.41ZM2858.58 350.24L2829.14 308.88L2846.34 287.6L2837.06 286.4V286H2859.38V286.4L2849.46 287.6L2832.9 307.92L2859.22 349.76L2858.58 350.24ZM2811.78 342V341.6L2821.38 340.4V287.6L2811.78 286.4V286H2834.18V286.4L2824.58 287.6V340.4L2834.18 341.6V342H2811.78ZM2917.03 343.6C2899.91 343.6 2887.03 330.72 2887.03 313.6C2887.03 296.48 2899.91 283.6 2917.03 283.6C2934.15 283.6 2947.03 296.48 2947.03 313.6C2947.03 330.72 2934.15 343.6 2917.03 343.6ZM2917.03 341.2C2932.63 341.2 2943.67 329.76 2943.67 313.6C2943.67 297.44 2932.63 286 2917.03 286C2901.43 286 2890.39 297.44 2890.39 313.6C2890.39 329.76 2901.43 341.2 2917.03 341.2ZM3000.07 345.2L2981.51 287.6L2971.83 286.4V286H2994.55V286.4L2985.03 287.6L3000.71 337.2L3016.47 287.6L3006.95 286.4V286H3028.87V286.4L3019.19 287.6L3000.47 345.2H3000.07Z" fill="#E3E1D3"/>
<path d="M1828.85 464V462.082L1836.05 454.199C1836.89 453.276 1837.59 452.473 1838.14 451.791C1838.68 451.102 1839.09 450.456 1839.35 449.852C1839.62 449.241 1839.75 448.602 1839.75 447.935C1839.75 447.168 1839.57 446.504 1839.2 445.942C1838.84 445.381 1838.34 444.948 1837.71 444.643C1837.08 444.337 1836.37 444.185 1835.58 444.185C1834.74 444.185 1834.01 444.359 1833.38 444.707C1832.77 445.048 1832.29 445.527 1831.95 446.145C1831.61 446.763 1831.44 447.487 1831.44 448.318H1828.93C1828.93 447.04 1829.23 445.918 1829.81 444.952C1830.4 443.986 1831.21 443.233 1832.22 442.693C1833.25 442.153 1834.39 441.884 1835.66 441.884C1836.94 441.884 1838.07 442.153 1839.06 442.693C1840.05 443.233 1840.82 443.961 1841.38 444.877C1841.95 445.793 1842.23 446.812 1842.23 447.935C1842.23 448.737 1842.08 449.522 1841.79 450.289C1841.51 451.049 1841.01 451.898 1840.3 452.835C1839.59 453.766 1838.62 454.902 1837.37 456.244L1832.47 461.486V461.656H1842.61V464H1828.85ZM1879.69 442.182V464H1877.14L1865.25 446.869H1865.04V464H1862.39V442.182H1864.95L1876.88 459.355H1877.09V442.182H1879.69ZM1906.71 464H1899.98V442.182H1907.01C1909.13 442.182 1910.94 442.619 1912.45 443.492C1913.95 444.359 1915.11 445.605 1915.91 447.232C1916.71 448.851 1917.11 450.79 1917.11 453.048C1917.11 455.321 1916.71 457.278 1915.9 458.918C1915.09 460.552 1913.91 461.809 1912.36 462.69C1910.81 463.563 1908.93 464 1906.71 464ZM1902.62 461.656H1906.54C1908.35 461.656 1909.84 461.308 1911.03 460.612C1912.21 459.916 1913.1 458.925 1913.68 457.64C1914.26 456.354 1914.55 454.824 1914.55 453.048C1914.55 451.287 1914.27 449.771 1913.69 448.499C1913.12 447.221 1912.26 446.241 1911.11 445.559C1909.97 444.87 1908.55 444.526 1906.84 444.526H1902.62V461.656ZM1960.88 464H1958.11L1966.12 442.182H1968.84L1976.86 464H1974.09L1967.57 445.634H1967.4L1960.88 464ZM1961.9 455.477H1973.06V457.821H1961.9V455.477ZM2011.79 449H2009.14C2008.99 448.24 2008.71 447.572 2008.32 446.997C2007.94 446.422 2007.47 445.939 2006.92 445.548C2006.37 445.151 2005.76 444.852 2005.1 444.653C2004.43 444.455 2003.73 444.355 2003.01 444.355C2001.69 444.355 2000.49 444.689 1999.42 445.357C1998.35 446.024 1997.5 447.008 1996.87 448.308C1996.25 449.607 1995.93 451.202 1995.93 453.091C1995.93 454.98 1996.25 456.575 1996.87 457.874C1997.5 459.174 1998.35 460.158 1999.42 460.825C2000.49 461.493 2001.69 461.827 2003.01 461.827C2003.73 461.827 2004.43 461.727 2005.1 461.528C2005.76 461.33 2006.37 461.035 2006.92 460.644C2007.47 460.246 2007.94 459.76 2008.32 459.185C2008.71 458.602 2008.99 457.935 2009.14 457.182H2011.79C2011.59 458.297 2011.22 459.295 2010.7 460.175C2010.17 461.056 2009.52 461.805 2008.74 462.423C2007.96 463.034 2007.08 463.499 2006.11 463.819C2005.14 464.138 2004.11 464.298 2003.01 464.298C2001.15 464.298 1999.49 463.844 1998.04 462.935C1996.59 462.026 1995.45 460.733 1994.62 459.057C1993.79 457.381 1993.38 455.392 1993.38 453.091C1993.38 450.79 1993.79 448.801 1994.62 447.125C1995.45 445.449 1996.59 444.156 1998.04 443.247C1999.49 442.338 2001.15 441.884 2003.01 441.884C2004.11 441.884 2005.14 442.043 2006.11 442.363C2007.08 442.683 2007.96 443.151 2008.74 443.769C2009.52 444.38 2010.17 445.126 2010.7 446.006C2011.22 446.88 2011.59 447.878 2011.79 449Z" fill="#E3E1D3"/>
<path d="M572.034 569.6C554.914 569.6 542.034 556.72 542.034 539.6C542.034 522.48 554.914 509.6 572.034 509.6C589.154 509.6 602.034 522.48 602.034 539.6C602.034 556.72 589.154 569.6 572.034 569.6ZM572.034 567.2C587.634 567.2 598.674 555.76 598.674 539.6C598.674 523.44 587.634 512 572.034 512C556.434 512 545.394 523.44 545.394 539.6C545.394 555.76 556.434 567.2 572.034 567.2ZM634.828 568V567.6L644.428 566.4V513.6L634.828 512.4V512H657.708V512.4L647.628 513.6V565.6H669.948L672.428 556.16L672.828 556.24L671.388 566.56L671.228 568H634.828ZM731.308 546.88L728.348 539.44H717.628V565.6H740.428L741.628 556H742.028V568H704.828V567.6L714.428 566.4V513.6L704.828 512.4V512H741.228V524H740.828L739.628 514.4H717.628V537.2H728.348L731.308 529.76L731.708 529.84L729.868 538.08V538.56L731.708 546.8L731.308 546.88ZM806.097 569.6C788.977 569.6 776.097 556.72 776.097 539.6C776.097 522.48 788.977 509.6 806.097 509.6C818.657 509.6 828.977 516.56 833.537 527.04L830.817 532.08L830.497 532V527.76C826.577 518.24 817.537 512 806.097 512C790.497 512 779.457 523.44 779.457 539.6C779.457 555.76 790.497 567.2 806.097 567.2C820.337 567.2 830.817 557.68 832.497 543.76L806.017 541.76V541.36H836.017C835.137 557.52 822.577 569.6 806.097 569.6ZM956.003 576.24L926.563 534.88L943.763 513.6L934.483 512.4V512H956.803V512.4L946.883 513.6L930.323 533.92L956.643 575.76L956.003 576.24ZM909.203 568V567.6L918.803 566.4V513.6L909.203 512.4V512H931.603V512.4L922.003 513.6V566.4L931.603 567.6V568H909.203ZM1011 568V567.6L1019.64 566.4V539.6H997.238V566.4L1005.88 567.6V568H984.438V567.6L994.038 566.4V513.6L984.438 512.4V512H1005.88V512.4L997.238 513.6V537.2H1019.64V513.6L1011 512.4V512H1032.44V512.4L1022.84 513.6V566.4L1032.44 567.6V568H1011ZM1055.64 568V567.6L1065.4 566.4L1084.04 509.6H1084.44L1102.92 566.4L1112.68 567.6V568H1089.96V567.6L1099.48 566.4L1094.12 549.68H1073.48L1068.04 566.4L1077.56 567.6V568H1055.64ZM1074.2 547.28H1093.32L1083.8 517.52L1074.2 547.28ZM1135.84 568V567.6L1145.44 566.4V513.6L1135.84 512.4V512H1158.72V512.4L1148.64 513.6V565.6H1170.96L1173.44 556.16L1173.84 556.24L1172.4 566.56L1172.24 568H1135.84ZM1205.84 568V567.6L1215.44 566.4V513.6L1205.84 512.4V512H1228.24V512.4L1218.64 513.6V566.4L1228.24 567.6V568H1205.84ZM1251.42 568V567.6L1261.18 566.4L1279.82 509.6H1280.22L1298.7 566.4L1308.46 567.6V568H1285.74V567.6L1295.26 566.4L1289.9 549.68H1269.26L1263.82 566.4L1273.34 567.6V568H1251.42ZM1269.98 547.28H1289.1L1279.58 517.52L1269.98 547.28ZM1349.83 571.2L1331.27 513.6L1321.59 512.4V512H1344.31V512.4L1334.79 513.6L1350.47 563.2L1366.23 513.6L1356.71 512.4V512H1378.63V512.4L1368.95 513.6L1350.23 571.2H1349.83ZM1402.25 568V567.6L1411.85 566.4V513.6L1402.25 512.4V512H1424.65V512.4L1415.05 513.6V566.4L1424.65 567.6V568H1402.25ZM1495.03 572L1468.23 518.96V566.4L1477.83 567.6V568H1456.23V567.6L1465.83 566.4V508H1466.23L1493.03 561.04V513.6L1483.43 512.4V512H1505.03V512.4L1495.43 513.6V572H1495.03ZM1528.7 584L1528.3 583.84L1537.43 568.48C1536.71 568.08 1536.23 567.28 1536.23 566.4C1536.23 565.12 1537.35 564 1538.63 564C1539.91 564 1541.03 565.12 1541.03 566.4C1541.03 566.96 1540.87 567.44 1540.31 568.24L1528.7 584ZM1601.89 568V567.6L1611.65 566.4L1630.29 509.6H1630.69L1649.17 566.4L1658.93 567.6V568H1636.21V567.6L1645.73 566.4L1640.37 549.68H1619.73L1614.29 566.4L1623.81 567.6V568H1601.89ZM1620.45 547.28H1639.57L1630.05 517.52L1620.45 547.28ZM1720.49 572L1693.69 518.96V566.4L1703.29 567.6V568H1681.69V567.6L1691.29 566.4V508H1691.69L1718.49 561.04V513.6L1708.89 512.4V512H1730.49V512.4L1720.89 513.6V572H1720.49ZM1762.09 568V567.6L1771.69 566.4V513.6L1762.09 512.4V512H1790.89C1806.89 512 1818.89 524 1818.89 540C1818.89 556 1806.89 568 1790.89 568H1762.09ZM1774.89 565.6H1790.81C1805.37 565.6 1815.69 555.04 1815.69 540C1815.69 524.96 1805.37 514.4 1790.81 514.4H1774.89V565.6ZM1898.66 576.24L1868.42 534L1868.66 533.52L1873.22 535.12H1874.34C1881.86 535.12 1886.02 530.64 1886.02 524.8C1886.02 518.8 1881.38 514.4 1875.14 514.4H1864.5V566.4L1874.58 567.6V568H1851.7V567.6L1861.3 566.4V513.6L1851.7 512.4V512H1875.78C1883.78 512 1889.38 517.2 1889.38 524.64C1889.38 531.84 1883.78 537.12 1875.78 537.12H1875.06L1899.3 575.76L1898.66 576.24ZM1953.81 546.88L1950.85 539.44H1940.13V565.6H1962.93L1964.13 556H1964.53V568H1927.33V567.6L1936.93 566.4V513.6L1927.33 512.4V512H1963.73V524H1963.33L1962.13 514.4H1940.13V537.2H1950.85L1953.81 529.76L1954.21 529.84L1952.37 538.08V538.56L1954.21 546.8L1953.81 546.88ZM2006.88 568V567.6L2016.48 566.4V542.4L2003.12 513.6L1993.36 512.4V512H2016.24V512.4L2006.8 513.6L2018.4 539.2L2029.92 513.6L2020.48 512.4V512H2042.56V512.4L2032.8 513.6L2019.68 541.68V566.4L2028.32 567.6V568H2006.88ZM2134.67 547.68L2131.79 540.24H2120.99V566.4L2131.07 567.6V568H2108.19V567.6L2117.79 566.4V513.6L2108.19 512.4V512H2144.59V524H2144.19L2142.99 514.4H2120.99V538H2131.79L2134.67 530.56L2135.07 530.64L2133.23 538.88V539.36L2135.07 547.6L2134.67 547.68ZM2204.28 546.88L2201.32 539.44H2190.6V565.6H2213.4L2214.6 556H2215V568H2177.8V567.6L2187.4 566.4V513.6L2177.8 512.4V512H2214.2V524H2213.8L2212.6 514.4H2190.6V537.2H2201.32L2204.28 529.76L2204.68 529.84L2202.84 538.08V538.56L2204.68 546.8L2204.28 546.88ZM2249.83 568V567.6L2259.43 566.4V513.6L2249.83 512.4V512H2278.63C2294.63 512 2306.63 524 2306.63 540C2306.63 556 2294.63 568 2278.63 568H2249.83ZM2262.63 565.6H2278.55C2293.11 565.6 2303.43 555.04 2303.43 540C2303.43 524.96 2293.11 514.4 2278.55 514.4H2262.63V565.6ZM2339.44 568V567.6L2349.04 566.4V513.6L2339.44 512.4V512H2361.84V512.4L2352.24 513.6V566.4L2361.84 567.6V568H2339.44ZM2432.21 572L2405.41 518.96V566.4L2415.01 567.6V568H2393.41V567.6L2403.01 566.4V508H2403.41L2430.21 561.04V513.6L2420.61 512.4V512H2442.21V512.4L2432.61 513.6V572H2432.21ZM2474.21 540.56V537.2H2530.21V539.2L2474.21 540.56ZM2608.58 576.24L2579.14 534.88L2596.34 513.6L2587.06 512.4V512H2609.38V512.4L2599.46 513.6L2582.9 533.92L2609.22 575.76L2608.58 576.24ZM2561.78 568V567.6L2571.38 566.4V513.6L2561.78 512.4V512H2584.18V512.4L2574.58 513.6V566.4L2584.18 567.6V568H2561.78ZM2683.98 576.24L2653.74 534L2653.98 533.52L2658.54 535.12H2659.66C2667.18 535.12 2671.34 530.64 2671.34 524.8C2671.34 518.8 2666.7 514.4 2660.46 514.4H2649.82V566.4L2659.9 567.6V568H2637.02V567.6L2646.62 566.4V513.6L2637.02 512.4V512H2661.1C2669.1 512 2674.7 517.2 2674.7 524.64C2674.7 531.84 2669.1 537.12 2661.1 537.12H2660.38L2684.62 575.76L2683.98 576.24ZM2736.16 569.6C2728.96 569.6 2721.84 564.4 2721.84 553.92V513.6L2712.24 512.4V512H2733.68V512.4L2725.04 513.6V553.6C2725.04 561.36 2729.84 566.8 2736.64 566.8C2743.44 566.8 2748.24 561.44 2748.24 553.92V513.6L2739.6 512.4V512H2760.24V512.4L2750.64 513.6V553.6C2750.64 564.32 2743.36 569.6 2736.16 569.6ZM2822.66 569.6C2805.54 569.6 2792.66 556.72 2792.66 539.6C2792.66 522.48 2805.54 509.6 2822.66 509.6C2835.22 509.6 2845.54 516.56 2850.1 527.04L2847.38 532.08L2847.06 532V527.76C2843.14 518.24 2834.1 512 2822.66 512C2807.06 512 2796.02 523.44 2796.02 539.6C2796.02 555.76 2807.06 567.2 2822.66 567.2C2836.9 567.2 2847.38 557.68 2849.06 543.76L2822.58 541.76V541.36H2852.58C2851.7 557.52 2839.14 569.6 2822.66 569.6ZM2884.98 568V567.6L2894.58 566.4V513.6L2884.98 512.4V512H2907.86V512.4L2897.78 513.6V565.6H2920.1L2922.58 556.16L2922.98 556.24L2921.54 566.56L2921.38 568H2884.98ZM2958.52 568V567.6L2968.12 566.4V542.4L2954.76 513.6L2945 512.4V512H2967.88V512.4L2958.44 513.6L2970.04 539.2L2981.56 513.6L2972.12 512.4V512H2994.2V512.4L2984.44 513.6L2971.32 541.68V566.4L2979.96 567.6V568H2958.52ZM3009.86 568V567.6L3019.62 566.4L3038.26 509.6H3038.66L3057.14 566.4L3066.9 567.6V568H3044.18V567.6L3053.7 566.4L3048.34 549.68H3027.7L3022.26 566.4L3031.78 567.6V568H3009.86ZM3028.42 547.28H3047.54L3038.02 517.52L3028.42 547.28ZM3136.86 576.24L3107.42 534.88L3124.62 513.6L3115.34 512.4V512H3137.66V512.4L3127.74 513.6L3111.18 533.92L3137.5 575.76L3136.86 576.24ZM3090.06 568V567.6L3099.66 566.4V513.6L3090.06 512.4V512H3112.46V512.4L3102.86 513.6V566.4L3112.46 567.6V568H3090.06ZM3195.32 569.6C3178.2 569.6 3165.32 556.72 3165.32 539.6C3165.32 522.48 3178.2 509.6 3195.32 509.6C3212.44 509.6 3225.32 522.48 3225.32 539.6C3225.32 556.72 3212.44 569.6 3195.32 569.6ZM3195.32 567.2C3210.92 567.2 3221.96 555.76 3221.96 539.6C3221.96 523.44 3210.92 512 3195.32 512C3179.72 512 3168.68 523.44 3168.68 539.6C3168.68 555.76 3179.72 567.2 3195.32 567.2ZM3278.35 571.2L3259.79 513.6L3250.11 512.4V512H3272.83V512.4L3263.31 513.6L3278.99 563.2L3294.75 513.6L3285.23 512.4V512H3307.15V512.4L3297.47 513.6L3278.75 571.2H3278.35Z" fill="#E3E1D3"/>
<path d="M1836.45 690.298C1834.52 690.298 1832.82 689.844 1831.36 688.935C1829.9 688.026 1828.77 686.733 1827.95 685.057C1827.14 683.381 1826.74 681.392 1826.74 679.091C1826.74 677.365 1826.97 675.813 1827.45 674.435C1827.93 673.05 1828.59 671.871 1829.45 670.898C1830.32 669.925 1831.34 669.18 1832.51 668.661C1833.69 668.143 1834.97 667.884 1836.37 667.884C1837.52 667.884 1838.6 668.058 1839.61 668.406C1840.61 668.746 1841.52 669.233 1842.32 669.865C1843.13 670.49 1843.8 671.239 1844.34 672.113C1844.88 672.979 1845.24 673.942 1845.44 675H1842.72C1842.5 674.283 1842.19 673.64 1841.8 673.072C1841.41 672.496 1840.94 672.006 1840.39 671.602C1839.85 671.197 1839.24 670.888 1838.56 670.675C1837.89 670.462 1837.16 670.355 1836.37 670.355C1835.07 670.355 1833.89 670.689 1832.82 671.357C1831.75 672.024 1830.89 673.008 1830.25 674.308C1829.61 675.607 1829.29 677.202 1829.29 679.091C1829.29 680.98 1829.61 682.575 1830.24 683.874C1830.87 685.174 1831.73 686.158 1832.81 686.825C1833.89 687.493 1835.1 687.827 1836.45 687.827C1837.75 687.827 1838.89 687.543 1839.87 686.974C1840.86 686.399 1841.63 685.611 1842.18 684.609C1842.74 683.601 1843.01 682.45 1843.01 681.158L1843.36 681.435H1837.05V679.091H1845.57V690H1843.36L1843.04 687.337H1842.93C1842.1 688.288 1841.17 689.02 1840.15 689.531C1839.13 690.043 1837.89 690.298 1836.45 690.298ZM1865.98 690H1863.21L1871.22 668.182H1873.95L1881.96 690H1879.19L1872.67 671.634H1872.5L1865.98 690ZM1867.01 681.477H1878.17V683.821H1867.01V681.477ZM1900.36 690V668.182H1913.44V670.526H1903V677.898H1912.46V680.241H1903V690H1900.36ZM1932.97 690V668.182H1946.05V670.526H1935.61V677.898H1945.07V680.241H1935.61V690H1932.97ZM1965.58 690V668.182H1978.74V670.526H1968.22V677.898H1978.06V680.241H1968.22V687.656H1978.91V690H1965.58ZM1998.51 690V668.182H2005.88C2007.58 668.182 2008.98 668.473 2010.08 669.055C2011.17 669.631 2011.98 670.423 2012.5 671.431C2013.03 672.44 2013.29 673.587 2013.29 674.872C2013.29 676.158 2013.03 677.298 2012.5 678.292C2011.98 679.286 2011.17 680.067 2010.09 680.636C2009 681.197 2007.61 681.477 2005.92 681.477H1999.96V679.091H2005.84C2007 679.091 2007.94 678.92 2008.65 678.58C2009.37 678.239 2009.88 677.756 2010.2 677.131C2010.53 676.499 2010.69 675.746 2010.69 674.872C2010.69 673.999 2010.53 673.235 2010.2 672.582C2009.88 671.928 2009.36 671.424 2008.64 671.069C2007.92 670.707 2006.97 670.526 2005.79 670.526H2001.15V690H1998.51ZM2008.78 680.199L2014.15 690H2011.08L2005.79 680.199H2008.78Z" fill="#E3E1D3"/>
<path d="M1323.42 772.88L1320.46 765.44H1309.74V791.6H1332.54L1333.74 782H1334.14V794H1296.94V793.6L1306.54 792.4V739.6L1296.94 738.4V738H1333.34V750H1332.94L1331.74 740.4H1309.74V763.2H1320.46L1323.42 755.76L1323.82 755.84L1321.98 764.08V764.56L1323.82 772.8L1323.42 772.88ZM1389.21 797.2L1370.65 739.6L1360.97 738.4V738H1383.69V738.4L1374.17 739.6L1389.85 789.2L1405.61 739.6L1396.09 738.4V738H1418.01V738.4L1408.33 739.6L1389.61 797.2H1389.21ZM1472.43 795.6C1455.31 795.6 1442.43 782.72 1442.43 765.6C1442.43 748.48 1455.31 735.6 1472.43 735.6C1484.99 735.6 1495.31 742.56 1499.87 753.04L1497.15 758.08L1496.83 758V753.76C1492.91 744.24 1483.87 738 1472.43 738C1456.83 738 1445.79 749.44 1445.79 765.6C1445.79 781.76 1456.83 793.2 1472.43 793.2C1486.67 793.2 1497.15 783.68 1498.83 769.76L1472.35 767.76V767.36H1502.35C1501.47 783.52 1488.91 795.6 1472.43 795.6ZM1561.23 772.88L1558.27 765.44H1547.55V791.6H1570.35L1571.55 782H1571.95V794H1534.75V793.6L1544.35 792.4V739.6L1534.75 738.4V738H1571.15V750H1570.75L1569.55 740.4H1547.55V763.2H1558.27L1561.23 755.76L1561.63 755.84L1559.79 764.08V764.56L1561.63 772.8L1561.23 772.88ZM1645.18 798L1618.38 744.96V792.4L1627.98 793.6V794H1606.38V793.6L1615.98 792.4V734H1616.38L1643.18 787.04V739.6L1633.58 738.4V738H1655.18V738.4L1645.58 739.6V798H1645.18ZM1686.78 794V793.6L1696.38 792.4V739.6L1686.78 738.4V738H1709.18V738.4L1699.58 739.6V792.4L1709.18 793.6V794H1686.78ZM1748.68 794V793.6L1758.28 792.4V768.4L1744.92 739.6L1735.16 738.4V738H1758.04V738.4L1748.6 739.6L1760.2 765.2L1771.72 739.6L1762.28 738.4V738H1784.36V738.4L1774.6 739.6L1761.48 767.68V792.4L1770.12 793.6V794H1748.68ZM1896.78 802.24L1867.34 760.88L1884.54 739.6L1875.26 738.4V738H1897.58V738.4L1887.66 739.6L1871.1 759.92L1897.42 801.76L1896.78 802.24ZM1849.98 794V793.6L1859.58 792.4V739.6L1849.98 738.4V738H1872.38V738.4L1862.78 739.6V792.4L1872.38 793.6V794H1849.98ZM1955.24 795.6C1938.12 795.6 1925.24 782.72 1925.24 765.6C1925.24 748.48 1938.12 735.6 1955.24 735.6C1972.36 735.6 1985.24 748.48 1985.24 765.6C1985.24 782.72 1972.36 795.6 1955.24 795.6ZM1955.24 793.2C1970.84 793.2 1981.88 781.76 1981.88 765.6C1981.88 749.44 1970.84 738 1955.24 738C1939.64 738 1928.6 749.44 1928.6 765.6C1928.6 781.76 1939.64 793.2 1955.24 793.2ZM2018.03 794V793.6L2027.63 792.4V739.6L2018.03 738.4V738H2040.91V738.4L2030.83 739.6V791.6H2053.15L2055.63 782.16L2056.03 782.24L2054.59 792.56L2054.43 794H2018.03ZM2088.03 794V793.6L2097.63 792.4V739.6L2088.03 738.4V738H2111.15C2120.51 738 2126.51 743.68 2126.51 752.48C2126.51 761.2 2120.51 766.8 2111.15 766.8H2100.83V792.4L2110.91 793.6V794H2088.03ZM2100.83 764.4H2110.91C2118.19 764.4 2123.15 759.52 2123.15 752.4C2123.15 745.28 2118.19 740.4 2110.91 740.4H2100.83V764.4ZM2150.95 794V793.6L2160.71 792.4L2179.35 735.6H2179.75L2198.23 792.4L2207.99 793.6V794H2185.27V793.6L2194.79 792.4L2189.43 775.68H2168.79L2163.35 792.4L2172.87 793.6V794H2150.95ZM2169.51 773.28H2188.63L2179.11 743.52L2169.51 773.28ZM2277.96 802.24L2248.52 760.88L2265.72 739.6L2256.44 738.4V738H2278.76V738.4L2268.84 739.6L2252.28 759.92L2278.6 801.76L2277.96 802.24ZM2231.16 794V793.6L2240.76 792.4V739.6L2231.16 738.4V738H2253.56V738.4L2243.96 739.6V792.4L2253.56 793.6V794H2231.16ZM2325.51 795.52C2317.35 795.52 2309.19 790.4 2309.19 780.08L2319.27 771.2L2319.51 771.44L2312.55 779.92C2312.55 788.72 2319.03 793.12 2325.51 793.12C2333.03 793.12 2338.63 787.68 2338.63 780.48C2338.63 774.56 2335.27 770 2329.11 767.04L2321.75 763.6C2313.75 759.92 2310.47 754.4 2310.47 749.2C2310.47 741.44 2316.95 735.6 2325.51 735.6C2333.03 735.6 2340.07 740.32 2340.39 750L2331.67 757.2L2331.43 756.96L2337.43 749.92C2337.03 741.92 2331.35 738 2325.51 738C2318.55 738 2313.35 742.8 2313.35 749.2C2313.35 753.28 2315.99 757.68 2322.87 760.64L2330.31 764C2337.75 767.28 2341.91 773.12 2341.91 780.24C2341.91 788.96 2334.87 795.52 2325.51 795.52ZM2376.7 794V793.6L2386.3 792.4V739.6L2376.7 738.4V738H2399.1V738.4L2389.5 739.6V792.4L2399.1 793.6V794H2376.7ZM2431.08 794V793.6L2440.68 792.4V739.6L2431.08 738.4V738H2459.88C2475.88 738 2487.88 750 2487.88 766C2487.88 782 2475.88 794 2459.88 794H2431.08ZM2443.88 791.6H2459.8C2474.36 791.6 2484.68 781.04 2484.68 766C2484.68 750.96 2474.36 740.4 2459.8 740.4H2443.88V791.6ZM2520.69 794V793.6L2530.29 792.4V739.6L2520.69 738.4V738H2543.09V738.4L2533.49 739.6V792.4L2543.09 793.6V794H2520.69Z" fill="#E3E1D3"/>
<path d="M1802.86 916V894.182H1805.5V905.006H1805.76L1815.56 894.182H1819.01L1809.85 904.026L1819.01 916H1815.82L1808.23 905.858L1805.5 908.926V916H1802.86ZM1837.43 916V894.182H1850.6V896.526H1840.07V903.898H1849.92V906.241H1840.07V913.656H1850.77V916H1837.43ZM1868.49 894.182H1871.51L1877.56 904.366H1877.82L1883.87 894.182H1886.9L1879.01 907.009V916H1876.37V907.009L1868.49 894.182ZM1937.61 916.298C1935.68 916.298 1933.98 915.844 1932.52 914.935C1931.07 914.026 1929.93 912.733 1929.11 911.057C1928.3 909.381 1927.9 907.392 1927.9 905.091C1927.9 903.365 1928.14 901.813 1928.61 900.435C1929.09 899.05 1929.76 897.871 1930.61 896.898C1931.48 895.925 1932.5 895.18 1933.67 894.661C1934.85 894.143 1936.14 893.884 1937.53 893.884C1938.68 893.884 1939.76 894.058 1940.77 894.406C1941.78 894.746 1942.68 895.233 1943.48 895.865C1944.29 896.49 1944.96 897.239 1945.5 898.113C1946.04 898.979 1946.41 899.942 1946.61 901H1943.88C1943.66 900.283 1943.35 899.64 1942.96 899.072C1942.57 898.496 1942.1 898.006 1941.56 897.602C1941.01 897.197 1940.4 896.888 1939.72 896.675C1939.05 896.462 1938.32 896.355 1937.53 896.355C1936.24 896.355 1935.05 896.689 1933.98 897.357C1932.91 898.024 1932.05 899.008 1931.41 900.308C1930.77 901.607 1930.45 903.202 1930.45 905.091C1930.45 906.98 1930.77 908.575 1931.4 909.874C1932.04 911.174 1932.89 912.158 1933.97 912.825C1935.05 913.493 1936.26 913.827 1937.61 913.827C1938.91 913.827 1940.05 913.543 1941.03 912.974C1942.02 912.399 1942.79 911.611 1943.35 910.609C1943.9 909.601 1944.18 908.45 1944.18 907.158L1944.52 907.435H1938.21V905.091H1946.73V916H1944.52L1944.2 913.337H1944.09C1943.26 914.288 1942.33 915.02 1941.31 915.531C1940.29 916.043 1939.06 916.298 1937.61 916.298ZM1966.25 916V894.182H1973.62C1975.33 894.182 1976.73 894.473 1977.82 895.055C1978.91 895.631 1979.72 896.423 1980.25 897.431C1980.77 898.44 1981.04 899.587 1981.04 900.872C1981.04 902.158 1980.77 903.298 1980.25 904.292C1979.72 905.286 1978.92 906.067 1977.83 906.636C1976.74 907.197 1975.36 907.477 1973.67 907.477H1967.7V905.091H1973.58C1974.74 905.091 1975.68 904.92 1976.39 904.58C1977.11 904.239 1977.63 903.756 1977.95 903.131C1978.27 902.499 1978.44 901.746 1978.44 900.872C1978.44 899.999 1978.27 899.235 1977.95 898.582C1977.62 897.928 1977.1 897.424 1976.38 897.069C1975.66 896.707 1974.72 896.526 1973.54 896.526H1968.89V916H1966.25ZM1976.52 906.199L1981.89 916H1978.82L1973.54 906.199H1976.52ZM2003.08 894.182V916H2000.44V894.182H2003.08ZM2023.38 916V894.182H2030.75C2032.46 894.182 2033.86 894.491 2034.95 895.109C2036.04 895.719 2036.85 896.547 2037.38 897.591C2037.9 898.635 2038.17 899.8 2038.17 901.085C2038.17 902.371 2037.9 903.539 2037.38 904.59C2036.86 905.641 2036.06 906.479 2034.97 907.104C2033.88 907.722 2032.49 908.031 2030.79 908.031H2025.51V905.688H2030.71C2031.88 905.688 2032.82 905.485 2033.53 905.08C2034.24 904.675 2034.76 904.129 2035.08 903.44C2035.4 902.744 2035.57 901.959 2035.57 901.085C2035.57 900.212 2035.4 899.43 2035.08 898.741C2034.76 898.053 2034.24 897.513 2033.52 897.122C2032.8 896.724 2031.85 896.526 2030.67 896.526H2026.02V916H2023.38Z" fill="#E3E1D3"/>
<path d="M1334.99 1023.2L1319.55 975.12V1018.4L1328.19 1019.6V1020H1307.55V1019.6L1317.15 1018.4V960H1317.71L1335.47 1015.28L1353.39 960H1353.95V1018.4L1363.55 1019.6V1020H1342.11V1019.6L1350.75 1018.4V975.92L1335.39 1023.2H1334.99ZM1418.66 1021.6C1411.46 1021.6 1404.34 1016.4 1404.34 1005.92V965.6L1394.74 964.4V964H1416.18V964.4L1407.54 965.6V1005.6C1407.54 1013.36 1412.34 1018.8 1419.14 1018.8C1425.94 1018.8 1430.74 1013.44 1430.74 1005.92V965.6L1422.1 964.4V964H1442.74V964.4L1433.14 965.6V1005.6C1433.14 1016.32 1425.86 1021.6 1418.66 1021.6ZM1521.16 1028.24L1491.72 986.88L1508.92 965.6L1499.64 964.4V964H1521.96V964.4L1512.04 965.6L1495.48 985.92L1521.8 1027.76L1521.16 1028.24ZM1474.36 1020V1019.6L1483.96 1018.4V965.6L1474.36 964.4V964H1496.76V964.4L1487.16 965.6V1018.4L1496.76 1019.6V1020H1474.36ZM1549.59 1020V1019.6L1559.19 1018.4V965.6L1549.59 964.4V964H1571.99V964.4L1562.39 965.6V1018.4L1571.99 1019.6V1020H1549.59ZM1631.01 1023.2L1615.57 975.12V1018.4L1624.21 1019.6V1020H1603.57V1019.6L1613.17 1018.4V960H1613.73L1631.49 1015.28L1649.41 960H1649.97V1018.4L1659.57 1019.6V1020H1638.13V1019.6L1646.77 1018.4V975.92L1631.41 1023.2H1631.01ZM1709.24 1021.6C1702.04 1021.6 1694.76 1016.32 1694.76 1005.44V1002.8L1701.88 996.96L1702.12 997.2L1697.96 1002.64V1005.92C1697.96 1013.6 1702.6 1019.2 1709.24 1019.2C1715.72 1019.2 1720.36 1013.76 1720.36 1005.92V966.4H1696.68L1696.76 976L1696.36 976.08L1695 965.76L1694.76 964H1733.16V964.4L1723.56 965.6V1005.68C1723.56 1014.88 1717.56 1021.6 1709.24 1021.6ZM1791.31 1020V1019.6L1799.95 1018.4V991.6H1777.55V1018.4L1786.19 1019.6V1020H1764.75V1019.6L1774.35 1018.4V965.6L1764.75 964.4V964H1786.19V964.4L1777.55 965.6V989.2H1799.95V965.6L1791.31 964.4V964H1812.75V964.4L1803.15 965.6V1018.4L1812.75 1019.6V1020H1791.31ZM1835.95 1020V1019.6L1845.71 1018.4L1864.35 961.6H1864.75L1883.23 1018.4L1892.99 1019.6V1020H1870.27V1019.6L1879.79 1018.4L1874.43 1001.68H1853.79L1848.35 1018.4L1857.87 1019.6V1020H1835.95ZM1854.51 999.28H1873.63L1864.11 969.52L1854.51 999.28ZM1954.56 1024L1927.76 970.96V1018.4L1937.36 1019.6V1020H1915.76V1019.6L1925.36 1018.4V960H1925.76L1952.56 1013.04V965.6L1942.96 964.4V964H1964.56V964.4L1954.96 965.6V1024H1954.56ZM2075.34 1024L2048.54 970.96V1018.4L2058.14 1019.6V1020H2036.54V1019.6L2046.14 1018.4V960H2046.54L2073.34 1013.04V965.6L2063.74 964.4V964H2085.34V964.4L2075.74 965.6V1024H2075.34ZM2108.14 1020V1019.6L2117.9 1018.4L2136.54 961.6H2136.94L2155.42 1018.4L2165.18 1019.6V1020H2142.46V1019.6L2151.98 1018.4L2146.62 1001.68H2125.98L2120.54 1018.4L2130.06 1019.6V1020H2108.14ZM2126.7 999.28H2145.82L2136.3 969.52L2126.7 999.28ZM2189.14 1020V1019.6L2213.7 966.4H2191.22L2188.74 975.84L2188.34 975.76L2189.78 965.44L2189.94 964H2217.94V964.4L2193.38 1017.6H2215.86L2218.34 1008.16L2218.74 1008.24L2217.3 1018.56L2217.14 1020H2189.14ZM2241.97 1020V1019.6L2251.73 1018.4L2270.37 961.6H2270.77L2289.25 1018.4L2299.01 1019.6V1020H2276.29V1019.6L2285.81 1018.4L2280.45 1001.68H2259.81L2254.37 1018.4L2263.89 1019.6V1020H2241.97ZM2260.53 999.28H2279.65L2270.13 969.52L2260.53 999.28ZM2369.13 1028.24L2338.89 986L2339.13 985.52L2343.69 987.12H2344.81C2352.33 987.12 2356.49 982.64 2356.49 976.8C2356.49 970.8 2351.85 966.4 2345.61 966.4H2334.97V1018.4L2345.05 1019.6V1020H2322.17V1019.6L2331.77 1018.4V965.6L2322.17 964.4V964H2346.25C2354.25 964 2359.85 969.2 2359.85 976.64C2359.85 983.84 2354.25 989.12 2346.25 989.12H2345.53L2369.77 1027.76L2369.13 1028.24ZM2428.6 1021.6C2411.48 1021.6 2398.6 1008.72 2398.6 991.6C2398.6 974.48 2411.48 961.6 2428.6 961.6C2445.72 961.6 2458.6 974.48 2458.6 991.6C2458.6 1008.72 2445.72 1021.6 2428.6 1021.6ZM2428.6 1019.2C2444.2 1019.2 2455.24 1007.76 2455.24 991.6C2455.24 975.44 2444.2 964 2428.6 964C2413 964 2401.96 975.44 2401.96 991.6C2401.96 1007.76 2413 1019.2 2428.6 1019.2ZM2511.63 1023.2L2493.07 965.6L2483.39 964.4V964H2506.11V964.4L2496.59 965.6L2512.27 1015.2L2528.03 965.6L2518.51 964.4V964H2540.43V964.4L2530.75 965.6L2512.03 1023.2H2511.63Z" fill="#E3E1D3"/>
<path d="M1874.67 1142.3C1872.74 1142.3 1871.04 1141.84 1869.58 1140.93C1868.12 1140.03 1866.99 1138.73 1866.17 1137.06C1865.36 1135.38 1864.95 1133.39 1864.95 1131.09C1864.95 1129.37 1865.19 1127.81 1865.67 1126.44C1866.14 1125.05 1866.81 1123.87 1867.67 1122.9C1868.54 1121.93 1869.56 1121.18 1870.73 1120.66C1871.91 1120.14 1873.19 1119.88 1874.58 1119.88C1875.74 1119.88 1876.81 1120.06 1877.82 1120.41C1878.83 1120.75 1879.74 1121.23 1880.54 1121.87C1881.35 1122.49 1882.02 1123.24 1882.55 1124.11C1883.09 1124.98 1883.46 1125.94 1883.66 1127H1880.93C1880.71 1126.28 1880.41 1125.64 1880.02 1125.07C1879.63 1124.5 1879.16 1124.01 1878.61 1123.6C1878.06 1123.2 1877.45 1122.89 1876.78 1122.67C1876.1 1122.46 1875.37 1122.36 1874.58 1122.36C1873.29 1122.36 1872.11 1122.69 1871.04 1123.36C1869.96 1124.02 1869.11 1125.01 1868.47 1126.31C1867.83 1127.61 1867.51 1129.2 1867.51 1131.09C1867.51 1132.98 1867.83 1134.57 1868.46 1135.87C1869.09 1137.17 1869.95 1138.16 1871.03 1138.83C1872.11 1139.49 1873.32 1139.83 1874.67 1139.83C1875.97 1139.83 1877.11 1139.54 1878.09 1138.97C1879.08 1138.4 1879.85 1137.61 1880.4 1136.61C1880.96 1135.6 1881.23 1134.45 1881.23 1133.16L1881.57 1133.43H1875.27V1131.09H1883.79V1142H1881.57L1881.25 1139.34H1881.15C1880.32 1140.29 1879.39 1141.02 1878.37 1141.53C1877.34 1142.04 1876.11 1142.3 1874.67 1142.3ZM1903.31 1142V1120.18H1910.68C1912.38 1120.18 1913.78 1120.47 1914.88 1121.06C1915.97 1121.63 1916.78 1122.42 1917.3 1123.43C1917.83 1124.44 1918.09 1125.59 1918.09 1126.87C1918.09 1128.16 1917.83 1129.3 1917.3 1130.29C1916.78 1131.29 1915.97 1132.07 1914.89 1132.64C1913.8 1133.2 1912.41 1133.48 1910.72 1133.48H1904.75V1131.09H1910.64C1911.8 1131.09 1912.74 1130.92 1913.45 1130.58C1914.17 1130.24 1914.68 1129.76 1915 1129.13C1915.33 1128.5 1915.49 1127.75 1915.49 1126.87C1915.49 1126 1915.33 1125.24 1915 1124.58C1914.68 1123.93 1914.15 1123.42 1913.44 1123.07C1912.72 1122.71 1911.77 1122.53 1910.59 1122.53H1905.95V1142H1903.31ZM1913.58 1132.2L1918.95 1142H1915.88L1910.59 1132.2H1913.58ZM1940.14 1120.18V1142H1937.5V1120.18H1940.14ZM1960.44 1142V1120.18H1967.81C1969.52 1120.18 1970.92 1120.49 1972 1121.11C1973.1 1121.72 1973.91 1122.55 1974.43 1123.59C1974.96 1124.63 1975.22 1125.8 1975.22 1127.09C1975.22 1128.37 1974.96 1129.54 1974.43 1130.59C1973.92 1131.64 1973.11 1132.48 1972.03 1133.1C1970.94 1133.72 1969.55 1134.03 1967.85 1134.03H1962.57V1131.69H1967.76C1968.94 1131.69 1969.88 1131.49 1970.59 1131.08C1971.3 1130.68 1971.81 1130.13 1972.13 1129.44C1972.46 1128.74 1972.62 1127.96 1972.62 1127.09C1972.62 1126.21 1972.46 1125.43 1972.13 1124.74C1971.81 1124.05 1971.29 1123.51 1970.58 1123.12C1969.86 1122.72 1968.91 1122.53 1967.72 1122.53H1963.08V1142H1960.44Z" fill="#E3E1D3"/>
<path d="M826.77 1246V1245.6L836.53 1244.4L855.17 1187.6H855.57L874.05 1244.4L883.81 1245.6V1246H861.09V1245.6L870.61 1244.4L865.25 1227.68H844.61L839.17 1244.4L848.69 1245.6V1246H826.77ZM845.33 1225.28H864.45L854.93 1195.52L845.33 1225.28ZM906.977 1246V1245.6L916.577 1244.4V1191.6L906.977 1190.4V1190H929.857V1190.4L919.777 1191.6V1243.6H942.097L944.577 1234.16L944.977 1234.24L943.537 1244.56L943.377 1246H906.977ZM1003.46 1224.88L1000.5 1217.44H989.777V1243.6H1012.58L1013.78 1234H1014.18V1246H976.977V1245.6L986.577 1244.4V1191.6L976.977 1190.4V1190H1013.38V1202H1012.98L1011.78 1192.4H989.777V1215.2H1000.5L1003.46 1207.76L1003.86 1207.84L1002.02 1216.08V1216.56L1003.86 1224.8L1003.46 1224.88ZM1073.57 1246V1245.6L1082.53 1244.4L1071.01 1219.52L1059.65 1244.4L1068.61 1245.6V1246H1047.01V1245.6L1056.77 1244.4L1069.81 1216.88L1057.73 1191.6L1047.97 1190.4V1190H1069.97V1190.4L1061.49 1191.6L1071.41 1213.28L1081.33 1191.6L1072.85 1190.4V1190H1093.97V1190.4L1084.21 1191.6L1072.69 1216L1086.21 1244.4L1096.05 1245.6V1246H1073.57ZM1152.52 1224.88L1149.56 1217.44H1138.84V1243.6H1161.64L1162.84 1234H1163.24V1246H1126.04V1245.6L1135.64 1244.4V1191.6L1126.04 1190.4V1190H1162.44V1202H1162.04L1160.84 1192.4H1138.84V1215.2H1149.56L1152.52 1207.76L1152.92 1207.84L1151.08 1216.08V1216.56L1152.92 1224.8L1152.52 1224.88ZM1205.59 1246V1245.6L1215.19 1244.4V1220.4L1201.83 1191.6L1192.07 1190.4V1190H1214.95V1190.4L1205.51 1191.6L1217.11 1217.2L1228.63 1191.6L1219.19 1190.4V1190H1241.27V1190.4L1231.51 1191.6L1218.39 1219.68V1244.4L1227.03 1245.6V1246H1205.59ZM1326.02 1247.52C1317.86 1247.52 1309.7 1242.4 1309.7 1232.08L1319.78 1223.2L1320.02 1223.44L1313.06 1231.92C1313.06 1240.72 1319.54 1245.12 1326.02 1245.12C1333.54 1245.12 1339.14 1239.68 1339.14 1232.48C1339.14 1226.56 1335.78 1222 1329.62 1219.04L1322.26 1215.6C1314.26 1211.92 1310.98 1206.4 1310.98 1201.2C1310.98 1193.44 1317.46 1187.6 1326.02 1187.6C1333.54 1187.6 1340.58 1192.32 1340.9 1202L1332.18 1209.2L1331.94 1208.96L1337.94 1201.92C1337.54 1193.92 1331.86 1190 1326.02 1190C1319.06 1190 1313.86 1194.8 1313.86 1201.2C1313.86 1205.28 1316.5 1209.68 1323.38 1212.64L1330.82 1216C1338.26 1219.28 1342.42 1225.12 1342.42 1232.24C1342.42 1240.96 1335.38 1247.52 1326.02 1247.52ZM1400.73 1247.6C1393.53 1247.6 1386.41 1242.4 1386.41 1231.92V1191.6L1376.81 1190.4V1190H1398.25V1190.4L1389.61 1191.6V1231.6C1389.61 1239.36 1394.41 1244.8 1401.21 1244.8C1408.01 1244.8 1412.81 1239.44 1412.81 1231.92V1191.6L1404.17 1190.4V1190H1424.81V1190.4L1415.21 1191.6V1231.6C1415.21 1242.32 1407.93 1247.6 1400.73 1247.6ZM1487.23 1247.6C1470.11 1247.6 1457.23 1234.72 1457.23 1217.6C1457.23 1200.48 1470.11 1187.6 1487.23 1187.6C1499.79 1187.6 1510.11 1194.56 1514.67 1205.04L1506.75 1215.12L1506.43 1215.04L1511.55 1205.68C1507.63 1196.24 1498.59 1190 1487.23 1190C1471.63 1190 1460.59 1201.44 1460.59 1217.6C1460.59 1233.76 1471.63 1245.2 1487.23 1245.2C1499.07 1245.2 1508.27 1238.64 1512.03 1228.4V1224.16L1512.35 1224.08L1515.07 1229.12C1510.75 1240.16 1500.19 1247.6 1487.23 1247.6ZM1573.61 1246V1245.6L1582.25 1244.4V1217.6H1559.85V1244.4L1568.49 1245.6V1246H1547.05V1245.6L1556.65 1244.4V1191.6L1547.05 1190.4V1190H1568.49V1190.4L1559.85 1191.6V1215.2H1582.25V1191.6L1573.61 1190.4V1190H1595.05V1190.4L1585.45 1191.6V1244.4L1595.05 1245.6V1246H1573.61ZM1673.85 1254.24L1644.41 1212.88L1661.61 1191.6L1652.33 1190.4V1190H1674.65V1190.4L1664.73 1191.6L1648.17 1211.92L1674.49 1253.76L1673.85 1254.24ZM1627.05 1246V1245.6L1636.65 1244.4V1191.6L1627.05 1190.4V1190H1649.45V1190.4L1639.85 1191.6V1244.4L1649.45 1245.6V1246H1627.05ZM1732.31 1247.6C1715.19 1247.6 1702.31 1234.72 1702.31 1217.6C1702.31 1200.48 1715.19 1187.6 1732.31 1187.6C1749.43 1187.6 1762.31 1200.48 1762.31 1217.6C1762.31 1234.72 1749.43 1247.6 1732.31 1247.6ZM1732.31 1245.2C1747.91 1245.2 1758.95 1233.76 1758.95 1217.6C1758.95 1201.44 1747.91 1190 1732.31 1190C1716.71 1190 1705.67 1201.44 1705.67 1217.6C1705.67 1233.76 1716.71 1245.2 1732.31 1245.2ZM1815.34 1249.2L1796.78 1191.6L1787.1 1190.4V1190H1809.82V1190.4L1800.3 1191.6L1815.98 1241.2L1831.74 1191.6L1822.22 1190.4V1190H1844.14V1190.4L1834.46 1191.6L1815.74 1249.2H1815.34ZM1856.63 1262L1856.23 1261.84L1865.35 1246.48C1864.63 1246.08 1864.15 1245.28 1864.15 1244.4C1864.15 1243.12 1865.27 1242 1866.55 1242C1867.83 1242 1868.95 1243.12 1868.95 1244.4C1868.95 1244.96 1868.79 1245.44 1868.23 1246.24L1856.63 1262ZM1939.79 1246V1245.6L1949.39 1244.4V1191.6L1939.79 1190.4V1190H1962.19V1190.4L1952.59 1191.6V1244.4L1962.19 1245.6V1246H1939.79ZM1994.16 1246V1245.6L2003.76 1244.4V1191.6L1994.16 1190.4V1190H2017.04V1190.4L2006.96 1191.6V1243.6H2029.28L2031.76 1234.16L2032.16 1234.24L2030.72 1244.56L2030.56 1246H1994.16ZM2067.7 1246V1245.6L2077.3 1244.4V1220.4L2063.94 1191.6L2054.18 1190.4V1190H2077.06V1190.4L2067.62 1191.6L2079.22 1217.2L2090.74 1191.6L2081.3 1190.4V1190H2103.38V1190.4L2093.62 1191.6L2080.5 1219.68V1244.4L2089.14 1245.6V1246H2067.7ZM2119.04 1246V1245.6L2128.8 1244.4L2147.44 1187.6H2147.84L2166.32 1244.4L2176.08 1245.6V1246H2153.36V1245.6L2162.88 1244.4L2157.52 1227.68H2136.88L2131.44 1244.4L2140.96 1245.6V1246H2119.04ZM2137.6 1225.28H2156.72L2147.2 1195.52L2137.6 1225.28ZM2265.89 1249.2L2250.45 1201.12V1244.4L2259.09 1245.6V1246H2238.45V1245.6L2248.05 1244.4V1186H2248.61L2266.37 1241.28L2284.29 1186H2284.85V1244.4L2294.45 1245.6V1246H2273.01V1245.6L2281.65 1244.4V1201.92L2266.29 1249.2H2265.89ZM2317.24 1246V1245.6L2327 1244.4L2345.64 1187.6H2346.04L2364.52 1244.4L2374.28 1245.6V1246H2351.56V1245.6L2361.08 1244.4L2355.72 1227.68H2335.08L2329.64 1244.4L2339.16 1245.6V1246H2317.24ZM2335.8 1225.28H2354.92L2345.4 1195.52L2335.8 1225.28ZM2444.41 1254.24L2414.17 1212L2414.41 1211.52L2418.97 1213.12H2420.09C2427.61 1213.12 2431.77 1208.64 2431.77 1202.8C2431.77 1196.8 2427.13 1192.4 2420.89 1192.4H2410.25V1244.4L2420.33 1245.6V1246H2397.45V1245.6L2407.05 1244.4V1191.6L2397.45 1190.4V1190H2421.53C2429.53 1190 2435.13 1195.2 2435.13 1202.64C2435.13 1209.84 2429.53 1215.12 2421.53 1215.12H2420.81L2445.05 1253.76L2444.41 1254.24ZM2503.87 1247.6C2486.75 1247.6 2473.87 1234.72 2473.87 1217.6C2473.87 1200.48 2486.75 1187.6 2503.87 1187.6C2516.43 1187.6 2526.75 1194.56 2531.31 1205.04L2523.39 1215.12L2523.07 1215.04L2528.19 1205.68C2524.27 1196.24 2515.23 1190 2503.87 1190C2488.27 1190 2477.23 1201.44 2477.23 1217.6C2477.23 1233.76 2488.27 1245.2 2503.87 1245.2C2515.71 1245.2 2524.91 1238.64 2528.67 1228.4V1224.16L2528.99 1224.08L2531.71 1229.12C2527.39 1240.16 2516.83 1247.6 2503.87 1247.6ZM2590.26 1246V1245.6L2598.9 1244.4V1217.6H2576.5V1244.4L2585.14 1245.6V1246H2563.7V1245.6L2573.3 1244.4V1191.6L2563.7 1190.4V1190H2585.14V1190.4L2576.5 1191.6V1215.2H2598.9V1191.6L2590.26 1190.4V1190H2611.7V1190.4L2602.1 1191.6V1244.4L2611.7 1245.6V1246H2590.26ZM2670.18 1224.88L2667.22 1217.44H2656.5V1243.6H2679.3L2680.5 1234H2680.9V1246H2643.7V1245.6L2653.3 1244.4V1191.6L2643.7 1190.4V1190H2680.1V1202H2679.7L2678.5 1192.4H2656.5V1215.2H2667.22L2670.18 1207.76L2670.58 1207.84L2668.74 1216.08V1216.56L2670.58 1224.8L2670.18 1224.88ZM2754.13 1250L2727.33 1196.96V1244.4L2736.93 1245.6V1246H2715.33V1245.6L2724.93 1244.4V1186H2725.33L2752.13 1239.04V1191.6L2742.53 1190.4V1190H2764.13V1190.4L2754.53 1191.6V1250H2754.13ZM2842.53 1254.24L2813.09 1212.88L2830.29 1191.6L2821.01 1190.4V1190H2843.33V1190.4L2833.41 1191.6L2816.85 1211.92L2843.17 1253.76L2842.53 1254.24ZM2795.73 1246V1245.6L2805.33 1244.4V1191.6L2795.73 1190.4V1190H2818.13V1190.4L2808.53 1191.6V1244.4L2818.13 1245.6V1246H2795.73ZM2900.98 1247.6C2883.86 1247.6 2870.98 1234.72 2870.98 1217.6C2870.98 1200.48 2883.86 1187.6 2900.98 1187.6C2918.1 1187.6 2930.98 1200.48 2930.98 1217.6C2930.98 1234.72 2918.1 1247.6 2900.98 1247.6ZM2900.98 1245.2C2916.58 1245.2 2927.62 1233.76 2927.62 1217.6C2927.62 1201.44 2916.58 1190 2900.98 1190C2885.38 1190 2874.34 1201.44 2874.34 1217.6C2874.34 1233.76 2885.38 1245.2 2900.98 1245.2ZM2984.01 1249.2L2965.45 1191.6L2955.77 1190.4V1190H2978.49V1190.4L2968.97 1191.6L2984.65 1241.2L3000.41 1191.6L2990.89 1190.4V1190H3012.81V1190.4L3003.13 1191.6L2984.41 1249.2H2984.01Z" fill="#E3E1D3"/>
<path d="M1787.14 1351.64C1787.01 1350.56 1786.49 1349.72 1785.58 1349.12C1784.67 1348.53 1783.56 1348.23 1782.24 1348.23C1781.27 1348.23 1780.43 1348.38 1779.7 1348.7C1778.98 1349.01 1778.42 1349.44 1778.02 1349.99C1777.62 1350.53 1777.42 1351.15 1777.42 1351.85C1777.42 1352.43 1777.56 1352.93 1777.84 1353.35C1778.12 1353.76 1778.48 1354.11 1778.92 1354.38C1779.36 1354.65 1779.83 1354.88 1780.31 1355.06C1780.79 1355.23 1781.24 1355.37 1781.64 1355.47L1783.86 1356.07C1784.42 1356.22 1785.06 1356.42 1785.75 1356.69C1786.46 1356.95 1787.13 1357.31 1787.77 1357.76C1788.41 1358.21 1788.94 1358.78 1789.36 1359.49C1789.78 1360.19 1789.99 1361.05 1789.99 1362.08C1789.99 1363.26 1789.68 1364.32 1789.07 1365.27C1788.45 1366.22 1787.56 1366.98 1786.38 1367.54C1785.21 1368.1 1783.79 1368.38 1782.11 1368.38C1780.55 1368.38 1779.19 1368.13 1778.05 1367.63C1776.91 1367.12 1776.02 1366.42 1775.37 1365.52C1774.72 1364.62 1774.35 1363.57 1774.27 1362.38H1777C1777.07 1363.2 1777.34 1363.88 1777.83 1364.42C1778.32 1364.95 1778.93 1365.35 1779.68 1365.61C1780.43 1365.87 1781.24 1366 1782.11 1366C1783.12 1366 1784.02 1365.83 1784.83 1365.51C1785.63 1365.17 1786.26 1364.71 1786.73 1364.12C1787.2 1363.53 1787.44 1362.83 1787.44 1362.03C1787.44 1361.31 1787.23 1360.72 1786.83 1360.27C1786.42 1359.81 1785.89 1359.44 1785.23 1359.16C1784.57 1358.87 1783.86 1358.62 1783.09 1358.41L1780.4 1357.64C1778.7 1357.15 1777.35 1356.46 1776.36 1355.55C1775.36 1354.64 1774.86 1353.45 1774.86 1351.98C1774.86 1350.76 1775.19 1349.69 1775.86 1348.78C1776.52 1347.87 1777.42 1347.15 1778.54 1346.65C1779.67 1346.14 1780.93 1345.88 1782.32 1345.88C1783.73 1345.88 1784.98 1346.14 1786.07 1346.64C1787.17 1347.14 1788.03 1347.82 1788.67 1348.69C1789.32 1349.55 1789.66 1350.54 1789.69 1351.64H1787.14ZM1808.14 1348.53V1346.18H1824.51V1348.53H1817.65V1368H1815V1348.53H1808.14ZM1843.58 1368V1346.18H1856.75V1348.53H1846.23V1355.9H1856.07V1358.24H1846.23V1365.66H1856.92V1368H1843.58ZM1877.41 1368H1874.64L1882.65 1346.18H1885.38L1893.39 1368H1890.62L1884.1 1349.63H1883.93L1877.41 1368ZM1878.43 1359.48H1889.6V1361.82H1878.43V1359.48ZM1918.52 1368H1911.79V1346.18H1918.82C1920.94 1346.18 1922.75 1346.62 1924.25 1347.49C1925.76 1348.36 1926.91 1349.61 1927.71 1351.23C1928.52 1352.85 1928.92 1354.79 1928.92 1357.05C1928.92 1359.32 1928.51 1361.28 1927.7 1362.92C1926.89 1364.55 1925.72 1365.81 1924.17 1366.69C1922.62 1367.56 1920.74 1368 1918.52 1368ZM1914.43 1365.66H1918.35C1920.15 1365.66 1921.65 1365.31 1922.84 1364.61C1924.02 1363.92 1924.91 1362.93 1925.49 1361.64C1926.07 1360.35 1926.36 1358.82 1926.36 1357.05C1926.36 1355.29 1926.07 1353.77 1925.5 1352.5C1924.92 1351.22 1924.06 1350.24 1922.92 1349.56C1921.78 1348.87 1920.35 1348.53 1918.65 1348.53H1914.43V1365.66ZM1950.99 1346.18V1368H1948.35V1346.18H1950.99ZM1988.85 1353H1986.2C1986.05 1352.24 1985.77 1351.57 1985.38 1351C1985 1350.42 1984.53 1349.94 1983.98 1349.55C1983.43 1349.15 1982.82 1348.85 1982.16 1348.65C1981.49 1348.45 1980.79 1348.36 1980.07 1348.36C1978.75 1348.36 1977.55 1348.69 1976.48 1349.36C1975.41 1350.02 1974.56 1351.01 1973.93 1352.31C1973.31 1353.61 1972.99 1355.2 1972.99 1357.09C1972.99 1358.98 1973.31 1360.57 1973.93 1361.87C1974.56 1363.17 1975.41 1364.16 1976.48 1364.83C1977.55 1365.49 1978.75 1365.83 1980.07 1365.83C1980.79 1365.83 1981.49 1365.73 1982.16 1365.53C1982.82 1365.33 1983.43 1365.03 1983.98 1364.64C1984.53 1364.25 1985 1363.76 1985.38 1363.18C1985.77 1362.6 1986.05 1361.93 1986.2 1361.18H1988.85C1988.65 1362.3 1988.29 1363.29 1987.76 1364.18C1987.23 1365.06 1986.58 1365.81 1985.8 1366.42C1985.02 1367.03 1984.14 1367.5 1983.17 1367.82C1982.2 1368.14 1981.17 1368.3 1980.07 1368.3C1978.21 1368.3 1976.55 1367.84 1975.1 1366.93C1973.65 1366.03 1972.51 1364.73 1971.68 1363.06C1970.85 1361.38 1970.44 1359.39 1970.44 1357.09C1970.44 1354.79 1970.85 1352.8 1971.68 1351.12C1972.51 1349.45 1973.65 1348.16 1975.1 1347.25C1976.55 1346.34 1978.21 1345.88 1980.07 1345.88C1981.17 1345.88 1982.2 1346.04 1983.17 1346.36C1984.14 1346.68 1985.02 1347.15 1985.8 1347.77C1986.58 1348.38 1987.23 1349.13 1987.76 1350.01C1988.29 1350.88 1988.65 1351.88 1988.85 1353ZM2009.01 1368H2006.24L2014.25 1346.18H2016.98L2024.99 1368H2022.22L2015.7 1349.63H2015.53L2009.01 1368ZM2010.03 1359.48H2021.2V1361.82H2010.03V1359.48ZM2043.39 1346.18H2046.54L2053.96 1364.29H2054.21L2061.63 1346.18H2064.78V1368H2062.31V1351.42H2062.1L2055.28 1368H2052.89L2046.07 1351.42H2045.86V1368H2043.39V1346.18Z" fill="#E3E1D3"/>
<path d="M1188.92 1472V1471.6L1198.68 1470.4L1217.32 1413.6H1217.72L1236.2 1470.4L1245.96 1471.6V1472H1223.24V1471.6L1232.76 1470.4L1227.4 1453.68H1206.76L1201.32 1470.4L1210.84 1471.6V1472H1188.92ZM1207.48 1451.28H1226.6L1217.08 1421.52L1207.48 1451.28ZM1269.13 1472V1471.6L1278.73 1470.4V1417.6L1269.13 1416.4V1416H1292.01V1416.4L1281.93 1417.6V1469.6H1304.24L1306.73 1460.16L1307.13 1460.24L1305.69 1470.56L1305.53 1472H1269.13ZM1365.61 1450.88L1362.65 1443.44H1351.93V1469.6H1374.73L1375.93 1460H1376.33V1472H1339.13V1471.6L1348.73 1470.4V1417.6L1339.13 1416.4V1416H1375.53V1428H1375.13L1373.93 1418.4H1351.93V1441.2H1362.65L1365.61 1433.76L1366.01 1433.84L1364.17 1442.08V1442.56L1366.01 1450.8L1365.61 1450.88ZM1435.72 1472V1471.6L1444.68 1470.4L1433.16 1445.52L1421.8 1470.4L1430.76 1471.6V1472H1409.16V1471.6L1418.92 1470.4L1431.96 1442.88L1419.88 1417.6L1410.12 1416.4V1416H1432.12V1416.4L1423.64 1417.6L1433.56 1439.28L1443.48 1417.6L1435 1416.4V1416H1456.12V1416.4L1446.36 1417.6L1434.84 1442L1448.36 1470.4L1458.2 1471.6V1472H1435.72ZM1479.39 1472V1471.6L1489.15 1470.4L1507.79 1413.6H1508.19L1526.67 1470.4L1536.43 1471.6V1472H1513.71V1471.6L1523.23 1470.4L1517.87 1453.68H1497.23L1491.79 1470.4L1501.31 1471.6V1472H1479.39ZM1497.95 1451.28H1517.07L1507.55 1421.52L1497.95 1451.28ZM1597.99 1476L1571.19 1422.96V1470.4L1580.79 1471.6V1472H1559.19V1471.6L1568.79 1470.4V1412H1569.19L1595.99 1465.04V1417.6L1586.39 1416.4V1416H1607.99V1416.4L1598.39 1417.6V1476H1597.99ZM1639.59 1472V1471.6L1649.19 1470.4V1417.6L1639.59 1416.4V1416H1668.39C1684.39 1416 1696.39 1428 1696.39 1444C1696.39 1460 1684.39 1472 1668.39 1472H1639.59ZM1652.39 1469.6H1668.31C1682.87 1469.6 1693.19 1459.04 1693.19 1444C1693.19 1428.96 1682.87 1418.4 1668.31 1418.4H1652.39V1469.6ZM1755.68 1450.88L1752.72 1443.44H1742V1469.6H1764.8L1766 1460H1766.4V1472H1729.2V1471.6L1738.8 1470.4V1417.6L1729.2 1416.4V1416H1765.6V1428H1765.2L1764 1418.4H1742V1441.2H1752.72L1755.68 1433.76L1756.08 1433.84L1754.24 1442.08V1442.56L1756.08 1450.8L1755.68 1450.88ZM1848.19 1480.24L1817.95 1438L1818.19 1437.52L1822.75 1439.12H1823.87C1831.39 1439.12 1835.55 1434.64 1835.55 1428.8C1835.55 1422.8 1830.91 1418.4 1824.67 1418.4H1814.03V1470.4L1824.11 1471.6V1472H1801.23V1471.6L1810.83 1470.4V1417.6L1801.23 1416.4V1416H1825.31C1833.31 1416 1838.91 1421.2 1838.91 1428.64C1838.91 1435.84 1833.31 1441.12 1825.31 1441.12H1824.59L1848.83 1479.76L1848.19 1480.24ZM1947.66 1473.6C1930.54 1473.6 1917.66 1460.72 1917.66 1443.6C1917.66 1426.48 1930.54 1413.6 1947.66 1413.6C1960.22 1413.6 1970.54 1420.56 1975.1 1431.04L1967.18 1441.12L1966.86 1441.04L1971.98 1431.68C1968.06 1422.24 1959.02 1416 1947.66 1416C1932.06 1416 1921.02 1427.44 1921.02 1443.6C1921.02 1459.76 1932.06 1471.2 1947.66 1471.2C1959.5 1471.2 1968.7 1464.64 1972.46 1454.4V1450.16L1972.78 1450.08L1975.5 1455.12C1971.18 1466.16 1960.62 1473.6 1947.66 1473.6ZM2034.04 1472V1471.6L2042.68 1470.4V1443.6H2020.28V1470.4L2028.92 1471.6V1472H2007.48V1471.6L2017.08 1470.4V1417.6L2007.48 1416.4V1416H2028.92V1416.4L2020.28 1417.6V1441.2H2042.68V1417.6L2034.04 1416.4V1416H2055.48V1416.4L2045.88 1417.6V1470.4L2055.48 1471.6V1472H2034.04ZM2113.96 1450.88L2111 1443.44H2100.28V1469.6H2123.08L2124.28 1460H2124.68V1472H2087.48V1471.6L2097.08 1470.4V1417.6L2087.48 1416.4V1416H2123.88V1428H2123.48L2122.28 1418.4H2100.28V1441.2H2111L2113.96 1433.76L2114.36 1433.84L2112.52 1442.08V1442.56L2114.36 1450.8L2113.96 1450.88ZM2206.48 1480.24L2176.24 1438L2176.48 1437.52L2181.04 1439.12H2182.16C2189.68 1439.12 2193.84 1434.64 2193.84 1428.8C2193.84 1422.8 2189.2 1418.4 2182.96 1418.4H2172.32V1470.4L2182.4 1471.6V1472H2159.52V1471.6L2169.12 1470.4V1417.6L2159.52 1416.4V1416H2183.6C2191.6 1416 2197.2 1421.2 2197.2 1428.64C2197.2 1435.84 2191.6 1441.12 2183.6 1441.12H2182.88L2207.12 1479.76L2206.48 1480.24ZM2255.38 1475.2L2236.82 1417.6L2227.14 1416.4V1416H2249.86V1416.4L2240.34 1417.6L2256.02 1467.2L2271.78 1417.6L2262.26 1416.4V1416H2284.18V1416.4L2274.5 1417.6L2255.78 1475.2H2255.38ZM2307.8 1472V1471.6L2317.4 1470.4V1417.6L2307.8 1416.4V1416H2330.2V1416.4L2320.6 1417.6V1470.4L2330.2 1471.6V1472H2307.8ZM2353.37 1472V1471.6L2363.13 1470.4L2381.77 1413.6H2382.17L2400.65 1470.4L2410.41 1471.6V1472H2387.69V1471.6L2397.21 1470.4L2391.85 1453.68H2371.21L2365.77 1470.4L2375.29 1471.6V1472H2353.37ZM2371.93 1451.28H2391.05L2381.53 1421.52L2371.93 1451.28ZM2480.38 1480.24L2450.94 1438.88L2468.14 1417.6L2458.86 1416.4V1416H2481.18V1416.4L2471.26 1417.6L2454.7 1437.92L2481.02 1479.76L2480.38 1480.24ZM2433.58 1472V1471.6L2443.18 1470.4V1417.6L2433.58 1416.4V1416H2455.98V1416.4L2446.38 1417.6V1470.4L2455.98 1471.6V1472H2433.58ZM2538.83 1473.6C2521.71 1473.6 2508.83 1460.72 2508.83 1443.6C2508.83 1426.48 2521.71 1413.6 2538.83 1413.6C2555.95 1413.6 2568.83 1426.48 2568.83 1443.6C2568.83 1460.72 2555.95 1473.6 2538.83 1473.6ZM2538.83 1471.2C2554.43 1471.2 2565.47 1459.76 2565.47 1443.6C2565.47 1427.44 2554.43 1416 2538.83 1416C2523.23 1416 2512.19 1427.44 2512.19 1443.6C2512.19 1459.76 2523.23 1471.2 2538.83 1471.2ZM2621.87 1475.2L2603.31 1417.6L2593.62 1416.4V1416H2616.35V1416.4L2606.83 1417.6L2622.51 1467.2L2638.27 1417.6L2628.75 1416.4V1416H2650.67V1416.4L2640.99 1417.6L2622.27 1475.2H2621.87Z" fill="#E3E1D3"/>
<path d="M1850.83 1594H1844.1V1572.18H1851.13C1853.24 1572.18 1855.06 1572.62 1856.56 1573.49C1858.07 1574.36 1859.22 1575.61 1860.02 1577.23C1860.83 1578.85 1861.23 1580.79 1861.23 1583.05C1861.23 1585.32 1860.82 1587.28 1860.01 1588.92C1859.2 1590.55 1858.02 1591.81 1856.48 1592.69C1854.93 1593.56 1853.05 1594 1850.83 1594ZM1846.74 1591.66H1850.66C1852.46 1591.66 1853.96 1591.31 1855.14 1590.61C1856.33 1589.92 1857.22 1588.93 1857.8 1587.64C1858.38 1586.35 1858.67 1584.82 1858.67 1583.05C1858.67 1581.29 1858.38 1579.77 1857.81 1578.5C1857.23 1577.22 1856.37 1576.24 1855.23 1575.56C1854.09 1574.87 1852.66 1574.53 1850.96 1574.53H1846.74V1591.66ZM1899.07 1583.09C1899.07 1585.39 1898.65 1587.38 1897.82 1589.06C1896.99 1590.73 1895.85 1592.03 1894.4 1592.93C1892.95 1593.84 1891.3 1594.3 1889.44 1594.3C1887.58 1594.3 1885.92 1593.84 1884.47 1592.93C1883.02 1592.03 1881.88 1590.73 1881.05 1589.06C1880.22 1587.38 1879.81 1585.39 1879.81 1583.09C1879.81 1580.79 1880.22 1578.8 1881.05 1577.12C1881.88 1575.45 1883.02 1574.16 1884.47 1573.25C1885.92 1572.34 1887.58 1571.88 1889.44 1571.88C1891.3 1571.88 1892.95 1572.34 1894.4 1573.25C1895.85 1574.16 1896.99 1575.45 1897.82 1577.12C1898.65 1578.8 1899.07 1580.79 1899.07 1583.09ZM1896.51 1583.09C1896.51 1581.2 1896.2 1579.61 1895.56 1578.31C1894.94 1577.01 1894.09 1576.02 1893.02 1575.36C1891.95 1574.69 1890.76 1574.36 1889.44 1574.36C1888.12 1574.36 1886.92 1574.69 1885.85 1575.36C1884.78 1576.02 1883.93 1577.01 1883.3 1578.31C1882.68 1579.61 1882.36 1581.2 1882.36 1583.09C1882.36 1584.98 1882.68 1586.57 1883.3 1587.87C1883.93 1589.17 1884.78 1590.16 1885.85 1590.83C1886.92 1591.49 1888.12 1591.83 1889.44 1591.83C1890.76 1591.83 1891.95 1591.49 1893.02 1590.83C1894.09 1590.16 1894.94 1589.17 1895.56 1587.87C1896.2 1586.57 1896.51 1584.98 1896.51 1583.09ZM1918.51 1594V1572.18H1921.15V1591.66H1931.3V1594H1918.51ZM1950.39 1594V1572.18H1953.03V1591.66H1963.17V1594H1950.39ZM1979.36 1572.18H1982.39L1988.44 1582.37H1988.69L1994.74 1572.18H1997.77L1989.89 1585.01V1594H1987.24V1585.01L1979.36 1572.18Z" fill="#E3E1D3"/>
<path d="M1363.89 1706.24L1334.45 1664.88L1351.65 1643.6L1342.37 1642.4V1642H1364.69V1642.4L1354.77 1643.6L1338.21 1663.92L1364.53 1705.76L1363.89 1706.24ZM1317.09 1698V1697.6L1326.69 1696.4V1643.6L1317.09 1642.4V1642H1339.49V1642.4L1329.89 1643.6V1696.4L1339.49 1697.6V1698H1317.09ZM1383.53 1698V1697.6L1393.29 1696.4L1411.93 1639.6H1412.33L1430.81 1696.4L1440.57 1697.6V1698H1417.85V1697.6L1427.37 1696.4L1422.01 1679.68H1401.37L1395.93 1696.4L1405.45 1697.6V1698H1383.53ZM1402.09 1677.28H1421.21L1411.69 1647.52L1402.09 1677.28ZM1482.85 1699.52C1474.69 1699.52 1466.53 1694.4 1466.53 1684.08L1476.61 1675.2L1476.85 1675.44L1469.89 1683.92C1469.89 1692.72 1476.37 1697.12 1482.85 1697.12C1490.37 1697.12 1495.97 1691.68 1495.97 1684.48C1495.97 1678.56 1492.61 1674 1486.45 1671.04L1479.09 1667.6C1471.09 1663.92 1467.81 1658.4 1467.81 1653.2C1467.81 1645.44 1474.29 1639.6 1482.85 1639.6C1490.37 1639.6 1497.41 1644.32 1497.73 1654L1489.01 1661.2L1488.77 1660.96L1494.77 1653.92C1494.37 1645.92 1488.69 1642 1482.85 1642C1475.89 1642 1470.69 1646.8 1470.69 1653.2C1470.69 1657.28 1473.33 1661.68 1480.21 1664.64L1487.65 1668C1495.09 1671.28 1499.25 1677.12 1499.25 1684.24C1499.25 1692.96 1492.21 1699.52 1482.85 1699.52ZM1560.61 1698V1697.6L1569.25 1696.4V1669.6H1546.85V1696.4L1555.49 1697.6V1698H1534.05V1697.6L1543.65 1696.4V1643.6L1534.05 1642.4V1642H1555.49V1642.4L1546.85 1643.6V1667.2H1569.25V1643.6L1560.61 1642.4V1642H1582.05V1642.4L1572.45 1643.6V1696.4L1582.05 1697.6V1698H1560.61ZM1614.05 1698V1697.6L1623.65 1696.4V1643.6L1614.05 1642.4V1642H1636.45V1642.4L1626.85 1643.6V1696.4L1636.45 1697.6V1698H1614.05ZM1706.82 1702L1680.02 1648.96V1696.4L1689.62 1697.6V1698H1668.02V1697.6L1677.62 1696.4V1638H1678.02L1704.82 1691.04V1643.6L1695.22 1642.4V1642H1716.82V1642.4L1707.22 1643.6V1702H1706.82ZM1789.2 1698V1697.6L1798.8 1696.4V1643.6L1789.2 1642.4V1642H1818C1834 1642 1846 1654 1846 1670C1846 1686 1834 1698 1818 1698H1789.2ZM1802 1695.6H1817.92C1832.48 1695.6 1842.8 1685.04 1842.8 1670C1842.8 1654.96 1832.48 1644.4 1817.92 1644.4H1802V1695.6ZM1909.61 1699.6C1892.49 1699.6 1879.61 1686.72 1879.61 1669.6C1879.61 1652.48 1892.49 1639.6 1909.61 1639.6C1926.73 1639.6 1939.61 1652.48 1939.61 1669.6C1939.61 1686.72 1926.73 1699.6 1909.61 1699.6ZM1909.61 1697.2C1925.21 1697.2 1936.25 1685.76 1936.25 1669.6C1936.25 1653.44 1925.21 1642 1909.61 1642C1894.01 1642 1882.97 1653.44 1882.97 1669.6C1882.97 1685.76 1894.01 1697.2 1909.61 1697.2ZM1972.41 1698V1697.6L1982.01 1696.4V1643.6L1972.41 1642.4V1642H1995.29V1642.4L1985.21 1643.6V1695.6H2007.53L2010.01 1686.16L2010.41 1686.24L2008.97 1696.56L2008.81 1698H1972.41ZM2042.41 1698V1697.6L2052.01 1696.4V1643.6L2042.41 1642.4V1642H2065.29V1642.4L2055.21 1643.6V1695.6H2077.53L2080.01 1686.16L2080.41 1686.24L2078.97 1696.56L2078.81 1698H2042.41ZM2115.94 1698V1697.6L2125.54 1696.4V1672.4L2112.18 1643.6L2102.42 1642.4V1642H2125.3V1642.4L2115.86 1643.6L2127.46 1669.2L2138.98 1643.6L2129.54 1642.4V1642H2151.62V1642.4L2141.86 1643.6L2128.74 1671.68V1696.4L2137.38 1697.6V1698H2115.94ZM2248.05 1699.6C2230.93 1699.6 2218.05 1686.72 2218.05 1669.6C2218.05 1652.48 2230.93 1639.6 2248.05 1639.6C2260.61 1639.6 2270.93 1646.56 2275.49 1657.04L2272.77 1662.08L2272.45 1662V1657.76C2268.53 1648.24 2259.49 1642 2248.05 1642C2232.45 1642 2221.41 1653.44 2221.41 1669.6C2221.41 1685.76 2232.45 1697.2 2248.05 1697.2C2262.29 1697.2 2272.77 1687.68 2274.45 1673.76L2247.97 1671.76V1671.36H2277.97C2277.09 1687.52 2264.53 1699.6 2248.05 1699.6ZM2301.57 1698V1697.6L2311.34 1696.4L2329.98 1639.6H2330.38L2348.86 1696.4L2358.62 1697.6V1698H2335.9V1697.6L2345.42 1696.4L2340.06 1679.68H2319.42L2313.98 1696.4L2323.5 1697.6V1698H2301.57ZM2320.14 1677.28H2339.26L2329.74 1647.52L2320.14 1677.28ZM2420.18 1702L2393.38 1648.96V1696.4L2402.98 1697.6V1698H2381.38V1697.6L2390.98 1696.4V1638H2391.38L2418.18 1691.04V1643.6L2408.58 1642.4V1642H2430.18V1642.4L2420.58 1643.6V1702H2420.18ZM2492.58 1699.6C2475.46 1699.6 2462.58 1686.72 2462.58 1669.6C2462.58 1652.48 2475.46 1639.6 2492.58 1639.6C2505.14 1639.6 2515.46 1646.56 2520.02 1657.04L2517.3 1662.08L2516.98 1662V1657.76C2513.06 1648.24 2504.02 1642 2492.58 1642C2476.98 1642 2465.94 1653.44 2465.94 1669.6C2465.94 1685.76 2476.98 1697.2 2492.58 1697.2C2506.82 1697.2 2517.3 1687.68 2518.98 1673.76L2492.5 1671.76V1671.36H2522.5C2521.62 1687.52 2509.06 1699.6 2492.58 1699.6Z" fill="#E3E1D3"/>
<path d="M1605.73 1805H1603.09C1602.93 1804.24 1602.66 1803.57 1602.27 1803C1601.89 1802.42 1601.42 1801.94 1600.86 1801.55C1600.32 1801.15 1599.71 1800.85 1599.04 1800.65C1598.37 1800.45 1597.68 1800.36 1596.95 1800.36C1595.63 1800.36 1594.43 1800.69 1593.36 1801.36C1592.3 1802.02 1591.45 1803.01 1590.82 1804.31C1590.19 1805.61 1589.88 1807.2 1589.88 1809.09C1589.88 1810.98 1590.19 1812.57 1590.82 1813.87C1591.45 1815.17 1592.3 1816.16 1593.36 1816.83C1594.43 1817.49 1595.63 1817.83 1596.95 1817.83C1597.68 1817.83 1598.37 1817.73 1599.04 1817.53C1599.71 1817.33 1600.32 1817.03 1600.86 1816.64C1601.42 1816.25 1601.89 1815.76 1602.27 1815.18C1602.66 1814.6 1602.93 1813.93 1603.09 1813.18H1605.73C1605.53 1814.3 1605.17 1815.29 1604.64 1816.18C1604.12 1817.06 1603.47 1817.81 1602.68 1818.42C1601.9 1819.03 1601.03 1819.5 1600.05 1819.82C1599.09 1820.14 1598.05 1820.3 1596.95 1820.3C1595.09 1820.3 1593.44 1819.84 1591.99 1818.93C1590.54 1818.03 1589.4 1816.73 1588.57 1815.06C1587.74 1813.38 1587.32 1811.39 1587.32 1809.09C1587.32 1806.79 1587.74 1804.8 1588.57 1803.12C1589.4 1801.45 1590.54 1800.16 1591.99 1799.25C1593.44 1798.34 1595.09 1797.88 1596.95 1797.88C1598.05 1797.88 1599.09 1798.04 1600.05 1798.36C1601.03 1798.68 1601.9 1799.15 1602.68 1799.77C1603.47 1800.38 1604.12 1801.13 1604.64 1802.01C1605.17 1802.88 1605.53 1803.88 1605.73 1805ZM1625.9 1820H1623.13L1631.14 1798.18H1633.86L1641.88 1820H1639.11L1632.59 1801.63H1632.42L1625.9 1820ZM1626.92 1811.48H1638.08V1813.82H1626.92V1811.48ZM1660.27 1798.18H1663.43L1670.84 1816.29H1671.1L1678.51 1798.18H1681.67V1820H1679.19V1803.42H1678.98L1672.16 1820H1669.78L1662.96 1803.42H1662.75V1820H1660.27V1798.18ZM1701.96 1820V1798.18H1715.13V1800.53H1704.61V1807.9H1714.45V1810.24H1704.61V1817.66H1715.3V1820H1701.96ZM1734.89 1820V1798.18H1742.27C1743.97 1798.18 1745.37 1798.47 1746.46 1799.06C1747.56 1799.63 1748.37 1800.42 1748.89 1801.43C1749.42 1802.44 1749.68 1803.59 1749.68 1804.87C1749.68 1806.16 1749.42 1807.3 1748.89 1808.29C1748.37 1809.29 1747.56 1810.07 1746.47 1810.64C1745.39 1811.2 1744 1811.48 1742.31 1811.48H1736.34V1809.09H1742.22C1743.39 1809.09 1744.32 1808.92 1745.04 1808.58C1745.75 1808.24 1746.27 1807.76 1746.59 1807.13C1746.92 1806.5 1747.08 1805.75 1747.08 1804.87C1747.08 1804 1746.92 1803.24 1746.59 1802.58C1746.26 1801.93 1745.74 1801.42 1745.02 1801.07C1744.31 1800.71 1743.36 1800.53 1742.18 1800.53H1737.54V1820H1734.89ZM1745.16 1810.2L1750.53 1820H1747.46L1742.18 1810.2H1745.16ZM1769.98 1820H1767.21L1775.22 1798.18H1777.95L1785.96 1820H1783.19L1776.67 1801.63H1776.5L1769.98 1820ZM1771 1811.48H1782.16V1813.82H1771V1811.48ZM1828.69 1820H1825.92L1833.93 1798.18H1836.66L1844.67 1820H1841.9L1835.38 1801.63H1835.21L1828.69 1820ZM1829.71 1811.48H1840.88V1813.82H1829.71V1811.48ZM1880.37 1798.18V1820H1877.81L1865.92 1802.87H1865.71V1820H1863.07V1798.18H1865.62L1877.56 1815.36H1877.77V1798.18H1880.37ZM1907.39 1820H1900.65V1798.18H1907.69C1909.8 1798.18 1911.61 1798.62 1913.12 1799.49C1914.62 1800.36 1915.78 1801.61 1916.58 1803.23C1917.38 1804.85 1917.79 1806.79 1917.79 1809.05C1917.79 1811.32 1917.38 1813.28 1916.57 1814.92C1915.76 1816.55 1914.58 1817.81 1913.03 1818.69C1911.49 1819.56 1909.6 1820 1907.39 1820ZM1903.3 1817.66H1907.22C1909.02 1817.66 1910.52 1817.31 1911.7 1816.61C1912.89 1815.92 1913.77 1814.93 1914.36 1813.64C1914.94 1812.35 1915.23 1810.82 1915.23 1809.05C1915.23 1807.29 1914.94 1805.77 1914.37 1804.5C1913.79 1803.22 1912.93 1802.24 1911.79 1801.56C1910.64 1800.87 1909.22 1800.53 1907.52 1800.53H1903.3V1817.66ZM1960.65 1820V1798.18H1973.82V1800.53H1963.3V1807.9H1973.14V1810.24H1963.3V1817.66H1973.99V1820H1960.65ZM2001.51 1813.18H2004.41L2006.84 1816.38L2007.48 1817.23L2011.1 1822.05H2008.2L2005.81 1818.85L2005.22 1818.04L2001.51 1813.18ZM2011.99 1809.09C2011.99 1811.39 2011.58 1813.38 2010.75 1815.06C2009.92 1816.73 2008.78 1818.03 2007.33 1818.93C2005.88 1819.84 2004.22 1820.3 2002.36 1820.3C2000.5 1820.3 1998.85 1819.84 1997.4 1818.93C1995.95 1818.03 1994.81 1816.73 1993.98 1815.06C1993.15 1813.38 1992.73 1811.39 1992.73 1809.09C1992.73 1806.79 1993.15 1804.8 1993.98 1803.12C1994.81 1801.45 1995.95 1800.16 1997.4 1799.25C1998.85 1798.34 2000.5 1797.88 2002.36 1797.88C2004.22 1797.88 2005.88 1798.34 2007.33 1799.25C2008.78 1800.16 2009.92 1801.45 2010.75 1803.12C2011.58 1804.8 2011.99 1806.79 2011.99 1809.09ZM2009.44 1809.09C2009.44 1807.2 2009.12 1805.61 2008.49 1804.31C2007.86 1803.01 2007.01 1802.02 2005.94 1801.36C2004.88 1800.69 2003.68 1800.36 2002.36 1800.36C2001.04 1800.36 1999.85 1800.69 1998.77 1801.36C1997.71 1802.02 1996.86 1803.01 1996.23 1804.31C1995.6 1805.61 1995.29 1807.2 1995.29 1809.09C1995.29 1810.98 1995.6 1812.57 1996.23 1813.87C1996.86 1815.17 1997.71 1816.16 1998.77 1816.83C1999.85 1817.49 2001.04 1817.83 2002.36 1817.83C2003.68 1817.83 2004.88 1817.49 2005.94 1816.83C2007.01 1816.16 2007.86 1815.17 2008.49 1813.87C2009.12 1812.57 2009.44 1810.98 2009.44 1809.09ZM2045.75 1798.18H2048.4V1812.63C2048.4 1814.12 2048.04 1815.45 2047.34 1816.62C2046.65 1817.79 2045.66 1818.71 2044.39 1819.38C2043.12 1820.05 2041.63 1820.38 2039.92 1820.38C2038.2 1820.38 2036.71 1820.05 2035.44 1819.38C2034.17 1818.71 2033.18 1817.79 2032.48 1816.62C2031.78 1815.45 2031.44 1814.12 2031.44 1812.63V1798.18H2034.08V1812.41C2034.08 1813.48 2034.31 1814.43 2034.78 1815.26C2035.25 1816.08 2035.92 1816.73 2036.78 1817.21C2037.66 1817.68 2038.7 1817.91 2039.92 1817.91C2041.13 1817.91 2042.17 1817.68 2043.05 1817.21C2043.92 1816.73 2044.59 1816.08 2045.05 1815.26C2045.52 1814.43 2045.75 1813.48 2045.75 1812.41V1798.18ZM2071.31 1798.18V1820H2068.67V1798.18H2071.31ZM2091.61 1820V1798.18H2098.98C2100.7 1798.18 2102.09 1798.49 2103.18 1799.11C2104.28 1799.72 2105.08 1800.55 2105.61 1801.59C2106.14 1802.63 2106.4 1803.8 2106.4 1805.09C2106.4 1806.37 2106.14 1807.54 2105.61 1808.59C2105.09 1809.64 2104.29 1810.48 2103.2 1811.1C2102.12 1811.72 2100.72 1812.03 2099.03 1812.03H2093.74V1809.69H2098.94C2100.11 1809.69 2101.05 1809.49 2101.76 1809.08C2102.47 1808.68 2102.99 1808.13 2103.31 1807.44C2103.64 1806.74 2103.8 1805.96 2103.8 1805.09C2103.8 1804.21 2103.64 1803.43 2103.31 1802.74C2102.99 1802.05 2102.47 1801.51 2101.75 1801.12C2101.04 1800.72 2100.08 1800.53 2098.9 1800.53H2094.25V1820H2091.61ZM2125.65 1798.18H2128.81L2136.22 1816.29H2136.48L2143.89 1798.18H2147.05V1820H2144.58V1803.42H2144.36L2137.54 1820H2135.16L2128.34 1803.42H2128.13V1820H2125.65V1798.18ZM2167.34 1820V1798.18H2180.51V1800.53H2169.99V1807.9H2179.83V1810.24H2169.99V1817.66H2180.68V1820H2167.34ZM2217.58 1798.18V1820H2215.02L2203.13 1802.87H2202.92V1820H2200.27V1798.18H2202.83L2214.76 1815.36H2214.98V1798.18H2217.58ZM2236.67 1800.53V1798.18H2253.03V1800.53H2246.17V1820H2243.53V1800.53H2236.67Z" fill="#E3E1D3"/>
<path d="M1032.68 1932.24L1003.24 1890.88L1020.44 1869.6L1011.16 1868.4V1868H1033.48V1868.4L1023.56 1869.6L1007 1889.92L1033.32 1931.76L1032.68 1932.24ZM985.883 1924V1923.6L995.483 1922.4V1869.6L985.883 1868.4V1868H1008.28V1868.4L998.683 1869.6V1922.4L1008.28 1923.6V1924H985.883ZM1061.12 1924V1923.6L1070.72 1922.4V1869.6L1061.12 1868.4V1868H1083.52V1868.4L1073.92 1869.6V1922.4L1083.52 1923.6V1924H1061.12ZM1153.89 1928L1127.09 1874.96V1922.4L1136.69 1923.6V1924H1115.09V1923.6L1124.69 1922.4V1864H1125.09L1151.89 1917.04V1869.6L1142.29 1868.4V1868H1163.89V1868.4L1154.29 1869.6V1928H1153.89ZM1226.29 1925.6C1209.17 1925.6 1196.29 1912.72 1196.29 1895.6C1196.29 1878.48 1209.17 1865.6 1226.29 1865.6C1243.41 1865.6 1256.29 1878.48 1256.29 1895.6C1256.29 1912.72 1243.41 1925.6 1226.29 1925.6ZM1226.29 1923.2C1241.89 1923.2 1252.93 1911.76 1252.93 1895.6C1252.93 1879.44 1241.89 1868 1226.29 1868C1210.69 1868 1199.65 1879.44 1199.65 1895.6C1199.65 1911.76 1210.69 1923.2 1226.29 1923.2ZM1306.64 1925.52C1298.48 1925.52 1290.32 1920.4 1290.32 1910.08L1300.4 1901.2L1300.64 1901.44L1293.68 1909.92C1293.68 1918.72 1300.16 1923.12 1306.64 1923.12C1314.16 1923.12 1319.76 1917.68 1319.76 1910.48C1319.76 1904.56 1316.4 1900 1310.24 1897.04L1302.88 1893.6C1294.88 1889.92 1291.6 1884.4 1291.6 1879.2C1291.6 1871.44 1298.08 1865.6 1306.64 1865.6C1314.16 1865.6 1321.2 1870.32 1321.52 1880L1312.8 1887.2L1312.56 1886.96L1318.56 1879.92C1318.16 1871.92 1312.48 1868 1306.64 1868C1299.68 1868 1294.48 1872.8 1294.48 1879.2C1294.48 1883.28 1297.12 1887.68 1304 1890.64L1311.44 1894C1318.88 1897.28 1323.04 1903.12 1323.04 1910.24C1323.04 1918.96 1316 1925.52 1306.64 1925.52ZM1381.36 1925.6C1374.16 1925.6 1367.04 1920.4 1367.04 1909.92V1869.6L1357.44 1868.4V1868H1378.88V1868.4L1370.24 1869.6V1909.6C1370.24 1917.36 1375.04 1922.8 1381.84 1922.8C1388.64 1922.8 1393.44 1917.44 1393.44 1909.92V1869.6L1384.8 1868.4V1868H1405.44V1868.4L1395.84 1869.6V1909.6C1395.84 1920.32 1388.56 1925.6 1381.36 1925.6ZM1484.01 1932.24L1453.77 1890L1454.01 1889.52L1458.57 1891.12H1459.69C1467.21 1891.12 1471.37 1886.64 1471.37 1880.8C1471.37 1874.8 1466.73 1870.4 1460.49 1870.4H1449.85V1922.4L1459.93 1923.6V1924H1437.05V1923.6L1446.65 1922.4V1869.6L1437.05 1868.4V1868H1461.13C1469.13 1868 1474.73 1873.2 1474.73 1880.64C1474.73 1887.84 1469.13 1893.12 1461.13 1893.12H1460.41L1484.65 1931.76L1484.01 1932.24ZM1539.16 1903.68L1536.28 1896.24H1525.48V1922.4L1535.56 1923.6V1924H1512.68V1923.6L1522.28 1922.4V1869.6L1512.68 1868.4V1868H1549.08V1880H1548.68L1547.48 1870.4H1525.48V1894H1536.28L1539.16 1886.56L1539.56 1886.64L1537.72 1894.88V1895.36L1539.56 1903.6L1539.16 1903.68ZM1654.11 1876.8L1644.67 1886.32L1644.43 1886.08L1651.15 1876.72C1651.15 1871.44 1647.47 1868 1641.87 1868C1636.83 1868 1633.31 1871.6 1633.31 1876.8C1633.31 1880.4 1634.43 1883.12 1637.87 1887.68L1657.87 1914.16C1659.47 1911.12 1660.35 1907.44 1660.35 1903.36C1660.35 1899.36 1659.31 1895.52 1657.47 1892.32L1653.07 1890.56V1890.24H1659.79C1662.19 1893.84 1663.55 1898.32 1663.55 1903.36C1663.55 1908.48 1662.19 1913.04 1659.79 1916.64L1665.31 1924H1661.31L1657.71 1919.2C1653.95 1923.28 1648.75 1925.6 1642.67 1925.6C1632.51 1925.6 1625.07 1918.64 1625.07 1909.04C1625.07 1904.72 1626.91 1900.88 1631.15 1896.48L1636.43 1891.04L1635.31 1889.6C1632.27 1885.52 1630.11 1881.76 1630.11 1876.8C1630.11 1870.16 1634.99 1865.6 1642.11 1865.6C1649.23 1865.6 1654.11 1870.16 1654.11 1876.8ZM1628.27 1909.04C1628.27 1917.2 1634.35 1923.2 1642.67 1923.2C1648.27 1923.2 1652.91 1920.88 1656.03 1917.04L1637.87 1892.96L1632.99 1898.08C1629.47 1901.76 1628.27 1904.56 1628.27 1909.04ZM1765.8 1902.88L1762.84 1895.44H1752.12V1921.6H1774.92L1776.12 1912H1776.52V1924H1739.32V1923.6L1748.92 1922.4V1869.6L1739.32 1868.4V1868H1775.72V1880H1775.32L1774.12 1870.4H1752.12V1893.2H1762.84L1765.8 1885.76L1766.2 1885.84L1764.36 1894.08V1894.56L1766.2 1902.8L1765.8 1902.88ZM1811.35 1924V1923.6L1820.95 1922.4V1869.6L1811.35 1868.4V1868H1834.23V1868.4L1824.15 1869.6V1921.6H1846.47L1848.95 1912.16L1849.35 1912.24L1847.91 1922.56L1847.75 1924H1811.35ZM1881.35 1924V1923.6L1890.95 1922.4V1869.6L1881.35 1868.4V1868H1903.75V1868.4L1894.15 1869.6V1922.4L1903.75 1923.6V1924H1881.35ZM1954.85 1925.52C1946.69 1925.52 1938.53 1920.4 1938.53 1910.08L1948.61 1901.2L1948.85 1901.44L1941.89 1909.92C1941.89 1918.72 1948.37 1923.12 1954.85 1923.12C1962.37 1923.12 1967.97 1917.68 1967.97 1910.48C1967.97 1904.56 1964.61 1900 1958.45 1897.04L1951.09 1893.6C1943.09 1889.92 1939.81 1884.4 1939.81 1879.2C1939.81 1871.44 1946.29 1865.6 1954.85 1865.6C1962.37 1865.6 1969.41 1870.32 1969.73 1880L1961.01 1887.2L1960.77 1886.96L1966.77 1879.92C1966.37 1871.92 1960.69 1868 1954.85 1868C1947.89 1868 1942.69 1872.8 1942.69 1879.2C1942.69 1883.28 1945.33 1887.68 1952.21 1890.64L1959.65 1894C1967.09 1897.28 1971.25 1903.12 1971.25 1910.24C1971.25 1918.96 1964.21 1925.52 1954.85 1925.52ZM2032.52 1902.88L2029.56 1895.44H2018.84V1921.6H2041.64L2042.84 1912H2043.24V1924H2006.04V1923.6L2015.64 1922.4V1869.6L2006.04 1868.4V1868H2042.44V1880H2042.04L2040.84 1870.4H2018.84V1893.2H2029.56L2032.52 1885.76L2032.92 1885.84L2031.08 1894.08V1894.56L2032.92 1902.8L2032.52 1902.88ZM2085.59 1924V1923.6L2095.19 1922.4V1898.4L2081.83 1869.6L2072.07 1868.4V1868H2094.95V1868.4L2085.51 1869.6L2097.11 1895.2L2108.63 1869.6L2099.19 1868.4V1868H2121.27V1868.4L2111.51 1869.6L2098.39 1897.68V1922.4L2107.03 1923.6V1924H2085.59ZM2217.7 1925.6C2200.58 1925.6 2187.7 1912.72 2187.7 1895.6C2187.7 1878.48 2200.58 1865.6 2217.7 1865.6C2230.26 1865.6 2240.58 1872.56 2245.14 1883.04L2242.42 1888.08L2242.1 1888V1883.76C2238.18 1874.24 2229.14 1868 2217.7 1868C2202.1 1868 2191.06 1879.44 2191.06 1895.6C2191.06 1911.76 2202.1 1923.2 2217.7 1923.2C2231.94 1923.2 2242.42 1913.68 2244.1 1899.76L2217.62 1897.76V1897.36H2247.62C2246.74 1913.52 2234.18 1925.6 2217.7 1925.6ZM2280.02 1924V1923.6L2289.62 1922.4V1869.6L2280.02 1868.4V1868H2302.9V1868.4L2292.82 1869.6V1921.6H2315.14L2317.62 1912.16L2318.02 1912.24L2316.58 1922.56L2316.42 1924H2280.02ZM2341.22 1924V1923.6L2350.98 1922.4L2369.62 1865.6H2370.02L2388.5 1922.4L2398.26 1923.6V1924H2375.54V1923.6L2385.06 1922.4L2379.7 1905.68H2359.06L2353.62 1922.4L2363.14 1923.6V1924H2341.22ZM2359.78 1903.28H2378.9L2369.38 1873.52L2359.78 1903.28ZM2421.43 1924V1923.6L2431.03 1922.4V1869.6L2421.43 1868.4V1868H2450.23C2466.23 1868 2478.23 1880 2478.23 1896C2478.23 1912 2466.23 1924 2450.23 1924H2421.43ZM2434.23 1921.6H2450.15C2464.71 1921.6 2475.03 1911.04 2475.03 1896C2475.03 1880.96 2464.71 1870.4 2450.15 1870.4H2434.23V1921.6ZM2549.44 1928L2522.64 1874.96V1922.4L2532.24 1923.6V1924H2510.64V1923.6L2520.24 1922.4V1864H2520.64L2547.44 1917.04V1869.6L2537.84 1868.4V1868H2559.44V1868.4L2549.84 1869.6V1928H2549.44ZM2591.04 1924V1923.6L2600.64 1922.4V1869.6L2591.04 1868.4V1868H2613.44V1868.4L2603.84 1869.6V1922.4L2613.44 1923.6V1924H2591.04ZM2692.21 1932.24L2662.77 1890.88L2679.97 1869.6L2670.69 1868.4V1868H2693.01V1868.4L2683.09 1869.6L2666.53 1889.92L2692.85 1931.76L2692.21 1932.24ZM2645.41 1924V1923.6L2655.01 1922.4V1869.6L2645.41 1868.4V1868H2667.81V1868.4L2658.21 1869.6V1922.4L2667.81 1923.6V1924H2645.41ZM2750.67 1925.6C2733.55 1925.6 2720.67 1912.72 2720.67 1895.6C2720.67 1878.48 2733.55 1865.6 2750.67 1865.6C2767.79 1865.6 2780.67 1878.48 2780.67 1895.6C2780.67 1912.72 2767.79 1925.6 2750.67 1925.6ZM2750.67 1923.2C2766.27 1923.2 2777.31 1911.76 2777.31 1895.6C2777.31 1879.44 2766.27 1868 2750.67 1868C2735.07 1868 2724.03 1879.44 2724.03 1895.6C2724.03 1911.76 2735.07 1923.2 2750.67 1923.2ZM2833.7 1927.2L2815.14 1869.6L2805.46 1868.4V1868H2828.18V1868.4L2818.66 1869.6L2834.34 1919.2L2850.1 1869.6L2840.58 1868.4V1868H2862.5V1868.4L2852.82 1869.6L2834.1 1927.2H2833.7Z" fill="#E3E1D3"/>
</svg>
