<svg width="3840" height="2160" viewBox="0 0 3840 2160" fill="none" xmlns="http://www.w3.org/2000/svg">
<rect width="3840" height="2160" fill="black"/>
<path d="M2631.67 1266V1263.3L2696.47 1255.2V898.8L2631.67 890.7V888H2782.87V890.7L2718.07 898.8V1249.8H2739.67C2792.05 1249.8 2826.07 1210.38 2826.07 1153.14C2826.07 1098.6 2794.21 1061.34 2750.47 1053.24V1048.38L2931.37 861H2934.07V1255.2L2998.87 1263.3V1266H2854.15V1263.3L2912.47 1255.2V902.58L2768.29 1045.14C2817.43 1056.48 2848.75 1097.52 2848.75 1153.14C2848.75 1217.4 2806.63 1266 2741.29 1266H2631.67Z" fill="#E3E1D3"/>
<path d="M2305.4 1248.18C2186.06 1248.18 2104.52 1176.9 2104.52 1072.68C2104.52 968.46 2186.06 897.18 2305.4 897.18H2312.42V875.04L2236.82 837.78L2238.44 834L2321.6 861H2324.84L2408 834L2409.62 837.78L2334.02 875.04V897.18H2341.58C2460.92 897.18 2542.46 968.46 2542.46 1072.68C2542.46 1176.9 2460.92 1248.18 2341.58 1248.18H2334.02V1284.36L2409.62 1321.62L2408 1325.4L2324.84 1298.4H2321.6L2238.44 1325.4L2236.82 1321.62L2312.42 1284.36V1248.18H2305.4ZM2339.96 1237.38C2446.34 1237.38 2519.78 1170.42 2519.78 1073.22C2519.78 975.48 2446.34 907.98 2339.96 907.98H2334.02V1237.38H2339.96ZM2127.2 1073.22C2127.2 1170.42 2200.64 1237.38 2307.02 1237.38H2312.42V907.98H2307.02C2200.64 907.98 2127.2 975.48 2127.2 1073.22Z" fill="#E3E1D3"/>
<path d="M1833.52 1287.6L1729.3 963.06V1255.2L1787.62 1263.3V1266H1648.3V1263.3L1713.1 1255.2V861H1716.88L1836.76 1234.14L1957.72 861H1961.5V1255.2L2026.3 1263.3V1266H1881.58V1263.3L1939.9 1255.2V968.46L1836.22 1287.6H1833.52Z" fill="#E3E1D3"/>
<path d="M1308.1 1293V898.8L1243.3 890.7V888H1394.5V890.7L1329.7 898.8V1217.94L1505.2 861H1507.9V1255.2L1572.7 1263.3V1266H1421.5V1263.3L1486.3 1255.2V936.06L1310.8 1293H1308.1Z" fill="#E3E1D3"/>
<path d="M1020.28 1266V1263.3L1078.6 1255.2V1074.3H927.4V1255.2L985.72 1263.3V1266H841V1263.3L905.8 1255.2V898.8L841 890.7V888H985.72V890.7L927.4 898.8V1058.1H1078.6V898.8L1020.28 890.7V888H1165V890.7L1100.2 898.8V1255.2L1165 1263.3V1266H1020.28Z" fill="#E3E1D3"/>
<path d="M2236.48 1680.2L2217.92 1622.6L2208.24 1621.4V1621H2230.96V1621.4L2221.44 1622.6L2237.12 1672.2L2252.88 1622.6L2243.36 1621.4V1621H2265.28V1621.4L2255.6 1622.6L2236.88 1680.2H2236.48Z" fill="#E3E1D3"/>
<path d="M2153.45 1678.6C2136.33 1678.6 2123.45 1665.72 2123.45 1648.6C2123.45 1631.48 2136.33 1618.6 2153.45 1618.6C2170.57 1618.6 2183.45 1631.48 2183.45 1648.6C2183.45 1665.72 2170.57 1678.6 2153.45 1678.6ZM2153.45 1676.2C2169.05 1676.2 2180.09 1664.76 2180.09 1648.6C2180.09 1632.44 2169.05 1621 2153.45 1621C2137.85 1621 2126.81 1632.44 2126.81 1648.6C2126.81 1664.76 2137.85 1676.2 2153.45 1676.2Z" fill="#E3E1D3"/>
<path d="M2081.05 1681L2054.25 1627.96V1675.4L2063.85 1676.6V1677H2042.25V1676.6L2051.85 1675.4V1617H2052.25L2079.05 1670.04V1622.6L2069.45 1621.4V1621H2091.05V1621.4L2081.45 1622.6V1681H2081.05Z" fill="#E3E1D3"/>
<path d="M1988.27 1677V1676.6L1997.87 1675.4V1622.6L1988.27 1621.4V1621H2010.67V1621.4L2001.07 1622.6V1675.4L2010.67 1676.6V1677H1988.27Z" fill="#E3E1D3"/>
<path d="M1928.13 1680.2L1912.69 1632.12V1675.4L1921.33 1676.6V1677H1900.69V1676.6L1910.29 1675.4V1617H1910.85L1928.61 1672.28L1946.53 1617H1947.09V1675.4L1956.69 1676.6V1677H1935.25V1676.6L1943.89 1675.4V1632.92L1928.53 1680.2H1928.13Z" fill="#E3E1D3"/>
<path d="M1820.88 1677V1676.6L1830.64 1675.4L1849.28 1618.6H1849.68L1868.16 1675.4L1877.92 1676.6V1677H1855.2V1676.6L1864.72 1675.4L1859.36 1658.68H1838.72L1833.28 1675.4L1842.8 1676.6V1677H1820.88ZM1839.44 1656.28H1858.56L1849.04 1626.52L1839.44 1656.28Z" fill="#E3E1D3"/>
<path d="M1729.92 1680.2L1714.48 1632.12V1675.4L1723.12 1676.6V1677H1702.48V1676.6L1712.08 1675.4V1617H1712.64L1730.4 1672.28L1748.32 1617H1748.88V1675.4L1758.48 1676.6V1677H1737.04V1676.6L1745.68 1675.4V1632.92L1730.32 1680.2H1729.92Z" fill="#E3E1D3"/>
<path d="M1648.51 1677V1676.6L1658.11 1675.4V1622.6L1648.51 1621.4V1621H1670.91V1621.4L1661.31 1622.6V1675.4L1670.91 1676.6V1677H1648.51Z" fill="#E3E1D3"/>
<path d="M1588.02 1677V1676.6L1597.62 1675.4V1623.4H1582.98L1580.5 1632.84L1580.1 1632.76L1581.54 1622.44L1581.7 1621H1616.9L1617.06 1622.44L1618.5 1632.76L1618.1 1632.84L1615.62 1623.4H1600.82V1675.4L1609.46 1676.6V1677H1588.02Z" fill="#E3E1D3"/>
</svg>
