<svg width="3840" height="2160" viewBox="0 0 3840 2160" fill="none" xmlns="http://www.w3.org/2000/svg">
<rect width="3840" height="2160" fill="black"/>
<path d="M1709.84 416.636C1709.71 415.557 1709.19 414.719 1708.28 414.122C1707.37 413.526 1706.26 413.227 1704.94 413.227C1703.97 413.227 1703.13 413.384 1702.4 413.696C1701.68 414.009 1701.12 414.438 1700.72 414.985C1700.32 415.532 1700.12 416.153 1700.12 416.849C1700.12 417.432 1700.26 417.933 1700.54 418.352C1700.82 418.763 1701.18 419.108 1701.62 419.385C1702.06 419.655 1702.53 419.879 1703.01 420.056C1703.49 420.227 1703.94 420.365 1704.34 420.472L1706.56 421.068C1707.12 421.217 1707.76 421.423 1708.45 421.686C1709.16 421.949 1709.83 422.308 1710.47 422.762C1711.11 423.21 1711.65 423.785 1712.06 424.488C1712.48 425.191 1712.69 426.054 1712.69 427.077C1712.69 428.256 1712.38 429.321 1711.77 430.273C1711.16 431.224 1710.26 431.981 1709.08 432.542C1707.91 433.103 1706.49 433.384 1704.81 433.384C1703.25 433.384 1701.89 433.131 1700.75 432.627C1699.61 432.123 1698.72 431.42 1698.07 430.518C1697.42 429.616 1697.05 428.568 1696.97 427.375H1699.7C1699.77 428.199 1700.04 428.881 1700.53 429.42C1701.02 429.953 1701.63 430.351 1702.38 430.614C1703.13 430.869 1703.94 430.997 1704.81 430.997C1705.82 430.997 1706.72 430.834 1707.53 430.507C1708.33 430.173 1708.96 429.712 1709.43 429.122C1709.9 428.526 1710.14 427.83 1710.14 427.034C1710.14 426.31 1709.93 425.72 1709.53 425.266C1709.12 424.811 1708.59 424.442 1707.93 424.158C1707.27 423.874 1706.56 423.625 1705.79 423.412L1703.1 422.645C1701.4 422.155 1700.05 421.455 1699.06 420.546C1698.06 419.637 1697.56 418.447 1697.56 416.977C1697.56 415.756 1697.9 414.69 1698.56 413.781C1699.22 412.865 1700.12 412.155 1701.24 411.651C1702.37 411.139 1703.63 410.884 1705.02 410.884C1706.43 410.884 1707.68 411.136 1708.77 411.64C1709.87 412.137 1710.73 412.819 1711.37 413.685C1712.02 414.552 1712.36 415.536 1712.39 416.636H1709.84ZM1732.04 433V411.182H1739.41C1741.12 411.182 1742.52 411.491 1743.61 412.109C1744.7 412.719 1745.51 413.547 1746.04 414.591C1746.56 415.635 1746.82 416.8 1746.82 418.085C1746.82 419.371 1746.56 420.539 1746.04 421.59C1745.52 422.641 1744.71 423.479 1743.63 424.104C1742.54 424.722 1741.15 425.031 1739.45 425.031H1734.17V422.688H1739.37C1740.54 422.688 1741.48 422.485 1742.19 422.08C1742.9 421.675 1743.41 421.129 1743.73 420.44C1744.06 419.744 1744.22 418.959 1744.22 418.085C1744.22 417.212 1744.06 416.43 1743.73 415.741C1743.41 415.053 1742.9 414.513 1742.18 414.122C1741.46 413.724 1740.51 413.526 1739.32 413.526H1734.68V433H1732.04ZM1766.08 433V411.182H1779.25V413.526H1768.72V420.898H1778.57V423.241H1768.72V430.656H1779.42V433H1766.08ZM1816.57 418H1813.92C1813.77 417.24 1813.49 416.572 1813.1 415.997C1812.72 415.422 1812.25 414.939 1811.7 414.548C1811.15 414.151 1810.54 413.852 1809.88 413.653C1809.21 413.455 1808.51 413.355 1807.79 413.355C1806.47 413.355 1805.27 413.689 1804.2 414.357C1803.13 415.024 1802.28 416.008 1801.65 417.308C1801.03 418.607 1800.71 420.202 1800.71 422.091C1800.71 423.98 1801.03 425.575 1801.65 426.874C1802.28 428.174 1803.13 429.158 1804.2 429.825C1805.27 430.493 1806.47 430.827 1807.79 430.827C1808.51 430.827 1809.21 430.727 1809.88 430.528C1810.54 430.33 1811.15 430.035 1811.7 429.644C1812.25 429.246 1812.72 428.76 1813.1 428.185C1813.49 427.602 1813.77 426.935 1813.92 426.182H1816.57C1816.37 427.297 1816 428.295 1815.48 429.175C1814.95 430.056 1814.3 430.805 1813.52 431.423C1812.74 432.034 1811.86 432.499 1810.89 432.819C1809.92 433.138 1808.89 433.298 1807.79 433.298C1805.93 433.298 1804.27 432.844 1802.82 431.935C1801.37 431.026 1800.23 429.733 1799.4 428.057C1798.57 426.381 1798.16 424.392 1798.16 422.091C1798.16 419.79 1798.57 417.801 1799.4 416.125C1800.23 414.449 1801.37 413.156 1802.82 412.247C1804.27 411.338 1805.93 410.884 1807.79 410.884C1808.89 410.884 1809.92 411.043 1810.89 411.363C1811.86 411.683 1812.74 412.151 1813.52 412.769C1814.3 413.38 1814.95 414.126 1815.48 415.006C1816 415.88 1816.37 416.878 1816.57 418ZM1838.48 411.182V433H1835.84V411.182H1838.48ZM1859.67 433H1856.9L1864.91 411.182H1867.64L1875.65 433H1872.88L1866.36 414.634H1866.19L1859.67 433ZM1860.69 424.477H1871.86V426.821H1860.69V424.477ZM1894.05 433V411.182H1896.69V430.656H1906.83V433H1894.05ZM1948.17 413.526V411.182H1964.53V413.526H1957.67V433H1955.03V413.526H1948.17ZM1983.61 433V411.182H1986.25V420.898H1997.88V411.182H2000.53V433H1997.88V423.241H1986.25V433H1983.61ZM2021.71 433H2018.94L2026.95 411.182H2029.68L2037.69 433H2034.92L2028.4 414.634H2028.23L2021.71 433ZM2022.73 424.477H2033.9V426.821H2022.73V424.477ZM2073.39 411.182V433H2070.83L2058.94 415.869H2058.73V433H2056.09V411.182H2058.65L2070.58 428.355H2070.79V411.182H2073.39ZM2093.68 433V411.182H2096.32V422.006H2096.57L2106.38 411.182H2109.83L2100.67 421.026L2109.83 433H2106.63L2099.05 422.858L2096.32 425.926V433H2093.68ZM2140.18 416.636C2140.05 415.557 2139.53 414.719 2138.62 414.122C2137.71 413.526 2136.6 413.227 2135.28 413.227C2134.31 413.227 2133.47 413.384 2132.74 413.696C2132.03 414.009 2131.46 414.438 2131.06 414.985C2130.66 415.532 2130.46 416.153 2130.46 416.849C2130.46 417.432 2130.6 417.933 2130.88 418.352C2131.16 418.763 2131.53 419.108 2131.97 419.385C2132.41 419.655 2132.87 419.879 2133.35 420.056C2133.83 420.227 2134.28 420.365 2134.68 420.472L2136.9 421.068C2137.47 421.217 2138.1 421.423 2138.79 421.686C2139.5 421.949 2140.17 422.308 2140.81 422.762C2141.45 423.21 2141.99 423.785 2142.41 424.488C2142.82 425.191 2143.03 426.054 2143.03 427.077C2143.03 428.256 2142.73 429.321 2142.11 430.273C2141.5 431.224 2140.6 431.981 2139.42 432.542C2138.25 433.103 2136.83 433.384 2135.15 433.384C2133.59 433.384 2132.24 433.131 2131.09 432.627C2129.96 432.123 2129.06 431.42 2128.41 430.518C2127.76 429.616 2127.4 428.568 2127.31 427.375H2130.04C2130.11 428.199 2130.39 428.881 2130.87 429.42C2131.36 429.953 2131.98 430.351 2132.72 430.614C2133.47 430.869 2134.28 430.997 2135.15 430.997C2136.16 430.997 2137.06 430.834 2137.87 430.507C2138.67 430.173 2139.31 429.712 2139.77 429.122C2140.24 428.526 2140.48 427.83 2140.48 427.034C2140.48 426.31 2140.28 425.72 2139.87 425.266C2139.47 424.811 2138.93 424.442 2138.27 424.158C2137.61 423.874 2136.9 423.625 2136.13 423.412L2133.45 422.645C2131.74 422.155 2130.39 421.455 2129.4 420.546C2128.4 419.637 2127.91 418.447 2127.91 416.977C2127.91 415.756 2128.24 414.69 2128.9 413.781C2129.56 412.865 2130.46 412.155 2131.58 411.651C2132.71 411.139 2133.97 410.884 2135.36 410.884C2136.77 410.884 2138.02 411.136 2139.11 411.64C2140.21 412.137 2141.07 412.819 2141.71 413.685C2142.36 414.552 2142.7 415.536 2142.74 416.636H2140.18Z" fill="#E3E1D3"/>
<path d="M1064.86 556.68L1061.98 549.24H1051.18V575.4L1061.26 576.6V577H1038.38V576.6L1047.98 575.4V522.6L1038.38 521.4V521H1074.78V533H1074.38L1073.18 523.4H1051.18V547H1061.98L1064.86 539.56L1065.26 539.64L1063.42 547.88V548.36L1065.26 556.6L1064.86 556.68ZM1107.99 577V576.6L1117.59 575.4V522.6L1107.99 521.4V521H1130.87V521.4L1120.79 522.6V574.6H1143.11L1145.59 565.16L1145.99 565.24L1144.55 575.56L1144.39 577H1107.99ZM1208.01 578.6C1190.89 578.6 1178.01 565.72 1178.01 548.6C1178.01 531.48 1190.89 518.6 1208.01 518.6C1225.13 518.6 1238.01 531.48 1238.01 548.6C1238.01 565.72 1225.13 578.6 1208.01 578.6ZM1208.01 576.2C1223.61 576.2 1234.65 564.76 1234.65 548.6C1234.65 532.44 1223.61 521 1208.01 521C1192.41 521 1181.37 532.44 1181.37 548.6C1181.37 564.76 1192.41 576.2 1208.01 576.2ZM1287.44 580.2L1272.48 522.6L1262.8 521.4V521H1285.52V521.4L1276 522.6L1288 570.36L1301.76 517H1302.16L1316.16 570.68L1328.48 522.6L1318.96 521.4V521H1340.8V521.4L1331.12 522.6L1316 580.2H1315.68L1301.76 526.76L1287.76 580.2H1287.44ZM1423.13 578.52C1414.97 578.52 1406.81 573.4 1406.81 563.08L1416.89 554.2L1417.13 554.44L1410.17 562.92C1410.17 571.72 1416.65 576.12 1423.13 576.12C1430.65 576.12 1436.25 570.68 1436.25 563.48C1436.25 557.56 1432.89 553 1426.73 550.04L1419.37 546.6C1411.37 542.92 1408.09 537.4 1408.09 532.2C1408.09 524.44 1414.57 518.6 1423.13 518.6C1430.65 518.6 1437.69 523.32 1438.01 533L1429.29 540.2L1429.05 539.96L1435.05 532.92C1434.65 524.92 1428.97 521 1423.13 521C1416.17 521 1410.97 525.8 1410.97 532.2C1410.97 536.28 1413.61 540.68 1420.49 543.64L1427.93 547C1435.37 550.28 1439.53 556.12 1439.53 563.24C1439.53 571.96 1432.49 578.52 1423.13 578.52ZM1480.24 577V576.6L1489.84 575.4V523.4H1475.2L1472.72 532.84L1472.32 532.76L1473.76 522.44L1473.92 521H1509.12L1509.28 522.44L1510.72 532.76L1510.32 532.84L1507.84 523.4H1493.04V575.4L1501.68 576.6V577H1480.24ZM1564.25 578.6C1557.05 578.6 1549.93 573.4 1549.93 562.92V522.6L1540.33 521.4V521H1561.77V521.4L1553.13 522.6V562.6C1553.13 570.36 1557.93 575.8 1564.73 575.8C1571.53 575.8 1576.33 570.44 1576.33 562.92V522.6L1567.69 521.4V521H1588.33V521.4L1578.73 522.6V562.6C1578.73 573.32 1571.45 578.6 1564.25 578.6ZM1619.95 577V576.6L1629.55 575.4V522.6L1619.95 521.4V521H1648.75C1664.75 521 1676.75 533 1676.75 549C1676.75 565 1664.75 577 1648.75 577H1619.95ZM1632.75 574.6H1648.67C1663.23 574.6 1673.55 564.04 1673.55 549C1673.55 533.96 1663.23 523.4 1648.67 523.4H1632.75V574.6ZM1709.55 577V576.6L1719.15 575.4V522.6L1709.55 521.4V521H1731.95V521.4L1722.35 522.6V575.4L1731.95 576.6V577H1709.55ZM1794.73 578.6C1777.61 578.6 1764.73 565.72 1764.73 548.6C1764.73 531.48 1777.61 518.6 1794.73 518.6C1811.85 518.6 1824.73 531.48 1824.73 548.6C1824.73 565.72 1811.85 578.6 1794.73 578.6ZM1794.73 576.2C1810.33 576.2 1821.37 564.76 1821.37 548.6C1821.37 532.44 1810.33 521 1794.73 521C1779.13 521 1768.09 532.44 1768.09 548.6C1768.09 564.76 1779.13 576.2 1794.73 576.2ZM1929.34 529.8L1919.9 539.32L1919.66 539.08L1926.38 529.72C1926.38 524.44 1922.7 521 1917.1 521C1912.06 521 1908.54 524.6 1908.54 529.8C1908.54 533.4 1909.66 536.12 1913.1 540.68L1933.1 567.16C1934.7 564.12 1935.58 560.44 1935.58 556.36C1935.58 552.36 1934.54 548.52 1932.7 545.32L1928.3 543.56V543.24H1935.02C1937.42 546.84 1938.78 551.32 1938.78 556.36C1938.78 561.48 1937.42 566.04 1935.02 569.64L1940.54 577H1936.54L1932.94 572.2C1929.18 576.28 1923.98 578.6 1917.9 578.6C1907.74 578.6 1900.3 571.64 1900.3 562.04C1900.3 557.72 1902.14 553.88 1906.38 549.48L1911.66 544.04L1910.54 542.6C1907.5 538.52 1905.34 534.76 1905.34 529.8C1905.34 523.16 1910.22 518.6 1917.34 518.6C1924.46 518.6 1929.34 523.16 1929.34 529.8ZM1903.5 562.04C1903.5 570.2 1909.58 576.2 1917.9 576.2C1923.5 576.2 1928.14 573.88 1931.26 570.04L1913.1 545.96L1908.22 551.08C1904.7 554.76 1903.5 557.56 1903.5 562.04ZM2014.55 577V576.6L2024.15 575.4V522.6L2014.55 521.4V521H2036.95V521.4L2027.35 522.6V575.4L2036.95 576.6V577H2014.55ZM2089.17 580.2L2070.61 522.6L2060.93 521.4V521H2083.65V521.4L2074.13 522.6L2089.81 572.2L2105.57 522.6L2096.05 521.4V521H2117.97V521.4L2108.29 522.6L2089.57 580.2H2089.17ZM2131.22 577V576.6L2140.98 575.4L2159.62 518.6H2160.02L2178.5 575.4L2188.26 576.6V577H2165.54V576.6L2175.06 575.4L2169.7 558.68H2149.06L2143.62 575.4L2153.14 576.6V577H2131.22ZM2149.78 556.28H2168.9L2159.38 526.52L2149.78 556.28ZM2249.83 581L2223.03 527.96V575.4L2232.63 576.6V577H2211.03V576.6L2220.63 575.4V517H2221.03L2247.83 570.04V522.6L2238.23 521.4V521H2259.83V521.4L2250.23 522.6V581H2249.83ZM2379.01 585.24L2349.57 543.88L2366.77 522.6L2357.49 521.4V521H2379.81V521.4L2369.89 522.6L2353.33 542.92L2379.65 584.76L2379.01 585.24ZM2332.21 577V576.6L2341.81 575.4V522.6L2332.21 521.4V521H2354.61V521.4L2345.01 522.6V575.4L2354.61 576.6V577H2332.21ZM2445.85 581L2419.05 527.96V575.4L2428.65 576.6V577H2407.05V576.6L2416.65 575.4V517H2417.05L2443.85 570.04V522.6L2434.25 521.4V521H2455.85V521.4L2446.25 522.6V581H2445.85ZM2494.97 577V576.6L2504.57 575.4V551.4L2491.21 522.6L2481.45 521.4V521H2504.33V521.4L2494.89 522.6L2506.49 548.2L2518.01 522.6L2508.57 521.4V521H2530.65V521.4L2520.89 522.6L2507.77 550.68V575.4L2516.41 576.6V577H2494.97ZM2546.3 577V576.6L2556.06 575.4L2574.7 518.6H2575.1L2593.58 575.4L2603.34 576.6V577H2580.62V576.6L2590.14 575.4L2584.78 558.68H2564.14L2558.7 575.4L2568.22 576.6V577H2546.3ZM2564.86 556.28H2583.98L2574.46 526.52L2564.86 556.28ZM2627.31 577V576.6L2651.87 523.4H2629.39L2626.91 532.84L2626.51 532.76L2627.95 522.44L2628.11 521H2656.11V521.4L2631.55 574.6H2654.03L2656.51 565.16L2656.91 565.24L2655.47 575.56L2655.31 577H2627.31ZM2715.41 555.88L2712.45 548.44H2701.73V574.6H2724.53L2725.73 565H2726.13V577H2688.93V576.6L2698.53 575.4V522.6L2688.93 521.4V521H2725.33V533H2724.93L2723.73 523.4H2701.73V546.2H2712.45L2715.41 538.76L2715.81 538.84L2713.97 547.08V547.56L2715.81 555.8L2715.41 555.88ZM2781.2 580.2L2762.64 522.6L2752.96 521.4V521H2775.68V521.4L2766.16 522.6L2781.84 572.2L2797.6 522.6L2788.08 521.4V521H2810V521.4L2800.32 522.6L2781.6 580.2H2781.2ZM1490.24 721V720.6L1499.84 719.4V667.4H1485.2L1482.72 676.84L1482.32 676.76L1483.76 666.44L1483.92 665H1519.12L1519.28 666.44L1520.72 676.76L1520.32 676.84L1517.84 667.4H1503.04V719.4L1511.68 720.6V721H1490.24ZM1580.75 722.6C1563.63 722.6 1550.75 709.72 1550.75 692.6C1550.75 675.48 1563.63 662.6 1580.75 662.6C1597.87 662.6 1610.75 675.48 1610.75 692.6C1610.75 709.72 1597.87 722.6 1580.75 722.6ZM1580.75 720.2C1596.35 720.2 1607.39 708.76 1607.39 692.6C1607.39 676.44 1596.35 665 1580.75 665C1565.15 665 1554.11 676.44 1554.11 692.6C1554.11 708.76 1565.15 720.2 1580.75 720.2ZM1667.06 722.6C1659.86 722.6 1652.74 717.4 1652.74 706.92V666.6L1643.14 665.4V665H1664.58V665.4L1655.94 666.6V706.6C1655.94 714.36 1660.74 719.8 1667.54 719.8C1674.34 719.8 1679.14 714.44 1679.14 706.92V666.6L1670.5 665.4V665H1691.14V665.4L1681.54 666.6V706.6C1681.54 717.32 1674.26 722.6 1667.06 722.6ZM1753.56 722.6C1736.44 722.6 1723.56 709.72 1723.56 692.6C1723.56 675.48 1736.44 662.6 1753.56 662.6C1766.12 662.6 1776.44 669.56 1781 680.04L1773.08 690.12L1772.76 690.04L1777.88 680.68C1773.96 671.24 1764.92 665 1753.56 665C1737.96 665 1726.92 676.44 1726.92 692.6C1726.92 708.76 1737.96 720.2 1753.56 720.2C1765.4 720.2 1774.6 713.64 1778.36 703.4V699.16L1778.68 699.08L1781.4 704.12C1777.08 715.16 1766.52 722.6 1753.56 722.6ZM1839.94 721V720.6L1848.58 719.4V692.6H1826.18V719.4L1834.82 720.6V721H1813.38V720.6L1822.98 719.4V666.6L1813.38 665.4V665H1834.82V665.4L1826.18 666.6V690.2H1848.58V666.6L1839.94 665.4V665H1861.38V665.4L1851.78 666.6V719.4L1861.38 720.6V721H1839.94ZM1953.28 722.52C1945.12 722.52 1936.96 717.4 1936.96 707.08L1947.04 698.2L1947.28 698.44L1940.32 706.92C1940.32 715.72 1946.8 720.12 1953.28 720.12C1960.8 720.12 1966.4 714.68 1966.4 707.48C1966.4 701.56 1963.04 697 1956.88 694.04L1949.52 690.6C1941.52 686.92 1938.24 681.4 1938.24 676.2C1938.24 668.44 1944.72 662.6 1953.28 662.6C1960.8 662.6 1967.84 667.32 1968.16 677L1959.44 684.2L1959.2 683.96L1965.2 676.92C1964.8 668.92 1959.12 665 1953.28 665C1946.32 665 1941.12 669.8 1941.12 676.2C1941.12 680.28 1943.76 684.68 1950.64 687.64L1958.08 691C1965.52 694.28 1969.68 700.12 1969.68 707.24C1969.68 715.96 1962.64 722.52 1953.28 722.52ZM2010.4 721V720.6L2020 719.4V667.4H2005.36L2002.88 676.84L2002.48 676.76L2003.92 666.44L2004.08 665H2039.28L2039.44 666.44L2040.88 676.76L2040.48 676.84L2038 667.4H2023.2V719.4L2031.84 720.6V721H2010.4ZM2094.4 722.6C2087.2 722.6 2080.08 717.4 2080.08 706.92V666.6L2070.48 665.4V665H2091.92V665.4L2083.28 666.6V706.6C2083.28 714.36 2088.08 719.8 2094.88 719.8C2101.68 719.8 2106.48 714.44 2106.48 706.92V666.6L2097.84 665.4V665H2118.48V665.4L2108.88 666.6V706.6C2108.88 717.32 2101.6 722.6 2094.4 722.6ZM2150.1 721V720.6L2159.7 719.4V666.6L2150.1 665.4V665H2178.9C2194.9 665 2206.9 677 2206.9 693C2206.9 709 2194.9 721 2178.9 721H2150.1ZM2162.9 718.6H2178.82C2193.38 718.6 2203.7 708.04 2203.7 693C2203.7 677.96 2193.38 667.4 2178.82 667.4H2162.9V718.6ZM2239.71 721V720.6L2249.31 719.4V666.6L2239.71 665.4V665H2262.11V665.4L2252.51 666.6V719.4L2262.11 720.6V721H2239.71ZM2324.89 722.6C2307.77 722.6 2294.89 709.72 2294.89 692.6C2294.89 675.48 2307.77 662.6 2324.89 662.6C2342.01 662.6 2354.89 675.48 2354.89 692.6C2354.89 709.72 2342.01 722.6 2324.89 722.6ZM2324.89 720.2C2340.49 720.2 2351.53 708.76 2351.53 692.6C2351.53 676.44 2340.49 665 2324.89 665C2309.29 665 2298.25 676.44 2298.25 692.6C2298.25 708.76 2309.29 720.2 2324.89 720.2ZM1637.33 809C1629.57 809 1624.21 814.44 1624.21 822.44V825.4L1629.33 832.84L1629.09 833.08L1621.01 825.24V822.68C1621.01 813.16 1627.65 806.6 1637.33 806.6C1647.01 806.6 1653.73 812.84 1653.73 821.88C1653.73 826.04 1651.97 830.28 1648.53 834.68L1626.53 862.6H1652.61L1652.53 853L1652.93 852.92L1654.29 863.24L1654.53 865H1620.93V864.6L1645.89 832.84C1649.01 828.76 1650.37 825.32 1650.37 821.64C1650.37 814.12 1645.17 809 1637.33 809ZM1679.74 865V864.6L1689.5 863.4L1708.14 806.6H1708.54L1727.02 863.4L1736.78 864.6V865H1714.06V864.6L1723.58 863.4L1718.22 846.68H1697.58L1692.14 863.4L1701.66 864.6V865H1679.74ZM1698.3 844.28H1717.42L1707.9 814.52L1698.3 844.28ZM1818.67 866.52C1810.51 866.52 1802.35 861.4 1802.35 851.08L1812.43 842.2L1812.67 842.44L1805.71 850.92C1805.71 859.72 1812.19 864.12 1818.67 864.12C1826.19 864.12 1831.79 858.68 1831.79 851.48C1831.79 845.56 1828.43 841 1822.27 838.04L1814.91 834.6C1806.91 830.92 1803.63 825.4 1803.63 820.2C1803.63 812.44 1810.11 806.6 1818.67 806.6C1826.19 806.6 1833.23 811.32 1833.55 821L1824.83 828.2L1824.59 827.96L1830.59 820.92C1830.19 812.92 1824.51 809 1818.67 809C1811.71 809 1806.51 813.8 1806.51 820.2C1806.51 824.28 1809.15 828.68 1816.03 831.64L1823.47 835C1830.91 838.28 1835.07 844.12 1835.07 851.24C1835.07 859.96 1828.03 866.52 1818.67 866.52ZM1875.79 865V864.6L1885.39 863.4V811.4H1870.75L1868.27 820.84L1867.87 820.76L1869.31 810.44L1869.47 809H1904.67L1904.83 810.44L1906.27 820.76L1905.87 820.84L1903.39 811.4H1888.59V863.4L1897.23 864.6V865H1875.79ZM1959.79 866.6C1952.59 866.6 1945.47 861.4 1945.47 850.92V810.6L1935.87 809.4V809H1957.31V809.4L1948.67 810.6V850.6C1948.67 858.36 1953.47 863.8 1960.27 863.8C1967.07 863.8 1971.87 858.44 1971.87 850.92V810.6L1963.23 809.4V809H1983.87V809.4L1974.27 810.6V850.6C1974.27 861.32 1966.99 866.6 1959.79 866.6ZM2015.49 865V864.6L2025.09 863.4V810.6L2015.49 809.4V809H2044.29C2060.29 809 2072.29 821 2072.29 837C2072.29 853 2060.29 865 2044.29 865H2015.49ZM2028.29 862.6H2044.21C2058.77 862.6 2069.09 852.04 2069.09 837C2069.09 821.96 2058.77 811.4 2044.21 811.4H2028.29V862.6ZM2105.1 865V864.6L2114.7 863.4V810.6L2105.1 809.4V809H2127.5V809.4L2117.9 810.6V863.4L2127.5 864.6V865H2105.1ZM2190.28 866.6C2173.16 866.6 2160.28 853.72 2160.28 836.6C2160.28 819.48 2173.16 806.6 2190.28 806.6C2207.4 806.6 2220.28 819.48 2220.28 836.6C2220.28 853.72 2207.4 866.6 2190.28 866.6ZM2190.28 864.2C2205.88 864.2 2216.92 852.76 2216.92 836.6C2216.92 820.44 2205.88 809 2190.28 809C2174.68 809 2163.64 820.44 2163.64 836.6C2163.64 852.76 2174.68 864.2 2190.28 864.2ZM1365.2 1010.6C1348.08 1010.6 1335.2 997.72 1335.2 980.6C1335.2 963.48 1348.08 950.6 1365.2 950.6C1382.32 950.6 1395.2 963.48 1395.2 980.6C1395.2 997.72 1382.32 1010.6 1365.2 1010.6ZM1365.2 1008.2C1380.8 1008.2 1391.84 996.76 1391.84 980.6C1391.84 964.44 1380.8 953 1365.2 953C1349.6 953 1338.56 964.44 1338.56 980.6C1338.56 996.76 1349.6 1008.2 1365.2 1008.2ZM1474.79 1017.24L1445.35 975.88L1462.55 954.6L1453.27 953.4V953H1475.59V953.4L1465.67 954.6L1449.11 974.92L1475.43 1016.76L1474.79 1017.24ZM1427.99 1009V1008.6L1437.59 1007.4V954.6L1427.99 953.4V953H1450.39V953.4L1440.79 954.6V1007.4L1450.39 1008.6V1009H1427.99ZM1541.63 1013L1514.83 959.96V1007.4L1524.43 1008.6V1009H1502.83V1008.6L1512.43 1007.4V949H1512.83L1539.63 1002.04V954.6L1530.03 953.4V953H1551.63V953.4L1542.03 954.6V1013H1541.63ZM1614.03 1010.6C1596.91 1010.6 1584.03 997.72 1584.03 980.6C1584.03 963.48 1596.91 950.6 1614.03 950.6C1631.15 950.6 1644.03 963.48 1644.03 980.6C1644.03 997.72 1631.15 1010.6 1614.03 1010.6ZM1614.03 1008.2C1629.63 1008.2 1640.67 996.76 1640.67 980.6C1640.67 964.44 1629.63 953 1614.03 953C1598.43 953 1587.39 964.44 1587.39 980.6C1587.39 996.76 1598.43 1008.2 1614.03 1008.2ZM1736.72 1010.52C1728.56 1010.52 1720.4 1005.4 1720.4 995.08L1730.48 986.2L1730.72 986.44L1723.76 994.92C1723.76 1003.72 1730.24 1008.12 1736.72 1008.12C1744.24 1008.12 1749.84 1002.68 1749.84 995.48C1749.84 989.56 1746.48 985 1740.32 982.04L1732.96 978.6C1724.96 974.92 1721.68 969.4 1721.68 964.2C1721.68 956.44 1728.16 950.6 1736.72 950.6C1744.24 950.6 1751.28 955.32 1751.6 965L1742.88 972.2L1742.64 971.96L1748.64 964.92C1748.24 956.92 1742.56 953 1736.72 953C1729.76 953 1724.56 957.8 1724.56 964.2C1724.56 968.28 1727.2 972.68 1734.08 975.64L1741.52 979C1748.96 982.28 1753.12 988.12 1753.12 995.24C1753.12 1003.96 1746.08 1010.52 1736.72 1010.52ZM1793.83 1009V1008.6L1803.43 1007.4V955.4H1788.79L1786.31 964.84L1785.91 964.76L1787.35 954.44L1787.51 953H1822.71L1822.87 954.44L1824.31 964.76L1823.91 964.84L1821.43 955.4H1806.63V1007.4L1815.27 1008.6V1009H1793.83ZM1884.34 1010.6C1867.22 1010.6 1854.34 997.72 1854.34 980.6C1854.34 963.48 1867.22 950.6 1884.34 950.6C1901.46 950.6 1914.34 963.48 1914.34 980.6C1914.34 997.72 1901.46 1010.6 1884.34 1010.6ZM1884.34 1008.2C1899.94 1008.2 1910.98 996.76 1910.98 980.6C1910.98 964.44 1899.94 953 1884.34 953C1868.74 953 1857.7 964.44 1857.7 980.6C1857.7 996.76 1868.74 1008.2 1884.34 1008.2ZM1994.09 1017.24L1963.85 975L1964.09 974.52L1968.65 976.12H1969.77C1977.29 976.12 1981.45 971.64 1981.45 965.8C1981.45 959.8 1976.81 955.4 1970.57 955.4H1959.93V1007.4L1970.01 1008.6V1009H1947.13V1008.6L1956.73 1007.4V954.6L1947.13 953.4V953H1971.21C1979.21 953 1984.81 958.2 1984.81 965.64C1984.81 972.84 1979.21 978.12 1971.21 978.12H1970.49L1994.73 1016.76L1994.09 1017.24ZM2049.24 987.88L2046.28 980.44H2035.56V1006.6H2058.36L2059.56 997H2059.96V1009H2022.76V1008.6L2032.36 1007.4V954.6L2022.76 953.4V953H2059.16V965H2058.76L2057.56 955.4H2035.56V978.2H2046.28L2049.24 970.76L2049.64 970.84L2047.8 979.08V979.56L2049.64 987.8L2049.24 987.88ZM2166.61 961.8L2157.17 971.32L2156.93 971.08L2163.65 961.72C2163.65 956.44 2159.97 953 2154.37 953C2149.33 953 2145.81 956.6 2145.81 961.8C2145.81 965.4 2146.93 968.12 2150.37 972.68L2170.37 999.16C2171.97 996.12 2172.85 992.44 2172.85 988.36C2172.85 984.36 2171.81 980.52 2169.97 977.32L2165.57 975.56V975.24H2172.29C2174.69 978.84 2176.05 983.32 2176.05 988.36C2176.05 993.48 2174.69 998.04 2172.29 1001.64L2177.81 1009H2173.81L2170.21 1004.2C2166.45 1008.28 2161.25 1010.6 2155.17 1010.6C2145.01 1010.6 2137.57 1003.64 2137.57 994.04C2137.57 989.72 2139.41 985.88 2143.65 981.48L2148.93 976.04L2147.81 974.6C2144.77 970.52 2142.61 966.76 2142.61 961.8C2142.61 955.16 2147.49 950.6 2154.61 950.6C2161.73 950.6 2166.61 955.16 2166.61 961.8ZM2140.77 994.04C2140.77 1002.2 2146.85 1008.2 2155.17 1008.2C2160.77 1008.2 2165.41 1005.88 2168.53 1002.04L2150.37 977.96L2145.49 983.08C2141.97 986.76 2140.77 989.56 2140.77 994.04ZM2290.22 1013L2263.42 959.96V1007.4L2273.02 1008.6V1009H2251.42V1008.6L2261.02 1007.4V949H2261.42L2288.22 1002.04V954.6L2278.62 953.4V953H2300.22V953.4L2290.62 954.6V1013H2290.22ZM2331.82 1009V1008.6L2341.42 1007.4V954.6L2331.82 953.4V953H2354.22V953.4L2344.62 954.6V1007.4L2354.22 1008.6V1009H2331.82ZM2424.6 1013L2397.8 959.96V1007.4L2407.4 1008.6V1009H2385.8V1008.6L2395.4 1007.4V949H2395.8L2422.6 1002.04V954.6L2413 953.4V953H2434.6V953.4L2425 954.6V1013H2424.6ZM2457.4 1009V1008.6L2467.16 1007.4L2485.8 950.6H2486.2L2504.68 1007.4L2514.44 1008.6V1009H2491.72V1008.6L2501.24 1007.4L2495.88 990.68H2475.24L2469.8 1007.4L2479.32 1008.6V1009H2457.4ZM2475.96 988.28H2495.08L2485.56 958.52L2475.96 988.28ZM1361.39 1153V1152.6L1370.99 1151.4V1098.6L1361.39 1097.4V1097H1384.27V1097.4L1374.19 1098.6V1150.6H1396.51L1398.99 1141.16L1399.39 1141.24L1397.95 1151.56L1397.79 1153H1361.39ZM1461.41 1154.6C1444.29 1154.6 1431.41 1141.72 1431.41 1124.6C1431.41 1107.48 1444.29 1094.6 1461.41 1094.6C1478.53 1094.6 1491.41 1107.48 1491.41 1124.6C1491.41 1141.72 1478.53 1154.6 1461.41 1154.6ZM1461.41 1152.2C1477.01 1152.2 1488.05 1140.76 1488.05 1124.6C1488.05 1108.44 1477.01 1097 1461.41 1097C1445.81 1097 1434.77 1108.44 1434.77 1124.6C1434.77 1140.76 1445.81 1152.2 1461.41 1152.2ZM1544.44 1156.2L1525.88 1098.6L1516.2 1097.4V1097H1538.92V1097.4L1529.4 1098.6L1545.08 1148.2L1560.84 1098.6L1551.32 1097.4V1097H1573.24V1097.4L1563.56 1098.6L1544.84 1156.2H1544.44ZM1623.34 1131.88L1620.38 1124.44H1609.66V1150.6H1632.46L1633.66 1141H1634.06V1153H1596.86V1152.6L1606.46 1151.4V1098.6L1596.86 1097.4V1097H1633.26V1109H1632.86L1631.66 1099.4H1609.66V1122.2H1620.38L1623.34 1114.76L1623.74 1114.84L1621.9 1123.08V1123.56L1623.74 1131.8L1623.34 1131.88ZM1698.13 1154.6C1681.01 1154.6 1668.13 1141.72 1668.13 1124.6C1668.13 1107.48 1681.01 1094.6 1698.13 1094.6C1710.69 1094.6 1721.01 1101.56 1725.57 1112.04L1722.85 1117.08L1722.53 1117V1112.76C1718.61 1103.24 1709.57 1097 1698.13 1097C1682.53 1097 1671.49 1108.44 1671.49 1124.6C1671.49 1140.76 1682.53 1152.2 1698.13 1152.2C1712.37 1152.2 1722.85 1142.68 1724.53 1128.76L1698.05 1126.76V1126.36H1728.05C1727.17 1142.52 1714.61 1154.6 1698.13 1154.6ZM1791.25 1154.6C1774.13 1154.6 1761.25 1141.72 1761.25 1124.6C1761.25 1107.48 1774.13 1094.6 1791.25 1094.6C1808.37 1094.6 1821.25 1107.48 1821.25 1124.6C1821.25 1141.72 1808.37 1154.6 1791.25 1154.6ZM1791.25 1152.2C1806.85 1152.2 1817.89 1140.76 1817.89 1124.6C1817.89 1108.44 1806.85 1097 1791.25 1097C1775.65 1097 1764.61 1108.44 1764.61 1124.6C1764.61 1140.76 1775.65 1152.2 1791.25 1152.2ZM1884.85 1154.6C1867.73 1154.6 1854.85 1141.72 1854.85 1124.6C1854.85 1107.48 1867.73 1094.6 1884.85 1094.6C1901.97 1094.6 1914.85 1107.48 1914.85 1124.6C1914.85 1141.72 1901.97 1154.6 1884.85 1154.6ZM1884.85 1152.2C1900.45 1152.2 1911.49 1140.76 1911.49 1124.6C1911.49 1108.44 1900.45 1097 1884.85 1097C1869.25 1097 1858.21 1108.44 1858.21 1124.6C1858.21 1140.76 1869.25 1152.2 1884.85 1152.2ZM1947.64 1153V1152.6L1957.24 1151.4V1098.6L1947.64 1097.4V1097H1976.44C1992.44 1097 2004.44 1109 2004.44 1125C2004.44 1141 1992.44 1153 1976.44 1153H1947.64ZM1960.44 1150.6H1976.36C1990.92 1150.6 2001.24 1140.04 2001.24 1125C2001.24 1109.96 1990.92 1099.4 1976.36 1099.4H1960.44V1150.6ZM2054.81 1154.52C2046.65 1154.52 2038.49 1149.4 2038.49 1139.08L2048.57 1130.2L2048.81 1130.44L2041.85 1138.92C2041.85 1147.72 2048.33 1152.12 2054.81 1152.12C2062.33 1152.12 2067.93 1146.68 2067.93 1139.48C2067.93 1133.56 2064.57 1129 2058.41 1126.04L2051.05 1122.6C2043.05 1118.92 2039.77 1113.4 2039.77 1108.2C2039.77 1100.44 2046.25 1094.6 2054.81 1094.6C2062.33 1094.6 2069.37 1099.32 2069.69 1109L2060.97 1116.2L2060.73 1115.96L2066.73 1108.92C2066.33 1100.92 2060.65 1097 2054.81 1097C2047.85 1097 2042.65 1101.8 2042.65 1108.2C2042.65 1112.28 2045.29 1116.68 2052.17 1119.64L2059.61 1123C2067.05 1126.28 2071.21 1132.12 2071.21 1139.24C2071.21 1147.96 2064.17 1154.52 2054.81 1154.52ZM2152.94 1124.2C2152.94 1136.76 2156.46 1148.2 2162.38 1157.16L2162.06 1157.4C2154.22 1148.76 2149.58 1137.16 2149.58 1124.2C2149.58 1111.24 2154.22 1099.64 2162.06 1091L2162.38 1091.24C2156.46 1100.2 2152.94 1111.64 2152.94 1124.2ZM2192.41 1153V1152.6L2202.01 1151.4V1098.6L2192.41 1097.4V1097H2215.29V1097.4L2205.21 1098.6V1150.6H2227.53L2230.01 1141.16L2230.41 1141.24L2228.97 1151.56L2228.81 1153H2192.41ZM2278.66 1156.2L2260.1 1098.6L2250.42 1097.4V1097H2273.14V1097.4L2263.62 1098.6L2279.3 1148.2L2295.06 1098.6L2285.54 1097.4V1097H2307.46V1097.4L2297.78 1098.6L2279.06 1156.2H2278.66ZM2361.88 1154.6C2344.76 1154.6 2331.88 1141.72 2331.88 1124.6C2331.88 1107.48 2344.76 1094.6 2361.88 1094.6C2374.44 1094.6 2384.76 1101.56 2389.32 1112.04L2386.6 1117.08L2386.28 1117V1112.76C2382.36 1103.24 2373.32 1097 2361.88 1097C2346.28 1097 2335.24 1108.44 2335.24 1124.6C2335.24 1140.76 2346.28 1152.2 2361.88 1152.2C2376.12 1152.2 2386.6 1142.68 2388.28 1128.76L2361.8 1126.76V1126.36H2391.8C2390.92 1142.52 2378.36 1154.6 2361.88 1154.6ZM2431.64 1124.2C2431.64 1111.64 2428.12 1100.2 2422.2 1091.24L2422.52 1091C2430.36 1099.64 2435 1111.24 2435 1124.2C2435 1137.16 2430.36 1148.76 2422.52 1157.4L2422.2 1157.16C2428.12 1148.2 2431.64 1136.76 2431.64 1124.2ZM1409.48 1297V1296.6L1419.08 1295.4V1242.6L1409.48 1241.4V1241H1431.88V1241.4L1422.28 1242.6V1295.4L1431.88 1296.6V1297H1409.48ZM1510.81 1305.24L1480.57 1263L1480.81 1262.52L1485.37 1264.12H1486.49C1494.01 1264.12 1498.17 1259.64 1498.17 1253.8C1498.17 1247.8 1493.53 1243.4 1487.29 1243.4H1476.65V1295.4L1486.73 1296.6V1297H1463.85V1296.6L1473.45 1295.4V1242.6L1463.85 1241.4V1241H1487.93C1495.93 1241 1501.53 1246.2 1501.53 1253.64C1501.53 1260.84 1495.93 1266.12 1487.93 1266.12H1487.21L1511.45 1304.76L1510.81 1305.24ZM1539.48 1297V1296.6L1549.08 1295.4V1242.6L1539.48 1241.4V1241H1561.88V1241.4L1552.28 1242.6V1295.4L1561.88 1296.6V1297H1539.48ZM1632.25 1301L1605.45 1247.96V1295.4L1615.05 1296.6V1297H1593.45V1296.6L1603.05 1295.4V1237H1603.45L1630.25 1290.04V1242.6L1620.65 1241.4V1241H1642.25V1241.4L1632.65 1242.6V1301H1632.25ZM1665.05 1297V1296.6L1674.81 1295.4L1693.45 1238.6H1693.85L1712.33 1295.4L1722.09 1296.6V1297H1699.37V1296.6L1708.89 1295.4L1703.53 1278.68H1682.89L1677.45 1295.4L1686.97 1296.6V1297H1665.05ZM1683.61 1276.28H1702.73L1693.21 1246.52L1683.61 1276.28ZM1784.87 1297V1296.6L1794.47 1295.4V1242.6L1784.87 1241.4V1241H1807.75V1241.4L1797.67 1242.6V1294.6H1819.99L1822.47 1285.16L1822.87 1285.24L1821.43 1295.56L1821.27 1297H1784.87ZM1881.35 1275.88L1878.39 1268.44H1867.67V1294.6H1890.47L1891.67 1285H1892.07V1297H1854.87V1296.6L1864.47 1295.4V1242.6L1854.87 1241.4V1241H1891.27V1253H1890.87L1889.67 1243.4H1867.67V1266.2H1878.39L1881.35 1258.76L1881.75 1258.84L1879.91 1267.08V1267.56L1881.75 1275.8L1881.35 1275.88ZM1956.14 1298.6C1939.02 1298.6 1926.14 1285.72 1926.14 1268.6C1926.14 1251.48 1939.02 1238.6 1956.14 1238.6C1968.7 1238.6 1979.02 1245.56 1983.58 1256.04L1980.86 1261.08L1980.54 1261V1256.76C1976.62 1247.24 1967.58 1241 1956.14 1241C1940.54 1241 1929.5 1252.44 1929.5 1268.6C1929.5 1284.76 1940.54 1296.2 1956.14 1296.2C1970.38 1296.2 1980.86 1286.68 1982.54 1272.76L1956.06 1270.76V1270.36H1986.06C1985.18 1286.52 1972.62 1298.6 1956.14 1298.6ZM2041.98 1298.6C2034.78 1298.6 2027.66 1293.4 2027.66 1282.92V1242.6L2018.06 1241.4V1241H2039.5V1241.4L2030.86 1242.6V1282.6C2030.86 1290.36 2035.66 1295.8 2042.46 1295.8C2049.26 1295.8 2054.06 1290.44 2054.06 1282.92V1242.6L2045.42 1241.4V1241H2066.06V1241.4L2056.46 1242.6V1282.6C2056.46 1293.32 2049.18 1298.6 2041.98 1298.6ZM2116.8 1298.52C2108.64 1298.52 2100.48 1293.4 2100.48 1283.08L2110.56 1274.2L2110.8 1274.44L2103.84 1282.92C2103.84 1291.72 2110.32 1296.12 2116.8 1296.12C2124.32 1296.12 2129.92 1290.68 2129.92 1283.48C2129.92 1277.56 2126.56 1273 2120.4 1270.04L2113.04 1266.6C2105.04 1262.92 2101.76 1257.4 2101.76 1252.2C2101.76 1244.44 2108.24 1238.6 2116.8 1238.6C2124.32 1238.6 2131.36 1243.32 2131.68 1253L2122.96 1260.2L2122.72 1259.96L2128.72 1252.92C2128.32 1244.92 2122.64 1241 2116.8 1241C2109.84 1241 2104.64 1245.8 2104.64 1252.2C2104.64 1256.28 2107.28 1260.68 2114.16 1263.64L2121.6 1267C2129.04 1270.28 2133.2 1276.12 2133.2 1283.24C2133.2 1291.96 2126.16 1298.52 2116.8 1298.52ZM2194.55 1297V1296.6L2203.19 1295.4V1268.6H2180.79V1295.4L2189.43 1296.6V1297H2167.99V1296.6L2177.59 1295.4V1242.6L2167.99 1241.4V1241H2189.43V1241.4L2180.79 1242.6V1266.2H2203.19V1242.6L2194.55 1241.4V1241H2215.99V1241.4L2206.39 1242.6V1295.4L2215.99 1296.6V1297H2194.55ZM2274.47 1275.88L2271.51 1268.44H2260.79V1294.6H2283.59L2284.79 1285H2285.19V1297H2247.99V1296.6L2257.59 1295.4V1242.6L2247.99 1241.4V1241H2284.39V1253H2283.99L2282.79 1243.4H2260.79V1266.2H2271.51L2274.47 1258.76L2274.87 1258.84L2273.03 1267.08V1267.56L2274.87 1275.8L2274.47 1275.88ZM2340.26 1300.2L2321.7 1242.6L2312.02 1241.4V1241H2334.74V1241.4L2325.22 1242.6L2340.9 1292.2L2356.66 1242.6L2347.14 1241.4V1241H2369.06V1241.4L2359.38 1242.6L2340.66 1300.2H2340.26ZM2382.32 1297V1296.6L2392.08 1295.4L2410.72 1238.6H2411.12L2429.6 1295.4L2439.36 1296.6V1297H2416.64V1296.6L2426.16 1295.4L2420.8 1278.68H2400.16L2394.72 1295.4L2404.24 1296.6V1297H2382.32ZM2400.88 1276.28H2420L2410.48 1246.52L2400.88 1276.28ZM1337.71 1419.88L1334.75 1412.44H1324.03V1438.6H1346.83L1348.03 1429H1348.43V1441H1311.23V1440.6L1320.83 1439.4V1386.6L1311.23 1385.4V1385H1347.63V1397H1347.23L1346.03 1387.4H1324.03V1410.2H1334.75L1337.71 1402.76L1338.11 1402.84L1336.27 1411.08V1411.56L1338.11 1419.8L1337.71 1419.88ZM1430.07 1449.24L1400.63 1407.88L1417.83 1386.6L1408.55 1385.4V1385H1430.87V1385.4L1420.95 1386.6L1404.39 1406.92L1430.71 1448.76L1430.07 1449.24ZM1383.27 1441V1440.6L1392.87 1439.4V1386.6L1383.27 1385.4V1385H1405.67V1385.4L1396.07 1386.6V1439.4L1405.67 1440.6V1441H1383.27ZM1449.7 1441V1440.6L1459.46 1439.4L1478.1 1382.6H1478.5L1496.98 1439.4L1506.74 1440.6V1441H1484.02V1440.6L1493.54 1439.4L1488.18 1422.68H1467.54L1462.1 1439.4L1471.62 1440.6V1441H1449.7ZM1468.26 1420.28H1487.38L1477.86 1390.52L1468.26 1420.28ZM1532.62 1441V1440.6L1542.22 1439.4V1387.4H1527.58L1525.1 1396.84L1524.7 1396.76L1526.14 1386.44L1526.3 1385H1561.5L1561.66 1386.44L1563.1 1396.76L1562.7 1396.84L1560.22 1387.4H1545.42V1439.4L1554.06 1440.6V1441H1532.62ZM1619.59 1419.88L1616.63 1412.44H1605.91V1438.6H1628.71L1629.91 1429H1630.31V1441H1593.11V1440.6L1602.71 1439.4V1386.6L1593.11 1385.4V1385H1629.51V1397H1629.11L1627.91 1387.4H1605.91V1410.2H1616.63L1619.59 1402.76L1619.99 1402.84L1618.15 1411.08V1411.56L1619.99 1419.8L1619.59 1419.88ZM1712.1 1449.24L1681.86 1407L1682.1 1406.52L1686.66 1408.12H1687.78C1695.3 1408.12 1699.46 1403.64 1699.46 1397.8C1699.46 1391.8 1694.82 1387.4 1688.58 1387.4H1677.94V1439.4L1688.02 1440.6V1441H1665.14V1440.6L1674.74 1439.4V1386.6L1665.14 1385.4V1385H1689.22C1697.22 1385 1702.82 1390.2 1702.82 1397.64C1702.82 1404.84 1697.22 1410.12 1689.22 1410.12H1688.5L1712.74 1448.76L1712.1 1449.24ZM1740.77 1441V1440.6L1750.37 1439.4V1386.6L1740.77 1385.4V1385H1763.17V1385.4L1753.57 1386.6V1439.4L1763.17 1440.6V1441H1740.77ZM1833.54 1445L1806.74 1391.96V1439.4L1816.34 1440.6V1441H1794.74V1440.6L1804.34 1439.4V1381H1804.74L1831.54 1434.04V1386.6L1821.94 1385.4V1385H1843.54V1385.4L1833.94 1386.6V1445H1833.54ZM1866.34 1441V1440.6L1876.1 1439.4L1894.74 1382.6H1895.14L1913.62 1439.4L1923.38 1440.6V1441H1900.66V1440.6L1910.18 1439.4L1904.82 1422.68H1884.18L1878.74 1439.4L1888.26 1440.6V1441H1866.34ZM1884.9 1420.28H1904.02L1894.5 1390.52L1884.9 1420.28ZM2024.56 1445L1997.76 1391.96V1439.4L2007.36 1440.6V1441H1985.76V1440.6L1995.36 1439.4V1381H1995.76L2022.56 1434.04V1386.6L2012.96 1385.4V1385H2034.56V1385.4L2024.96 1386.6V1445H2024.56ZM2092.64 1419.88L2089.68 1412.44H2078.96V1438.6H2101.76L2102.96 1429H2103.36V1441H2066.16V1440.6L2075.76 1439.4V1386.6L2066.16 1385.4V1385H2102.56V1397H2102.16L2100.96 1387.4H2078.96V1410.2H2089.68L2092.64 1402.76L2093.04 1402.84L2091.2 1411.08V1411.56L2093.04 1419.8L2092.64 1419.88ZM2165.23 1444.2L2149.79 1396.12V1439.4L2158.43 1440.6V1441H2137.79V1440.6L2147.39 1439.4V1381H2147.95L2165.71 1436.28L2183.63 1381H2184.19V1439.4L2193.79 1440.6V1441H2172.35V1440.6L2180.99 1439.4V1396.92L2165.63 1444.2H2165.23ZM2225.38 1441V1440.6L2234.98 1439.4V1386.6L2225.38 1385.4V1385H2247.78V1385.4L2238.18 1386.6V1439.4L2247.78 1440.6V1441H2225.38ZM2326.55 1449.24L2297.11 1407.88L2314.31 1386.6L2305.03 1385.4V1385H2327.35V1385.4L2317.43 1386.6L2300.87 1406.92L2327.19 1448.76L2326.55 1449.24ZM2279.75 1441V1440.6L2289.35 1439.4V1386.6L2279.75 1385.4V1385H2302.15V1385.4L2292.55 1386.6V1439.4L2302.15 1440.6V1441H2279.75ZM2354.98 1441V1440.6L2364.58 1439.4V1386.6L2354.98 1385.4V1385H2377.38V1385.4L2367.78 1386.6V1439.4L2377.38 1440.6V1441H2354.98ZM2447.76 1445L2420.96 1391.96V1439.4L2430.56 1440.6V1441H2408.96V1440.6L2418.56 1439.4V1381H2418.96L2445.76 1434.04V1386.6L2436.16 1385.4V1385H2457.76V1385.4L2448.16 1386.6V1445H2447.76ZM2480.56 1441V1440.6L2490.32 1439.4L2508.96 1382.6H2509.36L2527.84 1439.4L2537.6 1440.6V1441H2514.88V1440.6L2524.4 1439.4L2519.04 1422.68H2498.4L2492.96 1439.4L2502.48 1440.6V1441H2480.56ZM2499.12 1420.28H2518.24L2508.72 1390.52L2499.12 1420.28ZM1284.48 1593.24L1255.04 1551.88L1272.24 1530.6L1262.96 1529.4V1529H1285.28V1529.4L1275.36 1530.6L1258.8 1550.92L1285.12 1592.76L1284.48 1593.24ZM1237.68 1585V1584.6L1247.28 1583.4V1530.6L1237.68 1529.4V1529H1260.08V1529.4L1250.48 1530.6V1583.4L1260.08 1584.6V1585H1237.68ZM1342.93 1586.6C1325.81 1586.6 1312.93 1573.72 1312.93 1556.6C1312.93 1539.48 1325.81 1526.6 1342.93 1526.6C1360.05 1526.6 1372.93 1539.48 1372.93 1556.6C1372.93 1573.72 1360.05 1586.6 1342.93 1586.6ZM1342.93 1584.2C1358.53 1584.2 1369.57 1572.76 1369.57 1556.6C1369.57 1540.44 1358.53 1529 1342.93 1529C1327.33 1529 1316.29 1540.44 1316.29 1556.6C1316.29 1572.76 1327.33 1584.2 1342.93 1584.2ZM1444.13 1589L1417.33 1535.96V1583.4L1426.93 1584.6V1585H1405.33V1584.6L1414.93 1583.4V1525H1415.33L1442.13 1578.04V1530.6L1432.53 1529.4V1529H1454.13V1529.4L1444.53 1530.6V1589H1444.13ZM1504.85 1586.52C1496.69 1586.52 1488.53 1581.4 1488.53 1571.08L1498.61 1562.2L1498.85 1562.44L1491.89 1570.92C1491.89 1579.72 1498.37 1584.12 1504.85 1584.12C1512.37 1584.12 1517.97 1578.68 1517.97 1571.48C1517.97 1565.56 1514.61 1561 1508.45 1558.04L1501.09 1554.6C1493.09 1550.92 1489.81 1545.4 1489.81 1540.2C1489.81 1532.44 1496.29 1526.6 1504.85 1526.6C1512.37 1526.6 1519.41 1531.32 1519.73 1541L1511.01 1548.2L1510.77 1547.96L1516.77 1540.92C1516.37 1532.92 1510.69 1529 1504.85 1529C1497.89 1529 1492.69 1533.8 1492.69 1540.2C1492.69 1544.28 1495.33 1548.68 1502.21 1551.64L1509.65 1555C1517.09 1558.28 1521.25 1564.12 1521.25 1571.24C1521.25 1579.96 1514.21 1586.52 1504.85 1586.52ZM1561.96 1585V1584.6L1571.56 1583.4V1531.4H1556.92L1554.44 1540.84L1554.04 1540.76L1555.48 1530.44L1555.64 1529H1590.84L1591 1530.44L1592.44 1540.76L1592.04 1540.84L1589.56 1531.4H1574.76V1583.4L1583.4 1584.6V1585H1561.96ZM1610.44 1585V1584.6L1620.2 1583.4L1638.84 1526.6H1639.24L1657.72 1583.4L1667.48 1584.6V1585H1644.76V1584.6L1654.28 1583.4L1648.92 1566.68H1628.28L1622.84 1583.4L1632.36 1584.6V1585H1610.44ZM1629 1564.28H1648.12L1638.6 1534.52L1629 1564.28ZM1729.05 1589L1702.25 1535.96V1583.4L1711.85 1584.6V1585H1690.25V1584.6L1699.85 1583.4V1525H1700.25L1727.05 1578.04V1530.6L1717.45 1529.4V1529H1739.05V1529.4L1729.45 1530.6V1589H1729.05ZM1776.57 1585V1584.6L1786.17 1583.4V1531.4H1771.53L1769.05 1540.84L1768.65 1540.76L1770.09 1530.44L1770.25 1529H1805.45L1805.61 1530.44L1807.05 1540.76L1806.65 1540.84L1804.17 1531.4H1789.37V1583.4L1798.01 1584.6V1585H1776.57ZM1837.05 1585V1584.6L1846.65 1583.4V1530.6L1837.05 1529.4V1529H1859.45V1529.4L1849.85 1530.6V1583.4L1859.45 1584.6V1585H1837.05ZM1929.83 1589L1903.03 1535.96V1583.4L1912.63 1584.6V1585H1891.03V1584.6L1900.63 1583.4V1525H1901.03L1927.83 1578.04V1530.6L1918.23 1529.4V1529H1939.83V1529.4L1930.23 1530.6V1589H1929.83ZM2059.01 1593.24L2029.57 1551.88L2046.77 1530.6L2037.49 1529.4V1529H2059.81V1529.4L2049.89 1530.6L2033.33 1550.92L2059.65 1592.76L2059.01 1593.24ZM2012.21 1585V1584.6L2021.81 1583.4V1530.6L2012.21 1529.4V1529H2034.61V1529.4L2025.01 1530.6V1583.4L2034.61 1584.6V1585H2012.21ZM2117.46 1586.6C2100.34 1586.6 2087.46 1573.72 2087.46 1556.6C2087.46 1539.48 2100.34 1526.6 2117.46 1526.6C2134.58 1526.6 2147.46 1539.48 2147.46 1556.6C2147.46 1573.72 2134.58 1586.6 2117.46 1586.6ZM2117.46 1584.2C2133.06 1584.2 2144.1 1572.76 2144.1 1556.6C2144.1 1540.44 2133.06 1529 2117.46 1529C2101.86 1529 2090.82 1540.44 2090.82 1556.6C2090.82 1572.76 2101.86 1584.2 2117.46 1584.2ZM2227.22 1593.24L2196.98 1551L2197.22 1550.52L2201.78 1552.12H2202.9C2210.42 1552.12 2214.58 1547.64 2214.58 1541.8C2214.58 1535.8 2209.94 1531.4 2203.7 1531.4H2193.06V1583.4L2203.14 1584.6V1585H2180.26V1584.6L2189.86 1583.4V1530.6L2180.26 1529.4V1529H2204.34C2212.34 1529 2217.94 1534.2 2217.94 1541.64C2217.94 1548.84 2212.34 1554.12 2204.34 1554.12H2203.62L2227.86 1592.76L2227.22 1593.24ZM2286.68 1586.6C2269.56 1586.6 2256.68 1573.72 2256.68 1556.6C2256.68 1539.48 2269.56 1526.6 2286.68 1526.6C2303.8 1526.6 2316.68 1539.48 2316.68 1556.6C2316.68 1573.72 2303.8 1586.6 2286.68 1586.6ZM2286.68 1584.2C2302.28 1584.2 2313.32 1572.76 2313.32 1556.6C2313.32 1540.44 2302.28 1529 2286.68 1529C2271.08 1529 2260.04 1540.44 2260.04 1556.6C2260.04 1572.76 2271.08 1584.2 2286.68 1584.2ZM2349.48 1585V1584.6L2359.08 1583.4V1530.6L2349.48 1529.4V1529H2370.12C2378.52 1529 2384.52 1534.6 2384.52 1542.52C2384.52 1548.04 2381.56 1552.52 2377.08 1554.68C2384.04 1556.12 2389.08 1562.12 2389.08 1569.56C2389.08 1578.6 2382.44 1585 2373.08 1585H2349.48ZM2370.12 1554.2C2376.44 1554.2 2381.16 1549.32 2381.16 1542.76C2381.16 1536.28 2376.44 1531.4 2370.12 1531.4H2362.28V1554.2H2370.12ZM2362.28 1582.6H2373.08C2380.28 1582.6 2385.72 1577 2385.72 1569.48C2385.72 1562.12 2380.28 1556.44 2373.08 1556.44H2362.28V1582.6ZM2471.51 1593.24L2442.07 1551.88L2459.27 1530.6L2449.99 1529.4V1529H2472.31V1529.4L2462.39 1530.6L2445.83 1550.92L2472.15 1592.76L2471.51 1593.24ZM2424.71 1585V1584.6L2434.31 1583.4V1530.6L2424.71 1529.4V1529H2447.11V1529.4L2437.51 1530.6V1583.4L2447.11 1584.6V1585H2424.71ZM2499.95 1585V1584.6L2509.55 1583.4V1530.6L2499.95 1529.4V1529H2522.35V1529.4L2512.75 1530.6V1583.4L2522.35 1584.6V1585H2499.95ZM2592.72 1589L2565.92 1535.96V1583.4L2575.52 1584.6V1585H2553.92V1584.6L2563.52 1583.4V1525H2563.92L2590.72 1578.04V1530.6L2581.12 1529.4V1529H2602.72V1529.4L2593.12 1530.6V1589H2592.72ZM1490.95 1729V1728.6L1500.71 1727.4L1519.35 1670.6H1519.75L1538.23 1727.4L1547.99 1728.6V1729H1525.27V1728.6L1534.79 1727.4L1529.43 1710.68H1508.79L1503.35 1727.4L1512.87 1728.6V1729H1490.95ZM1509.51 1708.28H1528.63L1519.11 1678.52L1509.51 1708.28ZM1609.56 1733L1582.76 1679.96V1727.4L1592.36 1728.6V1729H1570.76V1728.6L1580.36 1727.4V1669H1580.76L1607.56 1722.04V1674.6L1597.96 1673.4V1673H1619.56V1673.4L1609.96 1674.6V1733H1609.56ZM1651.16 1729V1728.6L1660.76 1727.4V1674.6L1651.16 1673.4V1673H1679.96C1695.96 1673 1707.96 1685 1707.96 1701C1707.96 1717 1695.96 1729 1679.96 1729H1651.16ZM1663.96 1726.6H1679.88C1694.44 1726.6 1704.76 1716.04 1704.76 1701C1704.76 1685.96 1694.44 1675.4 1679.88 1675.4H1663.96V1726.6ZM1787.73 1737.24L1757.49 1695L1757.73 1694.52L1762.29 1696.12H1763.41C1770.93 1696.12 1775.09 1691.64 1775.09 1685.8C1775.09 1679.8 1770.45 1675.4 1764.21 1675.4H1753.57V1727.4L1763.65 1728.6V1729H1740.77V1728.6L1750.37 1727.4V1674.6L1740.77 1673.4V1673H1764.85C1772.85 1673 1778.45 1678.2 1778.45 1685.64C1778.45 1692.84 1772.85 1698.12 1764.85 1698.12H1764.13L1788.37 1736.76L1787.73 1737.24ZM1842.87 1707.88L1839.91 1700.44H1829.19V1726.6H1851.99L1853.19 1717H1853.59V1729H1816.39V1728.6L1825.99 1727.4V1674.6L1816.39 1673.4V1673H1852.79V1685H1852.39L1851.19 1675.4H1829.19V1698.2H1839.91L1842.87 1690.76L1843.27 1690.84L1841.43 1699.08V1699.56L1843.27 1707.8L1842.87 1707.88ZM1895.94 1729V1728.6L1905.54 1727.4V1703.4L1892.18 1674.6L1882.42 1673.4V1673H1905.3V1673.4L1895.86 1674.6L1907.46 1700.2L1918.98 1674.6L1909.54 1673.4V1673H1931.62V1673.4L1921.86 1674.6L1908.74 1702.68V1727.4L1917.38 1728.6V1729H1895.94ZM2024.29 1732.2L2008.85 1684.12V1727.4L2017.49 1728.6V1729H1996.85V1728.6L2006.45 1727.4V1669H2007.01L2024.77 1724.28L2042.69 1669H2043.25V1727.4L2052.85 1728.6V1729H2031.41V1728.6L2040.05 1727.4V1684.92L2024.69 1732.2H2024.29ZM2075.64 1729V1728.6L2085.4 1727.4L2104.04 1670.6H2104.44L2122.92 1727.4L2132.68 1728.6V1729H2109.96V1728.6L2119.48 1727.4L2114.12 1710.68H2093.48L2088.04 1727.4L2097.56 1728.6V1729H2075.64ZM2094.2 1708.28H2113.32L2103.8 1678.52L2094.2 1708.28ZM2155.84 1729V1728.6L2165.44 1727.4V1674.6L2155.84 1673.4V1673H2178.24V1673.4L2168.64 1674.6V1727.4L2178.24 1728.6V1729H2155.84ZM2241.02 1730.6C2223.9 1730.6 2211.02 1717.72 2211.02 1700.6C2211.02 1683.48 2223.9 1670.6 2241.02 1670.6C2253.58 1670.6 2263.9 1677.56 2268.46 1688.04L2260.54 1698.12L2260.22 1698.04L2265.34 1688.68C2261.42 1679.24 2252.38 1673 2241.02 1673C2225.42 1673 2214.38 1684.44 2214.38 1700.6C2214.38 1716.76 2225.42 1728.2 2241.02 1728.2C2252.86 1728.2 2262.06 1721.64 2265.82 1711.4V1707.16L2266.14 1707.08L2268.86 1712.12C2264.54 1723.16 2253.98 1730.6 2241.02 1730.6ZM2292.04 1729V1728.6L2301.8 1727.4L2320.44 1670.6H2320.84L2339.32 1727.4L2349.08 1728.6V1729H2326.36V1728.6L2335.88 1727.4L2330.52 1710.68H2309.88L2304.44 1727.4L2313.96 1728.6V1729H2292.04ZM2310.6 1708.28H2329.72L2320.2 1678.52L2310.6 1708.28Z" fill="#E3E1D3"/>
</svg>
