<svg width="3840" height="2160" viewBox="0 0 3840 2160" fill="none" xmlns="http://www.w3.org/2000/svg">
<rect width="3840" height="2160" fill="black"/>
<path d="M1767.85 409L1761.88 387.182H1764.56L1769.12 404.952H1769.34L1773.98 387.182H1776.96L1781.61 404.952H1781.82L1786.38 387.182H1789.07L1783.1 409H1780.37L1775.56 391.614H1775.39L1770.57 409H1767.85ZM1807.36 409V387.182H1814.73C1816.44 387.182 1817.83 387.473 1818.93 388.055C1820.02 388.631 1820.83 389.423 1821.36 390.431C1821.88 391.44 1822.15 392.587 1822.15 393.872C1822.15 395.158 1821.88 396.298 1821.36 397.292C1820.83 398.286 1820.03 399.067 1818.94 399.636C1817.85 400.197 1816.46 400.477 1814.77 400.477H1808.81V398.091H1814.69C1815.85 398.091 1816.79 397.92 1817.5 397.58C1818.22 397.239 1818.74 396.756 1819.06 396.131C1819.38 395.499 1819.55 394.746 1819.55 393.872C1819.55 392.999 1819.38 392.235 1819.06 391.582C1818.73 390.928 1818.21 390.424 1817.49 390.069C1816.77 389.707 1815.82 389.526 1814.65 389.526H1810V409H1807.36ZM1817.63 399.199L1823 409H1819.93L1814.65 399.199H1817.63ZM1844.19 387.182V409H1841.55V387.182H1844.19ZM1863.29 389.526V387.182H1879.66V389.526H1872.8V409H1870.16V389.526H1863.29ZM1897.54 389.526V387.182H1913.91V389.526H1907.05V409H1904.4V389.526H1897.54ZM1932.98 409V387.182H1946.15V389.526H1935.63V396.898H1945.47V399.241H1935.63V406.656H1946.32V409H1932.98ZM1983.21 387.182V409H1980.66L1968.77 391.869H1968.56V409H1965.91V387.182H1968.47L1980.4 404.355H1980.62V387.182H1983.21ZM2026.94 409V387.182H2034.57C2036.09 387.182 2037.34 387.445 2038.33 387.97C2039.31 388.489 2040.05 389.188 2040.53 390.069C2041.02 390.942 2041.26 391.912 2041.26 392.977C2041.26 393.915 2041.09 394.689 2040.76 395.3C2040.43 395.911 2040 396.393 2039.46 396.749C2038.92 397.104 2038.35 397.366 2037.72 397.537V397.75C2038.39 397.793 2039.06 398.027 2039.73 398.453C2040.41 398.879 2040.97 399.49 2041.43 400.286C2041.88 401.081 2042.11 402.054 2042.11 403.205C2042.11 404.298 2041.86 405.282 2041.36 406.156C2040.87 407.029 2040.08 407.722 2039.01 408.233C2037.94 408.744 2036.54 409 2034.82 409H2026.94ZM2029.58 406.656H2034.82C2036.55 406.656 2037.77 406.322 2038.5 405.655C2039.23 404.98 2039.6 404.163 2039.6 403.205C2039.6 402.466 2039.41 401.784 2039.03 401.159C2038.65 400.527 2038.12 400.023 2037.42 399.646C2036.73 399.263 2035.9 399.071 2034.95 399.071H2029.58V406.656ZM2029.58 396.77H2034.48C2035.28 396.77 2035.99 396.614 2036.63 396.301C2037.28 395.989 2037.79 395.548 2038.17 394.98C2038.55 394.412 2038.74 393.744 2038.74 392.977C2038.74 392.018 2038.41 391.205 2037.74 390.538C2037.07 389.863 2036.02 389.526 2034.57 389.526H2029.58V396.77ZM2059.58 387.182H2062.6L2068.65 397.366H2068.91L2074.96 387.182H2077.98L2070.1 400.009V409H2067.46V400.009L2059.58 387.182Z" fill="#E3E1D3"/>
<path d="M1487.21 517L1460.41 463.96V511.4L1470.01 512.6V513H1448.41V512.6L1458.01 511.4V453H1458.41L1485.21 506.04V458.6L1475.61 457.4V457H1497.21V457.4L1487.61 458.6V517H1487.21ZM1520.01 513V512.6L1529.77 511.4L1548.41 454.6H1548.81L1567.29 511.4L1577.05 512.6V513H1554.33V512.6L1563.85 511.4L1558.49 494.68H1537.85L1532.41 511.4L1541.93 512.6V513H1520.01ZM1538.57 492.28H1557.69L1548.17 462.52L1538.57 492.28ZM1602.94 513V512.6L1612.54 511.4V459.4H1597.9L1595.42 468.84L1595.02 468.76L1596.46 458.44L1596.62 457H1631.82L1631.98 458.44L1633.42 468.76L1633.02 468.84L1630.54 459.4H1615.74V511.4L1624.38 512.6V513H1602.94ZM1651.42 513V512.6L1661.18 511.4L1679.82 454.6H1680.22L1698.7 511.4L1708.46 512.6V513H1685.74V512.6L1695.26 511.4L1689.9 494.68H1669.26L1663.82 511.4L1673.34 512.6V513H1651.42ZM1669.98 492.28H1689.1L1679.58 462.52L1669.98 492.28ZM1731.63 513V512.6L1741.23 511.4V458.6L1731.63 457.4V457H1754.51V457.4L1744.43 458.6V510.6H1766.74L1769.23 501.16L1769.63 501.24L1768.19 511.56L1768.03 513H1731.63ZM1801.63 513V512.6L1811.23 511.4V458.6L1801.63 457.4V457H1824.03V457.4L1814.43 458.6V511.4L1824.03 512.6V513H1801.63ZM1847.2 513V512.6L1856.96 511.4L1875.6 454.6H1876L1894.48 511.4L1904.24 512.6V513H1881.52V512.6L1891.04 511.4L1885.68 494.68H1865.04L1859.6 511.4L1869.12 512.6V513H1847.2ZM1865.76 492.28H1884.88L1875.36 462.52L1865.76 492.28ZM1967.02 513V512.6L1976.62 511.4V458.6L1967.02 457.4V457H1987.66C1996.06 457 2002.06 462.6 2002.06 470.52C2002.06 476.04 1999.1 480.52 1994.62 482.68C2001.58 484.12 2006.62 490.12 2006.62 497.56C2006.62 506.6 1999.98 513 1990.62 513H1967.02ZM1987.66 482.2C1993.98 482.2 1998.7 477.32 1998.7 470.76C1998.7 464.28 1993.98 459.4 1987.66 459.4H1979.82V482.2H1987.66ZM1979.82 510.6H1990.62C1997.82 510.6 2003.26 505 2003.26 497.48C2003.26 490.12 1997.82 484.44 1990.62 484.44H1979.82V510.6ZM2065.77 514.6C2058.57 514.6 2051.45 509.4 2051.45 498.92V458.6L2041.85 457.4V457H2063.29V457.4L2054.65 458.6V498.6C2054.65 506.36 2059.45 511.8 2066.25 511.8C2073.05 511.8 2077.85 506.44 2077.85 498.92V458.6L2069.21 457.4V457H2089.85V457.4L2080.25 458.6V498.6C2080.25 509.32 2072.97 514.6 2065.77 514.6ZM2127.39 513V512.6L2136.99 511.4V459.4H2122.35L2119.87 468.84L2119.47 468.76L2120.91 458.44L2121.07 457H2156.27L2156.43 458.44L2157.87 468.76L2157.47 468.84L2154.99 459.4H2140.19V511.4L2148.83 512.6V513H2127.39ZM2217.89 514.6C2200.77 514.6 2187.89 501.72 2187.89 484.6C2187.89 467.48 2200.77 454.6 2217.89 454.6C2235.01 454.6 2247.89 467.48 2247.89 484.6C2247.89 501.72 2235.01 514.6 2217.89 514.6ZM2217.89 512.2C2233.49 512.2 2244.53 500.76 2244.53 484.6C2244.53 468.44 2233.49 457 2217.89 457C2202.29 457 2191.25 468.44 2191.25 484.6C2191.25 500.76 2202.29 512.2 2217.89 512.2ZM2300.93 516.2L2282.37 458.6L2272.69 457.4V457H2295.41V457.4L2285.89 458.6L2301.57 508.2L2317.33 458.6L2307.81 457.4V457H2329.73V457.4L2320.05 458.6L2301.33 516.2H2300.93ZM2342.98 513V512.6L2352.74 511.4L2371.38 454.6H2371.78L2390.26 511.4L2400.02 512.6V513H2377.3V512.6L2386.82 511.4L2381.46 494.68H2360.82L2355.38 511.4L2364.9 512.6V513H2342.98ZM2361.54 492.28H2380.66L2371.14 462.52L2361.54 492.28ZM1562.66 626.6C1545.54 626.6 1532.66 613.72 1532.66 596.6C1532.66 579.48 1545.54 566.6 1562.66 566.6C1579.78 566.6 1592.66 579.48 1592.66 596.6C1592.66 613.72 1579.78 626.6 1562.66 626.6ZM1562.66 624.2C1578.26 624.2 1589.3 612.76 1589.3 596.6C1589.3 580.44 1578.26 569 1562.66 569C1547.06 569 1536.02 580.44 1536.02 596.6C1536.02 612.76 1547.06 624.2 1562.66 624.2ZM1625.45 625V624.6L1635.05 623.4V570.6L1625.45 569.4V569H1648.33V569.4L1638.25 570.6V622.6H1660.57L1663.05 613.16L1663.45 613.24L1662.01 623.56L1661.85 625H1625.45ZM1686.65 625V624.6L1696.41 623.4L1715.05 566.6H1715.45L1733.93 623.4L1743.69 624.6V625H1720.97V624.6L1730.49 623.4L1725.13 606.68H1704.49L1699.05 623.4L1708.57 624.6V625H1686.65ZM1705.21 604.28H1724.33L1714.81 574.52L1705.21 604.28ZM1806.47 625V624.6L1816.07 623.4V570.6L1806.47 569.4V569H1829.59C1838.95 569 1844.95 574.68 1844.95 583.48C1844.95 592.2 1838.95 597.8 1829.59 597.8H1819.27V623.4L1829.35 624.6V625H1806.47ZM1819.27 595.4H1829.35C1836.63 595.4 1841.59 590.52 1841.59 583.4C1841.59 576.28 1836.63 571.4 1829.35 571.4H1819.27V595.4ZM1869.39 625V624.6L1879.15 623.4L1897.79 566.6H1898.19L1916.67 623.4L1926.43 624.6V625H1903.71V624.6L1913.23 623.4L1907.87 606.68H1887.23L1881.79 623.4L1891.31 624.6V625H1869.39ZM1887.95 604.28H1907.07L1897.55 574.52L1887.95 604.28ZM1987.99 629L1961.19 575.96V623.4L1970.79 624.6V625H1949.19V624.6L1958.79 623.4V565H1959.19L1985.99 618.04V570.6L1976.39 569.4V569H1997.99V569.4L1988.39 570.6V629H1987.99ZM2076.39 633.24L2046.95 591.88L2064.15 570.6L2054.87 569.4V569H2077.19V569.4L2067.27 570.6L2050.71 590.92L2077.03 632.76L2076.39 633.24ZM2029.59 625V624.6L2039.19 623.4V570.6L2029.59 569.4V569H2051.99V569.4L2042.39 570.6V623.4L2051.99 624.6V625H2029.59ZM2134.85 626.6C2117.73 626.6 2104.85 613.72 2104.85 596.6C2104.85 579.48 2117.73 566.6 2134.85 566.6C2151.97 566.6 2164.85 579.48 2164.85 596.6C2164.85 613.72 2151.97 626.6 2134.85 626.6ZM2134.85 624.2C2150.45 624.2 2161.49 612.76 2161.49 596.6C2161.49 580.44 2150.45 569 2134.85 569C2119.25 569 2108.21 580.44 2108.21 596.6C2108.21 612.76 2119.25 624.2 2134.85 624.2ZM2217.88 628.2L2199.32 570.6L2189.64 569.4V569H2212.36V569.4L2202.84 570.6L2218.52 620.2L2234.28 570.6L2224.76 569.4V569H2246.68V569.4L2237 570.6L2218.28 628.2H2217.88ZM2259.93 625V624.6L2269.69 623.4L2288.33 566.6H2288.73L2307.21 623.4L2316.97 624.6V625H2294.25V624.6L2303.77 623.4L2298.41 606.68H2277.77L2272.33 623.4L2281.85 624.6V625H2259.93ZM2278.49 604.28H2297.61L2288.09 574.52L2278.49 604.28Z" fill="#E3E1D3"/>
<path d="M1747.97 747V725.182H1755.35C1757.06 725.182 1758.46 725.491 1759.54 726.109C1760.64 726.719 1761.45 727.547 1761.97 728.591C1762.5 729.635 1762.76 730.8 1762.76 732.085C1762.76 733.371 1762.5 734.539 1761.97 735.59C1761.45 736.641 1760.65 737.479 1759.56 738.104C1758.48 738.722 1757.09 739.031 1755.39 739.031H1750.1V736.688H1755.3C1756.48 736.688 1757.42 736.485 1758.13 736.08C1758.84 735.675 1759.35 735.129 1759.67 734.44C1760 733.744 1760.16 732.959 1760.16 732.085C1760.16 731.212 1760 730.43 1759.67 729.741C1759.35 729.053 1758.83 728.513 1758.12 728.122C1757.4 727.724 1756.45 727.526 1755.26 727.526H1750.62V747H1747.97ZM1782.02 747V725.182H1789.39C1791.09 725.182 1792.49 725.473 1793.59 726.055C1794.68 726.631 1795.49 727.423 1796.02 728.431C1796.54 729.44 1796.8 730.587 1796.8 731.872C1796.8 733.158 1796.54 734.298 1796.02 735.292C1795.49 736.286 1794.68 737.067 1793.6 737.636C1792.51 738.197 1791.12 738.477 1789.43 738.477H1783.47V736.091H1789.35C1790.51 736.091 1791.45 735.92 1792.16 735.58C1792.88 735.239 1793.39 734.756 1793.71 734.131C1794.04 733.499 1794.2 732.746 1794.2 731.872C1794.2 730.999 1794.04 730.235 1793.71 729.582C1793.39 728.928 1792.87 728.424 1792.15 728.069C1791.43 727.707 1790.48 727.526 1789.3 727.526H1784.66V747H1782.02ZM1792.29 737.199L1797.66 747H1794.59L1789.3 737.199H1792.29ZM1834.62 736.091C1834.62 738.392 1834.2 740.381 1833.37 742.057C1832.54 743.733 1831.4 745.026 1829.95 745.935C1828.5 746.844 1826.85 747.298 1824.98 747.298C1823.12 747.298 1821.47 746.844 1820.02 745.935C1818.57 745.026 1817.43 743.733 1816.6 742.057C1815.77 740.381 1815.35 738.392 1815.35 736.091C1815.35 733.79 1815.77 731.801 1816.6 730.125C1817.43 728.449 1818.57 727.156 1820.02 726.247C1821.47 725.338 1823.12 724.884 1824.98 724.884C1826.85 724.884 1828.5 725.338 1829.95 726.247C1831.4 727.156 1832.54 728.449 1833.37 730.125C1834.2 731.801 1834.62 733.79 1834.62 736.091ZM1832.06 736.091C1832.06 734.202 1831.74 732.607 1831.11 731.308C1830.49 730.008 1829.64 729.024 1828.56 728.357C1827.5 727.689 1826.31 727.355 1824.98 727.355C1823.66 727.355 1822.47 727.689 1821.39 728.357C1820.33 729.024 1819.48 730.008 1818.85 731.308C1818.22 732.607 1817.91 734.202 1817.91 736.091C1817.91 737.98 1818.22 739.575 1818.85 740.874C1819.48 742.174 1820.33 743.158 1821.39 743.825C1822.47 744.493 1823.66 744.827 1824.98 744.827C1826.31 744.827 1827.5 744.493 1828.56 743.825C1829.64 743.158 1830.49 742.174 1831.11 740.874C1831.74 739.575 1832.06 737.98 1832.06 736.091ZM1860.79 747H1854.06V725.182H1861.09C1863.21 725.182 1865.02 725.619 1866.52 726.492C1868.03 727.359 1869.18 728.605 1869.98 730.232C1870.79 731.851 1871.19 733.79 1871.19 736.048C1871.19 738.321 1870.78 740.278 1869.97 741.918C1869.16 743.552 1867.99 744.809 1866.44 745.69C1864.89 746.563 1863.01 747 1860.79 747ZM1856.7 744.656H1860.62C1862.42 744.656 1863.92 744.308 1865.11 743.612C1866.29 742.916 1867.18 741.925 1867.76 740.64C1868.34 739.354 1868.63 737.824 1868.63 736.048C1868.63 734.287 1868.34 732.771 1867.77 731.499C1867.19 730.221 1866.33 729.241 1865.19 728.559C1864.05 727.87 1862.62 727.526 1860.92 727.526H1856.7V744.656ZM1904.94 725.182H1907.58V739.628C1907.58 741.119 1907.23 742.451 1906.53 743.623C1905.83 744.788 1904.85 745.707 1903.58 746.382C1902.3 747.05 1900.81 747.384 1899.1 747.384C1897.39 747.384 1895.9 747.05 1894.63 746.382C1893.35 745.707 1892.37 744.788 1891.66 743.623C1890.97 742.451 1890.62 741.119 1890.62 739.628V725.182H1893.26V739.415C1893.26 740.48 1893.5 741.428 1893.97 742.259C1894.43 743.083 1895.1 743.733 1895.97 744.209C1896.84 744.678 1897.89 744.912 1899.1 744.912C1900.32 744.912 1901.36 744.678 1902.23 744.209C1903.11 743.733 1903.77 743.083 1904.24 742.259C1904.7 741.428 1904.94 740.48 1904.94 739.415V725.182ZM1945.41 732H1942.77C1942.62 731.24 1942.34 730.572 1941.95 729.997C1941.57 729.422 1941.1 728.939 1940.55 728.548C1940 728.151 1939.39 727.852 1938.72 727.653C1938.06 727.455 1937.36 727.355 1936.64 727.355C1935.31 727.355 1934.12 727.689 1933.05 728.357C1931.98 729.024 1931.13 730.008 1930.5 731.308C1929.87 732.607 1929.56 734.202 1929.56 736.091C1929.56 737.98 1929.87 739.575 1930.5 740.874C1931.13 742.174 1931.98 743.158 1933.05 743.825C1934.12 744.493 1935.31 744.827 1936.64 744.827C1937.36 744.827 1938.06 744.727 1938.72 744.528C1939.39 744.33 1940 744.035 1940.55 743.644C1941.1 743.246 1941.57 742.76 1941.95 742.185C1942.34 741.602 1942.62 740.935 1942.77 740.182H1945.41C1945.21 741.297 1944.85 742.295 1944.33 743.175C1943.8 744.056 1943.15 744.805 1942.37 745.423C1941.59 746.034 1940.71 746.499 1939.74 746.819C1938.77 747.138 1937.74 747.298 1936.64 747.298C1934.77 747.298 1933.12 746.844 1931.67 745.935C1930.22 745.026 1929.08 743.733 1928.25 742.057C1927.42 740.381 1927 738.392 1927 736.091C1927 733.79 1927.42 731.801 1928.25 730.125C1929.08 728.449 1930.22 727.156 1931.67 726.247C1933.12 725.338 1934.77 724.884 1936.64 724.884C1937.74 724.884 1938.77 725.043 1939.74 725.363C1940.71 725.683 1941.59 726.151 1942.37 726.769C1943.15 727.38 1943.8 728.126 1944.33 729.006C1944.85 729.88 1945.21 730.878 1945.41 732ZM1963.49 727.526V725.182H1979.85V727.526H1972.99V747H1970.35V727.526H1963.49ZM2001.57 725.182V747H1998.93V725.182H2001.57ZM2040.28 736.091C2040.28 738.392 2039.86 740.381 2039.03 742.057C2038.2 743.733 2037.06 745.026 2035.61 745.935C2034.16 746.844 2032.51 747.298 2030.65 747.298C2028.79 747.298 2027.13 746.844 2025.68 745.935C2024.24 745.026 2023.1 743.733 2022.26 742.057C2021.43 740.381 2021.02 738.392 2021.02 736.091C2021.02 733.79 2021.43 731.801 2022.26 730.125C2023.1 728.449 2024.24 727.156 2025.68 726.247C2027.13 725.338 2028.79 724.884 2030.65 724.884C2032.51 724.884 2034.16 725.338 2035.61 726.247C2037.06 727.156 2038.2 728.449 2039.03 730.125C2039.86 731.801 2040.28 733.79 2040.28 736.091ZM2037.72 736.091C2037.72 734.202 2037.41 732.607 2036.77 731.308C2036.15 730.008 2035.3 729.024 2034.23 728.357C2033.16 727.689 2031.97 727.355 2030.65 727.355C2029.33 727.355 2028.13 727.689 2027.06 728.357C2025.99 729.024 2025.14 730.008 2024.51 731.308C2023.89 732.607 2023.58 734.202 2023.58 736.091C2023.58 737.98 2023.89 739.575 2024.51 740.874C2025.14 742.174 2025.99 743.158 2027.06 743.825C2028.13 744.493 2029.33 744.827 2030.65 744.827C2031.97 744.827 2033.16 744.493 2034.23 743.825C2035.3 743.158 2036.15 742.174 2036.77 740.874C2037.41 739.575 2037.72 737.98 2037.72 736.091ZM2077.02 725.182V747H2074.47L2062.58 729.869H2062.36V747H2059.72V725.182H2062.28L2074.21 742.355H2074.42V725.182H2077.02Z" fill="#E3E1D3"/>
<path d="M1591.47 851V850.6L1601.07 849.4V796.6L1591.47 795.4V795H1612.11C1620.51 795 1626.51 800.6 1626.51 808.52C1626.51 814.04 1623.55 818.52 1619.07 820.68C1626.03 822.12 1631.07 828.12 1631.07 835.56C1631.07 844.6 1624.43 851 1615.07 851H1591.47ZM1612.11 820.2C1618.43 820.2 1623.15 815.32 1623.15 808.76C1623.15 802.28 1618.43 797.4 1612.11 797.4H1604.27V820.2H1612.11ZM1604.27 848.6H1615.07C1622.27 848.6 1627.71 843 1627.71 835.48C1627.71 828.12 1622.27 822.44 1615.07 822.44H1604.27V848.6ZM1657.9 851V850.6L1667.66 849.4L1686.3 792.6H1686.7L1705.18 849.4L1714.94 850.6V851H1692.22V850.6L1701.74 849.4L1696.38 832.68H1675.74L1670.3 849.4L1679.82 850.6V851H1657.9ZM1676.46 830.28H1695.58L1686.06 800.52L1676.46 830.28ZM1784.91 859.24L1755.47 817.88L1772.67 796.6L1763.39 795.4V795H1785.71V795.4L1775.79 796.6L1759.23 816.92L1785.55 858.76L1784.91 859.24ZM1738.11 851V850.6L1747.71 849.4V796.6L1738.11 795.4V795H1760.51V795.4L1750.91 796.6V849.4L1760.51 850.6V851H1738.11ZM1839.82 829.88L1836.86 822.44H1826.14V848.6H1848.94L1850.14 839H1850.54V851H1813.34V850.6L1822.94 849.4V796.6L1813.34 795.4V795H1849.74V807H1849.34L1848.14 797.4H1826.14V820.2H1836.86L1839.82 812.76L1840.22 812.84L1838.38 821.08V821.56L1840.22 829.8L1839.82 829.88ZM1911.94 851V850.6L1920.58 849.4V822.6H1898.18V849.4L1906.82 850.6V851H1885.38V850.6L1894.98 849.4V796.6L1885.38 795.4V795H1906.82V795.4L1898.18 796.6V820.2H1920.58V796.6L1911.94 795.4V795H1933.38V795.4L1923.78 796.6V849.4L1933.38 850.6V851H1911.94ZM1996.18 852.6C1979.06 852.6 1966.18 839.72 1966.18 822.6C1966.18 805.48 1979.06 792.6 1996.18 792.6C2013.3 792.6 2026.18 805.48 2026.18 822.6C2026.18 839.72 2013.3 852.6 1996.18 852.6ZM1996.18 850.2C2011.78 850.2 2022.82 838.76 2022.82 822.6C2022.82 806.44 2011.78 795 1996.18 795C1980.58 795 1969.54 806.44 1969.54 822.6C1969.54 838.76 1980.58 850.2 1996.18 850.2ZM2082.49 852.6C2075.29 852.6 2068.17 847.4 2068.17 836.92V796.6L2058.57 795.4V795H2080.01V795.4L2071.37 796.6V836.6C2071.37 844.36 2076.17 849.8 2082.97 849.8C2089.77 849.8 2094.57 844.44 2094.57 836.92V796.6L2085.93 795.4V795H2106.57V795.4L2096.97 796.6V836.6C2096.97 847.32 2089.69 852.6 2082.49 852.6ZM2157.31 852.52C2149.15 852.52 2140.99 847.4 2140.99 837.08L2151.07 828.2L2151.31 828.44L2144.35 836.92C2144.35 845.72 2150.83 850.12 2157.31 850.12C2164.83 850.12 2170.43 844.68 2170.43 837.48C2170.43 831.56 2167.07 827 2160.91 824.04L2153.55 820.6C2145.55 816.92 2142.27 811.4 2142.27 806.2C2142.27 798.44 2148.75 792.6 2157.31 792.6C2164.83 792.6 2171.87 797.32 2172.19 807L2163.47 814.2L2163.23 813.96L2169.23 806.92C2168.83 798.92 2163.15 795 2157.31 795C2150.35 795 2145.15 799.8 2145.15 806.2C2145.15 810.28 2147.79 814.68 2154.67 817.64L2162.11 821C2169.55 824.28 2173.71 830.12 2173.71 837.24C2173.71 845.96 2166.67 852.52 2157.31 852.52ZM2234.98 829.88L2232.02 822.44H2221.3V848.6H2244.1L2245.3 839H2245.7V851H2208.5V850.6L2218.1 849.4V796.6L2208.5 795.4V795H2244.9V807H2244.5L2243.3 797.4H2221.3V820.2H2232.02L2234.98 812.76L2235.38 812.84L2233.54 821.08V821.56L2235.38 829.8L2234.98 829.88Z" fill="#E3E1D3"/>
<path d="M1771.16 973V951.182H1778.53C1780.25 951.182 1781.65 951.491 1782.73 952.109C1783.83 952.719 1784.64 953.547 1785.16 954.591C1785.69 955.635 1785.95 956.8 1785.95 958.085C1785.95 959.371 1785.69 960.539 1785.16 961.59C1784.64 962.641 1783.84 963.479 1782.75 964.104C1781.67 964.722 1780.27 965.031 1778.58 965.031H1773.29V962.688H1778.49C1779.66 962.688 1780.61 962.485 1781.32 962.08C1782.03 961.675 1782.54 961.129 1782.86 960.44C1783.19 959.744 1783.35 958.959 1783.35 958.085C1783.35 957.212 1783.19 956.43 1782.86 955.741C1782.54 955.053 1782.02 954.513 1781.3 954.122C1780.59 953.724 1779.64 953.526 1778.45 953.526H1773.8V973H1771.16ZM1805.21 973V951.182H1812.58C1814.28 951.182 1815.68 951.473 1816.78 952.055C1817.87 952.631 1818.68 953.423 1819.2 954.431C1819.73 955.44 1819.99 956.587 1819.99 957.872C1819.99 959.158 1819.73 960.298 1819.2 961.292C1818.68 962.286 1817.87 963.067 1816.79 963.636C1815.7 964.197 1814.31 964.477 1812.62 964.477H1806.65V962.091H1812.54C1813.7 962.091 1814.64 961.92 1815.35 961.58C1816.06 961.239 1816.58 960.756 1816.9 960.131C1817.23 959.499 1817.39 958.746 1817.39 957.872C1817.39 956.999 1817.23 956.235 1816.9 955.582C1816.58 954.928 1816.05 954.424 1815.34 954.069C1814.62 953.707 1813.67 953.526 1812.49 953.526H1807.85V973H1805.21ZM1815.48 963.199L1820.84 973H1817.78L1812.49 963.199H1815.48ZM1857.8 962.091C1857.8 964.392 1857.39 966.381 1856.56 968.057C1855.73 969.733 1854.59 971.026 1853.14 971.935C1851.69 972.844 1850.03 973.298 1848.17 973.298C1846.31 973.298 1844.66 972.844 1843.21 971.935C1841.76 971.026 1840.62 969.733 1839.79 968.057C1838.96 966.381 1838.54 964.392 1838.54 962.091C1838.54 959.79 1838.96 957.801 1839.79 956.125C1840.62 954.449 1841.76 953.156 1843.21 952.247C1844.66 951.338 1846.31 950.884 1848.17 950.884C1850.03 950.884 1851.69 951.338 1853.14 952.247C1854.59 953.156 1855.73 954.449 1856.56 956.125C1857.39 957.801 1857.8 959.79 1857.8 962.091ZM1855.25 962.091C1855.25 960.202 1854.93 958.607 1854.3 957.308C1853.67 956.008 1852.83 955.024 1851.75 954.357C1850.69 953.689 1849.49 953.355 1848.17 953.355C1846.85 953.355 1845.66 953.689 1844.58 954.357C1843.52 955.024 1842.67 956.008 1842.04 957.308C1841.41 958.607 1841.1 960.202 1841.1 962.091C1841.1 963.98 1841.41 965.575 1842.04 966.874C1842.67 968.174 1843.52 969.158 1844.58 969.825C1845.66 970.493 1846.85 970.827 1848.17 970.827C1849.49 970.827 1850.69 970.493 1851.75 969.825C1852.83 969.158 1853.67 968.174 1854.3 966.874C1854.93 965.575 1855.25 963.98 1855.25 962.091ZM1883.98 973H1877.25V951.182H1884.28C1886.39 951.182 1888.21 951.619 1889.71 952.492C1891.22 953.359 1892.37 954.605 1893.17 956.232C1893.98 957.851 1894.38 959.79 1894.38 962.048C1894.38 964.321 1893.97 966.278 1893.16 967.918C1892.35 969.552 1891.17 970.809 1889.63 971.69C1888.08 972.563 1886.2 973 1883.98 973ZM1879.89 970.656H1883.81C1885.61 970.656 1887.11 970.308 1888.29 969.612C1889.48 968.916 1890.36 967.925 1890.95 966.64C1891.53 965.354 1891.82 963.824 1891.82 962.048C1891.82 960.287 1891.53 958.771 1890.96 957.499C1890.38 956.221 1889.52 955.241 1888.38 954.559C1887.24 953.87 1885.81 953.526 1884.11 953.526H1879.89V970.656ZM1928.13 951.182H1930.77V965.628C1930.77 967.119 1930.42 968.451 1929.71 969.623C1929.02 970.788 1928.03 971.707 1926.76 972.382C1925.49 973.05 1924 973.384 1922.29 973.384C1920.58 973.384 1919.09 973.05 1917.81 972.382C1916.54 971.707 1915.56 970.788 1914.85 969.623C1914.16 968.451 1913.81 967.119 1913.81 965.628V951.182H1916.45V965.415C1916.45 966.48 1916.69 967.428 1917.15 968.259C1917.62 969.083 1918.29 969.733 1919.16 970.209C1920.03 970.678 1921.07 970.912 1922.29 970.912C1923.5 970.912 1924.55 970.678 1925.42 970.209C1926.29 969.733 1926.96 969.083 1927.42 968.259C1927.89 967.428 1928.13 966.48 1928.13 965.415V951.182ZM1968.6 958H1965.96C1965.8 957.24 1965.53 956.572 1965.14 955.997C1964.76 955.422 1964.29 954.939 1963.73 954.548C1963.19 954.151 1962.58 953.852 1961.91 953.653C1961.24 953.455 1960.55 953.355 1959.82 953.355C1958.5 953.355 1957.31 953.689 1956.23 954.357C1955.17 955.024 1954.32 956.008 1953.69 957.308C1953.06 958.607 1952.75 960.202 1952.75 962.091C1952.75 963.98 1953.06 965.575 1953.69 966.874C1954.32 968.174 1955.17 969.158 1956.23 969.825C1957.31 970.493 1958.5 970.827 1959.82 970.827C1960.55 970.827 1961.24 970.727 1961.91 970.528C1962.58 970.33 1963.19 970.035 1963.73 969.644C1964.29 969.246 1964.76 968.76 1965.14 968.185C1965.53 967.602 1965.8 966.935 1965.96 966.182H1968.6C1968.4 967.297 1968.04 968.295 1967.52 969.175C1966.99 970.056 1966.34 970.805 1965.56 971.423C1964.77 972.034 1963.9 972.499 1962.92 972.819C1961.96 973.138 1960.92 973.298 1959.82 973.298C1957.96 973.298 1956.31 972.844 1954.86 971.935C1953.41 971.026 1952.27 969.733 1951.44 968.057C1950.61 966.381 1950.19 964.392 1950.19 962.091C1950.19 959.79 1950.61 957.801 1951.44 956.125C1952.27 954.449 1953.41 953.156 1954.86 952.247C1956.31 951.338 1957.96 950.884 1959.82 950.884C1960.92 950.884 1961.96 951.043 1962.92 951.363C1963.9 951.683 1964.77 952.151 1965.56 952.769C1966.34 953.38 1966.99 954.126 1967.52 955.006C1968.04 955.88 1968.4 956.878 1968.6 958ZM1987.87 973V951.182H2001.04V953.526H1990.51V960.898H2000.36V963.241H1990.51V970.656H2001.21V973H1987.87ZM2020.8 973V951.182H2028.17C2029.88 951.182 2031.28 951.473 2032.37 952.055C2033.46 952.631 2034.27 953.423 2034.8 954.431C2035.33 955.44 2035.59 956.587 2035.59 957.872C2035.59 959.158 2035.33 960.298 2034.8 961.292C2034.27 962.286 2033.47 963.067 2032.38 963.636C2031.29 964.197 2029.91 964.477 2028.22 964.477H2022.25V962.091H2028.13C2029.3 962.091 2030.23 961.92 2030.94 961.58C2031.66 961.239 2032.18 960.756 2032.5 960.131C2032.83 959.499 2032.99 958.746 2032.99 957.872C2032.99 956.999 2032.83 956.235 2032.5 955.582C2032.17 954.928 2031.65 954.424 2030.93 954.069C2030.22 953.707 2029.27 953.526 2028.09 953.526H2023.44V973H2020.8ZM2031.07 963.199L2036.44 973H2033.37L2028.09 963.199H2031.07ZM2066.92 956.636C2066.79 955.557 2066.28 954.719 2065.37 954.122C2064.46 953.526 2063.34 953.227 2062.02 953.227C2061.06 953.227 2060.21 953.384 2059.49 953.696C2058.77 954.009 2058.21 954.438 2057.8 954.985C2057.41 955.532 2057.21 956.153 2057.21 956.849C2057.21 957.432 2057.35 957.933 2057.62 958.352C2057.91 958.763 2058.27 959.108 2058.71 959.385C2059.15 959.655 2059.61 959.879 2060.09 960.056C2060.58 960.227 2061.02 960.365 2061.43 960.472L2063.64 961.068C2064.21 961.217 2064.84 961.423 2065.54 961.686C2066.24 961.949 2066.91 962.308 2067.55 962.762C2068.2 963.21 2068.73 963.785 2069.15 964.488C2069.57 965.191 2069.78 966.054 2069.78 967.077C2069.78 968.256 2069.47 969.321 2068.85 970.273C2068.24 971.224 2067.35 971.981 2066.17 972.542C2064.99 973.103 2063.57 973.384 2061.89 973.384C2060.33 973.384 2058.98 973.131 2057.84 972.627C2056.7 972.123 2055.8 971.42 2055.15 970.518C2054.5 969.616 2054.14 968.568 2054.05 967.375H2056.78C2056.85 968.199 2057.13 968.881 2057.61 969.42C2058.1 969.953 2058.72 970.351 2059.47 970.614C2060.22 970.869 2061.03 970.997 2061.89 970.997C2062.9 970.997 2063.81 970.834 2064.61 970.507C2065.41 970.173 2066.05 969.712 2066.52 969.122C2066.99 968.526 2067.22 967.83 2067.22 967.034C2067.22 966.31 2067.02 965.72 2066.61 965.266C2066.21 964.811 2065.68 964.442 2065.02 964.158C2064.36 963.874 2063.64 963.625 2062.87 963.412L2060.19 962.645C2058.48 962.155 2057.14 961.455 2056.14 960.546C2055.15 959.637 2054.65 958.447 2054.65 956.977C2054.65 955.756 2054.98 954.69 2055.64 953.781C2056.31 952.865 2057.2 952.155 2058.33 951.651C2059.45 951.139 2060.72 950.884 2062.11 950.884C2063.51 950.884 2064.76 951.136 2065.86 951.64C2066.95 952.137 2067.82 952.819 2068.46 953.685C2069.1 954.552 2069.44 955.536 2069.48 956.636H2066.92Z" fill="#E3E1D3"/>
<path d="M1461.42 1077V1076.6L1471.18 1075.4L1489.82 1018.6H1490.22L1508.7 1075.4L1518.46 1076.6V1077H1495.74V1076.6L1505.26 1075.4L1499.9 1058.68H1479.26L1473.82 1075.4L1483.34 1076.6V1077H1461.42ZM1479.98 1056.28H1499.1L1489.58 1026.52L1479.98 1056.28ZM1541.63 1077V1076.6L1551.23 1075.4V1022.6L1541.63 1021.4V1021H1564.51V1021.4L1554.43 1022.6V1074.6H1576.74L1579.23 1065.16L1579.63 1065.24L1578.19 1075.56L1578.03 1077H1541.63ZM1615.16 1077V1076.6L1624.76 1075.4V1051.4L1611.4 1022.6L1601.64 1021.4V1021H1624.52V1021.4L1615.08 1022.6L1626.68 1048.2L1638.2 1022.6L1628.76 1021.4V1021H1650.84V1021.4L1641.08 1022.6L1627.96 1050.68V1075.4L1636.6 1076.6V1077H1615.16ZM1666.5 1077V1076.6L1676.26 1075.4L1694.9 1018.6H1695.3L1713.78 1075.4L1723.54 1076.6V1077H1700.82V1076.6L1710.34 1075.4L1704.98 1058.68H1684.34L1678.9 1075.4L1688.42 1076.6V1077H1666.5ZM1685.06 1056.28H1704.18L1694.66 1026.52L1685.06 1056.28ZM1786.31 1077V1076.6L1795.91 1075.4V1022.6L1786.31 1021.4V1021H1809.19V1021.4L1799.11 1022.6V1074.6H1821.43L1823.91 1065.16L1824.31 1065.24L1822.87 1075.56L1822.71 1077H1786.31ZM1879.83 1078.6C1872.63 1078.6 1865.51 1073.4 1865.51 1062.92V1022.6L1855.91 1021.4V1021H1877.35V1021.4L1868.71 1022.6V1062.6C1868.71 1070.36 1873.51 1075.8 1880.31 1075.8C1887.11 1075.8 1891.91 1070.44 1891.91 1062.92V1022.6L1883.27 1021.4V1021H1903.91V1021.4L1894.31 1022.6V1062.6C1894.31 1073.32 1887.03 1078.6 1879.83 1078.6ZM1966.33 1078.6C1949.21 1078.6 1936.33 1065.72 1936.33 1048.6C1936.33 1031.48 1949.21 1018.6 1966.33 1018.6C1978.89 1018.6 1989.21 1025.56 1993.77 1036.04L1991.05 1041.08L1990.73 1041V1036.76C1986.81 1027.24 1977.77 1021 1966.33 1021C1950.73 1021 1939.69 1032.44 1939.69 1048.6C1939.69 1064.76 1950.73 1076.2 1966.33 1076.2C1980.57 1076.2 1991.05 1066.68 1992.73 1052.76L1966.25 1050.76V1050.36H1996.25C1995.37 1066.52 1982.81 1078.6 1966.33 1078.6ZM2059.46 1078.6C2042.34 1078.6 2029.46 1065.72 2029.46 1048.6C2029.46 1031.48 2042.34 1018.6 2059.46 1018.6C2076.58 1018.6 2089.46 1031.48 2089.46 1048.6C2089.46 1065.72 2076.58 1078.6 2059.46 1078.6ZM2059.46 1076.2C2075.06 1076.2 2086.1 1064.76 2086.1 1048.6C2086.1 1032.44 2075.06 1021 2059.46 1021C2043.86 1021 2032.82 1032.44 2032.82 1048.6C2032.82 1064.76 2043.86 1076.2 2059.46 1076.2ZM2142.49 1080.2L2123.93 1022.6L2114.25 1021.4V1021H2136.97V1021.4L2127.45 1022.6L2143.13 1072.2L2158.89 1022.6L2149.37 1021.4V1021H2171.29V1021.4L2161.61 1022.6L2142.89 1080.2H2142.49ZM2184.54 1077V1076.6L2194.3 1075.4L2212.94 1018.6H2213.34L2231.82 1075.4L2241.58 1076.6V1077H2218.86V1076.6L2228.38 1075.4L2223.02 1058.68H2202.38L2196.94 1075.4L2206.46 1076.6V1077H2184.54ZM2203.1 1056.28H2222.22L2212.7 1026.52L2203.1 1056.28ZM2270.24 1077V1076.6L2279.84 1075.4V1051.4L2266.48 1022.6L2256.72 1021.4V1021H2279.6V1021.4L2270.16 1022.6L2281.76 1048.2L2293.28 1022.6L2283.84 1021.4V1021H2305.92V1021.4L2296.16 1022.6L2283.04 1050.68V1075.4L2291.68 1076.6V1077H2270.24ZM2321.57 1077V1076.6L2331.34 1075.4L2349.98 1018.6H2350.38L2368.86 1075.4L2378.62 1076.6V1077H2355.9V1076.6L2365.42 1075.4L2360.06 1058.68H2339.42L2333.98 1075.4L2343.5 1076.6V1077H2321.57ZM2340.14 1056.28H2359.26L2349.74 1026.52L2340.14 1056.28ZM1360.3 1193L1333.5 1139.96V1187.4L1343.1 1188.6V1189H1321.5V1188.6L1331.1 1187.4V1129H1331.5L1358.3 1182.04V1134.6L1348.7 1133.4V1133H1370.3V1133.4L1360.7 1134.6V1193H1360.3ZM1401.9 1189V1188.6L1411.5 1187.4V1134.6L1401.9 1133.4V1133H1424.3V1133.4L1414.7 1134.6V1187.4L1424.3 1188.6V1189H1401.9ZM1503.07 1197.24L1473.63 1155.88L1490.83 1134.6L1481.55 1133.4V1133H1503.87V1133.4L1493.95 1134.6L1477.39 1154.92L1503.71 1196.76L1503.07 1197.24ZM1456.27 1189V1188.6L1465.87 1187.4V1134.6L1456.27 1133.4V1133H1478.67V1133.4L1469.07 1134.6V1187.4L1478.67 1188.6V1189H1456.27ZM1561.53 1190.6C1544.41 1190.6 1531.53 1177.72 1531.53 1160.6C1531.53 1143.48 1544.41 1130.6 1561.53 1130.6C1578.65 1130.6 1591.53 1143.48 1591.53 1160.6C1591.53 1177.72 1578.65 1190.6 1561.53 1190.6ZM1561.53 1188.2C1577.13 1188.2 1588.17 1176.76 1588.17 1160.6C1588.17 1144.44 1577.13 1133 1561.53 1133C1545.93 1133 1534.89 1144.44 1534.89 1160.6C1534.89 1176.76 1545.93 1188.2 1561.53 1188.2ZM1624.32 1189V1188.6L1633.92 1187.4V1134.6L1624.32 1133.4V1133H1647.2V1133.4L1637.12 1134.6V1186.6H1659.44L1661.92 1177.16L1662.32 1177.24L1660.88 1187.56L1660.72 1189H1624.32ZM1685.52 1189V1188.6L1695.28 1187.4L1713.92 1130.6H1714.32L1732.8 1187.4L1742.56 1188.6V1189H1719.84V1188.6L1729.36 1187.4L1724 1170.68H1703.36L1697.92 1187.4L1707.44 1188.6V1189H1685.52ZM1704.08 1168.28H1723.2L1713.68 1138.52L1704.08 1168.28ZM1771.22 1189V1188.6L1780.82 1187.4V1163.4L1767.46 1134.6L1757.7 1133.4V1133H1780.58V1133.4L1771.14 1134.6L1782.74 1160.2L1794.26 1134.6L1784.82 1133.4V1133H1806.9V1133.4L1797.14 1134.6L1784.02 1162.68V1187.4L1792.66 1188.6V1189H1771.22ZM1872.52 1189V1188.6L1882.12 1187.4V1134.6L1872.52 1133.4V1133H1894.92V1133.4L1885.32 1134.6V1187.4L1894.92 1188.6V1189H1872.52ZM1946.02 1190.52C1937.86 1190.52 1929.7 1185.4 1929.7 1175.08L1939.78 1166.2L1940.02 1166.44L1933.06 1174.92C1933.06 1183.72 1939.54 1188.12 1946.02 1188.12C1953.54 1188.12 1959.14 1182.68 1959.14 1175.48C1959.14 1169.56 1955.78 1165 1949.62 1162.04L1942.26 1158.6C1934.26 1154.92 1930.98 1149.4 1930.98 1144.2C1930.98 1136.44 1937.46 1130.6 1946.02 1130.6C1953.54 1130.6 1960.58 1135.32 1960.9 1145L1952.18 1152.2L1951.94 1151.96L1957.94 1144.92C1957.54 1136.92 1951.86 1133 1946.02 1133C1939.06 1133 1933.86 1137.8 1933.86 1144.2C1933.86 1148.28 1936.5 1152.68 1943.38 1155.64L1950.82 1159C1958.26 1162.28 1962.42 1168.12 1962.42 1175.24C1962.42 1183.96 1955.38 1190.52 1946.02 1190.52ZM2023.77 1189V1188.6L2032.41 1187.4V1160.6H2010.01V1187.4L2018.65 1188.6V1189H1997.21V1188.6L2006.81 1187.4V1134.6L1997.21 1133.4V1133H2018.65V1133.4L2010.01 1134.6V1158.2H2032.41V1134.6L2023.77 1133.4V1133H2045.21V1133.4L2035.61 1134.6V1187.4L2045.21 1188.6V1189H2023.77ZM2124.01 1197.24L2094.57 1155.88L2111.77 1134.6L2102.49 1133.4V1133H2124.81V1133.4L2114.89 1134.6L2098.33 1154.92L2124.65 1196.76L2124.01 1197.24ZM2077.21 1189V1188.6L2086.81 1187.4V1134.6L2077.21 1133.4V1133H2099.61V1133.4L2090.01 1134.6V1187.4L2099.61 1188.6V1189H2077.21ZM2179.01 1189V1188.6L2187.65 1187.4V1160.6H2165.25V1187.4L2173.89 1188.6V1189H2152.45V1188.6L2162.05 1187.4V1134.6L2152.45 1133.4V1133H2173.89V1133.4L2165.25 1134.6V1158.2H2187.65V1134.6L2179.01 1133.4V1133H2200.45V1133.4L2190.85 1134.6V1187.4L2200.45 1188.6V1189H2179.01ZM2223.65 1189V1188.6L2233.41 1187.4L2252.05 1130.6H2252.45L2270.93 1187.4L2280.69 1188.6V1189H2257.97V1188.6L2267.49 1187.4L2262.13 1170.68H2241.49L2236.05 1187.4L2245.57 1188.6V1189H2223.65ZM2242.21 1168.28H2261.33L2251.81 1138.52L2242.21 1168.28ZM2342.25 1193L2315.45 1139.96V1187.4L2325.05 1188.6V1189H2303.45V1188.6L2313.05 1187.4V1129H2313.45L2340.25 1182.04V1134.6L2330.65 1133.4V1133H2352.25V1133.4L2342.65 1134.6V1193H2342.25ZM2414.65 1190.6C2397.53 1190.6 2384.65 1177.72 2384.65 1160.6C2384.65 1143.48 2397.53 1130.6 2414.65 1130.6C2431.77 1130.6 2444.65 1143.48 2444.65 1160.6C2444.65 1177.72 2431.77 1190.6 2414.65 1190.6ZM2414.65 1188.2C2430.25 1188.2 2441.29 1176.76 2441.29 1160.6C2441.29 1144.44 2430.25 1133 2414.65 1133C2399.05 1133 2388.01 1144.44 2388.01 1160.6C2388.01 1176.76 2399.05 1188.2 2414.65 1188.2ZM2497.69 1192.2L2479.13 1134.6L2469.45 1133.4V1133H2492.17V1133.4L2482.65 1134.6L2498.33 1184.2L2514.09 1134.6L2504.57 1133.4V1133H2526.49V1133.4L2516.81 1134.6L2498.09 1192.2H2497.69Z" fill="#E3E1D3"/>
<path d="M1626.73 1311V1289.18H1639.9V1291.53H1629.37V1298.9H1639.21V1301.24H1629.37V1308.66H1640.07V1311H1626.73ZM1660.94 1289.18L1666.56 1298.26H1666.73L1672.36 1289.18H1675.47L1668.61 1300.09L1675.47 1311H1672.36L1666.73 1302.09H1666.56L1660.94 1311H1657.83L1664.86 1300.09L1657.83 1289.18H1660.94ZM1693.91 1311V1289.18H1707.07V1291.53H1696.55V1298.9H1706.39V1301.24H1696.55V1308.66H1707.24V1311H1693.91ZM1744.39 1296H1741.75C1741.59 1295.24 1741.32 1294.57 1740.93 1294C1740.55 1293.42 1740.08 1292.94 1739.52 1292.55C1738.98 1292.15 1738.37 1291.85 1737.7 1291.65C1737.04 1291.45 1736.34 1291.36 1735.61 1291.36C1734.29 1291.36 1733.1 1291.69 1732.02 1292.36C1730.96 1293.02 1730.11 1294.01 1729.48 1295.31C1728.85 1296.61 1728.54 1298.2 1728.54 1300.09C1728.54 1301.98 1728.85 1303.57 1729.48 1304.87C1730.11 1306.17 1730.96 1307.16 1732.02 1307.83C1733.1 1308.49 1734.29 1308.83 1735.61 1308.83C1736.34 1308.83 1737.04 1308.73 1737.7 1308.53C1738.37 1308.33 1738.98 1308.03 1739.52 1307.64C1740.08 1307.25 1740.55 1306.76 1740.93 1306.18C1741.32 1305.6 1741.59 1304.93 1741.75 1304.18H1744.39C1744.19 1305.3 1743.83 1306.29 1743.31 1307.18C1742.78 1308.06 1742.13 1308.81 1741.35 1309.42C1740.57 1310.03 1739.69 1310.5 1738.71 1310.82C1737.75 1311.14 1736.72 1311.3 1735.61 1311.3C1733.75 1311.3 1732.1 1310.84 1730.65 1309.93C1729.2 1309.03 1728.06 1307.73 1727.23 1306.06C1726.4 1304.38 1725.98 1302.39 1725.98 1300.09C1725.98 1297.79 1726.4 1295.8 1727.23 1294.12C1728.06 1292.45 1729.2 1291.16 1730.65 1290.25C1732.1 1289.34 1733.75 1288.88 1735.61 1288.88C1736.72 1288.88 1737.75 1289.04 1738.71 1289.36C1739.69 1289.68 1740.57 1290.15 1741.35 1290.77C1742.13 1291.38 1742.78 1292.13 1743.31 1293.01C1743.83 1293.88 1744.19 1294.88 1744.39 1296ZM1777.98 1289.18H1780.62V1303.63C1780.62 1305.12 1780.27 1306.45 1779.57 1307.62C1778.87 1308.79 1777.89 1309.71 1776.62 1310.38C1775.35 1311.05 1773.85 1311.38 1772.14 1311.38C1770.43 1311.38 1768.94 1311.05 1767.67 1310.38C1766.4 1309.71 1765.41 1308.79 1764.71 1307.62C1764.01 1306.45 1763.66 1305.12 1763.66 1303.63V1289.18H1766.3V1303.41C1766.3 1304.48 1766.54 1305.43 1767.01 1306.26C1767.48 1307.08 1768.14 1307.73 1769.01 1308.21C1769.88 1308.68 1770.93 1308.91 1772.14 1308.91C1773.36 1308.91 1774.4 1308.68 1775.27 1308.21C1776.15 1307.73 1776.82 1307.08 1777.28 1306.26C1777.75 1305.43 1777.98 1304.48 1777.98 1303.41V1289.18ZM1799.71 1291.53V1289.18H1816.07V1291.53H1809.21V1311H1806.57V1291.53H1799.71ZM1837.79 1289.18V1311H1835.15V1289.18H1837.79ZM1858.98 1289.18L1865.46 1307.55H1865.71L1872.19 1289.18H1874.96L1866.95 1311H1864.22L1856.21 1289.18H1858.98ZM1893.36 1311V1289.18H1906.53V1291.53H1896V1298.9H1905.85V1301.24H1896V1308.66H1906.7V1311H1893.36ZM1949.73 1311V1289.18H1957.1C1958.81 1289.18 1960.21 1289.49 1961.3 1290.11C1962.39 1290.72 1963.2 1291.55 1963.73 1292.59C1964.25 1293.63 1964.51 1294.8 1964.51 1296.09C1964.51 1297.37 1964.25 1298.54 1963.73 1299.59C1963.21 1300.64 1962.4 1301.48 1961.32 1302.1C1960.23 1302.72 1958.84 1303.03 1957.14 1303.03H1951.86V1300.69H1957.06C1958.23 1300.69 1959.17 1300.49 1959.88 1300.08C1960.59 1299.68 1961.1 1299.13 1961.42 1298.44C1961.75 1297.74 1961.91 1296.96 1961.91 1296.09C1961.91 1295.21 1961.75 1294.43 1961.42 1293.74C1961.1 1293.05 1960.59 1292.51 1959.87 1292.12C1959.15 1291.72 1958.2 1291.53 1957.01 1291.53H1952.37V1311H1949.73ZM1983.77 1311V1289.18H1991.14C1992.85 1289.18 1994.25 1289.47 1995.34 1290.06C1996.43 1290.63 1997.24 1291.42 1997.77 1292.43C1998.29 1293.44 1998.56 1294.59 1998.56 1295.87C1998.56 1297.16 1998.29 1298.3 1997.77 1299.29C1997.24 1300.29 1996.44 1301.07 1995.35 1301.64C1994.26 1302.2 1992.88 1302.48 1991.18 1302.48H1985.22V1300.09H1991.1C1992.26 1300.09 1993.2 1299.92 1993.91 1299.58C1994.63 1299.24 1995.15 1298.76 1995.47 1298.13C1995.79 1297.5 1995.96 1296.75 1995.96 1295.87C1995.96 1295 1995.79 1294.24 1995.47 1293.58C1995.14 1292.93 1994.62 1292.42 1993.9 1292.07C1993.18 1291.71 1992.24 1291.53 1991.06 1291.53H1986.41V1311H1983.77ZM1994.04 1301.2L1999.41 1311H1996.34L1991.06 1301.2H1994.04ZM2036.37 1300.09C2036.37 1302.39 2035.95 1304.38 2035.12 1306.06C2034.29 1307.73 2033.15 1309.03 2031.7 1309.93C2030.25 1310.84 2028.6 1311.3 2026.74 1311.3C2024.88 1311.3 2023.22 1310.84 2021.77 1309.93C2020.32 1309.03 2019.18 1307.73 2018.35 1306.06C2017.52 1304.38 2017.11 1302.39 2017.11 1300.09C2017.11 1297.79 2017.52 1295.8 2018.35 1294.12C2019.18 1292.45 2020.32 1291.16 2021.77 1290.25C2023.22 1289.34 2024.88 1288.88 2026.74 1288.88C2028.6 1288.88 2030.25 1289.34 2031.7 1290.25C2033.15 1291.16 2034.29 1292.45 2035.12 1294.12C2035.95 1295.8 2036.37 1297.79 2036.37 1300.09ZM2033.81 1300.09C2033.81 1298.2 2033.5 1296.61 2032.86 1295.31C2032.24 1294.01 2031.39 1293.02 2030.32 1292.36C2029.25 1291.69 2028.06 1291.36 2026.74 1291.36C2025.42 1291.36 2024.22 1291.69 2023.15 1292.36C2022.08 1293.02 2021.23 1294.01 2020.6 1295.31C2019.98 1296.61 2019.66 1298.2 2019.66 1300.09C2019.66 1301.98 2019.98 1303.57 2020.6 1304.87C2021.23 1306.17 2022.08 1307.16 2023.15 1307.83C2024.22 1308.49 2025.42 1308.83 2026.74 1308.83C2028.06 1308.83 2029.25 1308.49 2030.32 1307.83C2031.39 1307.16 2032.24 1306.17 2032.86 1304.87C2033.5 1303.57 2033.81 1301.98 2033.81 1300.09ZM2062.54 1311H2055.81V1289.18H2062.84C2064.96 1289.18 2066.77 1289.62 2068.28 1290.49C2069.78 1291.36 2070.94 1292.61 2071.74 1294.23C2072.54 1295.85 2072.94 1297.79 2072.94 1300.05C2072.94 1302.32 2072.54 1304.28 2071.73 1305.92C2070.92 1307.55 2069.74 1308.81 2068.19 1309.69C2066.64 1310.56 2064.76 1311 2062.54 1311ZM2058.45 1308.66H2062.37C2064.18 1308.66 2065.67 1308.31 2066.86 1307.61C2068.04 1306.92 2068.93 1305.93 2069.51 1304.64C2070.09 1303.35 2070.38 1301.82 2070.38 1300.05C2070.38 1298.29 2070.1 1296.77 2069.52 1295.5C2068.95 1294.22 2068.09 1293.24 2066.94 1292.56C2065.8 1291.87 2064.38 1291.53 2062.67 1291.53H2058.45V1308.66ZM2106.69 1289.18H2109.33V1303.63C2109.33 1305.12 2108.98 1306.45 2108.28 1307.62C2107.58 1308.79 2106.6 1309.71 2105.33 1310.38C2104.06 1311.05 2102.57 1311.38 2100.85 1311.38C2099.14 1311.38 2097.65 1311.05 2096.38 1310.38C2095.11 1309.71 2094.12 1308.79 2093.42 1307.62C2092.72 1306.45 2092.37 1305.12 2092.37 1303.63V1289.18H2095.02V1303.41C2095.02 1304.48 2095.25 1305.43 2095.72 1306.26C2096.19 1307.08 2096.86 1307.73 2097.72 1308.21C2098.6 1308.68 2099.64 1308.91 2100.85 1308.91C2102.07 1308.91 2103.11 1308.68 2103.99 1308.21C2104.86 1307.73 2105.53 1307.08 2105.99 1306.26C2106.46 1305.43 2106.69 1304.48 2106.69 1303.41V1289.18ZM2147.17 1296H2144.52C2144.37 1295.24 2144.09 1294.57 2143.7 1294C2143.32 1293.42 2142.85 1292.94 2142.3 1292.55C2141.75 1292.15 2141.14 1291.85 2140.48 1291.65C2139.81 1291.45 2139.11 1291.36 2138.39 1291.36C2137.07 1291.36 2135.87 1291.69 2134.8 1292.36C2133.73 1293.02 2132.88 1294.01 2132.25 1295.31C2131.63 1296.61 2131.31 1298.2 2131.31 1300.09C2131.31 1301.98 2131.63 1303.57 2132.25 1304.87C2132.88 1306.17 2133.73 1307.16 2134.8 1307.83C2135.87 1308.49 2137.07 1308.83 2138.39 1308.83C2139.11 1308.83 2139.81 1308.73 2140.48 1308.53C2141.14 1308.33 2141.75 1308.03 2142.3 1307.64C2142.85 1307.25 2143.32 1306.76 2143.7 1306.18C2144.09 1305.6 2144.37 1304.93 2144.52 1304.18H2147.17C2146.97 1305.3 2146.61 1306.29 2146.08 1307.18C2145.55 1308.06 2144.9 1308.81 2144.12 1309.42C2143.34 1310.03 2142.46 1310.5 2141.49 1310.82C2140.52 1311.14 2139.49 1311.3 2138.39 1311.3C2136.53 1311.3 2134.87 1310.84 2133.42 1309.93C2131.97 1309.03 2130.83 1307.73 2130 1306.06C2129.17 1304.38 2128.76 1302.39 2128.76 1300.09C2128.76 1297.79 2129.17 1295.8 2130 1294.12C2130.83 1292.45 2131.97 1291.16 2133.42 1290.25C2134.87 1289.34 2136.53 1288.88 2138.39 1288.88C2139.49 1288.88 2140.52 1289.04 2141.49 1289.36C2142.46 1289.68 2143.34 1290.15 2144.12 1290.77C2144.9 1291.38 2145.55 1292.13 2146.08 1293.01C2146.61 1293.88 2146.97 1294.88 2147.17 1296ZM2166.44 1311V1289.18H2179.6V1291.53H2169.08V1298.9H2178.92V1301.24H2169.08V1308.66H2179.77V1311H2166.44ZM2199.37 1311V1289.18H2206.74C2208.44 1289.18 2209.84 1289.47 2210.94 1290.06C2212.03 1290.63 2212.84 1291.42 2213.36 1292.43C2213.89 1293.44 2214.15 1294.59 2214.15 1295.87C2214.15 1297.16 2213.89 1298.3 2213.36 1299.29C2212.84 1300.29 2212.03 1301.07 2210.95 1301.64C2209.86 1302.2 2208.47 1302.48 2206.78 1302.48H2200.81V1300.09H2206.7C2207.86 1300.09 2208.8 1299.92 2209.51 1299.58C2210.23 1299.24 2210.74 1298.76 2211.06 1298.13C2211.39 1297.5 2211.55 1296.75 2211.55 1295.87C2211.55 1295 2211.39 1294.24 2211.06 1293.58C2210.74 1292.93 2210.21 1292.42 2209.5 1292.07C2208.78 1291.71 2207.83 1291.53 2206.65 1291.53H2202.01V1311H2199.37ZM2209.64 1301.2L2215 1311H2211.94L2206.65 1301.2H2209.64Z" fill="#E3E1D3"/>
<path d="M1223.6 1416.52C1215.44 1416.52 1207.28 1411.4 1207.28 1401.08L1217.36 1392.2L1217.6 1392.44L1210.64 1400.92C1210.64 1409.72 1217.12 1414.12 1223.6 1414.12C1231.12 1414.12 1236.72 1408.68 1236.72 1401.48C1236.72 1395.56 1233.36 1391 1227.2 1388.04L1219.84 1384.6C1211.84 1380.92 1208.56 1375.4 1208.56 1370.2C1208.56 1362.44 1215.04 1356.6 1223.6 1356.6C1231.12 1356.6 1238.16 1361.32 1238.48 1371L1229.76 1378.2L1229.52 1377.96L1235.52 1370.92C1235.12 1362.92 1229.44 1359 1223.6 1359C1216.64 1359 1211.44 1363.8 1211.44 1370.2C1211.44 1374.28 1214.08 1378.68 1220.96 1381.64L1228.4 1385C1235.84 1388.28 1240 1394.12 1240 1401.24C1240 1409.96 1232.96 1416.52 1223.6 1416.52ZM1280.71 1415V1414.6L1290.31 1413.4V1361.4H1275.67L1273.19 1370.84L1272.79 1370.76L1274.23 1360.44L1274.39 1359H1309.59L1309.75 1360.44L1311.19 1370.76L1310.79 1370.84L1308.31 1361.4H1293.51V1413.4L1302.15 1414.6V1415H1280.71ZM1329.19 1415V1414.6L1338.95 1413.4L1357.59 1356.6H1357.99L1376.47 1413.4L1386.23 1414.6V1415H1363.51V1414.6L1373.03 1413.4L1367.67 1396.68H1347.03L1341.59 1413.4L1351.11 1414.6V1415H1329.19ZM1347.75 1394.28H1366.87L1357.35 1364.52L1347.75 1394.28ZM1447.8 1419L1421 1365.96V1413.4L1430.6 1414.6V1415H1409V1414.6L1418.6 1413.4V1355H1419L1445.8 1408.04V1360.6L1436.2 1359.4V1359H1457.8V1359.4L1448.2 1360.6V1419H1447.8ZM1489.4 1415V1414.6L1499 1413.4V1360.6L1489.4 1359.4V1359H1511.8V1359.4L1502.2 1360.6V1413.4L1511.8 1414.6V1415H1489.4ZM1562.89 1416.52C1554.73 1416.52 1546.57 1411.4 1546.57 1401.08L1556.65 1392.2L1556.89 1392.44L1549.93 1400.92C1549.93 1409.72 1556.41 1414.12 1562.89 1414.12C1570.41 1414.12 1576.01 1408.68 1576.01 1401.48C1576.01 1395.56 1572.65 1391 1566.49 1388.04L1559.13 1384.6C1551.13 1380.92 1547.85 1375.4 1547.85 1370.2C1547.85 1362.44 1554.33 1356.6 1562.89 1356.6C1570.41 1356.6 1577.45 1361.32 1577.77 1371L1569.05 1378.2L1568.81 1377.96L1574.81 1370.92C1574.41 1362.92 1568.73 1359 1562.89 1359C1555.93 1359 1550.73 1363.8 1550.73 1370.2C1550.73 1374.28 1553.37 1378.68 1560.25 1381.64L1567.69 1385C1575.13 1388.28 1579.29 1394.12 1579.29 1401.24C1579.29 1409.96 1572.25 1416.52 1562.89 1416.52ZM1614.09 1415V1414.6L1623.69 1413.4V1360.6L1614.09 1359.4V1359H1636.97V1359.4L1626.89 1360.6V1412.6H1649.21L1651.69 1403.16L1652.09 1403.24L1650.65 1413.56L1650.49 1415H1614.09ZM1675.29 1415V1414.6L1685.05 1413.4L1703.69 1356.6H1704.09L1722.57 1413.4L1732.33 1414.6V1415H1709.61V1414.6L1719.13 1413.4L1713.77 1396.68H1693.13L1687.69 1413.4L1697.21 1414.6V1415H1675.29ZM1693.85 1394.28H1712.97L1703.45 1364.52L1693.85 1394.28ZM1773.7 1418.2L1755.14 1360.6L1745.46 1359.4V1359H1768.18V1359.4L1758.66 1360.6L1774.34 1410.2L1790.1 1360.6L1780.58 1359.4V1359H1802.5V1359.4L1792.82 1360.6L1774.1 1418.2H1773.7ZM1865.73 1415V1414.6L1875.33 1413.4V1360.6L1865.73 1359.4V1359H1894.53C1910.53 1359 1922.53 1371 1922.53 1387C1922.53 1403 1910.53 1415 1894.53 1415H1865.73ZM1878.53 1412.6H1894.45C1909.01 1412.6 1919.33 1402.04 1919.33 1387C1919.33 1371.96 1909.01 1361.4 1894.45 1361.4H1878.53V1412.6ZM1955.34 1415V1414.6L1964.94 1413.4V1360.6L1955.34 1359.4V1359H1978.22V1359.4L1968.14 1360.6V1412.6H1990.46L1992.94 1403.16L1993.34 1403.24L1991.9 1413.56L1991.74 1415H1955.34ZM2048.86 1416.6C2041.66 1416.6 2034.54 1411.4 2034.54 1400.92V1360.6L2024.94 1359.4V1359H2046.38V1359.4L2037.74 1360.6V1400.6C2037.74 1408.36 2042.54 1413.8 2049.34 1413.8C2056.14 1413.8 2060.94 1408.44 2060.94 1400.92V1360.6L2052.3 1359.4V1359H2072.94V1359.4L2063.34 1360.6V1400.6C2063.34 1411.32 2056.06 1416.6 2048.86 1416.6ZM2105.35 1415V1414.6L2129.91 1361.4H2107.43L2104.95 1370.84L2104.55 1370.76L2105.99 1360.44L2106.15 1359H2134.15V1359.4L2109.59 1412.6H2132.07L2134.55 1403.16L2134.95 1403.24L2133.51 1413.56L2133.35 1415H2105.35ZM2193.54 1415V1414.6L2202.18 1413.4V1386.6H2179.78V1413.4L2188.42 1414.6V1415H2166.98V1414.6L2176.58 1413.4V1360.6L2166.98 1359.4V1359H2188.42V1359.4L2179.78 1360.6V1384.2H2202.18V1360.6L2193.54 1359.4V1359H2214.98V1359.4L2205.38 1360.6V1413.4L2214.98 1414.6V1415H2193.54ZM2238.18 1415V1414.6L2247.94 1413.4L2266.58 1356.6H2266.98L2285.46 1413.4L2295.22 1414.6V1415H2272.5V1414.6L2282.02 1413.4L2276.66 1396.68H2256.02L2250.58 1413.4L2260.1 1414.6V1415H2238.18ZM2256.74 1394.28H2275.86L2266.34 1364.52L2256.74 1394.28ZM2356.78 1419L2329.98 1365.96V1413.4L2339.58 1414.6V1415H2317.98V1414.6L2327.58 1413.4V1355H2327.98L2354.78 1408.04V1360.6L2345.18 1359.4V1359H2366.78V1359.4L2357.18 1360.6V1419H2356.78ZM2417.5 1416.52C2409.34 1416.52 2401.18 1411.4 2401.18 1401.08L2411.26 1392.2L2411.5 1392.44L2404.54 1400.92C2404.54 1409.72 2411.02 1414.12 2417.5 1414.12C2425.02 1414.12 2430.62 1408.68 2430.62 1401.48C2430.62 1395.56 2427.26 1391 2421.1 1388.04L2413.74 1384.6C2405.74 1380.92 2402.46 1375.4 2402.46 1370.2C2402.46 1362.44 2408.94 1356.6 2417.5 1356.6C2425.02 1356.6 2432.06 1361.32 2432.38 1371L2423.66 1378.2L2423.42 1377.96L2429.42 1370.92C2429.02 1362.92 2423.34 1359 2417.5 1359C2410.54 1359 2405.34 1363.8 2405.34 1370.2C2405.34 1374.28 2407.98 1378.68 2414.86 1381.64L2422.3 1385C2429.74 1388.28 2433.9 1394.12 2433.9 1401.24C2433.9 1409.96 2426.86 1416.52 2417.5 1416.52ZM2515.5 1423.24L2486.06 1381.88L2503.26 1360.6L2493.98 1359.4V1359H2516.3V1359.4L2506.38 1360.6L2489.82 1380.92L2516.14 1422.76L2515.5 1423.24ZM2468.7 1415V1414.6L2478.3 1413.4V1360.6L2468.7 1359.4V1359H2491.1V1359.4L2481.5 1360.6V1413.4L2491.1 1414.6V1415H2468.7ZM2543.93 1415V1414.6L2553.53 1413.4V1360.6L2543.93 1359.4V1359H2566.33V1359.4L2556.73 1360.6V1413.4L2566.33 1414.6V1415H2543.93ZM2605.82 1415V1414.6L2615.42 1413.4V1389.4L2602.06 1360.6L2592.3 1359.4V1359H2615.18V1359.4L2605.74 1360.6L2617.34 1386.2L2628.86 1360.6L2619.42 1359.4V1359H2641.5V1359.4L2631.74 1360.6L2618.62 1388.68V1413.4L2627.26 1414.6V1415H2605.82Z" fill="#E3E1D3"/>
<path d="M1609.74 1537V1515.18H1617.11C1618.82 1515.18 1620.22 1515.49 1621.31 1516.11C1622.4 1516.72 1623.21 1517.55 1623.74 1518.59C1624.26 1519.63 1624.52 1520.8 1624.52 1522.09C1624.52 1523.37 1624.26 1524.54 1623.74 1525.59C1623.22 1526.64 1622.41 1527.48 1621.33 1528.1C1620.24 1528.72 1618.85 1529.03 1617.15 1529.03H1611.87V1526.69H1617.07C1618.24 1526.69 1619.18 1526.49 1619.89 1526.08C1620.6 1525.68 1621.11 1525.13 1621.43 1524.44C1621.76 1523.74 1621.92 1522.96 1621.92 1522.09C1621.92 1521.21 1621.76 1520.43 1621.43 1519.74C1621.11 1519.05 1620.6 1518.51 1619.88 1518.12C1619.16 1517.72 1618.21 1517.53 1617.02 1517.53H1612.38V1537H1609.74ZM1643.78 1537V1515.18H1651.15C1652.86 1515.18 1654.26 1515.47 1655.35 1516.06C1656.44 1516.63 1657.25 1517.42 1657.78 1518.43C1658.3 1519.44 1658.57 1520.59 1658.57 1521.87C1658.57 1523.16 1658.3 1524.3 1657.78 1525.29C1657.25 1526.29 1656.45 1527.07 1655.36 1527.64C1654.27 1528.2 1652.88 1528.48 1651.19 1528.48H1645.23V1526.09H1651.11C1652.27 1526.09 1653.21 1525.92 1653.92 1525.58C1654.64 1525.24 1655.16 1524.76 1655.48 1524.13C1655.8 1523.5 1655.97 1522.75 1655.97 1521.87C1655.97 1521 1655.8 1520.24 1655.48 1519.58C1655.15 1518.93 1654.63 1518.42 1653.91 1518.07C1653.19 1517.71 1652.25 1517.53 1651.07 1517.53H1646.42V1537H1643.78ZM1654.05 1527.2L1659.42 1537H1656.35L1651.07 1527.2H1654.05ZM1696.38 1526.09C1696.38 1528.39 1695.96 1530.38 1695.13 1532.06C1694.3 1533.73 1693.16 1535.03 1691.71 1535.93C1690.26 1536.84 1688.61 1537.3 1686.75 1537.3C1684.89 1537.3 1683.23 1536.84 1681.78 1535.93C1680.33 1535.03 1679.19 1533.73 1678.36 1532.06C1677.53 1530.38 1677.12 1528.39 1677.12 1526.09C1677.12 1523.79 1677.53 1521.8 1678.36 1520.12C1679.19 1518.45 1680.33 1517.16 1681.78 1516.25C1683.23 1515.34 1684.89 1514.88 1686.75 1514.88C1688.61 1514.88 1690.26 1515.34 1691.71 1516.25C1693.16 1517.16 1694.3 1518.45 1695.13 1520.12C1695.96 1521.8 1696.38 1523.79 1696.38 1526.09ZM1693.82 1526.09C1693.82 1524.2 1693.51 1522.61 1692.87 1521.31C1692.25 1520.01 1691.4 1519.02 1690.33 1518.36C1689.26 1517.69 1688.07 1517.36 1686.75 1517.36C1685.43 1517.36 1684.23 1517.69 1683.16 1518.36C1682.09 1519.02 1681.24 1520.01 1680.61 1521.31C1679.99 1522.61 1679.67 1524.2 1679.67 1526.09C1679.67 1527.98 1679.99 1529.57 1680.61 1530.87C1681.24 1532.17 1682.09 1533.16 1683.16 1533.83C1684.23 1534.49 1685.43 1534.83 1686.75 1534.83C1688.07 1534.83 1689.26 1534.49 1690.33 1533.83C1691.4 1533.16 1692.25 1532.17 1692.87 1530.87C1693.51 1529.57 1693.82 1527.98 1693.82 1526.09ZM1722.55 1537H1715.82V1515.18H1722.85C1724.97 1515.18 1726.78 1515.62 1728.29 1516.49C1729.79 1517.36 1730.95 1518.61 1731.75 1520.23C1732.55 1521.85 1732.95 1523.79 1732.95 1526.05C1732.95 1528.32 1732.55 1530.28 1731.74 1531.92C1730.93 1533.55 1729.75 1534.81 1728.2 1535.69C1726.65 1536.56 1724.77 1537 1722.55 1537ZM1718.46 1534.66H1722.38C1724.19 1534.66 1725.68 1534.31 1726.87 1533.61C1728.05 1532.92 1728.94 1531.93 1729.52 1530.64C1730.1 1529.35 1730.39 1527.82 1730.39 1526.05C1730.39 1524.29 1730.11 1522.77 1729.53 1521.5C1728.96 1520.22 1728.1 1519.24 1726.95 1518.56C1725.81 1517.87 1724.39 1517.53 1722.68 1517.53H1718.46V1534.66ZM1766.7 1515.18H1769.34V1529.63C1769.34 1531.12 1768.99 1532.45 1768.29 1533.62C1767.59 1534.79 1766.61 1535.71 1765.34 1536.38C1764.07 1537.05 1762.58 1537.38 1760.86 1537.38C1759.15 1537.38 1757.66 1537.05 1756.39 1536.38C1755.12 1535.71 1754.13 1534.79 1753.43 1533.62C1752.73 1532.45 1752.38 1531.12 1752.38 1529.63V1515.18H1755.03V1529.41C1755.03 1530.48 1755.26 1531.43 1755.73 1532.26C1756.2 1533.08 1756.86 1533.73 1757.73 1534.21C1758.6 1534.68 1759.65 1534.91 1760.86 1534.91C1762.08 1534.91 1763.12 1534.68 1764 1534.21C1764.87 1533.73 1765.54 1533.08 1766 1532.26C1766.47 1531.43 1766.7 1530.48 1766.7 1529.41V1515.18ZM1807.18 1522H1804.53C1804.38 1521.24 1804.1 1520.57 1803.71 1520C1803.33 1519.42 1802.86 1518.94 1802.31 1518.55C1801.76 1518.15 1801.15 1517.85 1800.49 1517.65C1799.82 1517.45 1799.12 1517.36 1798.4 1517.36C1797.08 1517.36 1795.88 1517.69 1794.81 1518.36C1793.74 1519.02 1792.89 1520.01 1792.26 1521.31C1791.64 1522.61 1791.32 1524.2 1791.32 1526.09C1791.32 1527.98 1791.64 1529.57 1792.26 1530.87C1792.89 1532.17 1793.74 1533.16 1794.81 1533.83C1795.88 1534.49 1797.08 1534.83 1798.4 1534.83C1799.12 1534.83 1799.82 1534.73 1800.49 1534.53C1801.15 1534.33 1801.76 1534.03 1802.31 1533.64C1802.86 1533.25 1803.33 1532.76 1803.71 1532.18C1804.1 1531.6 1804.38 1530.93 1804.53 1530.18H1807.18C1806.98 1531.3 1806.62 1532.29 1806.09 1533.18C1805.56 1534.06 1804.91 1534.81 1804.13 1535.42C1803.35 1536.03 1802.47 1536.5 1801.5 1536.82C1800.53 1537.14 1799.5 1537.3 1798.4 1537.3C1796.54 1537.3 1794.88 1536.84 1793.43 1535.93C1791.98 1535.03 1790.84 1533.73 1790.01 1532.06C1789.18 1530.38 1788.77 1528.39 1788.77 1526.09C1788.77 1523.79 1789.18 1521.8 1790.01 1520.12C1790.84 1518.45 1791.98 1517.16 1793.43 1516.25C1794.88 1515.34 1796.54 1514.88 1798.4 1514.88C1799.5 1514.88 1800.53 1515.04 1801.5 1515.36C1802.47 1515.68 1803.35 1516.15 1804.13 1516.77C1804.91 1517.38 1805.56 1518.13 1806.09 1519.01C1806.62 1519.88 1806.98 1520.88 1807.18 1522ZM1826.45 1537V1515.18H1839.61V1517.53H1829.09V1524.9H1838.93V1527.24H1829.09V1534.66H1839.78V1537H1826.45ZM1859.38 1537V1515.18H1866.75C1868.45 1515.18 1869.85 1515.47 1870.95 1516.06C1872.04 1516.63 1872.85 1517.42 1873.37 1518.43C1873.9 1519.44 1874.16 1520.59 1874.16 1521.87C1874.16 1523.16 1873.9 1524.3 1873.37 1525.29C1872.85 1526.29 1872.04 1527.07 1870.96 1527.64C1869.87 1528.2 1868.48 1528.48 1866.79 1528.48H1860.82V1526.09H1866.7C1867.87 1526.09 1868.81 1525.92 1869.52 1525.58C1870.23 1525.24 1870.75 1524.76 1871.07 1524.13C1871.4 1523.5 1871.56 1522.75 1871.56 1521.87C1871.56 1521 1871.4 1520.24 1871.07 1519.58C1870.75 1518.93 1870.22 1518.42 1869.51 1518.07C1868.79 1517.71 1867.84 1517.53 1866.66 1517.53H1862.02V1537H1859.38ZM1869.65 1527.2L1875.01 1537H1871.95L1866.66 1527.2H1869.65ZM1917.9 1537H1915.13L1923.14 1515.18H1925.87L1933.88 1537H1931.11L1924.59 1518.63H1924.42L1917.9 1537ZM1918.92 1528.48H1930.08V1530.82H1918.92V1528.48ZM1964.21 1520.64C1964.08 1519.56 1963.56 1518.72 1962.65 1518.12C1961.74 1517.53 1960.63 1517.23 1959.31 1517.23C1958.34 1517.23 1957.5 1517.38 1956.77 1517.7C1956.05 1518.01 1955.49 1518.44 1955.09 1518.99C1954.69 1519.53 1954.49 1520.15 1954.49 1520.85C1954.49 1521.43 1954.63 1521.93 1954.91 1522.35C1955.19 1522.76 1955.55 1523.11 1955.99 1523.38C1956.43 1523.65 1956.9 1523.88 1957.38 1524.06C1957.86 1524.23 1958.31 1524.37 1958.71 1524.47L1960.93 1525.07C1961.49 1525.22 1962.13 1525.42 1962.82 1525.69C1963.53 1525.95 1964.2 1526.31 1964.84 1526.76C1965.48 1527.21 1966.02 1527.78 1966.43 1528.49C1966.85 1529.19 1967.06 1530.05 1967.06 1531.08C1967.06 1532.26 1966.75 1533.32 1966.14 1534.27C1965.53 1535.22 1964.63 1535.98 1963.45 1536.54C1962.28 1537.1 1960.86 1537.38 1959.18 1537.38C1957.62 1537.38 1956.26 1537.13 1955.12 1536.63C1953.98 1536.12 1953.09 1535.42 1952.44 1534.52C1951.79 1533.62 1951.42 1532.57 1951.34 1531.38H1954.07C1954.14 1532.2 1954.41 1532.88 1954.9 1533.42C1955.39 1533.95 1956 1534.35 1956.75 1534.61C1957.5 1534.87 1958.31 1535 1959.18 1535C1960.19 1535 1961.09 1534.83 1961.9 1534.51C1962.7 1534.17 1963.33 1533.71 1963.8 1533.12C1964.27 1532.53 1964.51 1531.83 1964.51 1531.03C1964.51 1530.31 1964.3 1529.72 1963.9 1529.27C1963.49 1528.81 1962.96 1528.44 1962.3 1528.16C1961.64 1527.87 1960.93 1527.62 1960.16 1527.41L1957.47 1526.64C1955.77 1526.15 1954.42 1525.46 1953.43 1524.55C1952.43 1523.64 1951.93 1522.45 1951.93 1520.98C1951.93 1519.76 1952.27 1518.69 1952.93 1517.78C1953.59 1516.87 1954.49 1516.15 1955.61 1515.65C1956.74 1515.14 1958 1514.88 1959.39 1514.88C1960.8 1514.88 1962.05 1515.14 1963.14 1515.64C1964.24 1516.14 1965.1 1516.82 1965.74 1517.69C1966.39 1518.55 1966.73 1519.54 1966.76 1520.64H1964.21ZM1998.34 1520.64C1998.21 1519.56 1997.69 1518.72 1996.78 1518.12C1995.87 1517.53 1994.76 1517.23 1993.44 1517.23C1992.47 1517.23 1991.63 1517.38 1990.9 1517.7C1990.19 1518.01 1989.62 1518.44 1989.22 1518.99C1988.82 1519.53 1988.62 1520.15 1988.62 1520.85C1988.62 1521.43 1988.76 1521.93 1989.04 1522.35C1989.32 1522.76 1989.68 1523.11 1990.12 1523.38C1990.57 1523.65 1991.03 1523.88 1991.51 1524.06C1991.99 1524.23 1992.44 1524.37 1992.84 1524.47L1995.06 1525.07C1995.63 1525.22 1996.26 1525.42 1996.95 1525.69C1997.66 1525.95 1998.33 1526.31 1998.97 1526.76C1999.61 1527.21 2000.15 1527.78 2000.57 1528.49C2000.98 1529.19 2001.19 1530.05 2001.19 1531.08C2001.19 1532.26 2000.88 1533.32 2000.27 1534.27C1999.66 1535.22 1998.76 1535.98 1997.58 1536.54C1996.41 1537.1 1994.99 1537.38 1993.31 1537.38C1991.75 1537.38 1990.39 1537.13 1989.25 1536.63C1988.11 1536.12 1987.22 1535.42 1986.57 1534.52C1985.92 1533.62 1985.55 1532.57 1985.47 1531.38H1988.2C1988.27 1532.2 1988.54 1532.88 1989.03 1533.42C1989.52 1533.95 1990.14 1534.35 1990.88 1534.61C1991.63 1534.87 1992.44 1535 1993.31 1535C1994.32 1535 1995.22 1534.83 1996.03 1534.51C1996.83 1534.17 1997.46 1533.71 1997.93 1533.12C1998.4 1532.53 1998.64 1531.83 1998.64 1531.03C1998.64 1530.31 1998.43 1529.72 1998.03 1529.27C1997.62 1528.81 1997.09 1528.44 1996.43 1528.16C1995.77 1527.87 1995.06 1527.62 1994.29 1527.41L1991.61 1526.64C1989.9 1526.15 1988.55 1525.46 1987.56 1524.55C1986.56 1523.64 1986.07 1522.45 1986.07 1520.98C1986.07 1519.76 1986.4 1518.69 1987.06 1517.78C1987.72 1516.87 1988.62 1516.15 1989.74 1515.65C1990.87 1515.14 1992.13 1514.88 1993.52 1514.88C1994.93 1514.88 1996.18 1515.14 1997.27 1515.64C1998.37 1516.14 1999.23 1516.82 1999.87 1517.69C2000.52 1518.55 2000.86 1519.54 2000.9 1520.64H1998.34ZM2023.18 1515.18V1537H2020.54V1515.18H2023.18ZM2055.41 1520.64C2055.28 1519.56 2054.76 1518.72 2053.85 1518.12C2052.94 1517.53 2051.83 1517.23 2050.51 1517.23C2049.54 1517.23 2048.7 1517.38 2047.97 1517.7C2047.26 1518.01 2046.69 1518.44 2046.29 1518.99C2045.89 1519.53 2045.69 1520.15 2045.69 1520.85C2045.69 1521.43 2045.83 1521.93 2046.11 1522.35C2046.39 1522.76 2046.75 1523.11 2047.2 1523.38C2047.64 1523.65 2048.1 1523.88 2048.58 1524.06C2049.06 1524.23 2049.51 1524.37 2049.91 1524.47L2052.13 1525.07C2052.7 1525.22 2053.33 1525.42 2054.02 1525.69C2054.73 1525.95 2055.4 1526.31 2056.04 1526.76C2056.68 1527.21 2057.22 1527.78 2057.64 1528.49C2058.05 1529.19 2058.26 1530.05 2058.26 1531.08C2058.26 1532.26 2057.95 1533.32 2057.34 1534.27C2056.73 1535.22 2055.83 1535.98 2054.65 1536.54C2053.48 1537.1 2052.06 1537.38 2050.38 1537.38C2048.82 1537.38 2047.46 1537.13 2046.32 1536.63C2045.19 1536.12 2044.29 1535.42 2043.64 1534.52C2042.99 1533.62 2042.62 1532.57 2042.54 1531.38H2045.27C2045.34 1532.2 2045.61 1532.88 2046.1 1533.42C2046.59 1533.95 2047.21 1534.35 2047.95 1534.61C2048.7 1534.87 2049.51 1535 2050.38 1535C2051.39 1535 2052.29 1534.83 2053.1 1534.51C2053.9 1534.17 2054.54 1533.71 2055 1533.12C2055.47 1532.53 2055.71 1531.83 2055.71 1531.03C2055.71 1530.31 2055.5 1529.72 2055.1 1529.27C2054.7 1528.81 2054.16 1528.44 2053.5 1528.16C2052.84 1527.87 2052.13 1527.62 2051.36 1527.41L2048.68 1526.64C2046.97 1526.15 2045.62 1525.46 2044.63 1524.55C2043.63 1523.64 2043.14 1522.45 2043.14 1520.98C2043.14 1519.76 2043.47 1518.69 2044.13 1517.78C2044.79 1516.87 2045.69 1516.15 2046.81 1515.65C2047.94 1515.14 2049.2 1514.88 2050.59 1514.88C2052 1514.88 2053.25 1515.14 2054.34 1515.64C2055.44 1516.14 2056.3 1516.82 2056.94 1517.69C2057.59 1518.55 2057.93 1519.54 2057.97 1520.64H2055.41ZM2076.41 1517.53V1515.18H2092.78V1517.53H2085.92V1537H2083.28V1517.53H2076.41ZM2110.2 1537H2107.43L2115.44 1515.18H2118.17L2126.18 1537H2123.41L2116.89 1518.63H2116.72L2110.2 1537ZM2111.22 1528.48H2122.39V1530.82H2111.22V1528.48ZM2161.88 1515.18V1537H2159.32L2147.44 1519.87H2147.22V1537H2144.58V1515.18H2147.14L2159.07 1532.36H2159.28V1515.18H2161.88ZM2180.98 1517.53V1515.18H2197.34V1517.53H2190.48V1537H2187.84V1517.53H2180.98ZM2228.35 1520.64C2228.22 1519.56 2227.7 1518.72 2226.79 1518.12C2225.88 1517.53 2224.77 1517.23 2223.45 1517.23C2222.48 1517.23 2221.64 1517.38 2220.91 1517.7C2220.19 1518.01 2219.63 1518.44 2219.23 1518.99C2218.83 1519.53 2218.63 1520.15 2218.63 1520.85C2218.63 1521.43 2218.77 1521.93 2219.05 1522.35C2219.33 1522.76 2219.69 1523.11 2220.13 1523.38C2220.57 1523.65 2221.04 1523.88 2221.52 1524.06C2222 1524.23 2222.45 1524.37 2222.85 1524.47L2225.07 1525.07C2225.64 1525.22 2226.27 1525.42 2226.96 1525.69C2227.67 1525.95 2228.34 1526.31 2228.98 1526.76C2229.62 1527.21 2230.16 1527.78 2230.57 1528.49C2230.99 1529.19 2231.2 1530.05 2231.2 1531.08C2231.2 1532.26 2230.89 1533.32 2230.28 1534.27C2229.67 1535.22 2228.77 1535.98 2227.59 1536.54C2226.42 1537.1 2225 1537.38 2223.32 1537.38C2221.76 1537.38 2220.4 1537.13 2219.26 1536.63C2218.12 1536.12 2217.23 1535.42 2216.58 1534.52C2215.93 1533.62 2215.56 1532.57 2215.48 1531.38H2218.21C2218.28 1532.2 2218.55 1532.88 2219.04 1533.42C2219.53 1533.95 2220.15 1534.35 2220.89 1534.61C2221.64 1534.87 2222.45 1535 2223.32 1535C2224.33 1535 2225.23 1534.83 2226.04 1534.51C2226.84 1534.17 2227.47 1533.71 2227.94 1533.12C2228.41 1532.53 2228.65 1531.83 2228.65 1531.03C2228.65 1530.31 2228.44 1529.72 2228.04 1529.27C2227.63 1528.81 2227.1 1528.44 2226.44 1528.16C2225.78 1527.87 2225.07 1527.62 2224.3 1527.41L2221.62 1526.64C2219.91 1526.15 2218.56 1525.46 2217.57 1524.55C2216.57 1523.64 2216.08 1522.45 2216.08 1520.98C2216.08 1519.76 2216.41 1518.69 2217.07 1517.78C2217.73 1516.87 2218.63 1516.15 2219.75 1515.65C2220.88 1515.14 2222.14 1514.88 2223.53 1514.88C2224.94 1514.88 2226.19 1515.14 2227.28 1515.64C2228.38 1516.14 2229.24 1516.82 2229.88 1517.69C2230.53 1518.55 2230.87 1519.54 2230.91 1520.64H2228.35Z" fill="#E3E1D3"/>
<path d="M1456.2 1645L1429.4 1591.96V1639.4L1439 1640.6V1641H1417.4V1640.6L1427 1639.4V1581H1427.4L1454.2 1634.04V1586.6L1444.6 1585.4V1585H1466.2V1585.4L1456.6 1586.6V1645H1456.2ZM1497.8 1641V1640.6L1507.4 1639.4V1586.6L1497.8 1585.4V1585H1520.2V1585.4L1510.6 1586.6V1639.4L1520.2 1640.6V1641H1497.8ZM1598.97 1649.24L1569.53 1607.88L1586.73 1586.6L1577.45 1585.4V1585H1599.77V1585.4L1589.85 1586.6L1573.29 1606.92L1599.61 1648.76L1598.97 1649.24ZM1552.17 1641V1640.6L1561.77 1639.4V1586.6L1552.17 1585.4V1585H1574.57V1585.4L1564.97 1586.6V1639.4L1574.57 1640.6V1641H1552.17ZM1627.41 1641V1640.6L1637.01 1639.4V1586.6L1627.41 1585.4V1585H1649.81V1585.4L1640.21 1586.6V1639.4L1649.81 1640.6V1641H1627.41ZM1687.7 1641V1640.6L1697.3 1639.4V1587.4H1682.66L1680.18 1596.84L1679.78 1596.76L1681.22 1586.44L1681.38 1585H1716.58L1716.74 1586.44L1718.18 1596.76L1717.78 1596.84L1715.3 1587.4H1700.5V1639.4L1709.14 1640.6V1641H1687.7ZM1736.18 1641V1640.6L1745.94 1639.4L1764.58 1582.6H1764.98L1783.46 1639.4L1793.22 1640.6V1641H1770.5V1640.6L1780.02 1639.4L1774.66 1622.68H1754.02L1748.58 1639.4L1758.1 1640.6V1641H1736.18ZM1754.74 1620.28H1773.86L1764.34 1590.52L1754.74 1620.28ZM1875.12 1642.52C1866.96 1642.52 1858.8 1637.4 1858.8 1627.08L1868.88 1618.2L1869.12 1618.44L1862.16 1626.92C1862.16 1635.72 1868.64 1640.12 1875.12 1640.12C1882.64 1640.12 1888.24 1634.68 1888.24 1627.48C1888.24 1621.56 1884.88 1617 1878.72 1614.04L1871.36 1610.6C1863.36 1606.92 1860.08 1601.4 1860.08 1596.2C1860.08 1588.44 1866.56 1582.6 1875.12 1582.6C1882.64 1582.6 1889.68 1587.32 1890 1597L1881.28 1604.2L1881.04 1603.96L1887.04 1596.92C1886.64 1588.92 1880.96 1585 1875.12 1585C1868.16 1585 1862.96 1589.8 1862.96 1596.2C1862.96 1600.28 1865.6 1604.68 1872.48 1607.64L1879.92 1611C1887.36 1614.28 1891.52 1620.12 1891.52 1627.24C1891.52 1635.96 1884.48 1642.52 1875.12 1642.52ZM1952.87 1641V1640.6L1961.51 1639.4V1612.6H1939.11V1639.4L1947.75 1640.6V1641H1926.31V1640.6L1935.91 1639.4V1586.6L1926.31 1585.4V1585H1947.75V1585.4L1939.11 1586.6V1610.2H1961.51V1586.6L1952.87 1585.4V1585H1974.31V1585.4L1964.71 1586.6V1639.4L1974.31 1640.6V1641H1952.87ZM2032.79 1619.88L2029.83 1612.44H2019.11V1638.6H2041.91L2043.11 1629H2043.51V1641H2006.31V1640.6L2015.91 1639.4V1586.6L2006.31 1585.4V1585H2042.71V1597H2042.31L2041.11 1587.4H2019.11V1610.2H2029.83L2032.79 1602.76L2033.19 1602.84L2031.35 1611.08V1611.56L2033.19 1619.8L2032.79 1619.88ZM2125.3 1649.24L2095.06 1607L2095.3 1606.52L2099.86 1608.12H2100.98C2108.5 1608.12 2112.66 1603.64 2112.66 1597.8C2112.66 1591.8 2108.02 1587.4 2101.78 1587.4H2091.14V1639.4L2101.22 1640.6V1641H2078.34V1640.6L2087.94 1639.4V1586.6L2078.34 1585.4V1585H2102.42C2110.42 1585 2116.02 1590.2 2116.02 1597.64C2116.02 1604.84 2110.42 1610.12 2102.42 1610.12H2101.7L2125.94 1648.76L2125.3 1649.24ZM2153.97 1641V1640.6L2163.57 1639.4V1586.6L2153.97 1585.4V1585H2174.61C2183.01 1585 2189.01 1590.6 2189.01 1598.52C2189.01 1604.04 2186.05 1608.52 2181.57 1610.68C2188.53 1612.12 2193.57 1618.12 2193.57 1625.56C2193.57 1634.6 2186.93 1641 2177.57 1641H2153.97ZM2174.61 1610.2C2180.93 1610.2 2185.65 1605.32 2185.65 1598.76C2185.65 1592.28 2180.93 1587.4 2174.61 1587.4H2166.77V1610.2H2174.61ZM2166.77 1638.6H2177.57C2184.77 1638.6 2190.21 1633 2190.21 1625.48C2190.21 1618.12 2184.77 1612.44 2177.57 1612.44H2166.77V1638.6ZM2229.2 1641V1640.6L2238.8 1639.4V1586.6L2229.2 1585.4V1585H2251.6V1585.4L2242 1586.6V1639.4L2251.6 1640.6V1641H2229.2ZM2314.38 1642.6C2297.26 1642.6 2284.38 1629.72 2284.38 1612.6C2284.38 1595.48 2297.26 1582.6 2314.38 1582.6C2326.94 1582.6 2337.26 1589.56 2341.82 1600.04L2333.9 1610.12L2333.58 1610.04L2338.7 1600.68C2334.78 1591.24 2325.74 1585 2314.38 1585C2298.78 1585 2287.74 1596.44 2287.74 1612.6C2287.74 1628.76 2298.78 1640.2 2314.38 1640.2C2326.22 1640.2 2335.42 1633.64 2339.18 1623.4V1619.16L2339.5 1619.08L2342.22 1624.12C2337.9 1635.16 2327.34 1642.6 2314.38 1642.6ZM2400.76 1641V1640.6L2409.4 1639.4V1612.6H2387V1639.4L2395.64 1640.6V1641H2374.2V1640.6L2383.8 1639.4V1586.6L2374.2 1585.4V1585H2395.64V1585.4L2387 1586.6V1610.2H2409.4V1586.6L2400.76 1585.4V1585H2422.2V1585.4L2412.6 1586.6V1639.4L2422.2 1640.6V1641H2400.76ZM1432.05 1731.88L1429.09 1724.44H1418.37V1750.6H1441.17L1442.37 1741H1442.77V1753H1405.57V1752.6L1415.17 1751.4V1698.6L1405.57 1697.4V1697H1441.97V1709H1441.57L1440.37 1699.4H1418.37V1722.2H1429.09L1432.05 1714.76L1432.45 1714.84L1430.61 1723.08V1723.56L1432.45 1731.8L1432.05 1731.88ZM1506.84 1754.6C1489.72 1754.6 1476.84 1741.72 1476.84 1724.6C1476.84 1707.48 1489.72 1694.6 1506.84 1694.6C1519.4 1694.6 1529.72 1701.56 1534.28 1712.04L1531.56 1717.08L1531.24 1717V1712.76C1527.32 1703.24 1518.28 1697 1506.84 1697C1491.24 1697 1480.2 1708.44 1480.2 1724.6C1480.2 1740.76 1491.24 1752.2 1506.84 1752.2C1521.08 1752.2 1531.56 1742.68 1533.24 1728.76L1506.76 1726.76V1726.36H1536.76C1535.88 1742.52 1523.32 1754.6 1506.84 1754.6ZM1599.96 1754.6C1582.84 1754.6 1569.96 1741.72 1569.96 1724.6C1569.96 1707.48 1582.84 1694.6 1599.96 1694.6C1617.08 1694.6 1629.96 1707.48 1629.96 1724.6C1629.96 1741.72 1617.08 1754.6 1599.96 1754.6ZM1599.96 1752.2C1615.56 1752.2 1626.6 1740.76 1626.6 1724.6C1626.6 1708.44 1615.56 1697 1599.96 1697C1584.36 1697 1573.32 1708.44 1573.32 1724.6C1573.32 1740.76 1584.36 1752.2 1599.96 1752.2ZM1709.72 1761.24L1679.48 1719L1679.72 1718.52L1684.28 1720.12H1685.4C1692.92 1720.12 1697.08 1715.64 1697.08 1709.8C1697.08 1703.8 1692.44 1699.4 1686.2 1699.4H1675.56V1751.4L1685.64 1752.6V1753H1662.76V1752.6L1672.36 1751.4V1698.6L1662.76 1697.4V1697H1686.84C1694.84 1697 1700.44 1702.2 1700.44 1709.64C1700.44 1716.84 1694.84 1722.12 1686.84 1722.12H1686.12L1710.36 1760.76L1709.72 1761.24ZM1809.18 1754.6C1792.06 1754.6 1779.18 1741.72 1779.18 1724.6C1779.18 1707.48 1792.06 1694.6 1809.18 1694.6C1821.74 1694.6 1832.06 1701.56 1836.62 1712.04L1828.7 1722.12L1828.38 1722.04L1833.5 1712.68C1829.58 1703.24 1820.54 1697 1809.18 1697C1793.58 1697 1782.54 1708.44 1782.54 1724.6C1782.54 1740.76 1793.58 1752.2 1809.18 1752.2C1821.02 1752.2 1830.22 1745.64 1833.98 1735.4V1731.16L1834.3 1731.08L1837.02 1736.12C1832.7 1747.16 1822.14 1754.6 1809.18 1754.6ZM1895.57 1753V1752.6L1904.21 1751.4V1724.6H1881.81V1751.4L1890.45 1752.6V1753H1869.01V1752.6L1878.61 1751.4V1698.6L1869.01 1697.4V1697H1890.45V1697.4L1881.81 1698.6V1722.2H1904.21V1698.6L1895.57 1697.4V1697H1917.01V1697.4L1907.41 1698.6V1751.4L1917.01 1752.6V1753H1895.57ZM1975.49 1731.88L1972.53 1724.44H1961.81V1750.6H1984.61L1985.81 1741H1986.21V1753H1949.01V1752.6L1958.61 1751.4V1698.6L1949.01 1697.4V1697H1985.41V1709H1985.01L1983.81 1699.4H1961.81V1722.2H1972.53L1975.49 1714.76L1975.89 1714.84L1974.05 1723.08V1723.56L1975.89 1731.8L1975.49 1731.88ZM2040.16 1754.52C2032 1754.52 2023.84 1749.4 2023.84 1739.08L2033.92 1730.2L2034.16 1730.44L2027.2 1738.92C2027.2 1747.72 2033.68 1752.12 2040.16 1752.12C2047.68 1752.12 2053.28 1746.68 2053.28 1739.48C2053.28 1733.56 2049.92 1729 2043.76 1726.04L2036.4 1722.6C2028.4 1718.92 2025.12 1713.4 2025.12 1708.2C2025.12 1700.44 2031.6 1694.6 2040.16 1694.6C2047.68 1694.6 2054.72 1699.32 2055.04 1709L2046.32 1716.2L2046.08 1715.96L2052.08 1708.92C2051.68 1700.92 2046 1697 2040.16 1697C2033.2 1697 2028 1701.8 2028 1708.2C2028 1712.28 2030.64 1716.68 2037.52 1719.64L2044.96 1723C2052.4 1726.28 2056.56 1732.12 2056.56 1739.24C2056.56 1747.96 2049.52 1754.52 2040.16 1754.52ZM2129.75 1757L2102.95 1703.96V1751.4L2112.55 1752.6V1753H2090.95V1752.6L2100.55 1751.4V1693H2100.95L2127.75 1746.04V1698.6L2118.15 1697.4V1697H2139.75V1697.4L2130.15 1698.6V1757H2129.75ZM2171.35 1753V1752.6L2180.95 1751.4V1698.6L2171.35 1697.4V1697H2193.75V1697.4L2184.15 1698.6V1751.4L2193.75 1752.6V1753H2171.35ZM2272.53 1761.24L2243.09 1719.88L2260.29 1698.6L2251.01 1697.4V1697H2273.33V1697.4L2263.41 1698.6L2246.85 1718.92L2273.17 1760.76L2272.53 1761.24ZM2225.73 1753V1752.6L2235.33 1751.4V1698.6L2225.73 1697.4V1697H2248.13V1697.4L2238.53 1698.6V1751.4L2248.13 1752.6V1753H2225.73ZM2330.98 1754.6C2313.86 1754.6 2300.98 1741.72 2300.98 1724.6C2300.98 1707.48 2313.86 1694.6 2330.98 1694.6C2348.1 1694.6 2360.98 1707.48 2360.98 1724.6C2360.98 1741.72 2348.1 1754.6 2330.98 1754.6ZM2330.98 1752.2C2346.58 1752.2 2357.62 1740.76 2357.62 1724.6C2357.62 1708.44 2346.58 1697 2330.98 1697C2315.38 1697 2304.34 1708.44 2304.34 1724.6C2304.34 1740.76 2315.38 1752.2 2330.98 1752.2ZM2414.01 1756.2L2395.45 1698.6L2385.77 1697.4V1697H2408.49V1697.4L2398.97 1698.6L2414.65 1748.2L2430.41 1698.6L2420.89 1697.4V1697H2442.81V1697.4L2433.13 1698.6L2414.41 1756.2H2414.01Z" fill="#E3E1D3"/>
</svg>
