<svg width="3840" height="2160" viewBox="0 0 3840 2160" fill="none" xmlns="http://www.w3.org/2000/svg">
<rect width="3840" height="2160" fill="black"/>
<path d="M1653.53 249H1650.89C1650.73 248.24 1650.46 247.572 1650.07 246.997C1649.68 246.422 1649.21 245.939 1648.66 245.548C1648.11 245.151 1647.51 244.852 1646.84 244.653C1646.17 244.455 1645.47 244.355 1644.75 244.355C1643.43 244.355 1642.23 244.689 1641.16 245.357C1640.09 246.024 1639.25 247.008 1638.61 248.308C1637.99 249.607 1637.68 251.202 1637.68 253.091C1637.68 254.98 1637.99 256.575 1638.61 257.874C1639.25 259.174 1640.09 260.158 1641.16 260.825C1642.23 261.493 1643.43 261.827 1644.75 261.827C1645.47 261.827 1646.17 261.727 1646.84 261.528C1647.51 261.33 1648.11 261.035 1648.66 260.644C1649.21 260.246 1649.68 259.76 1650.07 259.185C1650.46 258.602 1650.73 257.935 1650.89 257.182H1653.53C1653.33 258.297 1652.97 259.295 1652.44 260.175C1651.92 261.056 1651.26 261.805 1650.48 262.423C1649.7 263.034 1648.82 263.499 1647.85 263.819C1646.88 264.138 1645.85 264.298 1644.75 264.298C1642.89 264.298 1641.23 263.844 1639.79 262.935C1638.34 262.026 1637.2 260.733 1636.37 259.057C1635.54 257.381 1635.12 255.392 1635.12 253.091C1635.12 250.79 1635.54 248.801 1636.37 247.125C1637.2 245.449 1638.34 244.156 1639.79 243.247C1641.23 242.338 1642.89 241.884 1644.75 241.884C1645.85 241.884 1646.88 242.043 1647.85 242.363C1648.82 242.683 1649.7 243.151 1650.48 243.769C1651.26 244.38 1651.92 245.126 1652.44 246.006C1652.97 246.88 1653.33 247.878 1653.53 249ZM1673.69 264H1670.92L1678.93 242.182H1681.66L1689.67 264H1686.9L1680.38 245.634H1680.21L1673.69 264ZM1674.72 255.477H1685.88V257.821H1674.72V255.477ZM1720 247.636C1719.88 246.557 1719.36 245.719 1718.45 245.122C1717.54 244.526 1716.42 244.227 1715.1 244.227C1714.14 244.227 1713.29 244.384 1712.57 244.696C1711.85 245.009 1711.29 245.438 1710.88 245.985C1710.49 246.532 1710.29 247.153 1710.29 247.849C1710.29 248.432 1710.43 248.933 1710.7 249.352C1710.99 249.763 1711.35 250.108 1711.79 250.385C1712.23 250.655 1712.69 250.879 1713.17 251.056C1713.66 251.227 1714.1 251.365 1714.51 251.472L1716.72 252.068C1717.29 252.217 1717.92 252.423 1718.62 252.686C1719.32 252.949 1719.99 253.308 1720.63 253.762C1721.28 254.21 1721.81 254.785 1722.23 255.488C1722.65 256.191 1722.86 257.054 1722.86 258.077C1722.86 259.256 1722.55 260.321 1721.93 261.273C1721.32 262.224 1720.43 262.981 1719.25 263.542C1718.08 264.103 1716.65 264.384 1714.98 264.384C1713.41 264.384 1712.06 264.131 1710.92 263.627C1709.78 263.123 1708.88 262.42 1708.23 261.518C1707.59 260.616 1707.22 259.568 1707.13 258.375H1709.86C1709.93 259.199 1710.21 259.881 1710.69 260.42C1711.18 260.953 1711.8 261.351 1712.55 261.614C1713.3 261.869 1714.11 261.997 1714.98 261.997C1715.98 261.997 1716.89 261.834 1717.69 261.507C1718.49 261.173 1719.13 260.712 1719.6 260.122C1720.07 259.526 1720.3 258.83 1720.3 258.034C1720.3 257.31 1720.1 256.72 1719.69 256.266C1719.29 255.811 1718.76 255.442 1718.1 255.158C1717.44 254.874 1716.72 254.625 1715.96 254.412L1713.27 253.645C1711.57 253.155 1710.22 252.455 1709.22 251.546C1708.23 250.637 1707.73 249.447 1707.73 247.977C1707.73 246.756 1708.06 245.69 1708.72 244.781C1709.39 243.865 1710.28 243.155 1711.41 242.651C1712.54 242.139 1713.8 241.884 1715.19 241.884C1716.59 241.884 1717.84 242.136 1718.94 242.64C1720.03 243.137 1720.9 243.819 1721.54 244.685C1722.18 245.552 1722.52 246.536 1722.56 247.636H1720ZM1741.01 244.526V242.182H1757.37V244.526H1750.51V264H1747.87V244.526H1741.01ZM1779.09 242.182V264H1776.45V242.182H1779.09ZM1816.69 242.182V264H1814.13L1802.25 246.869H1802.03V264H1799.39V242.182H1801.95L1813.88 259.355H1814.09V242.182H1816.69ZM1845.84 264.298C1843.91 264.298 1842.21 263.844 1840.75 262.935C1839.29 262.026 1838.16 260.733 1837.34 259.057C1836.53 257.381 1836.13 255.392 1836.13 253.091C1836.13 251.365 1836.36 249.813 1836.84 248.435C1837.32 247.05 1837.98 245.871 1838.84 244.898C1839.71 243.925 1840.73 243.18 1841.9 242.661C1843.08 242.143 1844.36 241.884 1845.76 241.884C1846.91 241.884 1847.99 242.058 1849 242.406C1850 242.746 1850.91 243.233 1851.71 243.865C1852.52 244.49 1853.19 245.239 1853.73 246.113C1854.26 246.979 1854.63 247.942 1854.83 249H1852.11C1851.89 248.283 1851.58 247.64 1851.19 247.072C1850.8 246.496 1850.33 246.006 1849.78 245.602C1849.24 245.197 1848.63 244.888 1847.95 244.675C1847.28 244.462 1846.54 244.355 1845.76 244.355C1844.46 244.355 1843.28 244.689 1842.21 245.357C1841.14 246.024 1840.28 247.008 1839.64 248.308C1839 249.607 1838.68 251.202 1838.68 253.091C1838.68 254.98 1839 256.575 1839.63 257.874C1840.26 259.174 1841.12 260.158 1842.2 260.825C1843.28 261.493 1844.49 261.827 1845.84 261.827C1847.14 261.827 1848.28 261.543 1849.26 260.974C1850.25 260.399 1851.02 259.611 1851.57 258.609C1852.13 257.601 1852.4 256.45 1852.4 255.158L1852.75 255.435H1846.44V253.091H1854.96V264H1852.75L1852.43 261.337H1852.32C1851.49 262.288 1850.56 263.02 1849.54 263.531C1848.52 264.043 1847.28 264.298 1845.84 264.298ZM1904.65 264H1897.92V242.182H1904.95C1907.06 242.182 1908.87 242.619 1910.38 243.492C1911.89 244.359 1913.04 245.605 1913.84 247.232C1914.64 248.851 1915.05 250.79 1915.05 253.048C1915.05 255.321 1914.64 257.278 1913.83 258.918C1913.02 260.552 1911.84 261.809 1910.29 262.69C1908.75 263.563 1906.86 264 1904.65 264ZM1900.56 261.656H1904.48C1906.28 261.656 1907.78 261.308 1908.96 260.612C1910.15 259.916 1911.03 258.925 1911.62 257.64C1912.2 256.354 1912.49 254.824 1912.49 253.048C1912.49 251.287 1912.2 249.771 1911.63 248.499C1911.05 247.221 1910.19 246.241 1909.05 245.559C1907.9 244.87 1906.48 244.526 1904.78 244.526H1900.56V261.656ZM1937.12 242.182V264H1934.48V242.182H1937.12ZM1957.42 264V242.182H1964.79C1966.49 242.182 1967.89 242.473 1968.99 243.055C1970.08 243.631 1970.89 244.423 1971.42 245.431C1971.94 246.44 1972.2 247.587 1972.2 248.872C1972.2 250.158 1971.94 251.298 1971.42 252.292C1970.89 253.286 1970.08 254.067 1969 254.636C1967.91 255.197 1966.52 255.477 1964.83 255.477H1958.87V253.091H1964.75C1965.91 253.091 1966.85 252.92 1967.56 252.58C1968.28 252.239 1968.8 251.756 1969.11 251.131C1969.44 250.499 1969.6 249.746 1969.6 248.872C1969.6 247.999 1969.44 247.235 1969.11 246.582C1968.79 245.928 1968.27 245.424 1967.55 245.069C1966.83 244.707 1965.88 244.526 1964.7 244.526H1960.06V264H1957.42ZM1967.69 254.199L1973.06 264H1969.99L1964.7 254.199H1967.69ZM1991.61 264V242.182H2004.77V244.526H1994.25V251.898H2004.09V254.241H1994.25V261.656H2004.94V264H1991.61ZM2042.09 249H2039.45C2039.3 248.24 2039.02 247.572 2038.63 246.997C2038.25 246.422 2037.78 245.939 2037.22 245.548C2036.68 245.151 2036.07 244.852 2035.4 244.653C2034.74 244.455 2034.04 244.355 2033.31 244.355C2031.99 244.355 2030.8 244.689 2029.72 245.357C2028.66 246.024 2027.81 247.008 2027.18 248.308C2026.55 249.607 2026.24 251.202 2026.24 253.091C2026.24 254.98 2026.55 256.575 2027.18 257.874C2027.81 259.174 2028.66 260.158 2029.72 260.825C2030.8 261.493 2031.99 261.827 2033.31 261.827C2034.04 261.827 2034.74 261.727 2035.4 261.528C2036.07 261.33 2036.68 261.035 2037.22 260.644C2037.78 260.246 2038.25 259.76 2038.63 259.185C2039.02 258.602 2039.3 257.935 2039.45 257.182H2042.09C2041.89 258.297 2041.53 259.295 2041.01 260.175C2040.48 261.056 2039.83 261.805 2039.05 262.423C2038.27 263.034 2037.39 263.499 2036.42 263.819C2035.45 264.138 2034.42 264.298 2033.31 264.298C2031.45 264.298 2029.8 263.844 2028.35 262.935C2026.9 262.026 2025.76 260.733 2024.93 259.057C2024.1 257.381 2023.68 255.392 2023.68 253.091C2023.68 250.79 2024.1 248.801 2024.93 247.125C2025.76 245.449 2026.9 244.156 2028.35 243.247C2029.8 242.338 2031.45 241.884 2033.31 241.884C2034.42 241.884 2035.45 242.043 2036.42 242.363C2037.39 242.683 2038.27 243.151 2039.05 243.769C2039.83 244.38 2040.48 245.126 2041.01 246.006C2041.53 246.88 2041.89 247.878 2042.09 249ZM2060.17 244.526V242.182H2076.53V244.526H2069.67V264H2067.03V244.526H2060.17ZM2113.11 253.091C2113.11 255.392 2112.7 257.381 2111.87 259.057C2111.03 260.733 2109.89 262.026 2108.45 262.935C2107 263.844 2105.34 264.298 2103.48 264.298C2101.62 264.298 2099.97 263.844 2098.52 262.935C2097.07 262.026 2095.93 260.733 2095.1 259.057C2094.27 257.381 2093.85 255.392 2093.85 253.091C2093.85 250.79 2094.27 248.801 2095.1 247.125C2095.93 245.449 2097.07 244.156 2098.52 243.247C2099.97 242.338 2101.62 241.884 2103.48 241.884C2105.34 241.884 2107 242.338 2108.45 243.247C2109.89 244.156 2111.03 245.449 2111.87 247.125C2112.7 248.801 2113.11 250.79 2113.11 253.091ZM2110.55 253.091C2110.55 251.202 2110.24 249.607 2109.61 248.308C2108.98 247.008 2108.13 246.024 2107.06 245.357C2106 244.689 2104.8 244.355 2103.48 244.355C2102.16 244.355 2100.96 244.689 2099.89 245.357C2098.83 246.024 2097.98 247.008 2097.34 248.308C2096.72 249.607 2096.41 251.202 2096.41 253.091C2096.41 254.98 2096.72 256.575 2097.34 257.874C2097.98 259.174 2098.83 260.158 2099.89 260.825C2100.96 261.493 2102.16 261.827 2103.48 261.827C2104.8 261.827 2106 261.493 2107.06 260.825C2108.13 260.158 2108.98 259.174 2109.61 257.874C2110.24 256.575 2110.55 254.98 2110.55 253.091ZM2132.55 264V242.182H2139.93C2141.63 242.182 2143.03 242.473 2144.12 243.055C2145.22 243.631 2146.03 244.423 2146.55 245.431C2147.08 246.44 2147.34 247.587 2147.34 248.872C2147.34 250.158 2147.08 251.298 2146.55 252.292C2146.03 253.286 2145.22 254.067 2144.13 254.636C2143.05 255.197 2141.66 255.477 2139.97 255.477H2134V253.091H2139.88C2141.05 253.091 2141.99 252.92 2142.7 252.58C2143.41 252.239 2143.93 251.756 2144.25 251.131C2144.58 250.499 2144.74 249.746 2144.74 248.872C2144.74 247.999 2144.58 247.235 2144.25 246.582C2143.92 245.928 2143.4 245.424 2142.69 245.069C2141.97 244.707 2141.02 244.526 2139.84 244.526H2135.2V264H2132.55ZM2142.82 254.199L2148.19 264H2145.13L2139.84 254.199H2142.82ZM2178.68 247.636C2178.55 246.557 2178.03 245.719 2177.12 245.122C2176.21 244.526 2175.1 244.227 2173.77 244.227C2172.81 244.227 2171.96 244.384 2171.24 244.696C2170.52 245.009 2169.96 245.438 2169.56 245.985C2169.16 246.532 2168.96 247.153 2168.96 247.849C2168.96 248.432 2169.1 248.933 2169.38 249.352C2169.66 249.763 2170.02 250.108 2170.46 250.385C2170.9 250.655 2171.36 250.879 2171.85 251.056C2172.33 251.227 2172.77 251.365 2173.18 251.472L2175.39 252.068C2175.96 252.217 2176.59 252.423 2177.29 252.686C2177.99 252.949 2178.66 253.308 2179.3 253.762C2179.95 254.21 2180.48 254.785 2180.9 255.488C2181.32 256.191 2181.53 257.054 2181.53 258.077C2181.53 259.256 2181.22 260.321 2180.6 261.273C2179.99 262.224 2179.1 262.981 2177.92 263.542C2176.75 264.103 2175.32 264.384 2173.65 264.384C2172.08 264.384 2170.73 264.131 2169.59 263.627C2168.45 263.123 2167.56 262.42 2166.9 261.518C2166.26 260.616 2165.89 259.568 2165.81 258.375H2168.53C2168.6 259.199 2168.88 259.881 2169.36 260.42C2169.85 260.953 2170.47 261.351 2171.22 261.614C2171.97 261.869 2172.78 261.997 2173.65 261.997C2174.66 261.997 2175.56 261.834 2176.36 261.507C2177.17 261.173 2177.8 260.712 2178.27 260.122C2178.74 259.526 2178.97 258.83 2178.97 258.034C2178.97 257.31 2178.77 256.72 2178.37 256.266C2177.96 255.811 2177.43 255.442 2176.77 255.158C2176.11 254.874 2175.39 254.625 2174.63 254.412L2171.94 253.645C2170.24 253.155 2168.89 252.455 2167.89 251.546C2166.9 250.637 2166.4 249.447 2166.4 247.977C2166.4 246.756 2166.73 245.69 2167.39 244.781C2168.06 243.865 2168.96 243.155 2170.08 242.651C2171.21 242.139 2172.47 241.884 2173.86 241.884C2175.27 241.884 2176.52 242.136 2177.61 242.64C2178.7 243.137 2179.57 243.819 2180.21 244.685C2180.86 245.552 2181.2 246.536 2181.23 247.636H2178.68Z" fill="#E3E1D3"/>
<path d="M1421.94 376.24L1392.5 334.88L1409.7 313.6L1400.42 312.4V312H1422.74V312.4L1412.82 313.6L1396.26 333.92L1422.58 375.76L1421.94 376.24ZM1375.14 368V367.6L1384.74 366.4V313.6L1375.14 312.4V312H1397.54V312.4L1387.94 313.6V366.4L1397.54 367.6V368H1375.14ZM1441.57 368V367.6L1451.34 366.4L1469.98 309.6H1470.38L1488.86 366.4L1498.62 367.6V368H1475.9V367.6L1485.42 366.4L1480.06 349.68H1459.42L1453.98 366.4L1463.5 367.6V368H1441.57ZM1460.14 347.28H1479.26L1469.74 317.52L1460.14 347.28ZM1524.5 368V367.6L1534.1 366.4V314.4H1519.46L1516.98 323.84L1516.58 323.76L1518.02 313.44L1518.18 312H1553.38L1553.54 313.44L1554.98 323.76L1554.58 323.84L1552.1 314.4H1537.3V366.4L1545.94 367.6V368H1524.5ZM1592.5 368V367.6L1602.1 366.4V342.4L1588.74 313.6L1578.98 312.4V312H1601.86V312.4L1592.42 313.6L1604.02 339.2L1615.54 313.6L1606.1 312.4V312H1628.18V312.4L1618.42 313.6L1605.3 341.68V366.4L1613.94 367.6V368H1592.5ZM1643.84 368V367.6L1653.6 366.4L1672.24 309.6H1672.64L1691.12 366.4L1700.88 367.6V368H1678.16V367.6L1687.68 366.4L1682.32 349.68H1661.68L1656.24 366.4L1665.76 367.6V368H1643.84ZM1662.4 347.28H1681.52L1672 317.52L1662.4 347.28ZM1770 368V367.6L1779.6 366.4V342.4L1766.24 313.6L1756.48 312.4V312H1779.36V312.4L1769.92 313.6L1781.52 339.2L1793.04 313.6L1783.6 312.4V312H1805.68V312.4L1795.92 313.6L1782.8 341.68V366.4L1791.44 367.6V368H1770ZM1821.34 368V367.6L1831.1 366.4L1849.74 309.6H1850.14L1868.62 366.4L1878.38 367.6V368H1855.66V367.6L1865.18 366.4L1859.82 349.68H1839.18L1833.74 366.4L1843.26 367.6V368H1821.34ZM1839.9 347.28H1859.02L1849.5 317.52L1839.9 347.28ZM1920.67 369.52C1912.51 369.52 1904.35 364.4 1904.35 354.08L1914.43 345.2L1914.67 345.44L1907.71 353.92C1907.71 362.72 1914.19 367.12 1920.67 367.12C1928.19 367.12 1933.79 361.68 1933.79 354.48C1933.79 348.56 1930.43 344 1924.27 341.04L1916.91 337.6C1908.91 333.92 1905.63 328.4 1905.63 323.2C1905.63 315.44 1912.11 309.6 1920.67 309.6C1928.19 309.6 1935.23 314.32 1935.55 324L1926.83 331.2L1926.59 330.96L1932.59 323.92C1932.19 315.92 1926.51 312 1920.67 312C1913.71 312 1908.51 316.8 1908.51 323.2C1908.51 327.28 1911.15 331.68 1918.03 334.64L1925.47 338C1932.91 341.28 1937.07 347.12 1937.07 354.24C1937.07 362.96 1930.03 369.52 1920.67 369.52ZM1977.78 368V367.6L1987.38 366.4V314.4H1972.74L1970.26 323.84L1969.86 323.76L1971.3 313.44L1971.46 312H2006.66L2006.82 313.44L2008.26 323.76L2007.86 323.84L2005.38 314.4H1990.58V366.4L1999.22 367.6V368H1977.78ZM2085.23 376.24L2054.99 334L2055.23 333.52L2059.79 335.12H2060.91C2068.43 335.12 2072.59 330.64 2072.59 324.8C2072.59 318.8 2067.95 314.4 2061.71 314.4H2051.07V366.4L2061.15 367.6V368H2038.27V367.6L2047.87 366.4V313.6L2038.27 312.4V312H2062.35C2070.35 312 2075.95 317.2 2075.95 324.64C2075.95 331.84 2070.35 337.12 2062.35 337.12H2061.63L2085.87 375.76L2085.23 376.24ZM2140.37 346.88L2137.41 339.44H2126.69V365.6H2149.49L2150.69 356H2151.09V368H2113.89V367.6L2123.49 366.4V313.6L2113.89 312.4V312H2150.29V324H2149.89L2148.69 314.4H2126.69V337.2H2137.41L2140.37 329.76L2140.77 329.84L2138.93 338.08V338.56L2140.77 346.8L2140.37 346.88ZM2185.92 368V367.6L2195.52 366.4V313.6L2185.92 312.4V312H2206.56C2214.96 312 2220.96 317.6 2220.96 325.52C2220.96 331.04 2218 335.52 2213.52 337.68C2220.48 339.12 2225.52 345.12 2225.52 352.56C2225.52 361.6 2218.88 368 2209.52 368H2185.92ZM2206.56 337.2C2212.88 337.2 2217.6 332.32 2217.6 325.76C2217.6 319.28 2212.88 314.4 2206.56 314.4H2198.72V337.2H2206.56ZM2198.72 365.6H2209.52C2216.72 365.6 2222.16 360 2222.16 352.48C2222.16 345.12 2216.72 339.44 2209.52 339.44H2198.72V365.6ZM2291.57 369.6C2274.45 369.6 2261.57 356.72 2261.57 339.6C2261.57 322.48 2274.45 309.6 2291.57 309.6C2308.69 309.6 2321.57 322.48 2321.57 339.6C2321.57 356.72 2308.69 369.6 2291.57 369.6ZM2291.57 367.2C2307.17 367.2 2318.21 355.76 2318.21 339.6C2318.21 323.44 2307.17 312 2291.57 312C2275.97 312 2264.93 323.44 2264.93 339.6C2264.93 355.76 2275.97 367.2 2291.57 367.2ZM2374.6 371.2L2356.04 313.6L2346.36 312.4V312H2369.08V312.4L2359.56 313.6L2375.24 363.2L2391 313.6L2381.48 312.4V312H2403.4V312.4L2393.72 313.6L2375 371.2H2374.6ZM2416.65 368V367.6L2426.41 366.4L2445.05 309.6H2445.45L2463.93 366.4L2473.69 367.6V368H2450.97V367.6L2460.49 366.4L2455.13 349.68H2434.49L2429.05 366.4L2438.57 367.6V368H2416.65ZM2435.21 347.28H2454.33L2444.81 317.52L2435.21 347.28ZM1287.43 480V479.6L1297.19 478.4L1315.83 421.6H1316.23L1334.71 478.4L1344.47 479.6V480H1321.75V479.6L1331.27 478.4L1325.91 461.68H1305.27L1299.83 478.4L1309.35 479.6V480H1287.43ZM1305.99 459.28H1325.11L1315.59 429.52L1305.99 459.28ZM1406.04 484L1379.24 430.96V478.4L1388.84 479.6V480H1367.24V479.6L1376.84 478.4V420H1377.24L1404.04 473.04V425.6L1394.44 424.4V424H1416.04V424.4L1406.44 425.6V484H1406.04ZM1438.84 480V479.6L1448.6 478.4L1467.24 421.6H1467.64L1486.12 478.4L1495.88 479.6V480H1473.16V479.6L1482.68 478.4L1477.32 461.68H1456.68L1451.24 478.4L1460.76 479.6V480H1438.84ZM1457.4 459.28H1476.52L1467 429.52L1457.4 459.28ZM1538.17 481.52C1530.01 481.52 1521.85 476.4 1521.85 466.08L1531.93 457.2L1532.17 457.44L1525.21 465.92C1525.21 474.72 1531.69 479.12 1538.17 479.12C1545.69 479.12 1551.29 473.68 1551.29 466.48C1551.29 460.56 1547.93 456 1541.77 453.04L1534.41 449.6C1526.41 445.92 1523.13 440.4 1523.13 435.2C1523.13 427.44 1529.61 421.6 1538.17 421.6C1545.69 421.6 1552.73 426.32 1553.05 436L1544.33 443.2L1544.09 442.96L1550.09 435.92C1549.69 427.92 1544.01 424 1538.17 424C1531.21 424 1526.01 428.8 1526.01 435.2C1526.01 439.28 1528.65 443.68 1535.53 446.64L1542.97 450C1550.41 453.28 1554.57 459.12 1554.57 466.24C1554.57 474.96 1547.53 481.52 1538.17 481.52ZM1595.28 480V479.6L1604.88 478.4V426.4H1590.24L1587.76 435.84L1587.36 435.76L1588.8 425.44L1588.96 424H1624.16L1624.32 425.44L1625.76 435.76L1625.36 435.84L1622.88 426.4H1608.08V478.4L1616.72 479.6V480H1595.28ZM1643.76 480V479.6L1653.52 478.4L1672.16 421.6H1672.56L1691.04 478.4L1700.8 479.6V480H1678.08V479.6L1687.6 478.4L1682.24 461.68H1661.6L1656.16 478.4L1665.68 479.6V480H1643.76ZM1662.32 459.28H1681.44L1671.92 429.52L1662.32 459.28ZM1743.09 481.52C1734.93 481.52 1726.77 476.4 1726.77 466.08L1736.85 457.2L1737.09 457.44L1730.13 465.92C1730.13 474.72 1736.61 479.12 1743.09 479.12C1750.61 479.12 1756.21 473.68 1756.21 466.48C1756.21 460.56 1752.85 456 1746.69 453.04L1739.33 449.6C1731.33 445.92 1728.05 440.4 1728.05 435.2C1728.05 427.44 1734.53 421.6 1743.09 421.6C1750.61 421.6 1757.65 426.32 1757.97 436L1749.25 443.2L1749.01 442.96L1755.01 435.92C1754.61 427.92 1748.93 424 1743.09 424C1736.13 424 1730.93 428.8 1730.93 435.2C1730.93 439.28 1733.57 443.68 1740.45 446.64L1747.89 450C1755.33 453.28 1759.49 459.12 1759.49 466.24C1759.49 474.96 1752.45 481.52 1743.09 481.52ZM1794.28 480V479.6L1803.88 478.4V425.6L1794.28 424.4V424H1816.68V424.4L1807.08 425.6V478.4L1816.68 479.6V480H1794.28ZM1839.86 480V479.6L1849.62 478.4L1868.26 421.6H1868.66L1887.14 478.4L1896.9 479.6V480H1874.18V479.6L1883.7 478.4L1878.34 461.68H1857.7L1852.26 478.4L1861.78 479.6V480H1839.86ZM1858.42 459.28H1877.54L1868.02 429.52L1858.42 459.28ZM1986.71 483.2L1971.27 435.12V478.4L1979.91 479.6V480H1959.27V479.6L1968.87 478.4V420H1969.43L1987.19 475.28L2005.11 420H2005.67V478.4L2015.27 479.6V480H1993.83V479.6L2002.47 478.4V435.92L1987.11 483.2H1986.71ZM2038.06 480V479.6L2047.82 478.4L2066.46 421.6H2066.86L2085.34 478.4L2095.1 479.6V480H2072.38V479.6L2081.9 478.4L2076.54 461.68H2055.9L2050.46 478.4L2059.98 479.6V480H2038.06ZM2056.62 459.28H2075.74L2066.22 429.52L2056.62 459.28ZM2118.27 480V479.6L2127.87 478.4V425.6L2118.27 424.4V424H2141.15V424.4L2131.07 425.6V477.6H2153.39L2155.87 468.16L2156.27 468.24L2154.83 478.56L2154.67 480H2118.27ZM2179.47 480V479.6L2189.23 478.4L2207.87 421.6H2208.27L2226.75 478.4L2236.51 479.6V480H2213.79V479.6L2223.31 478.4L2217.95 461.68H2197.31L2191.87 478.4L2201.39 479.6V480H2179.47ZM2198.03 459.28H2217.15L2207.63 429.52L2198.03 459.28ZM2286.23 480V479.6L2294.87 478.4V451.6H2272.47V478.4L2281.11 479.6V480H2259.67V479.6L2269.27 478.4V425.6L2259.67 424.4V424H2281.11V424.4L2272.47 425.6V449.2H2294.87V425.6L2286.23 424.4V424H2307.67V424.4L2298.07 425.6V478.4L2307.67 479.6V480H2286.23ZM2370.47 481.6C2353.35 481.6 2340.47 468.72 2340.47 451.6C2340.47 434.48 2353.35 421.6 2370.47 421.6C2387.59 421.6 2400.47 434.48 2400.47 451.6C2400.47 468.72 2387.59 481.6 2370.47 481.6ZM2370.47 479.2C2386.07 479.2 2397.11 467.76 2397.11 451.6C2397.11 435.44 2386.07 424 2370.47 424C2354.87 424 2343.83 435.44 2343.83 451.6C2343.83 467.76 2354.87 479.2 2370.47 479.2ZM2453.51 483.2L2434.95 425.6L2425.27 424.4V424H2447.99V424.4L2438.47 425.6L2454.15 475.2L2469.91 425.6L2460.39 424.4V424H2482.31V424.4L2472.63 425.6L2453.91 483.2H2453.51ZM2495.56 480V479.6L2505.32 478.4L2523.96 421.6H2524.36L2542.84 478.4L2552.6 479.6V480H2529.88V479.6L2539.4 478.4L2534.04 461.68H2513.4L2507.96 478.4L2517.48 479.6V480H2495.56ZM2514.12 459.28H2533.24L2523.72 429.52L2514.12 459.28Z" fill="#E3E1D3"/>
<path d="M1877.46 587H1874.82C1874.66 586.24 1874.39 585.572 1874 584.997C1873.61 584.422 1873.14 583.939 1872.59 583.548C1872.04 583.151 1871.44 582.852 1870.77 582.653C1870.1 582.455 1869.41 582.355 1868.68 582.355C1867.36 582.355 1866.16 582.689 1865.09 583.357C1864.03 584.024 1863.18 585.008 1862.54 586.308C1861.92 587.607 1861.61 589.202 1861.61 591.091C1861.61 592.98 1861.92 594.575 1862.54 595.874C1863.18 597.174 1864.03 598.158 1865.09 598.825C1866.16 599.493 1867.36 599.827 1868.68 599.827C1869.41 599.827 1870.1 599.727 1870.77 599.528C1871.44 599.33 1872.04 599.035 1872.59 598.644C1873.14 598.246 1873.61 597.76 1874 597.185C1874.39 596.602 1874.66 595.935 1874.82 595.182H1877.46C1877.26 596.297 1876.9 597.295 1876.37 598.175C1875.85 599.056 1875.19 599.805 1874.41 600.423C1873.63 601.034 1872.75 601.499 1871.78 601.819C1870.82 602.138 1869.78 602.298 1868.68 602.298C1866.82 602.298 1865.17 601.844 1863.72 600.935C1862.27 600.026 1861.13 598.733 1860.3 597.057C1859.47 595.381 1859.05 593.392 1859.05 591.091C1859.05 588.79 1859.47 586.801 1860.3 585.125C1861.13 583.449 1862.27 582.156 1863.72 581.247C1865.17 580.338 1866.82 579.884 1868.68 579.884C1869.78 579.884 1870.82 580.043 1871.78 580.363C1872.75 580.683 1873.63 581.151 1874.41 581.769C1875.19 582.38 1875.85 583.126 1876.37 584.006C1876.9 584.88 1877.26 585.878 1877.46 587ZM1897.62 602H1894.85L1902.87 580.182H1905.59L1913.6 602H1910.83L1904.31 583.634H1904.14L1897.62 602ZM1898.65 593.477H1909.81V595.821H1898.65V593.477ZM1943.93 585.636C1943.81 584.557 1943.29 583.719 1942.38 583.122C1941.47 582.526 1940.35 582.227 1939.03 582.227C1938.07 582.227 1937.22 582.384 1936.5 582.696C1935.78 583.009 1935.22 583.438 1934.81 583.985C1934.42 584.532 1934.22 585.153 1934.22 585.849C1934.22 586.432 1934.36 586.933 1934.63 587.352C1934.92 587.763 1935.28 588.108 1935.72 588.385C1936.16 588.655 1936.62 588.879 1937.11 589.056C1937.59 589.227 1938.03 589.365 1938.44 589.472L1940.65 590.068C1941.22 590.217 1941.85 590.423 1942.55 590.686C1943.25 590.949 1943.92 591.308 1944.56 591.762C1945.21 592.21 1945.74 592.785 1946.16 593.488C1946.58 594.191 1946.79 595.054 1946.79 596.077C1946.79 597.256 1946.48 598.321 1945.86 599.273C1945.25 600.224 1944.36 600.981 1943.18 601.542C1942.01 602.103 1940.58 602.384 1938.91 602.384C1937.34 602.384 1935.99 602.131 1934.85 601.627C1933.71 601.123 1932.82 600.42 1932.16 599.518C1931.52 598.616 1931.15 597.568 1931.06 596.375H1933.79C1933.86 597.199 1934.14 597.881 1934.62 598.42C1935.11 598.953 1935.73 599.351 1936.48 599.614C1937.23 599.869 1938.04 599.997 1938.91 599.997C1939.91 599.997 1940.82 599.834 1941.62 599.507C1942.42 599.173 1943.06 598.712 1943.53 598.122C1944 597.526 1944.23 596.83 1944.23 596.034C1944.23 595.31 1944.03 594.72 1943.63 594.266C1943.22 593.811 1942.69 593.442 1942.03 593.158C1941.37 592.874 1940.65 592.625 1939.89 592.412L1937.2 591.645C1935.5 591.155 1934.15 590.455 1933.15 589.546C1932.16 588.637 1931.66 587.447 1931.66 585.977C1931.66 584.756 1931.99 583.69 1932.65 582.781C1933.32 581.865 1934.21 581.155 1935.34 580.651C1936.47 580.139 1937.73 579.884 1939.12 579.884C1940.53 579.884 1941.78 580.136 1942.87 580.64C1943.96 581.137 1944.83 581.819 1945.47 582.685C1946.11 583.552 1946.46 584.536 1946.49 585.636H1943.93ZM1964.94 582.526V580.182H1981.3V582.526H1974.44V602H1971.8V582.526H1964.94Z" fill="#E3E1D3"/>
<path d="M1402.63 746V745.6L1412.39 744.4L1431.03 687.6H1431.43L1449.91 744.4L1459.67 745.6V746H1436.95V745.6L1446.47 744.4L1441.11 727.68H1420.47L1415.03 744.4L1424.55 745.6V746H1402.63ZM1421.19 725.28H1440.31L1430.79 695.52L1421.19 725.28ZM1482.84 746V745.6L1492.44 744.4V691.6L1482.84 690.4V690H1505.72V690.4L1495.64 691.6V743.6H1517.96L1520.44 734.16L1520.84 734.24L1519.4 744.56L1519.24 746H1482.84ZM1552.84 746V745.6L1562.44 744.4V691.6L1552.84 690.4V690H1575.24V690.4L1565.64 691.6V744.4L1575.24 745.6V746H1552.84ZM1626.33 747.52C1618.17 747.52 1610.01 742.4 1610.01 732.08L1620.09 723.2L1620.33 723.44L1613.37 731.92C1613.37 740.72 1619.85 745.12 1626.33 745.12C1633.85 745.12 1639.45 739.68 1639.45 732.48C1639.45 726.56 1636.09 722 1629.93 719.04L1622.57 715.6C1614.57 711.92 1611.29 706.4 1611.29 701.2C1611.29 693.44 1617.77 687.6 1626.33 687.6C1633.85 687.6 1640.89 692.32 1641.21 702L1632.49 709.2L1632.25 708.96L1638.25 701.92C1637.85 693.92 1632.17 690 1626.33 690C1619.37 690 1614.17 694.8 1614.17 701.2C1614.17 705.28 1616.81 709.68 1623.69 712.64L1631.13 716C1638.57 719.28 1642.73 725.12 1642.73 732.24C1642.73 740.96 1635.69 747.52 1626.33 747.52ZM1668.72 746V745.6L1678.48 744.4L1697.12 687.6H1697.52L1716 744.4L1725.76 745.6V746H1703.04V745.6L1712.56 744.4L1707.2 727.68H1686.56L1681.12 744.4L1690.64 745.6V746H1668.72ZM1687.28 725.28H1706.4L1696.88 695.52L1687.28 725.28ZM1794.46 746V745.6L1804.06 744.4V692.4H1789.42L1786.94 701.84L1786.54 701.76L1787.98 691.44L1788.14 690H1823.34L1823.5 691.44L1824.94 701.76L1824.54 701.84L1822.06 692.4H1807.26V744.4L1815.9 745.6V746H1794.46ZM1842.94 746V745.6L1852.7 744.4L1871.34 687.6H1871.74L1890.22 744.4L1899.98 745.6V746H1877.26V745.6L1886.78 744.4L1881.42 727.68H1860.78L1855.34 744.4L1864.86 745.6V746H1842.94ZM1861.5 725.28H1880.62L1871.1 695.52L1861.5 725.28ZM1970.11 754.24L1939.87 712L1940.11 711.52L1944.67 713.12H1945.79C1953.31 713.12 1957.47 708.64 1957.47 702.8C1957.47 696.8 1952.83 692.4 1946.59 692.4H1935.95V744.4L1946.03 745.6V746H1923.15V745.6L1932.75 744.4V691.6L1923.15 690.4V690H1947.23C1955.23 690 1960.83 695.2 1960.83 702.64C1960.83 709.84 1955.23 715.12 1947.23 715.12H1946.51L1970.75 753.76L1970.11 754.24ZM1989.97 746V745.6L1999.73 744.4L2018.37 687.6H2018.77L2037.25 744.4L2047.01 745.6V746H2024.29V745.6L2033.81 744.4L2028.45 727.68H2007.81L2002.37 744.4L2011.89 745.6V746H1989.97ZM2008.53 725.28H2027.65L2018.13 695.52L2008.53 725.28ZM2089.3 747.52C2081.14 747.52 2072.98 742.4 2072.98 732.08L2083.06 723.2L2083.3 723.44L2076.34 731.92C2076.34 740.72 2082.82 745.12 2089.3 745.12C2096.82 745.12 2102.42 739.68 2102.42 732.48C2102.42 726.56 2099.06 722 2092.9 719.04L2085.54 715.6C2077.54 711.92 2074.26 706.4 2074.26 701.2C2074.26 693.44 2080.74 687.6 2089.3 687.6C2096.82 687.6 2103.86 692.32 2104.18 702L2095.46 709.2L2095.22 708.96L2101.22 701.92C2100.82 693.92 2095.14 690 2089.3 690C2082.34 690 2077.14 694.8 2077.14 701.2C2077.14 705.28 2079.78 709.68 2086.66 712.64L2094.1 716C2101.54 719.28 2105.7 725.12 2105.7 732.24C2105.7 740.96 2098.66 747.52 2089.3 747.52ZM2166.97 724.88L2164.01 717.44H2153.29V743.6H2176.09L2177.29 734H2177.69V746H2140.49V745.6L2150.09 744.4V691.6L2140.49 690.4V690H2176.89V702H2176.49L2175.29 692.4H2153.29V715.2H2164.01L2166.97 707.76L2167.37 707.84L2165.53 716.08V716.56L2167.37 724.8L2166.97 724.88ZM2250.92 750L2224.12 696.96V744.4L2233.72 745.6V746H2212.12V745.6L2221.72 744.4V686H2222.12L2248.92 739.04V691.6L2239.32 690.4V690H2260.92V690.4L2251.32 691.6V750H2250.92ZM2339.32 754.24L2309.88 712.88L2327.08 691.6L2317.8 690.4V690H2340.12V690.4L2330.2 691.6L2313.64 711.92L2339.96 753.76L2339.32 754.24ZM2292.52 746V745.6L2302.12 744.4V691.6L2292.52 690.4V690H2314.92V690.4L2305.32 691.6V744.4L2314.92 745.6V746H2292.52ZM2397.78 747.6C2380.66 747.6 2367.78 734.72 2367.78 717.6C2367.78 700.48 2380.66 687.6 2397.78 687.6C2414.9 687.6 2427.78 700.48 2427.78 717.6C2427.78 734.72 2414.9 747.6 2397.78 747.6ZM2397.78 745.2C2413.38 745.2 2424.42 733.76 2424.42 717.6C2424.42 701.44 2413.38 690 2397.78 690C2382.18 690 2371.14 701.44 2371.14 717.6C2371.14 733.76 2382.18 745.2 2397.78 745.2ZM1330.32 890V889.6L1340.09 888.4L1358.73 831.6H1359.13L1377.61 888.4L1387.37 889.6V890H1364.65V889.6L1374.17 888.4L1368.81 871.68H1348.17L1342.73 888.4L1352.25 889.6V890H1330.32ZM1348.89 869.28H1368.01L1358.49 839.52L1348.89 869.28ZM1410.53 890V889.6L1420.13 888.4V835.6L1410.53 834.4V834H1433.41V834.4L1423.33 835.6V887.6H1445.65L1448.13 878.16L1448.53 878.24L1447.09 888.56L1446.93 890H1410.53ZM1507.01 868.88L1504.05 861.44H1493.33V887.6H1516.13L1517.33 878H1517.73V890H1480.53V889.6L1490.13 888.4V835.6L1480.53 834.4V834H1516.93V846H1516.53L1515.33 836.4H1493.33V859.2H1504.05L1507.01 851.76L1507.41 851.84L1505.57 860.08V860.56L1507.41 868.8L1507.01 868.88ZM1590.96 894L1564.16 840.96V888.4L1573.76 889.6V890H1552.16V889.6L1561.76 888.4V830H1562.16L1588.96 883.04V835.6L1579.36 834.4V834H1600.96V834.4L1591.36 835.6V894H1590.96ZM1623.76 890V889.6L1633.52 888.4L1652.16 831.6H1652.56L1671.04 888.4L1680.8 889.6V890H1658.08V889.6L1667.6 888.4L1662.24 871.68H1641.6L1636.16 888.4L1645.68 889.6V890H1623.76ZM1642.32 869.28H1661.44L1651.92 839.52L1642.32 869.28ZM1743.58 890V889.6L1753.18 888.4V835.6L1743.58 834.4V834H1766.46V834.4L1756.38 835.6V887.6H1778.7L1781.18 878.16L1781.58 878.24L1780.14 888.56L1779.98 890H1743.58ZM1817.11 890V889.6L1826.71 888.4V864.4L1813.35 835.6L1803.59 834.4V834H1826.47V834.4L1817.03 835.6L1828.63 861.2L1840.15 835.6L1830.71 834.4V834H1852.79V834.4L1843.03 835.6L1829.91 863.68V888.4L1838.55 889.6V890H1817.11ZM1902.33 891.6C1895.13 891.6 1888.01 886.4 1888.01 875.92V835.6L1878.41 834.4V834H1899.85V834.4L1891.21 835.6V875.6C1891.21 883.36 1896.01 888.8 1902.81 888.8C1909.61 888.8 1914.41 883.44 1914.41 875.92V835.6L1905.77 834.4V834H1926.41V834.4L1916.81 835.6V875.6C1916.81 886.32 1909.53 891.6 1902.33 891.6ZM1958.03 890V889.6L1967.63 888.4V835.6L1958.03 834.4V834H1978.67C1987.07 834 1993.07 839.6 1993.07 847.52C1993.07 853.04 1990.11 857.52 1985.63 859.68C1992.59 861.12 1997.63 867.12 1997.63 874.56C1997.63 883.6 1990.99 890 1981.63 890H1958.03ZM1978.67 859.2C1984.99 859.2 1989.71 854.32 1989.71 847.76C1989.71 841.28 1984.99 836.4 1978.67 836.4H1970.83V859.2H1978.67ZM1970.83 887.6H1981.63C1988.83 887.6 1994.27 882 1994.27 874.48C1994.27 867.12 1988.83 861.44 1981.63 861.44H1970.83V887.6ZM2056.79 891.6C2049.59 891.6 2042.47 886.4 2042.47 875.92V835.6L2032.87 834.4V834H2054.31V834.4L2045.67 835.6V875.6C2045.67 883.36 2050.47 888.8 2057.27 888.8C2064.07 888.8 2068.87 883.44 2068.87 875.92V835.6L2060.23 834.4V834H2080.87V834.4L2071.27 835.6V875.6C2071.27 886.32 2063.99 891.6 2056.79 891.6ZM2118.4 890V889.6L2128 888.4V836.4H2113.36L2110.88 845.84L2110.48 845.76L2111.92 835.44L2112.08 834H2147.28L2147.44 835.44L2148.88 845.76L2148.48 845.84L2146 836.4H2131.2V888.4L2139.84 889.6V890H2118.4ZM2198.01 891.52C2189.85 891.52 2181.69 886.4 2181.69 876.08L2191.77 867.2L2192.01 867.44L2185.05 875.92C2185.05 884.72 2191.53 889.12 2198.01 889.12C2205.53 889.12 2211.13 883.68 2211.13 876.48C2211.13 870.56 2207.77 866 2201.61 863.04L2194.25 859.6C2186.25 855.92 2182.97 850.4 2182.97 845.2C2182.97 837.44 2189.45 831.6 2198.01 831.6C2205.53 831.6 2212.57 836.32 2212.89 846L2204.17 853.2L2203.93 852.96L2209.93 845.92C2209.53 837.92 2203.85 834 2198.01 834C2191.05 834 2185.85 838.8 2185.85 845.2C2185.85 849.28 2188.49 853.68 2195.37 856.64L2202.81 860C2210.25 863.28 2214.41 869.12 2214.41 876.24C2214.41 884.96 2207.37 891.52 2198.01 891.52ZM2296 898.24L2266.56 856.88L2283.76 835.6L2274.48 834.4V834H2296.8V834.4L2286.88 835.6L2270.32 855.92L2296.64 897.76L2296 898.24ZM2249.2 890V889.6L2258.8 888.4V835.6L2249.2 834.4V834H2271.6V834.4L2262 835.6V888.4L2271.6 889.6V890H2249.2ZM2315.64 890V889.6L2325.4 888.4L2344.04 831.6H2344.44L2362.92 888.4L2372.68 889.6V890H2349.96V889.6L2359.48 888.4L2354.12 871.68H2333.48L2328.04 888.4L2337.56 889.6V890H2315.64ZM2334.2 869.28H2353.32L2343.8 839.52L2334.2 869.28ZM2401.33 890V889.6L2410.93 888.4V864.4L2397.57 835.6L2387.81 834.4V834H2410.69V834.4L2401.25 835.6L2412.85 861.2L2424.37 835.6L2414.93 834.4V834H2437.01V834.4L2427.25 835.6L2414.13 863.68V888.4L2422.77 889.6V890H2401.33ZM2452.67 890V889.6L2462.43 888.4L2481.07 831.6H2481.47L2499.95 888.4L2509.71 889.6V890H2486.99V889.6L2496.51 888.4L2491.15 871.68H2470.51L2465.07 888.4L2474.59 889.6V890H2452.67ZM2471.23 869.28H2490.35L2480.83 839.52L2471.23 869.28ZM1447.35 1035.52C1439.19 1035.52 1431.03 1030.4 1431.03 1020.08L1441.11 1011.2L1441.35 1011.44L1434.39 1019.92C1434.39 1028.72 1440.87 1033.12 1447.35 1033.12C1454.87 1033.12 1460.47 1027.68 1460.47 1020.48C1460.47 1014.56 1457.11 1010 1450.95 1007.04L1443.59 1003.6C1435.59 999.92 1432.31 994.4 1432.31 989.2C1432.31 981.44 1438.79 975.6 1447.35 975.6C1454.87 975.6 1461.91 980.32 1462.23 990L1453.51 997.2L1453.27 996.96L1459.27 989.92C1458.87 981.92 1453.19 978 1447.35 978C1440.39 978 1435.19 982.8 1435.19 989.2C1435.19 993.28 1437.83 997.68 1444.71 1000.64L1452.15 1004C1459.59 1007.28 1463.75 1013.12 1463.75 1020.24C1463.75 1028.96 1456.71 1035.52 1447.35 1035.52ZM1527.78 1035.6C1510.66 1035.6 1497.78 1022.72 1497.78 1005.6C1497.78 988.48 1510.66 975.6 1527.78 975.6C1544.9 975.6 1557.78 988.48 1557.78 1005.6C1557.78 1022.72 1544.9 1035.6 1527.78 1035.6ZM1527.78 1033.2C1543.38 1033.2 1554.42 1021.76 1554.42 1005.6C1554.42 989.44 1543.38 978 1527.78 978C1512.18 978 1501.14 989.44 1501.14 1005.6C1501.14 1021.76 1512.18 1033.2 1527.78 1033.2ZM1617.05 1013.68L1614.17 1006.24H1603.37V1032.4L1613.45 1033.6V1034H1590.57V1033.6L1600.17 1032.4V979.6L1590.57 978.4V978H1626.97V990H1626.57L1625.37 980.4H1603.37V1004H1614.17L1617.05 996.56L1617.45 996.64L1615.61 1004.88V1005.36L1617.45 1013.6L1617.05 1013.68ZM1667.7 1034V1033.6L1677.3 1032.4V1008.4L1663.94 979.6L1654.18 978.4V978H1677.06V978.4L1667.62 979.6L1679.22 1005.2L1690.74 979.6L1681.3 978.4V978H1703.38V978.4L1693.62 979.6L1680.5 1007.68V1032.4L1689.14 1033.6V1034H1667.7ZM1719.04 1034V1033.6L1728.8 1032.4L1747.44 975.6H1747.84L1766.32 1032.4L1776.08 1033.6V1034H1753.36V1033.6L1762.88 1032.4L1757.52 1015.68H1736.88L1731.44 1032.4L1740.96 1033.6V1034H1719.04ZM1737.6 1013.28H1756.72L1747.2 983.52L1737.6 1013.28ZM1865.33 1013.68L1862.45 1006.24H1851.65V1032.4L1861.73 1033.6V1034H1838.85V1033.6L1848.45 1032.4V979.6L1838.85 978.4V978H1875.25V990H1874.85L1873.65 980.4H1851.65V1004H1862.45L1865.33 996.56L1865.73 996.64L1863.89 1004.88V1005.36L1865.73 1013.6L1865.33 1013.68ZM1908.46 1034V1033.6L1918.06 1032.4V979.6L1908.46 978.4V978H1930.86V978.4L1921.26 979.6V1032.4L1930.86 1033.6V1034H1908.46ZM1962.84 1034V1033.6L1972.44 1032.4V979.6L1962.84 978.4V978H1985.72V978.4L1975.64 979.6V1031.6H1997.96L2000.44 1022.16L2000.84 1022.24L1999.4 1032.56L1999.24 1034H1962.84ZM2032.84 1034V1033.6L2042.44 1032.4V979.6L2032.84 978.4V978H2055.24V978.4L2045.64 979.6V1032.4L2055.24 1033.6V1034H2032.84ZM2087.21 1034V1033.6L2096.81 1032.4V979.6L2087.21 978.4V978H2110.09V978.4L2100.01 979.6V1031.6H2122.33L2124.81 1022.16L2125.21 1022.24L2123.77 1032.56L2123.61 1034H2087.21ZM2183.69 1012.88L2180.73 1005.44H2170.01V1031.6H2192.81L2194.01 1022H2194.41V1034H2157.21V1033.6L2166.81 1032.4V979.6L2157.21 978.4V978H2193.61V990H2193.21L2192.01 980.4H2170.01V1003.2H2180.73L2183.69 995.76L2184.09 995.84L2182.25 1004.08V1004.56L2184.09 1012.8L2183.69 1012.88ZM2255.72 1012.88L2252.76 1005.44H2242.04V1031.6H2264.84L2266.04 1022H2266.44V1034H2229.24V1033.6L2238.84 1032.4V979.6L2229.24 978.4V978H2265.64V990H2265.24L2264.04 980.4H2242.04V1003.2H2252.76L2255.72 995.76L2256.12 995.84L2254.28 1004.08V1004.56L2256.12 1012.8L2255.72 1012.88ZM2321.51 1037.2L2302.95 979.6L2293.27 978.4V978H2315.99V978.4L2306.47 979.6L2322.15 1029.2L2337.91 979.6L2328.39 978.4V978H2350.31V978.4L2340.63 979.6L2321.91 1037.2H2321.51ZM2363.57 1034V1033.6L2373.33 1032.4L2391.97 975.6H2392.37L2410.85 1032.4L2420.61 1033.6V1034H2397.89V1033.6L2407.41 1032.4L2402.05 1015.68H2381.41L2375.97 1032.4L2385.49 1033.6V1034H2363.57ZM2382.13 1013.28H2401.25L2391.73 983.52L2382.13 1013.28ZM1302.43 1178V1177.6L1312.19 1176.4L1330.83 1119.6H1331.23L1349.71 1176.4L1359.47 1177.6V1178H1336.75V1177.6L1346.27 1176.4L1340.91 1159.68H1320.27L1314.83 1176.4L1324.35 1177.6V1178H1302.43ZM1320.99 1157.28H1340.11L1330.59 1127.52L1320.99 1157.28ZM1421.04 1182L1394.24 1128.96V1176.4L1403.84 1177.6V1178H1382.24V1177.6L1391.84 1176.4V1118H1392.24L1419.04 1171.04V1123.6L1409.44 1122.4V1122H1431.04V1122.4L1421.44 1123.6V1182H1421.04ZM1453.84 1178V1177.6L1463.6 1176.4L1482.24 1119.6H1482.64L1501.12 1176.4L1510.88 1177.6V1178H1488.16V1177.6L1497.68 1176.4L1492.32 1159.68H1471.68L1466.24 1176.4L1475.76 1177.6V1178H1453.84ZM1472.4 1157.28H1491.52L1482 1127.52L1472.4 1157.28ZM1553.17 1179.52C1545.01 1179.52 1536.85 1174.4 1536.85 1164.08L1546.93 1155.2L1547.17 1155.44L1540.21 1163.92C1540.21 1172.72 1546.69 1177.12 1553.17 1177.12C1560.69 1177.12 1566.29 1171.68 1566.29 1164.48C1566.29 1158.56 1562.93 1154 1556.77 1151.04L1549.41 1147.6C1541.41 1143.92 1538.13 1138.4 1538.13 1133.2C1538.13 1125.44 1544.61 1119.6 1553.17 1119.6C1560.69 1119.6 1567.73 1124.32 1568.05 1134L1559.33 1141.2L1559.09 1140.96L1565.09 1133.92C1564.69 1125.92 1559.01 1122 1553.17 1122C1546.21 1122 1541.01 1126.8 1541.01 1133.2C1541.01 1137.28 1543.65 1141.68 1550.53 1144.64L1557.97 1148C1565.41 1151.28 1569.57 1157.12 1569.57 1164.24C1569.57 1172.96 1562.53 1179.52 1553.17 1179.52ZM1610.28 1178V1177.6L1619.88 1176.4V1124.4H1605.24L1602.76 1133.84L1602.36 1133.76L1603.8 1123.44L1603.96 1122H1639.16L1639.32 1123.44L1640.76 1133.76L1640.36 1133.84L1637.88 1124.4H1623.08V1176.4L1631.72 1177.6V1178H1610.28ZM1658.76 1178V1177.6L1668.52 1176.4L1687.16 1119.6H1687.56L1706.04 1176.4L1715.8 1177.6V1178H1693.08V1177.6L1702.6 1176.4L1697.24 1159.68H1676.6L1671.16 1176.4L1680.68 1177.6V1178H1658.76ZM1677.32 1157.28H1696.44L1686.92 1127.52L1677.32 1157.28ZM1758.09 1179.52C1749.93 1179.52 1741.77 1174.4 1741.77 1164.08L1751.85 1155.2L1752.09 1155.44L1745.13 1163.92C1745.13 1172.72 1751.61 1177.12 1758.09 1177.12C1765.61 1177.12 1771.21 1171.68 1771.21 1164.48C1771.21 1158.56 1767.85 1154 1761.69 1151.04L1754.33 1147.6C1746.33 1143.92 1743.05 1138.4 1743.05 1133.2C1743.05 1125.44 1749.53 1119.6 1758.09 1119.6C1765.61 1119.6 1772.65 1124.32 1772.97 1134L1764.25 1141.2L1764.01 1140.96L1770.01 1133.92C1769.61 1125.92 1763.93 1122 1758.09 1122C1751.13 1122 1745.93 1126.8 1745.93 1133.2C1745.93 1137.28 1748.57 1141.68 1755.45 1144.64L1762.89 1148C1770.33 1151.28 1774.49 1157.12 1774.49 1164.24C1774.49 1172.96 1767.45 1179.52 1758.09 1179.52ZM1809.28 1178V1177.6L1818.88 1176.4V1123.6L1809.28 1122.4V1122H1831.68V1122.4L1822.08 1123.6V1176.4L1831.68 1177.6V1178H1809.28ZM1854.86 1178V1177.6L1864.62 1176.4L1883.26 1119.6H1883.66L1902.14 1176.4L1911.9 1177.6V1178H1889.18V1177.6L1898.7 1176.4L1893.34 1159.68H1872.7L1867.26 1176.4L1876.78 1177.6V1178H1854.86ZM1873.42 1157.28H1892.54L1883.02 1127.52L1873.42 1157.28ZM1974.67 1178V1177.6L1984.27 1176.4V1123.6L1974.67 1122.4V1122H1997.79C2007.15 1122 2013.15 1127.68 2013.15 1136.48C2013.15 1145.2 2007.15 1150.8 1997.79 1150.8H1987.47V1176.4L1997.55 1177.6V1178H1974.67ZM1987.47 1148.4H1997.55C2004.83 1148.4 2009.79 1143.52 2009.79 1136.4C2009.79 1129.28 2004.83 1124.4 1997.55 1124.4H1987.47V1148.4ZM2055.47 1178V1177.6L2065.07 1176.4V1152.4L2051.71 1123.6L2041.95 1122.4V1122H2064.83V1122.4L2055.39 1123.6L2066.99 1149.2L2078.51 1123.6L2069.07 1122.4V1122H2091.15V1122.4L2081.39 1123.6L2068.27 1151.68V1176.4L2076.91 1177.6V1178H2055.47ZM2106.81 1178V1177.6L2116.57 1176.4L2135.21 1119.6H2135.61L2154.09 1176.4L2163.85 1177.6V1178H2141.13V1177.6L2150.65 1176.4L2145.29 1159.68H2124.65L2119.21 1176.4L2128.73 1177.6V1178H2106.81ZM2125.37 1157.28H2144.49L2134.97 1127.52L2125.37 1157.28ZM2189.73 1178V1177.6L2199.33 1176.4V1124.4H2184.69L2182.21 1133.84L2181.81 1133.76L2183.25 1123.44L2183.41 1122H2218.61L2218.77 1123.44L2220.21 1133.76L2219.81 1133.84L2217.33 1124.4H2202.53V1176.4L2211.17 1177.6V1178H2189.73ZM2297.02 1186.24L2267.58 1144.88L2284.78 1123.6L2275.5 1122.4V1122H2297.82V1122.4L2287.9 1123.6L2271.34 1143.92L2297.66 1185.76L2297.02 1186.24ZM2250.22 1178V1177.6L2259.82 1176.4V1123.6L2250.22 1122.4V1122H2272.62V1122.4L2263.02 1123.6V1176.4L2272.62 1177.6V1178H2250.22ZM2355.47 1179.6C2338.35 1179.6 2325.47 1166.72 2325.47 1149.6C2325.47 1132.48 2338.35 1119.6 2355.47 1119.6C2372.59 1119.6 2385.47 1132.48 2385.47 1149.6C2385.47 1166.72 2372.59 1179.6 2355.47 1179.6ZM2355.47 1177.2C2371.07 1177.2 2382.11 1165.76 2382.11 1149.6C2382.11 1133.44 2371.07 1122 2355.47 1122C2339.87 1122 2328.83 1133.44 2328.83 1149.6C2328.83 1165.76 2339.87 1177.2 2355.47 1177.2ZM2438.51 1181.2L2419.95 1123.6L2410.27 1122.4V1122H2432.99V1122.4L2423.47 1123.6L2439.15 1173.2L2454.91 1123.6L2445.39 1122.4V1122H2467.31V1122.4L2457.63 1123.6L2438.91 1181.2H2438.51ZM2480.56 1178V1177.6L2490.32 1176.4L2508.96 1119.6H2509.36L2527.84 1176.4L2537.6 1177.6V1178H2514.88V1177.6L2524.4 1176.4L2519.04 1159.68H2498.4L2492.96 1176.4L2502.48 1177.6V1178H2480.56ZM2499.12 1157.28H2518.24L2508.72 1127.52L2499.12 1157.28ZM1558.93 1322V1321.6L1568.53 1320.4V1267.6L1558.93 1266.4V1266H1587.73C1603.73 1266 1615.73 1278 1615.73 1294C1615.73 1310 1603.73 1322 1587.73 1322H1558.93ZM1571.73 1319.6H1587.65C1602.21 1319.6 1612.53 1309.04 1612.53 1294C1612.53 1278.96 1602.21 1268.4 1587.65 1268.4H1571.73V1319.6ZM1648.54 1322V1321.6L1658.14 1320.4V1267.6L1648.54 1266.4V1266H1670.94V1266.4L1661.34 1267.6V1320.4L1670.94 1321.6V1322H1648.54ZM1743.7 1322V1321.6L1753.3 1320.4V1267.6L1743.7 1266.4V1266H1772.5C1788.5 1266 1800.5 1278 1800.5 1294C1800.5 1310 1788.5 1322 1772.5 1322H1743.7ZM1756.5 1319.6H1772.42C1786.98 1319.6 1797.3 1309.04 1797.3 1294C1797.3 1278.96 1786.98 1268.4 1772.42 1268.4H1756.5V1319.6ZM1880.26 1330.24L1850.02 1288L1850.26 1287.52L1854.82 1289.12H1855.94C1863.46 1289.12 1867.62 1284.64 1867.62 1278.8C1867.62 1272.8 1862.98 1268.4 1856.74 1268.4H1846.1V1320.4L1856.18 1321.6V1322H1833.3V1321.6L1842.9 1320.4V1267.6L1833.3 1266.4V1266H1857.38C1865.38 1266 1870.98 1271.2 1870.98 1278.64C1870.98 1285.84 1865.38 1291.12 1857.38 1291.12H1856.66L1880.9 1329.76L1880.26 1330.24ZM1939.73 1323.6C1922.61 1323.6 1909.73 1310.72 1909.73 1293.6C1909.73 1276.48 1922.61 1263.6 1939.73 1263.6C1956.85 1263.6 1969.73 1276.48 1969.73 1293.6C1969.73 1310.72 1956.85 1323.6 1939.73 1323.6ZM1939.73 1321.2C1955.33 1321.2 1966.37 1309.76 1966.37 1293.6C1966.37 1277.44 1955.33 1266 1939.73 1266C1924.13 1266 1913.09 1277.44 1913.09 1293.6C1913.09 1309.76 1924.13 1321.2 1939.73 1321.2ZM2049.32 1330.24L2019.88 1288.88L2037.08 1267.6L2027.8 1266.4V1266H2050.12V1266.4L2040.2 1267.6L2023.64 1287.92L2049.96 1329.76L2049.32 1330.24ZM2002.52 1322V1321.6L2012.12 1320.4V1267.6L2002.52 1266.4V1266H2024.92V1266.4L2015.32 1267.6V1320.4L2024.92 1321.6V1322H2002.52ZM2107.78 1323.6C2090.66 1323.6 2077.78 1310.72 2077.78 1293.6C2077.78 1276.48 2090.66 1263.6 2107.78 1263.6C2124.9 1263.6 2137.78 1276.48 2137.78 1293.6C2137.78 1310.72 2124.9 1323.6 2107.78 1323.6ZM2107.78 1321.2C2123.38 1321.2 2134.42 1309.76 2134.42 1293.6C2134.42 1277.44 2123.38 1266 2107.78 1266C2092.18 1266 2081.14 1277.44 2081.14 1293.6C2081.14 1309.76 2092.18 1321.2 2107.78 1321.2ZM2190.81 1325.2L2172.25 1267.6L2162.57 1266.4V1266H2185.29V1266.4L2175.77 1267.6L2191.45 1317.2L2207.21 1267.6L2197.69 1266.4V1266H2219.61V1266.4L2209.93 1267.6L2191.21 1325.2H2190.81ZM2232.86 1322V1321.6L2242.62 1320.4L2261.26 1263.6H2261.66L2280.14 1320.4L2289.9 1321.6V1322H2267.18V1321.6L2276.7 1320.4L2271.34 1303.68H2250.7L2245.26 1320.4L2254.78 1321.6V1322H2232.86ZM2251.42 1301.28H2270.54L2261.02 1271.52L2251.42 1301.28ZM1440.34 1466V1465.6L1449.94 1464.4V1411.6L1440.34 1410.4V1410H1463.46C1472.82 1410 1478.82 1415.68 1478.82 1424.48C1478.82 1433.2 1472.82 1438.8 1463.46 1438.8H1453.14V1464.4L1463.22 1465.6V1466H1440.34ZM1453.14 1436.4H1463.22C1470.5 1436.4 1475.46 1431.52 1475.46 1424.4C1475.46 1417.28 1470.5 1412.4 1463.22 1412.4H1453.14V1436.4ZM1503.25 1466V1465.6L1513.01 1464.4L1531.65 1407.6H1532.05L1550.53 1464.4L1560.29 1465.6V1466H1537.57V1465.6L1547.09 1464.4L1541.73 1447.68H1521.09L1515.65 1464.4L1525.17 1465.6V1466H1503.25ZM1521.81 1445.28H1540.93L1531.41 1415.52L1521.81 1445.28ZM1601.67 1469.2L1583.11 1411.6L1573.43 1410.4V1410H1596.15V1410.4L1586.63 1411.6L1602.31 1461.2L1618.07 1411.6L1608.55 1410.4V1410H1630.47V1410.4L1620.79 1411.6L1602.07 1469.2H1601.67ZM1680.57 1444.88L1677.61 1437.44H1666.89V1463.6H1689.69L1690.89 1454H1691.29V1466H1654.09V1465.6L1663.69 1464.4V1411.6L1654.09 1410.4V1410H1690.49V1422H1690.09L1688.89 1412.4H1666.89V1435.2H1677.61L1680.57 1427.76L1680.97 1427.84L1679.13 1436.08V1436.56L1680.97 1444.8L1680.57 1444.88ZM1726.12 1466V1465.6L1735.72 1464.4V1411.6L1726.12 1410.4V1410H1749V1410.4L1738.92 1411.6V1463.6H1761.24L1763.72 1454.16L1764.12 1454.24L1762.68 1464.56L1762.52 1466H1726.12ZM1883.86 1474.24L1853.62 1432L1853.86 1431.52L1858.42 1433.12H1859.54C1867.06 1433.12 1871.22 1428.64 1871.22 1422.8C1871.22 1416.8 1866.58 1412.4 1860.34 1412.4H1849.7V1464.4L1859.78 1465.6V1466H1836.9V1465.6L1846.5 1464.4V1411.6L1836.9 1410.4V1410H1860.98C1868.98 1410 1874.58 1415.2 1874.58 1422.64C1874.58 1429.84 1868.98 1435.12 1860.98 1435.12H1860.26L1884.5 1473.76L1883.86 1474.24ZM1920.04 1466V1465.6L1929.64 1464.4V1440.4L1916.28 1411.6L1906.52 1410.4V1410H1929.4V1410.4L1919.96 1411.6L1931.56 1437.2L1943.08 1411.6L1933.64 1410.4V1410H1955.72V1410.4L1945.96 1411.6L1932.84 1439.68V1464.4L1941.48 1465.6V1466H1920.04ZM1971.38 1466V1465.6L1981.14 1464.4L1999.78 1407.6H2000.18L2018.66 1464.4L2028.42 1465.6V1466H2005.7V1465.6L2015.22 1464.4L2009.86 1447.68H1989.22L1983.78 1464.4L1993.3 1465.6V1466H1971.38ZM1989.94 1445.28H2009.06L1999.54 1415.52L1989.94 1445.28ZM2052.39 1466V1465.6L2076.95 1412.4H2054.47L2051.99 1421.84L2051.59 1421.76L2053.03 1411.44L2053.19 1410H2081.19V1410.4L2056.63 1463.6H2079.11L2081.59 1454.16L2081.99 1454.24L2080.55 1464.56L2080.39 1466H2052.39ZM2105.21 1466V1465.6L2114.97 1464.4L2133.61 1407.6H2134.01L2152.49 1464.4L2162.25 1465.6V1466H2139.53V1465.6L2149.05 1464.4L2143.69 1447.68H2123.05L2117.61 1464.4L2127.13 1465.6V1466H2105.21ZM2123.77 1445.28H2142.89L2133.37 1415.52L2123.77 1445.28ZM2223.81 1470L2197.01 1416.96V1464.4L2206.61 1465.6V1466H2185.01V1465.6L2194.61 1464.4V1406H2195.01L2221.81 1459.04V1411.6L2212.21 1410.4V1410H2233.81V1410.4L2224.21 1411.6V1470H2223.81ZM2296.21 1467.6C2279.09 1467.6 2266.21 1454.72 2266.21 1437.6C2266.21 1420.48 2279.09 1407.6 2296.21 1407.6C2313.33 1407.6 2326.21 1420.48 2326.21 1437.6C2326.21 1454.72 2313.33 1467.6 2296.21 1467.6ZM2296.21 1465.2C2311.81 1465.2 2322.85 1453.76 2322.85 1437.6C2322.85 1421.44 2311.81 1410 2296.21 1410C2280.61 1410 2269.57 1421.44 2269.57 1437.6C2269.57 1453.76 2280.61 1465.2 2296.21 1465.2ZM2379.25 1469.2L2360.69 1411.6L2351.01 1410.4V1410H2373.73V1410.4L2364.21 1411.6L2379.89 1461.2L2395.65 1411.6L2386.13 1410.4V1410H2408.05V1410.4L2398.37 1411.6L2379.65 1469.2H2379.25ZM1351.86 1614L1325.06 1560.96V1608.4L1334.66 1609.6V1610H1313.06V1609.6L1322.66 1608.4V1550H1323.06L1349.86 1603.04V1555.6L1340.26 1554.4V1554H1361.86V1554.4L1352.26 1555.6V1614H1351.86ZM1393.46 1610V1609.6L1403.06 1608.4V1555.6L1393.46 1554.4V1554H1415.86V1554.4L1406.26 1555.6V1608.4L1415.86 1609.6V1610H1393.46ZM1494.64 1618.24L1465.2 1576.88L1482.4 1555.6L1473.12 1554.4V1554H1495.44V1554.4L1485.52 1555.6L1468.96 1575.92L1495.28 1617.76L1494.64 1618.24ZM1447.84 1610V1609.6L1457.44 1608.4V1555.6L1447.84 1554.4V1554H1470.24V1554.4L1460.64 1555.6V1608.4L1470.24 1609.6V1610H1447.84ZM1523.07 1610V1609.6L1532.67 1608.4V1555.6L1523.07 1554.4V1554H1545.47V1554.4L1535.87 1555.6V1608.4L1545.47 1609.6V1610H1523.07ZM1583.37 1610V1609.6L1592.97 1608.4V1556.4H1578.33L1575.85 1565.84L1575.45 1565.76L1576.89 1555.44L1577.05 1554H1612.25L1612.41 1555.44L1613.85 1565.76L1613.45 1565.84L1610.97 1556.4H1596.17V1608.4L1604.81 1609.6V1610H1583.37ZM1631.85 1610V1609.6L1641.61 1608.4L1660.25 1551.6H1660.65L1679.13 1608.4L1688.89 1609.6V1610H1666.17V1609.6L1675.69 1608.4L1670.33 1591.68H1649.69L1644.25 1608.4L1653.77 1609.6V1610H1631.85ZM1650.41 1589.28H1669.53L1660.01 1559.52L1650.41 1589.28ZM1770.78 1611.52C1762.62 1611.52 1754.46 1606.4 1754.46 1596.08L1764.54 1587.2L1764.78 1587.44L1757.82 1595.92C1757.82 1604.72 1764.3 1609.12 1770.78 1609.12C1778.3 1609.12 1783.9 1603.68 1783.9 1596.48C1783.9 1590.56 1780.54 1586 1774.38 1583.04L1767.02 1579.6C1759.02 1575.92 1755.74 1570.4 1755.74 1565.2C1755.74 1557.44 1762.22 1551.6 1770.78 1551.6C1778.3 1551.6 1785.34 1556.32 1785.66 1566L1776.94 1573.2L1776.7 1572.96L1782.7 1565.92C1782.3 1557.92 1776.62 1554 1770.78 1554C1763.82 1554 1758.62 1558.8 1758.62 1565.2C1758.62 1569.28 1761.26 1573.68 1768.14 1576.64L1775.58 1580C1783.02 1583.28 1787.18 1589.12 1787.18 1596.24C1787.18 1604.96 1780.14 1611.52 1770.78 1611.52ZM1848.46 1588.88L1845.5 1581.44H1834.78V1607.6H1857.58L1858.78 1598H1859.18V1610H1821.98V1609.6L1831.58 1608.4V1555.6L1821.98 1554.4V1554H1858.38V1566H1857.98L1856.78 1556.4H1834.78V1579.2H1845.5L1848.46 1571.76L1848.86 1571.84L1847.02 1580.08V1580.56L1848.86 1588.8L1848.46 1588.88ZM1914.25 1613.2L1895.69 1555.6L1886.01 1554.4V1554H1908.73V1554.4L1899.21 1555.6L1914.89 1605.2L1930.65 1555.6L1921.13 1554.4V1554H1943.05V1554.4L1933.37 1555.6L1914.65 1613.2H1914.25ZM1956.3 1610V1609.6L1966.06 1608.4L1984.7 1551.6H1985.1L2003.58 1608.4L2013.34 1609.6V1610H1990.62V1609.6L2000.14 1608.4L1994.78 1591.68H1974.14L1968.7 1608.4L1978.22 1609.6V1610H1956.3ZM1974.86 1589.28H1993.98L1984.46 1559.52L1974.86 1589.28ZM2055.63 1611.52C2047.47 1611.52 2039.31 1606.4 2039.31 1596.08L2049.39 1587.2L2049.63 1587.44L2042.67 1595.92C2042.67 1604.72 2049.15 1609.12 2055.63 1609.12C2063.15 1609.12 2068.75 1603.68 2068.75 1596.48C2068.75 1590.56 2065.39 1586 2059.23 1583.04L2051.87 1579.6C2043.87 1575.92 2040.59 1570.4 2040.59 1565.2C2040.59 1557.44 2047.07 1551.6 2055.63 1551.6C2063.15 1551.6 2070.19 1556.32 2070.51 1566L2061.79 1573.2L2061.55 1572.96L2067.55 1565.92C2067.15 1557.92 2061.47 1554 2055.63 1554C2048.67 1554 2043.47 1558.8 2043.47 1565.2C2043.47 1569.28 2046.11 1573.68 2052.99 1576.64L2060.43 1580C2067.87 1583.28 2072.03 1589.12 2072.03 1596.24C2072.03 1604.96 2064.99 1611.52 2055.63 1611.52ZM2112.74 1610V1609.6L2122.34 1608.4V1556.4H2107.7L2105.22 1565.84L2104.82 1565.76L2106.26 1555.44L2106.42 1554H2141.62L2141.78 1555.44L2143.22 1565.76L2142.82 1565.84L2140.34 1556.4H2125.54V1608.4L2134.18 1609.6V1610H2112.74ZM2180.75 1610V1609.6L2190.35 1608.4V1584.4L2176.99 1555.6L2167.23 1554.4V1554H2190.11V1554.4L2180.67 1555.6L2192.27 1581.2L2203.79 1555.6L2194.35 1554.4V1554H2216.43V1554.4L2206.67 1555.6L2193.55 1583.68V1608.4L2202.19 1609.6V1610H2180.75ZM2232.08 1610V1609.6L2241.84 1608.4L2260.48 1551.6H2260.88L2279.36 1608.4L2289.12 1609.6V1610H2266.4V1609.6L2275.92 1608.4L2270.56 1591.68H2249.92L2244.48 1608.4L2254 1609.6V1610H2232.08ZM2250.64 1589.28H2269.76L2260.24 1559.52L2250.64 1589.28ZM2350.69 1614L2323.89 1560.96V1608.4L2333.49 1609.6V1610H2311.89V1609.6L2321.49 1608.4V1550H2321.89L2348.69 1603.04V1555.6L2339.09 1554.4V1554H2360.69V1554.4L2351.09 1555.6V1614H2350.69ZM2423.09 1611.6C2405.97 1611.6 2393.09 1598.72 2393.09 1581.6C2393.09 1564.48 2405.97 1551.6 2423.09 1551.6C2440.21 1551.6 2453.09 1564.48 2453.09 1581.6C2453.09 1598.72 2440.21 1611.6 2423.09 1611.6ZM2423.09 1609.2C2438.69 1609.2 2449.73 1597.76 2449.73 1581.6C2449.73 1565.44 2438.69 1554 2423.09 1554C2407.49 1554 2396.45 1565.44 2396.45 1581.6C2396.45 1597.76 2407.49 1609.2 2423.09 1609.2ZM2506.12 1613.2L2487.56 1555.6L2477.88 1554.4V1554H2500.6V1554.4L2491.08 1555.6L2506.76 1605.2L2522.52 1555.6L2513 1554.4V1554H2534.92V1554.4L2525.24 1555.6L2506.52 1613.2H2506.12ZM1453.08 1757.2L1437.64 1709.12V1752.4L1446.28 1753.6V1754H1425.64V1753.6L1435.24 1752.4V1694H1435.8L1453.56 1749.28L1471.48 1694H1472.04V1752.4L1481.64 1753.6V1754H1460.2V1753.6L1468.84 1752.4V1709.92L1453.48 1757.2H1453.08ZM1513.23 1754V1753.6L1522.83 1752.4V1699.6L1513.23 1698.4V1698H1535.63V1698.4L1526.03 1699.6V1752.4L1535.63 1753.6V1754H1513.23ZM1614.4 1762.24L1584.96 1720.88L1602.16 1699.6L1592.88 1698.4V1698H1615.2V1698.4L1605.28 1699.6L1588.72 1719.92L1615.04 1761.76L1614.4 1762.24ZM1567.6 1754V1753.6L1577.2 1752.4V1699.6L1567.6 1698.4V1698H1590V1698.4L1580.4 1699.6V1752.4L1590 1753.6V1754H1567.6ZM1669.4 1754V1753.6L1678.04 1752.4V1725.6H1655.64V1752.4L1664.28 1753.6V1754H1642.84V1753.6L1652.44 1752.4V1699.6L1642.84 1698.4V1698H1664.28V1698.4L1655.64 1699.6V1723.2H1678.04V1699.6L1669.4 1698.4V1698H1690.84V1698.4L1681.24 1699.6V1752.4L1690.84 1753.6V1754H1669.4ZM1714.04 1754V1753.6L1723.8 1752.4L1742.44 1695.6H1742.84L1761.32 1752.4L1771.08 1753.6V1754H1748.36V1753.6L1757.88 1752.4L1752.52 1735.68H1731.88L1726.44 1752.4L1735.96 1753.6V1754H1714.04ZM1732.6 1733.28H1751.72L1742.2 1703.52L1732.6 1733.28ZM1794.24 1754V1753.6L1803.84 1752.4V1699.6L1794.24 1698.4V1698H1816.64V1698.4L1807.04 1699.6V1752.4L1816.64 1753.6V1754H1794.24ZM1848.62 1754V1753.6L1858.22 1752.4V1699.6L1848.62 1698.4V1698H1871.5V1698.4L1861.42 1699.6V1751.6H1883.74L1886.22 1742.16L1886.62 1742.24L1885.18 1752.56L1885.02 1754H1848.62ZM1978.52 1755.52C1970.36 1755.52 1962.2 1750.4 1962.2 1740.08L1972.28 1731.2L1972.52 1731.44L1965.56 1739.92C1965.56 1748.72 1972.04 1753.12 1978.52 1753.12C1986.04 1753.12 1991.64 1747.68 1991.64 1740.48C1991.64 1734.56 1988.28 1730 1982.12 1727.04L1974.76 1723.6C1966.76 1719.92 1963.48 1714.4 1963.48 1709.2C1963.48 1701.44 1969.96 1695.6 1978.52 1695.6C1986.04 1695.6 1993.08 1700.32 1993.4 1710L1984.68 1717.2L1984.44 1716.96L1990.44 1709.92C1990.04 1701.92 1984.36 1698 1978.52 1698C1971.56 1698 1966.36 1702.8 1966.36 1709.2C1966.36 1713.28 1969 1717.68 1975.88 1720.64L1983.32 1724C1990.76 1727.28 1994.92 1733.12 1994.92 1740.24C1994.92 1748.96 1987.88 1755.52 1978.52 1755.52ZM2029.71 1754V1753.6L2039.31 1752.4V1699.6L2029.71 1698.4V1698H2052.11V1698.4L2042.51 1699.6V1752.4L2052.11 1753.6V1754H2029.71ZM2104.33 1757.2L2085.77 1699.6L2076.09 1698.4V1698H2098.81V1698.4L2089.29 1699.6L2104.97 1749.2L2120.73 1699.6L2111.21 1698.4V1698H2133.13V1698.4L2123.45 1699.6L2104.73 1757.2H2104.33ZM2180.26 1755.6C2173.06 1755.6 2165.94 1750.4 2165.94 1739.92V1699.6L2156.34 1698.4V1698H2177.78V1698.4L2169.14 1699.6V1739.6C2169.14 1747.36 2173.94 1752.8 2180.74 1752.8C2187.54 1752.8 2192.34 1747.44 2192.34 1739.92V1699.6L2183.7 1698.4V1698H2204.34V1698.4L2194.74 1699.6V1739.6C2194.74 1750.32 2187.46 1755.6 2180.26 1755.6ZM2282.92 1762.24L2252.68 1720L2252.92 1719.52L2257.48 1721.12H2258.6C2266.12 1721.12 2270.28 1716.64 2270.28 1710.8C2270.28 1704.8 2265.64 1700.4 2259.4 1700.4H2248.76V1752.4L2258.84 1753.6V1754H2235.96V1753.6L2245.56 1752.4V1699.6L2235.96 1698.4V1698H2260.04C2268.04 1698 2273.64 1703.2 2273.64 1710.64C2273.64 1717.84 2268.04 1723.12 2260.04 1723.12H2259.32L2283.56 1761.76L2282.92 1762.24ZM2311.59 1754V1753.6L2321.19 1752.4V1699.6L2311.59 1698.4V1698H2333.99V1698.4L2324.39 1699.6V1752.4L2333.99 1753.6V1754H2311.59ZM2404.36 1758L2377.56 1704.96V1752.4L2387.16 1753.6V1754H2365.56V1753.6L2375.16 1752.4V1694H2375.56L2402.36 1747.04V1699.6L2392.76 1698.4V1698H2414.36V1698.4L2404.76 1699.6V1758H2404.36ZM1354.91 1898V1897.6L1364.51 1896.4V1843.6L1354.91 1842.4V1842H1383.71C1399.71 1842 1411.71 1854 1411.71 1870C1411.71 1886 1399.71 1898 1383.71 1898H1354.91ZM1367.71 1895.6H1383.63C1398.19 1895.6 1408.51 1885.04 1408.51 1870C1408.51 1854.96 1398.19 1844.4 1383.63 1844.4H1367.71V1895.6ZM1471.56 1901.2L1456.12 1853.12V1896.4L1464.76 1897.6V1898H1444.12V1897.6L1453.72 1896.4V1838H1454.28L1472.04 1893.28L1489.96 1838H1490.52V1896.4L1500.12 1897.6V1898H1478.68V1897.6L1487.32 1896.4V1853.92L1471.96 1901.2H1471.56ZM1531.7 1898V1897.6L1541.3 1896.4V1843.6L1531.7 1842.4V1842H1554.1V1842.4L1544.5 1843.6V1896.4L1554.1 1897.6V1898H1531.7ZM1592 1898V1897.6L1601.6 1896.4V1844.4H1586.96L1584.48 1853.84L1584.08 1853.76L1585.52 1843.44L1585.68 1842H1620.88L1621.04 1843.44L1622.48 1853.76L1622.08 1853.84L1619.6 1844.4H1604.8V1896.4L1613.44 1897.6V1898H1592ZM1699.44 1906.24L1669.2 1864L1669.44 1863.52L1674 1865.12H1675.12C1682.64 1865.12 1686.8 1860.64 1686.8 1854.8C1686.8 1848.8 1682.16 1844.4 1675.92 1844.4H1665.28V1896.4L1675.36 1897.6V1898H1652.48V1897.6L1662.08 1896.4V1843.6L1652.48 1842.4V1842H1676.56C1684.56 1842 1690.16 1847.2 1690.16 1854.64C1690.16 1861.84 1684.56 1867.12 1676.56 1867.12H1675.84L1700.08 1905.76L1699.44 1906.24ZM1728.11 1898V1897.6L1737.71 1896.4V1843.6L1728.11 1842.4V1842H1750.51V1842.4L1740.91 1843.6V1896.4L1750.51 1897.6V1898H1728.11ZM1790 1898V1897.6L1799.6 1896.4V1872.4L1786.24 1843.6L1776.48 1842.4V1842H1799.36V1842.4L1789.92 1843.6L1801.52 1869.2L1813.04 1843.6L1803.6 1842.4V1842H1825.68V1842.4L1815.92 1843.6L1802.8 1871.68V1896.4L1811.44 1897.6V1898H1790ZM1881.34 1898V1897.6L1891.1 1896.4L1909.74 1839.6H1910.14L1928.62 1896.4L1938.38 1897.6V1898H1915.66V1897.6L1925.18 1896.4L1919.82 1879.68H1899.18L1893.74 1896.4L1903.26 1897.6V1898H1881.34ZM1899.9 1877.28H1919.02L1909.5 1847.52L1899.9 1877.28ZM1992.35 1899.6C1975.23 1899.6 1962.35 1886.72 1962.35 1869.6C1962.35 1852.48 1975.23 1839.6 1992.35 1839.6C2004.91 1839.6 2015.23 1846.56 2019.79 1857.04L2017.07 1862.08L2016.75 1862V1857.76C2012.83 1848.24 2003.79 1842 1992.35 1842C1976.75 1842 1965.71 1853.44 1965.71 1869.6C1965.71 1885.76 1976.75 1897.2 1992.35 1897.2C2006.59 1897.2 2017.07 1887.68 2018.75 1873.76L1992.27 1871.76V1871.36H2022.27C2021.39 1887.52 2008.83 1899.6 1992.35 1899.6ZM2045.87 1898V1897.6L2055.63 1896.4L2074.27 1839.6H2074.67L2093.15 1896.4L2102.91 1897.6V1898H2080.19V1897.6L2089.71 1896.4L2084.35 1879.68H2063.71L2058.27 1896.4L2067.79 1897.6V1898H2045.87ZM2064.43 1877.28H2083.55L2074.03 1847.52L2064.43 1877.28ZM2145.2 1899.52C2137.04 1899.52 2128.88 1894.4 2128.88 1884.08L2138.96 1875.2L2139.2 1875.44L2132.24 1883.92C2132.24 1892.72 2138.72 1897.12 2145.2 1897.12C2152.72 1897.12 2158.32 1891.68 2158.32 1884.48C2158.32 1878.56 2154.96 1874 2148.8 1871.04L2141.44 1867.6C2133.44 1863.92 2130.16 1858.4 2130.16 1853.2C2130.16 1845.44 2136.64 1839.6 2145.2 1839.6C2152.72 1839.6 2159.76 1844.32 2160.08 1854L2151.36 1861.2L2151.12 1860.96L2157.12 1853.92C2156.72 1845.92 2151.04 1842 2145.2 1842C2138.24 1842 2133.04 1846.8 2133.04 1853.2C2133.04 1857.28 2135.68 1861.68 2142.56 1864.64L2150 1868C2157.44 1871.28 2161.6 1877.12 2161.6 1884.24C2161.6 1892.96 2154.56 1899.52 2145.2 1899.52ZM2222.95 1898V1897.6L2231.59 1896.4V1869.6H2209.19V1896.4L2217.83 1897.6V1898H2196.39V1897.6L2205.99 1896.4V1843.6L2196.39 1842.4V1842H2217.83V1842.4L2209.19 1843.6V1867.2H2231.59V1843.6L2222.95 1842.4V1842H2244.39V1842.4L2234.79 1843.6V1896.4L2244.39 1897.6V1898H2222.95ZM2323.19 1906.24L2293.75 1864.88L2310.95 1843.6L2301.67 1842.4V1842H2323.99V1842.4L2314.07 1843.6L2297.51 1863.92L2323.83 1905.76L2323.19 1906.24ZM2276.39 1898V1897.6L2285.99 1896.4V1843.6L2276.39 1842.4V1842H2298.79V1842.4L2289.19 1843.6V1896.4L2298.79 1897.6V1898H2276.39ZM2381.64 1899.6C2364.52 1899.6 2351.64 1886.72 2351.64 1869.6C2351.64 1852.48 2364.52 1839.6 2381.64 1839.6C2398.76 1839.6 2411.64 1852.48 2411.64 1869.6C2411.64 1886.72 2398.76 1899.6 2381.64 1899.6ZM2381.64 1897.2C2397.24 1897.2 2408.28 1885.76 2408.28 1869.6C2408.28 1853.44 2397.24 1842 2381.64 1842C2366.04 1842 2355 1853.44 2355 1869.6C2355 1885.76 2366.04 1897.2 2381.64 1897.2ZM2464.68 1901.2L2446.12 1843.6L2436.44 1842.4V1842H2459.16V1842.4L2449.64 1843.6L2465.32 1893.2L2481.08 1843.6L2471.56 1842.4V1842H2493.48V1842.4L2483.8 1843.6L2465.08 1901.2H2464.68Z" fill="#E3E1D3"/>
</svg>
