<svg width="1080" height="1080" viewBox="0 0 1080 1080" fill="none" xmlns="http://www.w3.org/2000/svg">
<rect width="1080" height="1080" fill="#D8D8D8"/>
<path fill-rule="evenodd" clip-rule="evenodd" d="M1037 639.4C1037 692.125 1016.06 742.692 978.774 779.974C941.492 817.256 890.925 838.2 838.2 838.2C838.2 890.925 817.256 941.492 779.974 978.774C742.692 1016.06 692.125 1037 639.4 1037H440.6C387.875 1037 337.308 1016.06 300.026 978.774C262.744 941.492 241.8 890.925 241.8 838.2C189.075 838.2 138.508 817.256 101.226 779.974C63.9438 742.692 43 692.125 43 639.4V440.6C43 387.875 63.9438 337.308 101.226 300.026C138.508 262.744 189.075 241.8 241.8 241.8C241.8 189.075 262.744 138.508 300.026 101.226C337.308 63.9438 387.875 43 440.6 43H639.4C692.125 43 742.692 63.9438 779.974 101.226C817.256 138.508 838.2 189.075 838.2 241.8L843.134 241.865C894.071 243.128 942.656 263.908 978.774 300.026C1016.06 337.308 1037 387.875 1037 440.6V639.4ZM838.2 440.6C785.475 440.6 734.908 419.656 697.626 382.374C660.344 345.092 639.4 294.525 639.4 241.8H440.6L440.535 246.734C439.272 297.671 418.492 346.256 382.374 382.374C345.092 419.656 294.525 440.6 241.8 440.6V639.4C294.525 639.4 345.092 660.344 382.374 697.626C419.656 734.908 440.6 785.475 440.6 838.2H639.4C639.4 785.475 660.344 734.908 697.626 697.626C734.908 660.344 785.475 639.4 838.2 639.4V440.6Z" fill="#FF5842"/>
<path d="M59.4004 59.4V86.4" stroke="black" stroke-width="32.4"/>
<rect x="43.1992" y="43.2" width="32.4" height="32.4" fill="black"/>
<path d="M59.4004 86.4V129.6" stroke="black" stroke-width="32.4"/>
<path d="M59.4004 129.6V172.8" stroke="black" stroke-width="32.4"/>
<path d="M86.3996 210.6C76.3744 210.6 66.7598 206.618 59.671 199.529C52.5821 192.44 48.5996 182.825 48.5996 172.8" stroke="black" stroke-width="10.8" stroke-dasharray="28.47 1.22"/>
<path d="M86.3992 189C82.1027 189 77.9822 187.293 74.9441 184.255C71.906 181.217 70.1992 177.097 70.1992 172.8" stroke="black" stroke-width="10.8"/>
<path d="M86.3986 186.84C90.2279 186.84 94.0198 187.594 97.5576 189.06C101.095 190.525 104.31 192.673 107.018 195.381C112.486 200.849 115.559 208.266 115.559 216" stroke="black" stroke-width="6.48" stroke-dasharray="17.71 5.19"/>
<path d="M86.3996 199.8C90.6961 199.8 94.8167 201.507 97.8547 204.545C100.893 207.583 102.6 211.703 102.6 216" stroke="black" stroke-width="6.48" stroke-dasharray="17.71 7.73"/>
<path d="M86.3987 212.76C87.258 212.76 88.0821 213.101 88.6897 213.709C89.2973 214.317 89.6387 215.141 89.6387 216" stroke="black" stroke-width="6.48"/>
<path d="M129.601 253.8C119.576 253.8 109.961 249.818 102.872 242.729C95.7833 235.64 91.8008 226.025 91.8008 216" stroke="black" stroke-width="10.8" stroke-dasharray="28.47 1.22"/>
<path d="M129.6 232.2C125.304 232.2 121.183 230.493 118.145 227.455C115.107 224.417 113.4 220.297 113.4 216" stroke="black" stroke-width="10.8"/>
<path d="M129.6 243H172.8" stroke="black" stroke-width="32.4"/>
<path d="M186.84 216C186.84 212.171 187.594 208.379 189.06 204.841C190.525 201.303 192.673 198.089 195.381 195.381C200.849 189.912 208.266 186.84 216 186.84" stroke="black" stroke-width="6.48" stroke-dasharray="17.71 5.19"/>
<path d="M199.8 216C199.8 211.704 201.507 207.583 204.545 204.545C207.583 201.507 211.703 199.8 216 199.8" stroke="black" stroke-width="6.48" stroke-dasharray="17.71 7.73"/>
<path d="M212.76 216C212.76 215.141 213.101 214.317 213.709 213.709C214.317 213.101 215.141 212.76 216 212.76" stroke="black" stroke-width="6.48"/>
<path d="M210.601 216C210.601 226.025 206.618 235.64 199.529 242.729C192.441 249.818 182.826 253.8 172.801 253.8" stroke="black" stroke-width="10.8" stroke-dasharray="28.47 1.22"/>
<path d="M189.001 216C189.001 220.296 187.294 224.417 184.256 227.455C181.218 230.493 177.097 232.2 172.801 232.2" stroke="black" stroke-width="10.8"/>
<path d="M243 86.4V59.4" stroke="black" stroke-width="32.4"/>
<rect x="259.199" y="75.6" width="32.4" height="32.4" transform="rotate(180 259.199 75.6)" fill="black"/>
<path d="M243 129.6V86.4" stroke="black" stroke-width="32.4"/>
<path d="M243 172.8V129.6" stroke="black" stroke-width="32.4"/>
<path d="M253.8 172.8C253.8 182.825 249.818 192.44 242.729 199.529C235.64 206.617 226.025 210.6 216 210.6" stroke="black" stroke-width="10.8" stroke-dasharray="28.47 1.22"/>
<path d="M232.2 172.8C232.2 177.097 230.493 181.217 227.455 184.255C224.417 187.293 220.297 189 216 189" stroke="black" stroke-width="10.8"/>
<path d="M604.801 59.4H577.801" stroke="black" stroke-width="32.4"/>
<rect x="594" y="43.2" width="32.4" height="32.4" transform="rotate(90 594 43.2)" fill="black"/>
<path d="M577.801 243H604.801" stroke="black" stroke-width="32.4"/>
<rect x="561.6" y="259.2" width="32.4" height="32.4" transform="rotate(-90 561.6 259.2)" fill="black"/>
<path d="M646.527 86.4V44.6728L604.8 44.6728" stroke="black" stroke-width="2.94545" stroke-dasharray="7.8 2.63"/>
<path d="M640.635 86.4V50.5637L604.798 50.5637" stroke="black" stroke-width="2.94545" stroke-dasharray="7.8 2.44"/>
<path d="M634.746 86.4V56.4546H604.801" stroke="black" stroke-width="2.94545" stroke-dasharray="7.8 2.18"/>
<path d="M628.854 86.4V62.3455H604.799" stroke="black" stroke-width="2.94545" stroke-dasharray="7.8 1.82"/>
<path d="M622.961 86.4V68.2364H604.797" stroke="black" stroke-width="2.94545" stroke-dasharray="7.8 1.28"/>
<path d="M617.072 86.4V74.1273H604.8" stroke="black" stroke-width="2.94545" stroke-dasharray="7.8 4.47"/>
<path d="M604.801 257.727H646.528V216" stroke="black" stroke-width="2.94545" stroke-dasharray="7.8 2.63"/>
<path d="M604.801 251.837H640.637V216" stroke="black" stroke-width="2.94545" stroke-dasharray="7.8 2.44"/>
<path d="M604.801 245.946H634.746V216" stroke="black" stroke-width="2.94545" stroke-dasharray="7.8 2.18"/>
<path d="M604.801 240.055H628.855V216" stroke="black" stroke-width="2.94545" stroke-dasharray="7.8 1.82"/>
<path d="M604.801 234.164H622.964V216" stroke="black" stroke-width="2.94545" stroke-dasharray="7.8 1.28"/>
<path d="M604.801 228.273H617.074V216" stroke="black" stroke-width="2.94545" stroke-dasharray="7.8 4.47"/>
<path d="M648 70.2L691.2 70.2" stroke="black" stroke-width="32.4"/>
<path d="M655.713 88.7144V129.6" stroke="black" stroke-width="4.62857" stroke-dasharray="12.19 1.44"/>
<path d="M664.971 88.7144V129.6" stroke="black" stroke-width="4.62857" stroke-dasharray="12.19 1.44"/>
<path d="M674.227 88.7144V129.6" stroke="black" stroke-width="4.62857" stroke-dasharray="12.19 1.44"/>
<path d="M683.482 88.7144V129.6" stroke="black" stroke-width="4.62857" stroke-dasharray="12.19 1.44"/>
<path d="M655.713 88.7144H683.484" stroke="black" stroke-width="4.62857" stroke-linecap="square" stroke-dasharray="12.19 1.69"/>
<path d="M655.713 129.6V172.8" stroke="black" stroke-width="4.62857" stroke-dasharray="12.19 2.21"/>
<path d="M664.971 129.6V172.8" stroke="black" stroke-width="4.62857" stroke-dasharray="12.19 2.21"/>
<path d="M674.227 129.6V172.8" stroke="black" stroke-width="4.62857" stroke-dasharray="12.19 2.21"/>
<path d="M683.482 129.6V172.8" stroke="black" stroke-width="4.62857" stroke-dasharray="12.19 2.21"/>
<path d="M655.713 172.8V213.686" stroke="black" stroke-width="4.62857" stroke-dasharray="12.19 1.44"/>
<path d="M664.971 172.8V213.686" stroke="black" stroke-width="4.62857" stroke-dasharray="12.19 1.44"/>
<path d="M674.227 172.8V213.686" stroke="black" stroke-width="4.62857" stroke-dasharray="12.19 1.44"/>
<path d="M683.482 172.8V213.686" stroke="black" stroke-width="4.62857" stroke-dasharray="12.19 1.44"/>
<path d="M655.713 213.686H683.484" stroke="black" stroke-width="4.62857" stroke-linecap="square" stroke-dasharray="12.19 1.69"/>
<path d="M691.199 232.2H647.999" stroke="black" stroke-width="32.4"/>
<path d="M734.4 44.6729H692.673V86.4001" stroke="black" stroke-width="2.94545" stroke-dasharray="7.8 2.63"/>
<path d="M734.4 50.5637H698.564V86.4001" stroke="black" stroke-width="2.94545" stroke-dasharray="7.8 2.44"/>
<path d="M734.4 56.4546H704.455V86.4" stroke="black" stroke-width="2.94545" stroke-dasharray="7.8 2.18"/>
<path d="M734.4 62.3457H710.346V86.4002" stroke="black" stroke-width="2.94545" stroke-dasharray="7.8 1.82"/>
<path d="M734.4 68.2366H716.237V86.4002" stroke="black" stroke-width="2.94545" stroke-dasharray="7.8 1.28"/>
<path d="M734.4 74.1274H722.128V86.4002" stroke="black" stroke-width="2.94545" stroke-dasharray="7.8 4.47"/>
<path d="M692.674 216V257.727H734.401" stroke="black" stroke-width="2.94545" stroke-dasharray="7.8 2.63"/>
<path d="M698.564 216V251.836H734.401" stroke="black" stroke-width="2.94545" stroke-dasharray="7.8 2.44"/>
<path d="M704.453 216V245.945H734.399" stroke="black" stroke-width="2.94545" stroke-dasharray="7.8 2.18"/>
<path d="M710.346 216V240.055H734.4" stroke="black" stroke-width="2.94545" stroke-dasharray="7.8 1.82"/>
<path d="M716.238 216V234.164H734.402" stroke="black" stroke-width="2.94545" stroke-dasharray="7.8 1.28"/>
<path d="M722.127 216V228.273H734.4" stroke="black" stroke-width="2.94545" stroke-dasharray="7.8 4.47"/>
<path d="M761.4 59.4H734.4" stroke="black" stroke-width="32.4"/>
<rect x="777.6" y="43.2" width="32.4" height="32.4" transform="rotate(90 777.6 43.2)" fill="black"/>
<path d="M734.4 243H761.4" stroke="black" stroke-width="32.4"/>
<rect x="745.199" y="259.2" width="32.4" height="32.4" transform="rotate(-90 745.199 259.2)" fill="black"/>
<path d="M826.2 172.8C826.2 162.775 830.182 153.16 837.271 146.071C844.36 138.982 853.975 135 864 135" stroke="black" stroke-width="10.8" stroke-dasharray="28.47 1.22"/>
<path d="M847.8 172.8C847.8 168.503 849.507 164.383 852.545 161.345C855.583 158.307 859.703 156.6 864 156.6" stroke="black" stroke-width="10.8"/>
<path d="M863.999 210.6C853.974 210.6 844.359 206.618 837.271 199.529C830.182 192.44 826.199 182.825 826.199 172.8" stroke="black" stroke-width="10.8" stroke-dasharray="28.47 1.22"/>
<path d="M864.001 189C859.704 189 855.584 187.293 852.546 184.255C849.508 181.217 847.801 177.097 847.801 172.8" stroke="black" stroke-width="10.8"/>
<path d="M869.399 129.6C869.399 119.575 873.382 109.96 880.471 102.871C887.559 95.7825 897.174 91.8 907.199 91.8" stroke="black" stroke-width="10.8" stroke-dasharray="28.47 1.22"/>
<path d="M890.999 129.6C890.999 125.304 892.706 121.183 895.744 118.145C898.782 115.107 902.903 113.4 907.199 113.4" stroke="black" stroke-width="10.8"/>
<path d="M893.16 129.6C893.16 133.429 892.406 137.221 890.94 140.759C889.475 144.297 887.327 147.511 884.619 150.219C879.151 155.688 871.734 158.76 864 158.76" stroke="black" stroke-width="6.48" stroke-dasharray="17.71 5.19"/>
<path d="M880.2 129.6C880.2 133.897 878.493 138.017 875.455 141.055C872.417 144.093 868.297 145.8 864 145.8" stroke="black" stroke-width="6.48" stroke-dasharray="17.71 7.73"/>
<path d="M867.24 129.6C867.24 130.459 866.899 131.283 866.291 131.891C865.683 132.498 864.859 132.84 864 132.84" stroke="black" stroke-width="6.48"/>
<path d="M863.998 186.84C867.828 186.84 871.619 187.594 875.157 189.06C878.695 190.525 881.91 192.673 884.617 195.381C890.086 200.849 893.158 208.266 893.158 216" stroke="black" stroke-width="6.48" stroke-dasharray="17.71 5.19"/>
<path d="M863.999 199.8C868.296 199.8 872.416 201.507 875.454 204.545C878.492 207.583 880.199 211.703 880.199 216" stroke="black" stroke-width="6.48" stroke-dasharray="17.71 7.73"/>
<path d="M863.998 212.76C864.858 212.76 865.682 213.101 866.289 213.709C866.897 214.317 867.238 215.141 867.238 216" stroke="black" stroke-width="6.48"/>
<path d="M907.2 253.8C897.175 253.8 887.561 249.818 880.472 242.729C873.383 235.64 869.4 226.025 869.4 216" stroke="black" stroke-width="10.8" stroke-dasharray="28.47 1.22"/>
<path d="M907.2 232.2C902.903 232.2 898.783 230.493 895.745 227.455C892.707 224.417 891 220.297 891 216" stroke="black" stroke-width="10.8"/>
<path d="M950.4 102.6H907.2" stroke="black" stroke-width="32.4"/>
<path d="M907.199 243H950.399" stroke="black" stroke-width="32.4"/>
<path d="M993.6 102.6H950.4" stroke="black" stroke-width="32.4"/>
<path d="M950.4 243H993.6" stroke="black" stroke-width="32.4"/>
<path d="M1020.6 86.4V59.4" stroke="black" stroke-width="32.4"/>
<rect x="1036.8" y="75.6" width="32.4" height="32.4" transform="rotate(180 1036.8 75.6)" fill="black"/>
<path d="M1035.33 129.6V87.8727H993.599" stroke="black" stroke-width="2.94545" stroke-dasharray="7.8 2.63"/>
<path d="M1029.44 129.6V93.7636H993.599" stroke="black" stroke-width="2.94545" stroke-dasharray="7.8 2.44"/>
<path d="M1023.55 129.6V99.6545H993.601" stroke="black" stroke-width="2.94545" stroke-dasharray="7.8 2.18"/>
<path d="M1017.65 129.6V105.545H993.6" stroke="black" stroke-width="2.94545" stroke-dasharray="7.8 1.82"/>
<path d="M1011.76 129.6V111.436H993.598" stroke="black" stroke-width="2.94545" stroke-dasharray="7.8 1.28"/>
<path d="M1005.87 129.6V117.327H993.6" stroke="black" stroke-width="2.94545" stroke-dasharray="7.8 4.47"/>
<path d="M1020.6 172.8V129.6" stroke="black" stroke-width="32.4"/>
<path d="M1020.6 216V172.8" stroke="black" stroke-width="32.4"/>
<path d="M993.6 257.727H1035.33V216" stroke="black" stroke-width="2.94545" stroke-dasharray="7.8 2.63"/>
<path d="M993.6 251.837H1029.44V216" stroke="black" stroke-width="2.94545" stroke-dasharray="7.8 2.44"/>
<path d="M993.6 245.946H1023.55V216" stroke="black" stroke-width="2.94545" stroke-dasharray="7.8 2.18"/>
<path d="M993.6 240.055H1017.65V216" stroke="black" stroke-width="2.94545" stroke-dasharray="7.8 1.82"/>
<path d="M993.6 234.164H1011.76V216" stroke="black" stroke-width="2.94545" stroke-dasharray="7.8 1.28"/>
<path d="M993.6 228.273H1005.87V216" stroke="black" stroke-width="2.94545" stroke-dasharray="7.8 4.47"/>
<path d="M86.4023 361.8H59.4023" stroke="black" stroke-width="32.4"/>
<rect x="75.6016" y="345.6" width="32.4" height="32.4" transform="rotate(90 75.6016 345.6)" fill="black"/>
<path d="M102.602 318.6V345.6" stroke="black" stroke-width="32.4"/>
<rect x="86.4023" y="302.4" width="32.4" height="32.4" fill="black"/>
<path d="M129.602 347.073H87.8743V388.8" stroke="black" stroke-width="2.94545" stroke-dasharray="7.8 2.63"/>
<path d="M129.602 352.964H93.7652V388.8" stroke="black" stroke-width="2.94545" stroke-dasharray="7.8 2.44"/>
<path d="M129.602 358.854H99.6561V388.8" stroke="black" stroke-width="2.94545" stroke-dasharray="7.8 2.18"/>
<path d="M129.602 364.745H105.547V388.8" stroke="black" stroke-width="2.94545" stroke-dasharray="7.8 1.82"/>
<path d="M129.602 370.636H111.438V388.8" stroke="black" stroke-width="2.94545" stroke-dasharray="7.8 1.28"/>
<path d="M129.602 376.527H117.329V388.8" stroke="black" stroke-width="2.94545" stroke-dasharray="7.8 4.47"/>
<path d="M102.602 388.8V432" stroke="black" stroke-width="32.4"/>
<path d="M129.601 469.8C119.576 469.8 109.961 465.818 102.872 458.729C95.7833 451.64 91.8008 442.025 91.8008 432" stroke="black" stroke-width="10.8" stroke-dasharray="28.47 1.22"/>
<path d="M129.6 448.2C125.304 448.2 121.183 446.493 118.145 443.455C115.107 440.417 113.4 436.297 113.4 432" stroke="black" stroke-width="10.8"/>
<path d="M172.801 361.8H129.601" stroke="black" stroke-width="32.4"/>
<path d="M129.6 446.04C133.429 446.04 137.221 446.794 140.759 448.26C144.297 449.725 147.511 451.873 150.219 454.581C155.688 460.049 158.76 467.466 158.76 475.2" stroke="black" stroke-width="6.48" stroke-dasharray="17.71 5.19"/>
<path d="M129.603 459C133.899 459 138.02 460.707 141.058 463.745C144.096 466.783 145.803 470.903 145.803 475.2" stroke="black" stroke-width="6.48" stroke-dasharray="17.71 7.73"/>
<path d="M129.6 471.96C130.459 471.96 131.283 472.301 131.891 472.909C132.498 473.517 132.84 474.341 132.84 475.2" stroke="black" stroke-width="6.48"/>
<path d="M172.802 513C162.777 513 153.162 509.017 146.073 501.929C138.984 494.84 135.002 485.225 135.002 475.2" stroke="black" stroke-width="10.8" stroke-dasharray="28.47 1.22"/>
<path d="M172.802 491.4C168.505 491.4 164.385 489.693 161.346 486.655C158.308 483.617 156.602 479.496 156.602 475.2" stroke="black" stroke-width="10.8"/>
<path d="M216.002 361.8H172.802" stroke="black" stroke-width="32.4"/>
<path d="M186.842 475.2C186.842 471.371 187.596 467.579 189.062 464.041C190.527 460.503 192.675 457.289 195.383 454.581C200.851 449.112 208.268 446.04 216.002 446.04" stroke="black" stroke-width="6.48" stroke-dasharray="17.71 5.19"/>
<path d="M199.802 475.2C199.802 470.903 201.509 466.783 204.547 463.745C207.585 460.707 211.705 459 216.002 459" stroke="black" stroke-width="6.48" stroke-dasharray="17.71 7.73"/>
<path d="M212.762 475.2C212.762 474.341 213.103 473.517 213.711 472.909C214.319 472.301 215.143 471.96 216.002 471.96" stroke="black" stroke-width="6.48"/>
<path d="M210.601 475.2C210.601 485.225 206.618 494.84 199.529 501.929C192.441 509.018 182.826 513 172.801 513" stroke="black" stroke-width="10.8" stroke-dasharray="28.47 1.22"/>
<path d="M189.001 475.2C189.001 479.497 187.294 483.617 184.256 486.655C181.218 489.693 177.097 491.4 172.801 491.4" stroke="black" stroke-width="10.8"/>
<path d="M243.002 361.8H216.002" stroke="black" stroke-width="32.4"/>
<rect x="259.201" y="345.6" width="32.4" height="32.4" transform="rotate(90 259.201 345.6)" fill="black"/>
<path d="M253.802 432C253.802 442.025 249.819 451.64 242.731 458.729C235.642 465.818 226.027 469.8 216.002 469.8" stroke="black" stroke-width="10.8" stroke-dasharray="28.47 1.22"/>
<path d="M232.202 432C232.202 436.296 230.495 440.417 227.457 443.455C224.419 446.493 220.298 448.2 216.002 448.2" stroke="black" stroke-width="10.8"/>
<path d="M253.415 437.382L231.309 437.3" stroke="black" stroke-width="10.8" stroke-linecap="square"/>
<path d="M307.8 345.6C307.8 335.575 311.782 325.96 318.871 318.871C325.96 311.782 335.574 307.8 345.6 307.8" stroke="black" stroke-width="10.8" stroke-dasharray="28.47 1.22"/>
<path d="M329.4 345.6C329.4 341.303 331.106 337.183 334.144 334.145C337.183 331.107 341.303 329.4 345.6 329.4" stroke="black" stroke-width="10.8"/>
<path d="M345.599 383.4C335.574 383.4 325.959 379.417 318.87 372.329C311.781 365.24 307.799 355.625 307.799 345.6" stroke="black" stroke-width="10.8" stroke-dasharray="28.47 1.22"/>
<path d="M345.598 361.8C341.302 361.8 337.181 360.093 334.143 357.055C331.105 354.017 329.398 349.896 329.398 345.6" stroke="black" stroke-width="10.8"/>
<path d="M345.599 469.8C335.574 469.8 325.959 465.818 318.87 458.729C311.781 451.64 307.799 442.025 307.799 432" stroke="black" stroke-width="10.8" stroke-dasharray="28.47 1.22"/>
<path d="M345.598 448.2C341.302 448.2 337.181 446.493 334.143 443.455C331.105 440.417 329.398 436.297 329.398 432" stroke="black" stroke-width="10.8"/>
<path d="M308.186 437.382L330.292 437.3" stroke="black" stroke-width="10.8" stroke-linecap="square"/>
<path d="M388.799 318.6H345.599" stroke="black" stroke-width="32.4"/>
<path d="M345.598 359.64C349.427 359.64 353.219 360.394 356.757 361.86C360.295 363.325 363.509 365.473 366.217 368.181C371.686 373.649 374.758 381.066 374.758 388.8" stroke="black" stroke-width="6.48" stroke-dasharray="17.71 5.19"/>
<path d="M345.601 372.6C349.897 372.6 354.018 374.307 357.056 377.345C360.094 380.383 361.801 384.503 361.801 388.8" stroke="black" stroke-width="6.48" stroke-dasharray="17.71 7.73"/>
<path d="M345.598 385.56C346.457 385.56 347.281 385.901 347.889 386.509C348.497 387.117 348.838 387.941 348.838 388.8" stroke="black" stroke-width="6.48"/>
<path d="M388.8 426.6C378.775 426.6 369.16 422.617 362.071 415.529C354.982 408.44 351 398.825 351 388.8" stroke="black" stroke-width="10.8" stroke-dasharray="28.47 1.22"/>
<path d="M388.8 405C384.503 405 380.383 403.293 377.344 400.255C374.306 397.217 372.6 393.096 372.6 388.8" stroke="black" stroke-width="10.8"/>
<path d="M345.598 446.04C349.427 446.04 353.219 446.794 356.757 448.26C360.295 449.725 363.509 451.873 366.217 454.581C371.686 460.049 374.758 467.466 374.758 475.2" stroke="black" stroke-width="6.48" stroke-dasharray="17.71 5.19"/>
<path d="M345.601 459C349.897 459 354.018 460.707 357.056 463.745C360.094 466.783 361.801 470.903 361.801 475.2" stroke="black" stroke-width="6.48" stroke-dasharray="17.71 7.73"/>
<path d="M345.598 471.96C346.457 471.96 347.281 472.301 347.889 472.909C348.497 473.517 348.838 474.341 348.838 475.2" stroke="black" stroke-width="6.48"/>
<path d="M388.8 513C378.775 513 369.16 509.017 362.071 501.929C354.982 494.84 351 485.225 351 475.2" stroke="black" stroke-width="10.8" stroke-dasharray="28.47 1.22"/>
<path d="M388.8 491.4C384.503 491.4 380.383 489.693 377.344 486.655C374.306 483.617 372.6 479.496 372.6 475.2" stroke="black" stroke-width="10.8"/>
<path d="M432 318.6H388.8" stroke="black" stroke-width="32.4"/>
<path d="M402.84 388.8C402.84 384.971 403.594 381.179 405.06 377.641C406.525 374.103 408.673 370.889 411.381 368.181C416.849 362.712 424.266 359.64 432 359.64" stroke="black" stroke-width="6.48" stroke-dasharray="17.71 5.19"/>
<path d="M415.8 388.8C415.8 384.503 417.507 380.383 420.545 377.345C423.583 374.307 427.703 372.6 432 372.6" stroke="black" stroke-width="6.48" stroke-dasharray="17.71 7.73"/>
<path d="M428.76 388.8C428.76 387.941 429.101 387.117 429.709 386.509C430.317 385.901 431.141 385.56 432 385.56" stroke="black" stroke-width="6.48"/>
<path d="M426.599 388.8C426.599 398.825 422.616 408.44 415.527 415.529C408.439 422.617 398.824 426.6 388.799 426.6" stroke="black" stroke-width="10.8" stroke-dasharray="28.47 1.22"/>
<path d="M404.999 388.8C404.999 393.097 403.292 397.217 400.254 400.255C397.216 403.293 393.095 405 388.799 405" stroke="black" stroke-width="10.8"/>
<path d="M402.84 475.2C402.84 471.371 403.594 467.579 405.06 464.041C406.525 460.503 408.673 457.289 411.381 454.581C416.849 449.112 424.266 446.04 432 446.04" stroke="black" stroke-width="6.48" stroke-dasharray="17.71 5.19"/>
<path d="M415.8 475.2C415.8 470.903 417.507 466.783 420.545 463.745C423.583 460.707 427.703 459 432 459" stroke="black" stroke-width="6.48" stroke-dasharray="17.71 7.73"/>
<path d="M428.76 475.2C428.76 474.341 429.101 473.517 429.709 472.909C430.317 472.301 431.141 471.96 432 471.96" stroke="black" stroke-width="6.48"/>
<path d="M426.599 475.2C426.599 485.225 422.616 494.84 415.527 501.929C408.439 509.018 398.824 513 388.799 513" stroke="black" stroke-width="10.8" stroke-dasharray="28.47 1.22"/>
<path d="M404.999 475.2C404.999 479.497 403.292 483.617 400.254 486.655C397.216 489.693 393.095 491.4 388.799 491.4" stroke="black" stroke-width="10.8"/>
<path d="M446.039 345.6C446.039 341.771 446.793 337.979 448.259 334.441C449.724 330.903 451.872 327.689 454.58 324.981C460.049 319.512 467.466 316.44 475.199 316.44" stroke="black" stroke-width="6.48" stroke-dasharray="17.71 5.19"/>
<path d="M458.999 345.6C458.999 341.304 460.706 337.183 463.744 334.145C466.782 331.107 470.903 329.4 475.199 329.4" stroke="black" stroke-width="6.48" stroke-dasharray="17.71 7.73"/>
<path d="M471.959 345.6C471.959 344.741 472.301 343.917 472.908 343.309C473.516 342.701 474.34 342.36 475.199 342.36" stroke="black" stroke-width="6.48"/>
<path d="M432 387.327H473.727V345.6" stroke="black" stroke-width="2.94545" stroke-dasharray="7.8 2.63"/>
<path d="M432 381.437H467.836V345.6" stroke="black" stroke-width="2.94545" stroke-dasharray="7.8 2.44"/>
<path d="M432 375.546H461.945V345.6" stroke="black" stroke-width="2.94545" stroke-dasharray="7.8 2.18"/>
<path d="M432 369.655H456.055V345.6" stroke="black" stroke-width="2.94545" stroke-dasharray="7.8 1.82"/>
<path d="M432 363.764H450.164V345.6" stroke="black" stroke-width="2.94545" stroke-dasharray="7.8 1.28"/>
<path d="M432 357.873H444.273V345.6" stroke="black" stroke-width="2.94545" stroke-dasharray="7.8 4.47"/>
<path d="M446.039 432C446.039 428.171 446.793 424.379 448.259 420.841C449.724 417.303 451.872 414.089 454.58 411.381C460.049 405.912 467.466 402.84 475.199 402.84" stroke="black" stroke-width="6.48" stroke-dasharray="17.71 5.19"/>
<path d="M458.999 432C458.999 427.704 460.706 423.583 463.744 420.545C466.782 417.507 470.903 415.8 475.199 415.8" stroke="black" stroke-width="6.48" stroke-dasharray="17.71 7.73"/>
<path d="M471.959 432C471.959 431.141 472.301 430.317 472.908 429.709C473.516 429.101 474.34 428.76 475.199 428.76" stroke="black" stroke-width="6.48"/>
<path d="M469.8 432C469.8 442.025 465.818 451.64 458.729 458.729C451.64 465.817 442.025 469.8 432 469.8" stroke="black" stroke-width="10.8" stroke-dasharray="28.47 1.22"/>
<path d="M448.2 432C448.2 436.296 446.493 440.417 443.455 443.455C440.417 446.493 436.297 448.2 432 448.2" stroke="black" stroke-width="10.8"/>
<path d="M512.999 302.4C512.999 312.425 509.017 322.04 501.928 329.129C494.839 336.217 485.224 340.2 475.199 340.2" stroke="black" stroke-width="10.8" stroke-dasharray="28.47 1.22"/>
<path d="M491.399 302.4C491.399 306.696 489.692 310.817 486.654 313.855C483.616 316.893 479.496 318.6 475.199 318.6" stroke="black" stroke-width="10.8"/>
<path d="M512.614 307.781L490.508 307.7" stroke="black" stroke-width="10.8" stroke-linecap="square"/>
<path d="M475.2 351C485.225 351 494.84 354.982 501.929 362.071C509.018 369.16 513 378.775 513 388.8" stroke="black" stroke-width="10.8" stroke-dasharray="28.47 1.22"/>
<path d="M475.2 372.6C479.497 372.6 483.617 374.307 486.656 377.345C489.694 380.383 491.4 384.503 491.4 388.8" stroke="black" stroke-width="10.8"/>
<path d="M512.999 388.8C512.999 398.825 509.017 408.44 501.928 415.529C494.839 422.617 485.224 426.6 475.199 426.6" stroke="black" stroke-width="10.8" stroke-dasharray="28.47 1.22"/>
<path d="M491.399 388.8C491.399 393.097 489.692 397.217 486.654 400.255C483.616 403.293 479.496 405 475.199 405" stroke="black" stroke-width="10.8"/>
<path d="M567.001 388.8C567.001 378.775 570.983 369.16 578.072 362.071C585.161 354.982 594.776 351 604.801 351" stroke="black" stroke-width="10.8" stroke-dasharray="28.47 1.22"/>
<path d="M588.601 388.8C588.601 384.503 590.308 380.383 593.346 377.345C596.384 374.307 600.504 372.6 604.801 372.6" stroke="black" stroke-width="10.8"/>
<path d="M563.072 388.8V430.527H604.8" stroke="black" stroke-width="2.94545" stroke-dasharray="7.8 2.63"/>
<path d="M568.965 388.8V424.636H604.801" stroke="black" stroke-width="2.94545" stroke-dasharray="7.8 2.44"/>
<path d="M574.854 388.8V418.746H604.799" stroke="black" stroke-width="2.94545" stroke-dasharray="7.8 2.18"/>
<path d="M580.746 388.8V412.855H604.801" stroke="black" stroke-width="2.94545" stroke-dasharray="7.8 1.82"/>
<path d="M586.639 388.8V406.964H604.802" stroke="black" stroke-width="2.94545" stroke-dasharray="7.8 1.28"/>
<path d="M592.527 388.8V401.073H604.8" stroke="black" stroke-width="2.94545" stroke-dasharray="7.8 4.47"/>
<path d="M577.801 432V475.2" stroke="black" stroke-width="32.4"/>
<path d="M577.801 475.2V502.2" stroke="black" stroke-width="32.4"/>
<rect x="561.6" y="486" width="32.4" height="32.4" fill="black"/>
<path d="M610.2 345.6C610.2 335.575 614.182 325.96 621.271 318.871C628.36 311.783 637.975 307.8 648 307.8" stroke="black" stroke-width="10.8" stroke-dasharray="28.47 1.22"/>
<path d="M631.8 345.6C631.8 341.304 633.507 337.183 636.545 334.145C639.583 331.107 643.703 329.4 648 329.4" stroke="black" stroke-width="10.8"/>
<path d="M633.961 345.6C633.961 349.429 633.207 353.221 631.741 356.759C630.276 360.297 628.128 363.511 625.42 366.219C619.951 371.688 612.534 374.76 604.801 374.76" stroke="black" stroke-width="6.48" stroke-dasharray="17.71 5.19"/>
<path d="M621.001 345.6C621.001 349.897 619.294 354.017 616.256 357.055C613.218 360.093 609.097 361.8 604.801 361.8" stroke="black" stroke-width="6.48" stroke-dasharray="17.71 7.73"/>
<path d="M608.041 345.6C608.041 346.459 607.699 347.283 607.092 347.891C606.484 348.498 605.66 348.84 604.801 348.84" stroke="black" stroke-width="6.48"/>
<path d="M604.799 402.84C608.628 402.84 612.42 403.594 615.958 405.06C619.496 406.525 622.71 408.673 625.418 411.381C630.887 416.849 633.959 424.266 633.959 432" stroke="black" stroke-width="6.48" stroke-dasharray="17.71 5.19"/>
<path d="M604.8 415.8C609.097 415.8 613.217 417.507 616.255 420.545C619.293 423.583 621 427.703 621 432" stroke="black" stroke-width="6.48" stroke-dasharray="17.71 7.73"/>
<path d="M604.797 428.76C605.656 428.76 606.481 429.101 607.088 429.709C607.696 430.317 608.037 431.141 608.037 432" stroke="black" stroke-width="6.48"/>
<path d="M647.999 469.8C637.974 469.8 628.359 465.818 621.271 458.729C614.182 451.64 610.199 442.025 610.199 432" stroke="black" stroke-width="10.8" stroke-dasharray="28.47 1.22"/>
<path d="M648.001 448.2C643.704 448.2 639.584 446.493 636.546 443.455C633.508 440.417 631.801 436.297 631.801 432" stroke="black" stroke-width="10.8"/>
<path d="M691.199 318.6H647.999" stroke="black" stroke-width="32.4"/>
<path d="M648 459H691.2" stroke="black" stroke-width="32.4"/>
<path d="M691.2 307.8C701.225 307.8 710.84 311.782 717.929 318.871C725.018 325.96 729 335.575 729 345.6" stroke="black" stroke-width="10.8" stroke-dasharray="28.47 1.22"/>
<path d="M691.2 329.4C695.497 329.4 699.617 331.107 702.656 334.145C705.694 337.183 707.4 341.303 707.4 345.6" stroke="black" stroke-width="10.8"/>
<path d="M734.402 374.76C730.573 374.76 726.781 374.006 723.243 372.54C719.705 371.075 716.491 368.927 713.783 366.219C708.314 360.751 705.242 353.334 705.242 345.6" stroke="black" stroke-width="6.48" stroke-dasharray="17.71 5.19"/>
<path d="M734.399 361.8C730.103 361.8 725.982 360.093 722.944 357.055C719.906 354.017 718.199 349.896 718.199 345.6" stroke="black" stroke-width="6.48" stroke-dasharray="17.71 7.73"/>
<path d="M734.402 348.84C733.543 348.84 732.719 348.499 732.111 347.891C731.503 347.283 731.162 346.459 731.162 345.6" stroke="black" stroke-width="6.48"/>
<path d="M705.24 432C705.24 428.171 705.995 424.379 707.46 420.841C708.925 417.303 711.073 414.089 713.781 411.381C719.25 405.912 726.667 402.84 734.4 402.84" stroke="black" stroke-width="6.48" stroke-dasharray="17.71 5.19"/>
<path d="M718.2 432C718.2 427.704 719.907 423.583 722.945 420.545C725.983 417.507 730.104 415.8 734.4 415.8" stroke="black" stroke-width="6.48" stroke-dasharray="17.71 7.73"/>
<path d="M731.16 432C731.16 431.141 731.502 430.317 732.109 429.709C732.717 429.101 733.541 428.76 734.4 428.76" stroke="black" stroke-width="6.48"/>
<path d="M728.999 432C728.999 442.025 725.017 451.64 717.928 458.729C710.839 465.818 701.224 469.8 691.199 469.8" stroke="black" stroke-width="10.8" stroke-dasharray="28.47 1.22"/>
<path d="M707.399 432C707.399 436.296 705.692 440.417 702.654 443.455C699.616 446.493 695.496 448.2 691.199 448.2" stroke="black" stroke-width="10.8"/>
<path d="M734.399 351C744.424 351 754.039 354.983 761.128 362.071C768.217 369.16 772.199 378.775 772.199 388.8" stroke="black" stroke-width="10.8" stroke-dasharray="28.47 1.22"/>
<path d="M734.4 372.6C738.696 372.6 742.817 374.307 745.855 377.345C748.893 380.383 750.6 384.504 750.6 388.8" stroke="black" stroke-width="10.8"/>
<path d="M772.2 388.8C772.2 398.825 768.218 408.44 761.129 415.529C754.04 422.617 744.426 426.6 734.4 426.6" stroke="black" stroke-width="10.8" stroke-dasharray="28.47 1.22"/>
<path d="M750.6 388.8C750.6 393.097 748.894 397.217 745.856 400.255C742.817 403.293 738.697 405 734.4 405" stroke="black" stroke-width="10.8"/>
<path d="M863.998 303.873H822.271V345.6" stroke="black" stroke-width="2.94545" stroke-dasharray="7.8 2.63"/>
<path d="M863.998 309.763H828.162V345.6" stroke="black" stroke-width="2.94545" stroke-dasharray="7.8 2.44"/>
<path d="M863.998 315.654H834.053V345.6" stroke="black" stroke-width="2.94545" stroke-dasharray="7.8 2.18"/>
<path d="M863.998 321.545H839.944V345.6" stroke="black" stroke-width="2.94545" stroke-dasharray="7.8 1.82"/>
<path d="M863.998 327.436H845.834V345.6" stroke="black" stroke-width="2.94545" stroke-dasharray="7.8 1.28"/>
<path d="M863.998 333.327H851.725V345.6" stroke="black" stroke-width="2.94545" stroke-dasharray="7.8 4.47"/>
<path d="M836.998 345.6V388.8" stroke="black" stroke-width="32.4"/>
<path d="M863.998 390.273H822.271V432" stroke="black" stroke-width="2.94545" stroke-dasharray="7.8 2.63"/>
<path d="M863.998 396.163H828.162V432" stroke="black" stroke-width="2.94545" stroke-dasharray="7.8 2.44"/>
<path d="M863.998 402.054H834.053V432" stroke="black" stroke-width="2.94545" stroke-dasharray="7.8 2.18"/>
<path d="M863.998 407.945H839.944V432" stroke="black" stroke-width="2.94545" stroke-dasharray="7.8 1.82"/>
<path d="M863.998 413.836H845.834V432" stroke="black" stroke-width="2.94545" stroke-dasharray="7.8 1.28"/>
<path d="M863.998 419.727H851.725V432" stroke="black" stroke-width="2.94545" stroke-dasharray="7.8 4.47"/>
<path d="M836.998 432V475.2" stroke="black" stroke-width="32.4"/>
<path d="M822.271 475.2V516.927H863.999" stroke="black" stroke-width="2.94545" stroke-dasharray="7.8 2.63"/>
<path d="M828.164 475.2V511.036H864" stroke="black" stroke-width="2.94545" stroke-dasharray="7.8 2.44"/>
<path d="M834.053 475.2V505.145H863.998" stroke="black" stroke-width="2.94545" stroke-dasharray="7.8 2.18"/>
<path d="M839.943 475.2V499.254H863.998" stroke="black" stroke-width="2.94545" stroke-dasharray="7.8 1.82"/>
<path d="M845.836 475.2V493.364H864" stroke="black" stroke-width="2.94545" stroke-dasharray="7.8 1.28"/>
<path d="M851.725 475.2V487.473H863.997" stroke="black" stroke-width="2.94545" stroke-dasharray="7.8 4.47"/>
<path d="M907.199 318.6H863.999" stroke="black" stroke-width="32.4"/>
<path d="M907.199 405H863.999" stroke="black" stroke-width="32.4"/>
<path d="M863.998 502.2H907.198" stroke="black" stroke-width="32.4"/>
<path d="M950.398 318.6H907.198" stroke="black" stroke-width="32.4"/>
<path d="M950.398 405H907.198" stroke="black" stroke-width="32.4"/>
<path d="M907.199 502.2H950.399" stroke="black" stroke-width="32.4"/>
<path d="M993.6 318.6H950.4" stroke="black" stroke-width="32.4"/>
<path d="M977.4 405H950.4" stroke="black" stroke-width="32.4"/>
<rect x="993.6" y="388.8" width="32.4" height="32.4" transform="rotate(90 993.6 388.8)" fill="black"/>
<path d="M950.398 502.2H993.598" stroke="black" stroke-width="32.4"/>
<path d="M1020.6 318.6H993.598" stroke="black" stroke-width="32.4"/>
<rect x="1036.8" y="302.4" width="32.4" height="32.4" transform="rotate(90 1036.8 302.4)" fill="black"/>
<path d="M993.6 502.2H1020.6" stroke="black" stroke-width="32.4"/>
<rect x="1004.4" y="518.4" width="32.4" height="32.4" transform="rotate(-90 1004.4 518.4)" fill="black"/>
<path d="M86.4023 664.2H59.4023" stroke="black" stroke-width="32.4"/>
<rect x="75.6016" y="648" width="32.4" height="32.4" transform="rotate(90 75.6016 648)" fill="black"/>
<path d="M91.8016 604.8C91.8016 594.775 95.7841 585.16 102.873 578.071C109.962 570.982 119.576 567 129.602 567" stroke="black" stroke-width="10.8" stroke-dasharray="28.47 1.22"/>
<path d="M113.402 604.8C113.402 600.503 115.108 596.383 118.146 593.345C121.185 590.307 125.305 588.6 129.602 588.6" stroke="black" stroke-width="10.8"/>
<path d="M102.602 604.8V648" stroke="black" stroke-width="32.4"/>
<path d="M129.602 649.473H87.8743V691.2" stroke="black" stroke-width="2.94545" stroke-dasharray="7.8 2.63"/>
<path d="M129.602 655.364H93.7652V691.2" stroke="black" stroke-width="2.94545" stroke-dasharray="7.8 2.44"/>
<path d="M129.602 661.254H99.6561V691.2" stroke="black" stroke-width="2.94545" stroke-dasharray="7.8 2.18"/>
<path d="M129.602 667.145H105.547V691.2" stroke="black" stroke-width="2.94545" stroke-dasharray="7.8 1.82"/>
<path d="M129.602 673.036H111.438V691.2" stroke="black" stroke-width="2.94545" stroke-dasharray="7.8 1.28"/>
<path d="M129.602 678.927H117.329V691.2" stroke="black" stroke-width="2.94545" stroke-dasharray="7.8 4.47"/>
<path d="M102.602 691.2V734.4" stroke="black" stroke-width="32.4"/>
<path d="M102.602 734.4V761.4" stroke="black" stroke-width="32.4"/>
<rect x="86.4023" y="745.2" width="32.4" height="32.4" fill="black"/>
<path d="M172.801 577.8H129.601" stroke="black" stroke-width="32.4"/>
<path d="M172.801 664.2H129.601" stroke="black" stroke-width="32.4"/>
<path d="M216.002 577.8H172.802" stroke="black" stroke-width="32.4"/>
<path d="M216.002 664.2H172.802" stroke="black" stroke-width="32.4"/>
<path d="M243.002 577.8H216.002" stroke="black" stroke-width="32.4"/>
<rect x="259.201" y="561.6" width="32.4" height="32.4" transform="rotate(90 259.201 561.6)" fill="black"/>
<path d="M243.002 664.2H216.002" stroke="black" stroke-width="32.4"/>
<rect x="259.201" y="648" width="32.4" height="32.4" transform="rotate(90 259.201 648)" fill="black"/>
<path d="M302.399 567C312.424 567 322.039 570.983 329.128 578.071C336.217 585.16 340.199 594.775 340.199 604.8" stroke="black" stroke-width="10.8" stroke-dasharray="28.47 1.22"/>
<path d="M302.4 588.6C306.696 588.6 310.817 590.307 313.855 593.345C316.893 596.383 318.6 600.504 318.6 604.8" stroke="black" stroke-width="10.8"/>
<path d="M307.783 567.385L307.702 589.492" stroke="black" stroke-width="10.8" stroke-linecap="square"/>
<path d="M345.601 633.96C341.772 633.96 337.98 633.206 334.442 631.74C330.905 630.275 327.69 628.127 324.982 625.419C319.514 619.951 316.441 612.534 316.441 604.8" stroke="black" stroke-width="6.48" stroke-dasharray="17.71 5.19"/>
<path d="M345.6 621C341.304 621 337.183 619.293 334.145 616.255C331.107 613.217 329.4 609.097 329.4 604.8" stroke="black" stroke-width="6.48" stroke-dasharray="17.71 7.73"/>
<path d="M345.601 608.04C344.742 608.04 343.918 607.699 343.31 607.091C342.703 606.483 342.361 605.659 342.361 604.8" stroke="black" stroke-width="6.48"/>
<path d="M307.8 691.2C307.8 681.175 311.782 671.56 318.871 664.471C325.96 657.383 335.574 653.4 345.6 653.4" stroke="black" stroke-width="10.8" stroke-dasharray="28.47 1.22"/>
<path d="M329.4 691.2C329.4 686.903 331.106 682.783 334.144 679.745C337.183 676.707 341.303 675 345.6 675" stroke="black" stroke-width="10.8"/>
<path d="M345.599 729C335.574 729 325.959 725.017 318.87 717.929C311.781 710.84 307.799 701.225 307.799 691.2" stroke="black" stroke-width="10.8" stroke-dasharray="28.47 1.22"/>
<path d="M345.598 707.4C341.302 707.4 337.181 705.693 334.143 702.655C331.105 699.617 329.398 695.496 329.398 691.2" stroke="black" stroke-width="10.8"/>
<path d="M388.799 621H345.599" stroke="black" stroke-width="32.4"/>
<path d="M388.799 664.2H345.599" stroke="black" stroke-width="32.4"/>
<path d="M345.598 705.24C349.427 705.24 353.219 705.994 356.757 707.46C360.295 708.925 363.509 711.073 366.217 713.781C371.686 719.249 374.758 726.666 374.758 734.4" stroke="black" stroke-width="6.48" stroke-dasharray="17.71 5.19"/>
<path d="M345.601 718.2C349.897 718.2 354.018 719.907 357.056 722.945C360.094 725.983 361.801 730.104 361.801 734.4" stroke="black" stroke-width="6.48" stroke-dasharray="17.71 7.73"/>
<path d="M345.598 731.16C346.457 731.16 347.281 731.501 347.889 732.109C348.497 732.717 348.838 733.541 348.838 734.4" stroke="black" stroke-width="6.48"/>
<path d="M388.8 772.2C378.775 772.2 369.16 768.218 362.071 761.129C354.982 754.04 351 744.425 351 734.4" stroke="black" stroke-width="10.8" stroke-dasharray="28.47 1.22"/>
<path d="M388.8 750.6C384.503 750.6 380.383 748.893 377.344 745.855C374.306 742.817 372.6 738.697 372.6 734.4" stroke="black" stroke-width="10.8"/>
<path d="M394.2 604.8C394.2 594.775 398.182 585.16 405.271 578.071C412.36 570.982 421.975 567 432 567" stroke="black" stroke-width="10.8" stroke-dasharray="28.47 1.22"/>
<path d="M415.8 604.8C415.8 600.503 417.507 596.383 420.545 593.345C423.583 590.307 427.703 588.6 432 588.6" stroke="black" stroke-width="10.8"/>
<path d="M417.959 604.8C417.959 608.629 417.205 612.421 415.739 615.959C414.274 619.497 412.126 622.711 409.418 625.419C403.95 630.888 396.533 633.96 388.799 633.96" stroke="black" stroke-width="6.48" stroke-dasharray="17.71 5.19"/>
<path d="M404.999 604.8C404.999 609.097 403.292 613.217 400.254 616.255C397.216 619.293 393.095 621 388.799 621" stroke="black" stroke-width="6.48" stroke-dasharray="17.71 7.73"/>
<path d="M392.039 604.8C392.039 605.659 391.697 606.483 391.09 607.091C390.482 607.699 389.658 608.04 388.799 608.04" stroke="black" stroke-width="6.48"/>
<path d="M432 664.2H388.8" stroke="black" stroke-width="32.4"/>
<path d="M388.799 761.4H431.999" stroke="black" stroke-width="32.4"/>
<path d="M475.199 577.8H431.999" stroke="black" stroke-width="32.4"/>
<path d="M431.999 653.4C442.024 653.4 451.639 657.382 458.727 664.471C465.816 671.56 469.799 681.175 469.799 691.2" stroke="black" stroke-width="10.8" stroke-dasharray="28.47 1.22"/>
<path d="M431.997 675C436.294 675 440.414 676.707 443.452 679.745C446.49 682.783 448.197 686.903 448.197 691.2" stroke="black" stroke-width="10.8"/>
<path d="M475.201 720.36C471.372 720.36 467.58 719.606 464.042 718.14C460.504 716.675 457.29 714.527 454.582 711.819C449.113 706.351 446.041 698.934 446.041 691.2" stroke="black" stroke-width="6.48" stroke-dasharray="17.71 5.19"/>
<path d="M475.2 707.4C470.903 707.4 466.783 705.693 463.745 702.655C460.707 699.617 459 695.496 459 691.2" stroke="black" stroke-width="6.48" stroke-dasharray="17.71 7.73"/>
<path d="M475.203 694.44C474.344 694.44 473.519 694.099 472.912 693.491C472.304 692.883 471.963 692.059 471.963 691.2" stroke="black" stroke-width="6.48"/>
<path d="M432 761.4H475.2" stroke="black" stroke-width="32.4"/>
<path d="M475.2 567C485.225 567 494.84 570.983 501.929 578.071C509.018 585.16 513 594.775 513 604.8" stroke="black" stroke-width="10.8" stroke-dasharray="28.47 1.22"/>
<path d="M475.2 588.6C479.497 588.6 483.617 590.307 486.656 593.345C489.694 596.383 491.4 600.504 491.4 604.8" stroke="black" stroke-width="10.8"/>
<path d="M502.199 648V604.8" stroke="black" stroke-width="32.4"/>
<path d="M502.199 691.2V648" stroke="black" stroke-width="32.4"/>
<path d="M516.926 734.4V692.673H475.199" stroke="black" stroke-width="2.94545" stroke-dasharray="7.8 2.63"/>
<path d="M511.033 734.4V698.564H475.197" stroke="black" stroke-width="2.94545" stroke-dasharray="7.8 2.44"/>
<path d="M505.145 734.4V704.455H475.199" stroke="black" stroke-width="2.94545" stroke-dasharray="7.8 2.18"/>
<path d="M499.252 734.4V710.345H475.197" stroke="black" stroke-width="2.94545" stroke-dasharray="7.8 1.82"/>
<path d="M493.359 734.4V716.236H475.196" stroke="black" stroke-width="2.94545" stroke-dasharray="7.8 1.28"/>
<path d="M487.471 734.4V722.127H475.198" stroke="black" stroke-width="2.94545" stroke-dasharray="7.8 4.47"/>
<path d="M512.999 734.4C512.999 744.425 509.017 754.04 501.928 761.129C494.839 768.217 485.224 772.2 475.199 772.2" stroke="black" stroke-width="10.8" stroke-dasharray="28.47 1.22"/>
<path d="M491.399 734.4C491.399 738.696 489.692 742.817 486.654 745.855C483.616 748.893 479.496 750.6 475.199 750.6" stroke="black" stroke-width="10.8"/>
<path d="M567.001 691.2C567.001 681.175 570.983 671.56 578.072 664.471C585.161 657.383 594.776 653.4 604.801 653.4" stroke="black" stroke-width="10.8" stroke-dasharray="28.47 1.22"/>
<path d="M588.601 691.2C588.601 686.903 590.308 682.783 593.346 679.745C596.384 676.707 600.504 675 604.801 675" stroke="black" stroke-width="10.8"/>
<path d="M604.8 729C594.775 729 585.16 725.017 578.071 717.929C570.982 710.84 567 701.225 567 691.2" stroke="black" stroke-width="10.8" stroke-dasharray="28.47 1.22"/>
<path d="M604.8 707.4C600.503 707.4 596.383 705.693 593.344 702.655C590.306 699.617 588.6 695.496 588.6 691.2" stroke="black" stroke-width="10.8"/>
<path d="M610.2 648C610.2 637.975 614.182 628.36 621.271 621.271C628.36 614.182 637.975 610.2 648 610.2" stroke="black" stroke-width="10.8" stroke-dasharray="28.47 1.22"/>
<path d="M631.8 648C631.8 643.704 633.507 639.583 636.545 636.545C639.583 633.507 643.703 631.8 648 631.8" stroke="black" stroke-width="10.8"/>
<path d="M633.961 648C633.961 651.829 633.207 655.621 631.741 659.159C630.276 662.697 628.128 665.911 625.42 668.619C619.951 674.088 612.534 677.16 604.801 677.16" stroke="black" stroke-width="6.48" stroke-dasharray="17.71 5.19"/>
<path d="M621.001 648C621.001 652.296 619.294 656.417 616.256 659.455C613.218 662.493 609.097 664.2 604.801 664.2" stroke="black" stroke-width="6.48" stroke-dasharray="17.71 7.73"/>
<path d="M608.041 648C608.041 648.859 607.699 649.683 607.092 650.291C606.484 650.899 605.66 651.24 604.801 651.24" stroke="black" stroke-width="6.48"/>
<path d="M604.799 705.24C608.628 705.24 612.42 705.994 615.958 707.46C619.496 708.925 622.71 711.073 625.418 713.781C630.887 719.249 633.959 726.666 633.959 734.4" stroke="black" stroke-width="6.48" stroke-dasharray="17.71 5.19"/>
<path d="M604.8 718.2C609.097 718.2 613.217 719.907 616.255 722.945C619.293 725.983 621 730.104 621 734.4" stroke="black" stroke-width="6.48" stroke-dasharray="17.71 7.73"/>
<path d="M604.797 731.16C605.656 731.16 606.481 731.501 607.088 732.109C607.696 732.717 608.037 733.541 608.037 734.4" stroke="black" stroke-width="6.48"/>
<path d="M647.999 772.2C637.974 772.2 628.359 768.218 621.271 761.129C614.182 754.04 610.199 744.425 610.199 734.4" stroke="black" stroke-width="10.8" stroke-dasharray="28.47 1.22"/>
<path d="M648.001 750.6C643.704 750.6 639.584 748.893 636.546 745.855C633.508 742.817 631.801 738.697 631.801 734.4" stroke="black" stroke-width="10.8"/>
<path d="M653.399 604.8C653.399 594.775 657.382 585.16 664.471 578.071C671.559 570.982 681.174 567 691.199 567" stroke="black" stroke-width="10.8" stroke-dasharray="28.47 1.22"/>
<path d="M674.999 604.8C674.999 600.503 676.706 596.383 679.744 593.345C682.782 590.307 686.903 588.6 691.199 588.6" stroke="black" stroke-width="10.8"/>
<path d="M677.16 604.8C677.16 608.629 676.406 612.421 674.94 615.959C673.475 619.497 671.327 622.711 668.619 625.419C663.151 630.888 655.734 633.96 648 633.96" stroke="black" stroke-width="6.48" stroke-dasharray="17.71 5.19"/>
<path d="M664.2 604.8C664.2 609.097 662.493 613.217 659.455 616.255C656.417 619.293 652.297 621 648 621" stroke="black" stroke-width="6.48" stroke-dasharray="17.71 7.73"/>
<path d="M651.24 604.8C651.24 605.659 650.899 606.483 650.291 607.091C649.683 607.699 648.859 608.04 648 608.04" stroke="black" stroke-width="6.48"/>
<path d="M648 761.4H691.2" stroke="black" stroke-width="32.4"/>
<path d="M691.2 567C701.225 567 710.84 570.983 717.929 578.071C725.018 585.16 729 594.775 729 604.8" stroke="black" stroke-width="10.8" stroke-dasharray="28.47 1.22"/>
<path d="M691.2 588.6C695.497 588.6 699.617 590.307 702.656 593.345C705.694 596.383 707.4 600.504 707.4 604.8" stroke="black" stroke-width="10.8"/>
<path d="M734.402 633.96C730.573 633.96 726.781 633.206 723.243 631.74C719.705 630.275 716.491 628.127 713.783 625.419C708.314 619.951 705.242 612.534 705.242 604.8" stroke="black" stroke-width="6.48" stroke-dasharray="17.71 5.19"/>
<path d="M734.399 621C730.103 621 725.982 619.293 722.944 616.255C719.906 613.217 718.199 609.097 718.199 604.8" stroke="black" stroke-width="6.48" stroke-dasharray="17.71 7.73"/>
<path d="M734.402 608.04C733.543 608.04 732.719 607.699 732.111 607.091C731.503 606.483 731.162 605.659 731.162 604.8" stroke="black" stroke-width="6.48"/>
<path d="M705.24 734.4C705.24 730.571 705.995 726.779 707.46 723.241C708.925 719.703 711.073 716.489 713.781 713.781C719.25 708.312 726.667 705.24 734.4 705.24" stroke="black" stroke-width="6.48" stroke-dasharray="17.71 5.19"/>
<path d="M718.2 734.4C718.2 730.103 719.907 725.983 722.945 722.945C725.983 719.907 730.104 718.2 734.4 718.2" stroke="black" stroke-width="6.48" stroke-dasharray="17.71 7.73"/>
<path d="M731.16 734.4C731.16 733.541 731.502 732.717 732.109 732.109C732.717 731.502 733.541 731.16 734.4 731.16" stroke="black" stroke-width="6.48"/>
<path d="M728.999 734.4C728.999 744.425 725.017 754.04 717.928 761.129C710.839 768.217 701.224 772.2 691.199 772.2" stroke="black" stroke-width="10.8" stroke-dasharray="28.47 1.22"/>
<path d="M707.399 734.4C707.399 738.696 705.692 742.817 702.654 745.855C699.616 748.893 695.496 750.6 691.199 750.6" stroke="black" stroke-width="10.8"/>
<path d="M734.399 610.2C744.424 610.2 754.039 614.182 761.128 621.271C768.217 628.36 772.199 637.975 772.199 648" stroke="black" stroke-width="10.8" stroke-dasharray="28.47 1.22"/>
<path d="M734.4 631.8C738.696 631.8 742.817 633.507 745.855 636.545C748.893 639.583 750.6 643.703 750.6 648" stroke="black" stroke-width="10.8"/>
<path d="M771.812 642.618L749.706 642.7" stroke="black" stroke-width="10.8" stroke-linecap="square"/>
<path d="M772.2 691.2C772.2 701.225 768.218 710.84 761.129 717.929C754.04 725.018 744.426 729 734.4 729" stroke="black" stroke-width="10.8" stroke-dasharray="28.47 1.22"/>
<path d="M750.6 691.2C750.6 695.497 748.894 699.617 745.856 702.655C742.817 705.693 738.697 707.4 734.4 707.4" stroke="black" stroke-width="10.8"/>
<path d="M771.814 696.582L749.707 696.5" stroke="black" stroke-width="10.8" stroke-linecap="square"/>
<path d="M826.2 604.8C826.2 594.775 830.182 585.16 837.271 578.071C844.36 570.982 853.975 567 864 567" stroke="black" stroke-width="10.8" stroke-dasharray="28.47 1.22"/>
<path d="M847.8 604.8C847.8 600.503 849.507 596.383 852.545 593.345C855.583 590.307 859.703 588.6 864 588.6" stroke="black" stroke-width="10.8"/>
<path d="M822.273 604.8V646.527H864.001" stroke="black" stroke-width="2.94545" stroke-dasharray="7.8 2.63"/>
<path d="M828.166 604.8V640.636H864.002" stroke="black" stroke-width="2.94545" stroke-dasharray="7.8 2.44"/>
<path d="M834.055 604.8V634.746H864" stroke="black" stroke-width="2.94545" stroke-dasharray="7.8 2.18"/>
<path d="M839.945 604.8V628.855H864" stroke="black" stroke-width="2.94545" stroke-dasharray="7.8 1.82"/>
<path d="M845.838 604.8V622.964H864.002" stroke="black" stroke-width="2.94545" stroke-dasharray="7.8 1.28"/>
<path d="M851.727 604.8V617.073H863.999" stroke="black" stroke-width="2.94545" stroke-dasharray="7.8 4.47"/>
<path d="M837 648V691.2" stroke="black" stroke-width="32.4"/>
<path d="M837 691.2V734.4" stroke="black" stroke-width="32.4"/>
<path d="M863.999 772.2C853.974 772.2 844.359 768.218 837.271 761.129C830.182 754.04 826.199 744.425 826.199 734.4" stroke="black" stroke-width="10.8" stroke-dasharray="28.47 1.22"/>
<path d="M864.001 750.6C859.704 750.6 855.584 748.893 852.546 745.855C849.508 742.817 847.801 738.697 847.801 734.4" stroke="black" stroke-width="10.8"/>
<path d="M907.199 577.8H863.999" stroke="black" stroke-width="32.4"/>
<path d="M864 631.8H907.2" stroke="black" stroke-width="32.4"/>
<path d="M864 761.4H907.2" stroke="black" stroke-width="32.4"/>
<path d="M950.4 577.8H907.2" stroke="black" stroke-width="32.4"/>
<path d="M907.199 631.8H950.399" stroke="black" stroke-width="32.4"/>
<path d="M907.199 761.4H950.399" stroke="black" stroke-width="32.4"/>
<path d="M993.6 577.8H950.4" stroke="black" stroke-width="32.4"/>
<path d="M950.4 631.8H993.6" stroke="black" stroke-width="32.4"/>
<path d="M950.4 761.4H993.6" stroke="black" stroke-width="32.4"/>
<path d="M993.6 567C1003.63 567 1013.24 570.983 1020.33 578.071C1027.42 585.16 1031.4 594.775 1031.4 604.8" stroke="black" stroke-width="10.8" stroke-dasharray="28.47 1.22"/>
<path d="M993.601 588.6C997.897 588.6 1002.02 590.307 1005.06 593.345C1008.09 596.383 1009.8 600.504 1009.8 604.8" stroke="black" stroke-width="10.8"/>
<path d="M1031.4 604.8C1031.4 614.825 1027.42 624.44 1020.33 631.529C1013.24 638.617 1003.62 642.6 993.6 642.6" stroke="black" stroke-width="10.8" stroke-dasharray="28.47 1.22"/>
<path d="M1009.8 604.8C1009.8 609.097 1008.09 613.217 1005.05 616.255C1002.02 619.293 997.896 621 993.6 621" stroke="black" stroke-width="10.8"/>
<path d="M1020.6 734.4V707.4" stroke="black" stroke-width="32.4"/>
<rect x="1036.8" y="723.6" width="32.4" height="32.4" transform="rotate(180 1036.8 723.6)" fill="black"/>
<path d="M1031.4 734.4C1031.4 744.425 1027.42 754.04 1020.33 761.129C1013.24 768.217 1003.62 772.2 993.6 772.2" stroke="black" stroke-width="10.8" stroke-dasharray="28.47 1.22"/>
<path d="M1009.8 734.4C1009.8 738.696 1008.09 742.817 1005.05 745.855C1002.02 748.893 997.896 750.6 993.6 750.6" stroke="black" stroke-width="10.8"/>
<path d="M86.4023 880.2H59.4023" stroke="black" stroke-width="32.4"/>
<rect x="75.6016" y="864" width="32.4" height="32.4" transform="rotate(90 75.6016 864)" fill="black"/>
<path d="M102.602 837V864" stroke="black" stroke-width="32.4"/>
<rect x="86.4023" y="820.8" width="32.4" height="32.4" fill="black"/>
<path d="M129.602 865.473H87.8743V907.2" stroke="black" stroke-width="2.94545" stroke-dasharray="7.8 2.63"/>
<path d="M129.602 871.363H93.7652V907.2" stroke="black" stroke-width="2.94545" stroke-dasharray="7.8 2.44"/>
<path d="M129.602 877.254H99.6561V907.2" stroke="black" stroke-width="2.94545" stroke-dasharray="7.8 2.18"/>
<path d="M129.602 883.145H105.547V907.2" stroke="black" stroke-width="2.94545" stroke-dasharray="7.8 1.82"/>
<path d="M129.602 889.036H111.438V907.2" stroke="black" stroke-width="2.94545" stroke-dasharray="7.8 1.28"/>
<path d="M129.602 894.927H117.329V907.2" stroke="black" stroke-width="2.94545" stroke-dasharray="7.8 4.47"/>
<path d="M102.602 907.2V950.4" stroke="black" stroke-width="32.4"/>
<path d="M102.602 950.4V993.6" stroke="black" stroke-width="32.4"/>
<path d="M129.601 1031.4C119.576 1031.4 109.961 1027.42 102.872 1020.33C95.7833 1013.24 91.8008 1003.63 91.8008 993.6" stroke="black" stroke-width="10.8" stroke-dasharray="28.47 1.22"/>
<path d="M129.6 1009.8C125.304 1009.8 121.183 1008.09 118.145 1005.06C115.107 1002.02 113.4 997.896 113.4 993.6" stroke="black" stroke-width="10.8"/>
<path d="M172.801 880.2H129.601" stroke="black" stroke-width="32.4"/>
<path d="M129.602 1020.6H172.802" stroke="black" stroke-width="32.4"/>
<path d="M216.002 880.2H172.802" stroke="black" stroke-width="32.4"/>
<path d="M172.801 1020.6H216.001" stroke="black" stroke-width="32.4"/>
<path d="M243.002 880.2H216.002" stroke="black" stroke-width="32.4"/>
<rect x="259.201" y="864" width="32.4" height="32.4" transform="rotate(90 259.201 864)" fill="black"/>
<path d="M243.002 993.6V966.6" stroke="black" stroke-width="32.4"/>
<rect x="259.201" y="982.8" width="32.4" height="32.4" transform="rotate(180 259.201 982.8)" fill="black"/>
<path d="M253.802 993.6C253.802 1003.63 249.819 1013.24 242.731 1020.33C235.642 1027.42 226.027 1031.4 216.002 1031.4" stroke="black" stroke-width="10.8" stroke-dasharray="28.47 1.22"/>
<path d="M232.202 993.6C232.202 997.896 230.495 1002.02 227.457 1005.06C224.419 1008.09 220.298 1009.8 216.002 1009.8" stroke="black" stroke-width="10.8"/>
<path d="M567.001 950.4C567.001 940.375 570.983 930.76 578.072 923.671C585.161 916.582 594.776 912.6 604.801 912.6" stroke="black" stroke-width="10.8" stroke-dasharray="28.47 1.22"/>
<path d="M588.601 950.4C588.601 946.104 590.308 941.983 593.346 938.945C596.384 935.907 600.504 934.2 604.801 934.2" stroke="black" stroke-width="10.8"/>
<path d="M577.801 950.4V993.6" stroke="black" stroke-width="32.4"/>
<path d="M604.8 1031.4C594.775 1031.4 585.16 1027.42 578.071 1020.33C570.982 1013.24 567 1003.63 567 993.6" stroke="black" stroke-width="10.8" stroke-dasharray="28.47 1.22"/>
<path d="M604.8 1009.8C600.503 1009.8 596.383 1008.09 593.344 1005.06C590.306 1002.02 588.6 997.896 588.6 993.6" stroke="black" stroke-width="10.8"/>
<path d="M610.2 907.2C610.2 897.175 614.182 887.56 621.271 880.471C628.36 873.383 637.975 869.4 648 869.4" stroke="black" stroke-width="10.8" stroke-dasharray="28.47 1.22"/>
<path d="M631.8 907.2C631.8 902.903 633.507 898.783 636.545 895.745C639.583 892.707 643.703 891 648 891" stroke="black" stroke-width="10.8"/>
<path d="M633.961 907.2C633.961 911.029 633.207 914.821 631.741 918.359C630.276 921.897 628.128 925.111 625.42 927.819C619.951 933.288 612.534 936.36 604.801 936.36" stroke="black" stroke-width="6.48" stroke-dasharray="17.71 5.19"/>
<path d="M621.001 907.2C621.001 911.497 619.294 915.617 616.256 918.655C613.218 921.693 609.097 923.4 604.801 923.4" stroke="black" stroke-width="6.48" stroke-dasharray="17.71 7.73"/>
<path d="M608.041 907.2C608.041 908.059 607.699 908.883 607.092 909.491C606.484 910.099 605.66 910.44 604.801 910.44" stroke="black" stroke-width="6.48"/>
<path d="M604.801 1020.6H648.001" stroke="black" stroke-width="32.4"/>
<path d="M691.199 880.2H647.999" stroke="black" stroke-width="32.4"/>
<path d="M662.039 993.6C662.039 989.771 662.793 985.979 664.259 982.441C665.724 978.903 667.872 975.689 670.58 972.981C676.049 967.512 683.466 964.44 691.199 964.44" stroke="black" stroke-width="6.48" stroke-dasharray="17.71 5.19"/>
<path d="M674.999 993.6C674.999 989.304 676.706 985.183 679.744 982.145C682.782 979.107 686.903 977.4 691.199 977.4" stroke="black" stroke-width="6.48" stroke-dasharray="17.71 7.73"/>
<path d="M687.959 993.6C687.959 992.741 688.301 991.917 688.908 991.309C689.516 990.701 690.34 990.36 691.199 990.36" stroke="black" stroke-width="6.48"/>
<path d="M685.8 993.6C685.8 1003.63 681.818 1013.24 674.729 1020.33C667.64 1027.42 658.025 1031.4 648 1031.4" stroke="black" stroke-width="10.8" stroke-dasharray="28.47 1.22"/>
<path d="M664.2 993.6C664.2 997.896 662.493 1002.02 659.455 1005.06C656.417 1008.09 652.297 1009.8 648 1009.8" stroke="black" stroke-width="10.8"/>
<path d="M696.6 864C696.6 853.975 700.583 844.36 707.672 837.271C714.761 830.183 724.375 826.2 734.4 826.2" stroke="black" stroke-width="10.8" stroke-dasharray="28.47 1.22"/>
<path d="M718.2 864C718.2 859.703 719.907 855.583 722.945 852.545C725.983 849.507 730.104 847.8 734.4 847.8" stroke="black" stroke-width="10.8"/>
<path d="M720.359 864C720.359 867.829 719.605 871.621 718.14 875.159C716.674 878.697 714.526 881.911 711.818 884.619C706.35 890.088 698.933 893.16 691.199 893.16" stroke="black" stroke-width="6.48" stroke-dasharray="17.71 5.19"/>
<path d="M707.399 864C707.399 868.297 705.692 872.417 702.654 875.455C699.616 878.493 695.496 880.2 691.199 880.2" stroke="black" stroke-width="6.48" stroke-dasharray="17.71 7.73"/>
<path d="M694.439 864C694.439 864.859 694.098 865.683 693.49 866.291C692.883 866.899 692.059 867.24 691.199 867.24" stroke="black" stroke-width="6.48"/>
<path d="M691.199 977.4H734.399" stroke="black" stroke-width="32.4"/>
<path d="M734.399 826.2C744.424 826.2 754.039 830.182 761.128 837.271C768.217 844.36 772.199 853.975 772.199 864" stroke="black" stroke-width="10.8" stroke-dasharray="28.47 1.22"/>
<path d="M734.4 847.8C738.696 847.8 742.817 849.507 745.855 852.545C748.893 855.583 750.6 859.703 750.6 864" stroke="black" stroke-width="10.8"/>
<path d="M761.4 907.2V864" stroke="black" stroke-width="32.4"/>
<path d="M761.4 950.4V907.2" stroke="black" stroke-width="32.4"/>
<path d="M772.2 950.4C772.2 960.425 768.218 970.04 761.129 977.129C754.04 984.218 744.426 988.2 734.4 988.2" stroke="black" stroke-width="10.8" stroke-dasharray="28.47 1.22"/>
<path d="M750.6 950.4C750.6 954.696 748.894 958.817 745.856 961.855C742.817 964.893 738.697 966.6 734.4 966.6" stroke="black" stroke-width="10.8"/>
<path d="M837 837V864" stroke="black" stroke-width="32.4"/>
<rect x="820.801" y="820.8" width="32.4" height="32.4" fill="black"/>
<path d="M837 864V907.2" stroke="black" stroke-width="32.4"/>
<path d="M837 907.2V950.4" stroke="black" stroke-width="32.4"/>
<path d="M837 950.4V993.6" stroke="black" stroke-width="32.4"/>
<path d="M822.273 993.6V1035.33H864.001" stroke="black" stroke-width="2.94545" stroke-dasharray="7.8 2.63"/>
<path d="M828.166 993.6V1029.44H864.002" stroke="black" stroke-width="2.94545" stroke-dasharray="7.8 2.44"/>
<path d="M834.055 993.6V1023.55H864" stroke="black" stroke-width="2.94545" stroke-dasharray="7.8 2.18"/>
<path d="M839.945 993.6V1017.65H864" stroke="black" stroke-width="2.94545" stroke-dasharray="7.8 1.82"/>
<path d="M845.838 993.6V1011.76H864.002" stroke="black" stroke-width="2.94545" stroke-dasharray="7.8 1.28"/>
<path d="M851.727 993.6V1005.87H863.999" stroke="black" stroke-width="2.94545" stroke-dasharray="7.8 4.47"/>
<path d="M864 1020.6H907.2" stroke="black" stroke-width="32.4"/>
<path d="M907.199 1020.6H950.399" stroke="black" stroke-width="32.4"/>
<path d="M950.4 1020.6H993.6" stroke="black" stroke-width="32.4"/>
<path d="M993.6 1020.6H1020.6" stroke="black" stroke-width="32.4"/>
<rect x="1004.4" y="1036.8" width="32.4" height="32.4" transform="rotate(-90 1004.4 1036.8)" fill="black"/>
<path d="M307.8 172.8C307.8 162.775 311.782 153.16 318.871 146.071C325.96 138.982 335.574 135 345.6 135" stroke="black" stroke-width="10.8" stroke-dasharray="28.47 1.22"/>
<path d="M329.4 172.8C329.4 168.503 331.106 164.383 334.144 161.345C337.183 158.307 341.303 156.6 345.6 156.6" stroke="black" stroke-width="10.8"/>
<path d="M318.6 172.8V216" stroke="black" stroke-width="32.4"/>
<path d="M345.599 253.8C335.574 253.8 325.959 249.818 318.87 242.729C311.781 235.64 307.799 226.025 307.799 216" stroke="black" stroke-width="10.8" stroke-dasharray="28.47 1.22"/>
<path d="M345.598 232.2C341.302 232.2 337.181 230.493 334.143 227.455C331.105 224.417 329.398 220.297 329.398 216" stroke="black" stroke-width="10.8"/>
<path d="M350.999 129.6C350.999 119.575 354.981 109.96 362.07 102.871C369.159 95.7825 378.774 91.8 388.799 91.8" stroke="black" stroke-width="10.8" stroke-dasharray="28.47 1.22"/>
<path d="M372.599 129.6C372.599 125.304 374.306 121.183 377.344 118.145C380.382 115.107 384.502 113.4 388.799 113.4" stroke="black" stroke-width="10.8"/>
<path d="M374.76 129.6C374.76 133.429 374.005 137.221 372.54 140.759C371.075 144.297 368.927 147.511 366.219 150.219C360.75 155.688 353.333 158.76 345.6 158.76" stroke="black" stroke-width="6.48" stroke-dasharray="17.71 5.19"/>
<path d="M361.8 129.6C361.8 133.897 360.093 138.017 357.055 141.055C354.017 144.093 349.896 145.8 345.6 145.8" stroke="black" stroke-width="6.48" stroke-dasharray="17.71 7.73"/>
<path d="M348.84 129.6C348.84 130.459 348.498 131.283 347.891 131.891C347.283 132.498 346.459 132.84 345.6 132.84" stroke="black" stroke-width="6.48"/>
<path d="M345.6 243H388.8" stroke="black" stroke-width="32.4"/>
<path d="M432 102.6H388.8" stroke="black" stroke-width="32.4"/>
<path d="M402.84 216C402.84 212.171 403.594 208.379 405.06 204.841C406.525 201.303 408.673 198.089 411.381 195.381C416.849 189.912 424.266 186.84 432 186.84" stroke="black" stroke-width="6.48" stroke-dasharray="17.71 5.19"/>
<path d="M415.8 216C415.8 211.704 417.507 207.583 420.545 204.545C423.583 201.507 427.703 199.8 432 199.8" stroke="black" stroke-width="6.48" stroke-dasharray="17.71 7.73"/>
<path d="M428.76 216C428.76 215.141 429.101 214.317 429.709 213.709C430.317 213.101 431.141 212.76 432 212.76" stroke="black" stroke-width="6.48"/>
<path d="M426.599 216C426.599 226.025 422.616 235.64 415.527 242.729C408.439 249.818 398.824 253.8 388.799 253.8" stroke="black" stroke-width="10.8" stroke-dasharray="28.47 1.22"/>
<path d="M404.999 216C404.999 220.296 403.292 224.417 400.254 227.455C397.216 230.493 393.095 232.2 388.799 232.2" stroke="black" stroke-width="10.8"/>
<path d="M437.399 86.4C437.399 76.3748 441.382 66.7602 448.471 59.6713C455.559 52.5825 465.174 48.6 475.199 48.6" stroke="black" stroke-width="10.8" stroke-dasharray="28.47 1.22"/>
<path d="M458.999 86.4C458.999 82.1034 460.706 77.9829 463.744 74.9448C466.782 71.9067 470.903 70.2 475.199 70.2" stroke="black" stroke-width="10.8"/>
<path d="M461.16 86.3999C461.16 90.2293 460.406 94.0211 458.94 97.559C457.475 101.097 455.327 104.311 452.619 107.019C447.151 112.488 439.734 115.56 432 115.56" stroke="black" stroke-width="6.48" stroke-dasharray="17.71 5.19"/>
<path d="M448.2 86.4C448.2 90.6965 446.493 94.817 443.455 97.8551C440.417 100.893 436.297 102.6 432 102.6" stroke="black" stroke-width="6.48" stroke-dasharray="17.71 7.73"/>
<path d="M435.24 86.3999C435.24 87.2592 434.899 88.0833 434.291 88.6909C433.683 89.2985 432.859 89.6399 432 89.6399" stroke="black" stroke-width="6.48"/>
<path d="M432 199.8H475.2" stroke="black" stroke-width="32.4"/>
<path d="M475.2 48.6C485.225 48.6 494.84 52.5825 501.929 59.6714C509.018 66.7603 513 76.3748 513 86.4" stroke="black" stroke-width="10.8" stroke-dasharray="28.47 1.22"/>
<path d="M475.2 70.2C479.497 70.2 483.617 71.9068 486.656 74.9449C489.694 77.983 491.4 82.1035 491.4 86.4" stroke="black" stroke-width="10.8"/>
<path d="M502.199 129.6V86.4" stroke="black" stroke-width="32.4"/>
<path d="M502.199 172.8V129.6" stroke="black" stroke-width="32.4"/>
<path d="M512.999 172.8C512.999 182.825 509.017 192.44 501.928 199.529C494.839 206.617 485.224 210.6 475.199 210.6" stroke="black" stroke-width="10.8" stroke-dasharray="28.47 1.22"/>
<path d="M491.399 172.8C491.399 177.097 489.692 181.217 486.654 184.255C483.616 187.293 479.496 189 475.199 189" stroke="black" stroke-width="10.8"/>
<path d="M307.8 869.4C307.8 859.375 311.782 849.76 318.871 842.671C325.96 835.582 335.574 831.6 345.6 831.6" stroke="black" stroke-width="10.8" stroke-dasharray="28.47 1.22"/>
<path d="M329.4 869.4C329.4 865.104 331.106 860.983 334.144 857.945C337.183 854.907 341.303 853.2 345.6 853.2" stroke="black" stroke-width="10.8"/>
<path d="M345.599 907.2C335.574 907.2 325.959 903.218 318.87 896.129C311.781 889.04 307.799 879.425 307.799 869.4" stroke="black" stroke-width="10.8" stroke-dasharray="28.47 1.22"/>
<path d="M345.598 885.6C341.302 885.6 337.181 883.893 334.143 880.855C331.105 877.817 329.398 873.697 329.398 869.4" stroke="black" stroke-width="10.8"/>
<path d="M307.8 999C307.8 988.975 311.782 979.36 318.871 972.271C325.96 965.183 335.574 961.2 345.6 961.2" stroke="black" stroke-width="10.8" stroke-dasharray="28.47 1.22"/>
<path d="M329.4 999C329.4 994.703 331.106 990.583 334.144 987.545C337.183 984.507 341.303 982.8 345.6 982.8" stroke="black" stroke-width="10.8"/>
<path d="M345.599 1036.8C335.574 1036.8 325.959 1032.82 318.87 1025.73C311.781 1018.64 307.799 1009.03 307.799 999" stroke="black" stroke-width="10.8" stroke-dasharray="28.47 1.22"/>
<path d="M345.598 1015.2C341.302 1015.2 337.181 1013.49 334.143 1010.46C331.105 1007.42 329.398 1003.3 329.398 999" stroke="black" stroke-width="10.8"/>
<path d="M388.799 842.4H345.599" stroke="black" stroke-width="32.4"/>
<path d="M345.598 883.44C349.427 883.44 353.219 884.194 356.757 885.66C360.295 887.125 363.509 889.273 366.217 891.981C371.686 897.449 374.758 904.866 374.758 912.6" stroke="black" stroke-width="6.48" stroke-dasharray="17.71 5.19"/>
<path d="M345.601 896.4C349.897 896.4 354.018 898.107 357.056 901.145C360.094 904.183 361.801 908.303 361.801 912.6" stroke="black" stroke-width="6.48" stroke-dasharray="17.71 7.73"/>
<path d="M345.598 909.36C346.457 909.36 347.281 909.701 347.889 910.309C348.497 910.917 348.838 911.741 348.838 912.6" stroke="black" stroke-width="6.48"/>
<path d="M361.799 912.6V955.8" stroke="black" stroke-width="32.4"/>
<path d="M374.76 955.8C374.76 959.629 374.005 963.421 372.54 966.959C371.075 970.497 368.927 973.711 366.219 976.419C360.75 981.888 353.333 984.96 345.6 984.96" stroke="black" stroke-width="6.48" stroke-dasharray="17.71 5.19"/>
<path d="M361.8 955.8C361.8 960.097 360.093 964.217 357.055 967.255C354.017 970.293 349.896 972 345.6 972" stroke="black" stroke-width="6.48" stroke-dasharray="17.71 7.73"/>
<path d="M348.84 955.8C348.84 956.659 348.498 957.483 347.891 958.091C347.283 958.698 346.459 959.04 345.6 959.04" stroke="black" stroke-width="6.48"/>
<path d="M345.6 1026H388.8" stroke="black" stroke-width="32.4"/>
<path d="M432 842.4H388.8" stroke="black" stroke-width="32.4"/>
<path d="M388.799 1026H431.999" stroke="black" stroke-width="32.4"/>
<path d="M475.199 842.4H431.999" stroke="black" stroke-width="32.4"/>
<path d="M446.039 912.6C446.039 908.771 446.793 904.979 448.259 901.441C449.724 897.903 451.872 894.689 454.58 891.981C460.049 886.512 467.466 883.44 475.199 883.44" stroke="black" stroke-width="6.48" stroke-dasharray="17.71 5.19"/>
<path d="M458.999 912.6C458.999 908.304 460.706 904.183 463.744 901.145C466.782 898.107 470.903 896.4 475.199 896.4" stroke="black" stroke-width="6.48" stroke-dasharray="17.71 7.73"/>
<path d="M471.959 912.6C471.959 911.741 472.301 910.917 472.908 910.309C473.516 909.701 474.34 909.36 475.199 909.36" stroke="black" stroke-width="6.48"/>
<path d="M459 955.8V912.6" stroke="black" stroke-width="32.4"/>
<path d="M475.201 984.96C471.372 984.96 467.58 984.206 464.042 982.74C460.504 981.275 457.29 979.127 454.582 976.419C449.113 970.951 446.041 963.534 446.041 955.8" stroke="black" stroke-width="6.48" stroke-dasharray="17.71 5.19"/>
<path d="M475.2 972C470.903 972 466.783 970.293 463.745 967.255C460.707 964.217 459 960.096 459 955.8" stroke="black" stroke-width="6.48" stroke-dasharray="17.71 7.73"/>
<path d="M475.203 959.04C474.344 959.04 473.519 958.699 472.912 958.091C472.304 957.483 471.963 956.659 471.963 955.8" stroke="black" stroke-width="6.48"/>
<path d="M432 1026H475.2" stroke="black" stroke-width="32.4"/>
<path d="M475.2 831.6C485.225 831.6 494.84 835.583 501.929 842.671C509.018 849.76 513 859.375 513 869.4" stroke="black" stroke-width="10.8" stroke-dasharray="28.47 1.22"/>
<path d="M475.2 853.2C479.497 853.2 483.617 854.907 486.656 857.945C489.694 860.983 491.4 865.104 491.4 869.4" stroke="black" stroke-width="10.8"/>
<path d="M512.999 869.4C512.999 879.425 509.017 889.04 501.928 896.129C494.839 903.218 485.224 907.2 475.199 907.2" stroke="black" stroke-width="10.8" stroke-dasharray="28.47 1.22"/>
<path d="M491.399 869.4C491.399 873.696 489.692 877.817 486.654 880.855C483.616 883.893 479.496 885.6 475.199 885.6" stroke="black" stroke-width="10.8"/>
<path d="M475.2 961.2C485.225 961.2 494.84 965.182 501.929 972.271C509.018 979.36 513 988.975 513 999" stroke="black" stroke-width="10.8" stroke-dasharray="28.47 1.22"/>
<path d="M475.2 982.8C479.497 982.8 483.617 984.507 486.656 987.545C489.694 990.583 491.4 994.703 491.4 999" stroke="black" stroke-width="10.8"/>
<path d="M512.999 999C512.999 1009.03 509.017 1018.64 501.928 1025.73C494.839 1032.82 485.224 1036.8 475.199 1036.8" stroke="black" stroke-width="10.8" stroke-dasharray="28.47 1.22"/>
<path d="M491.399 999C491.399 1003.3 489.692 1007.42 486.654 1010.46C483.616 1013.49 479.496 1015.2 475.199 1015.2" stroke="black" stroke-width="10.8"/>
</svg>
